G04 #@! TF.GenerationSoftware,KiCad,Pcbnew,(5.1.8)-1*
G04 #@! TF.CreationDate,2020-11-12T23:55:28+03:00*
G04 #@! TF.ProjectId,L293,4c323933-2e6b-4696-9361-645f70636258,rev?*
G04 #@! TF.SameCoordinates,Original*
G04 #@! TF.FileFunction,Copper,L2,Bot*
G04 #@! TF.FilePolarity,Positive*
%FSLAX46Y46*%
G04 Gerber Fmt 4.6, Leading zero omitted, Abs format (unit mm)*
G04 Created by KiCad (PCBNEW (5.1.8)-1) date 2020-11-12 23:55:28*
%MOMM*%
%LPD*%
G01*
G04 APERTURE LIST*
G04 #@! TA.AperFunction,ComponentPad*
%ADD10C,0.100000*%
G04 #@! TD*
G04 #@! TA.AperFunction,ComponentPad*
%ADD11C,2.000000*%
G04 #@! TD*
G04 #@! TA.AperFunction,ComponentPad*
%ADD12C,2.300000*%
G04 #@! TD*
G04 #@! TA.AperFunction,ComponentPad*
%ADD13R,1.700000X1.700000*%
G04 #@! TD*
G04 #@! TA.AperFunction,ComponentPad*
%ADD14R,3.000000X3.000000*%
G04 #@! TD*
G04 #@! TA.AperFunction,ComponentPad*
%ADD15C,3.000000*%
G04 #@! TD*
G04 #@! TA.AperFunction,ComponentPad*
%ADD16R,1.600000X1.400000*%
G04 #@! TD*
G04 #@! TA.AperFunction,ComponentPad*
%ADD17R,2.400000X2.400000*%
G04 #@! TD*
G04 #@! TA.AperFunction,ComponentPad*
%ADD18R,1.900000X1.900000*%
G04 #@! TD*
G04 #@! TA.AperFunction,ComponentPad*
%ADD19O,1.900000X1.900000*%
G04 #@! TD*
G04 #@! TA.AperFunction,ComponentPad*
%ADD20R,1.905000X2.000000*%
G04 #@! TD*
G04 #@! TA.AperFunction,ComponentPad*
%ADD21O,2.100000X2.300000*%
G04 #@! TD*
G04 #@! TA.AperFunction,ComponentPad*
%ADD22O,1.905000X2.000000*%
G04 #@! TD*
G04 #@! TA.AperFunction,ViaPad*
%ADD23C,1.600000*%
G04 #@! TD*
G04 #@! TA.AperFunction,Conductor*
%ADD24C,0.250000*%
G04 #@! TD*
G04 #@! TA.AperFunction,Conductor*
%ADD25C,0.300000*%
G04 #@! TD*
G04 #@! TA.AperFunction,Conductor*
%ADD26C,1.200000*%
G04 #@! TD*
G04 #@! TA.AperFunction,Conductor*
%ADD27C,0.800000*%
G04 #@! TD*
G04 #@! TA.AperFunction,Conductor*
%ADD28C,0.600000*%
G04 #@! TD*
G04 #@! TA.AperFunction,Conductor*
%ADD29C,0.500000*%
G04 #@! TD*
G04 #@! TA.AperFunction,Conductor*
%ADD30C,0.400000*%
G04 #@! TD*
G04 APERTURE END LIST*
G04 #@! TA.AperFunction,ComponentPad*
D10*
G36*
X120650000Y-60463629D02*
G01*
X121781371Y-61595000D01*
X120650000Y-62726371D01*
X119518629Y-61595000D01*
X120650000Y-60463629D01*
G37*
G04 #@! TD.AperFunction*
D11*
X118882233Y-63362767D03*
D12*
X98735000Y-63500000D03*
G04 #@! TA.AperFunction,ComponentPad*
G36*
G01*
X103135000Y-63050000D02*
X103135000Y-63950000D01*
G75*
G02*
X102685000Y-64400000I-450000J0D01*
G01*
X101785000Y-64400000D01*
G75*
G02*
X101335000Y-63950000I0J450000D01*
G01*
X101335000Y-63050000D01*
G75*
G02*
X101785000Y-62600000I450000J0D01*
G01*
X102685000Y-62600000D01*
G75*
G02*
X103135000Y-63050000I0J-450000D01*
G01*
G37*
G04 #@! TD.AperFunction*
D13*
X125730000Y-59690000D03*
X125730000Y-57150000D03*
X125730000Y-54610000D03*
X125730000Y-52070000D03*
X125730000Y-49530000D03*
X125730000Y-46990000D03*
X125730000Y-44450000D03*
X125730000Y-41910000D03*
X125730000Y-39370000D03*
X125730000Y-36830000D03*
X92710000Y-39370000D03*
X92710000Y-41910000D03*
X92710000Y-44450000D03*
X92710000Y-46990000D03*
X92710000Y-49530000D03*
X92710000Y-52070000D03*
X92710000Y-54610000D03*
X92710000Y-57150000D03*
X92710000Y-36830000D03*
X92710000Y-59690000D03*
G04 #@! TA.AperFunction,SMDPad,CuDef*
G36*
G01*
X97360000Y-55060001D02*
X97360000Y-54159999D01*
G75*
G02*
X97609999Y-53910000I249999J0D01*
G01*
X98260001Y-53910000D01*
G75*
G02*
X98510000Y-54159999I0J-249999D01*
G01*
X98510000Y-55060001D01*
G75*
G02*
X98260001Y-55310000I-249999J0D01*
G01*
X97609999Y-55310000D01*
G75*
G02*
X97360000Y-55060001I0J249999D01*
G01*
G37*
G04 #@! TD.AperFunction*
G04 #@! TA.AperFunction,SMDPad,CuDef*
G36*
G01*
X95310000Y-55060001D02*
X95310000Y-54159999D01*
G75*
G02*
X95559999Y-53910000I249999J0D01*
G01*
X96210001Y-53910000D01*
G75*
G02*
X96460000Y-54159999I0J-249999D01*
G01*
X96460000Y-55060001D01*
G75*
G02*
X96210001Y-55310000I-249999J0D01*
G01*
X95559999Y-55310000D01*
G75*
G02*
X95310000Y-55060001I0J249999D01*
G01*
G37*
G04 #@! TD.AperFunction*
D14*
X114300000Y-64135000D03*
D15*
X109220000Y-64135000D03*
X105410000Y-31750000D03*
D14*
X100330000Y-31750000D03*
X113030000Y-31750000D03*
D15*
X118110000Y-31750000D03*
D16*
X100330000Y-38735000D03*
X107950000Y-56515000D03*
X100330000Y-41275000D03*
X107950000Y-53975000D03*
X100330000Y-43815000D03*
X107950000Y-51435000D03*
D17*
X100330000Y-46355000D03*
X107950000Y-48895000D03*
X100330000Y-48895000D03*
X107950000Y-46355000D03*
D16*
X100330000Y-51435000D03*
X107950000Y-43815000D03*
X100330000Y-53975000D03*
X107950000Y-41275000D03*
X100330000Y-56515000D03*
X107950000Y-38735000D03*
G04 #@! TA.AperFunction,SMDPad,CuDef*
G36*
G01*
X113652500Y-59187501D02*
X113652500Y-58287499D01*
G75*
G02*
X113902499Y-58037500I249999J0D01*
G01*
X114552501Y-58037500D01*
G75*
G02*
X114802500Y-58287499I0J-249999D01*
G01*
X114802500Y-59187501D01*
G75*
G02*
X114552501Y-59437500I-249999J0D01*
G01*
X113902499Y-59437500D01*
G75*
G02*
X113652500Y-59187501I0J249999D01*
G01*
G37*
G04 #@! TD.AperFunction*
G04 #@! TA.AperFunction,SMDPad,CuDef*
G36*
G01*
X115702500Y-59187501D02*
X115702500Y-58287499D01*
G75*
G02*
X115952499Y-58037500I249999J0D01*
G01*
X116602501Y-58037500D01*
G75*
G02*
X116852500Y-58287499I0J-249999D01*
G01*
X116852500Y-59187501D01*
G75*
G02*
X116602501Y-59437500I-249999J0D01*
G01*
X115952499Y-59437500D01*
G75*
G02*
X115702500Y-59187501I0J249999D01*
G01*
G37*
G04 #@! TD.AperFunction*
D18*
X121602500Y-58420000D03*
D19*
X121602500Y-55880000D03*
D20*
X113665000Y-56515000D03*
D21*
X116205000Y-56515000D03*
D22*
X118745000Y-56515000D03*
G04 #@! TA.AperFunction,SMDPad,CuDef*
G36*
G01*
X111627499Y-39040000D02*
X112527501Y-39040000D01*
G75*
G02*
X112777500Y-39289999I0J-249999D01*
G01*
X112777500Y-39940001D01*
G75*
G02*
X112527501Y-40190000I-249999J0D01*
G01*
X111627499Y-40190000D01*
G75*
G02*
X111377500Y-39940001I0J249999D01*
G01*
X111377500Y-39289999D01*
G75*
G02*
X111627499Y-39040000I249999J0D01*
G01*
G37*
G04 #@! TD.AperFunction*
G04 #@! TA.AperFunction,SMDPad,CuDef*
G36*
G01*
X111627499Y-41090000D02*
X112527501Y-41090000D01*
G75*
G02*
X112777500Y-41339999I0J-249999D01*
G01*
X112777500Y-41990001D01*
G75*
G02*
X112527501Y-42240000I-249999J0D01*
G01*
X111627499Y-42240000D01*
G75*
G02*
X111377500Y-41990001I0J249999D01*
G01*
X111377500Y-41339999D01*
G75*
G02*
X111627499Y-41090000I249999J0D01*
G01*
G37*
G04 #@! TD.AperFunction*
G04 #@! TA.AperFunction,SMDPad,CuDef*
G36*
G01*
X111927500Y-43222500D02*
X112227500Y-43222500D01*
G75*
G02*
X112377500Y-43372500I0J-150000D01*
G01*
X112377500Y-45022500D01*
G75*
G02*
X112227500Y-45172500I-150000J0D01*
G01*
X111927500Y-45172500D01*
G75*
G02*
X111777500Y-45022500I0J150000D01*
G01*
X111777500Y-43372500D01*
G75*
G02*
X111927500Y-43222500I150000J0D01*
G01*
G37*
G04 #@! TD.AperFunction*
G04 #@! TA.AperFunction,SMDPad,CuDef*
G36*
G01*
X113197500Y-43222500D02*
X113497500Y-43222500D01*
G75*
G02*
X113647500Y-43372500I0J-150000D01*
G01*
X113647500Y-45022500D01*
G75*
G02*
X113497500Y-45172500I-150000J0D01*
G01*
X113197500Y-45172500D01*
G75*
G02*
X113047500Y-45022500I0J150000D01*
G01*
X113047500Y-43372500D01*
G75*
G02*
X113197500Y-43222500I150000J0D01*
G01*
G37*
G04 #@! TD.AperFunction*
G04 #@! TA.AperFunction,SMDPad,CuDef*
G36*
G01*
X114467500Y-43222500D02*
X114767500Y-43222500D01*
G75*
G02*
X114917500Y-43372500I0J-150000D01*
G01*
X114917500Y-45022500D01*
G75*
G02*
X114767500Y-45172500I-150000J0D01*
G01*
X114467500Y-45172500D01*
G75*
G02*
X114317500Y-45022500I0J150000D01*
G01*
X114317500Y-43372500D01*
G75*
G02*
X114467500Y-43222500I150000J0D01*
G01*
G37*
G04 #@! TD.AperFunction*
G04 #@! TA.AperFunction,SMDPad,CuDef*
G36*
G01*
X115737500Y-43222500D02*
X116037500Y-43222500D01*
G75*
G02*
X116187500Y-43372500I0J-150000D01*
G01*
X116187500Y-45022500D01*
G75*
G02*
X116037500Y-45172500I-150000J0D01*
G01*
X115737500Y-45172500D01*
G75*
G02*
X115587500Y-45022500I0J150000D01*
G01*
X115587500Y-43372500D01*
G75*
G02*
X115737500Y-43222500I150000J0D01*
G01*
G37*
G04 #@! TD.AperFunction*
G04 #@! TA.AperFunction,SMDPad,CuDef*
G36*
G01*
X117007500Y-43222500D02*
X117307500Y-43222500D01*
G75*
G02*
X117457500Y-43372500I0J-150000D01*
G01*
X117457500Y-45022500D01*
G75*
G02*
X117307500Y-45172500I-150000J0D01*
G01*
X117007500Y-45172500D01*
G75*
G02*
X116857500Y-45022500I0J150000D01*
G01*
X116857500Y-43372500D01*
G75*
G02*
X117007500Y-43222500I150000J0D01*
G01*
G37*
G04 #@! TD.AperFunction*
G04 #@! TA.AperFunction,SMDPad,CuDef*
G36*
G01*
X118277500Y-43222500D02*
X118577500Y-43222500D01*
G75*
G02*
X118727500Y-43372500I0J-150000D01*
G01*
X118727500Y-45022500D01*
G75*
G02*
X118577500Y-45172500I-150000J0D01*
G01*
X118277500Y-45172500D01*
G75*
G02*
X118127500Y-45022500I0J150000D01*
G01*
X118127500Y-43372500D01*
G75*
G02*
X118277500Y-43222500I150000J0D01*
G01*
G37*
G04 #@! TD.AperFunction*
G04 #@! TA.AperFunction,SMDPad,CuDef*
G36*
G01*
X119547500Y-43222500D02*
X119847500Y-43222500D01*
G75*
G02*
X119997500Y-43372500I0J-150000D01*
G01*
X119997500Y-45022500D01*
G75*
G02*
X119847500Y-45172500I-150000J0D01*
G01*
X119547500Y-45172500D01*
G75*
G02*
X119397500Y-45022500I0J150000D01*
G01*
X119397500Y-43372500D01*
G75*
G02*
X119547500Y-43222500I150000J0D01*
G01*
G37*
G04 #@! TD.AperFunction*
G04 #@! TA.AperFunction,SMDPad,CuDef*
G36*
G01*
X120817500Y-43222500D02*
X121117500Y-43222500D01*
G75*
G02*
X121267500Y-43372500I0J-150000D01*
G01*
X121267500Y-45022500D01*
G75*
G02*
X121117500Y-45172500I-150000J0D01*
G01*
X120817500Y-45172500D01*
G75*
G02*
X120667500Y-45022500I0J150000D01*
G01*
X120667500Y-43372500D01*
G75*
G02*
X120817500Y-43222500I150000J0D01*
G01*
G37*
G04 #@! TD.AperFunction*
G04 #@! TA.AperFunction,SMDPad,CuDef*
G36*
G01*
X120817500Y-48172500D02*
X121117500Y-48172500D01*
G75*
G02*
X121267500Y-48322500I0J-150000D01*
G01*
X121267500Y-49972500D01*
G75*
G02*
X121117500Y-50122500I-150000J0D01*
G01*
X120817500Y-50122500D01*
G75*
G02*
X120667500Y-49972500I0J150000D01*
G01*
X120667500Y-48322500D01*
G75*
G02*
X120817500Y-48172500I150000J0D01*
G01*
G37*
G04 #@! TD.AperFunction*
G04 #@! TA.AperFunction,SMDPad,CuDef*
G36*
G01*
X119547500Y-48172500D02*
X119847500Y-48172500D01*
G75*
G02*
X119997500Y-48322500I0J-150000D01*
G01*
X119997500Y-49972500D01*
G75*
G02*
X119847500Y-50122500I-150000J0D01*
G01*
X119547500Y-50122500D01*
G75*
G02*
X119397500Y-49972500I0J150000D01*
G01*
X119397500Y-48322500D01*
G75*
G02*
X119547500Y-48172500I150000J0D01*
G01*
G37*
G04 #@! TD.AperFunction*
G04 #@! TA.AperFunction,SMDPad,CuDef*
G36*
G01*
X118277500Y-48172500D02*
X118577500Y-48172500D01*
G75*
G02*
X118727500Y-48322500I0J-150000D01*
G01*
X118727500Y-49972500D01*
G75*
G02*
X118577500Y-50122500I-150000J0D01*
G01*
X118277500Y-50122500D01*
G75*
G02*
X118127500Y-49972500I0J150000D01*
G01*
X118127500Y-48322500D01*
G75*
G02*
X118277500Y-48172500I150000J0D01*
G01*
G37*
G04 #@! TD.AperFunction*
G04 #@! TA.AperFunction,SMDPad,CuDef*
G36*
G01*
X117007500Y-48172500D02*
X117307500Y-48172500D01*
G75*
G02*
X117457500Y-48322500I0J-150000D01*
G01*
X117457500Y-49972500D01*
G75*
G02*
X117307500Y-50122500I-150000J0D01*
G01*
X117007500Y-50122500D01*
G75*
G02*
X116857500Y-49972500I0J150000D01*
G01*
X116857500Y-48322500D01*
G75*
G02*
X117007500Y-48172500I150000J0D01*
G01*
G37*
G04 #@! TD.AperFunction*
G04 #@! TA.AperFunction,SMDPad,CuDef*
G36*
G01*
X115737500Y-48172500D02*
X116037500Y-48172500D01*
G75*
G02*
X116187500Y-48322500I0J-150000D01*
G01*
X116187500Y-49972500D01*
G75*
G02*
X116037500Y-50122500I-150000J0D01*
G01*
X115737500Y-50122500D01*
G75*
G02*
X115587500Y-49972500I0J150000D01*
G01*
X115587500Y-48322500D01*
G75*
G02*
X115737500Y-48172500I150000J0D01*
G01*
G37*
G04 #@! TD.AperFunction*
G04 #@! TA.AperFunction,SMDPad,CuDef*
G36*
G01*
X114467500Y-48172500D02*
X114767500Y-48172500D01*
G75*
G02*
X114917500Y-48322500I0J-150000D01*
G01*
X114917500Y-49972500D01*
G75*
G02*
X114767500Y-50122500I-150000J0D01*
G01*
X114467500Y-50122500D01*
G75*
G02*
X114317500Y-49972500I0J150000D01*
G01*
X114317500Y-48322500D01*
G75*
G02*
X114467500Y-48172500I150000J0D01*
G01*
G37*
G04 #@! TD.AperFunction*
G04 #@! TA.AperFunction,SMDPad,CuDef*
G36*
G01*
X113197500Y-48172500D02*
X113497500Y-48172500D01*
G75*
G02*
X113647500Y-48322500I0J-150000D01*
G01*
X113647500Y-49972500D01*
G75*
G02*
X113497500Y-50122500I-150000J0D01*
G01*
X113197500Y-50122500D01*
G75*
G02*
X113047500Y-49972500I0J150000D01*
G01*
X113047500Y-48322500D01*
G75*
G02*
X113197500Y-48172500I150000J0D01*
G01*
G37*
G04 #@! TD.AperFunction*
G04 #@! TA.AperFunction,SMDPad,CuDef*
G36*
G01*
X111927500Y-48172500D02*
X112227500Y-48172500D01*
G75*
G02*
X112377500Y-48322500I0J-150000D01*
G01*
X112377500Y-49972500D01*
G75*
G02*
X112227500Y-50122500I-150000J0D01*
G01*
X111927500Y-50122500D01*
G75*
G02*
X111777500Y-49972500I0J150000D01*
G01*
X111777500Y-48322500D01*
G75*
G02*
X111927500Y-48172500I150000J0D01*
G01*
G37*
G04 #@! TD.AperFunction*
G04 #@! TA.AperFunction,SMDPad,CuDef*
G36*
G01*
X97294328Y-62092069D02*
X96657931Y-61455672D01*
G75*
G02*
X96657931Y-61102120I176776J176776D01*
G01*
X97117552Y-60642499D01*
G75*
G02*
X97471104Y-60642499I176776J-176776D01*
G01*
X98107501Y-61278896D01*
G75*
G02*
X98107501Y-61632448I-176776J-176776D01*
G01*
X97647880Y-62092069D01*
G75*
G02*
X97294328Y-62092069I-176776J176776D01*
G01*
G37*
G04 #@! TD.AperFunction*
G04 #@! TA.AperFunction,SMDPad,CuDef*
G36*
G01*
X98743896Y-60642501D02*
X98107499Y-60006104D01*
G75*
G02*
X98107499Y-59652552I176776J176776D01*
G01*
X98567120Y-59192931D01*
G75*
G02*
X98920672Y-59192931I176776J-176776D01*
G01*
X99557069Y-59829328D01*
G75*
G02*
X99557069Y-60182880I-176776J-176776D01*
G01*
X99097448Y-60642501D01*
G75*
G02*
X98743896Y-60642501I-176776J176776D01*
G01*
G37*
G04 #@! TD.AperFunction*
D13*
X97790000Y-38735000D03*
X97155000Y-57785000D03*
G04 #@! TA.AperFunction,SMDPad,CuDef*
G36*
G01*
X106812501Y-67250000D02*
X105912499Y-67250000D01*
G75*
G02*
X105662500Y-67000001I0J249999D01*
G01*
X105662500Y-66349999D01*
G75*
G02*
X105912499Y-66100000I249999J0D01*
G01*
X106812501Y-66100000D01*
G75*
G02*
X107062500Y-66349999I0J-249999D01*
G01*
X107062500Y-67000001D01*
G75*
G02*
X106812501Y-67250000I-249999J0D01*
G01*
G37*
G04 #@! TD.AperFunction*
G04 #@! TA.AperFunction,SMDPad,CuDef*
G36*
G01*
X106812501Y-65200000D02*
X105912499Y-65200000D01*
G75*
G02*
X105662500Y-64950001I0J249999D01*
G01*
X105662500Y-64299999D01*
G75*
G02*
X105912499Y-64050000I249999J0D01*
G01*
X106812501Y-64050000D01*
G75*
G02*
X107062500Y-64299999I0J-249999D01*
G01*
X107062500Y-64950001D01*
G75*
G02*
X106812501Y-65200000I-249999J0D01*
G01*
G37*
G04 #@! TD.AperFunction*
G04 #@! TA.AperFunction,SMDPad,CuDef*
G36*
G01*
X105912499Y-61727500D02*
X106812501Y-61727500D01*
G75*
G02*
X107062500Y-61977499I0J-249999D01*
G01*
X107062500Y-62627501D01*
G75*
G02*
X106812501Y-62877500I-249999J0D01*
G01*
X105912499Y-62877500D01*
G75*
G02*
X105662500Y-62627501I0J249999D01*
G01*
X105662500Y-61977499D01*
G75*
G02*
X105912499Y-61727500I249999J0D01*
G01*
G37*
G04 #@! TD.AperFunction*
G04 #@! TA.AperFunction,SMDPad,CuDef*
G36*
G01*
X105912499Y-59677500D02*
X106812501Y-59677500D01*
G75*
G02*
X107062500Y-59927499I0J-249999D01*
G01*
X107062500Y-60577501D01*
G75*
G02*
X106812501Y-60827500I-249999J0D01*
G01*
X105912499Y-60827500D01*
G75*
G02*
X105662500Y-60577501I0J249999D01*
G01*
X105662500Y-59927499D01*
G75*
G02*
X105912499Y-59677500I249999J0D01*
G01*
G37*
G04 #@! TD.AperFunction*
D23*
X112077500Y-51117500D03*
X115887500Y-52705000D03*
X112077500Y-37782500D03*
X121920000Y-42227500D03*
X123190000Y-47625000D03*
X122555000Y-52070000D03*
X97790000Y-41910000D03*
X97790000Y-52070000D03*
X104775000Y-63500000D03*
X110172500Y-40322500D03*
D24*
X112077500Y-59055000D02*
X112077500Y-57785000D01*
X111442500Y-58420000D02*
X112712500Y-58420000D01*
X90170000Y-37465000D02*
X90170000Y-36195000D01*
X89535000Y-36830000D02*
X90805000Y-36830000D01*
D25*
X90487500Y-60325000D02*
X89217500Y-60325000D01*
X89852500Y-59055000D02*
X89852500Y-60325000D01*
D26*
X96202500Y-36830000D02*
X96837500Y-36195000D01*
X92710000Y-36830000D02*
X96202500Y-36830000D01*
D27*
X117792500Y-36830000D02*
X114935000Y-36830000D01*
X120650000Y-33972500D02*
X117792500Y-36830000D01*
X120650000Y-28892500D02*
X120650000Y-33972500D01*
X120372510Y-28615010D02*
X120650000Y-28892500D01*
X96837500Y-29210000D02*
X97432490Y-28615010D01*
X97432490Y-28615010D02*
X120372510Y-28615010D01*
X96837500Y-36195000D02*
X96837500Y-29210000D01*
D28*
X112077500Y-49147500D02*
X112077500Y-51117500D01*
X112077500Y-51117500D02*
X112077500Y-51117500D01*
X121602500Y-55880000D02*
X118427500Y-52705000D01*
X118427500Y-52705000D02*
X115887500Y-52705000D01*
D27*
X112236250Y-37623750D02*
X112077500Y-37782500D01*
X114141250Y-37623750D02*
X112236250Y-37623750D01*
X114935000Y-36830000D02*
X114141250Y-37623750D01*
X112077500Y-37782500D02*
X110490000Y-37782500D01*
X110490000Y-37782500D02*
X109537500Y-38735000D01*
X109537500Y-38735000D02*
X107950000Y-38735000D01*
D26*
X100330000Y-46355000D02*
X100330000Y-48895000D01*
X107950000Y-46355000D02*
X107950000Y-48895000D01*
D27*
X116277500Y-55952500D02*
X116205000Y-55880000D01*
D26*
X116277500Y-56587500D02*
X116205000Y-56515000D01*
X116277500Y-58737500D02*
X116277500Y-56587500D01*
X99370000Y-63175000D02*
X99370000Y-63500000D01*
X109220000Y-67310000D02*
X109220000Y-64135000D01*
X109220000Y-67310000D02*
X117792500Y-67310000D01*
X118882233Y-66220267D02*
X118882233Y-63362767D01*
X117792500Y-67310000D02*
X118882233Y-66220267D01*
X116277500Y-60758034D02*
X118882233Y-63362767D01*
X116277500Y-58737500D02*
X116277500Y-60758034D01*
D28*
X120967500Y-44197500D02*
X120967500Y-43180000D01*
X120967500Y-43180000D02*
X121920000Y-42227500D01*
X121920000Y-42227500D02*
X121920000Y-42227500D01*
D26*
X95885000Y-60650000D02*
X98735000Y-63500000D01*
X98742500Y-66350000D02*
X98742500Y-63500000D01*
X99702500Y-67310000D02*
X98742500Y-66350000D01*
X109220000Y-67310000D02*
X99702500Y-67310000D01*
X94932500Y-49212500D02*
X94932500Y-59690000D01*
X95250000Y-48895000D02*
X94932500Y-49212500D01*
X100330000Y-48895000D02*
X95250000Y-48895000D01*
X95885000Y-60642500D02*
X94932500Y-59690000D01*
X95885000Y-60650000D02*
X95885000Y-60642500D01*
X92710000Y-59690000D02*
X94932500Y-59690000D01*
D29*
X95885000Y-54610000D02*
X94932500Y-54610000D01*
D27*
X113665000Y-58737500D02*
X114300000Y-58737500D01*
D26*
X113665000Y-56515000D02*
X113665000Y-60007500D01*
X114300000Y-60642500D02*
X114300000Y-64135000D01*
X113665000Y-60007500D02*
X114300000Y-60642500D01*
X102235000Y-63500000D02*
X102235000Y-60007500D01*
D29*
X97935000Y-55707500D02*
X97935000Y-54610000D01*
X98742500Y-56515000D02*
X97935000Y-55707500D01*
X100330000Y-56515000D02*
X98742500Y-56515000D01*
D26*
X101917500Y-60007500D02*
X113665000Y-60007500D01*
X100330000Y-58420000D02*
X101917500Y-60007500D01*
X100330000Y-56515000D02*
X100330000Y-58420000D01*
D27*
X103505000Y-50482500D02*
X103505000Y-35560000D01*
X103505000Y-35560000D02*
X105410000Y-33655000D01*
X105410000Y-33655000D02*
X105410000Y-31750000D01*
X103505000Y-50482500D02*
X102552500Y-51435000D01*
X102552500Y-51435000D02*
X100330000Y-51435000D01*
X100330000Y-43815000D02*
X101600000Y-43815000D01*
X101600000Y-43815000D02*
X102235000Y-43180000D01*
X102235000Y-43180000D02*
X102235000Y-35560000D01*
X102235000Y-35560000D02*
X100330000Y-33655000D01*
X100330000Y-33655000D02*
X100330000Y-31750000D01*
X113030000Y-33972500D02*
X113030000Y-33020000D01*
X105727500Y-51435000D02*
X104775000Y-50482500D01*
X107950000Y-51435000D02*
X105727500Y-51435000D01*
X104775000Y-50482500D02*
X104775000Y-36830000D01*
X104775000Y-36830000D02*
X107315000Y-34290000D01*
X107315000Y-34290000D02*
X112712500Y-34290000D01*
X112712500Y-34290000D02*
X113030000Y-33972500D01*
X106045000Y-43180000D02*
X106680000Y-43815000D01*
X106045000Y-37782500D02*
X106045000Y-43180000D01*
X107950000Y-35877500D02*
X106045000Y-37782500D01*
X106680000Y-43815000D02*
X107950000Y-43815000D01*
X113982500Y-35877500D02*
X107950000Y-35877500D01*
X118110000Y-31750000D02*
X113982500Y-35877500D01*
D26*
X118745000Y-59690000D02*
X120650000Y-61595000D01*
X118745000Y-56515000D02*
X118745000Y-59690000D01*
X121602500Y-58420000D02*
X118745000Y-58420000D01*
D28*
X123507500Y-49530000D02*
X125730000Y-49530000D01*
X123190000Y-49212500D02*
X123507500Y-49530000D01*
X123190000Y-47625000D02*
X123190000Y-49212500D01*
X122872500Y-52070000D02*
X122872500Y-52070000D01*
X125730000Y-52070000D02*
X122555000Y-52070000D01*
X124142500Y-42227500D02*
X124460000Y-41910000D01*
X125730000Y-41910000D02*
X124460000Y-41910000D01*
X124142500Y-42862500D02*
X124142500Y-42227500D01*
D29*
X124142500Y-43180000D02*
X124142500Y-42862500D01*
X116905010Y-46924990D02*
X120397510Y-46924990D01*
X120397510Y-46924990D02*
X124142500Y-43180000D01*
X115887500Y-47942500D02*
X116905010Y-46924990D01*
X115887500Y-49147500D02*
X115887500Y-47942500D01*
D28*
X124142500Y-44450000D02*
X125730000Y-44450000D01*
X123507500Y-45085000D02*
X124142500Y-44450000D01*
D29*
X117157500Y-49147500D02*
X117157500Y-47942500D01*
X117157500Y-47942500D02*
X117475000Y-47625000D01*
X117475000Y-47625000D02*
X120967500Y-47625000D01*
X120967500Y-47625000D02*
X121920000Y-46672500D01*
X121920000Y-46672500D02*
X123507500Y-45085000D01*
X117157500Y-44197500D02*
X117157500Y-43180000D01*
X117157500Y-43180000D02*
X117792500Y-42545000D01*
X117792500Y-42545000D02*
X119380000Y-42545000D01*
D28*
X125730000Y-39370000D02*
X122555000Y-39370000D01*
X120173750Y-41751250D02*
X120173750Y-39846250D01*
D29*
X119380000Y-42545000D02*
X120173750Y-41751250D01*
D28*
X120650000Y-39370000D02*
X122555000Y-39370000D01*
X120173750Y-39846250D02*
X120650000Y-39370000D01*
D29*
X115887500Y-44197500D02*
X115887500Y-43007501D01*
X115887500Y-43007501D02*
X116840000Y-42055001D01*
X116840000Y-42055001D02*
X117758001Y-41558001D01*
D28*
X125730000Y-36830000D02*
X123507500Y-36830000D01*
X121285000Y-36830000D02*
X123507500Y-36830000D01*
X118779499Y-39335501D02*
X121285000Y-36830000D01*
X118144499Y-41558001D02*
X118779499Y-40923001D01*
X118779499Y-40923001D02*
X118779499Y-39335501D01*
D29*
X117758001Y-41558001D02*
X118144499Y-41558001D01*
D28*
X124777500Y-57150000D02*
X125730000Y-57150000D01*
X124142500Y-56515000D02*
X124777500Y-57150000D01*
X120967500Y-53022500D02*
X121602500Y-53657500D01*
X120967500Y-49147500D02*
X120967500Y-53022500D01*
X123190000Y-53657500D02*
X124142500Y-54610000D01*
X124142500Y-54610000D02*
X124142500Y-56515000D01*
X121602500Y-53657500D02*
X123190000Y-53657500D01*
X113347500Y-45720000D02*
X113347500Y-44197500D01*
X113030000Y-46037500D02*
X113347500Y-45720000D01*
X110807500Y-46037500D02*
X113030000Y-46037500D01*
X110172500Y-45402500D02*
X110807500Y-46037500D01*
X108902500Y-41275000D02*
X110172500Y-42545000D01*
X110172500Y-42545000D02*
X110172500Y-45402500D01*
X107950000Y-41275000D02*
X108902500Y-41275000D01*
X109537500Y-53975000D02*
X110490000Y-53022500D01*
X107950000Y-53975000D02*
X109537500Y-53975000D01*
X110490000Y-53022500D02*
X110490000Y-47307500D01*
D29*
X119697500Y-45720000D02*
X119697500Y-44197500D01*
X119380000Y-46037500D02*
X119697500Y-45720000D01*
D28*
X115887500Y-46037500D02*
X114617500Y-47307500D01*
D29*
X115887500Y-46037500D02*
X119380000Y-46037500D01*
D28*
X114617500Y-47307500D02*
X110490000Y-47307500D01*
D29*
X119380000Y-51117500D02*
X119697500Y-50800000D01*
X119697500Y-50800000D02*
X119697500Y-49147500D01*
X110490000Y-55880000D02*
X115252500Y-51117500D01*
X109855000Y-58102500D02*
X110490000Y-57467500D01*
X105727500Y-58102500D02*
X109855000Y-58102500D01*
X105410000Y-57785000D02*
X105727500Y-58102500D01*
X115252500Y-51117500D02*
X119380000Y-51117500D01*
X110490000Y-57467500D02*
X110490000Y-55880000D01*
X105410000Y-56197500D02*
X105410000Y-57785000D01*
X103187500Y-53975000D02*
X105410000Y-56197500D01*
X100330000Y-53975000D02*
X103187500Y-53975000D01*
D28*
X109855000Y-55245000D02*
X111760000Y-53340000D01*
D30*
X106045000Y-55245000D02*
X109855000Y-55245000D01*
D28*
X100330000Y-41275000D02*
X98425000Y-41275000D01*
X98425000Y-41275000D02*
X97790000Y-41910000D01*
X97790000Y-52070000D02*
X97790000Y-52070000D01*
X101600000Y-52705000D02*
X103555800Y-52705000D01*
D30*
X98475800Y-52705000D02*
X101600000Y-52705000D01*
D29*
X103555800Y-52755800D02*
X106045000Y-55245000D01*
X103555800Y-52705000D02*
X103555800Y-52755800D01*
X113347500Y-51752500D02*
X111760000Y-53340000D01*
X113347500Y-49147500D02*
X113347500Y-51752500D01*
D28*
X97790000Y-41910000D02*
X97790000Y-41910000D01*
X97790000Y-52070000D02*
X98425000Y-52705000D01*
D29*
X97472500Y-58102500D02*
X97155000Y-57785000D01*
X106362500Y-62302500D02*
X106362500Y-64625000D01*
X104775000Y-63500000D02*
X106362500Y-63500000D01*
X98832284Y-59462284D02*
X97155000Y-57785000D01*
X98832284Y-59917716D02*
X98832284Y-59462284D01*
D28*
X112077500Y-41910000D02*
X112077500Y-44052500D01*
D29*
X111515000Y-41665000D02*
X110172500Y-40322500D01*
X112077500Y-41665000D02*
X111515000Y-41665000D01*
M02*
