G04 #@! TF.GenerationSoftware,KiCad,Pcbnew,(5.1.8)-1*
G04 #@! TF.CreationDate,2020-11-12T22:13:48+03:00*
G04 #@! TF.ProjectId,L293,4c323933-2e6b-4696-9361-645f70636258,rev?*
G04 #@! TF.SameCoordinates,Original*
G04 #@! TF.FileFunction,Copper,L1,Top*
G04 #@! TF.FilePolarity,Positive*
%FSLAX46Y46*%
G04 Gerber Fmt 4.6, Leading zero omitted, Abs format (unit mm)*
G04 Created by KiCad (PCBNEW (5.1.8)-1) date 2020-11-12 22:13:48*
%MOMM*%
%LPD*%
G01*
G04 APERTURE LIST*
G04 #@! TA.AperFunction,NonConductor*
%ADD10C,0.200000*%
G04 #@! TD*
G04 #@! TA.AperFunction,NonConductor*
%ADD11C,0.300000*%
G04 #@! TD*
G04 #@! TA.AperFunction,NonConductor*
%ADD12C,0.100000*%
G04 #@! TD*
G04 #@! TA.AperFunction,ComponentPad*
%ADD13C,0.100000*%
G04 #@! TD*
G04 #@! TA.AperFunction,ComponentPad*
%ADD14C,2.000000*%
G04 #@! TD*
G04 #@! TA.AperFunction,ComponentPad*
%ADD15C,2.300000*%
G04 #@! TD*
G04 #@! TA.AperFunction,ComponentPad*
%ADD16R,1.700000X1.700000*%
G04 #@! TD*
G04 #@! TA.AperFunction,ComponentPad*
%ADD17R,3.000000X3.000000*%
G04 #@! TD*
G04 #@! TA.AperFunction,ComponentPad*
%ADD18C,3.000000*%
G04 #@! TD*
G04 #@! TA.AperFunction,ComponentPad*
%ADD19R,1.600000X1.400000*%
G04 #@! TD*
G04 #@! TA.AperFunction,ComponentPad*
%ADD20R,2.400000X2.400000*%
G04 #@! TD*
G04 #@! TA.AperFunction,ComponentPad*
%ADD21R,1.900000X1.900000*%
G04 #@! TD*
G04 #@! TA.AperFunction,ComponentPad*
%ADD22O,1.900000X1.900000*%
G04 #@! TD*
G04 #@! TA.AperFunction,ComponentPad*
%ADD23R,1.905000X2.000000*%
G04 #@! TD*
G04 #@! TA.AperFunction,ComponentPad*
%ADD24O,2.100000X2.300000*%
G04 #@! TD*
G04 #@! TA.AperFunction,ComponentPad*
%ADD25O,1.905000X2.000000*%
G04 #@! TD*
G04 #@! TA.AperFunction,ViaPad*
%ADD26C,1.600000*%
G04 #@! TD*
G04 #@! TA.AperFunction,Conductor*
%ADD27C,0.300000*%
G04 #@! TD*
G04 #@! TA.AperFunction,Conductor*
%ADD28C,0.250000*%
G04 #@! TD*
G04 #@! TA.AperFunction,Conductor*
%ADD29C,0.600000*%
G04 #@! TD*
G04 #@! TA.AperFunction,Conductor*
%ADD30C,1.200000*%
G04 #@! TD*
G04 APERTURE END LIST*
D10*
X96052023Y-58507380D02*
X96671071Y-58507380D01*
X96337738Y-58888333D01*
X96480595Y-58888333D01*
X96575833Y-58935952D01*
X96623452Y-58983571D01*
X96671071Y-59078809D01*
X96671071Y-59316904D01*
X96623452Y-59412142D01*
X96575833Y-59459761D01*
X96480595Y-59507380D01*
X96194880Y-59507380D01*
X96099642Y-59459761D01*
X96052023Y-59412142D01*
X97004404Y-58507380D02*
X97623452Y-58507380D01*
X97290119Y-58888333D01*
X97432976Y-58888333D01*
X97528214Y-58935952D01*
X97575833Y-58983571D01*
X97623452Y-59078809D01*
X97623452Y-59316904D01*
X97575833Y-59412142D01*
X97528214Y-59459761D01*
X97432976Y-59507380D01*
X97147261Y-59507380D01*
X97052023Y-59459761D01*
X97004404Y-59412142D01*
X98528214Y-58507380D02*
X98052023Y-58507380D01*
X98004404Y-58983571D01*
X98052023Y-58935952D01*
X98147261Y-58888333D01*
X98385357Y-58888333D01*
X98480595Y-58935952D01*
X98528214Y-58983571D01*
X98575833Y-59078809D01*
X98575833Y-59316904D01*
X98528214Y-59412142D01*
X98480595Y-59459761D01*
X98385357Y-59507380D01*
X98147261Y-59507380D01*
X98052023Y-59459761D01*
X98004404Y-59412142D01*
X98909166Y-58507380D02*
X99575833Y-58507380D01*
X99147261Y-59507380D01*
X99956785Y-59507380D02*
X99956785Y-58507380D01*
X99956785Y-58888333D02*
X100052023Y-58840714D01*
X100242500Y-58840714D01*
X100337738Y-58888333D01*
X100385357Y-58935952D01*
X100432976Y-59031190D01*
X100432976Y-59316904D01*
X100385357Y-59412142D01*
X100337738Y-59459761D01*
X100242500Y-59507380D01*
X100052023Y-59507380D01*
X99956785Y-59459761D01*
X101004404Y-58935952D02*
X100909166Y-58888333D01*
X100861547Y-58840714D01*
X100813928Y-58745476D01*
X100813928Y-58697857D01*
X100861547Y-58602619D01*
X100909166Y-58555000D01*
X101004404Y-58507380D01*
X101194880Y-58507380D01*
X101290119Y-58555000D01*
X101337738Y-58602619D01*
X101385357Y-58697857D01*
X101385357Y-58745476D01*
X101337738Y-58840714D01*
X101290119Y-58888333D01*
X101194880Y-58935952D01*
X101004404Y-58935952D01*
X100909166Y-58983571D01*
X100861547Y-59031190D01*
X100813928Y-59126428D01*
X100813928Y-59316904D01*
X100861547Y-59412142D01*
X100909166Y-59459761D01*
X101004404Y-59507380D01*
X101194880Y-59507380D01*
X101290119Y-59459761D01*
X101337738Y-59412142D01*
X101385357Y-59316904D01*
X101385357Y-59126428D01*
X101337738Y-59031190D01*
X101290119Y-58983571D01*
X101194880Y-58935952D01*
D11*
X104338571Y-60638571D02*
X104695714Y-61638571D01*
X105052857Y-60638571D01*
X105552857Y-60281428D02*
X105624285Y-60210000D01*
X105767142Y-60138571D01*
X106124285Y-60138571D01*
X106267142Y-60210000D01*
X106338571Y-60281428D01*
X106410000Y-60424285D01*
X106410000Y-60567142D01*
X106338571Y-60781428D01*
X105481428Y-61638571D01*
X106410000Y-61638571D01*
D10*
X104108690Y-59507380D02*
X103537261Y-59507380D01*
X103822976Y-59507380D02*
X103822976Y-58507380D01*
X103727738Y-58650238D01*
X103632500Y-58745476D01*
X103537261Y-58793095D01*
X104489642Y-58602619D02*
X104537261Y-58555000D01*
X104632500Y-58507380D01*
X104870595Y-58507380D01*
X104965833Y-58555000D01*
X105013452Y-58602619D01*
X105061071Y-58697857D01*
X105061071Y-58793095D01*
X105013452Y-58935952D01*
X104442023Y-59507380D01*
X105061071Y-59507380D01*
X105489642Y-59412142D02*
X105537261Y-59459761D01*
X105489642Y-59507380D01*
X105442023Y-59459761D01*
X105489642Y-59412142D01*
X105489642Y-59507380D01*
X106489642Y-59507380D02*
X105918214Y-59507380D01*
X106203928Y-59507380D02*
X106203928Y-58507380D01*
X106108690Y-58650238D01*
X106013452Y-58745476D01*
X105918214Y-58793095D01*
X107442023Y-59507380D02*
X106870595Y-59507380D01*
X107156309Y-59507380D02*
X107156309Y-58507380D01*
X107061071Y-58650238D01*
X106965833Y-58745476D01*
X106870595Y-58793095D01*
X107870595Y-59412142D02*
X107918214Y-59459761D01*
X107870595Y-59507380D01*
X107822976Y-59459761D01*
X107870595Y-59412142D01*
X107870595Y-59507380D01*
X108299166Y-58602619D02*
X108346785Y-58555000D01*
X108442023Y-58507380D01*
X108680119Y-58507380D01*
X108775357Y-58555000D01*
X108822976Y-58602619D01*
X108870595Y-58697857D01*
X108870595Y-58793095D01*
X108822976Y-58935952D01*
X108251547Y-59507380D01*
X108870595Y-59507380D01*
X109489642Y-58507380D02*
X109584880Y-58507380D01*
X109680119Y-58555000D01*
X109727738Y-58602619D01*
X109775357Y-58697857D01*
X109822976Y-58888333D01*
X109822976Y-59126428D01*
X109775357Y-59316904D01*
X109727738Y-59412142D01*
X109680119Y-59459761D01*
X109584880Y-59507380D01*
X109489642Y-59507380D01*
X109394404Y-59459761D01*
X109346785Y-59412142D01*
X109299166Y-59316904D01*
X109251547Y-59126428D01*
X109251547Y-58888333D01*
X109299166Y-58697857D01*
X109346785Y-58602619D01*
X109394404Y-58555000D01*
X109489642Y-58507380D01*
X110203928Y-58602619D02*
X110251547Y-58555000D01*
X110346785Y-58507380D01*
X110584880Y-58507380D01*
X110680119Y-58555000D01*
X110727738Y-58602619D01*
X110775357Y-58697857D01*
X110775357Y-58793095D01*
X110727738Y-58935952D01*
X110156309Y-59507380D01*
X110775357Y-59507380D01*
X111394404Y-58507380D02*
X111489642Y-58507380D01*
X111584880Y-58555000D01*
X111632500Y-58602619D01*
X111680119Y-58697857D01*
X111727738Y-58888333D01*
X111727738Y-59126428D01*
X111680119Y-59316904D01*
X111632500Y-59412142D01*
X111584880Y-59459761D01*
X111489642Y-59507380D01*
X111394404Y-59507380D01*
X111299166Y-59459761D01*
X111251547Y-59412142D01*
X111203928Y-59316904D01*
X111156309Y-59126428D01*
X111156309Y-58888333D01*
X111203928Y-58697857D01*
X111251547Y-58602619D01*
X111299166Y-58555000D01*
X111394404Y-58507380D01*
D12*
G36*
X107950000Y-48895000D02*
G01*
X100330000Y-48895000D01*
X100330000Y-46355000D01*
X107950000Y-46355000D01*
X107950000Y-48895000D01*
G37*
X107950000Y-48895000D02*
X100330000Y-48895000D01*
X100330000Y-46355000D01*
X107950000Y-46355000D01*
X107950000Y-48895000D01*
G04 #@! TA.AperFunction,ComponentPad*
D13*
G36*
X120650000Y-60463629D02*
G01*
X121781371Y-61595000D01*
X120650000Y-62726371D01*
X119518629Y-61595000D01*
X120650000Y-60463629D01*
G37*
G04 #@! TD.AperFunction*
D14*
X118882233Y-63362767D03*
G04 #@! TA.AperFunction,SMDPad,CuDef*
G36*
G01*
X123374999Y-56330000D02*
X124275001Y-56330000D01*
G75*
G02*
X124525000Y-56579999I0J-249999D01*
G01*
X124525000Y-57230001D01*
G75*
G02*
X124275001Y-57480000I-249999J0D01*
G01*
X123374999Y-57480000D01*
G75*
G02*
X123125000Y-57230001I0J249999D01*
G01*
X123125000Y-56579999D01*
G75*
G02*
X123374999Y-56330000I249999J0D01*
G01*
G37*
G04 #@! TD.AperFunction*
G04 #@! TA.AperFunction,SMDPad,CuDef*
G36*
G01*
X123374999Y-54280000D02*
X124275001Y-54280000D01*
G75*
G02*
X124525000Y-54529999I0J-249999D01*
G01*
X124525000Y-55180001D01*
G75*
G02*
X124275001Y-55430000I-249999J0D01*
G01*
X123374999Y-55430000D01*
G75*
G02*
X123125000Y-55180001I0J249999D01*
G01*
X123125000Y-54529999D01*
G75*
G02*
X123374999Y-54280000I249999J0D01*
G01*
G37*
G04 #@! TD.AperFunction*
D15*
X99370000Y-63500000D03*
G04 #@! TA.AperFunction,ComponentPad*
G36*
G01*
X103770000Y-63050000D02*
X103770000Y-63950000D01*
G75*
G02*
X103320000Y-64400000I-450000J0D01*
G01*
X102420000Y-64400000D01*
G75*
G02*
X101970000Y-63950000I0J450000D01*
G01*
X101970000Y-63050000D01*
G75*
G02*
X102420000Y-62600000I450000J0D01*
G01*
X103320000Y-62600000D01*
G75*
G02*
X103770000Y-63050000I0J-450000D01*
G01*
G37*
G04 #@! TD.AperFunction*
D16*
X125730000Y-59690000D03*
X125730000Y-57150000D03*
X125730000Y-54610000D03*
X125730000Y-52070000D03*
X125730000Y-49530000D03*
X125730000Y-46990000D03*
X125730000Y-44450000D03*
X125730000Y-41910000D03*
X125730000Y-39370000D03*
X125730000Y-36830000D03*
X92710000Y-39370000D03*
X92710000Y-41910000D03*
X92710000Y-44450000D03*
X92710000Y-46990000D03*
X92710000Y-49530000D03*
X92710000Y-52070000D03*
X92710000Y-54610000D03*
X92710000Y-57150000D03*
X92710000Y-36830000D03*
X92710000Y-59690000D03*
G04 #@! TA.AperFunction,SMDPad,CuDef*
G36*
G01*
X114922500Y-43630001D02*
X114922500Y-42729999D01*
G75*
G02*
X115172499Y-42480000I249999J0D01*
G01*
X115822501Y-42480000D01*
G75*
G02*
X116072500Y-42729999I0J-249999D01*
G01*
X116072500Y-43630001D01*
G75*
G02*
X115822501Y-43880000I-249999J0D01*
G01*
X115172499Y-43880000D01*
G75*
G02*
X114922500Y-43630001I0J249999D01*
G01*
G37*
G04 #@! TD.AperFunction*
G04 #@! TA.AperFunction,SMDPad,CuDef*
G36*
G01*
X116972500Y-43630001D02*
X116972500Y-42729999D01*
G75*
G02*
X117222499Y-42480000I249999J0D01*
G01*
X117872501Y-42480000D01*
G75*
G02*
X118122500Y-42729999I0J-249999D01*
G01*
X118122500Y-43630001D01*
G75*
G02*
X117872501Y-43880000I-249999J0D01*
G01*
X117222499Y-43880000D01*
G75*
G02*
X116972500Y-43630001I0J249999D01*
G01*
G37*
G04 #@! TD.AperFunction*
D17*
X114300000Y-64135000D03*
D18*
X109220000Y-64135000D03*
X105410000Y-31750000D03*
D17*
X100330000Y-31750000D03*
X113030000Y-31750000D03*
D18*
X118110000Y-31750000D03*
D19*
X100330000Y-38735000D03*
X107950000Y-56515000D03*
X100330000Y-41275000D03*
X107950000Y-53975000D03*
X100330000Y-43815000D03*
X107950000Y-51435000D03*
D20*
X100330000Y-46355000D03*
X107950000Y-48895000D03*
X100330000Y-48895000D03*
X107950000Y-46355000D03*
D19*
X100330000Y-51435000D03*
X107950000Y-43815000D03*
X100330000Y-53975000D03*
X107950000Y-41275000D03*
X100330000Y-56515000D03*
X107950000Y-38735000D03*
D21*
X121602500Y-58420000D03*
D22*
X121602500Y-55880000D03*
D23*
X113665000Y-56515000D03*
D24*
X116205000Y-56515000D03*
D25*
X118745000Y-56515000D03*
D26*
X112077500Y-51117500D03*
X115887500Y-52705000D03*
X112077500Y-37782500D03*
X121920000Y-42227500D03*
X123190000Y-47625000D03*
X122555000Y-52070000D03*
X97790000Y-41910000D03*
X97790000Y-52070000D03*
D27*
X95250000Y-59690000D02*
X95250000Y-60960000D01*
X95250000Y-60960000D02*
X94615000Y-60960000D01*
X94615000Y-60960000D02*
X95885000Y-60960000D01*
D28*
X94932500Y-37782500D02*
X96202500Y-37782500D01*
X95567500Y-37147500D02*
X95567500Y-38417500D01*
D29*
X114300000Y-51117500D02*
X115887500Y-52705000D01*
X112077500Y-51117500D02*
X114300000Y-51117500D01*
X112077500Y-43180000D02*
X115497500Y-43180000D01*
X112077500Y-46355000D02*
X112077500Y-51117500D01*
X112077500Y-46355000D02*
X112077500Y-37782500D01*
D30*
X100330000Y-46355000D02*
X107950000Y-46355000D01*
X104140000Y-48895000D02*
X107950000Y-48895000D01*
X100330000Y-48895000D02*
X104140000Y-48895000D01*
D29*
X121285000Y-46355000D02*
X121920000Y-45720000D01*
X124142500Y-53022500D02*
X124142500Y-51117500D01*
X121285000Y-48260000D02*
X121285000Y-46355000D01*
X123507500Y-53657500D02*
X124142500Y-53022500D01*
X121920000Y-45720000D02*
X121920000Y-42227500D01*
X119062500Y-53657500D02*
X123507500Y-53657500D01*
X124142500Y-51117500D02*
X121285000Y-48260000D01*
X116205000Y-56515000D02*
X119062500Y-53657500D01*
X123825000Y-53975000D02*
X123507500Y-53657500D01*
X123825000Y-54855000D02*
X123825000Y-53975000D01*
X117547500Y-43180000D02*
X121920000Y-43180000D01*
X104140000Y-38735000D02*
X100330000Y-38735000D01*
X104775000Y-38100000D02*
X104140000Y-38735000D01*
X104775000Y-35560000D02*
X104775000Y-38100000D01*
X105410000Y-34925000D02*
X104775000Y-35560000D01*
X123825000Y-38417500D02*
X120332500Y-34925000D01*
X123825000Y-43497500D02*
X123825000Y-38417500D01*
X120332500Y-34925000D02*
X105410000Y-34925000D01*
X123190000Y-44132500D02*
X123825000Y-43497500D01*
X123190000Y-47625000D02*
X123190000Y-44132500D01*
X109350000Y-56515000D02*
X110302500Y-55562500D01*
X107950000Y-56515000D02*
X109350000Y-56515000D01*
X110807500Y-54292500D02*
X110302500Y-54797500D01*
X116522500Y-54292500D02*
X110807500Y-54292500D01*
X118745000Y-52070000D02*
X116522500Y-54292500D01*
X122555000Y-52070000D02*
X118745000Y-52070000D01*
X110302500Y-55562500D02*
X110302500Y-54797500D01*
X125485000Y-56905000D02*
X125730000Y-57150000D01*
X123825000Y-56905000D02*
X125485000Y-56905000D01*
X97790000Y-41910000D02*
X97790000Y-52070000D01*
M02*
