G04 #@! TF.GenerationSoftware,KiCad,Pcbnew,(5.1.8)-1*
G04 #@! TF.CreationDate,2020-11-13T22:35:38+03:00*
G04 #@! TF.ProjectId,L293,4c323933-2e6b-4696-9361-645f70636258,rev?*
G04 #@! TF.SameCoordinates,Original*
G04 #@! TF.FileFunction,Copper,L1,Top*
G04 #@! TF.FilePolarity,Positive*
%FSLAX46Y46*%
G04 Gerber Fmt 4.6, Leading zero omitted, Abs format (unit mm)*
G04 Created by KiCad (PCBNEW (5.1.8)-1) date 2020-11-13 22:35:38*
%MOMM*%
%LPD*%
G01*
G04 APERTURE LIST*
G04 #@! TA.AperFunction,NonConductor*
%ADD10C,0.200000*%
G04 #@! TD*
G04 #@! TA.AperFunction,NonConductor*
%ADD11C,0.300000*%
G04 #@! TD*
G04 #@! TA.AperFunction,NonConductor*
%ADD12C,0.100000*%
G04 #@! TD*
G04 #@! TA.AperFunction,ComponentPad*
%ADD13C,0.100000*%
G04 #@! TD*
G04 #@! TA.AperFunction,ComponentPad*
%ADD14C,2.000000*%
G04 #@! TD*
G04 #@! TA.AperFunction,ComponentPad*
%ADD15C,2.300000*%
G04 #@! TD*
G04 #@! TA.AperFunction,ComponentPad*
%ADD16R,1.700000X1.700000*%
G04 #@! TD*
G04 #@! TA.AperFunction,ComponentPad*
%ADD17R,3.000000X3.000000*%
G04 #@! TD*
G04 #@! TA.AperFunction,ComponentPad*
%ADD18C,3.500000*%
G04 #@! TD*
G04 #@! TA.AperFunction,ComponentPad*
%ADD19C,3.000000*%
G04 #@! TD*
G04 #@! TA.AperFunction,ComponentPad*
%ADD20R,1.600000X1.400000*%
G04 #@! TD*
G04 #@! TA.AperFunction,ComponentPad*
%ADD21R,2.400000X2.400000*%
G04 #@! TD*
G04 #@! TA.AperFunction,ComponentPad*
%ADD22R,1.900000X1.900000*%
G04 #@! TD*
G04 #@! TA.AperFunction,ComponentPad*
%ADD23O,1.900000X1.900000*%
G04 #@! TD*
G04 #@! TA.AperFunction,ComponentPad*
%ADD24R,1.905000X2.000000*%
G04 #@! TD*
G04 #@! TA.AperFunction,ComponentPad*
%ADD25O,2.100000X2.300000*%
G04 #@! TD*
G04 #@! TA.AperFunction,ComponentPad*
%ADD26O,1.905000X2.000000*%
G04 #@! TD*
G04 #@! TA.AperFunction,ViaPad*
%ADD27C,1.600000*%
G04 #@! TD*
G04 #@! TA.AperFunction,Conductor*
%ADD28C,0.300000*%
G04 #@! TD*
G04 #@! TA.AperFunction,Conductor*
%ADD29C,0.250000*%
G04 #@! TD*
G04 #@! TA.AperFunction,Conductor*
%ADD30C,1.200000*%
G04 #@! TD*
G04 #@! TA.AperFunction,Conductor*
%ADD31C,0.600000*%
G04 #@! TD*
G04 #@! TA.AperFunction,Conductor*
%ADD32C,0.800000*%
G04 #@! TD*
G04 #@! TA.AperFunction,Conductor*
%ADD33C,0.500000*%
G04 #@! TD*
G04 APERTURE END LIST*
D10*
X105862380Y-55546309D02*
X105862380Y-55355833D01*
X105814761Y-55260595D01*
X105767142Y-55212976D01*
X105624285Y-55117738D01*
X105433809Y-55070119D01*
X105052857Y-55070119D01*
X104957619Y-55117738D01*
X104910000Y-55165357D01*
X104862380Y-55260595D01*
X104862380Y-55451071D01*
X104910000Y-55546309D01*
X104957619Y-55593928D01*
X105052857Y-55641547D01*
X105290952Y-55641547D01*
X105386190Y-55593928D01*
X105433809Y-55546309D01*
X105481428Y-55451071D01*
X105481428Y-55260595D01*
X105433809Y-55165357D01*
X105386190Y-55117738D01*
X105290952Y-55070119D01*
X104862380Y-54736785D02*
X104862380Y-54070119D01*
X105862380Y-54498690D01*
X105195714Y-53260595D02*
X105862380Y-53260595D01*
X104814761Y-53498690D02*
X105529047Y-53736785D01*
X105529047Y-53117738D01*
X105862380Y-52308214D02*
X104862380Y-52308214D01*
X105814761Y-52308214D02*
X105862380Y-52403452D01*
X105862380Y-52593928D01*
X105814761Y-52689166D01*
X105767142Y-52736785D01*
X105671904Y-52784404D01*
X105386190Y-52784404D01*
X105290952Y-52736785D01*
X105243333Y-52689166D01*
X105195714Y-52593928D01*
X105195714Y-52403452D01*
X105243333Y-52308214D01*
X105862380Y-51403452D02*
X105338571Y-51403452D01*
X105243333Y-51451071D01*
X105195714Y-51546309D01*
X105195714Y-51736785D01*
X105243333Y-51832023D01*
X105814761Y-51403452D02*
X105862380Y-51498690D01*
X105862380Y-51736785D01*
X105814761Y-51832023D01*
X105719523Y-51879642D01*
X105624285Y-51879642D01*
X105529047Y-51832023D01*
X105481428Y-51736785D01*
X105481428Y-51498690D01*
X105433809Y-51403452D01*
X105862380Y-50403452D02*
X105862380Y-50974880D01*
X105862380Y-50689166D02*
X104862380Y-50689166D01*
X105005238Y-50784404D01*
X105100476Y-50879642D01*
X105148095Y-50974880D01*
D11*
X103068571Y-43176071D02*
X103425714Y-44176071D01*
X103782857Y-43176071D01*
X104282857Y-42818928D02*
X104354285Y-42747500D01*
X104497142Y-42676071D01*
X104854285Y-42676071D01*
X104997142Y-42747500D01*
X105068571Y-42818928D01*
X105140000Y-42961785D01*
X105140000Y-43104642D01*
X105068571Y-43318928D01*
X104211428Y-44176071D01*
X105140000Y-44176071D01*
D10*
X103639880Y-57498809D02*
X103639880Y-58070238D01*
X103639880Y-57784523D02*
X102639880Y-57784523D01*
X102782738Y-57879761D01*
X102877976Y-57975000D01*
X102925595Y-58070238D01*
X102639880Y-57165476D02*
X102639880Y-56546428D01*
X103020833Y-56879761D01*
X103020833Y-56736904D01*
X103068452Y-56641666D01*
X103116071Y-56594047D01*
X103211309Y-56546428D01*
X103449404Y-56546428D01*
X103544642Y-56594047D01*
X103592261Y-56641666D01*
X103639880Y-56736904D01*
X103639880Y-57022619D01*
X103592261Y-57117857D01*
X103544642Y-57165476D01*
X103544642Y-56117857D02*
X103592261Y-56070238D01*
X103639880Y-56117857D01*
X103592261Y-56165476D01*
X103544642Y-56117857D01*
X103639880Y-56117857D01*
X103639880Y-55117857D02*
X103639880Y-55689285D01*
X103639880Y-55403571D02*
X102639880Y-55403571D01*
X102782738Y-55498809D01*
X102877976Y-55594047D01*
X102925595Y-55689285D01*
X103639880Y-54165476D02*
X103639880Y-54736904D01*
X103639880Y-54451190D02*
X102639880Y-54451190D01*
X102782738Y-54546428D01*
X102877976Y-54641666D01*
X102925595Y-54736904D01*
X103544642Y-53736904D02*
X103592261Y-53689285D01*
X103639880Y-53736904D01*
X103592261Y-53784523D01*
X103544642Y-53736904D01*
X103639880Y-53736904D01*
X102735119Y-53308333D02*
X102687500Y-53260714D01*
X102639880Y-53165476D01*
X102639880Y-52927380D01*
X102687500Y-52832142D01*
X102735119Y-52784523D01*
X102830357Y-52736904D01*
X102925595Y-52736904D01*
X103068452Y-52784523D01*
X103639880Y-53355952D01*
X103639880Y-52736904D01*
X102639880Y-52117857D02*
X102639880Y-52022619D01*
X102687500Y-51927380D01*
X102735119Y-51879761D01*
X102830357Y-51832142D01*
X103020833Y-51784523D01*
X103258928Y-51784523D01*
X103449404Y-51832142D01*
X103544642Y-51879761D01*
X103592261Y-51927380D01*
X103639880Y-52022619D01*
X103639880Y-52117857D01*
X103592261Y-52213095D01*
X103544642Y-52260714D01*
X103449404Y-52308333D01*
X103258928Y-52355952D01*
X103020833Y-52355952D01*
X102830357Y-52308333D01*
X102735119Y-52260714D01*
X102687500Y-52213095D01*
X102639880Y-52117857D01*
X102735119Y-51403571D02*
X102687500Y-51355952D01*
X102639880Y-51260714D01*
X102639880Y-51022619D01*
X102687500Y-50927380D01*
X102735119Y-50879761D01*
X102830357Y-50832142D01*
X102925595Y-50832142D01*
X103068452Y-50879761D01*
X103639880Y-51451190D01*
X103639880Y-50832142D01*
X102639880Y-50213095D02*
X102639880Y-50117857D01*
X102687500Y-50022619D01*
X102735119Y-49975000D01*
X102830357Y-49927380D01*
X103020833Y-49879761D01*
X103258928Y-49879761D01*
X103449404Y-49927380D01*
X103544642Y-49975000D01*
X103592261Y-50022619D01*
X103639880Y-50117857D01*
X103639880Y-50213095D01*
X103592261Y-50308333D01*
X103544642Y-50355952D01*
X103449404Y-50403571D01*
X103258928Y-50451190D01*
X103020833Y-50451190D01*
X102830357Y-50403571D01*
X102735119Y-50355952D01*
X102687500Y-50308333D01*
X102639880Y-50213095D01*
D12*
G36*
X107950000Y-48895000D02*
G01*
X100330000Y-48895000D01*
X100330000Y-46355000D01*
X107950000Y-46355000D01*
X107950000Y-48895000D01*
G37*
X107950000Y-48895000D02*
X100330000Y-48895000D01*
X100330000Y-46355000D01*
X107950000Y-46355000D01*
X107950000Y-48895000D01*
G04 #@! TA.AperFunction,ComponentPad*
D13*
G36*
X120650000Y-60463629D02*
G01*
X121781371Y-61595000D01*
X120650000Y-62726371D01*
X119518629Y-61595000D01*
X120650000Y-60463629D01*
G37*
G04 #@! TD.AperFunction*
D14*
X118882233Y-63362767D03*
G04 #@! TA.AperFunction,SMDPad,CuDef*
G36*
G01*
X123374999Y-56330000D02*
X124275001Y-56330000D01*
G75*
G02*
X124525000Y-56579999I0J-249999D01*
G01*
X124525000Y-57230001D01*
G75*
G02*
X124275001Y-57480000I-249999J0D01*
G01*
X123374999Y-57480000D01*
G75*
G02*
X123125000Y-57230001I0J249999D01*
G01*
X123125000Y-56579999D01*
G75*
G02*
X123374999Y-56330000I249999J0D01*
G01*
G37*
G04 #@! TD.AperFunction*
G04 #@! TA.AperFunction,SMDPad,CuDef*
G36*
G01*
X123374999Y-54280000D02*
X124275001Y-54280000D01*
G75*
G02*
X124525000Y-54529999I0J-249999D01*
G01*
X124525000Y-55180001D01*
G75*
G02*
X124275001Y-55430000I-249999J0D01*
G01*
X123374999Y-55430000D01*
G75*
G02*
X123125000Y-55180001I0J249999D01*
G01*
X123125000Y-54529999D01*
G75*
G02*
X123374999Y-54280000I249999J0D01*
G01*
G37*
G04 #@! TD.AperFunction*
D15*
X99052500Y-63817500D03*
G04 #@! TA.AperFunction,ComponentPad*
G36*
G01*
X103452500Y-63367500D02*
X103452500Y-64267500D01*
G75*
G02*
X103002500Y-64717500I-450000J0D01*
G01*
X102102500Y-64717500D01*
G75*
G02*
X101652500Y-64267500I0J450000D01*
G01*
X101652500Y-63367500D01*
G75*
G02*
X102102500Y-62917500I450000J0D01*
G01*
X103002500Y-62917500D01*
G75*
G02*
X103452500Y-63367500I0J-450000D01*
G01*
G37*
G04 #@! TD.AperFunction*
D16*
X125730000Y-59690000D03*
X125730000Y-57150000D03*
X125730000Y-54610000D03*
X125730000Y-52070000D03*
X125730000Y-49530000D03*
X125730000Y-46990000D03*
X125730000Y-44450000D03*
X125730000Y-41910000D03*
X125730000Y-39370000D03*
X125730000Y-36830000D03*
X92710000Y-39370000D03*
X92710000Y-41910000D03*
X92710000Y-44450000D03*
X92710000Y-46990000D03*
X92710000Y-49530000D03*
X92710000Y-52070000D03*
X92710000Y-54610000D03*
X92710000Y-57150000D03*
X92710000Y-36830000D03*
X92710000Y-59690000D03*
G04 #@! TA.AperFunction,SMDPad,CuDef*
G36*
G01*
X114922500Y-43630001D02*
X114922500Y-42729999D01*
G75*
G02*
X115172499Y-42480000I249999J0D01*
G01*
X115822501Y-42480000D01*
G75*
G02*
X116072500Y-42729999I0J-249999D01*
G01*
X116072500Y-43630001D01*
G75*
G02*
X115822501Y-43880000I-249999J0D01*
G01*
X115172499Y-43880000D01*
G75*
G02*
X114922500Y-43630001I0J249999D01*
G01*
G37*
G04 #@! TD.AperFunction*
G04 #@! TA.AperFunction,SMDPad,CuDef*
G36*
G01*
X116972500Y-43630001D02*
X116972500Y-42729999D01*
G75*
G02*
X117222499Y-42480000I249999J0D01*
G01*
X117872501Y-42480000D01*
G75*
G02*
X118122500Y-42729999I0J-249999D01*
G01*
X118122500Y-43630001D01*
G75*
G02*
X117872501Y-43880000I-249999J0D01*
G01*
X117222499Y-43880000D01*
G75*
G02*
X116972500Y-43630001I0J249999D01*
G01*
G37*
G04 #@! TD.AperFunction*
D17*
X114300000Y-64135000D03*
D18*
X109220000Y-64135000D03*
D19*
X105410000Y-31750000D03*
D17*
X100330000Y-31750000D03*
X113030000Y-31750000D03*
D19*
X118110000Y-31750000D03*
D20*
X100330000Y-38735000D03*
X107950000Y-56515000D03*
X100330000Y-41275000D03*
X107950000Y-53975000D03*
X100330000Y-43815000D03*
X107950000Y-51435000D03*
D21*
X100330000Y-46355000D03*
X107950000Y-48895000D03*
X100330000Y-48895000D03*
X107950000Y-46355000D03*
D20*
X100330000Y-51435000D03*
X107950000Y-43815000D03*
X100330000Y-53975000D03*
X107950000Y-41275000D03*
X100330000Y-56515000D03*
X107950000Y-38735000D03*
D22*
X121602500Y-58420000D03*
D23*
X121602500Y-55880000D03*
D24*
X113665000Y-56515000D03*
D25*
X116205000Y-56515000D03*
D26*
X118745000Y-56515000D03*
G04 #@! TA.AperFunction,SMDPad,CuDef*
G36*
G01*
X94675000Y-60140001D02*
X94675000Y-59239999D01*
G75*
G02*
X94924999Y-58990000I249999J0D01*
G01*
X95575001Y-58990000D01*
G75*
G02*
X95825000Y-59239999I0J-249999D01*
G01*
X95825000Y-60140001D01*
G75*
G02*
X95575001Y-60390000I-249999J0D01*
G01*
X94924999Y-60390000D01*
G75*
G02*
X94675000Y-60140001I0J249999D01*
G01*
G37*
G04 #@! TD.AperFunction*
G04 #@! TA.AperFunction,SMDPad,CuDef*
G36*
G01*
X96725000Y-60140001D02*
X96725000Y-59239999D01*
G75*
G02*
X96974999Y-58990000I249999J0D01*
G01*
X97625001Y-58990000D01*
G75*
G02*
X97875000Y-59239999I0J-249999D01*
G01*
X97875000Y-60140001D01*
G75*
G02*
X97625001Y-60390000I-249999J0D01*
G01*
X96974999Y-60390000D01*
G75*
G02*
X96725000Y-60140001I0J249999D01*
G01*
G37*
G04 #@! TD.AperFunction*
D16*
X97790000Y-38735000D03*
X97155000Y-57785000D03*
D27*
X112077500Y-51117500D03*
X115887500Y-52705000D03*
X112077500Y-37782500D03*
X121920000Y-42227500D03*
X123190000Y-47625000D03*
X122555000Y-52070000D03*
X97790000Y-41910000D03*
X97790000Y-52070000D03*
X104775000Y-63500000D03*
X110172500Y-40322500D03*
D28*
X89852500Y-59055000D02*
X89852500Y-60325000D01*
X89217500Y-60325000D02*
X90487500Y-60325000D01*
D29*
X89535000Y-36830000D02*
X90805000Y-36830000D01*
X90170000Y-36195000D02*
X90170000Y-37465000D01*
D28*
X106362500Y-66357500D02*
X107632500Y-66357500D01*
X106997500Y-65087500D02*
X106997500Y-66357500D01*
D29*
X117157500Y-65087500D02*
X117157500Y-66357500D01*
X116522500Y-65722500D02*
X117792500Y-65722500D01*
D30*
X114300000Y-51117500D02*
X115887500Y-52705000D01*
X112077500Y-51117500D02*
X114300000Y-51117500D01*
D31*
X112077500Y-43180000D02*
X115497500Y-43180000D01*
D30*
X112077500Y-46355000D02*
X112077500Y-51117500D01*
X112077500Y-46355000D02*
X112077500Y-37782500D01*
X100330000Y-46355000D02*
X107950000Y-46355000D01*
X104140000Y-48895000D02*
X107950000Y-48895000D01*
X100330000Y-48895000D02*
X104140000Y-48895000D01*
D31*
X121285000Y-46355000D02*
X121920000Y-45720000D01*
X124142500Y-53022500D02*
X124142500Y-51117500D01*
X121285000Y-48260000D02*
X121285000Y-46355000D01*
X123507500Y-53657500D02*
X124142500Y-53022500D01*
X121920000Y-45720000D02*
X121920000Y-42227500D01*
X119062500Y-53657500D02*
X123507500Y-53657500D01*
X124142500Y-51117500D02*
X121285000Y-48260000D01*
X116205000Y-56515000D02*
X119062500Y-53657500D01*
X123825000Y-53975000D02*
X123507500Y-53657500D01*
X123825000Y-54855000D02*
X123825000Y-53975000D01*
X117547500Y-43180000D02*
X121920000Y-43180000D01*
D32*
X118882233Y-66537767D02*
X118882233Y-63362767D01*
X99060000Y-67627500D02*
X117792500Y-67627500D01*
X96202500Y-64770000D02*
X99060000Y-67627500D01*
X117792500Y-67627500D02*
X118882233Y-66537767D01*
X95250000Y-59690000D02*
X95250000Y-60960000D01*
X95250000Y-60960000D02*
X96202500Y-61912500D01*
X96202500Y-61912500D02*
X96202500Y-64770000D01*
X95250000Y-59690000D02*
X92710000Y-59690000D01*
D31*
X104140000Y-38735000D02*
X100330000Y-38735000D01*
X104775000Y-38100000D02*
X104140000Y-38735000D01*
X104775000Y-35560000D02*
X104775000Y-38100000D01*
X105410000Y-34925000D02*
X104775000Y-35560000D01*
X123825000Y-38417500D02*
X120332500Y-34925000D01*
X123825000Y-43497500D02*
X123825000Y-38417500D01*
X120332500Y-34925000D02*
X105410000Y-34925000D01*
X123190000Y-44132500D02*
X123825000Y-43497500D01*
X123190000Y-47625000D02*
X123190000Y-44132500D01*
X109350000Y-56515000D02*
X110302500Y-55562500D01*
X107950000Y-56515000D02*
X109350000Y-56515000D01*
X110807500Y-54292500D02*
X110302500Y-54797500D01*
X116522500Y-54292500D02*
X110807500Y-54292500D01*
X118745000Y-52070000D02*
X116522500Y-54292500D01*
X122555000Y-52070000D02*
X118745000Y-52070000D01*
X110302500Y-55562500D02*
X110302500Y-54797500D01*
X125485000Y-56905000D02*
X125730000Y-57150000D01*
X123825000Y-56905000D02*
X125485000Y-56905000D01*
X97790000Y-41910000D02*
X97790000Y-52070000D01*
X97155000Y-57785000D02*
X97155000Y-59055000D01*
X97155000Y-59055000D02*
X98425000Y-60325000D01*
X98425000Y-60325000D02*
X103822500Y-60325000D01*
X104775000Y-61277500D02*
X104775000Y-63500000D01*
X103822500Y-60325000D02*
X104775000Y-61277500D01*
D33*
X97790000Y-38735000D02*
X97790000Y-40005000D01*
X97790000Y-40005000D02*
X105727500Y-40005000D01*
X105727500Y-40005000D02*
X106680000Y-40005000D01*
X106680000Y-40005000D02*
X110172500Y-40005000D01*
X110172500Y-40005000D02*
X110172500Y-40322500D01*
X110172500Y-40322500D02*
X110172500Y-40322500D01*
M02*
