M48
INCH,TZ
T1C0.0315
T2C0.0354
T3C0.0394
T4C0.0433
T5C0.0598
T6C0.0630
T7C0.1260
T8C0.1378
%
G90
G05
T1
X39500Y-15250
X39500Y-16250
X39500Y-17250
X39500Y-18250
X39500Y-19250
X39500Y-20250
X39500Y-21250
X39500Y-22250
X42500Y-15250
X42500Y-16250
X42500Y-17250
X42500Y-18250
X42500Y-19250
X42500Y-20250
X42500Y-21250
X42500Y-22250
X40250Y-25000
X46804Y-24946
X47500Y-24250
T2
X38500Y-16500
X38500Y-20500
X41250Y-25000
X43375Y-15875
X44125Y-14875
X44125Y-20125
X45625Y-20750
X48000Y-16625
X48250Y-20500
X48500Y-18750
T3
X36500Y-22500
X36500Y-15500
X47875Y-22000
X47875Y-23000
X49500Y-20500
X38872Y-25000
X36500Y-23500
X36500Y-17500
X49500Y-18500
X49500Y-21500
X36500Y-19500
X49500Y-16500
X49500Y-23500
X36500Y-21500
X38250Y-22750
X49500Y-14500
X36500Y-14500
X36500Y-16500
X49500Y-19500
X36500Y-18500
X49500Y-17500
X49500Y-22500
X36500Y-20500
X38500Y-15250
X49500Y-15500
T4
X44750Y-22250
X45750Y-22250
X46750Y-22250
T5
X45000Y-25250
X44500Y-12500
X46500Y-12500
X39500Y-12500
X41500Y-12500
T6
X43000Y-25250
T7
X36500Y-12500
X49500Y-12500
X36500Y-25500
X49500Y-25500
T8
X45750Y-15691
T0
M30
