G04 #@! TF.GenerationSoftware,KiCad,Pcbnew,(5.1.8)-1*
G04 #@! TF.CreationDate,2020-11-12T23:55:28+03:00*
G04 #@! TF.ProjectId,L293,4c323933-2e6b-4696-9361-645f70636258,rev?*
G04 #@! TF.SameCoordinates,Original*
G04 #@! TF.FileFunction,Legend,Bot*
G04 #@! TF.FilePolarity,Positive*
%FSLAX46Y46*%
G04 Gerber Fmt 4.6, Leading zero omitted, Abs format (unit mm)*
G04 Created by KiCad (PCBNEW (5.1.8)-1) date 2020-11-12 23:55:28*
%MOMM*%
%LPD*%
G01*
G04 APERTURE LIST*
%ADD10C,0.150000*%
%ADD11C,0.120000*%
G04 APERTURE END LIST*
D10*
X119784404Y-46124880D02*
X119117738Y-46124880D01*
X119546309Y-47124880D01*
X118308214Y-46458214D02*
X118308214Y-47124880D01*
X118546309Y-46077261D02*
X118784404Y-46791547D01*
X118165357Y-46791547D01*
X117784404Y-47124880D02*
X117784404Y-46124880D01*
X117784404Y-46601071D02*
X117212976Y-46601071D01*
X117212976Y-47124880D02*
X117212976Y-46124880D01*
X116165357Y-47029642D02*
X116212976Y-47077261D01*
X116355833Y-47124880D01*
X116451071Y-47124880D01*
X116593928Y-47077261D01*
X116689166Y-46982023D01*
X116736785Y-46886785D01*
X116784404Y-46696309D01*
X116784404Y-46553452D01*
X116736785Y-46362976D01*
X116689166Y-46267738D01*
X116593928Y-46172500D01*
X116451071Y-46124880D01*
X116355833Y-46124880D01*
X116212976Y-46172500D01*
X116165357Y-46220119D01*
X115212976Y-47124880D02*
X115784404Y-47124880D01*
X115498690Y-47124880D02*
X115498690Y-46124880D01*
X115593928Y-46267738D01*
X115689166Y-46362976D01*
X115784404Y-46410595D01*
X114879642Y-46124880D02*
X114212976Y-46124880D01*
X114641547Y-47124880D01*
X113355833Y-46124880D02*
X113832023Y-46124880D01*
X113879642Y-46601071D01*
X113832023Y-46553452D01*
X113736785Y-46505833D01*
X113498690Y-46505833D01*
X113403452Y-46553452D01*
X113355833Y-46601071D01*
X113308214Y-46696309D01*
X113308214Y-46934404D01*
X113355833Y-47029642D01*
X113403452Y-47077261D01*
X113498690Y-47124880D01*
X113736785Y-47124880D01*
X113832023Y-47077261D01*
X113879642Y-47029642D01*
D11*
X96648748Y-53900000D02*
X97171252Y-53900000D01*
X96648748Y-55320000D02*
X97171252Y-55320000D01*
X114991248Y-59447500D02*
X115513752Y-59447500D01*
X114991248Y-58027500D02*
X115513752Y-58027500D01*
X111367500Y-40378748D02*
X111367500Y-40901252D01*
X112787500Y-40378748D02*
X112787500Y-40901252D01*
X121582500Y-46672500D02*
X121582500Y-48622500D01*
X121582500Y-46672500D02*
X121582500Y-44722500D01*
X111462500Y-46672500D02*
X111462500Y-48622500D01*
X111462500Y-46672500D02*
X111462500Y-43222500D01*
X98424813Y-61329279D02*
X98794279Y-60959813D01*
X97420721Y-60325187D02*
X97790187Y-59955721D01*
X107072500Y-65911252D02*
X107072500Y-65388748D01*
X105652500Y-65911252D02*
X105652500Y-65388748D01*
X107072500Y-61016248D02*
X107072500Y-61538752D01*
X105652500Y-61016248D02*
X105652500Y-61538752D01*
D10*
X96369166Y-53379642D02*
X96416785Y-53427261D01*
X96559642Y-53474880D01*
X96654880Y-53474880D01*
X96797738Y-53427261D01*
X96892976Y-53332023D01*
X96940595Y-53236785D01*
X96988214Y-53046309D01*
X96988214Y-52903452D01*
X96940595Y-52712976D01*
X96892976Y-52617738D01*
X96797738Y-52522500D01*
X96654880Y-52474880D01*
X96559642Y-52474880D01*
X96416785Y-52522500D01*
X96369166Y-52570119D01*
X95988214Y-52570119D02*
X95940595Y-52522500D01*
X95845357Y-52474880D01*
X95607261Y-52474880D01*
X95512023Y-52522500D01*
X95464404Y-52570119D01*
X95416785Y-52665357D01*
X95416785Y-52760595D01*
X95464404Y-52903452D01*
X96035833Y-53474880D01*
X95416785Y-53474880D01*
X115419166Y-60682142D02*
X115466785Y-60729761D01*
X115609642Y-60777380D01*
X115704880Y-60777380D01*
X115847738Y-60729761D01*
X115942976Y-60634523D01*
X115990595Y-60539285D01*
X116038214Y-60348809D01*
X116038214Y-60205952D01*
X115990595Y-60015476D01*
X115942976Y-59920238D01*
X115847738Y-59825000D01*
X115704880Y-59777380D01*
X115609642Y-59777380D01*
X115466785Y-59825000D01*
X115419166Y-59872619D01*
X114514404Y-59777380D02*
X114990595Y-59777380D01*
X115038214Y-60253571D01*
X114990595Y-60205952D01*
X114895357Y-60158333D01*
X114657261Y-60158333D01*
X114562023Y-60205952D01*
X114514404Y-60253571D01*
X114466785Y-60348809D01*
X114466785Y-60586904D01*
X114514404Y-60682142D01*
X114562023Y-60729761D01*
X114657261Y-60777380D01*
X114895357Y-60777380D01*
X114990595Y-60729761D01*
X115038214Y-60682142D01*
X110624880Y-37933333D02*
X110148690Y-37600000D01*
X110624880Y-37361904D02*
X109624880Y-37361904D01*
X109624880Y-37742857D01*
X109672500Y-37838095D01*
X109720119Y-37885714D01*
X109815357Y-37933333D01*
X109958214Y-37933333D01*
X110053452Y-37885714D01*
X110101071Y-37838095D01*
X110148690Y-37742857D01*
X110148690Y-37361904D01*
X109720119Y-38314285D02*
X109672500Y-38361904D01*
X109624880Y-38457142D01*
X109624880Y-38695238D01*
X109672500Y-38790476D01*
X109720119Y-38838095D01*
X109815357Y-38885714D01*
X109910595Y-38885714D01*
X110053452Y-38838095D01*
X110624880Y-38266666D01*
X110624880Y-38885714D01*
X110074880Y-45910595D02*
X110884404Y-45910595D01*
X110979642Y-45958214D01*
X111027261Y-46005833D01*
X111074880Y-46101071D01*
X111074880Y-46291547D01*
X111027261Y-46386785D01*
X110979642Y-46434404D01*
X110884404Y-46482023D01*
X110074880Y-46482023D01*
X111074880Y-47482023D02*
X111074880Y-46910595D01*
X111074880Y-47196309D02*
X110074880Y-47196309D01*
X110217738Y-47101071D01*
X110312976Y-47005833D01*
X110360595Y-46910595D01*
X100700389Y-58554687D02*
X100767732Y-58554687D01*
X100902419Y-58487343D01*
X100969763Y-58420000D01*
X101037106Y-58285312D01*
X101037106Y-58150625D01*
X101003435Y-58049610D01*
X100902419Y-57881251D01*
X100801404Y-57780236D01*
X100633045Y-57679221D01*
X100532030Y-57645549D01*
X100397343Y-57645549D01*
X100262656Y-57712893D01*
X100195312Y-57780236D01*
X100127969Y-57914923D01*
X100127969Y-57982267D01*
X99824923Y-58150625D02*
X99387190Y-58588358D01*
X99892267Y-58622030D01*
X99791251Y-58723045D01*
X99757580Y-58824061D01*
X99757580Y-58891404D01*
X99791251Y-58992419D01*
X99959610Y-59160778D01*
X100060625Y-59194450D01*
X100127969Y-59194450D01*
X100228984Y-59160778D01*
X100431015Y-58958748D01*
X100464687Y-58857732D01*
X100464687Y-58790389D01*
X105227380Y-65483333D02*
X104751190Y-65150000D01*
X105227380Y-64911904D02*
X104227380Y-64911904D01*
X104227380Y-65292857D01*
X104275000Y-65388095D01*
X104322619Y-65435714D01*
X104417857Y-65483333D01*
X104560714Y-65483333D01*
X104655952Y-65435714D01*
X104703571Y-65388095D01*
X104751190Y-65292857D01*
X104751190Y-64911904D01*
X104227380Y-65816666D02*
X104227380Y-66435714D01*
X104608333Y-66102380D01*
X104608333Y-66245238D01*
X104655952Y-66340476D01*
X104703571Y-66388095D01*
X104798809Y-66435714D01*
X105036904Y-66435714D01*
X105132142Y-66388095D01*
X105179761Y-66340476D01*
X105227380Y-66245238D01*
X105227380Y-65959523D01*
X105179761Y-65864285D01*
X105132142Y-65816666D01*
X105164880Y-61110833D02*
X104688690Y-60777500D01*
X105164880Y-60539404D02*
X104164880Y-60539404D01*
X104164880Y-60920357D01*
X104212500Y-61015595D01*
X104260119Y-61063214D01*
X104355357Y-61110833D01*
X104498214Y-61110833D01*
X104593452Y-61063214D01*
X104641071Y-61015595D01*
X104688690Y-60920357D01*
X104688690Y-60539404D01*
X104498214Y-61967976D02*
X105164880Y-61967976D01*
X104117261Y-61729880D02*
X104831547Y-61491785D01*
X104831547Y-62110833D01*
M02*
