G04 #@! TF.GenerationSoftware,KiCad,Pcbnew,(5.1.8)-1*
G04 #@! TF.CreationDate,2020-11-13T22:35:38+03:00*
G04 #@! TF.ProjectId,L293,4c323933-2e6b-4696-9361-645f70636258,rev?*
G04 #@! TF.SameCoordinates,Original*
G04 #@! TF.FileFunction,Soldermask,Bot*
G04 #@! TF.FilePolarity,Negative*
%FSLAX46Y46*%
G04 Gerber Fmt 4.6, Leading zero omitted, Abs format (unit mm)*
G04 Created by KiCad (PCBNEW (5.1.8)-1) date 2020-11-13 22:35:38*
%MOMM*%
%LPD*%
G01*
G04 APERTURE LIST*
%ADD10C,2.102000*%
%ADD11C,2.402000*%
%ADD12C,3.302000*%
%ADD13C,3.602000*%
%ADD14C,3.102000*%
%ADD15O,2.002000X2.002000*%
%ADD16O,3.602000X3.602000*%
%ADD17O,2.202000X2.402000*%
%ADD18O,2.007000X2.102000*%
%ADD19C,0.100000*%
G04 APERTURE END LIST*
G36*
G01*
X120686062Y-60427567D02*
X121817433Y-61558938D01*
G75*
G02*
X121817433Y-61631062I-36062J-36062D01*
G01*
X120686062Y-62762433D01*
G75*
G02*
X120613938Y-62762433I-36062J36062D01*
G01*
X119482567Y-61631062D01*
G75*
G02*
X119482567Y-61558938I36062J36062D01*
G01*
X120613938Y-60427567D01*
G75*
G02*
X120686062Y-60427567I36062J-36062D01*
G01*
G37*
D10*
X118882233Y-63362767D03*
D11*
X99052500Y-63817500D03*
G36*
G01*
X103503500Y-63342000D02*
X103503500Y-64293000D01*
G75*
G02*
X103028000Y-64768500I-475500J0D01*
G01*
X102077000Y-64768500D01*
G75*
G02*
X101601500Y-64293000I0J475500D01*
G01*
X101601500Y-63342000D01*
G75*
G02*
X102077000Y-62866500I475500J0D01*
G01*
X103028000Y-62866500D01*
G75*
G02*
X103503500Y-63342000I0J-475500D01*
G01*
G37*
D12*
X92710000Y-31750000D03*
X92710000Y-64770000D03*
X125730000Y-31750000D03*
X125730000Y-64770000D03*
G36*
G01*
X124829000Y-60540000D02*
X124829000Y-58840000D01*
G75*
G02*
X124880000Y-58789000I51000J0D01*
G01*
X126580000Y-58789000D01*
G75*
G02*
X126631000Y-58840000I0J-51000D01*
G01*
X126631000Y-60540000D01*
G75*
G02*
X126580000Y-60591000I-51000J0D01*
G01*
X124880000Y-60591000D01*
G75*
G02*
X124829000Y-60540000I0J51000D01*
G01*
G37*
G36*
G01*
X124829000Y-58000000D02*
X124829000Y-56300000D01*
G75*
G02*
X124880000Y-56249000I51000J0D01*
G01*
X126580000Y-56249000D01*
G75*
G02*
X126631000Y-56300000I0J-51000D01*
G01*
X126631000Y-58000000D01*
G75*
G02*
X126580000Y-58051000I-51000J0D01*
G01*
X124880000Y-58051000D01*
G75*
G02*
X124829000Y-58000000I0J51000D01*
G01*
G37*
G36*
G01*
X124829000Y-55460000D02*
X124829000Y-53760000D01*
G75*
G02*
X124880000Y-53709000I51000J0D01*
G01*
X126580000Y-53709000D01*
G75*
G02*
X126631000Y-53760000I0J-51000D01*
G01*
X126631000Y-55460000D01*
G75*
G02*
X126580000Y-55511000I-51000J0D01*
G01*
X124880000Y-55511000D01*
G75*
G02*
X124829000Y-55460000I0J51000D01*
G01*
G37*
G36*
G01*
X124829000Y-52920000D02*
X124829000Y-51220000D01*
G75*
G02*
X124880000Y-51169000I51000J0D01*
G01*
X126580000Y-51169000D01*
G75*
G02*
X126631000Y-51220000I0J-51000D01*
G01*
X126631000Y-52920000D01*
G75*
G02*
X126580000Y-52971000I-51000J0D01*
G01*
X124880000Y-52971000D01*
G75*
G02*
X124829000Y-52920000I0J51000D01*
G01*
G37*
G36*
G01*
X124829000Y-50380000D02*
X124829000Y-48680000D01*
G75*
G02*
X124880000Y-48629000I51000J0D01*
G01*
X126580000Y-48629000D01*
G75*
G02*
X126631000Y-48680000I0J-51000D01*
G01*
X126631000Y-50380000D01*
G75*
G02*
X126580000Y-50431000I-51000J0D01*
G01*
X124880000Y-50431000D01*
G75*
G02*
X124829000Y-50380000I0J51000D01*
G01*
G37*
G36*
G01*
X124829000Y-47840000D02*
X124829000Y-46140000D01*
G75*
G02*
X124880000Y-46089000I51000J0D01*
G01*
X126580000Y-46089000D01*
G75*
G02*
X126631000Y-46140000I0J-51000D01*
G01*
X126631000Y-47840000D01*
G75*
G02*
X126580000Y-47891000I-51000J0D01*
G01*
X124880000Y-47891000D01*
G75*
G02*
X124829000Y-47840000I0J51000D01*
G01*
G37*
G36*
G01*
X124829000Y-45300000D02*
X124829000Y-43600000D01*
G75*
G02*
X124880000Y-43549000I51000J0D01*
G01*
X126580000Y-43549000D01*
G75*
G02*
X126631000Y-43600000I0J-51000D01*
G01*
X126631000Y-45300000D01*
G75*
G02*
X126580000Y-45351000I-51000J0D01*
G01*
X124880000Y-45351000D01*
G75*
G02*
X124829000Y-45300000I0J51000D01*
G01*
G37*
G36*
G01*
X124829000Y-42760000D02*
X124829000Y-41060000D01*
G75*
G02*
X124880000Y-41009000I51000J0D01*
G01*
X126580000Y-41009000D01*
G75*
G02*
X126631000Y-41060000I0J-51000D01*
G01*
X126631000Y-42760000D01*
G75*
G02*
X126580000Y-42811000I-51000J0D01*
G01*
X124880000Y-42811000D01*
G75*
G02*
X124829000Y-42760000I0J51000D01*
G01*
G37*
G36*
G01*
X124829000Y-40220000D02*
X124829000Y-38520000D01*
G75*
G02*
X124880000Y-38469000I51000J0D01*
G01*
X126580000Y-38469000D01*
G75*
G02*
X126631000Y-38520000I0J-51000D01*
G01*
X126631000Y-40220000D01*
G75*
G02*
X126580000Y-40271000I-51000J0D01*
G01*
X124880000Y-40271000D01*
G75*
G02*
X124829000Y-40220000I0J51000D01*
G01*
G37*
G36*
G01*
X124829000Y-37680000D02*
X124829000Y-35980000D01*
G75*
G02*
X124880000Y-35929000I51000J0D01*
G01*
X126580000Y-35929000D01*
G75*
G02*
X126631000Y-35980000I0J-51000D01*
G01*
X126631000Y-37680000D01*
G75*
G02*
X126580000Y-37731000I-51000J0D01*
G01*
X124880000Y-37731000D01*
G75*
G02*
X124829000Y-37680000I0J51000D01*
G01*
G37*
G36*
G01*
X91809000Y-40220000D02*
X91809000Y-38520000D01*
G75*
G02*
X91860000Y-38469000I51000J0D01*
G01*
X93560000Y-38469000D01*
G75*
G02*
X93611000Y-38520000I0J-51000D01*
G01*
X93611000Y-40220000D01*
G75*
G02*
X93560000Y-40271000I-51000J0D01*
G01*
X91860000Y-40271000D01*
G75*
G02*
X91809000Y-40220000I0J51000D01*
G01*
G37*
G36*
G01*
X91809000Y-42760000D02*
X91809000Y-41060000D01*
G75*
G02*
X91860000Y-41009000I51000J0D01*
G01*
X93560000Y-41009000D01*
G75*
G02*
X93611000Y-41060000I0J-51000D01*
G01*
X93611000Y-42760000D01*
G75*
G02*
X93560000Y-42811000I-51000J0D01*
G01*
X91860000Y-42811000D01*
G75*
G02*
X91809000Y-42760000I0J51000D01*
G01*
G37*
G36*
G01*
X91809000Y-45300000D02*
X91809000Y-43600000D01*
G75*
G02*
X91860000Y-43549000I51000J0D01*
G01*
X93560000Y-43549000D01*
G75*
G02*
X93611000Y-43600000I0J-51000D01*
G01*
X93611000Y-45300000D01*
G75*
G02*
X93560000Y-45351000I-51000J0D01*
G01*
X91860000Y-45351000D01*
G75*
G02*
X91809000Y-45300000I0J51000D01*
G01*
G37*
G36*
G01*
X91809000Y-47840000D02*
X91809000Y-46140000D01*
G75*
G02*
X91860000Y-46089000I51000J0D01*
G01*
X93560000Y-46089000D01*
G75*
G02*
X93611000Y-46140000I0J-51000D01*
G01*
X93611000Y-47840000D01*
G75*
G02*
X93560000Y-47891000I-51000J0D01*
G01*
X91860000Y-47891000D01*
G75*
G02*
X91809000Y-47840000I0J51000D01*
G01*
G37*
G36*
G01*
X91809000Y-50380000D02*
X91809000Y-48680000D01*
G75*
G02*
X91860000Y-48629000I51000J0D01*
G01*
X93560000Y-48629000D01*
G75*
G02*
X93611000Y-48680000I0J-51000D01*
G01*
X93611000Y-50380000D01*
G75*
G02*
X93560000Y-50431000I-51000J0D01*
G01*
X91860000Y-50431000D01*
G75*
G02*
X91809000Y-50380000I0J51000D01*
G01*
G37*
G36*
G01*
X91809000Y-52920000D02*
X91809000Y-51220000D01*
G75*
G02*
X91860000Y-51169000I51000J0D01*
G01*
X93560000Y-51169000D01*
G75*
G02*
X93611000Y-51220000I0J-51000D01*
G01*
X93611000Y-52920000D01*
G75*
G02*
X93560000Y-52971000I-51000J0D01*
G01*
X91860000Y-52971000D01*
G75*
G02*
X91809000Y-52920000I0J51000D01*
G01*
G37*
G36*
G01*
X91809000Y-55460000D02*
X91809000Y-53760000D01*
G75*
G02*
X91860000Y-53709000I51000J0D01*
G01*
X93560000Y-53709000D01*
G75*
G02*
X93611000Y-53760000I0J-51000D01*
G01*
X93611000Y-55460000D01*
G75*
G02*
X93560000Y-55511000I-51000J0D01*
G01*
X91860000Y-55511000D01*
G75*
G02*
X91809000Y-55460000I0J51000D01*
G01*
G37*
G36*
G01*
X91809000Y-58000000D02*
X91809000Y-56300000D01*
G75*
G02*
X91860000Y-56249000I51000J0D01*
G01*
X93560000Y-56249000D01*
G75*
G02*
X93611000Y-56300000I0J-51000D01*
G01*
X93611000Y-58000000D01*
G75*
G02*
X93560000Y-58051000I-51000J0D01*
G01*
X91860000Y-58051000D01*
G75*
G02*
X91809000Y-58000000I0J51000D01*
G01*
G37*
G36*
G01*
X91809000Y-37680000D02*
X91809000Y-35980000D01*
G75*
G02*
X91860000Y-35929000I51000J0D01*
G01*
X93560000Y-35929000D01*
G75*
G02*
X93611000Y-35980000I0J-51000D01*
G01*
X93611000Y-37680000D01*
G75*
G02*
X93560000Y-37731000I-51000J0D01*
G01*
X91860000Y-37731000D01*
G75*
G02*
X91809000Y-37680000I0J51000D01*
G01*
G37*
G36*
G01*
X91809000Y-60540000D02*
X91809000Y-58840000D01*
G75*
G02*
X91860000Y-58789000I51000J0D01*
G01*
X93560000Y-58789000D01*
G75*
G02*
X93611000Y-58840000I0J-51000D01*
G01*
X93611000Y-60540000D01*
G75*
G02*
X93560000Y-60591000I-51000J0D01*
G01*
X91860000Y-60591000D01*
G75*
G02*
X91809000Y-60540000I0J51000D01*
G01*
G37*
G36*
G01*
X97309000Y-55088828D02*
X97309000Y-54131172D01*
G75*
G02*
X97581172Y-53859000I272172J0D01*
G01*
X98288828Y-53859000D01*
G75*
G02*
X98561000Y-54131172I0J-272172D01*
G01*
X98561000Y-55088828D01*
G75*
G02*
X98288828Y-55361000I-272172J0D01*
G01*
X97581172Y-55361000D01*
G75*
G02*
X97309000Y-55088828I0J272172D01*
G01*
G37*
G36*
G01*
X95259000Y-55088828D02*
X95259000Y-54131172D01*
G75*
G02*
X95531172Y-53859000I272172J0D01*
G01*
X96238828Y-53859000D01*
G75*
G02*
X96511000Y-54131172I0J-272172D01*
G01*
X96511000Y-55088828D01*
G75*
G02*
X96238828Y-55361000I-272172J0D01*
G01*
X95531172Y-55361000D01*
G75*
G02*
X95259000Y-55088828I0J272172D01*
G01*
G37*
G36*
G01*
X115851000Y-62635000D02*
X115851000Y-65635000D01*
G75*
G02*
X115800000Y-65686000I-51000J0D01*
G01*
X112800000Y-65686000D01*
G75*
G02*
X112749000Y-65635000I0J51000D01*
G01*
X112749000Y-62635000D01*
G75*
G02*
X112800000Y-62584000I51000J0D01*
G01*
X115800000Y-62584000D01*
G75*
G02*
X115851000Y-62635000I0J-51000D01*
G01*
G37*
D13*
X109220000Y-64135000D03*
D14*
X105410000Y-31750000D03*
G36*
G01*
X98779000Y-33250000D02*
X98779000Y-30250000D01*
G75*
G02*
X98830000Y-30199000I51000J0D01*
G01*
X101830000Y-30199000D01*
G75*
G02*
X101881000Y-30250000I0J-51000D01*
G01*
X101881000Y-33250000D01*
G75*
G02*
X101830000Y-33301000I-51000J0D01*
G01*
X98830000Y-33301000D01*
G75*
G02*
X98779000Y-33250000I0J51000D01*
G01*
G37*
G36*
G01*
X111479000Y-33250000D02*
X111479000Y-30250000D01*
G75*
G02*
X111530000Y-30199000I51000J0D01*
G01*
X114530000Y-30199000D01*
G75*
G02*
X114581000Y-30250000I0J-51000D01*
G01*
X114581000Y-33250000D01*
G75*
G02*
X114530000Y-33301000I-51000J0D01*
G01*
X111530000Y-33301000D01*
G75*
G02*
X111479000Y-33250000I0J51000D01*
G01*
G37*
X118110000Y-31750000D03*
G36*
G01*
X99479000Y-39435000D02*
X99479000Y-38035000D01*
G75*
G02*
X99530000Y-37984000I51000J0D01*
G01*
X101130000Y-37984000D01*
G75*
G02*
X101181000Y-38035000I0J-51000D01*
G01*
X101181000Y-39435000D01*
G75*
G02*
X101130000Y-39486000I-51000J0D01*
G01*
X99530000Y-39486000D01*
G75*
G02*
X99479000Y-39435000I0J51000D01*
G01*
G37*
G36*
G01*
X107099000Y-57215000D02*
X107099000Y-55815000D01*
G75*
G02*
X107150000Y-55764000I51000J0D01*
G01*
X108750000Y-55764000D01*
G75*
G02*
X108801000Y-55815000I0J-51000D01*
G01*
X108801000Y-57215000D01*
G75*
G02*
X108750000Y-57266000I-51000J0D01*
G01*
X107150000Y-57266000D01*
G75*
G02*
X107099000Y-57215000I0J51000D01*
G01*
G37*
G36*
G01*
X99479000Y-41975000D02*
X99479000Y-40575000D01*
G75*
G02*
X99530000Y-40524000I51000J0D01*
G01*
X101130000Y-40524000D01*
G75*
G02*
X101181000Y-40575000I0J-51000D01*
G01*
X101181000Y-41975000D01*
G75*
G02*
X101130000Y-42026000I-51000J0D01*
G01*
X99530000Y-42026000D01*
G75*
G02*
X99479000Y-41975000I0J51000D01*
G01*
G37*
G36*
G01*
X107099000Y-54675000D02*
X107099000Y-53275000D01*
G75*
G02*
X107150000Y-53224000I51000J0D01*
G01*
X108750000Y-53224000D01*
G75*
G02*
X108801000Y-53275000I0J-51000D01*
G01*
X108801000Y-54675000D01*
G75*
G02*
X108750000Y-54726000I-51000J0D01*
G01*
X107150000Y-54726000D01*
G75*
G02*
X107099000Y-54675000I0J51000D01*
G01*
G37*
G36*
G01*
X99479000Y-44515000D02*
X99479000Y-43115000D01*
G75*
G02*
X99530000Y-43064000I51000J0D01*
G01*
X101130000Y-43064000D01*
G75*
G02*
X101181000Y-43115000I0J-51000D01*
G01*
X101181000Y-44515000D01*
G75*
G02*
X101130000Y-44566000I-51000J0D01*
G01*
X99530000Y-44566000D01*
G75*
G02*
X99479000Y-44515000I0J51000D01*
G01*
G37*
G36*
G01*
X107099000Y-52135000D02*
X107099000Y-50735000D01*
G75*
G02*
X107150000Y-50684000I51000J0D01*
G01*
X108750000Y-50684000D01*
G75*
G02*
X108801000Y-50735000I0J-51000D01*
G01*
X108801000Y-52135000D01*
G75*
G02*
X108750000Y-52186000I-51000J0D01*
G01*
X107150000Y-52186000D01*
G75*
G02*
X107099000Y-52135000I0J51000D01*
G01*
G37*
G36*
G01*
X99079000Y-47555000D02*
X99079000Y-45155000D01*
G75*
G02*
X99130000Y-45104000I51000J0D01*
G01*
X101530000Y-45104000D01*
G75*
G02*
X101581000Y-45155000I0J-51000D01*
G01*
X101581000Y-47555000D01*
G75*
G02*
X101530000Y-47606000I-51000J0D01*
G01*
X99130000Y-47606000D01*
G75*
G02*
X99079000Y-47555000I0J51000D01*
G01*
G37*
G36*
G01*
X106699000Y-50095000D02*
X106699000Y-47695000D01*
G75*
G02*
X106750000Y-47644000I51000J0D01*
G01*
X109150000Y-47644000D01*
G75*
G02*
X109201000Y-47695000I0J-51000D01*
G01*
X109201000Y-50095000D01*
G75*
G02*
X109150000Y-50146000I-51000J0D01*
G01*
X106750000Y-50146000D01*
G75*
G02*
X106699000Y-50095000I0J51000D01*
G01*
G37*
G36*
G01*
X99079000Y-50095000D02*
X99079000Y-47695000D01*
G75*
G02*
X99130000Y-47644000I51000J0D01*
G01*
X101530000Y-47644000D01*
G75*
G02*
X101581000Y-47695000I0J-51000D01*
G01*
X101581000Y-50095000D01*
G75*
G02*
X101530000Y-50146000I-51000J0D01*
G01*
X99130000Y-50146000D01*
G75*
G02*
X99079000Y-50095000I0J51000D01*
G01*
G37*
G36*
G01*
X106699000Y-47555000D02*
X106699000Y-45155000D01*
G75*
G02*
X106750000Y-45104000I51000J0D01*
G01*
X109150000Y-45104000D01*
G75*
G02*
X109201000Y-45155000I0J-51000D01*
G01*
X109201000Y-47555000D01*
G75*
G02*
X109150000Y-47606000I-51000J0D01*
G01*
X106750000Y-47606000D01*
G75*
G02*
X106699000Y-47555000I0J51000D01*
G01*
G37*
G36*
G01*
X99479000Y-52135000D02*
X99479000Y-50735000D01*
G75*
G02*
X99530000Y-50684000I51000J0D01*
G01*
X101130000Y-50684000D01*
G75*
G02*
X101181000Y-50735000I0J-51000D01*
G01*
X101181000Y-52135000D01*
G75*
G02*
X101130000Y-52186000I-51000J0D01*
G01*
X99530000Y-52186000D01*
G75*
G02*
X99479000Y-52135000I0J51000D01*
G01*
G37*
G36*
G01*
X107099000Y-44515000D02*
X107099000Y-43115000D01*
G75*
G02*
X107150000Y-43064000I51000J0D01*
G01*
X108750000Y-43064000D01*
G75*
G02*
X108801000Y-43115000I0J-51000D01*
G01*
X108801000Y-44515000D01*
G75*
G02*
X108750000Y-44566000I-51000J0D01*
G01*
X107150000Y-44566000D01*
G75*
G02*
X107099000Y-44515000I0J51000D01*
G01*
G37*
G36*
G01*
X99479000Y-54675000D02*
X99479000Y-53275000D01*
G75*
G02*
X99530000Y-53224000I51000J0D01*
G01*
X101130000Y-53224000D01*
G75*
G02*
X101181000Y-53275000I0J-51000D01*
G01*
X101181000Y-54675000D01*
G75*
G02*
X101130000Y-54726000I-51000J0D01*
G01*
X99530000Y-54726000D01*
G75*
G02*
X99479000Y-54675000I0J51000D01*
G01*
G37*
G36*
G01*
X107099000Y-41975000D02*
X107099000Y-40575000D01*
G75*
G02*
X107150000Y-40524000I51000J0D01*
G01*
X108750000Y-40524000D01*
G75*
G02*
X108801000Y-40575000I0J-51000D01*
G01*
X108801000Y-41975000D01*
G75*
G02*
X108750000Y-42026000I-51000J0D01*
G01*
X107150000Y-42026000D01*
G75*
G02*
X107099000Y-41975000I0J51000D01*
G01*
G37*
G36*
G01*
X99479000Y-57215000D02*
X99479000Y-55815000D01*
G75*
G02*
X99530000Y-55764000I51000J0D01*
G01*
X101130000Y-55764000D01*
G75*
G02*
X101181000Y-55815000I0J-51000D01*
G01*
X101181000Y-57215000D01*
G75*
G02*
X101130000Y-57266000I-51000J0D01*
G01*
X99530000Y-57266000D01*
G75*
G02*
X99479000Y-57215000I0J51000D01*
G01*
G37*
G36*
G01*
X107099000Y-39435000D02*
X107099000Y-38035000D01*
G75*
G02*
X107150000Y-37984000I51000J0D01*
G01*
X108750000Y-37984000D01*
G75*
G02*
X108801000Y-38035000I0J-51000D01*
G01*
X108801000Y-39435000D01*
G75*
G02*
X108750000Y-39486000I-51000J0D01*
G01*
X107150000Y-39486000D01*
G75*
G02*
X107099000Y-39435000I0J51000D01*
G01*
G37*
G36*
G01*
X113601500Y-59216328D02*
X113601500Y-58258672D01*
G75*
G02*
X113873672Y-57986500I272172J0D01*
G01*
X114581328Y-57986500D01*
G75*
G02*
X114853500Y-58258672I0J-272172D01*
G01*
X114853500Y-59216328D01*
G75*
G02*
X114581328Y-59488500I-272172J0D01*
G01*
X113873672Y-59488500D01*
G75*
G02*
X113601500Y-59216328I0J272172D01*
G01*
G37*
G36*
G01*
X115651500Y-59216328D02*
X115651500Y-58258672D01*
G75*
G02*
X115923672Y-57986500I272172J0D01*
G01*
X116631328Y-57986500D01*
G75*
G02*
X116903500Y-58258672I0J-272172D01*
G01*
X116903500Y-59216328D01*
G75*
G02*
X116631328Y-59488500I-272172J0D01*
G01*
X115923672Y-59488500D01*
G75*
G02*
X115651500Y-59216328I0J272172D01*
G01*
G37*
G36*
G01*
X122603500Y-57470000D02*
X122603500Y-59370000D01*
G75*
G02*
X122552500Y-59421000I-51000J0D01*
G01*
X120652500Y-59421000D01*
G75*
G02*
X120601500Y-59370000I0J51000D01*
G01*
X120601500Y-57470000D01*
G75*
G02*
X120652500Y-57419000I51000J0D01*
G01*
X122552500Y-57419000D01*
G75*
G02*
X122603500Y-57470000I0J-51000D01*
G01*
G37*
D15*
X121602500Y-55880000D03*
D16*
X116205000Y-39855000D03*
G36*
G01*
X112661500Y-57515000D02*
X112661500Y-55515000D01*
G75*
G02*
X112712500Y-55464000I51000J0D01*
G01*
X114617500Y-55464000D01*
G75*
G02*
X114668500Y-55515000I0J-51000D01*
G01*
X114668500Y-57515000D01*
G75*
G02*
X114617500Y-57566000I-51000J0D01*
G01*
X112712500Y-57566000D01*
G75*
G02*
X112661500Y-57515000I0J51000D01*
G01*
G37*
D17*
X116205000Y-56515000D03*
D18*
X118745000Y-56515000D03*
G36*
G01*
X111598672Y-38989000D02*
X112556328Y-38989000D01*
G75*
G02*
X112828500Y-39261172I0J-272172D01*
G01*
X112828500Y-39968828D01*
G75*
G02*
X112556328Y-40241000I-272172J0D01*
G01*
X111598672Y-40241000D01*
G75*
G02*
X111326500Y-39968828I0J272172D01*
G01*
X111326500Y-39261172D01*
G75*
G02*
X111598672Y-38989000I272172J0D01*
G01*
G37*
G36*
G01*
X111598672Y-41039000D02*
X112556328Y-41039000D01*
G75*
G02*
X112828500Y-41311172I0J-272172D01*
G01*
X112828500Y-42018828D01*
G75*
G02*
X112556328Y-42291000I-272172J0D01*
G01*
X111598672Y-42291000D01*
G75*
G02*
X111326500Y-42018828I0J272172D01*
G01*
X111326500Y-41311172D01*
G75*
G02*
X111598672Y-41039000I272172J0D01*
G01*
G37*
G36*
G01*
X111902000Y-43171500D02*
X112253000Y-43171500D01*
G75*
G02*
X112428500Y-43347000I0J-175500D01*
G01*
X112428500Y-45048000D01*
G75*
G02*
X112253000Y-45223500I-175500J0D01*
G01*
X111902000Y-45223500D01*
G75*
G02*
X111726500Y-45048000I0J175500D01*
G01*
X111726500Y-43347000D01*
G75*
G02*
X111902000Y-43171500I175500J0D01*
G01*
G37*
G36*
G01*
X113172000Y-43171500D02*
X113523000Y-43171500D01*
G75*
G02*
X113698500Y-43347000I0J-175500D01*
G01*
X113698500Y-45048000D01*
G75*
G02*
X113523000Y-45223500I-175500J0D01*
G01*
X113172000Y-45223500D01*
G75*
G02*
X112996500Y-45048000I0J175500D01*
G01*
X112996500Y-43347000D01*
G75*
G02*
X113172000Y-43171500I175500J0D01*
G01*
G37*
G36*
G01*
X114442000Y-43171500D02*
X114793000Y-43171500D01*
G75*
G02*
X114968500Y-43347000I0J-175500D01*
G01*
X114968500Y-45048000D01*
G75*
G02*
X114793000Y-45223500I-175500J0D01*
G01*
X114442000Y-45223500D01*
G75*
G02*
X114266500Y-45048000I0J175500D01*
G01*
X114266500Y-43347000D01*
G75*
G02*
X114442000Y-43171500I175500J0D01*
G01*
G37*
G36*
G01*
X115712000Y-43171500D02*
X116063000Y-43171500D01*
G75*
G02*
X116238500Y-43347000I0J-175500D01*
G01*
X116238500Y-45048000D01*
G75*
G02*
X116063000Y-45223500I-175500J0D01*
G01*
X115712000Y-45223500D01*
G75*
G02*
X115536500Y-45048000I0J175500D01*
G01*
X115536500Y-43347000D01*
G75*
G02*
X115712000Y-43171500I175500J0D01*
G01*
G37*
G36*
G01*
X116982000Y-43171500D02*
X117333000Y-43171500D01*
G75*
G02*
X117508500Y-43347000I0J-175500D01*
G01*
X117508500Y-45048000D01*
G75*
G02*
X117333000Y-45223500I-175500J0D01*
G01*
X116982000Y-45223500D01*
G75*
G02*
X116806500Y-45048000I0J175500D01*
G01*
X116806500Y-43347000D01*
G75*
G02*
X116982000Y-43171500I175500J0D01*
G01*
G37*
G36*
G01*
X118252000Y-43171500D02*
X118603000Y-43171500D01*
G75*
G02*
X118778500Y-43347000I0J-175500D01*
G01*
X118778500Y-45048000D01*
G75*
G02*
X118603000Y-45223500I-175500J0D01*
G01*
X118252000Y-45223500D01*
G75*
G02*
X118076500Y-45048000I0J175500D01*
G01*
X118076500Y-43347000D01*
G75*
G02*
X118252000Y-43171500I175500J0D01*
G01*
G37*
G36*
G01*
X119522000Y-43171500D02*
X119873000Y-43171500D01*
G75*
G02*
X120048500Y-43347000I0J-175500D01*
G01*
X120048500Y-45048000D01*
G75*
G02*
X119873000Y-45223500I-175500J0D01*
G01*
X119522000Y-45223500D01*
G75*
G02*
X119346500Y-45048000I0J175500D01*
G01*
X119346500Y-43347000D01*
G75*
G02*
X119522000Y-43171500I175500J0D01*
G01*
G37*
G36*
G01*
X120792000Y-43171500D02*
X121143000Y-43171500D01*
G75*
G02*
X121318500Y-43347000I0J-175500D01*
G01*
X121318500Y-45048000D01*
G75*
G02*
X121143000Y-45223500I-175500J0D01*
G01*
X120792000Y-45223500D01*
G75*
G02*
X120616500Y-45048000I0J175500D01*
G01*
X120616500Y-43347000D01*
G75*
G02*
X120792000Y-43171500I175500J0D01*
G01*
G37*
G36*
G01*
X120792000Y-48121500D02*
X121143000Y-48121500D01*
G75*
G02*
X121318500Y-48297000I0J-175500D01*
G01*
X121318500Y-49998000D01*
G75*
G02*
X121143000Y-50173500I-175500J0D01*
G01*
X120792000Y-50173500D01*
G75*
G02*
X120616500Y-49998000I0J175500D01*
G01*
X120616500Y-48297000D01*
G75*
G02*
X120792000Y-48121500I175500J0D01*
G01*
G37*
G36*
G01*
X119522000Y-48121500D02*
X119873000Y-48121500D01*
G75*
G02*
X120048500Y-48297000I0J-175500D01*
G01*
X120048500Y-49998000D01*
G75*
G02*
X119873000Y-50173500I-175500J0D01*
G01*
X119522000Y-50173500D01*
G75*
G02*
X119346500Y-49998000I0J175500D01*
G01*
X119346500Y-48297000D01*
G75*
G02*
X119522000Y-48121500I175500J0D01*
G01*
G37*
G36*
G01*
X118252000Y-48121500D02*
X118603000Y-48121500D01*
G75*
G02*
X118778500Y-48297000I0J-175500D01*
G01*
X118778500Y-49998000D01*
G75*
G02*
X118603000Y-50173500I-175500J0D01*
G01*
X118252000Y-50173500D01*
G75*
G02*
X118076500Y-49998000I0J175500D01*
G01*
X118076500Y-48297000D01*
G75*
G02*
X118252000Y-48121500I175500J0D01*
G01*
G37*
G36*
G01*
X116982000Y-48121500D02*
X117333000Y-48121500D01*
G75*
G02*
X117508500Y-48297000I0J-175500D01*
G01*
X117508500Y-49998000D01*
G75*
G02*
X117333000Y-50173500I-175500J0D01*
G01*
X116982000Y-50173500D01*
G75*
G02*
X116806500Y-49998000I0J175500D01*
G01*
X116806500Y-48297000D01*
G75*
G02*
X116982000Y-48121500I175500J0D01*
G01*
G37*
G36*
G01*
X115712000Y-48121500D02*
X116063000Y-48121500D01*
G75*
G02*
X116238500Y-48297000I0J-175500D01*
G01*
X116238500Y-49998000D01*
G75*
G02*
X116063000Y-50173500I-175500J0D01*
G01*
X115712000Y-50173500D01*
G75*
G02*
X115536500Y-49998000I0J175500D01*
G01*
X115536500Y-48297000D01*
G75*
G02*
X115712000Y-48121500I175500J0D01*
G01*
G37*
G36*
G01*
X114442000Y-48121500D02*
X114793000Y-48121500D01*
G75*
G02*
X114968500Y-48297000I0J-175500D01*
G01*
X114968500Y-49998000D01*
G75*
G02*
X114793000Y-50173500I-175500J0D01*
G01*
X114442000Y-50173500D01*
G75*
G02*
X114266500Y-49998000I0J175500D01*
G01*
X114266500Y-48297000D01*
G75*
G02*
X114442000Y-48121500I175500J0D01*
G01*
G37*
G36*
G01*
X113172000Y-48121500D02*
X113523000Y-48121500D01*
G75*
G02*
X113698500Y-48297000I0J-175500D01*
G01*
X113698500Y-49998000D01*
G75*
G02*
X113523000Y-50173500I-175500J0D01*
G01*
X113172000Y-50173500D01*
G75*
G02*
X112996500Y-49998000I0J175500D01*
G01*
X112996500Y-48297000D01*
G75*
G02*
X113172000Y-48121500I175500J0D01*
G01*
G37*
G36*
G01*
X111902000Y-48121500D02*
X112253000Y-48121500D01*
G75*
G02*
X112428500Y-48297000I0J-175500D01*
G01*
X112428500Y-49998000D01*
G75*
G02*
X112253000Y-50173500I-175500J0D01*
G01*
X111902000Y-50173500D01*
G75*
G02*
X111726500Y-49998000I0J175500D01*
G01*
X111726500Y-48297000D01*
G75*
G02*
X111902000Y-48121500I175500J0D01*
G01*
G37*
G36*
G01*
X96889000Y-39585000D02*
X96889000Y-37885000D01*
G75*
G02*
X96940000Y-37834000I51000J0D01*
G01*
X98640000Y-37834000D01*
G75*
G02*
X98691000Y-37885000I0J-51000D01*
G01*
X98691000Y-39585000D01*
G75*
G02*
X98640000Y-39636000I-51000J0D01*
G01*
X96940000Y-39636000D01*
G75*
G02*
X96889000Y-39585000I0J51000D01*
G01*
G37*
G36*
G01*
X96254000Y-58635000D02*
X96254000Y-56935000D01*
G75*
G02*
X96305000Y-56884000I51000J0D01*
G01*
X98005000Y-56884000D01*
G75*
G02*
X98056000Y-56935000I0J-51000D01*
G01*
X98056000Y-58635000D01*
G75*
G02*
X98005000Y-58686000I-51000J0D01*
G01*
X96305000Y-58686000D01*
G75*
G02*
X96254000Y-58635000I0J51000D01*
G01*
G37*
G36*
G01*
X106841328Y-67301000D02*
X105883672Y-67301000D01*
G75*
G02*
X105611500Y-67028828I0J272172D01*
G01*
X105611500Y-66321172D01*
G75*
G02*
X105883672Y-66049000I272172J0D01*
G01*
X106841328Y-66049000D01*
G75*
G02*
X107113500Y-66321172I0J-272172D01*
G01*
X107113500Y-67028828D01*
G75*
G02*
X106841328Y-67301000I-272172J0D01*
G01*
G37*
G36*
G01*
X106841328Y-65251000D02*
X105883672Y-65251000D01*
G75*
G02*
X105611500Y-64978828I0J272172D01*
G01*
X105611500Y-64271172D01*
G75*
G02*
X105883672Y-63999000I272172J0D01*
G01*
X106841328Y-63999000D01*
G75*
G02*
X107113500Y-64271172I0J-272172D01*
G01*
X107113500Y-64978828D01*
G75*
G02*
X106841328Y-65251000I-272172J0D01*
G01*
G37*
G36*
G01*
X105883672Y-61676500D02*
X106841328Y-61676500D01*
G75*
G02*
X107113500Y-61948672I0J-272172D01*
G01*
X107113500Y-62656328D01*
G75*
G02*
X106841328Y-62928500I-272172J0D01*
G01*
X105883672Y-62928500D01*
G75*
G02*
X105611500Y-62656328I0J272172D01*
G01*
X105611500Y-61948672D01*
G75*
G02*
X105883672Y-61676500I272172J0D01*
G01*
G37*
G36*
G01*
X105883672Y-59626500D02*
X106841328Y-59626500D01*
G75*
G02*
X107113500Y-59898672I0J-272172D01*
G01*
X107113500Y-60606328D01*
G75*
G02*
X106841328Y-60878500I-272172J0D01*
G01*
X105883672Y-60878500D01*
G75*
G02*
X105611500Y-60606328I0J272172D01*
G01*
X105611500Y-59898672D01*
G75*
G02*
X105883672Y-59626500I272172J0D01*
G01*
G37*
D19*
G36*
X109202732Y-47605000D02*
G01*
X109203000Y-47606000D01*
X109203000Y-47644000D01*
X109202000Y-47645732D01*
X109201000Y-47646000D01*
X106699000Y-47646000D01*
X106697268Y-47645000D01*
X106697000Y-47644000D01*
X106697000Y-47606000D01*
X106698000Y-47604268D01*
X106699000Y-47604000D01*
X109201000Y-47604000D01*
X109202732Y-47605000D01*
G37*
G36*
X101582732Y-47605000D02*
G01*
X101583000Y-47606000D01*
X101583000Y-47644000D01*
X101582000Y-47645732D01*
X101581000Y-47646000D01*
X99079000Y-47646000D01*
X99077268Y-47645000D01*
X99077000Y-47644000D01*
X99077000Y-47606000D01*
X99078000Y-47604268D01*
X99079000Y-47604000D01*
X101581000Y-47604000D01*
X101582732Y-47605000D01*
G37*
M02*
