G04 #@! TF.GenerationSoftware,KiCad,Pcbnew,(5.1.8)-1*
G04 #@! TF.CreationDate,2020-11-28T18:45:05+03:00*
G04 #@! TF.ProjectId,L293,4c323933-2e6b-4696-9361-645f70636258,rev?*
G04 #@! TF.SameCoordinates,Original*
G04 #@! TF.FileFunction,Legend,Top*
G04 #@! TF.FilePolarity,Positive*
%FSLAX46Y46*%
G04 Gerber Fmt 4.6, Leading zero omitted, Abs format (unit mm)*
G04 Created by KiCad (PCBNEW (5.1.8)-1) date 2020-11-28 18:45:05*
%MOMM*%
%LPD*%
G01*
G04 APERTURE LIST*
%ADD10C,0.150000*%
%ADD11C,0.200000*%
%ADD12C,0.100000*%
%ADD13C,0.120000*%
G04 APERTURE END LIST*
D10*
X97409047Y-36964880D02*
X97075714Y-36488690D01*
X96837619Y-36964880D02*
X96837619Y-35964880D01*
X97218571Y-35964880D01*
X97313809Y-36012500D01*
X97361428Y-36060119D01*
X97409047Y-36155357D01*
X97409047Y-36298214D01*
X97361428Y-36393452D01*
X97313809Y-36441071D01*
X97218571Y-36488690D01*
X96837619Y-36488690D01*
X97790000Y-36917261D02*
X97885238Y-36964880D01*
X98075714Y-36964880D01*
X98170952Y-36917261D01*
X98218571Y-36822023D01*
X98218571Y-36774404D01*
X98170952Y-36679166D01*
X98075714Y-36631547D01*
X97932857Y-36631547D01*
X97837619Y-36583928D01*
X97790000Y-36488690D01*
X97790000Y-36441071D01*
X97837619Y-36345833D01*
X97932857Y-36298214D01*
X98075714Y-36298214D01*
X98170952Y-36345833D01*
X98504285Y-36298214D02*
X98885238Y-36298214D01*
X98647142Y-35964880D02*
X98647142Y-36822023D01*
X98694761Y-36917261D01*
X98790000Y-36964880D01*
X98885238Y-36964880D01*
D11*
X96488333Y-53688571D02*
X96631190Y-53736190D01*
X96678809Y-53783809D01*
X96726428Y-53879047D01*
X96726428Y-54021904D01*
X96678809Y-54117142D01*
X96631190Y-54164761D01*
X96535952Y-54212380D01*
X96155000Y-54212380D01*
X96155000Y-53212380D01*
X96488333Y-53212380D01*
X96583571Y-53260000D01*
X96631190Y-53307619D01*
X96678809Y-53402857D01*
X96678809Y-53498095D01*
X96631190Y-53593333D01*
X96583571Y-53640952D01*
X96488333Y-53688571D01*
X96155000Y-53688571D01*
X97583571Y-54212380D02*
X97583571Y-53688571D01*
X97535952Y-53593333D01*
X97440714Y-53545714D01*
X97250238Y-53545714D01*
X97155000Y-53593333D01*
X97583571Y-54164761D02*
X97488333Y-54212380D01*
X97250238Y-54212380D01*
X97155000Y-54164761D01*
X97107380Y-54069523D01*
X97107380Y-53974285D01*
X97155000Y-53879047D01*
X97250238Y-53831428D01*
X97488333Y-53831428D01*
X97583571Y-53783809D01*
X97916904Y-53545714D02*
X98297857Y-53545714D01*
X98059761Y-53212380D02*
X98059761Y-54069523D01*
X98107380Y-54164761D01*
X98202619Y-54212380D01*
X98297857Y-54212380D01*
X96607380Y-55817142D02*
X96559761Y-55864761D01*
X96416904Y-55912380D01*
X96321666Y-55912380D01*
X96178809Y-55864761D01*
X96083571Y-55769523D01*
X96035952Y-55674285D01*
X95988333Y-55483809D01*
X95988333Y-55340952D01*
X96035952Y-55150476D01*
X96083571Y-55055238D01*
X96178809Y-54960000D01*
X96321666Y-54912380D01*
X96416904Y-54912380D01*
X96559761Y-54960000D01*
X96607380Y-55007619D01*
X97035952Y-55912380D02*
X97035952Y-54912380D01*
X97464523Y-55912380D02*
X97464523Y-55388571D01*
X97416904Y-55293333D01*
X97321666Y-55245714D01*
X97178809Y-55245714D01*
X97083571Y-55293333D01*
X97035952Y-55340952D01*
X97940714Y-55912380D02*
X97940714Y-54912380D01*
X98035952Y-55531428D02*
X98321666Y-55912380D01*
X98321666Y-55245714D02*
X97940714Y-55626666D01*
D12*
G36*
X108267500Y-65405000D02*
G01*
X110172500Y-65405000D01*
X110807500Y-64135000D01*
X111760000Y-64135000D01*
X111760000Y-67945000D01*
X106680000Y-67945000D01*
X106680000Y-64135000D01*
X107632500Y-64135000D01*
X108267500Y-65405000D01*
G37*
X108267500Y-65405000D02*
X110172500Y-65405000D01*
X110807500Y-64135000D01*
X111760000Y-64135000D01*
X111760000Y-67945000D01*
X106680000Y-67945000D01*
X106680000Y-64135000D01*
X107632500Y-64135000D01*
X108267500Y-65405000D01*
G36*
X111760000Y-64135000D02*
G01*
X110807500Y-64135000D01*
X110172500Y-62865000D01*
X108267500Y-62865000D01*
X107632500Y-64135000D01*
X106680000Y-64135000D01*
X106680000Y-60325000D01*
X111760000Y-60325000D01*
X111760000Y-64135000D01*
G37*
X111760000Y-64135000D02*
X110807500Y-64135000D01*
X110172500Y-62865000D01*
X108267500Y-62865000D01*
X107632500Y-64135000D01*
X106680000Y-64135000D01*
X106680000Y-60325000D01*
X111760000Y-60325000D01*
X111760000Y-64135000D01*
D10*
X117411547Y-66111428D02*
X118173452Y-66111428D01*
X117792500Y-66492380D02*
X117792500Y-65730476D01*
X112529880Y-45545000D02*
X112529880Y-46021190D01*
X111529880Y-46021190D01*
X112529880Y-45211666D02*
X111529880Y-45211666D01*
X111529880Y-44973571D01*
X111577500Y-44830714D01*
X111672738Y-44735476D01*
X111767976Y-44687857D01*
X111958452Y-44640238D01*
X112101309Y-44640238D01*
X112291785Y-44687857D01*
X112387023Y-44735476D01*
X112482261Y-44830714D01*
X112529880Y-44973571D01*
X112529880Y-45211666D01*
X111529880Y-44021190D02*
X111529880Y-43830714D01*
X111577500Y-43735476D01*
X111672738Y-43640238D01*
X111863214Y-43592619D01*
X112196547Y-43592619D01*
X112387023Y-43640238D01*
X112482261Y-43735476D01*
X112529880Y-43830714D01*
X112529880Y-44021190D01*
X112482261Y-44116428D01*
X112387023Y-44211666D01*
X112196547Y-44259285D01*
X111863214Y-44259285D01*
X111672738Y-44211666D01*
X111577500Y-44116428D01*
X111529880Y-44021190D01*
X111863214Y-41973571D02*
X112529880Y-41973571D01*
X111482261Y-42211666D02*
X112196547Y-42449761D01*
X112196547Y-41830714D01*
X112529880Y-41402142D02*
X112529880Y-41211666D01*
X112482261Y-41116428D01*
X112434642Y-41068809D01*
X112291785Y-40973571D01*
X112101309Y-40925952D01*
X111720357Y-40925952D01*
X111625119Y-40973571D01*
X111577500Y-41021190D01*
X111529880Y-41116428D01*
X111529880Y-41306904D01*
X111577500Y-41402142D01*
X111625119Y-41449761D01*
X111720357Y-41497380D01*
X111958452Y-41497380D01*
X112053690Y-41449761D01*
X112101309Y-41402142D01*
X112148928Y-41306904D01*
X112148928Y-41116428D01*
X112101309Y-41021190D01*
X112053690Y-40973571D01*
X111958452Y-40925952D01*
X111863214Y-40068809D02*
X112529880Y-40068809D01*
X111482261Y-40306904D02*
X112196547Y-40545000D01*
X112196547Y-39925952D01*
X111529880Y-39354523D02*
X111529880Y-39259285D01*
X111577500Y-39164047D01*
X111625119Y-39116428D01*
X111720357Y-39068809D01*
X111910833Y-39021190D01*
X112148928Y-39021190D01*
X112339404Y-39068809D01*
X112434642Y-39116428D01*
X112482261Y-39164047D01*
X112529880Y-39259285D01*
X112529880Y-39354523D01*
X112482261Y-39449761D01*
X112434642Y-39497380D01*
X112339404Y-39545000D01*
X112148928Y-39592619D01*
X111910833Y-39592619D01*
X111720357Y-39545000D01*
X111625119Y-39497380D01*
X111577500Y-39449761D01*
X111529880Y-39354523D01*
X104592380Y-43664047D02*
X104592380Y-44140238D01*
X103592380Y-44140238D01*
X103687619Y-43378333D02*
X103640000Y-43330714D01*
X103592380Y-43235476D01*
X103592380Y-42997380D01*
X103640000Y-42902142D01*
X103687619Y-42854523D01*
X103782857Y-42806904D01*
X103878095Y-42806904D01*
X104020952Y-42854523D01*
X104592380Y-43425952D01*
X104592380Y-42806904D01*
X104592380Y-42330714D02*
X104592380Y-42140238D01*
X104544761Y-42045000D01*
X104497142Y-41997380D01*
X104354285Y-41902142D01*
X104163809Y-41854523D01*
X103782857Y-41854523D01*
X103687619Y-41902142D01*
X103640000Y-41949761D01*
X103592380Y-42045000D01*
X103592380Y-42235476D01*
X103640000Y-42330714D01*
X103687619Y-42378333D01*
X103782857Y-42425952D01*
X104020952Y-42425952D01*
X104116190Y-42378333D01*
X104163809Y-42330714D01*
X104211428Y-42235476D01*
X104211428Y-42045000D01*
X104163809Y-41949761D01*
X104116190Y-41902142D01*
X104020952Y-41854523D01*
X103592380Y-41521190D02*
X103592380Y-40902142D01*
X103973333Y-41235476D01*
X103973333Y-41092619D01*
X104020952Y-40997380D01*
X104068571Y-40949761D01*
X104163809Y-40902142D01*
X104401904Y-40902142D01*
X104497142Y-40949761D01*
X104544761Y-40997380D01*
X104592380Y-41092619D01*
X104592380Y-41378333D01*
X104544761Y-41473571D01*
X104497142Y-41521190D01*
X114459047Y-58666071D02*
X114601904Y-58713690D01*
X114649523Y-58761309D01*
X114697142Y-58856547D01*
X114697142Y-58999404D01*
X114649523Y-59094642D01*
X114601904Y-59142261D01*
X114506666Y-59189880D01*
X114125714Y-59189880D01*
X114125714Y-58189880D01*
X114459047Y-58189880D01*
X114554285Y-58237500D01*
X114601904Y-58285119D01*
X114649523Y-58380357D01*
X114649523Y-58475595D01*
X114601904Y-58570833D01*
X114554285Y-58618452D01*
X114459047Y-58666071D01*
X114125714Y-58666071D01*
X115554285Y-59189880D02*
X115554285Y-58666071D01*
X115506666Y-58570833D01*
X115411428Y-58523214D01*
X115220952Y-58523214D01*
X115125714Y-58570833D01*
X115554285Y-59142261D02*
X115459047Y-59189880D01*
X115220952Y-59189880D01*
X115125714Y-59142261D01*
X115078095Y-59047023D01*
X115078095Y-58951785D01*
X115125714Y-58856547D01*
X115220952Y-58808928D01*
X115459047Y-58808928D01*
X115554285Y-58761309D01*
X115887619Y-58523214D02*
X116268571Y-58523214D01*
X116030476Y-58189880D02*
X116030476Y-59047023D01*
X116078095Y-59142261D01*
X116173333Y-59189880D01*
X116268571Y-59189880D01*
X117363809Y-59189880D02*
X117363809Y-58189880D01*
X117744761Y-58189880D01*
X117840000Y-58237500D01*
X117887619Y-58285119D01*
X117935238Y-58380357D01*
X117935238Y-58523214D01*
X117887619Y-58618452D01*
X117840000Y-58666071D01*
X117744761Y-58713690D01*
X117363809Y-58713690D01*
X118268571Y-58523214D02*
X118459047Y-59189880D01*
X118649523Y-58713690D01*
X118840000Y-59189880D01*
X119030476Y-58523214D01*
X119411428Y-59189880D02*
X119411428Y-58523214D01*
X119411428Y-58713690D02*
X119459047Y-58618452D01*
X119506666Y-58570833D01*
X119601904Y-58523214D01*
X119697142Y-58523214D01*
D12*
G36*
X113992500Y-44825000D02*
G01*
X114212500Y-45145000D01*
X114402500Y-45325000D01*
X114462500Y-45365000D01*
X114892500Y-45495000D01*
X114932500Y-45475000D01*
X114932500Y-45385000D01*
X114742500Y-44955000D01*
X114442500Y-44305000D01*
X115252500Y-45295000D01*
X115452500Y-45515000D01*
X115572500Y-45615000D01*
X115652500Y-45645000D01*
X115832500Y-45655000D01*
X116052500Y-45715000D01*
X116012500Y-45595000D01*
X115502500Y-44705000D01*
X116272500Y-45545000D01*
X116432500Y-45735000D01*
X116522500Y-45815000D01*
X116632500Y-45865000D01*
X117072500Y-45915000D01*
X117532500Y-45935000D01*
X118012500Y-45335000D01*
X118162500Y-45185000D01*
X118152500Y-45265000D01*
X118012500Y-45595000D01*
X117932500Y-45765000D01*
X117922500Y-45845000D01*
X118002500Y-45855000D01*
X118402500Y-45835000D01*
X118752500Y-45725000D01*
X119422500Y-45155000D01*
X119302500Y-45445000D01*
X118872500Y-46095000D01*
X118542500Y-46155000D01*
X117932500Y-46205000D01*
X117742500Y-46275000D01*
X117962500Y-46335000D01*
X119292500Y-46555000D01*
X119612500Y-46625000D01*
X119742500Y-46725000D01*
X119762500Y-46895000D01*
X119742500Y-47055000D01*
X119682500Y-47135000D01*
X119632500Y-47155000D01*
X119592500Y-47235000D01*
X119592500Y-47335000D01*
X119532500Y-47385000D01*
X119342500Y-47435000D01*
X118722500Y-47545000D01*
X118432500Y-47625000D01*
X118302500Y-47745000D01*
X118272500Y-47805000D01*
X118242500Y-47955000D01*
X118252500Y-48125000D01*
X117922500Y-51895000D01*
X117972500Y-48505000D01*
X117962500Y-48225000D01*
X117952500Y-48035000D01*
X117942500Y-47995000D01*
X117902500Y-47955000D01*
X117852500Y-48075000D01*
X117822500Y-48405000D01*
X117792500Y-48895000D01*
X117762500Y-50275000D01*
X117742500Y-50805000D01*
X117702500Y-51135000D01*
X117672500Y-50955000D01*
X117642500Y-50275000D01*
X117642500Y-49395000D01*
X117622500Y-48175000D01*
X117462500Y-48215000D01*
X117352500Y-48215000D01*
X117282500Y-48165000D01*
X117212500Y-48035000D01*
X116972500Y-47405000D01*
X117282500Y-47005000D01*
X117242500Y-47235000D01*
X117232500Y-47395000D01*
X117232500Y-47465000D01*
X117302500Y-47595000D01*
X117452500Y-47805000D01*
X118362500Y-47415000D01*
X118492500Y-47345000D01*
X118542500Y-47285000D01*
X118432500Y-47245000D01*
X118642500Y-47205000D01*
X119162500Y-47195000D01*
X119282500Y-47175000D01*
X119372500Y-47125000D01*
X119402500Y-47065000D01*
X119372500Y-46945000D01*
X119212500Y-46845000D01*
X118942500Y-46735000D01*
X118542500Y-46655000D01*
X118302500Y-46645000D01*
X118162500Y-46665000D01*
X118112500Y-46705000D01*
X118042500Y-46805000D01*
X117992500Y-46815000D01*
X117932500Y-46815000D01*
X117812500Y-46765000D01*
X117662500Y-46665000D01*
X117622500Y-46605000D01*
X117612500Y-46565000D01*
X117552500Y-46535000D01*
X117472500Y-46505000D01*
X116982500Y-46485000D01*
X116532500Y-46495000D01*
X116392500Y-46515000D01*
X116272500Y-46545000D01*
X116292500Y-46585000D01*
X116502500Y-46625000D01*
X116802500Y-46645000D01*
X117312500Y-46655000D01*
X116892500Y-46805000D01*
X116892500Y-46835000D01*
X117092500Y-46855000D01*
X117102500Y-46885000D01*
X116862500Y-47005000D01*
X116802500Y-47075000D01*
X116672500Y-47265000D01*
X116472500Y-47695000D01*
X116042500Y-48745000D01*
X115822500Y-49395000D01*
X115772500Y-49565000D01*
X115742500Y-49705000D01*
X115792500Y-49785000D01*
X115842500Y-49755000D01*
X115882500Y-49685000D01*
X115972500Y-49465000D01*
X116152500Y-48955000D01*
X116462500Y-48125000D01*
X116422500Y-48385000D01*
X116172500Y-49385000D01*
X116112500Y-49595000D01*
X116052500Y-49935000D01*
X116032500Y-50055000D01*
X116032500Y-50165000D01*
X116082500Y-50225000D01*
X116142500Y-50145000D01*
X116182500Y-49995000D01*
X116282500Y-49625000D01*
X116442500Y-48905000D01*
X116472500Y-48905000D01*
X116322500Y-50065000D01*
X116252500Y-50515000D01*
X116642500Y-51085000D01*
X116802500Y-51385000D01*
X116192500Y-50675000D01*
X115492500Y-49785000D01*
X113852500Y-49855000D01*
X115252500Y-49555000D01*
X115462500Y-49485000D01*
X115542500Y-49265000D01*
X115832500Y-48385000D01*
X116082500Y-47535000D01*
X116242500Y-46865000D01*
X115512500Y-46295000D01*
X115872500Y-46255000D01*
X116322500Y-46275000D01*
X116802500Y-46285000D01*
X114882500Y-45865000D01*
X114082500Y-45675000D01*
X113652500Y-44705000D01*
X113282500Y-43805000D01*
X113992500Y-44825000D01*
G37*
X113992500Y-44825000D02*
X114212500Y-45145000D01*
X114402500Y-45325000D01*
X114462500Y-45365000D01*
X114892500Y-45495000D01*
X114932500Y-45475000D01*
X114932500Y-45385000D01*
X114742500Y-44955000D01*
X114442500Y-44305000D01*
X115252500Y-45295000D01*
X115452500Y-45515000D01*
X115572500Y-45615000D01*
X115652500Y-45645000D01*
X115832500Y-45655000D01*
X116052500Y-45715000D01*
X116012500Y-45595000D01*
X115502500Y-44705000D01*
X116272500Y-45545000D01*
X116432500Y-45735000D01*
X116522500Y-45815000D01*
X116632500Y-45865000D01*
X117072500Y-45915000D01*
X117532500Y-45935000D01*
X118012500Y-45335000D01*
X118162500Y-45185000D01*
X118152500Y-45265000D01*
X118012500Y-45595000D01*
X117932500Y-45765000D01*
X117922500Y-45845000D01*
X118002500Y-45855000D01*
X118402500Y-45835000D01*
X118752500Y-45725000D01*
X119422500Y-45155000D01*
X119302500Y-45445000D01*
X118872500Y-46095000D01*
X118542500Y-46155000D01*
X117932500Y-46205000D01*
X117742500Y-46275000D01*
X117962500Y-46335000D01*
X119292500Y-46555000D01*
X119612500Y-46625000D01*
X119742500Y-46725000D01*
X119762500Y-46895000D01*
X119742500Y-47055000D01*
X119682500Y-47135000D01*
X119632500Y-47155000D01*
X119592500Y-47235000D01*
X119592500Y-47335000D01*
X119532500Y-47385000D01*
X119342500Y-47435000D01*
X118722500Y-47545000D01*
X118432500Y-47625000D01*
X118302500Y-47745000D01*
X118272500Y-47805000D01*
X118242500Y-47955000D01*
X118252500Y-48125000D01*
X117922500Y-51895000D01*
X117972500Y-48505000D01*
X117962500Y-48225000D01*
X117952500Y-48035000D01*
X117942500Y-47995000D01*
X117902500Y-47955000D01*
X117852500Y-48075000D01*
X117822500Y-48405000D01*
X117792500Y-48895000D01*
X117762500Y-50275000D01*
X117742500Y-50805000D01*
X117702500Y-51135000D01*
X117672500Y-50955000D01*
X117642500Y-50275000D01*
X117642500Y-49395000D01*
X117622500Y-48175000D01*
X117462500Y-48215000D01*
X117352500Y-48215000D01*
X117282500Y-48165000D01*
X117212500Y-48035000D01*
X116972500Y-47405000D01*
X117282500Y-47005000D01*
X117242500Y-47235000D01*
X117232500Y-47395000D01*
X117232500Y-47465000D01*
X117302500Y-47595000D01*
X117452500Y-47805000D01*
X118362500Y-47415000D01*
X118492500Y-47345000D01*
X118542500Y-47285000D01*
X118432500Y-47245000D01*
X118642500Y-47205000D01*
X119162500Y-47195000D01*
X119282500Y-47175000D01*
X119372500Y-47125000D01*
X119402500Y-47065000D01*
X119372500Y-46945000D01*
X119212500Y-46845000D01*
X118942500Y-46735000D01*
X118542500Y-46655000D01*
X118302500Y-46645000D01*
X118162500Y-46665000D01*
X118112500Y-46705000D01*
X118042500Y-46805000D01*
X117992500Y-46815000D01*
X117932500Y-46815000D01*
X117812500Y-46765000D01*
X117662500Y-46665000D01*
X117622500Y-46605000D01*
X117612500Y-46565000D01*
X117552500Y-46535000D01*
X117472500Y-46505000D01*
X116982500Y-46485000D01*
X116532500Y-46495000D01*
X116392500Y-46515000D01*
X116272500Y-46545000D01*
X116292500Y-46585000D01*
X116502500Y-46625000D01*
X116802500Y-46645000D01*
X117312500Y-46655000D01*
X116892500Y-46805000D01*
X116892500Y-46835000D01*
X117092500Y-46855000D01*
X117102500Y-46885000D01*
X116862500Y-47005000D01*
X116802500Y-47075000D01*
X116672500Y-47265000D01*
X116472500Y-47695000D01*
X116042500Y-48745000D01*
X115822500Y-49395000D01*
X115772500Y-49565000D01*
X115742500Y-49705000D01*
X115792500Y-49785000D01*
X115842500Y-49755000D01*
X115882500Y-49685000D01*
X115972500Y-49465000D01*
X116152500Y-48955000D01*
X116462500Y-48125000D01*
X116422500Y-48385000D01*
X116172500Y-49385000D01*
X116112500Y-49595000D01*
X116052500Y-49935000D01*
X116032500Y-50055000D01*
X116032500Y-50165000D01*
X116082500Y-50225000D01*
X116142500Y-50145000D01*
X116182500Y-49995000D01*
X116282500Y-49625000D01*
X116442500Y-48905000D01*
X116472500Y-48905000D01*
X116322500Y-50065000D01*
X116252500Y-50515000D01*
X116642500Y-51085000D01*
X116802500Y-51385000D01*
X116192500Y-50675000D01*
X115492500Y-49785000D01*
X113852500Y-49855000D01*
X115252500Y-49555000D01*
X115462500Y-49485000D01*
X115542500Y-49265000D01*
X115832500Y-48385000D01*
X116082500Y-47535000D01*
X116242500Y-46865000D01*
X115512500Y-46295000D01*
X115872500Y-46255000D01*
X116322500Y-46275000D01*
X116802500Y-46285000D01*
X114882500Y-45865000D01*
X114082500Y-45675000D01*
X113652500Y-44705000D01*
X113282500Y-43805000D01*
X113992500Y-44825000D01*
D10*
X121110476Y-35694880D02*
X121110476Y-34694880D01*
X121443809Y-35409166D01*
X121777142Y-34694880D01*
X121777142Y-35694880D01*
X122205714Y-34790119D02*
X122253333Y-34742500D01*
X122348571Y-34694880D01*
X122586666Y-34694880D01*
X122681904Y-34742500D01*
X122729523Y-34790119D01*
X122777142Y-34885357D01*
X122777142Y-34980595D01*
X122729523Y-35123452D01*
X122158095Y-35694880D01*
X122777142Y-35694880D01*
X95710476Y-35377380D02*
X95710476Y-34377380D01*
X96043809Y-35091666D01*
X96377142Y-34377380D01*
X96377142Y-35377380D01*
X97377142Y-35377380D02*
X96805714Y-35377380D01*
X97091428Y-35377380D02*
X97091428Y-34377380D01*
X96996190Y-34520238D01*
X96900952Y-34615476D01*
X96805714Y-34663095D01*
X108577142Y-58872500D02*
X108481904Y-58824880D01*
X108339047Y-58824880D01*
X108196190Y-58872500D01*
X108100952Y-58967738D01*
X108053333Y-59062976D01*
X108005714Y-59253452D01*
X108005714Y-59396309D01*
X108053333Y-59586785D01*
X108100952Y-59682023D01*
X108196190Y-59777261D01*
X108339047Y-59824880D01*
X108434285Y-59824880D01*
X108577142Y-59777261D01*
X108624761Y-59729642D01*
X108624761Y-59396309D01*
X108434285Y-59396309D01*
X109053333Y-59158214D02*
X109053333Y-59824880D01*
X109053333Y-59253452D02*
X109100952Y-59205833D01*
X109196190Y-59158214D01*
X109339047Y-59158214D01*
X109434285Y-59205833D01*
X109481904Y-59301071D01*
X109481904Y-59824880D01*
X110386666Y-59824880D02*
X110386666Y-58824880D01*
X110386666Y-59777261D02*
X110291428Y-59824880D01*
X110100952Y-59824880D01*
X110005714Y-59777261D01*
X109958095Y-59729642D01*
X109910476Y-59634404D01*
X109910476Y-59348690D01*
X109958095Y-59253452D01*
X110005714Y-59205833D01*
X110100952Y-59158214D01*
X110291428Y-59158214D01*
X110386666Y-59205833D01*
X117760833Y-67556071D02*
X117903690Y-67603690D01*
X117951309Y-67651309D01*
X117998928Y-67746547D01*
X117998928Y-67889404D01*
X117951309Y-67984642D01*
X117903690Y-68032261D01*
X117808452Y-68079880D01*
X117427500Y-68079880D01*
X117427500Y-67079880D01*
X117760833Y-67079880D01*
X117856071Y-67127500D01*
X117903690Y-67175119D01*
X117951309Y-67270357D01*
X117951309Y-67365595D01*
X117903690Y-67460833D01*
X117856071Y-67508452D01*
X117760833Y-67556071D01*
X117427500Y-67556071D01*
X118856071Y-68079880D02*
X118856071Y-67556071D01*
X118808452Y-67460833D01*
X118713214Y-67413214D01*
X118522738Y-67413214D01*
X118427500Y-67460833D01*
X118856071Y-68032261D02*
X118760833Y-68079880D01*
X118522738Y-68079880D01*
X118427500Y-68032261D01*
X118379880Y-67937023D01*
X118379880Y-67841785D01*
X118427500Y-67746547D01*
X118522738Y-67698928D01*
X118760833Y-67698928D01*
X118856071Y-67651309D01*
X119189404Y-67413214D02*
X119570357Y-67413214D01*
X119332261Y-67079880D02*
X119332261Y-67937023D01*
X119379880Y-68032261D01*
X119475119Y-68079880D01*
X119570357Y-68079880D01*
X96654880Y-51537738D02*
X95654880Y-51537738D01*
X96131071Y-51537738D02*
X96131071Y-50966309D01*
X96654880Y-50966309D02*
X95654880Y-50966309D01*
X96654880Y-50061547D02*
X96131071Y-50061547D01*
X96035833Y-50109166D01*
X95988214Y-50204404D01*
X95988214Y-50394880D01*
X96035833Y-50490119D01*
X96607261Y-50061547D02*
X96654880Y-50156785D01*
X96654880Y-50394880D01*
X96607261Y-50490119D01*
X96512023Y-50537738D01*
X96416785Y-50537738D01*
X96321547Y-50490119D01*
X96273928Y-50394880D01*
X96273928Y-50156785D01*
X96226309Y-50061547D01*
X96654880Y-49585357D02*
X95988214Y-49585357D01*
X96178690Y-49585357D02*
X96083452Y-49537738D01*
X96035833Y-49490119D01*
X95988214Y-49394880D01*
X95988214Y-49299642D01*
X96654880Y-48537738D02*
X95654880Y-48537738D01*
X96607261Y-48537738D02*
X96654880Y-48632976D01*
X96654880Y-48823452D01*
X96607261Y-48918690D01*
X96559642Y-48966309D01*
X96464404Y-49013928D01*
X96178690Y-49013928D01*
X96083452Y-48966309D01*
X96035833Y-48918690D01*
X95988214Y-48823452D01*
X95988214Y-48632976D01*
X96035833Y-48537738D01*
X96654880Y-48061547D02*
X95654880Y-48061547D01*
X95654880Y-47823452D01*
X95702500Y-47680595D01*
X95797738Y-47585357D01*
X95892976Y-47537738D01*
X96083452Y-47490119D01*
X96226309Y-47490119D01*
X96416785Y-47537738D01*
X96512023Y-47585357D01*
X96607261Y-47680595D01*
X96654880Y-47823452D01*
X96654880Y-48061547D01*
X95988214Y-46632976D02*
X96654880Y-46632976D01*
X95988214Y-47061547D02*
X96512023Y-47061547D01*
X96607261Y-47013928D01*
X96654880Y-46918690D01*
X96654880Y-46775833D01*
X96607261Y-46680595D01*
X96559642Y-46632976D01*
X96654880Y-46156785D02*
X95988214Y-46156785D01*
X95654880Y-46156785D02*
X95702500Y-46204404D01*
X95750119Y-46156785D01*
X95702500Y-46109166D01*
X95654880Y-46156785D01*
X95750119Y-46156785D01*
X95988214Y-45680595D02*
X96654880Y-45680595D01*
X96083452Y-45680595D02*
X96035833Y-45632976D01*
X95988214Y-45537738D01*
X95988214Y-45394880D01*
X96035833Y-45299642D01*
X96131071Y-45252023D01*
X96654880Y-45252023D01*
X96654880Y-44632976D02*
X96607261Y-44728214D01*
X96559642Y-44775833D01*
X96464404Y-44823452D01*
X96178690Y-44823452D01*
X96083452Y-44775833D01*
X96035833Y-44728214D01*
X95988214Y-44632976D01*
X95988214Y-44490119D01*
X96035833Y-44394880D01*
X96083452Y-44347261D01*
X96178690Y-44299642D01*
X96464404Y-44299642D01*
X96559642Y-44347261D01*
X96607261Y-44394880D01*
X96654880Y-44490119D01*
X96654880Y-44632976D01*
X89527142Y-59190000D02*
X89431904Y-59142380D01*
X89289047Y-59142380D01*
X89146190Y-59190000D01*
X89050952Y-59285238D01*
X89003333Y-59380476D01*
X88955714Y-59570952D01*
X88955714Y-59713809D01*
X89003333Y-59904285D01*
X89050952Y-59999523D01*
X89146190Y-60094761D01*
X89289047Y-60142380D01*
X89384285Y-60142380D01*
X89527142Y-60094761D01*
X89574761Y-60047142D01*
X89574761Y-59713809D01*
X89384285Y-59713809D01*
X90003333Y-59475714D02*
X90003333Y-60142380D01*
X90003333Y-59570952D02*
X90050952Y-59523333D01*
X90146190Y-59475714D01*
X90289047Y-59475714D01*
X90384285Y-59523333D01*
X90431904Y-59618571D01*
X90431904Y-60142380D01*
X91336666Y-60142380D02*
X91336666Y-59142380D01*
X91336666Y-60094761D02*
X91241428Y-60142380D01*
X91050952Y-60142380D01*
X90955714Y-60094761D01*
X90908095Y-60047142D01*
X90860476Y-59951904D01*
X90860476Y-59666190D01*
X90908095Y-59570952D01*
X90955714Y-59523333D01*
X91050952Y-59475714D01*
X91241428Y-59475714D01*
X91336666Y-59523333D01*
X89455714Y-57316666D02*
X89931904Y-57316666D01*
X89360476Y-57602380D02*
X89693809Y-56602380D01*
X90027142Y-57602380D01*
X90836666Y-56602380D02*
X90360476Y-56602380D01*
X90312857Y-57078571D01*
X90360476Y-57030952D01*
X90455714Y-56983333D01*
X90693809Y-56983333D01*
X90789047Y-57030952D01*
X90836666Y-57078571D01*
X90884285Y-57173809D01*
X90884285Y-57411904D01*
X90836666Y-57507142D01*
X90789047Y-57554761D01*
X90693809Y-57602380D01*
X90455714Y-57602380D01*
X90360476Y-57554761D01*
X90312857Y-57507142D01*
X89455714Y-54776666D02*
X89931904Y-54776666D01*
X89360476Y-55062380D02*
X89693809Y-54062380D01*
X90027142Y-55062380D01*
X90789047Y-54395714D02*
X90789047Y-55062380D01*
X90550952Y-54014761D02*
X90312857Y-54729047D01*
X90931904Y-54729047D01*
X89455714Y-52236666D02*
X89931904Y-52236666D01*
X89360476Y-52522380D02*
X89693809Y-51522380D01*
X90027142Y-52522380D01*
X90265238Y-51522380D02*
X90884285Y-51522380D01*
X90550952Y-51903333D01*
X90693809Y-51903333D01*
X90789047Y-51950952D01*
X90836666Y-51998571D01*
X90884285Y-52093809D01*
X90884285Y-52331904D01*
X90836666Y-52427142D01*
X90789047Y-52474761D01*
X90693809Y-52522380D01*
X90408095Y-52522380D01*
X90312857Y-52474761D01*
X90265238Y-52427142D01*
X89455714Y-49696666D02*
X89931904Y-49696666D01*
X89360476Y-49982380D02*
X89693809Y-48982380D01*
X90027142Y-49982380D01*
X90312857Y-49077619D02*
X90360476Y-49030000D01*
X90455714Y-48982380D01*
X90693809Y-48982380D01*
X90789047Y-49030000D01*
X90836666Y-49077619D01*
X90884285Y-49172857D01*
X90884285Y-49268095D01*
X90836666Y-49410952D01*
X90265238Y-49982380D01*
X90884285Y-49982380D01*
X89455714Y-47156666D02*
X89931904Y-47156666D01*
X89360476Y-47442380D02*
X89693809Y-46442380D01*
X90027142Y-47442380D01*
X90884285Y-47442380D02*
X90312857Y-47442380D01*
X90598571Y-47442380D02*
X90598571Y-46442380D01*
X90503333Y-46585238D01*
X90408095Y-46680476D01*
X90312857Y-46728095D01*
X89455714Y-44616666D02*
X89931904Y-44616666D01*
X89360476Y-44902380D02*
X89693809Y-43902380D01*
X90027142Y-44902380D01*
X90550952Y-43902380D02*
X90646190Y-43902380D01*
X90741428Y-43950000D01*
X90789047Y-43997619D01*
X90836666Y-44092857D01*
X90884285Y-44283333D01*
X90884285Y-44521428D01*
X90836666Y-44711904D01*
X90789047Y-44807142D01*
X90741428Y-44854761D01*
X90646190Y-44902380D01*
X90550952Y-44902380D01*
X90455714Y-44854761D01*
X90408095Y-44807142D01*
X90360476Y-44711904D01*
X90312857Y-44521428D01*
X90312857Y-44283333D01*
X90360476Y-44092857D01*
X90408095Y-43997619D01*
X90455714Y-43950000D01*
X90550952Y-43902380D01*
X88979523Y-36282380D02*
X89312857Y-37282380D01*
X89646190Y-36282380D01*
X90408095Y-37234761D02*
X90312857Y-37282380D01*
X90122380Y-37282380D01*
X90027142Y-37234761D01*
X89979523Y-37187142D01*
X89931904Y-37091904D01*
X89931904Y-36806190D01*
X89979523Y-36710952D01*
X90027142Y-36663333D01*
X90122380Y-36615714D01*
X90312857Y-36615714D01*
X90408095Y-36663333D01*
X91265238Y-37234761D02*
X91170000Y-37282380D01*
X90979523Y-37282380D01*
X90884285Y-37234761D01*
X90836666Y-37187142D01*
X90789047Y-37091904D01*
X90789047Y-36806190D01*
X90836666Y-36710952D01*
X90884285Y-36663333D01*
X90979523Y-36615714D01*
X91170000Y-36615714D01*
X91265238Y-36663333D01*
X89979523Y-42362380D02*
X89408095Y-42362380D01*
X89693809Y-42362380D02*
X89693809Y-41362380D01*
X89598571Y-41505238D01*
X89503333Y-41600476D01*
X89408095Y-41648095D01*
X90312857Y-41362380D02*
X90931904Y-41362380D01*
X90598571Y-41743333D01*
X90741428Y-41743333D01*
X90836666Y-41790952D01*
X90884285Y-41838571D01*
X90931904Y-41933809D01*
X90931904Y-42171904D01*
X90884285Y-42267142D01*
X90836666Y-42314761D01*
X90741428Y-42362380D01*
X90455714Y-42362380D01*
X90360476Y-42314761D01*
X90312857Y-42267142D01*
X89979523Y-39822380D02*
X89408095Y-39822380D01*
X89693809Y-39822380D02*
X89693809Y-38822380D01*
X89598571Y-38965238D01*
X89503333Y-39060476D01*
X89408095Y-39108095D01*
X90360476Y-38917619D02*
X90408095Y-38870000D01*
X90503333Y-38822380D01*
X90741428Y-38822380D01*
X90836666Y-38870000D01*
X90884285Y-38917619D01*
X90931904Y-39012857D01*
X90931904Y-39108095D01*
X90884285Y-39250952D01*
X90312857Y-39822380D01*
X90931904Y-39822380D01*
X128079523Y-37282380D02*
X127508095Y-37282380D01*
X127793809Y-37282380D02*
X127793809Y-36282380D01*
X127698571Y-36425238D01*
X127603333Y-36520476D01*
X127508095Y-36568095D01*
X129031904Y-37282380D02*
X128460476Y-37282380D01*
X128746190Y-37282380D02*
X128746190Y-36282380D01*
X128650952Y-36425238D01*
X128555714Y-36520476D01*
X128460476Y-36568095D01*
X128079523Y-39822380D02*
X127508095Y-39822380D01*
X127793809Y-39822380D02*
X127793809Y-38822380D01*
X127698571Y-38965238D01*
X127603333Y-39060476D01*
X127508095Y-39108095D01*
X128698571Y-38822380D02*
X128793809Y-38822380D01*
X128889047Y-38870000D01*
X128936666Y-38917619D01*
X128984285Y-39012857D01*
X129031904Y-39203333D01*
X129031904Y-39441428D01*
X128984285Y-39631904D01*
X128936666Y-39727142D01*
X128889047Y-39774761D01*
X128793809Y-39822380D01*
X128698571Y-39822380D01*
X128603333Y-39774761D01*
X128555714Y-39727142D01*
X128508095Y-39631904D01*
X128460476Y-39441428D01*
X128460476Y-39203333D01*
X128508095Y-39012857D01*
X128555714Y-38917619D01*
X128603333Y-38870000D01*
X128698571Y-38822380D01*
X128079523Y-42362380D02*
X128270000Y-42362380D01*
X128365238Y-42314761D01*
X128412857Y-42267142D01*
X128508095Y-42124285D01*
X128555714Y-41933809D01*
X128555714Y-41552857D01*
X128508095Y-41457619D01*
X128460476Y-41410000D01*
X128365238Y-41362380D01*
X128174761Y-41362380D01*
X128079523Y-41410000D01*
X128031904Y-41457619D01*
X127984285Y-41552857D01*
X127984285Y-41790952D01*
X128031904Y-41886190D01*
X128079523Y-41933809D01*
X128174761Y-41981428D01*
X128365238Y-41981428D01*
X128460476Y-41933809D01*
X128508095Y-41886190D01*
X128555714Y-41790952D01*
X128174761Y-44330952D02*
X128079523Y-44283333D01*
X128031904Y-44235714D01*
X127984285Y-44140476D01*
X127984285Y-44092857D01*
X128031904Y-43997619D01*
X128079523Y-43950000D01*
X128174761Y-43902380D01*
X128365238Y-43902380D01*
X128460476Y-43950000D01*
X128508095Y-43997619D01*
X128555714Y-44092857D01*
X128555714Y-44140476D01*
X128508095Y-44235714D01*
X128460476Y-44283333D01*
X128365238Y-44330952D01*
X128174761Y-44330952D01*
X128079523Y-44378571D01*
X128031904Y-44426190D01*
X127984285Y-44521428D01*
X127984285Y-44711904D01*
X128031904Y-44807142D01*
X128079523Y-44854761D01*
X128174761Y-44902380D01*
X128365238Y-44902380D01*
X128460476Y-44854761D01*
X128508095Y-44807142D01*
X128555714Y-44711904D01*
X128555714Y-44521428D01*
X128508095Y-44426190D01*
X128460476Y-44378571D01*
X128365238Y-44330952D01*
X127936666Y-46442380D02*
X128603333Y-46442380D01*
X128174761Y-47442380D01*
X128460476Y-48982380D02*
X128270000Y-48982380D01*
X128174761Y-49030000D01*
X128127142Y-49077619D01*
X128031904Y-49220476D01*
X127984285Y-49410952D01*
X127984285Y-49791904D01*
X128031904Y-49887142D01*
X128079523Y-49934761D01*
X128174761Y-49982380D01*
X128365238Y-49982380D01*
X128460476Y-49934761D01*
X128508095Y-49887142D01*
X128555714Y-49791904D01*
X128555714Y-49553809D01*
X128508095Y-49458571D01*
X128460476Y-49410952D01*
X128365238Y-49363333D01*
X128174761Y-49363333D01*
X128079523Y-49410952D01*
X128031904Y-49458571D01*
X127984285Y-49553809D01*
X128508095Y-51522380D02*
X128031904Y-51522380D01*
X127984285Y-51998571D01*
X128031904Y-51950952D01*
X128127142Y-51903333D01*
X128365238Y-51903333D01*
X128460476Y-51950952D01*
X128508095Y-51998571D01*
X128555714Y-52093809D01*
X128555714Y-52331904D01*
X128508095Y-52427142D01*
X128460476Y-52474761D01*
X128365238Y-52522380D01*
X128127142Y-52522380D01*
X128031904Y-52474761D01*
X127984285Y-52427142D01*
X128460476Y-54395714D02*
X128460476Y-55062380D01*
X128222380Y-54014761D02*
X127984285Y-54729047D01*
X128603333Y-54729047D01*
X127936666Y-56602380D02*
X128555714Y-56602380D01*
X128222380Y-56983333D01*
X128365238Y-56983333D01*
X128460476Y-57030952D01*
X128508095Y-57078571D01*
X128555714Y-57173809D01*
X128555714Y-57411904D01*
X128508095Y-57507142D01*
X128460476Y-57554761D01*
X128365238Y-57602380D01*
X128079523Y-57602380D01*
X127984285Y-57554761D01*
X127936666Y-57507142D01*
X127984285Y-59237619D02*
X128031904Y-59190000D01*
X128127142Y-59142380D01*
X128365238Y-59142380D01*
X128460476Y-59190000D01*
X128508095Y-59237619D01*
X128555714Y-59332857D01*
X128555714Y-59428095D01*
X128508095Y-59570952D01*
X127936666Y-60142380D01*
X128555714Y-60142380D01*
D13*
X122386117Y-62478883D02*
G75*
G03*
X122386117Y-62478883I-2620000J0D01*
G01*
X121590452Y-64303219D02*
X117941781Y-60654548D01*
X121562168Y-64331503D02*
X117913497Y-60682832D01*
X121533176Y-64359080D02*
X117885920Y-60711824D01*
X121504185Y-64386658D02*
X117858342Y-60740815D01*
X121474487Y-64413528D02*
X117831472Y-60770513D01*
X121444081Y-64439691D02*
X117805309Y-60800919D01*
X121412968Y-64465146D02*
X120331802Y-63383980D01*
X118861020Y-61913198D02*
X117779854Y-60832032D01*
X121381856Y-64490602D02*
X120303518Y-63412264D01*
X118832736Y-61941482D02*
X117754398Y-60863144D01*
X121350743Y-64516058D02*
X120275233Y-63440549D01*
X118804451Y-61969767D02*
X117728942Y-60894257D01*
X121318923Y-64540807D02*
X120246949Y-63468833D01*
X118776167Y-61998051D02*
X117704193Y-60926077D01*
X121286396Y-64564848D02*
X120218665Y-63497117D01*
X118747883Y-62026335D02*
X117680152Y-60958604D01*
X121253162Y-64588183D02*
X120190381Y-63525402D01*
X118719598Y-62054619D02*
X117656817Y-60991838D01*
X121219928Y-64611518D02*
X120162096Y-63553686D01*
X118691314Y-62082904D02*
X117633482Y-61025072D01*
X121185987Y-64634145D02*
X120133812Y-63581970D01*
X118663030Y-62111188D02*
X117610855Y-61059013D01*
X121152046Y-64656772D02*
X120105528Y-63610254D01*
X118634746Y-62139472D02*
X117588228Y-61092954D01*
X121117398Y-64678693D02*
X120077244Y-63638539D01*
X118606461Y-62167756D02*
X117566307Y-61127602D01*
X121082042Y-64699906D02*
X120048959Y-63666823D01*
X118578177Y-62196041D02*
X117545094Y-61162958D01*
X121046687Y-64721119D02*
X120020675Y-63695107D01*
X118549893Y-62224325D02*
X117523881Y-61198313D01*
X121009917Y-64742332D02*
X119991684Y-63724099D01*
X118520901Y-62253316D02*
X117502668Y-61235083D01*
X120973148Y-64762131D02*
X119963399Y-63752383D01*
X118492617Y-62281601D02*
X117482869Y-61271852D01*
X120935671Y-64781223D02*
X119935115Y-63780667D01*
X118464333Y-62309885D02*
X117463777Y-61309329D01*
X120898194Y-64800315D02*
X119906831Y-63808951D01*
X118436049Y-62338169D02*
X117444685Y-61346806D01*
X120860011Y-64818700D02*
X119878547Y-63837236D01*
X118407764Y-62366453D02*
X117426300Y-61384989D01*
X120821827Y-64837085D02*
X119850262Y-63865520D01*
X118379480Y-62394738D02*
X117407915Y-61423173D01*
X120782229Y-64854055D02*
X119821978Y-63893804D01*
X118351196Y-62423022D02*
X117390945Y-61462771D01*
X120742631Y-64871026D02*
X119793694Y-63922088D01*
X118322912Y-62451306D02*
X117373974Y-61502369D01*
X120702326Y-64887289D02*
X119765409Y-63950373D01*
X118294627Y-62479591D02*
X117357711Y-61542674D01*
X120662021Y-64903553D02*
X119737125Y-63978657D01*
X118266343Y-62507875D02*
X117341447Y-61582979D01*
X120620302Y-64918402D02*
X119708841Y-64006941D01*
X118238059Y-62536159D02*
X117326598Y-61624698D01*
X120578582Y-64933251D02*
X119680557Y-64035226D01*
X118209774Y-62564443D02*
X117311749Y-61666418D01*
X120536156Y-64947393D02*
X119652272Y-64063510D01*
X118181490Y-62592728D02*
X117297607Y-61708844D01*
X120492315Y-64960121D02*
X119623988Y-64091794D01*
X118153206Y-62621012D02*
X117284879Y-61752685D01*
X120449182Y-64973556D02*
X119595704Y-64120078D01*
X118124922Y-62649296D02*
X117271444Y-61795818D01*
X120404634Y-64985577D02*
X119567420Y-64148363D01*
X118096637Y-62677580D02*
X117259423Y-61840366D01*
X120359379Y-64996891D02*
X119539135Y-64176647D01*
X118068353Y-62705865D02*
X117248109Y-61885621D01*
X120313417Y-65007497D02*
X119510851Y-64204931D01*
X118040069Y-62734149D02*
X117237503Y-61931583D01*
X120266748Y-65017397D02*
X119482567Y-64233215D01*
X118011785Y-62762433D02*
X117227603Y-61978252D01*
X120219372Y-65026589D02*
X119454282Y-64261500D01*
X117983500Y-62790718D02*
X117218411Y-62025628D01*
X120171996Y-65035782D02*
X119425998Y-64289784D01*
X117955216Y-62819002D02*
X117209218Y-62073004D01*
X120122498Y-65042853D02*
X119397714Y-64318068D01*
X117926932Y-62847286D02*
X117202147Y-62122502D01*
X120073001Y-65049924D02*
X119369430Y-64346352D01*
X117898648Y-62875570D02*
X117195076Y-62171999D01*
X120022796Y-65056288D02*
X119341145Y-64374637D01*
X117870363Y-62903855D02*
X117188712Y-62222204D01*
X119971177Y-65061237D02*
X119312861Y-64402921D01*
X117842079Y-62932139D02*
X117183763Y-62273823D01*
X119918852Y-65065480D02*
X119284577Y-64431205D01*
X117813795Y-62960423D02*
X117179520Y-62326148D01*
X119865111Y-65068309D02*
X119256293Y-64459490D01*
X117785510Y-62988707D02*
X117176691Y-62379889D01*
X119810664Y-65070430D02*
X119228008Y-64487774D01*
X117757226Y-63016992D02*
X117174570Y-62434336D01*
X119755510Y-65071844D02*
X119199724Y-64516058D01*
X117728942Y-63045276D02*
X117173156Y-62489490D01*
X119698234Y-65071137D02*
X119171440Y-64544342D01*
X117700658Y-63073560D02*
X117173863Y-62546766D01*
X119640252Y-65069723D02*
X119143155Y-64572627D01*
X117672373Y-63101845D02*
X117175277Y-62604748D01*
X119580855Y-65066894D02*
X119114871Y-64600911D01*
X117644089Y-63130129D02*
X117178106Y-62664145D01*
X119520043Y-65062652D02*
X119086587Y-64629195D01*
X117615805Y-63158413D02*
X117182348Y-62724957D01*
X119457818Y-65056995D02*
X119058303Y-64657479D01*
X117587521Y-63186697D02*
X117188005Y-62787182D01*
X119393471Y-65049217D02*
X119030018Y-64685764D01*
X117559236Y-63214982D02*
X117195783Y-62851529D01*
X119327003Y-65039317D02*
X119001734Y-64714048D01*
X117530952Y-63243266D02*
X117205683Y-62917997D01*
X119258414Y-65027296D02*
X118973450Y-64742332D01*
X117502668Y-63271550D02*
X117217704Y-62986586D01*
X119187703Y-65013154D02*
X118945166Y-64770617D01*
X117474383Y-63299834D02*
X117231846Y-63057297D01*
X119114164Y-64996184D02*
X118916881Y-64798901D01*
X117446099Y-63328119D02*
X117248816Y-63130836D01*
X119037797Y-64976385D02*
X118888597Y-64827185D01*
X117417815Y-63356403D02*
X117268615Y-63207203D01*
X118957893Y-64953050D02*
X117291950Y-63287107D01*
X118873041Y-64924766D02*
X117320234Y-63371959D01*
X118783238Y-64891532D02*
X117353468Y-63461762D01*
X118687072Y-64851934D02*
X117393066Y-63557928D01*
X118581006Y-64802436D02*
X117442564Y-63663994D01*
X118462212Y-64740211D02*
X117504789Y-63782788D01*
X118321497Y-64656065D02*
X117588935Y-63923503D01*
X118127750Y-64518887D02*
X117726113Y-64117250D01*
X122792374Y-61538591D02*
X122438821Y-61892144D01*
X122792374Y-61892144D02*
X122438821Y-61538591D01*
X123115000Y-55618748D02*
X123115000Y-56141252D01*
X124535000Y-55618748D02*
X124535000Y-56141252D01*
X104812198Y-66532500D02*
X104812198Y-65732500D01*
X105212198Y-66132500D02*
X104412198Y-66132500D01*
X96721500Y-64350500D02*
X96721500Y-63284500D01*
X96761500Y-64585500D02*
X96761500Y-63049500D01*
X96801500Y-64765500D02*
X96801500Y-62869500D01*
X96841500Y-64915500D02*
X96841500Y-62719500D01*
X96881500Y-65046500D02*
X96881500Y-62588500D01*
X96921500Y-65163500D02*
X96921500Y-62471500D01*
X96961500Y-65270500D02*
X96961500Y-62364500D01*
X97001500Y-65369500D02*
X97001500Y-62265500D01*
X97041500Y-65462500D02*
X97041500Y-62172500D01*
X97081500Y-65548500D02*
X97081500Y-62086500D01*
X97121500Y-65630500D02*
X97121500Y-62004500D01*
X97161500Y-65707500D02*
X97161500Y-61927500D01*
X97201500Y-65781500D02*
X97201500Y-61853500D01*
X97241500Y-65851500D02*
X97241500Y-61783500D01*
X97281500Y-65919500D02*
X97281500Y-61715500D01*
X97321500Y-65983500D02*
X97321500Y-61651500D01*
X97361500Y-66045500D02*
X97361500Y-61589500D01*
X97401500Y-66104500D02*
X97401500Y-61530500D01*
X97441500Y-66162500D02*
X97441500Y-61472500D01*
X97481500Y-66217500D02*
X97481500Y-61417500D01*
X97521500Y-66271500D02*
X97521500Y-61363500D01*
X97561500Y-66322500D02*
X97561500Y-61312500D01*
X97601500Y-66373500D02*
X97601500Y-61261500D01*
X97641500Y-66421500D02*
X97641500Y-61213500D01*
X97681500Y-66468500D02*
X97681500Y-61166500D01*
X97721500Y-66514500D02*
X97721500Y-61120500D01*
X97761500Y-66558500D02*
X97761500Y-61076500D01*
X97801500Y-66601500D02*
X97801500Y-61033500D01*
X97841500Y-66643500D02*
X97841500Y-60991500D01*
X97881500Y-66684500D02*
X97881500Y-60950500D01*
X97921500Y-66724500D02*
X97921500Y-60910500D01*
X97961500Y-66762500D02*
X97961500Y-60872500D01*
X98001500Y-66800500D02*
X98001500Y-60834500D01*
X98041500Y-62777500D02*
X98041500Y-60798500D01*
X98041500Y-66836500D02*
X98041500Y-64857500D01*
X98081500Y-62777500D02*
X98081500Y-60762500D01*
X98081500Y-66872500D02*
X98081500Y-64857500D01*
X98121500Y-62777500D02*
X98121500Y-60727500D01*
X98121500Y-66907500D02*
X98121500Y-64857500D01*
X98161500Y-62777500D02*
X98161500Y-60693500D01*
X98161500Y-66941500D02*
X98161500Y-64857500D01*
X98201500Y-62777500D02*
X98201500Y-60661500D01*
X98201500Y-66973500D02*
X98201500Y-64857500D01*
X98241500Y-62777500D02*
X98241500Y-60628500D01*
X98241500Y-67006500D02*
X98241500Y-64857500D01*
X98281500Y-62777500D02*
X98281500Y-60597500D01*
X98281500Y-67037500D02*
X98281500Y-64857500D01*
X98321500Y-62777500D02*
X98321500Y-60567500D01*
X98321500Y-67067500D02*
X98321500Y-64857500D01*
X98361500Y-62777500D02*
X98361500Y-60537500D01*
X98361500Y-67097500D02*
X98361500Y-64857500D01*
X98401500Y-62777500D02*
X98401500Y-60508500D01*
X98401500Y-67126500D02*
X98401500Y-64857500D01*
X98441500Y-62777500D02*
X98441500Y-60479500D01*
X98441500Y-67155500D02*
X98441500Y-64857500D01*
X98481500Y-62777500D02*
X98481500Y-60452500D01*
X98481500Y-67182500D02*
X98481500Y-64857500D01*
X98521500Y-62777500D02*
X98521500Y-60425500D01*
X98521500Y-67209500D02*
X98521500Y-64857500D01*
X98561500Y-62777500D02*
X98561500Y-60399500D01*
X98561500Y-67235500D02*
X98561500Y-64857500D01*
X98601500Y-62777500D02*
X98601500Y-60373500D01*
X98601500Y-67261500D02*
X98601500Y-64857500D01*
X98641500Y-62777500D02*
X98641500Y-60348500D01*
X98641500Y-67286500D02*
X98641500Y-64857500D01*
X98681500Y-62777500D02*
X98681500Y-60324500D01*
X98681500Y-67310500D02*
X98681500Y-64857500D01*
X98721500Y-62777500D02*
X98721500Y-60300500D01*
X98721500Y-67334500D02*
X98721500Y-64857500D01*
X98761500Y-62777500D02*
X98761500Y-60277500D01*
X98761500Y-67357500D02*
X98761500Y-64857500D01*
X98801500Y-62777500D02*
X98801500Y-60255500D01*
X98801500Y-67379500D02*
X98801500Y-64857500D01*
X98841500Y-62777500D02*
X98841500Y-60233500D01*
X98841500Y-67401500D02*
X98841500Y-64857500D01*
X98881500Y-62777500D02*
X98881500Y-60211500D01*
X98881500Y-67423500D02*
X98881500Y-64857500D01*
X98921500Y-62777500D02*
X98921500Y-60190500D01*
X98921500Y-67444500D02*
X98921500Y-64857500D01*
X98961500Y-62777500D02*
X98961500Y-60170500D01*
X98961500Y-67464500D02*
X98961500Y-64857500D01*
X99001500Y-62777500D02*
X99001500Y-60151500D01*
X99001500Y-67483500D02*
X99001500Y-64857500D01*
X99041500Y-62777500D02*
X99041500Y-60131500D01*
X99041500Y-67503500D02*
X99041500Y-64857500D01*
X99081500Y-62777500D02*
X99081500Y-60113500D01*
X99081500Y-67521500D02*
X99081500Y-64857500D01*
X99121500Y-62777500D02*
X99121500Y-60095500D01*
X99121500Y-67539500D02*
X99121500Y-64857500D01*
X99161500Y-62777500D02*
X99161500Y-60077500D01*
X99161500Y-67557500D02*
X99161500Y-64857500D01*
X99201500Y-62777500D02*
X99201500Y-60060500D01*
X99201500Y-67574500D02*
X99201500Y-64857500D01*
X99241500Y-62777500D02*
X99241500Y-60043500D01*
X99241500Y-67591500D02*
X99241500Y-64857500D01*
X99281500Y-62777500D02*
X99281500Y-60027500D01*
X99281500Y-67607500D02*
X99281500Y-64857500D01*
X99321500Y-62777500D02*
X99321500Y-60012500D01*
X99321500Y-67622500D02*
X99321500Y-64857500D01*
X99361500Y-62777500D02*
X99361500Y-59996500D01*
X99361500Y-67638500D02*
X99361500Y-64857500D01*
X99401500Y-62777500D02*
X99401500Y-59982500D01*
X99401500Y-67652500D02*
X99401500Y-64857500D01*
X99441500Y-62777500D02*
X99441500Y-59967500D01*
X99441500Y-67667500D02*
X99441500Y-64857500D01*
X99481500Y-62777500D02*
X99481500Y-59954500D01*
X99481500Y-67680500D02*
X99481500Y-64857500D01*
X99521500Y-62777500D02*
X99521500Y-59940500D01*
X99521500Y-67694500D02*
X99521500Y-64857500D01*
X99561500Y-62777500D02*
X99561500Y-59928500D01*
X99561500Y-67706500D02*
X99561500Y-64857500D01*
X99601500Y-62777500D02*
X99601500Y-59915500D01*
X99601500Y-67719500D02*
X99601500Y-64857500D01*
X99641500Y-62777500D02*
X99641500Y-59903500D01*
X99641500Y-67731500D02*
X99641500Y-64857500D01*
X99681500Y-62777500D02*
X99681500Y-59892500D01*
X99681500Y-67742500D02*
X99681500Y-64857500D01*
X99721500Y-62777500D02*
X99721500Y-59881500D01*
X99721500Y-67753500D02*
X99721500Y-64857500D01*
X99761500Y-62777500D02*
X99761500Y-59870500D01*
X99761500Y-67764500D02*
X99761500Y-64857500D01*
X99801500Y-62777500D02*
X99801500Y-59860500D01*
X99801500Y-67774500D02*
X99801500Y-64857500D01*
X99841500Y-62777500D02*
X99841500Y-59850500D01*
X99841500Y-67784500D02*
X99841500Y-64857500D01*
X99881500Y-62777500D02*
X99881500Y-59841500D01*
X99881500Y-67793500D02*
X99881500Y-64857500D01*
X99921500Y-62777500D02*
X99921500Y-59832500D01*
X99921500Y-67802500D02*
X99921500Y-64857500D01*
X99961500Y-62777500D02*
X99961500Y-59823500D01*
X99961500Y-67811500D02*
X99961500Y-64857500D01*
X100001500Y-62777500D02*
X100001500Y-59815500D01*
X100001500Y-67819500D02*
X100001500Y-64857500D01*
X100041500Y-62777500D02*
X100041500Y-59807500D01*
X100041500Y-67827500D02*
X100041500Y-64857500D01*
X100081500Y-62777500D02*
X100081500Y-59800500D01*
X100081500Y-67834500D02*
X100081500Y-64857500D01*
X100122500Y-67841500D02*
X100122500Y-59793500D01*
X100162500Y-67847500D02*
X100162500Y-59787500D01*
X100202500Y-67854500D02*
X100202500Y-59780500D01*
X100242500Y-67859500D02*
X100242500Y-59775500D01*
X100282500Y-67865500D02*
X100282500Y-59769500D01*
X100322500Y-67869500D02*
X100322500Y-59765500D01*
X100362500Y-67874500D02*
X100362500Y-59760500D01*
X100402500Y-67878500D02*
X100402500Y-59756500D01*
X100442500Y-67882500D02*
X100442500Y-59752500D01*
X100482500Y-67885500D02*
X100482500Y-59749500D01*
X100522500Y-67888500D02*
X100522500Y-59746500D01*
X100562500Y-67891500D02*
X100562500Y-59743500D01*
X100602500Y-67893500D02*
X100602500Y-59741500D01*
X100642500Y-67894500D02*
X100642500Y-59740500D01*
X100682500Y-67896500D02*
X100682500Y-59738500D01*
X100722500Y-67897500D02*
X100722500Y-59737500D01*
X100762500Y-67897500D02*
X100762500Y-59737500D01*
X100802500Y-67897500D02*
X100802500Y-59737500D01*
X104922500Y-63817500D02*
G75*
G03*
X104922500Y-63817500I-4120000J0D01*
G01*
X124400000Y-58360000D02*
X125730000Y-58360000D01*
X124400000Y-59690000D02*
X124400000Y-58360000D01*
X124400000Y-60960000D02*
X127060000Y-60960000D01*
X127060000Y-60960000D02*
X127060000Y-61020000D01*
X124400000Y-60960000D02*
X124400000Y-61020000D01*
X124400000Y-61020000D02*
X127060000Y-61020000D01*
X124400000Y-58480000D02*
X127060000Y-58480000D01*
X124400000Y-58420000D02*
X124400000Y-58480000D01*
X127060000Y-58420000D02*
X127060000Y-58480000D01*
X124400000Y-58420000D02*
X127060000Y-58420000D01*
X124400000Y-57150000D02*
X124400000Y-55820000D01*
X124400000Y-55820000D02*
X125730000Y-55820000D01*
X124400000Y-53280000D02*
X125730000Y-53280000D01*
X124400000Y-54610000D02*
X124400000Y-53280000D01*
X124400000Y-55880000D02*
X127060000Y-55880000D01*
X127060000Y-55880000D02*
X127060000Y-55940000D01*
X124400000Y-55880000D02*
X124400000Y-55940000D01*
X124400000Y-55940000D02*
X127060000Y-55940000D01*
X124400000Y-53400000D02*
X127060000Y-53400000D01*
X124400000Y-53340000D02*
X124400000Y-53400000D01*
X127060000Y-53340000D02*
X127060000Y-53400000D01*
X124400000Y-53340000D02*
X127060000Y-53340000D01*
X124400000Y-52070000D02*
X124400000Y-50740000D01*
X124400000Y-50740000D02*
X125730000Y-50740000D01*
X124400000Y-48200000D02*
X125730000Y-48200000D01*
X124400000Y-49530000D02*
X124400000Y-48200000D01*
X124400000Y-50800000D02*
X127060000Y-50800000D01*
X127060000Y-50800000D02*
X127060000Y-50860000D01*
X124400000Y-50800000D02*
X124400000Y-50860000D01*
X124400000Y-50860000D02*
X127060000Y-50860000D01*
X124400000Y-48320000D02*
X127060000Y-48320000D01*
X124400000Y-48260000D02*
X124400000Y-48320000D01*
X127060000Y-48260000D02*
X127060000Y-48320000D01*
X124400000Y-48260000D02*
X127060000Y-48260000D01*
X124400000Y-46990000D02*
X124400000Y-45660000D01*
X124400000Y-45660000D02*
X125730000Y-45660000D01*
X124400000Y-43120000D02*
X125730000Y-43120000D01*
X124400000Y-44450000D02*
X124400000Y-43120000D01*
X124400000Y-45720000D02*
X127060000Y-45720000D01*
X127060000Y-45720000D02*
X127060000Y-45780000D01*
X124400000Y-45720000D02*
X124400000Y-45780000D01*
X124400000Y-45780000D02*
X127060000Y-45780000D01*
X124400000Y-43240000D02*
X127060000Y-43240000D01*
X124400000Y-43180000D02*
X124400000Y-43240000D01*
X127060000Y-43180000D02*
X127060000Y-43240000D01*
X124400000Y-43180000D02*
X127060000Y-43180000D01*
X124400000Y-41910000D02*
X124400000Y-40580000D01*
X124400000Y-40580000D02*
X125730000Y-40580000D01*
X124400000Y-38040000D02*
X125730000Y-38040000D01*
X124400000Y-39370000D02*
X124400000Y-38040000D01*
X124400000Y-40640000D02*
X127060000Y-40640000D01*
X127060000Y-40640000D02*
X127060000Y-40700000D01*
X124400000Y-40640000D02*
X124400000Y-40700000D01*
X124400000Y-40700000D02*
X127060000Y-40700000D01*
X124400000Y-38160000D02*
X127060000Y-38160000D01*
X124400000Y-38100000D02*
X124400000Y-38160000D01*
X127060000Y-38100000D02*
X127060000Y-38160000D01*
X124400000Y-38100000D02*
X127060000Y-38100000D01*
X124400000Y-36830000D02*
X124400000Y-35500000D01*
X124400000Y-35500000D02*
X125730000Y-35500000D01*
X91380000Y-38040000D02*
X92710000Y-38040000D01*
X91380000Y-39370000D02*
X91380000Y-38040000D01*
X91380000Y-40640000D02*
X94040000Y-40640000D01*
X94040000Y-40640000D02*
X94040000Y-40700000D01*
X91380000Y-40640000D02*
X91380000Y-40700000D01*
X91380000Y-40700000D02*
X94040000Y-40700000D01*
X91380000Y-43240000D02*
X94040000Y-43240000D01*
X91380000Y-43180000D02*
X91380000Y-43240000D01*
X94040000Y-43180000D02*
X94040000Y-43240000D01*
X91380000Y-43180000D02*
X94040000Y-43180000D01*
X91380000Y-41910000D02*
X91380000Y-40580000D01*
X91380000Y-40580000D02*
X92710000Y-40580000D01*
X91380000Y-45780000D02*
X94040000Y-45780000D01*
X91380000Y-45720000D02*
X91380000Y-45780000D01*
X94040000Y-45720000D02*
X94040000Y-45780000D01*
X91380000Y-45720000D02*
X94040000Y-45720000D01*
X91380000Y-44450000D02*
X91380000Y-43120000D01*
X91380000Y-43120000D02*
X92710000Y-43120000D01*
X91380000Y-45660000D02*
X92710000Y-45660000D01*
X91380000Y-46990000D02*
X91380000Y-45660000D01*
X91380000Y-48260000D02*
X94040000Y-48260000D01*
X94040000Y-48260000D02*
X94040000Y-48320000D01*
X91380000Y-48260000D02*
X91380000Y-48320000D01*
X91380000Y-48320000D02*
X94040000Y-48320000D01*
X91380000Y-50860000D02*
X94040000Y-50860000D01*
X91380000Y-50800000D02*
X91380000Y-50860000D01*
X94040000Y-50800000D02*
X94040000Y-50860000D01*
X91380000Y-50800000D02*
X94040000Y-50800000D01*
X91380000Y-49530000D02*
X91380000Y-48200000D01*
X91380000Y-48200000D02*
X92710000Y-48200000D01*
X91380000Y-50740000D02*
X92710000Y-50740000D01*
X91380000Y-52070000D02*
X91380000Y-50740000D01*
X91380000Y-53340000D02*
X94040000Y-53340000D01*
X94040000Y-53340000D02*
X94040000Y-53400000D01*
X91380000Y-53340000D02*
X91380000Y-53400000D01*
X91380000Y-53400000D02*
X94040000Y-53400000D01*
X91380000Y-55940000D02*
X94040000Y-55940000D01*
X91380000Y-55880000D02*
X91380000Y-55940000D01*
X94040000Y-55880000D02*
X94040000Y-55940000D01*
X91380000Y-55880000D02*
X94040000Y-55880000D01*
X91380000Y-54610000D02*
X91380000Y-53280000D01*
X91380000Y-53280000D02*
X92710000Y-53280000D01*
X91380000Y-55820000D02*
X92710000Y-55820000D01*
X91380000Y-57150000D02*
X91380000Y-55820000D01*
X91380000Y-58420000D02*
X94040000Y-58420000D01*
X94040000Y-58420000D02*
X94040000Y-58480000D01*
X91380000Y-58420000D02*
X91380000Y-58480000D01*
X91380000Y-58480000D02*
X94040000Y-58480000D01*
X91380000Y-38160000D02*
X94040000Y-38160000D01*
X91380000Y-38100000D02*
X91380000Y-38160000D01*
X94040000Y-38100000D02*
X94040000Y-38160000D01*
X91380000Y-38100000D02*
X94040000Y-38100000D01*
X91380000Y-36830000D02*
X91380000Y-35500000D01*
X91380000Y-35500000D02*
X92710000Y-35500000D01*
X91380000Y-58360000D02*
X92710000Y-58360000D01*
X91380000Y-59690000D02*
X91380000Y-58360000D01*
X91380000Y-60960000D02*
X94040000Y-60960000D01*
X94040000Y-60960000D02*
X94040000Y-61020000D01*
X91380000Y-60960000D02*
X91380000Y-61020000D01*
X91380000Y-61020000D02*
X94040000Y-61020000D01*
X116261248Y-42470000D02*
X116783752Y-42470000D01*
X116261248Y-43890000D02*
X116783752Y-43890000D01*
X106680000Y-61595000D02*
X116840000Y-61595000D01*
X106680000Y-60325000D02*
X106680000Y-67945000D01*
X106680000Y-67945000D02*
X116840000Y-67945000D01*
X116840000Y-67945000D02*
X116840000Y-60325000D01*
X116840000Y-60325000D02*
X106680000Y-60325000D01*
X97790000Y-35560000D02*
X107950000Y-35560000D01*
X97790000Y-27940000D02*
X97790000Y-35560000D01*
X107950000Y-27940000D02*
X97790000Y-27940000D01*
X107950000Y-35560000D02*
X107950000Y-27940000D01*
X107950000Y-34290000D02*
X97790000Y-34290000D01*
X120650000Y-34290000D02*
X110490000Y-34290000D01*
X120650000Y-35560000D02*
X120650000Y-27940000D01*
X120650000Y-27940000D02*
X110490000Y-27940000D01*
X110490000Y-27940000D02*
X110490000Y-35560000D01*
X110490000Y-35560000D02*
X120650000Y-35560000D01*
X103140000Y-37405000D02*
X101490000Y-37405000D01*
X101490000Y-37405000D02*
X101490000Y-57845000D01*
X101490000Y-57845000D02*
X106790000Y-57845000D01*
X106790000Y-57845000D02*
X106790000Y-37405000D01*
X106790000Y-37405000D02*
X105140000Y-37405000D01*
X105140000Y-37405000D02*
G75*
G02*
X103140000Y-37405000I-1000000J0D01*
G01*
X122932500Y-54550000D02*
X120272500Y-54550000D01*
X122932500Y-57150000D02*
X122932500Y-54550000D01*
X120272500Y-57150000D02*
X120272500Y-54550000D01*
X122932500Y-57150000D02*
X120272500Y-57150000D01*
X122932500Y-58420000D02*
X122932500Y-59750000D01*
X122932500Y-59750000D02*
X121602500Y-59750000D01*
X111085000Y-52825000D02*
X121325000Y-52825000D01*
X111085000Y-36935000D02*
X121325000Y-36935000D01*
X111085000Y-36935000D02*
X111085000Y-52825000D01*
X121325000Y-36935000D02*
X121325000Y-52825000D01*
X113665000Y-52825000D02*
X113665000Y-55365000D01*
X116205000Y-52825000D02*
X116205000Y-55365000D01*
X118745000Y-52825000D02*
X118745000Y-55365000D01*
X96013748Y-58980000D02*
X96536252Y-58980000D01*
X96013748Y-60400000D02*
X96536252Y-60400000D01*
X96460000Y-40065000D02*
X99120000Y-40065000D01*
X96460000Y-40005000D02*
X96460000Y-40065000D01*
X99120000Y-40005000D02*
X99120000Y-40065000D01*
X96460000Y-40005000D02*
X99120000Y-40005000D01*
X96460000Y-38735000D02*
X96460000Y-37405000D01*
X96460000Y-37405000D02*
X97790000Y-37405000D01*
X95825000Y-56455000D02*
X97155000Y-56455000D01*
X95825000Y-57785000D02*
X95825000Y-56455000D01*
X95825000Y-59055000D02*
X98485000Y-59055000D01*
X98485000Y-59055000D02*
X98485000Y-59115000D01*
X95825000Y-59055000D02*
X95825000Y-59115000D01*
X95825000Y-59115000D02*
X98485000Y-59115000D01*
D10*
X121419687Y-66410389D02*
X121419687Y-66477732D01*
X121352343Y-66612419D01*
X121285000Y-66679763D01*
X121150312Y-66747106D01*
X121015625Y-66747106D01*
X120914610Y-66713435D01*
X120746251Y-66612419D01*
X120645236Y-66511404D01*
X120544221Y-66343045D01*
X120510549Y-66242030D01*
X120510549Y-66107343D01*
X120577893Y-65972656D01*
X120645236Y-65905312D01*
X120779923Y-65837969D01*
X120847267Y-65837969D01*
X121386015Y-65164534D02*
X121251328Y-65299221D01*
X121217656Y-65400236D01*
X121217656Y-65467580D01*
X121251328Y-65635938D01*
X121352343Y-65804297D01*
X121621717Y-66073671D01*
X121722732Y-66107343D01*
X121790076Y-66107343D01*
X121891091Y-66073671D01*
X122025778Y-65938984D01*
X122059450Y-65837969D01*
X122059450Y-65770625D01*
X122025778Y-65669610D01*
X121857419Y-65501251D01*
X121756404Y-65467580D01*
X121689061Y-65467580D01*
X121588045Y-65501251D01*
X121453358Y-65635938D01*
X121419687Y-65736954D01*
X121419687Y-65804297D01*
X121453358Y-65905312D01*
X124277380Y-58586666D02*
X123801190Y-58920000D01*
X124277380Y-59158095D02*
X123277380Y-59158095D01*
X123277380Y-58777142D01*
X123325000Y-58681904D01*
X123372619Y-58634285D01*
X123467857Y-58586666D01*
X123610714Y-58586666D01*
X123705952Y-58634285D01*
X123753571Y-58681904D01*
X123801190Y-58777142D01*
X123801190Y-59158095D01*
X124277380Y-57634285D02*
X124277380Y-58205714D01*
X124277380Y-57920000D02*
X123277380Y-57920000D01*
X123420238Y-58015238D01*
X123515476Y-58110476D01*
X123563095Y-58205714D01*
X95718333Y-62587142D02*
X95670714Y-62634761D01*
X95527857Y-62682380D01*
X95432619Y-62682380D01*
X95289761Y-62634761D01*
X95194523Y-62539523D01*
X95146904Y-62444285D01*
X95099285Y-62253809D01*
X95099285Y-62110952D01*
X95146904Y-61920476D01*
X95194523Y-61825238D01*
X95289761Y-61730000D01*
X95432619Y-61682380D01*
X95527857Y-61682380D01*
X95670714Y-61730000D01*
X95718333Y-61777619D01*
X96575476Y-62015714D02*
X96575476Y-62682380D01*
X96337380Y-61634761D02*
X96099285Y-62349047D01*
X96718333Y-62349047D01*
X119213333Y-43537142D02*
X119165714Y-43584761D01*
X119022857Y-43632380D01*
X118927619Y-43632380D01*
X118784761Y-43584761D01*
X118689523Y-43489523D01*
X118641904Y-43394285D01*
X118594285Y-43203809D01*
X118594285Y-43060952D01*
X118641904Y-42870476D01*
X118689523Y-42775238D01*
X118784761Y-42680000D01*
X118927619Y-42632380D01*
X119022857Y-42632380D01*
X119165714Y-42680000D01*
X119213333Y-42727619D01*
X120165714Y-43632380D02*
X119594285Y-43632380D01*
X119880000Y-43632380D02*
X119880000Y-42632380D01*
X119784761Y-42775238D01*
X119689523Y-42870476D01*
X119594285Y-42918095D01*
X113490476Y-60432380D02*
X113490476Y-61146666D01*
X113442857Y-61289523D01*
X113347619Y-61384761D01*
X113204761Y-61432380D01*
X113109523Y-61432380D01*
X113919047Y-60527619D02*
X113966666Y-60480000D01*
X114061904Y-60432380D01*
X114300000Y-60432380D01*
X114395238Y-60480000D01*
X114442857Y-60527619D01*
X114490476Y-60622857D01*
X114490476Y-60718095D01*
X114442857Y-60860952D01*
X113871428Y-61432380D01*
X114490476Y-61432380D01*
X115442857Y-61432380D02*
X114871428Y-61432380D01*
X115157142Y-61432380D02*
X115157142Y-60432380D01*
X115061904Y-60575238D01*
X114966666Y-60670476D01*
X114871428Y-60718095D01*
X102060476Y-28662380D02*
X102060476Y-29376666D01*
X102012857Y-29519523D01*
X101917619Y-29614761D01*
X101774761Y-29662380D01*
X101679523Y-29662380D01*
X102489047Y-28757619D02*
X102536666Y-28710000D01*
X102631904Y-28662380D01*
X102870000Y-28662380D01*
X102965238Y-28710000D01*
X103012857Y-28757619D01*
X103060476Y-28852857D01*
X103060476Y-28948095D01*
X103012857Y-29090952D01*
X102441428Y-29662380D01*
X103060476Y-29662380D01*
X103441428Y-28757619D02*
X103489047Y-28710000D01*
X103584285Y-28662380D01*
X103822380Y-28662380D01*
X103917619Y-28710000D01*
X103965238Y-28757619D01*
X104012857Y-28852857D01*
X104012857Y-28948095D01*
X103965238Y-29090952D01*
X103393809Y-29662380D01*
X104012857Y-29662380D01*
X114760476Y-28662380D02*
X114760476Y-29376666D01*
X114712857Y-29519523D01*
X114617619Y-29614761D01*
X114474761Y-29662380D01*
X114379523Y-29662380D01*
X115189047Y-28757619D02*
X115236666Y-28710000D01*
X115331904Y-28662380D01*
X115570000Y-28662380D01*
X115665238Y-28710000D01*
X115712857Y-28757619D01*
X115760476Y-28852857D01*
X115760476Y-28948095D01*
X115712857Y-29090952D01*
X115141428Y-29662380D01*
X115760476Y-29662380D01*
X116093809Y-28662380D02*
X116712857Y-28662380D01*
X116379523Y-29043333D01*
X116522380Y-29043333D01*
X116617619Y-29090952D01*
X116665238Y-29138571D01*
X116712857Y-29233809D01*
X116712857Y-29471904D01*
X116665238Y-29567142D01*
X116617619Y-29614761D01*
X116522380Y-29662380D01*
X116236666Y-29662380D01*
X116141428Y-29614761D01*
X116093809Y-29567142D01*
X103378095Y-35857380D02*
X103378095Y-36666904D01*
X103425714Y-36762142D01*
X103473333Y-36809761D01*
X103568571Y-36857380D01*
X103759047Y-36857380D01*
X103854285Y-36809761D01*
X103901904Y-36762142D01*
X103949523Y-36666904D01*
X103949523Y-35857380D01*
X104901904Y-35857380D02*
X104425714Y-35857380D01*
X104378095Y-36333571D01*
X104425714Y-36285952D01*
X104520952Y-36238333D01*
X104759047Y-36238333D01*
X104854285Y-36285952D01*
X104901904Y-36333571D01*
X104949523Y-36428809D01*
X104949523Y-36666904D01*
X104901904Y-36762142D01*
X104854285Y-36809761D01*
X104759047Y-36857380D01*
X104520952Y-36857380D01*
X104425714Y-36809761D01*
X104378095Y-36762142D01*
X118618095Y-37552380D02*
X118618095Y-38361904D01*
X118665714Y-38457142D01*
X118713333Y-38504761D01*
X118808571Y-38552380D01*
X118999047Y-38552380D01*
X119094285Y-38504761D01*
X119141904Y-38457142D01*
X119189523Y-38361904D01*
X119189523Y-37552380D01*
X120094285Y-37552380D02*
X119903809Y-37552380D01*
X119808571Y-37600000D01*
X119760952Y-37647619D01*
X119665714Y-37790476D01*
X119618095Y-37980952D01*
X119618095Y-38361904D01*
X119665714Y-38457142D01*
X119713333Y-38504761D01*
X119808571Y-38552380D01*
X119999047Y-38552380D01*
X120094285Y-38504761D01*
X120141904Y-38457142D01*
X120189523Y-38361904D01*
X120189523Y-38123809D01*
X120141904Y-38028571D01*
X120094285Y-37980952D01*
X119999047Y-37933333D01*
X119808571Y-37933333D01*
X119713333Y-37980952D01*
X119665714Y-38028571D01*
X119618095Y-38123809D01*
X99251423Y-60047142D02*
X99203804Y-60094761D01*
X99060947Y-60142380D01*
X98965709Y-60142380D01*
X98822851Y-60094761D01*
X98727613Y-59999523D01*
X98679994Y-59904285D01*
X98632375Y-59713809D01*
X98632375Y-59570952D01*
X98679994Y-59380476D01*
X98727613Y-59285238D01*
X98822851Y-59190000D01*
X98965709Y-59142380D01*
X99060947Y-59142380D01*
X99203804Y-59190000D01*
X99251423Y-59237619D01*
X99584756Y-59142380D02*
X100203804Y-59142380D01*
X99870470Y-59523333D01*
X100013328Y-59523333D01*
X100108566Y-59570952D01*
X100156185Y-59618571D01*
X100203804Y-59713809D01*
X100203804Y-59951904D01*
X100156185Y-60047142D01*
X100108566Y-60094761D01*
X100013328Y-60142380D01*
X99727613Y-60142380D01*
X99632375Y-60094761D01*
X99584756Y-60047142D01*
M02*
