<?xml version="1.0" standalone="no"?>
<!DOCTYPE svg PUBLIC "-//W3C//DTD SVG 20010904//EN"
 "http://www.w3.org/TR/2001/REC-SVG-20010904/DTD/svg10.dtd">
<svg version="1.0" xmlns="http://www.w3.org/2000/svg"
 width="118.000000pt" height="140.000000pt" viewBox="0 0 118.000000 140.000000"
 preserveAspectRatio="xMidYMid meet">
<metadata>
Created by potrace 1.15, written by Peter Selinger 2001-2017
</metadata>
<g transform="translate(0.000000,140.000000) scale(0.100000,-0.100000)"
fill="#000000" stroke="none">
<path d="M133 1250 c16 -43 109 -256 116 -263 4 -4 92 -25 197 -46 l189 -40
-93 2 c-50 1 -92 -1 -92 -4 0 -4 57 -49 103 -80 9 -6 -96 -356 -111 -371 -5
-5 -55 -17 -113 -28 -57 -11 -108 -22 -114 -25 -5 -2 44 -1 111 2 l121 6 83
-104 c122 -153 133 -160 51 -35 l-25 38 16 112 c9 61 15 112 13 114 -1 2 -10
-32 -19 -75 -9 -43 -21 -87 -25 -98 -8 -18 -10 -18 -16 -3 -3 9 9 76 29 150
19 73 33 134 31 136 -1 2 -19 -45 -39 -105 -43 -127 -52 -145 -62 -120 -4 10
22 86 65 195 65 161 75 180 104 195 31 15 31 16 7 17 -23 1 -22 3 10 15 l35
13 -65 1 c-36 1 -72 6 -80 11 -10 7 18 10 88 10 75 0 102 -3 102 -12 0 -7 12
-19 28 -26 23 -11 29 -10 39 4 10 14 22 15 69 9 77 -9 123 -32 117 -56 -5 -16
-16 -19 -82 -20 -44 -1 -66 -4 -52 -8 20 -5 11 -12 -59 -40 l-83 -35 -19 24
c-14 17 -17 32 -12 54 l6 31 -22 -28 -22 -28 22 -59 c20 -54 25 -59 46 -54
l24 6 1 -168 c3 -305 14 -344 20 -67 4 192 8 256 18 265 11 11 12 -36 8 -272
l-5 -285 23 260 c13 143 24 276 24 296 1 43 17 52 124 70 55 9 67 14 67 30 0
10 5 19 10 19 6 0 10 15 10 34 0 39 6 37 -160 62 -63 9 -119 20 -123 24 -5 4
27 10 70 14 43 4 83 10 89 14 13 9 84 126 79 131 -2 2 -25 -17 -51 -42 -41
-38 -56 -46 -102 -52 -29 -4 -56 -4 -59 -2 -2 3 5 24 17 47 12 23 20 44 18 46
-2 2 -24 -22 -47 -53 l-44 -55 -69 4 c-70 5 -70 5 -116 59 -26 30 -60 67 -75
84 l-29 30 23 -40 c12 -22 31 -55 42 -74 19 -31 19 -34 3 -28 -10 4 -28 7 -41
7 -18 0 -41 23 -96 93 -97 125 -97 125 -45 19 37 -75 43 -93 29 -89 -10 3 -31
8 -48 12 -25 5 -44 27 -109 123 -43 64 -76 110 -73 102z"/>
</g>
</svg>
