G04 #@! TF.GenerationSoftware,KiCad,Pcbnew,(5.1.8)-1*
G04 #@! TF.CreationDate,2020-11-12T00:03:28+03:00*
G04 #@! TF.ProjectId,valc,76616c63-2e6b-4696-9361-645f70636258,rev?*
G04 #@! TF.SameCoordinates,Original*
G04 #@! TF.FileFunction,Copper,L2,Bot*
G04 #@! TF.FilePolarity,Positive*
%FSLAX46Y46*%
G04 Gerber Fmt 4.6, Leading zero omitted, Abs format (unit mm)*
G04 Created by KiCad (PCBNEW (5.1.8)-1) date 2020-11-12 00:03:28*
%MOMM*%
%LPD*%
G01*
G04 APERTURE LIST*
G04 #@! TA.AperFunction,ComponentPad*
%ADD10R,2.000000X2.000000*%
G04 #@! TD*
G04 #@! TA.AperFunction,ComponentPad*
%ADD11C,2.000000*%
G04 #@! TD*
G04 #@! TA.AperFunction,ComponentPad*
%ADD12R,2.000000X3.200000*%
G04 #@! TD*
G04 #@! TA.AperFunction,SMDPad,CuDef*
%ADD13R,1.300000X1.700000*%
G04 #@! TD*
G04 #@! TA.AperFunction,SMDPad,CuDef*
%ADD14R,1.700000X1.300000*%
G04 #@! TD*
G04 #@! TA.AperFunction,SMDPad,CuDef*
%ADD15R,0.600000X1.500000*%
G04 #@! TD*
G04 #@! TA.AperFunction,ViaPad*
%ADD16C,1.600000*%
G04 #@! TD*
G04 #@! TA.AperFunction,Conductor*
%ADD17C,0.600000*%
G04 #@! TD*
G04 #@! TA.AperFunction,Conductor*
%ADD18C,0.500000*%
G04 #@! TD*
G04 #@! TA.AperFunction,Conductor*
%ADD19C,0.800000*%
G04 #@! TD*
G04 APERTURE END LIST*
G04 #@! TA.AperFunction,SMDPad,CuDef*
G36*
G01*
X91572501Y-47002500D02*
X90672499Y-47002500D01*
G75*
G02*
X90422500Y-46752501I0J249999D01*
G01*
X90422500Y-46102499D01*
G75*
G02*
X90672499Y-45852500I249999J0D01*
G01*
X91572501Y-45852500D01*
G75*
G02*
X91822500Y-46102499I0J-249999D01*
G01*
X91822500Y-46752501D01*
G75*
G02*
X91572501Y-47002500I-249999J0D01*
G01*
G37*
G04 #@! TD.AperFunction*
G04 #@! TA.AperFunction,SMDPad,CuDef*
G36*
G01*
X91572501Y-44952500D02*
X90672499Y-44952500D01*
G75*
G02*
X90422500Y-44702501I0J249999D01*
G01*
X90422500Y-44052499D01*
G75*
G02*
X90672499Y-43802500I249999J0D01*
G01*
X91572501Y-43802500D01*
G75*
G02*
X91822500Y-44052499I0J-249999D01*
G01*
X91822500Y-44702501D01*
G75*
G02*
X91572501Y-44952500I-249999J0D01*
G01*
G37*
G04 #@! TD.AperFunction*
D10*
X97155000Y-66040000D03*
D11*
X99655000Y-66040000D03*
X102155000Y-66040000D03*
D12*
X94055000Y-58540000D03*
X105255000Y-58540000D03*
D11*
X97155000Y-51540000D03*
X102155000Y-51540000D03*
X111910000Y-41275000D03*
X111910000Y-45775000D03*
X105410000Y-41275000D03*
X105410000Y-45775000D03*
X113665000Y-66190000D03*
X109165000Y-66190000D03*
X113665000Y-59690000D03*
X109165000Y-59690000D03*
X100480000Y-41275000D03*
X100480000Y-45775000D03*
X93980000Y-41275000D03*
X93980000Y-45775000D03*
D10*
X119380000Y-69850000D03*
X119380000Y-67310000D03*
X119380000Y-64770000D03*
X119380000Y-62230000D03*
X119380000Y-59690000D03*
X119380000Y-57150000D03*
X119380000Y-54610000D03*
X119380000Y-52070000D03*
X119380000Y-49530000D03*
X119380000Y-46990000D03*
X86360000Y-49530000D03*
X86360000Y-52070000D03*
X86360000Y-54610000D03*
X86360000Y-57150000D03*
X86360000Y-59690000D03*
X86360000Y-62230000D03*
X86360000Y-64770000D03*
X86360000Y-67310000D03*
X86360000Y-46990000D03*
X86360000Y-69850000D03*
G04 #@! TA.AperFunction,SMDPad,CuDef*
G36*
G01*
X98038499Y-62925000D02*
X98938501Y-62925000D01*
G75*
G02*
X99188500Y-63174999I0J-249999D01*
G01*
X99188500Y-63825001D01*
G75*
G02*
X98938501Y-64075000I-249999J0D01*
G01*
X98038499Y-64075000D01*
G75*
G02*
X97788500Y-63825001I0J249999D01*
G01*
X97788500Y-63174999D01*
G75*
G02*
X98038499Y-62925000I249999J0D01*
G01*
G37*
G04 #@! TD.AperFunction*
G04 #@! TA.AperFunction,SMDPad,CuDef*
G36*
G01*
X98038499Y-60875000D02*
X98938501Y-60875000D01*
G75*
G02*
X99188500Y-61124999I0J-249999D01*
G01*
X99188500Y-61775001D01*
G75*
G02*
X98938501Y-62025000I-249999J0D01*
G01*
X98038499Y-62025000D01*
G75*
G02*
X97788500Y-61775001I0J249999D01*
G01*
X97788500Y-61124999D01*
G75*
G02*
X98038499Y-60875000I249999J0D01*
G01*
G37*
G04 #@! TD.AperFunction*
G04 #@! TA.AperFunction,SMDPad,CuDef*
G36*
G01*
X96006499Y-60875000D02*
X96906501Y-60875000D01*
G75*
G02*
X97156500Y-61124999I0J-249999D01*
G01*
X97156500Y-61775001D01*
G75*
G02*
X96906501Y-62025000I-249999J0D01*
G01*
X96006499Y-62025000D01*
G75*
G02*
X95756500Y-61775001I0J249999D01*
G01*
X95756500Y-61124999D01*
G75*
G02*
X96006499Y-60875000I249999J0D01*
G01*
G37*
G04 #@! TD.AperFunction*
G04 #@! TA.AperFunction,SMDPad,CuDef*
G36*
G01*
X96006499Y-62925000D02*
X96906501Y-62925000D01*
G75*
G02*
X97156500Y-63174999I0J-249999D01*
G01*
X97156500Y-63825001D01*
G75*
G02*
X96906501Y-64075000I-249999J0D01*
G01*
X96006499Y-64075000D01*
G75*
G02*
X95756500Y-63825001I0J249999D01*
G01*
X95756500Y-63174999D01*
G75*
G02*
X96006499Y-62925000I249999J0D01*
G01*
G37*
G04 #@! TD.AperFunction*
G04 #@! TA.AperFunction,SMDPad,CuDef*
G36*
G01*
X89084999Y-65147500D02*
X89985001Y-65147500D01*
G75*
G02*
X90235000Y-65397499I0J-249999D01*
G01*
X90235000Y-66047501D01*
G75*
G02*
X89985001Y-66297500I-249999J0D01*
G01*
X89084999Y-66297500D01*
G75*
G02*
X88835000Y-66047501I0J249999D01*
G01*
X88835000Y-65397499D01*
G75*
G02*
X89084999Y-65147500I249999J0D01*
G01*
G37*
G04 #@! TD.AperFunction*
G04 #@! TA.AperFunction,SMDPad,CuDef*
G36*
G01*
X89084999Y-67197500D02*
X89985001Y-67197500D01*
G75*
G02*
X90235000Y-67447499I0J-249999D01*
G01*
X90235000Y-68097501D01*
G75*
G02*
X89985001Y-68347500I-249999J0D01*
G01*
X89084999Y-68347500D01*
G75*
G02*
X88835000Y-68097501I0J249999D01*
G01*
X88835000Y-67447499D01*
G75*
G02*
X89084999Y-67197500I249999J0D01*
G01*
G37*
G04 #@! TD.AperFunction*
D13*
X105565000Y-74612500D03*
X109065000Y-74612500D03*
D14*
X109220000Y-49050000D03*
X109220000Y-52550000D03*
X112395000Y-52550000D03*
X112395000Y-49050000D03*
D13*
X113510000Y-71755000D03*
X110010000Y-71755000D03*
G04 #@! TA.AperFunction,SMDPad,CuDef*
G36*
G01*
X102102499Y-60875000D02*
X103002501Y-60875000D01*
G75*
G02*
X103252500Y-61124999I0J-249999D01*
G01*
X103252500Y-61775001D01*
G75*
G02*
X103002501Y-62025000I-249999J0D01*
G01*
X102102499Y-62025000D01*
G75*
G02*
X101852500Y-61775001I0J249999D01*
G01*
X101852500Y-61124999D01*
G75*
G02*
X102102499Y-60875000I249999J0D01*
G01*
G37*
G04 #@! TD.AperFunction*
G04 #@! TA.AperFunction,SMDPad,CuDef*
G36*
G01*
X102102499Y-62925000D02*
X103002501Y-62925000D01*
G75*
G02*
X103252500Y-63174999I0J-249999D01*
G01*
X103252500Y-63825001D01*
G75*
G02*
X103002501Y-64075000I-249999J0D01*
G01*
X102102499Y-64075000D01*
G75*
G02*
X101852500Y-63825001I0J249999D01*
G01*
X101852500Y-63174999D01*
G75*
G02*
X102102499Y-62925000I249999J0D01*
G01*
G37*
G04 #@! TD.AperFunction*
G04 #@! TA.AperFunction,SMDPad,CuDef*
G36*
G01*
X100970501Y-62025000D02*
X100070499Y-62025000D01*
G75*
G02*
X99820500Y-61775001I0J249999D01*
G01*
X99820500Y-61124999D01*
G75*
G02*
X100070499Y-60875000I249999J0D01*
G01*
X100970501Y-60875000D01*
G75*
G02*
X101220500Y-61124999I0J-249999D01*
G01*
X101220500Y-61775001D01*
G75*
G02*
X100970501Y-62025000I-249999J0D01*
G01*
G37*
G04 #@! TD.AperFunction*
G04 #@! TA.AperFunction,SMDPad,CuDef*
G36*
G01*
X100970501Y-64075000D02*
X100070499Y-64075000D01*
G75*
G02*
X99820500Y-63825001I0J249999D01*
G01*
X99820500Y-63174999D01*
G75*
G02*
X100070499Y-62925000I249999J0D01*
G01*
X100970501Y-62925000D01*
G75*
G02*
X101220500Y-63174999I0J-249999D01*
G01*
X101220500Y-63825001D01*
G75*
G02*
X100970501Y-64075000I-249999J0D01*
G01*
G37*
G04 #@! TD.AperFunction*
G04 #@! TA.AperFunction,SMDPad,CuDef*
G36*
G01*
X91942499Y-60875000D02*
X92842501Y-60875000D01*
G75*
G02*
X93092500Y-61124999I0J-249999D01*
G01*
X93092500Y-61775001D01*
G75*
G02*
X92842501Y-62025000I-249999J0D01*
G01*
X91942499Y-62025000D01*
G75*
G02*
X91692500Y-61775001I0J249999D01*
G01*
X91692500Y-61124999D01*
G75*
G02*
X91942499Y-60875000I249999J0D01*
G01*
G37*
G04 #@! TD.AperFunction*
G04 #@! TA.AperFunction,SMDPad,CuDef*
G36*
G01*
X91942499Y-62925000D02*
X92842501Y-62925000D01*
G75*
G02*
X93092500Y-63174999I0J-249999D01*
G01*
X93092500Y-63825001D01*
G75*
G02*
X92842501Y-64075000I-249999J0D01*
G01*
X91942499Y-64075000D01*
G75*
G02*
X91692500Y-63825001I0J249999D01*
G01*
X91692500Y-63174999D01*
G75*
G02*
X91942499Y-62925000I249999J0D01*
G01*
G37*
G04 #@! TD.AperFunction*
G04 #@! TA.AperFunction,SMDPad,CuDef*
G36*
G01*
X94874501Y-62025000D02*
X93974499Y-62025000D01*
G75*
G02*
X93724500Y-61775001I0J249999D01*
G01*
X93724500Y-61124999D01*
G75*
G02*
X93974499Y-60875000I249999J0D01*
G01*
X94874501Y-60875000D01*
G75*
G02*
X95124500Y-61124999I0J-249999D01*
G01*
X95124500Y-61775001D01*
G75*
G02*
X94874501Y-62025000I-249999J0D01*
G01*
G37*
G04 #@! TD.AperFunction*
G04 #@! TA.AperFunction,SMDPad,CuDef*
G36*
G01*
X94874501Y-64075000D02*
X93974499Y-64075000D01*
G75*
G02*
X93724500Y-63825001I0J249999D01*
G01*
X93724500Y-63174999D01*
G75*
G02*
X93974499Y-62925000I249999J0D01*
G01*
X94874501Y-62925000D01*
G75*
G02*
X95124500Y-63174999I0J-249999D01*
G01*
X95124500Y-63825001D01*
G75*
G02*
X94874501Y-64075000I-249999J0D01*
G01*
G37*
G04 #@! TD.AperFunction*
D15*
X94615000Y-72230000D03*
X95885000Y-72230000D03*
X97155000Y-72230000D03*
X98425000Y-72230000D03*
X99695000Y-72230000D03*
X100965000Y-72230000D03*
X102235000Y-72230000D03*
X103505000Y-72230000D03*
X103505000Y-77630000D03*
X102235000Y-77630000D03*
X100965000Y-77630000D03*
X99695000Y-77630000D03*
X98425000Y-77630000D03*
X97155000Y-77630000D03*
X95885000Y-77630000D03*
X94615000Y-77630000D03*
G04 #@! TA.AperFunction,SMDPad,CuDef*
G36*
G01*
X92525001Y-78117500D02*
X91624999Y-78117500D01*
G75*
G02*
X91375000Y-77867501I0J249999D01*
G01*
X91375000Y-77217499D01*
G75*
G02*
X91624999Y-76967500I249999J0D01*
G01*
X92525001Y-76967500D01*
G75*
G02*
X92775000Y-77217499I0J-249999D01*
G01*
X92775000Y-77867501D01*
G75*
G02*
X92525001Y-78117500I-249999J0D01*
G01*
G37*
G04 #@! TD.AperFunction*
G04 #@! TA.AperFunction,SMDPad,CuDef*
G36*
G01*
X92525001Y-76067500D02*
X91624999Y-76067500D01*
G75*
G02*
X91375000Y-75817501I0J249999D01*
G01*
X91375000Y-75167499D01*
G75*
G02*
X91624999Y-74917500I249999J0D01*
G01*
X92525001Y-74917500D01*
G75*
G02*
X92775000Y-75167499I0J-249999D01*
G01*
X92775000Y-75817501D01*
G75*
G02*
X92525001Y-76067500I-249999J0D01*
G01*
G37*
G04 #@! TD.AperFunction*
D16*
X98100000Y-70300000D03*
X90805000Y-52070000D03*
X104457500Y-61595000D03*
X88900000Y-46990000D03*
X90805000Y-72390000D03*
X88900000Y-62865000D03*
X91757500Y-58420000D03*
D17*
X94615000Y-52387500D02*
X94615000Y-49530000D01*
X94615000Y-49530000D02*
X86360000Y-49530000D01*
X99060000Y-53340000D02*
X95567500Y-53340000D01*
X95567500Y-53340000D02*
X94615000Y-52387500D01*
X101282500Y-55562500D02*
X99060000Y-53340000D01*
X95885000Y-72230000D02*
X95885000Y-69532500D01*
X96520000Y-68897500D02*
X99060000Y-68897500D01*
X99060000Y-68897500D02*
X100417499Y-67540001D01*
X95885000Y-69532500D02*
X96520000Y-68897500D01*
X106045000Y-62230000D02*
X107315000Y-60960000D01*
X100417499Y-67540001D02*
X104544999Y-67540001D01*
X104544999Y-67540001D02*
X105092500Y-66992500D01*
X105092500Y-66992500D02*
X105092500Y-64770000D01*
X105092500Y-64770000D02*
X106045000Y-63817500D01*
X106045000Y-63817500D02*
X106045000Y-62230000D01*
X107315000Y-60960000D02*
X107315000Y-57150000D01*
X107315000Y-57150000D02*
X105727500Y-55562500D01*
X105727500Y-55562500D02*
X101282500Y-55562500D01*
X86360000Y-52070000D02*
X90805000Y-52070000D01*
D18*
X90805000Y-52070000D02*
X90805000Y-52070000D01*
D17*
X97155000Y-72230000D02*
X97155000Y-70485000D01*
X97340000Y-70300000D02*
X97155000Y-70485000D01*
X98100000Y-70300000D02*
X97340000Y-70300000D01*
D19*
X92870000Y-72230000D02*
X94615000Y-72230000D01*
D17*
X94615000Y-73580000D02*
X96600000Y-75565000D01*
X94615000Y-72230000D02*
X94615000Y-73580000D01*
X96600000Y-75565000D02*
X103505000Y-75565000D01*
X103505000Y-75565000D02*
X104775000Y-76835000D01*
X104775000Y-76835000D02*
X106997500Y-76835000D01*
X106997500Y-76835000D02*
X107315000Y-76517500D01*
X107315000Y-76517500D02*
X107315000Y-73342500D01*
X106202500Y-72230000D02*
X103505000Y-72230000D01*
X107315000Y-73342500D02*
X106202500Y-72230000D01*
D19*
X92870000Y-70010000D02*
X92710000Y-69850000D01*
X92870000Y-72230000D02*
X92870000Y-70010000D01*
D17*
X96456500Y-63500000D02*
X98488500Y-63500000D01*
X99060000Y-65445000D02*
X99655000Y-66040000D01*
X99060000Y-64030787D02*
X99060000Y-65445000D01*
X98592713Y-63563500D02*
X99060000Y-64030787D01*
X98488500Y-63500000D02*
X98488500Y-63563500D01*
X98488500Y-63563500D02*
X98592713Y-63563500D01*
X89535000Y-67772500D02*
X89535000Y-69850000D01*
D19*
X86360000Y-69850000D02*
X89535000Y-69850000D01*
X89535000Y-69850000D02*
X92710000Y-69850000D01*
D18*
X92710000Y-67945000D02*
X92710000Y-69850000D01*
X98107500Y-67945000D02*
X92710000Y-67945000D01*
X99655000Y-66040000D02*
X99655000Y-66397500D01*
X99655000Y-66397500D02*
X98107500Y-67945000D01*
D17*
X98488500Y-61450000D02*
X100520500Y-61450000D01*
X100711000Y-58166000D02*
X100711000Y-61450000D01*
X86360000Y-54610000D02*
X97155000Y-54610000D01*
X97155000Y-54610000D02*
X100711000Y-58166000D01*
X94424500Y-61450000D02*
X96456500Y-61450000D01*
X96647000Y-56007000D02*
X96647000Y-61450000D01*
X96520000Y-55880000D02*
X96647000Y-56007000D01*
X91440000Y-55880000D02*
X96520000Y-55880000D01*
X91440000Y-55880000D02*
X90170000Y-57150000D01*
X86360000Y-57150000D02*
X90170000Y-57150000D01*
X94527500Y-77542500D02*
X94615000Y-77630000D01*
X92075000Y-77542500D02*
X94527500Y-77542500D01*
D19*
X86360000Y-46990000D02*
X88900000Y-46990000D01*
X88900000Y-46990000D02*
X88900000Y-46990000D01*
D17*
X90805000Y-73521370D02*
X90805000Y-72390000D01*
X90170000Y-74156370D02*
X90805000Y-73521370D01*
X90170000Y-77152500D02*
X90170000Y-74156370D01*
X90560000Y-77542500D02*
X90170000Y-77152500D01*
X92075000Y-77542500D02*
X90560000Y-77542500D01*
X89462500Y-46427500D02*
X88900000Y-46990000D01*
X91122500Y-46427500D02*
X89462500Y-46427500D01*
X90315000Y-61450000D02*
X88900000Y-62865000D01*
X92392500Y-61450000D02*
X90315000Y-61450000D01*
X89535000Y-63500000D02*
X88900000Y-62865000D01*
X89535000Y-65722500D02*
X89535000Y-63500000D01*
X104312500Y-61450000D02*
X104457500Y-61595000D01*
X102552500Y-61450000D02*
X104312500Y-61450000D01*
X109220000Y-45085000D02*
X109220000Y-49050000D01*
X105410000Y-41275000D02*
X109220000Y-45085000D01*
X113982500Y-48912500D02*
X113845000Y-49050000D01*
X113982500Y-43497500D02*
X113982500Y-48912500D01*
X100480000Y-41275000D02*
X101479999Y-40275001D01*
X101479999Y-40275001D02*
X101647499Y-40275001D01*
X101647499Y-40275001D02*
X102552500Y-39370000D01*
X113845000Y-49050000D02*
X112395000Y-49050000D01*
X102552500Y-39370000D02*
X106997500Y-39370000D01*
X106997500Y-39370000D02*
X111125000Y-43497500D01*
X111125000Y-43497500D02*
X113982500Y-43497500D01*
X113665000Y-71600000D02*
X113510000Y-71755000D01*
X113665000Y-66190000D02*
X113665000Y-71600000D01*
X102743000Y-65452000D02*
X102155000Y-66040000D01*
X102552500Y-63500000D02*
X102552500Y-65452000D01*
X102552500Y-63500000D02*
X100520500Y-63500000D01*
X92392500Y-63500000D02*
X94424500Y-63500000D01*
X96647000Y-65532000D02*
X97155000Y-66040000D01*
X95555000Y-66040000D02*
X97155000Y-66040000D01*
X94424500Y-64909500D02*
X95555000Y-66040000D01*
X94424500Y-63500000D02*
X94424500Y-64909500D01*
D18*
X92075000Y-75492500D02*
X94860000Y-75492500D01*
X95885000Y-77180000D02*
X95885000Y-77630000D01*
X94860000Y-75492500D02*
X95567500Y-76200000D01*
X95885000Y-76380000D02*
X95885000Y-77630000D01*
X95705000Y-76200000D02*
X95885000Y-76380000D01*
X95567500Y-76200000D02*
X95705000Y-76200000D01*
X95885000Y-77630000D02*
X97155000Y-77630000D01*
X97155000Y-77630000D02*
X98425000Y-77630000D01*
D19*
X102155000Y-51540000D02*
X102155000Y-46275000D01*
X100480000Y-45775000D02*
X101655000Y-45775000D01*
X102155000Y-51540000D02*
X106150000Y-51540000D01*
X106150000Y-51540000D02*
X106680000Y-52070000D01*
X106680000Y-52070000D02*
X106680000Y-54610000D01*
X109165000Y-57095000D02*
X109165000Y-59690000D01*
X106680000Y-54610000D02*
X109165000Y-57095000D01*
D17*
X92582500Y-44377500D02*
X93980000Y-45775000D01*
X91122500Y-44377500D02*
X92582500Y-44377500D01*
X86360000Y-59690000D02*
X90487500Y-59690000D01*
X90487500Y-59690000D02*
X91757500Y-58420000D01*
X91757500Y-58420000D02*
X91757500Y-58420000D01*
X102155000Y-45800000D02*
X102180000Y-45775000D01*
X102155000Y-46275000D02*
X102155000Y-45800000D01*
D19*
X101655000Y-45775000D02*
X102180000Y-45775000D01*
X102180000Y-45775000D02*
X105410000Y-45775000D01*
D17*
X107632500Y-46990000D02*
X106680000Y-47942500D01*
X107632500Y-45402500D02*
X107632500Y-46990000D01*
X115570000Y-54610000D02*
X117157500Y-56197500D01*
X98742500Y-43497500D02*
X105727500Y-43497500D01*
X114617500Y-50800000D02*
X115570000Y-51752500D01*
X97155000Y-45085000D02*
X98742500Y-43497500D01*
X117157500Y-56197500D02*
X117157500Y-63817500D01*
X97155000Y-51540000D02*
X97155000Y-45085000D01*
X106680000Y-47942500D02*
X106680000Y-49847500D01*
X106680000Y-49847500D02*
X107632500Y-50800000D01*
X107632500Y-50800000D02*
X114617500Y-50800000D01*
X115570000Y-51752500D02*
X115570000Y-54610000D01*
X105727500Y-43497500D02*
X107632500Y-45402500D01*
X117157500Y-63817500D02*
X115887500Y-65087500D01*
X115887500Y-65087500D02*
X115887500Y-72390000D01*
X113665000Y-74612500D02*
X113823750Y-74453750D01*
X109065000Y-74612500D02*
X113665000Y-74612500D01*
X115887500Y-72390000D02*
X113823750Y-74453750D01*
X98425000Y-72230000D02*
X98425000Y-73580000D01*
X98425000Y-73580000D02*
X98822500Y-73977500D01*
X98822500Y-73977500D02*
X103822500Y-73977500D01*
X104315000Y-74612500D02*
X105565000Y-74612500D01*
X103822500Y-74120000D02*
X104315000Y-74612500D01*
X103822500Y-73977500D02*
X103822500Y-74120000D01*
X109220000Y-54610000D02*
X109220000Y-52550000D01*
X109220000Y-62865000D02*
X111442500Y-62865000D01*
X99695000Y-72230000D02*
X99695000Y-69850000D01*
X100965000Y-68580000D02*
X106362500Y-68580000D01*
X111442500Y-56832500D02*
X109220000Y-54610000D01*
X106362500Y-68580000D02*
X106997500Y-67945000D01*
X106997500Y-67945000D02*
X106997500Y-65087500D01*
X111442500Y-62865000D02*
X111442500Y-56832500D01*
X99695000Y-69850000D02*
X100965000Y-68580000D01*
X106997500Y-65087500D02*
X109220000Y-62865000D01*
X112395000Y-63817500D02*
X113665000Y-63817500D01*
X100965000Y-72230000D02*
X100965000Y-70167500D01*
X115887500Y-61595000D02*
X115887500Y-57785000D01*
X100965000Y-70167500D02*
X101600000Y-69532500D01*
X115887500Y-57785000D02*
X112395000Y-54292500D01*
X101600000Y-69532500D02*
X111125000Y-69532500D01*
X111125000Y-69532500D02*
X111442500Y-69215000D01*
X112395000Y-54292500D02*
X112395000Y-52550000D01*
X111442500Y-69215000D02*
X111442500Y-64770000D01*
X113665000Y-63817500D02*
X115887500Y-61595000D01*
X111442500Y-64770000D02*
X112395000Y-63817500D01*
X107950000Y-71755000D02*
X110010000Y-71755000D01*
X106680000Y-70485000D02*
X107950000Y-71755000D01*
X102552500Y-70485000D02*
X106680000Y-70485000D01*
X102235000Y-72230000D02*
X102235000Y-70802500D01*
X102235000Y-70802500D02*
X102552500Y-70485000D01*
M02*
