G04 #@! TF.GenerationSoftware,KiCad,Pcbnew,(5.1.8)-1*
G04 #@! TF.CreationDate,2020-11-07T14:42:55+03:00*
G04 #@! TF.ProjectId,valc,76616c63-2e6b-4696-9361-645f70636258,rev?*
G04 #@! TF.SameCoordinates,Original*
G04 #@! TF.FileFunction,Soldermask,Top*
G04 #@! TF.FilePolarity,Negative*
%FSLAX46Y46*%
G04 Gerber Fmt 4.6, Leading zero omitted, Abs format (unit mm)*
G04 Created by KiCad (PCBNEW (5.1.8)-1) date 2020-11-07 14:42:55*
%MOMM*%
%LPD*%
G01*
G04 APERTURE LIST*
%ADD10C,2.102000*%
%ADD11C,3.302000*%
G04 APERTURE END LIST*
G36*
G01*
X98155000Y-67091000D02*
X96155000Y-67091000D01*
G75*
G02*
X96104000Y-67040000I0J51000D01*
G01*
X96104000Y-65040000D01*
G75*
G02*
X96155000Y-64989000I51000J0D01*
G01*
X98155000Y-64989000D01*
G75*
G02*
X98206000Y-65040000I0J-51000D01*
G01*
X98206000Y-67040000D01*
G75*
G02*
X98155000Y-67091000I-51000J0D01*
G01*
G37*
D10*
X99655000Y-66040000D03*
X102155000Y-66040000D03*
G36*
G01*
X95055000Y-60191000D02*
X93055000Y-60191000D01*
G75*
G02*
X93004000Y-60140000I0J51000D01*
G01*
X93004000Y-56940000D01*
G75*
G02*
X93055000Y-56889000I51000J0D01*
G01*
X95055000Y-56889000D01*
G75*
G02*
X95106000Y-56940000I0J-51000D01*
G01*
X95106000Y-60140000D01*
G75*
G02*
X95055000Y-60191000I-51000J0D01*
G01*
G37*
G36*
G01*
X106255000Y-60191000D02*
X104255000Y-60191000D01*
G75*
G02*
X104204000Y-60140000I0J51000D01*
G01*
X104204000Y-56940000D01*
G75*
G02*
X104255000Y-56889000I51000J0D01*
G01*
X106255000Y-56889000D01*
G75*
G02*
X106306000Y-56940000I0J-51000D01*
G01*
X106306000Y-60140000D01*
G75*
G02*
X106255000Y-60191000I-51000J0D01*
G01*
G37*
X97155000Y-51540000D03*
X102155000Y-51540000D03*
X111910000Y-41275000D03*
X111910000Y-45775000D03*
X105410000Y-41275000D03*
X105410000Y-45775000D03*
X113665000Y-66190000D03*
X109165000Y-66190000D03*
X113665000Y-59690000D03*
X109165000Y-59690000D03*
X100480000Y-41275000D03*
X100480000Y-45775000D03*
X93980000Y-41275000D03*
X93980000Y-45775000D03*
D11*
X86360000Y-41910000D03*
X86360000Y-74930000D03*
X119380000Y-41910000D03*
X119380000Y-74930000D03*
G36*
G01*
X118329000Y-70850000D02*
X118329000Y-68850000D01*
G75*
G02*
X118380000Y-68799000I51000J0D01*
G01*
X120380000Y-68799000D01*
G75*
G02*
X120431000Y-68850000I0J-51000D01*
G01*
X120431000Y-70850000D01*
G75*
G02*
X120380000Y-70901000I-51000J0D01*
G01*
X118380000Y-70901000D01*
G75*
G02*
X118329000Y-70850000I0J51000D01*
G01*
G37*
G36*
G01*
X118329000Y-68310000D02*
X118329000Y-66310000D01*
G75*
G02*
X118380000Y-66259000I51000J0D01*
G01*
X120380000Y-66259000D01*
G75*
G02*
X120431000Y-66310000I0J-51000D01*
G01*
X120431000Y-68310000D01*
G75*
G02*
X120380000Y-68361000I-51000J0D01*
G01*
X118380000Y-68361000D01*
G75*
G02*
X118329000Y-68310000I0J51000D01*
G01*
G37*
G36*
G01*
X118329000Y-65770000D02*
X118329000Y-63770000D01*
G75*
G02*
X118380000Y-63719000I51000J0D01*
G01*
X120380000Y-63719000D01*
G75*
G02*
X120431000Y-63770000I0J-51000D01*
G01*
X120431000Y-65770000D01*
G75*
G02*
X120380000Y-65821000I-51000J0D01*
G01*
X118380000Y-65821000D01*
G75*
G02*
X118329000Y-65770000I0J51000D01*
G01*
G37*
G36*
G01*
X118329000Y-63230000D02*
X118329000Y-61230000D01*
G75*
G02*
X118380000Y-61179000I51000J0D01*
G01*
X120380000Y-61179000D01*
G75*
G02*
X120431000Y-61230000I0J-51000D01*
G01*
X120431000Y-63230000D01*
G75*
G02*
X120380000Y-63281000I-51000J0D01*
G01*
X118380000Y-63281000D01*
G75*
G02*
X118329000Y-63230000I0J51000D01*
G01*
G37*
G36*
G01*
X118329000Y-60690000D02*
X118329000Y-58690000D01*
G75*
G02*
X118380000Y-58639000I51000J0D01*
G01*
X120380000Y-58639000D01*
G75*
G02*
X120431000Y-58690000I0J-51000D01*
G01*
X120431000Y-60690000D01*
G75*
G02*
X120380000Y-60741000I-51000J0D01*
G01*
X118380000Y-60741000D01*
G75*
G02*
X118329000Y-60690000I0J51000D01*
G01*
G37*
G36*
G01*
X118329000Y-58150000D02*
X118329000Y-56150000D01*
G75*
G02*
X118380000Y-56099000I51000J0D01*
G01*
X120380000Y-56099000D01*
G75*
G02*
X120431000Y-56150000I0J-51000D01*
G01*
X120431000Y-58150000D01*
G75*
G02*
X120380000Y-58201000I-51000J0D01*
G01*
X118380000Y-58201000D01*
G75*
G02*
X118329000Y-58150000I0J51000D01*
G01*
G37*
G36*
G01*
X118329000Y-55610000D02*
X118329000Y-53610000D01*
G75*
G02*
X118380000Y-53559000I51000J0D01*
G01*
X120380000Y-53559000D01*
G75*
G02*
X120431000Y-53610000I0J-51000D01*
G01*
X120431000Y-55610000D01*
G75*
G02*
X120380000Y-55661000I-51000J0D01*
G01*
X118380000Y-55661000D01*
G75*
G02*
X118329000Y-55610000I0J51000D01*
G01*
G37*
G36*
G01*
X118329000Y-53070000D02*
X118329000Y-51070000D01*
G75*
G02*
X118380000Y-51019000I51000J0D01*
G01*
X120380000Y-51019000D01*
G75*
G02*
X120431000Y-51070000I0J-51000D01*
G01*
X120431000Y-53070000D01*
G75*
G02*
X120380000Y-53121000I-51000J0D01*
G01*
X118380000Y-53121000D01*
G75*
G02*
X118329000Y-53070000I0J51000D01*
G01*
G37*
G36*
G01*
X118329000Y-50530000D02*
X118329000Y-48530000D01*
G75*
G02*
X118380000Y-48479000I51000J0D01*
G01*
X120380000Y-48479000D01*
G75*
G02*
X120431000Y-48530000I0J-51000D01*
G01*
X120431000Y-50530000D01*
G75*
G02*
X120380000Y-50581000I-51000J0D01*
G01*
X118380000Y-50581000D01*
G75*
G02*
X118329000Y-50530000I0J51000D01*
G01*
G37*
G36*
G01*
X118329000Y-47990000D02*
X118329000Y-45990000D01*
G75*
G02*
X118380000Y-45939000I51000J0D01*
G01*
X120380000Y-45939000D01*
G75*
G02*
X120431000Y-45990000I0J-51000D01*
G01*
X120431000Y-47990000D01*
G75*
G02*
X120380000Y-48041000I-51000J0D01*
G01*
X118380000Y-48041000D01*
G75*
G02*
X118329000Y-47990000I0J51000D01*
G01*
G37*
G36*
G01*
X85309000Y-50530000D02*
X85309000Y-48530000D01*
G75*
G02*
X85360000Y-48479000I51000J0D01*
G01*
X87360000Y-48479000D01*
G75*
G02*
X87411000Y-48530000I0J-51000D01*
G01*
X87411000Y-50530000D01*
G75*
G02*
X87360000Y-50581000I-51000J0D01*
G01*
X85360000Y-50581000D01*
G75*
G02*
X85309000Y-50530000I0J51000D01*
G01*
G37*
G36*
G01*
X85309000Y-53070000D02*
X85309000Y-51070000D01*
G75*
G02*
X85360000Y-51019000I51000J0D01*
G01*
X87360000Y-51019000D01*
G75*
G02*
X87411000Y-51070000I0J-51000D01*
G01*
X87411000Y-53070000D01*
G75*
G02*
X87360000Y-53121000I-51000J0D01*
G01*
X85360000Y-53121000D01*
G75*
G02*
X85309000Y-53070000I0J51000D01*
G01*
G37*
G36*
G01*
X85309000Y-55610000D02*
X85309000Y-53610000D01*
G75*
G02*
X85360000Y-53559000I51000J0D01*
G01*
X87360000Y-53559000D01*
G75*
G02*
X87411000Y-53610000I0J-51000D01*
G01*
X87411000Y-55610000D01*
G75*
G02*
X87360000Y-55661000I-51000J0D01*
G01*
X85360000Y-55661000D01*
G75*
G02*
X85309000Y-55610000I0J51000D01*
G01*
G37*
G36*
G01*
X85309000Y-58150000D02*
X85309000Y-56150000D01*
G75*
G02*
X85360000Y-56099000I51000J0D01*
G01*
X87360000Y-56099000D01*
G75*
G02*
X87411000Y-56150000I0J-51000D01*
G01*
X87411000Y-58150000D01*
G75*
G02*
X87360000Y-58201000I-51000J0D01*
G01*
X85360000Y-58201000D01*
G75*
G02*
X85309000Y-58150000I0J51000D01*
G01*
G37*
G36*
G01*
X85309000Y-60690000D02*
X85309000Y-58690000D01*
G75*
G02*
X85360000Y-58639000I51000J0D01*
G01*
X87360000Y-58639000D01*
G75*
G02*
X87411000Y-58690000I0J-51000D01*
G01*
X87411000Y-60690000D01*
G75*
G02*
X87360000Y-60741000I-51000J0D01*
G01*
X85360000Y-60741000D01*
G75*
G02*
X85309000Y-60690000I0J51000D01*
G01*
G37*
G36*
G01*
X85309000Y-63230000D02*
X85309000Y-61230000D01*
G75*
G02*
X85360000Y-61179000I51000J0D01*
G01*
X87360000Y-61179000D01*
G75*
G02*
X87411000Y-61230000I0J-51000D01*
G01*
X87411000Y-63230000D01*
G75*
G02*
X87360000Y-63281000I-51000J0D01*
G01*
X85360000Y-63281000D01*
G75*
G02*
X85309000Y-63230000I0J51000D01*
G01*
G37*
G36*
G01*
X85309000Y-65770000D02*
X85309000Y-63770000D01*
G75*
G02*
X85360000Y-63719000I51000J0D01*
G01*
X87360000Y-63719000D01*
G75*
G02*
X87411000Y-63770000I0J-51000D01*
G01*
X87411000Y-65770000D01*
G75*
G02*
X87360000Y-65821000I-51000J0D01*
G01*
X85360000Y-65821000D01*
G75*
G02*
X85309000Y-65770000I0J51000D01*
G01*
G37*
G36*
G01*
X85309000Y-68310000D02*
X85309000Y-66310000D01*
G75*
G02*
X85360000Y-66259000I51000J0D01*
G01*
X87360000Y-66259000D01*
G75*
G02*
X87411000Y-66310000I0J-51000D01*
G01*
X87411000Y-68310000D01*
G75*
G02*
X87360000Y-68361000I-51000J0D01*
G01*
X85360000Y-68361000D01*
G75*
G02*
X85309000Y-68310000I0J51000D01*
G01*
G37*
G36*
G01*
X85309000Y-47990000D02*
X85309000Y-45990000D01*
G75*
G02*
X85360000Y-45939000I51000J0D01*
G01*
X87360000Y-45939000D01*
G75*
G02*
X87411000Y-45990000I0J-51000D01*
G01*
X87411000Y-47990000D01*
G75*
G02*
X87360000Y-48041000I-51000J0D01*
G01*
X85360000Y-48041000D01*
G75*
G02*
X85309000Y-47990000I0J51000D01*
G01*
G37*
G36*
G01*
X85309000Y-70850000D02*
X85309000Y-68850000D01*
G75*
G02*
X85360000Y-68799000I51000J0D01*
G01*
X87360000Y-68799000D01*
G75*
G02*
X87411000Y-68850000I0J-51000D01*
G01*
X87411000Y-70850000D01*
G75*
G02*
X87360000Y-70901000I-51000J0D01*
G01*
X85360000Y-70901000D01*
G75*
G02*
X85309000Y-70850000I0J51000D01*
G01*
G37*
M02*
