G04 #@! TF.GenerationSoftware,KiCad,Pcbnew,(5.1.8)-1*
G04 #@! TF.CreationDate,2020-11-12T00:03:28+03:00*
G04 #@! TF.ProjectId,valc,76616c63-2e6b-4696-9361-645f70636258,rev?*
G04 #@! TF.SameCoordinates,Original*
G04 #@! TF.FileFunction,Legend,Bot*
G04 #@! TF.FilePolarity,Positive*
%FSLAX46Y46*%
G04 Gerber Fmt 4.6, Leading zero omitted, Abs format (unit mm)*
G04 Created by KiCad (PCBNEW (5.1.8)-1) date 2020-11-12 00:03:28*
%MOMM*%
%LPD*%
G01*
G04 APERTURE LIST*
%ADD10C,0.120000*%
%ADD11C,0.150000*%
G04 APERTURE END LIST*
D10*
X91832500Y-45663752D02*
X91832500Y-45141248D01*
X90412500Y-45663752D02*
X90412500Y-45141248D01*
X99198500Y-62213748D02*
X99198500Y-62736252D01*
X97778500Y-62213748D02*
X97778500Y-62736252D01*
X95746500Y-62213748D02*
X95746500Y-62736252D01*
X97166500Y-62213748D02*
X97166500Y-62736252D01*
X88825000Y-66486248D02*
X88825000Y-67008752D01*
X90245000Y-66486248D02*
X90245000Y-67008752D01*
X109065000Y-75612500D02*
X104765000Y-75612500D01*
X104765000Y-75612500D02*
X104765000Y-73612500D01*
X104765000Y-73612500D02*
X109065000Y-73612500D01*
X108220000Y-53350000D02*
X108220000Y-49050000D01*
X110220000Y-53350000D02*
X108220000Y-53350000D01*
X110220000Y-49050000D02*
X110220000Y-53350000D01*
X113395000Y-49050000D02*
X113395000Y-53350000D01*
X113395000Y-53350000D02*
X111395000Y-53350000D01*
X111395000Y-53350000D02*
X111395000Y-49050000D01*
X109210000Y-70755000D02*
X113510000Y-70755000D01*
X109210000Y-72755000D02*
X109210000Y-70755000D01*
X113510000Y-72755000D02*
X109210000Y-72755000D01*
X101842500Y-62213748D02*
X101842500Y-62736252D01*
X103262500Y-62213748D02*
X103262500Y-62736252D01*
X99810500Y-62736252D02*
X99810500Y-62213748D01*
X101230500Y-62736252D02*
X101230500Y-62213748D01*
X91682500Y-62213748D02*
X91682500Y-62736252D01*
X93102500Y-62213748D02*
X93102500Y-62736252D01*
X93714500Y-62736252D02*
X93714500Y-62213748D01*
X95134500Y-62736252D02*
X95134500Y-62213748D01*
D11*
X93985000Y-72855000D02*
X94010000Y-72855000D01*
X93985000Y-77005000D02*
X94090000Y-77005000D01*
X104135000Y-77005000D02*
X104030000Y-77005000D01*
X104135000Y-72855000D02*
X104030000Y-72855000D01*
X93985000Y-72855000D02*
X93985000Y-77005000D01*
X104135000Y-72855000D02*
X104135000Y-77005000D01*
X94010000Y-72855000D02*
X94010000Y-71480000D01*
D10*
X92785000Y-76778752D02*
X92785000Y-76256248D01*
X91365000Y-76778752D02*
X91365000Y-76256248D01*
D11*
X91574880Y-42378333D02*
X91098690Y-42045000D01*
X91574880Y-41806904D02*
X90574880Y-41806904D01*
X90574880Y-42187857D01*
X90622500Y-42283095D01*
X90670119Y-42330714D01*
X90765357Y-42378333D01*
X90908214Y-42378333D01*
X91003452Y-42330714D01*
X91051071Y-42283095D01*
X91098690Y-42187857D01*
X91098690Y-41806904D01*
X90574880Y-43283095D02*
X90574880Y-42806904D01*
X91051071Y-42759285D01*
X91003452Y-42806904D01*
X90955833Y-42902142D01*
X90955833Y-43140238D01*
X91003452Y-43235476D01*
X91051071Y-43283095D01*
X91146309Y-43330714D01*
X91384404Y-43330714D01*
X91479642Y-43283095D01*
X91527261Y-43235476D01*
X91574880Y-43140238D01*
X91574880Y-42902142D01*
X91527261Y-42806904D01*
X91479642Y-42759285D01*
X98782142Y-59523333D02*
X98829761Y-59475714D01*
X98877380Y-59332857D01*
X98877380Y-59237619D01*
X98829761Y-59094761D01*
X98734523Y-58999523D01*
X98639285Y-58951904D01*
X98448809Y-58904285D01*
X98305952Y-58904285D01*
X98115476Y-58951904D01*
X98020238Y-58999523D01*
X97925000Y-59094761D01*
X97877380Y-59237619D01*
X97877380Y-59332857D01*
X97925000Y-59475714D01*
X97972619Y-59523333D01*
X98877380Y-60475714D02*
X98877380Y-59904285D01*
X98877380Y-60190000D02*
X97877380Y-60190000D01*
X98020238Y-60094761D01*
X98115476Y-59999523D01*
X98163095Y-59904285D01*
X96877142Y-59523333D02*
X96924761Y-59475714D01*
X96972380Y-59332857D01*
X96972380Y-59237619D01*
X96924761Y-59094761D01*
X96829523Y-58999523D01*
X96734285Y-58951904D01*
X96543809Y-58904285D01*
X96400952Y-58904285D01*
X96210476Y-58951904D01*
X96115238Y-58999523D01*
X96020000Y-59094761D01*
X95972380Y-59237619D01*
X95972380Y-59332857D01*
X96020000Y-59475714D01*
X96067619Y-59523333D01*
X96067619Y-59904285D02*
X96020000Y-59951904D01*
X95972380Y-60047142D01*
X95972380Y-60285238D01*
X96020000Y-60380476D01*
X96067619Y-60428095D01*
X96162857Y-60475714D01*
X96258095Y-60475714D01*
X96400952Y-60428095D01*
X96972380Y-59856666D01*
X96972380Y-60475714D01*
X91479642Y-67460833D02*
X91527261Y-67413214D01*
X91574880Y-67270357D01*
X91574880Y-67175119D01*
X91527261Y-67032261D01*
X91432023Y-66937023D01*
X91336785Y-66889404D01*
X91146309Y-66841785D01*
X91003452Y-66841785D01*
X90812976Y-66889404D01*
X90717738Y-66937023D01*
X90622500Y-67032261D01*
X90574880Y-67175119D01*
X90574880Y-67270357D01*
X90622500Y-67413214D01*
X90670119Y-67460833D01*
X90574880Y-67794166D02*
X90574880Y-68413214D01*
X90955833Y-68079880D01*
X90955833Y-68222738D01*
X91003452Y-68317976D01*
X91051071Y-68365595D01*
X91146309Y-68413214D01*
X91384404Y-68413214D01*
X91479642Y-68365595D01*
X91527261Y-68317976D01*
X91574880Y-68222738D01*
X91574880Y-67937023D01*
X91527261Y-67841785D01*
X91479642Y-67794166D01*
X108624523Y-76064880D02*
X108291190Y-77064880D01*
X107957857Y-76064880D01*
X107624523Y-77064880D02*
X107624523Y-76064880D01*
X107386428Y-76064880D01*
X107243571Y-76112500D01*
X107148333Y-76207738D01*
X107100714Y-76302976D01*
X107053095Y-76493452D01*
X107053095Y-76636309D01*
X107100714Y-76826785D01*
X107148333Y-76922023D01*
X107243571Y-77017261D01*
X107386428Y-77064880D01*
X107624523Y-77064880D01*
X106100714Y-77064880D02*
X106672142Y-77064880D01*
X106386428Y-77064880D02*
X106386428Y-76064880D01*
X106481666Y-76207738D01*
X106576904Y-76302976D01*
X106672142Y-76350595D01*
X106767380Y-48537976D02*
X107767380Y-48871309D01*
X106767380Y-49204642D01*
X107767380Y-49537976D02*
X106767380Y-49537976D01*
X106767380Y-49776071D01*
X106815000Y-49918928D01*
X106910238Y-50014166D01*
X107005476Y-50061785D01*
X107195952Y-50109404D01*
X107338809Y-50109404D01*
X107529285Y-50061785D01*
X107624523Y-50014166D01*
X107719761Y-49918928D01*
X107767380Y-49776071D01*
X107767380Y-49537976D01*
X106862619Y-50490357D02*
X106815000Y-50537976D01*
X106767380Y-50633214D01*
X106767380Y-50871309D01*
X106815000Y-50966547D01*
X106862619Y-51014166D01*
X106957857Y-51061785D01*
X107053095Y-51061785D01*
X107195952Y-51014166D01*
X107767380Y-50442738D01*
X107767380Y-51061785D01*
X113752380Y-48855476D02*
X114752380Y-49188809D01*
X113752380Y-49522142D01*
X114752380Y-49855476D02*
X113752380Y-49855476D01*
X113752380Y-50093571D01*
X113800000Y-50236428D01*
X113895238Y-50331666D01*
X113990476Y-50379285D01*
X114180952Y-50426904D01*
X114323809Y-50426904D01*
X114514285Y-50379285D01*
X114609523Y-50331666D01*
X114704761Y-50236428D01*
X114752380Y-50093571D01*
X114752380Y-49855476D01*
X113752380Y-50760238D02*
X113752380Y-51379285D01*
X114133333Y-51045952D01*
X114133333Y-51188809D01*
X114180952Y-51284047D01*
X114228571Y-51331666D01*
X114323809Y-51379285D01*
X114561904Y-51379285D01*
X114657142Y-51331666D01*
X114704761Y-51284047D01*
X114752380Y-51188809D01*
X114752380Y-50903095D01*
X114704761Y-50807857D01*
X114657142Y-50760238D01*
X113069523Y-73207380D02*
X112736190Y-74207380D01*
X112402857Y-73207380D01*
X112069523Y-74207380D02*
X112069523Y-73207380D01*
X111831428Y-73207380D01*
X111688571Y-73255000D01*
X111593333Y-73350238D01*
X111545714Y-73445476D01*
X111498095Y-73635952D01*
X111498095Y-73778809D01*
X111545714Y-73969285D01*
X111593333Y-74064523D01*
X111688571Y-74159761D01*
X111831428Y-74207380D01*
X112069523Y-74207380D01*
X110640952Y-73540714D02*
X110640952Y-74207380D01*
X110879047Y-73159761D02*
X111117142Y-73874047D01*
X110498095Y-73874047D01*
X103004880Y-59523333D02*
X102528690Y-59190000D01*
X103004880Y-58951904D02*
X102004880Y-58951904D01*
X102004880Y-59332857D01*
X102052500Y-59428095D01*
X102100119Y-59475714D01*
X102195357Y-59523333D01*
X102338214Y-59523333D01*
X102433452Y-59475714D01*
X102481071Y-59428095D01*
X102528690Y-59332857D01*
X102528690Y-58951904D01*
X103004880Y-60475714D02*
X103004880Y-59904285D01*
X103004880Y-60190000D02*
X102004880Y-60190000D01*
X102147738Y-60094761D01*
X102242976Y-59999523D01*
X102290595Y-59904285D01*
X101099880Y-59523333D02*
X100623690Y-59190000D01*
X101099880Y-58951904D02*
X100099880Y-58951904D01*
X100099880Y-59332857D01*
X100147500Y-59428095D01*
X100195119Y-59475714D01*
X100290357Y-59523333D01*
X100433214Y-59523333D01*
X100528452Y-59475714D01*
X100576071Y-59428095D01*
X100623690Y-59332857D01*
X100623690Y-58951904D01*
X100195119Y-59904285D02*
X100147500Y-59951904D01*
X100099880Y-60047142D01*
X100099880Y-60285238D01*
X100147500Y-60380476D01*
X100195119Y-60428095D01*
X100290357Y-60475714D01*
X100385595Y-60475714D01*
X100528452Y-60428095D01*
X101099880Y-59856666D01*
X101099880Y-60475714D01*
X92844880Y-65238333D02*
X92368690Y-64905000D01*
X92844880Y-64666904D02*
X91844880Y-64666904D01*
X91844880Y-65047857D01*
X91892500Y-65143095D01*
X91940119Y-65190714D01*
X92035357Y-65238333D01*
X92178214Y-65238333D01*
X92273452Y-65190714D01*
X92321071Y-65143095D01*
X92368690Y-65047857D01*
X92368690Y-64666904D01*
X91844880Y-65571666D02*
X91844880Y-66190714D01*
X92225833Y-65857380D01*
X92225833Y-66000238D01*
X92273452Y-66095476D01*
X92321071Y-66143095D01*
X92416309Y-66190714D01*
X92654404Y-66190714D01*
X92749642Y-66143095D01*
X92797261Y-66095476D01*
X92844880Y-66000238D01*
X92844880Y-65714523D01*
X92797261Y-65619285D01*
X92749642Y-65571666D01*
X94749880Y-65238333D02*
X94273690Y-64905000D01*
X94749880Y-64666904D02*
X93749880Y-64666904D01*
X93749880Y-65047857D01*
X93797500Y-65143095D01*
X93845119Y-65190714D01*
X93940357Y-65238333D01*
X94083214Y-65238333D01*
X94178452Y-65190714D01*
X94226071Y-65143095D01*
X94273690Y-65047857D01*
X94273690Y-64666904D01*
X94083214Y-66095476D02*
X94749880Y-66095476D01*
X93702261Y-65857380D02*
X94416547Y-65619285D01*
X94416547Y-66238333D01*
X92797380Y-72580595D02*
X93606904Y-72580595D01*
X93702142Y-72628214D01*
X93749761Y-72675833D01*
X93797380Y-72771071D01*
X93797380Y-72961547D01*
X93749761Y-73056785D01*
X93702142Y-73104404D01*
X93606904Y-73152023D01*
X92797380Y-73152023D01*
X93797380Y-74152023D02*
X93797380Y-73580595D01*
X93797380Y-73866309D02*
X92797380Y-73866309D01*
X92940238Y-73771071D01*
X93035476Y-73675833D01*
X93083095Y-73580595D01*
X90939880Y-76033333D02*
X90463690Y-75700000D01*
X90939880Y-75461904D02*
X89939880Y-75461904D01*
X89939880Y-75842857D01*
X89987500Y-75938095D01*
X90035119Y-75985714D01*
X90130357Y-76033333D01*
X90273214Y-76033333D01*
X90368452Y-75985714D01*
X90416071Y-75938095D01*
X90463690Y-75842857D01*
X90463690Y-75461904D01*
X89939880Y-76890476D02*
X89939880Y-76700000D01*
X89987500Y-76604761D01*
X90035119Y-76557142D01*
X90177976Y-76461904D01*
X90368452Y-76414285D01*
X90749404Y-76414285D01*
X90844642Y-76461904D01*
X90892261Y-76509523D01*
X90939880Y-76604761D01*
X90939880Y-76795238D01*
X90892261Y-76890476D01*
X90844642Y-76938095D01*
X90749404Y-76985714D01*
X90511309Y-76985714D01*
X90416071Y-76938095D01*
X90368452Y-76890476D01*
X90320833Y-76795238D01*
X90320833Y-76604761D01*
X90368452Y-76509523D01*
X90416071Y-76461904D01*
X90511309Y-76414285D01*
M02*
