M48
INCH,TZ
T1C0.0354
T2C0.0394
T3C0.0433
T4C0.1260
%
G90
G05
T1
X35000Y-18500
X35000Y-24750
X35750Y-20500
X35750Y-28500
X36125Y-23000
X38622Y-27677
X41125Y-24250
T2
X47000Y-21500
X34000Y-20500
X38250Y-20291
X38250Y-26000
X39234Y-26000
X40219Y-20291
X40219Y-26000
X47000Y-26500
X34000Y-22500
X47000Y-24500
X34000Y-24500
X34000Y-26500
X47000Y-19500
X47000Y-22500
X34000Y-27500
X34000Y-19500
X47000Y-20500
X47000Y-27500
X34000Y-21500
X47000Y-25500
X34000Y-23500
X34000Y-25500
X47000Y-23500
X34000Y-18500
X47000Y-18500
T3
X42978Y-23500
X42978Y-26059
X44750Y-23500
X44750Y-26059
X41500Y-16250
X41500Y-18022
X44059Y-16250
X44059Y-18022
X37000Y-16250
X37000Y-18022
X39559Y-16250
X39559Y-18022
T4
X47000Y-29500
X47000Y-16500
X34000Y-29500
X34000Y-16500
T1
G00X37030Y-23303
M15
G01X37030Y-22791
M16
G05
G00X41439Y-23303
M15
G01X41439Y-22791
M16
G05
T0
M30
