G04 #@! TF.GenerationSoftware,KiCad,Pcbnew,(5.1.8)-1*
G04 #@! TF.CreationDate,2020-11-23T23:50:42+03:00*
G04 #@! TF.ProjectId,HardDuinoTQFP,48617264-4475-4696-9e6f-545146502e6b,rev?*
G04 #@! TF.SameCoordinates,Original*
G04 #@! TF.FileFunction,Copper,L1,Top*
G04 #@! TF.FilePolarity,Positive*
%FSLAX46Y46*%
G04 Gerber Fmt 4.6, Leading zero omitted, Abs format (unit mm)*
G04 Created by KiCad (PCBNEW (5.1.8)-1) date 2020-11-23 23:50:42*
%MOMM*%
%LPD*%
G01*
G04 APERTURE LIST*
G04 #@! TA.AperFunction,NonConductor*
%ADD10C,0.300000*%
G04 #@! TD*
G04 #@! TA.AperFunction,NonConductor*
%ADD11C,0.200000*%
G04 #@! TD*
G04 #@! TA.AperFunction,ComponentPad*
%ADD12R,2.300000X2.300000*%
G04 #@! TD*
G04 #@! TA.AperFunction,ComponentPad*
%ADD13O,2.300000X2.300000*%
G04 #@! TD*
G04 #@! TA.AperFunction,ComponentPad*
%ADD14R,2.000000X2.000000*%
G04 #@! TD*
G04 #@! TA.AperFunction,ComponentPad*
%ADD15O,2.000000X2.000000*%
G04 #@! TD*
G04 #@! TA.AperFunction,SMDPad,CuDef*
%ADD16R,0.550000X1.600000*%
G04 #@! TD*
G04 #@! TA.AperFunction,SMDPad,CuDef*
%ADD17R,1.600000X0.550000*%
G04 #@! TD*
G04 #@! TA.AperFunction,ComponentPad*
%ADD18C,1.500000*%
G04 #@! TD*
G04 #@! TA.AperFunction,ComponentPad*
%ADD19R,1.700000X1.700000*%
G04 #@! TD*
G04 #@! TA.AperFunction,SMDPad,CuDef*
%ADD20R,0.900000X0.800000*%
G04 #@! TD*
G04 #@! TA.AperFunction,ViaPad*
%ADD21C,1.600000*%
G04 #@! TD*
G04 #@! TA.AperFunction,Conductor*
%ADD22C,0.250000*%
G04 #@! TD*
G04 #@! TA.AperFunction,Conductor*
%ADD23C,0.600000*%
G04 #@! TD*
G04 #@! TA.AperFunction,Conductor*
%ADD24C,0.500000*%
G04 #@! TD*
G04 #@! TA.AperFunction,Conductor*
%ADD25C,1.000000*%
G04 #@! TD*
G04 #@! TA.AperFunction,Conductor*
%ADD26C,0.800000*%
G04 #@! TD*
G04 APERTURE END LIST*
D10*
X110494642Y-41001071D02*
X110494642Y-39501071D01*
X110494642Y-40215357D02*
X111351785Y-40215357D01*
X111351785Y-41001071D02*
X111351785Y-39501071D01*
X112708928Y-41001071D02*
X112708928Y-40215357D01*
X112637500Y-40072500D01*
X112494642Y-40001071D01*
X112208928Y-40001071D01*
X112066071Y-40072500D01*
X112708928Y-40929642D02*
X112566071Y-41001071D01*
X112208928Y-41001071D01*
X112066071Y-40929642D01*
X111994642Y-40786785D01*
X111994642Y-40643928D01*
X112066071Y-40501071D01*
X112208928Y-40429642D01*
X112566071Y-40429642D01*
X112708928Y-40358214D01*
X113423214Y-41001071D02*
X113423214Y-40001071D01*
X113423214Y-40286785D02*
X113494642Y-40143928D01*
X113566071Y-40072500D01*
X113708928Y-40001071D01*
X113851785Y-40001071D01*
X114994642Y-41001071D02*
X114994642Y-39501071D01*
X114994642Y-40929642D02*
X114851785Y-41001071D01*
X114566071Y-41001071D01*
X114423214Y-40929642D01*
X114351785Y-40858214D01*
X114280357Y-40715357D01*
X114280357Y-40286785D01*
X114351785Y-40143928D01*
X114423214Y-40072500D01*
X114566071Y-40001071D01*
X114851785Y-40001071D01*
X114994642Y-40072500D01*
X115708928Y-41001071D02*
X115708928Y-39501071D01*
X116066071Y-39501071D01*
X116280357Y-39572500D01*
X116423214Y-39715357D01*
X116494642Y-39858214D01*
X116566071Y-40143928D01*
X116566071Y-40358214D01*
X116494642Y-40643928D01*
X116423214Y-40786785D01*
X116280357Y-40929642D01*
X116066071Y-41001071D01*
X115708928Y-41001071D01*
X117851785Y-40001071D02*
X117851785Y-41001071D01*
X117208928Y-40001071D02*
X117208928Y-40786785D01*
X117280357Y-40929642D01*
X117423214Y-41001071D01*
X117637500Y-41001071D01*
X117780357Y-40929642D01*
X117851785Y-40858214D01*
X118566071Y-41001071D02*
X118566071Y-40001071D01*
X118566071Y-39501071D02*
X118494642Y-39572500D01*
X118566071Y-39643928D01*
X118637500Y-39572500D01*
X118566071Y-39501071D01*
X118566071Y-39643928D01*
X119280357Y-40001071D02*
X119280357Y-41001071D01*
X119280357Y-40143928D02*
X119351785Y-40072500D01*
X119494642Y-40001071D01*
X119708928Y-40001071D01*
X119851785Y-40072500D01*
X119923214Y-40215357D01*
X119923214Y-41001071D01*
X120851785Y-41001071D02*
X120708928Y-40929642D01*
X120637500Y-40858214D01*
X120566071Y-40715357D01*
X120566071Y-40286785D01*
X120637500Y-40143928D01*
X120708928Y-40072500D01*
X120851785Y-40001071D01*
X121066071Y-40001071D01*
X121208928Y-40072500D01*
X121280357Y-40143928D01*
X121351785Y-40286785D01*
X121351785Y-40715357D01*
X121280357Y-40858214D01*
X121208928Y-40929642D01*
X121066071Y-41001071D01*
X120851785Y-41001071D01*
D11*
X116745000Y-76017380D02*
X116935476Y-76017380D01*
X117030714Y-75969761D01*
X117078333Y-75922142D01*
X117173571Y-75779285D01*
X117221190Y-75588809D01*
X117221190Y-75207857D01*
X117173571Y-75112619D01*
X117125952Y-75065000D01*
X117030714Y-75017380D01*
X116840238Y-75017380D01*
X116745000Y-75065000D01*
X116697380Y-75112619D01*
X116649761Y-75207857D01*
X116649761Y-75445952D01*
X116697380Y-75541190D01*
X116745000Y-75588809D01*
X116840238Y-75636428D01*
X117030714Y-75636428D01*
X117125952Y-75588809D01*
X117173571Y-75541190D01*
X117221190Y-75445952D01*
X117506904Y-75350714D02*
X117887857Y-75350714D01*
X117649761Y-76017380D02*
X117649761Y-75160238D01*
X117697380Y-75065000D01*
X117792619Y-75017380D01*
X117887857Y-75017380D01*
X118125952Y-75017380D02*
X118792619Y-75017380D01*
X118364047Y-76017380D01*
X119030714Y-75350714D02*
X119411666Y-75350714D01*
X119173571Y-76017380D02*
X119173571Y-75160238D01*
X119221190Y-75065000D01*
X119316428Y-75017380D01*
X119411666Y-75017380D01*
X119792619Y-76017380D02*
X119983095Y-76017380D01*
X120078333Y-75969761D01*
X120125952Y-75922142D01*
X120221190Y-75779285D01*
X120268809Y-75588809D01*
X120268809Y-75207857D01*
X120221190Y-75112619D01*
X120173571Y-75065000D01*
X120078333Y-75017380D01*
X119887857Y-75017380D01*
X119792619Y-75065000D01*
X119745000Y-75112619D01*
X119697380Y-75207857D01*
X119697380Y-75445952D01*
X119745000Y-75541190D01*
X119792619Y-75588809D01*
X119887857Y-75636428D01*
X120078333Y-75636428D01*
X120173571Y-75588809D01*
X120221190Y-75541190D01*
X120268809Y-75445952D01*
X120554523Y-75350714D02*
X120935476Y-75350714D01*
X120697380Y-76017380D02*
X120697380Y-75160238D01*
X120745000Y-75065000D01*
X120840238Y-75017380D01*
X120935476Y-75017380D01*
D10*
X119261071Y-72703571D02*
X119618214Y-73703571D01*
X119975357Y-72703571D01*
X120475357Y-72346428D02*
X120546785Y-72275000D01*
X120689642Y-72203571D01*
X121046785Y-72203571D01*
X121189642Y-72275000D01*
X121261071Y-72346428D01*
X121332500Y-72489285D01*
X121332500Y-72632142D01*
X121261071Y-72846428D01*
X120403928Y-73703571D01*
X121332500Y-73703571D01*
D11*
X114014761Y-77335119D02*
X114062380Y-77287500D01*
X114157619Y-77239880D01*
X114395714Y-77239880D01*
X114490952Y-77287500D01*
X114538571Y-77335119D01*
X114586190Y-77430357D01*
X114586190Y-77525595D01*
X114538571Y-77668452D01*
X113967142Y-78239880D01*
X114586190Y-78239880D01*
X114919523Y-77239880D02*
X115538571Y-77239880D01*
X115205238Y-77620833D01*
X115348095Y-77620833D01*
X115443333Y-77668452D01*
X115490952Y-77716071D01*
X115538571Y-77811309D01*
X115538571Y-78049404D01*
X115490952Y-78144642D01*
X115443333Y-78192261D01*
X115348095Y-78239880D01*
X115062380Y-78239880D01*
X114967142Y-78192261D01*
X114919523Y-78144642D01*
X115967142Y-78144642D02*
X116014761Y-78192261D01*
X115967142Y-78239880D01*
X115919523Y-78192261D01*
X115967142Y-78144642D01*
X115967142Y-78239880D01*
X116967142Y-78239880D02*
X116395714Y-78239880D01*
X116681428Y-78239880D02*
X116681428Y-77239880D01*
X116586190Y-77382738D01*
X116490952Y-77477976D01*
X116395714Y-77525595D01*
X117919523Y-78239880D02*
X117348095Y-78239880D01*
X117633809Y-78239880D02*
X117633809Y-77239880D01*
X117538571Y-77382738D01*
X117443333Y-77477976D01*
X117348095Y-77525595D01*
X118348095Y-78144642D02*
X118395714Y-78192261D01*
X118348095Y-78239880D01*
X118300476Y-78192261D01*
X118348095Y-78144642D01*
X118348095Y-78239880D01*
X118776666Y-77335119D02*
X118824285Y-77287500D01*
X118919523Y-77239880D01*
X119157619Y-77239880D01*
X119252857Y-77287500D01*
X119300476Y-77335119D01*
X119348095Y-77430357D01*
X119348095Y-77525595D01*
X119300476Y-77668452D01*
X118729047Y-78239880D01*
X119348095Y-78239880D01*
X119967142Y-77239880D02*
X120062380Y-77239880D01*
X120157619Y-77287500D01*
X120205238Y-77335119D01*
X120252857Y-77430357D01*
X120300476Y-77620833D01*
X120300476Y-77858928D01*
X120252857Y-78049404D01*
X120205238Y-78144642D01*
X120157619Y-78192261D01*
X120062380Y-78239880D01*
X119967142Y-78239880D01*
X119871904Y-78192261D01*
X119824285Y-78144642D01*
X119776666Y-78049404D01*
X119729047Y-77858928D01*
X119729047Y-77620833D01*
X119776666Y-77430357D01*
X119824285Y-77335119D01*
X119871904Y-77287500D01*
X119967142Y-77239880D01*
X120681428Y-77335119D02*
X120729047Y-77287500D01*
X120824285Y-77239880D01*
X121062380Y-77239880D01*
X121157619Y-77287500D01*
X121205238Y-77335119D01*
X121252857Y-77430357D01*
X121252857Y-77525595D01*
X121205238Y-77668452D01*
X120633809Y-78239880D01*
X121252857Y-78239880D01*
X121871904Y-77239880D02*
X121967142Y-77239880D01*
X122062380Y-77287500D01*
X122110000Y-77335119D01*
X122157619Y-77430357D01*
X122205238Y-77620833D01*
X122205238Y-77858928D01*
X122157619Y-78049404D01*
X122110000Y-78144642D01*
X122062380Y-78192261D01*
X121967142Y-78239880D01*
X121871904Y-78239880D01*
X121776666Y-78192261D01*
X121729047Y-78144642D01*
X121681428Y-78049404D01*
X121633809Y-77858928D01*
X121633809Y-77620833D01*
X121681428Y-77430357D01*
X121729047Y-77335119D01*
X121776666Y-77287500D01*
X121871904Y-77239880D01*
D12*
X92710000Y-46990000D03*
D13*
X92710000Y-49530000D03*
X92710000Y-52070000D03*
X92710000Y-54610000D03*
X92710000Y-57150000D03*
X92710000Y-59690000D03*
X92710000Y-62230000D03*
X92710000Y-64770000D03*
X92710000Y-67310000D03*
X92710000Y-69850000D03*
X125730000Y-69850000D03*
X125730000Y-67310000D03*
X125730000Y-64770000D03*
X125730000Y-62230000D03*
X125730000Y-59690000D03*
X125730000Y-57150000D03*
X125730000Y-54610000D03*
X125730000Y-52070000D03*
X125730000Y-49530000D03*
D12*
X125730000Y-46990000D03*
G04 #@! TA.AperFunction,ComponentPad*
G36*
G01*
X98365000Y-74547500D02*
X97215000Y-74547500D01*
G75*
G02*
X96640000Y-73972500I0J575000D01*
G01*
X96640000Y-72822500D01*
G75*
G02*
X97215000Y-72247500I575000J0D01*
G01*
X98365000Y-72247500D01*
G75*
G02*
X98940000Y-72822500I0J-575000D01*
G01*
X98940000Y-73972500D01*
G75*
G02*
X98365000Y-74547500I-575000J0D01*
G01*
G37*
G04 #@! TD.AperFunction*
G04 #@! TA.AperFunction,ComponentPad*
G36*
G01*
X98365000Y-70047500D02*
X97215000Y-70047500D01*
G75*
G02*
X96640000Y-69472500I0J575000D01*
G01*
X96640000Y-68322500D01*
G75*
G02*
X97215000Y-67747500I575000J0D01*
G01*
X98365000Y-67747500D01*
G75*
G02*
X98940000Y-68322500I0J-575000D01*
G01*
X98940000Y-69472500D01*
G75*
G02*
X98365000Y-70047500I-575000J0D01*
G01*
G37*
G04 #@! TD.AperFunction*
G04 #@! TA.AperFunction,ComponentPad*
G36*
G01*
X104865000Y-74547500D02*
X103715000Y-74547500D01*
G75*
G02*
X103140000Y-73972500I0J575000D01*
G01*
X103140000Y-72822500D01*
G75*
G02*
X103715000Y-72247500I575000J0D01*
G01*
X104865000Y-72247500D01*
G75*
G02*
X105440000Y-72822500I0J-575000D01*
G01*
X105440000Y-73972500D01*
G75*
G02*
X104865000Y-74547500I-575000J0D01*
G01*
G37*
G04 #@! TD.AperFunction*
G04 #@! TA.AperFunction,ComponentPad*
G36*
G01*
X104865000Y-70047500D02*
X103715000Y-70047500D01*
G75*
G02*
X103140000Y-69472500I0J575000D01*
G01*
X103140000Y-68322500D01*
G75*
G02*
X103715000Y-67747500I575000J0D01*
G01*
X104865000Y-67747500D01*
G75*
G02*
X105440000Y-68322500I0J-575000D01*
G01*
X105440000Y-69472500D01*
G75*
G02*
X104865000Y-70047500I-575000J0D01*
G01*
G37*
G04 #@! TD.AperFunction*
G04 #@! TA.AperFunction,SMDPad,CuDef*
G36*
G01*
X90620001Y-55965000D02*
X89719999Y-55965000D01*
G75*
G02*
X89470000Y-55715001I0J249999D01*
G01*
X89470000Y-55064999D01*
G75*
G02*
X89719999Y-54815000I249999J0D01*
G01*
X90620001Y-54815000D01*
G75*
G02*
X90870000Y-55064999I0J-249999D01*
G01*
X90870000Y-55715001D01*
G75*
G02*
X90620001Y-55965000I-249999J0D01*
G01*
G37*
G04 #@! TD.AperFunction*
G04 #@! TA.AperFunction,SMDPad,CuDef*
G36*
G01*
X90620001Y-53915000D02*
X89719999Y-53915000D01*
G75*
G02*
X89470000Y-53665001I0J249999D01*
G01*
X89470000Y-53014999D01*
G75*
G02*
X89719999Y-52765000I249999J0D01*
G01*
X90620001Y-52765000D01*
G75*
G02*
X90870000Y-53014999I0J-249999D01*
G01*
X90870000Y-53665001D01*
G75*
G02*
X90620001Y-53915000I-249999J0D01*
G01*
G37*
G04 #@! TD.AperFunction*
D14*
X99695000Y-76835000D03*
D15*
X102235000Y-76835000D03*
X104775000Y-76835000D03*
X107315000Y-76835000D03*
X109855000Y-76835000D03*
G04 #@! TA.AperFunction,SMDPad,CuDef*
G36*
G01*
X89719999Y-60630000D02*
X90620001Y-60630000D01*
G75*
G02*
X90870000Y-60879999I0J-249999D01*
G01*
X90870000Y-61530001D01*
G75*
G02*
X90620001Y-61780000I-249999J0D01*
G01*
X89719999Y-61780000D01*
G75*
G02*
X89470000Y-61530001I0J249999D01*
G01*
X89470000Y-60879999D01*
G75*
G02*
X89719999Y-60630000I249999J0D01*
G01*
G37*
G04 #@! TD.AperFunction*
G04 #@! TA.AperFunction,SMDPad,CuDef*
G36*
G01*
X89719999Y-62680000D02*
X90620001Y-62680000D01*
G75*
G02*
X90870000Y-62929999I0J-249999D01*
G01*
X90870000Y-63580001D01*
G75*
G02*
X90620001Y-63830000I-249999J0D01*
G01*
X89719999Y-63830000D01*
G75*
G02*
X89470000Y-63580001I0J249999D01*
G01*
X89470000Y-62929999D01*
G75*
G02*
X89719999Y-62680000I249999J0D01*
G01*
G37*
G04 #@! TD.AperFunction*
D16*
X106420000Y-63305000D03*
X107220000Y-63305000D03*
X108020000Y-63305000D03*
X108820000Y-63305000D03*
X109620000Y-63305000D03*
X110420000Y-63305000D03*
X111220000Y-63305000D03*
X112020000Y-63305000D03*
D17*
X113470000Y-61855000D03*
X113470000Y-61055000D03*
X113470000Y-60255000D03*
X113470000Y-59455000D03*
X113470000Y-58655000D03*
X113470000Y-57855000D03*
X113470000Y-57055000D03*
X113470000Y-56255000D03*
D16*
X112020000Y-54805000D03*
X111220000Y-54805000D03*
X110420000Y-54805000D03*
X109620000Y-54805000D03*
X108820000Y-54805000D03*
X108020000Y-54805000D03*
X107220000Y-54805000D03*
X106420000Y-54805000D03*
D17*
X104970000Y-56255000D03*
X104970000Y-57055000D03*
X104970000Y-57855000D03*
X104970000Y-58655000D03*
X104970000Y-59455000D03*
X104970000Y-60255000D03*
X104970000Y-61055000D03*
X104970000Y-61855000D03*
D18*
X113030000Y-69850000D03*
X116480681Y-66399319D03*
D12*
X100965000Y-43180000D03*
D13*
X100965000Y-40640000D03*
X103505000Y-43180000D03*
X103505000Y-40640000D03*
X106045000Y-43180000D03*
X106045000Y-40640000D03*
D19*
X114300000Y-75882500D03*
G04 #@! TA.AperFunction,SMDPad,CuDef*
G36*
G01*
X113995000Y-43682499D02*
X113995000Y-44582501D01*
G75*
G02*
X113745001Y-44832500I-249999J0D01*
G01*
X113094999Y-44832500D01*
G75*
G02*
X112845000Y-44582501I0J249999D01*
G01*
X112845000Y-43682499D01*
G75*
G02*
X113094999Y-43432500I249999J0D01*
G01*
X113745001Y-43432500D01*
G75*
G02*
X113995000Y-43682499I0J-249999D01*
G01*
G37*
G04 #@! TD.AperFunction*
G04 #@! TA.AperFunction,SMDPad,CuDef*
G36*
G01*
X111945000Y-43682499D02*
X111945000Y-44582501D01*
G75*
G02*
X111695001Y-44832500I-249999J0D01*
G01*
X111044999Y-44832500D01*
G75*
G02*
X110795000Y-44582501I0J249999D01*
G01*
X110795000Y-43682499D01*
G75*
G02*
X111044999Y-43432500I249999J0D01*
G01*
X111695001Y-43432500D01*
G75*
G02*
X111945000Y-43682499I0J-249999D01*
G01*
G37*
G04 #@! TD.AperFunction*
D20*
X97837500Y-47622500D03*
X97837500Y-45722500D03*
X95837500Y-46672500D03*
G04 #@! TA.AperFunction,SMDPad,CuDef*
G36*
G01*
X116337501Y-47002500D02*
X115437499Y-47002500D01*
G75*
G02*
X115187500Y-46752501I0J249999D01*
G01*
X115187500Y-46102499D01*
G75*
G02*
X115437499Y-45852500I249999J0D01*
G01*
X116337501Y-45852500D01*
G75*
G02*
X116587500Y-46102499I0J-249999D01*
G01*
X116587500Y-46752501D01*
G75*
G02*
X116337501Y-47002500I-249999J0D01*
G01*
G37*
G04 #@! TD.AperFunction*
G04 #@! TA.AperFunction,SMDPad,CuDef*
G36*
G01*
X116337501Y-44952500D02*
X115437499Y-44952500D01*
G75*
G02*
X115187500Y-44702501I0J249999D01*
G01*
X115187500Y-44052499D01*
G75*
G02*
X115437499Y-43802500I249999J0D01*
G01*
X116337501Y-43802500D01*
G75*
G02*
X116587500Y-44052499I0J-249999D01*
G01*
X116587500Y-44702501D01*
G75*
G02*
X116337501Y-44952500I-249999J0D01*
G01*
G37*
G04 #@! TD.AperFunction*
G04 #@! TA.AperFunction,SMDPad,CuDef*
G36*
G01*
X108697500Y-51238999D02*
X108697500Y-52139001D01*
G75*
G02*
X108447501Y-52389000I-249999J0D01*
G01*
X107797499Y-52389000D01*
G75*
G02*
X107547500Y-52139001I0J249999D01*
G01*
X107547500Y-51238999D01*
G75*
G02*
X107797499Y-50989000I249999J0D01*
G01*
X108447501Y-50989000D01*
G75*
G02*
X108697500Y-51238999I0J-249999D01*
G01*
G37*
G04 #@! TD.AperFunction*
G04 #@! TA.AperFunction,SMDPad,CuDef*
G36*
G01*
X110747500Y-51238999D02*
X110747500Y-52139001D01*
G75*
G02*
X110497501Y-52389000I-249999J0D01*
G01*
X109847499Y-52389000D01*
G75*
G02*
X109597500Y-52139001I0J249999D01*
G01*
X109597500Y-51238999D01*
G75*
G02*
X109847499Y-50989000I249999J0D01*
G01*
X110497501Y-50989000D01*
G75*
G02*
X110747500Y-51238999I0J-249999D01*
G01*
G37*
G04 #@! TD.AperFunction*
D21*
X112077500Y-51689000D03*
X110490000Y-46990000D03*
X96837500Y-43815000D03*
X109537500Y-65722500D03*
X115887500Y-48260000D03*
X111760000Y-67310000D03*
X114617500Y-64770000D03*
X102552500Y-61595000D03*
X100647500Y-62547500D03*
D22*
X90170000Y-69850000D02*
X90170000Y-71437500D01*
X89535000Y-71437500D02*
X90805000Y-71437500D01*
X90170000Y-46355000D02*
X90170000Y-47625000D01*
X90805000Y-46990000D02*
X89535000Y-46990000D01*
X112077500Y-76200000D02*
X112077500Y-77787500D01*
X111442500Y-77787500D02*
X112712500Y-77787500D01*
X106997500Y-74930000D02*
X105727500Y-74930000D01*
X106362500Y-74295000D02*
X106362500Y-75565000D01*
X98742500Y-40640000D02*
X97472500Y-40640000D01*
X98107500Y-40005000D02*
X98107500Y-41275000D01*
X108267500Y-41275000D02*
X109537500Y-41275000D01*
X108902500Y-39687500D02*
X108902500Y-41275000D01*
D23*
X106997500Y-76517500D02*
X106680000Y-76835000D01*
D24*
X110420000Y-62005000D02*
X110420000Y-63305000D01*
X110010000Y-61595000D02*
X110420000Y-62005000D01*
X109220000Y-61595000D02*
X108820000Y-61995000D01*
X108820000Y-63305000D02*
X108820000Y-61995000D01*
X109220000Y-61595000D02*
X109537500Y-61595000D01*
X109537500Y-61595000D02*
X110010000Y-61595000D01*
X111220000Y-54805000D02*
X111220000Y-57055000D01*
D25*
X96837500Y-43815000D02*
X98107500Y-43815000D01*
X97837500Y-44085000D02*
X98107500Y-43815000D01*
X97837500Y-45722500D02*
X97837500Y-44085000D01*
D24*
X111220000Y-54805000D02*
X111220000Y-51721000D01*
X110308500Y-51752500D02*
X112077500Y-51752500D01*
X109537500Y-58737500D02*
X111220000Y-57055000D01*
X109537500Y-61595000D02*
X109537500Y-58737500D01*
D25*
X110490000Y-45720000D02*
X110490000Y-46990000D01*
X98107500Y-43815000D02*
X100012500Y-45720000D01*
D24*
X111370000Y-44132500D02*
X109855000Y-44132500D01*
X109855000Y-44132500D02*
X109855000Y-45720000D01*
D25*
X100012500Y-45720000D02*
X109855000Y-45720000D01*
X109855000Y-45720000D02*
X110490000Y-45720000D01*
D24*
X92710000Y-49530000D02*
X94932500Y-49530000D01*
X94932500Y-49530000D02*
X95250000Y-49212500D01*
X113665000Y-49212500D02*
X114935000Y-50482500D01*
X114935000Y-50482500D02*
X114935000Y-53975000D01*
X113470000Y-56255000D02*
X113470000Y-55480000D01*
X114935000Y-53975000D02*
X113538000Y-55372000D01*
X107950000Y-49212500D02*
X113665000Y-49212500D01*
X107950000Y-49212500D02*
X107315000Y-48577500D01*
X107315000Y-48577500D02*
X99377500Y-48577500D01*
X99377500Y-48577500D02*
X98742500Y-49212500D01*
X95250000Y-49212500D02*
X98742500Y-49212500D01*
X94932500Y-52070000D02*
X94336345Y-52070000D01*
X94336345Y-52070000D02*
X92710000Y-52070000D01*
X112020000Y-53461000D02*
X113226500Y-53461000D01*
X112020000Y-54805000D02*
X112020000Y-53461000D01*
X113226500Y-53461000D02*
X113982500Y-52705000D01*
X113982500Y-52705000D02*
X113982500Y-51117500D01*
X113982500Y-51117500D02*
X113030000Y-50165000D01*
X96837500Y-50165000D02*
X95885000Y-51117500D01*
X95885000Y-51117500D02*
X94932500Y-52070000D01*
X106997500Y-50165000D02*
X106362500Y-49530000D01*
X113030000Y-50165000D02*
X106997500Y-50165000D01*
X106362500Y-49530000D02*
X100330000Y-49530000D01*
X100330000Y-49530000D02*
X99695000Y-50165000D01*
X99695000Y-50165000D02*
X96837500Y-50165000D01*
X92710000Y-52070000D02*
X90487500Y-52070000D01*
X90170000Y-52387500D02*
X90170000Y-53340000D01*
X90487500Y-52070000D02*
X90170000Y-52387500D01*
X93980000Y-54610000D02*
X92710000Y-54610000D01*
X94615000Y-53975000D02*
X93980000Y-54610000D01*
X107220000Y-54805000D02*
X107220000Y-53245000D01*
X107220000Y-53245000D02*
X106997500Y-53022500D01*
X104775000Y-53022500D02*
X103822500Y-53975000D01*
X103822500Y-53975000D02*
X94615000Y-53975000D01*
X106997500Y-53022500D02*
X104775000Y-53022500D01*
X94615000Y-55562500D02*
X94615000Y-56832500D01*
X95372500Y-54805000D02*
X94615000Y-55562500D01*
X94297500Y-57150000D02*
X92710000Y-57150000D01*
X94615000Y-56832500D02*
X94297500Y-57150000D01*
X106420000Y-54805000D02*
X95372500Y-54805000D01*
X94297500Y-59690000D02*
X92710000Y-59690000D01*
X95567500Y-58420000D02*
X94297500Y-59690000D01*
X95567500Y-56832500D02*
X95567500Y-58420000D01*
X96145000Y-56255000D02*
X95567500Y-56832500D01*
X104970000Y-56255000D02*
X96145000Y-56255000D01*
X94297500Y-62230000D02*
X92710000Y-62230000D01*
X104970000Y-57055000D02*
X96932500Y-57055000D01*
X96520000Y-57467500D02*
X96520000Y-59055000D01*
X96932500Y-57055000D02*
X96520000Y-57467500D01*
X94297500Y-61277500D02*
X94297500Y-62230000D01*
X96520000Y-59055000D02*
X94297500Y-61277500D01*
X95250000Y-63817500D02*
X94297500Y-64770000D01*
X104970000Y-57855000D02*
X97720000Y-57855000D01*
X97472500Y-58102500D02*
X97472500Y-59690000D01*
X94297500Y-64770000D02*
X92710000Y-64770000D01*
X97720000Y-57855000D02*
X97472500Y-58102500D01*
X97472500Y-59690000D02*
X95250000Y-61912500D01*
X95250000Y-61912500D02*
X95250000Y-63817500D01*
X94615000Y-67310000D02*
X92710000Y-67310000D01*
X94615000Y-66040000D02*
X94615000Y-67310000D01*
X96520000Y-64135000D02*
X94615000Y-66040000D01*
X104970000Y-58655000D02*
X98825000Y-58655000D01*
X98825000Y-58655000D02*
X98425000Y-59055000D01*
X98425000Y-59055000D02*
X98425000Y-60325000D01*
X96520000Y-62230000D02*
X96520000Y-64135000D01*
X98425000Y-60325000D02*
X96520000Y-62230000D01*
X108020000Y-63305000D02*
X108020000Y-61030000D01*
X108820000Y-54805000D02*
X108820000Y-56915000D01*
X108020000Y-57715000D02*
X108820000Y-56915000D01*
X108020000Y-61030000D02*
X108020000Y-57715000D01*
D25*
X104290000Y-73397500D02*
X108005000Y-73397500D01*
X109855000Y-75247500D02*
X109855000Y-76835000D01*
X108005000Y-73397500D02*
X109855000Y-75247500D01*
X97790000Y-73342500D02*
X94297500Y-69850000D01*
X92710000Y-69850000D02*
X94297500Y-69850000D01*
D24*
X108020000Y-64605000D02*
X109455000Y-66040000D01*
X108020000Y-63305000D02*
X108020000Y-64605000D01*
X109620000Y-63305000D02*
X109620000Y-65805000D01*
D25*
X97790000Y-73397500D02*
X104290000Y-73397500D01*
D24*
X115887500Y-48260000D02*
X115887500Y-48260000D01*
X115887500Y-46672500D02*
X115887500Y-48260000D01*
X108902500Y-48260000D02*
X115887500Y-48240001D01*
X108265000Y-47622500D02*
X108902500Y-48260000D01*
X97837500Y-47622500D02*
X108265000Y-47622500D01*
X90170000Y-63255000D02*
X90170000Y-68897500D01*
X91122500Y-69850000D02*
X92710000Y-69850000D01*
X90170000Y-68897500D02*
X91122500Y-69850000D01*
X104970000Y-61855000D02*
X104970000Y-64337510D01*
X104970000Y-64337510D02*
X105410000Y-64777510D01*
X111760000Y-74295000D02*
X115570000Y-74295000D01*
X120015000Y-69850000D02*
X125730000Y-69850000D01*
X115570000Y-74295000D02*
X120015000Y-69850000D01*
X106362500Y-68897500D02*
X106362500Y-67945000D01*
X106362500Y-68897500D02*
X111760000Y-74295000D01*
X106362500Y-67945000D02*
X105410000Y-66992500D01*
X105410000Y-64777510D02*
X105410000Y-66992500D01*
X121285000Y-67310000D02*
X125730000Y-67310000D01*
X115252500Y-73342500D02*
X121285000Y-67310000D01*
X107315000Y-67310000D02*
X107315000Y-68580000D01*
X106420000Y-66415000D02*
X107315000Y-67310000D01*
X106420000Y-63305000D02*
X106420000Y-66415000D01*
X107315000Y-68580000D02*
X112077500Y-73342500D01*
X112077500Y-73342500D02*
X115252500Y-73342500D01*
X122237500Y-64770000D02*
X125730000Y-64770000D01*
X114617500Y-72390000D02*
X122237500Y-64770000D01*
X107220000Y-64605000D02*
X107315000Y-64700000D01*
X107220000Y-63305000D02*
X107220000Y-64605000D01*
X112395000Y-72390000D02*
X114617500Y-72390000D01*
X107315000Y-66040000D02*
X108267500Y-66992500D01*
X107315000Y-64700000D02*
X107315000Y-66040000D01*
X108267500Y-66992500D02*
X108267500Y-68262500D01*
X108267500Y-68262500D02*
X112395000Y-72390000D01*
X113470000Y-61855000D02*
X120910000Y-61855000D01*
X121285000Y-62230000D02*
X125730000Y-62230000D01*
X120910000Y-61855000D02*
X121285000Y-62230000D01*
X123825000Y-59690000D02*
X125730000Y-59690000D01*
X122460000Y-61055000D02*
X123825000Y-59690000D01*
X113470000Y-61055000D02*
X122460000Y-61055000D01*
X124460000Y-57150000D02*
X125730000Y-57150000D01*
X121355000Y-60255000D02*
X124460000Y-57150000D01*
X113470000Y-60255000D02*
X121355000Y-60255000D01*
X124460000Y-54610000D02*
X125730000Y-54610000D01*
X113470000Y-59455000D02*
X119615000Y-59455000D01*
X119615000Y-59455000D02*
X124460000Y-54610000D01*
X124103655Y-52070000D02*
X125730000Y-52070000D01*
X123825000Y-52348655D02*
X124103655Y-52070000D01*
X123825000Y-53022500D02*
X123825000Y-52348655D01*
X118192500Y-58655000D02*
X123825000Y-53022500D01*
X113470000Y-58655000D02*
X118192500Y-58655000D01*
X123190000Y-49530000D02*
X125730000Y-49530000D01*
X122555000Y-50165000D02*
X123190000Y-49530000D01*
X122555000Y-51752500D02*
X122555000Y-50165000D01*
X113470000Y-57855000D02*
X116452500Y-57855000D01*
X116452500Y-57855000D02*
X122555000Y-51752500D01*
X121920000Y-46990000D02*
X125730000Y-46990000D01*
X120650000Y-48260000D02*
X121920000Y-46990000D01*
X120650000Y-51435000D02*
X120650000Y-48260000D01*
X113470000Y-57055000D02*
X115030000Y-57055000D01*
X115030000Y-57055000D02*
X120650000Y-51435000D01*
X111760000Y-66178630D02*
X111214435Y-65633065D01*
X111760000Y-67310000D02*
X111760000Y-66178630D01*
X111226600Y-65633065D02*
X111226600Y-63305000D01*
X112020000Y-63305000D02*
X112020000Y-64770000D01*
X114617500Y-64770000D02*
X113486130Y-64770000D01*
X114617500Y-64770000D02*
X112020000Y-64770000D01*
X90170000Y-55390000D02*
X90170000Y-61205000D01*
X104970000Y-61055000D02*
X103092500Y-61055000D01*
X103092500Y-61055000D02*
X102552500Y-61595000D01*
X100647500Y-60960000D02*
X100647500Y-62547500D01*
X104970000Y-60255000D02*
X101352500Y-60255000D01*
X101352500Y-60255000D02*
X100647500Y-60960000D01*
X104970000Y-59455000D02*
X99930000Y-59455000D01*
X99930000Y-59455000D02*
X99695000Y-59690000D01*
X99695000Y-59690000D02*
X99695000Y-60960000D01*
X99695000Y-60960000D02*
X97790000Y-62865000D01*
X97790000Y-62865000D02*
X97790000Y-64452500D01*
X97790000Y-64452500D02*
X97790000Y-68897500D01*
D25*
X97790000Y-68897500D02*
X104290000Y-68897500D01*
D24*
X115642500Y-44132500D02*
X115887500Y-44377500D01*
X113420000Y-44132500D02*
X115642500Y-44132500D01*
D26*
X93027500Y-46672500D02*
X92710000Y-46990000D01*
X95837500Y-46672500D02*
X93027500Y-46672500D01*
D24*
X108122500Y-51689000D02*
X108122500Y-52913500D01*
X108122500Y-52913500D02*
X108295000Y-53086000D01*
X108295000Y-53086000D02*
X109601000Y-53086000D01*
X109620000Y-53740000D02*
X109620000Y-54805000D01*
X109601000Y-53721000D02*
X109620000Y-53740000D01*
X109601000Y-53086000D02*
X109601000Y-53721000D01*
M02*
