M48
INCH,TZ
T1C0.0315
T2C0.0354
T3C0.0394
T4C0.0433
T5C0.1260
%
G90
G05
T1
X44500Y-27500
X45859Y-26141
T2
X38125Y-17250
X39625Y-24625
X40375Y-24250
X43125Y-25875
X43500Y-18500
X44000Y-26500
X44125Y-20350
X45125Y-25500
X45625Y-19000
T3
X39250Y-30250
X40250Y-30250
X41250Y-30250
X42250Y-30250
X43250Y-30250
X45000Y-29875
X49500Y-18500
X49500Y-19500
X49500Y-20500
X49500Y-21500
X49500Y-22500
X49500Y-23500
X49500Y-24500
X49500Y-25500
X49500Y-26500
X49500Y-27500
X39750Y-16000
X39750Y-17000
X40750Y-16000
X40750Y-17000
X41750Y-16000
X41750Y-17000
X36500Y-18500
X36500Y-19500
X36500Y-20500
X36500Y-21500
X36500Y-22500
X36500Y-23500
X36500Y-24500
X36500Y-25500
X36500Y-26500
X36500Y-27500
T4
X38500Y-27125
X38500Y-28897
X41059Y-27125
X41059Y-28897
T5
X49500Y-16500
X36500Y-16500
X36500Y-29500
X49500Y-29500
T0
M30
