G04 #@! TF.GenerationSoftware,KiCad,Pcbnew,(5.1.8)-1*
G04 #@! TF.CreationDate,2020-11-23T23:50:42+03:00*
G04 #@! TF.ProjectId,HardDuinoTQFP,48617264-4475-4696-9e6f-545146502e6b,rev?*
G04 #@! TF.SameCoordinates,Original*
G04 #@! TF.FileFunction,Paste,Top*
G04 #@! TF.FilePolarity,Positive*
%FSLAX46Y46*%
G04 Gerber Fmt 4.6, Leading zero omitted, Abs format (unit mm)*
G04 Created by KiCad (PCBNEW (5.1.8)-1) date 2020-11-23 23:50:42*
%MOMM*%
%LPD*%
G01*
G04 APERTURE LIST*
%ADD10R,0.550000X1.600000*%
%ADD11R,1.600000X0.550000*%
%ADD12R,0.900000X0.800000*%
G04 APERTURE END LIST*
G36*
G01*
X90620001Y-55965000D02*
X89719999Y-55965000D01*
G75*
G02*
X89470000Y-55715001I0J249999D01*
G01*
X89470000Y-55064999D01*
G75*
G02*
X89719999Y-54815000I249999J0D01*
G01*
X90620001Y-54815000D01*
G75*
G02*
X90870000Y-55064999I0J-249999D01*
G01*
X90870000Y-55715001D01*
G75*
G02*
X90620001Y-55965000I-249999J0D01*
G01*
G37*
G36*
G01*
X90620001Y-53915000D02*
X89719999Y-53915000D01*
G75*
G02*
X89470000Y-53665001I0J249999D01*
G01*
X89470000Y-53014999D01*
G75*
G02*
X89719999Y-52765000I249999J0D01*
G01*
X90620001Y-52765000D01*
G75*
G02*
X90870000Y-53014999I0J-249999D01*
G01*
X90870000Y-53665001D01*
G75*
G02*
X90620001Y-53915000I-249999J0D01*
G01*
G37*
G36*
G01*
X89719999Y-60630000D02*
X90620001Y-60630000D01*
G75*
G02*
X90870000Y-60879999I0J-249999D01*
G01*
X90870000Y-61530001D01*
G75*
G02*
X90620001Y-61780000I-249999J0D01*
G01*
X89719999Y-61780000D01*
G75*
G02*
X89470000Y-61530001I0J249999D01*
G01*
X89470000Y-60879999D01*
G75*
G02*
X89719999Y-60630000I249999J0D01*
G01*
G37*
G36*
G01*
X89719999Y-62680000D02*
X90620001Y-62680000D01*
G75*
G02*
X90870000Y-62929999I0J-249999D01*
G01*
X90870000Y-63580001D01*
G75*
G02*
X90620001Y-63830000I-249999J0D01*
G01*
X89719999Y-63830000D01*
G75*
G02*
X89470000Y-63580001I0J249999D01*
G01*
X89470000Y-62929999D01*
G75*
G02*
X89719999Y-62680000I249999J0D01*
G01*
G37*
D10*
X106420000Y-63305000D03*
X107220000Y-63305000D03*
X108020000Y-63305000D03*
X108820000Y-63305000D03*
X109620000Y-63305000D03*
X110420000Y-63305000D03*
X111220000Y-63305000D03*
X112020000Y-63305000D03*
D11*
X113470000Y-61855000D03*
X113470000Y-61055000D03*
X113470000Y-60255000D03*
X113470000Y-59455000D03*
X113470000Y-58655000D03*
X113470000Y-57855000D03*
X113470000Y-57055000D03*
X113470000Y-56255000D03*
D10*
X112020000Y-54805000D03*
X111220000Y-54805000D03*
X110420000Y-54805000D03*
X109620000Y-54805000D03*
X108820000Y-54805000D03*
X108020000Y-54805000D03*
X107220000Y-54805000D03*
X106420000Y-54805000D03*
D11*
X104970000Y-56255000D03*
X104970000Y-57055000D03*
X104970000Y-57855000D03*
X104970000Y-58655000D03*
X104970000Y-59455000D03*
X104970000Y-60255000D03*
X104970000Y-61055000D03*
X104970000Y-61855000D03*
G36*
G01*
X113995000Y-43682499D02*
X113995000Y-44582501D01*
G75*
G02*
X113745001Y-44832500I-249999J0D01*
G01*
X113094999Y-44832500D01*
G75*
G02*
X112845000Y-44582501I0J249999D01*
G01*
X112845000Y-43682499D01*
G75*
G02*
X113094999Y-43432500I249999J0D01*
G01*
X113745001Y-43432500D01*
G75*
G02*
X113995000Y-43682499I0J-249999D01*
G01*
G37*
G36*
G01*
X111945000Y-43682499D02*
X111945000Y-44582501D01*
G75*
G02*
X111695001Y-44832500I-249999J0D01*
G01*
X111044999Y-44832500D01*
G75*
G02*
X110795000Y-44582501I0J249999D01*
G01*
X110795000Y-43682499D01*
G75*
G02*
X111044999Y-43432500I249999J0D01*
G01*
X111695001Y-43432500D01*
G75*
G02*
X111945000Y-43682499I0J-249999D01*
G01*
G37*
D12*
X97837500Y-47622500D03*
X97837500Y-45722500D03*
X95837500Y-46672500D03*
G36*
G01*
X116337501Y-47002500D02*
X115437499Y-47002500D01*
G75*
G02*
X115187500Y-46752501I0J249999D01*
G01*
X115187500Y-46102499D01*
G75*
G02*
X115437499Y-45852500I249999J0D01*
G01*
X116337501Y-45852500D01*
G75*
G02*
X116587500Y-46102499I0J-249999D01*
G01*
X116587500Y-46752501D01*
G75*
G02*
X116337501Y-47002500I-249999J0D01*
G01*
G37*
G36*
G01*
X116337501Y-44952500D02*
X115437499Y-44952500D01*
G75*
G02*
X115187500Y-44702501I0J249999D01*
G01*
X115187500Y-44052499D01*
G75*
G02*
X115437499Y-43802500I249999J0D01*
G01*
X116337501Y-43802500D01*
G75*
G02*
X116587500Y-44052499I0J-249999D01*
G01*
X116587500Y-44702501D01*
G75*
G02*
X116337501Y-44952500I-249999J0D01*
G01*
G37*
G36*
G01*
X108697500Y-51238999D02*
X108697500Y-52139001D01*
G75*
G02*
X108447501Y-52389000I-249999J0D01*
G01*
X107797499Y-52389000D01*
G75*
G02*
X107547500Y-52139001I0J249999D01*
G01*
X107547500Y-51238999D01*
G75*
G02*
X107797499Y-50989000I249999J0D01*
G01*
X108447501Y-50989000D01*
G75*
G02*
X108697500Y-51238999I0J-249999D01*
G01*
G37*
G36*
G01*
X110747500Y-51238999D02*
X110747500Y-52139001D01*
G75*
G02*
X110497501Y-52389000I-249999J0D01*
G01*
X109847499Y-52389000D01*
G75*
G02*
X109597500Y-52139001I0J249999D01*
G01*
X109597500Y-51238999D01*
G75*
G02*
X109847499Y-50989000I249999J0D01*
G01*
X110497501Y-50989000D01*
G75*
G02*
X110747500Y-51238999I0J-249999D01*
G01*
G37*
M02*
