G04 #@! TF.GenerationSoftware,KiCad,Pcbnew,(5.1.8)-1*
G04 #@! TF.CreationDate,2020-11-11T23:44:18+03:00*
G04 #@! TF.ProjectId,HardDuinoTQFP,48617264-4475-4696-9e6f-545146502e6b,rev?*
G04 #@! TF.SameCoordinates,Original*
G04 #@! TF.FileFunction,Legend,Bot*
G04 #@! TF.FilePolarity,Positive*
%FSLAX46Y46*%
G04 Gerber Fmt 4.6, Leading zero omitted, Abs format (unit mm)*
G04 Created by KiCad (PCBNEW (5.1.8)-1) date 2020-11-11 23:44:18*
%MOMM*%
%LPD*%
G01*
G04 APERTURE LIST*
%ADD10C,0.120000*%
%ADD11C,0.150000*%
G04 APERTURE END LIST*
D10*
X99620000Y-69588748D02*
X99620000Y-70111252D01*
X101040000Y-69588748D02*
X101040000Y-70111252D01*
X114248221Y-71437687D02*
X114617687Y-71068221D01*
X115252313Y-72441779D02*
X115621779Y-72072313D01*
X118744813Y-68949279D02*
X119114279Y-68579813D01*
X117740721Y-67945187D02*
X118110187Y-67575721D01*
X110415000Y-56141252D02*
X110415000Y-55618748D01*
X111835000Y-56141252D02*
X111835000Y-55618748D01*
X95960000Y-69588748D02*
X95960000Y-70111252D01*
X94540000Y-69588748D02*
X94540000Y-70111252D01*
X98817500Y-64508748D02*
X98817500Y-65031252D01*
X97397500Y-64508748D02*
X97397500Y-65031252D01*
X102160000Y-64508748D02*
X102160000Y-65031252D01*
X103580000Y-64508748D02*
X103580000Y-65031252D01*
X104700000Y-64508748D02*
X104700000Y-65031252D01*
X106120000Y-64508748D02*
X106120000Y-65031252D01*
X119152097Y-72986995D02*
X119521563Y-72617529D01*
X118148005Y-71982903D02*
X118517471Y-71613437D01*
D11*
X102592142Y-69683333D02*
X102639761Y-69635714D01*
X102687380Y-69492857D01*
X102687380Y-69397619D01*
X102639761Y-69254761D01*
X102544523Y-69159523D01*
X102449285Y-69111904D01*
X102258809Y-69064285D01*
X102115952Y-69064285D01*
X101925476Y-69111904D01*
X101830238Y-69159523D01*
X101735000Y-69254761D01*
X101687380Y-69397619D01*
X101687380Y-69492857D01*
X101735000Y-69635714D01*
X101782619Y-69683333D01*
X102687380Y-70635714D02*
X102687380Y-70064285D01*
X102687380Y-70350000D02*
X101687380Y-70350000D01*
X101830238Y-70254761D01*
X101925476Y-70159523D01*
X101973095Y-70064285D01*
X116472115Y-73056413D02*
X116539458Y-73056413D01*
X116674145Y-72989069D01*
X116741489Y-72921726D01*
X116808832Y-72787038D01*
X116808832Y-72652351D01*
X116775161Y-72551336D01*
X116674145Y-72382977D01*
X116573130Y-72281962D01*
X116404771Y-72180947D01*
X116303756Y-72147275D01*
X116169069Y-72147275D01*
X116034382Y-72214619D01*
X115967038Y-72281962D01*
X115899695Y-72416649D01*
X115899695Y-72483993D01*
X115630321Y-72753367D02*
X115562977Y-72753367D01*
X115461962Y-72787038D01*
X115293603Y-72955397D01*
X115259932Y-73056413D01*
X115259932Y-73123756D01*
X115293603Y-73224771D01*
X115360947Y-73292115D01*
X115495634Y-73359458D01*
X116303756Y-73359458D01*
X115866023Y-73797191D01*
X119964615Y-69563913D02*
X120031958Y-69563913D01*
X120166645Y-69496569D01*
X120233989Y-69429226D01*
X120301332Y-69294538D01*
X120301332Y-69159851D01*
X120267661Y-69058836D01*
X120166645Y-68890477D01*
X120065630Y-68789462D01*
X119897271Y-68688447D01*
X119796256Y-68654775D01*
X119661569Y-68654775D01*
X119526882Y-68722119D01*
X119459538Y-68789462D01*
X119392195Y-68924149D01*
X119392195Y-68991493D01*
X119089149Y-69159851D02*
X118651416Y-69597584D01*
X119156493Y-69631256D01*
X119055477Y-69732271D01*
X119021806Y-69833287D01*
X119021806Y-69900630D01*
X119055477Y-70001645D01*
X119223836Y-70170004D01*
X119324851Y-70203676D01*
X119392195Y-70203676D01*
X119493210Y-70170004D01*
X119695241Y-69967974D01*
X119728913Y-69866958D01*
X119728913Y-69799615D01*
X113387142Y-55713333D02*
X113434761Y-55665714D01*
X113482380Y-55522857D01*
X113482380Y-55427619D01*
X113434761Y-55284761D01*
X113339523Y-55189523D01*
X113244285Y-55141904D01*
X113053809Y-55094285D01*
X112910952Y-55094285D01*
X112720476Y-55141904D01*
X112625238Y-55189523D01*
X112530000Y-55284761D01*
X112482380Y-55427619D01*
X112482380Y-55522857D01*
X112530000Y-55665714D01*
X112577619Y-55713333D01*
X112815714Y-56570476D02*
X113482380Y-56570476D01*
X112434761Y-56332380D02*
X113149047Y-56094285D01*
X113149047Y-56713333D01*
X95702380Y-66825833D02*
X95226190Y-66492500D01*
X95702380Y-66254404D02*
X94702380Y-66254404D01*
X94702380Y-66635357D01*
X94750000Y-66730595D01*
X94797619Y-66778214D01*
X94892857Y-66825833D01*
X95035714Y-66825833D01*
X95130952Y-66778214D01*
X95178571Y-66730595D01*
X95226190Y-66635357D01*
X95226190Y-66254404D01*
X94797619Y-67206785D02*
X94750000Y-67254404D01*
X94702380Y-67349642D01*
X94702380Y-67587738D01*
X94750000Y-67682976D01*
X94797619Y-67730595D01*
X94892857Y-67778214D01*
X94988095Y-67778214D01*
X95130952Y-67730595D01*
X95702380Y-67159166D01*
X95702380Y-67778214D01*
X100464880Y-64603333D02*
X99988690Y-64270000D01*
X100464880Y-64031904D02*
X99464880Y-64031904D01*
X99464880Y-64412857D01*
X99512500Y-64508095D01*
X99560119Y-64555714D01*
X99655357Y-64603333D01*
X99798214Y-64603333D01*
X99893452Y-64555714D01*
X99941071Y-64508095D01*
X99988690Y-64412857D01*
X99988690Y-64031904D01*
X99464880Y-64936666D02*
X99464880Y-65555714D01*
X99845833Y-65222380D01*
X99845833Y-65365238D01*
X99893452Y-65460476D01*
X99941071Y-65508095D01*
X100036309Y-65555714D01*
X100274404Y-65555714D01*
X100369642Y-65508095D01*
X100417261Y-65460476D01*
X100464880Y-65365238D01*
X100464880Y-65079523D01*
X100417261Y-64984285D01*
X100369642Y-64936666D01*
X101672380Y-64603333D02*
X101196190Y-64270000D01*
X101672380Y-64031904D02*
X100672380Y-64031904D01*
X100672380Y-64412857D01*
X100720000Y-64508095D01*
X100767619Y-64555714D01*
X100862857Y-64603333D01*
X101005714Y-64603333D01*
X101100952Y-64555714D01*
X101148571Y-64508095D01*
X101196190Y-64412857D01*
X101196190Y-64031904D01*
X101005714Y-65460476D02*
X101672380Y-65460476D01*
X100624761Y-65222380D02*
X101339047Y-64984285D01*
X101339047Y-65603333D01*
X107449880Y-64603333D02*
X106973690Y-64270000D01*
X107449880Y-64031904D02*
X106449880Y-64031904D01*
X106449880Y-64412857D01*
X106497500Y-64508095D01*
X106545119Y-64555714D01*
X106640357Y-64603333D01*
X106783214Y-64603333D01*
X106878452Y-64555714D01*
X106926071Y-64508095D01*
X106973690Y-64412857D01*
X106973690Y-64031904D01*
X106449880Y-65508095D02*
X106449880Y-65031904D01*
X106926071Y-64984285D01*
X106878452Y-65031904D01*
X106830833Y-65127142D01*
X106830833Y-65365238D01*
X106878452Y-65460476D01*
X106926071Y-65508095D01*
X107021309Y-65555714D01*
X107259404Y-65555714D01*
X107354642Y-65508095D01*
X107402261Y-65460476D01*
X107449880Y-65365238D01*
X107449880Y-65127142D01*
X107402261Y-65031904D01*
X107354642Y-64984285D01*
X120439241Y-73862030D02*
X120338226Y-73289610D01*
X120843302Y-73457969D02*
X120136196Y-72750862D01*
X119866821Y-73020236D01*
X119833150Y-73121251D01*
X119833150Y-73188595D01*
X119866821Y-73289610D01*
X119967837Y-73390625D01*
X120068852Y-73424297D01*
X120136196Y-73424297D01*
X120237211Y-73390625D01*
X120506585Y-73121251D01*
X119631119Y-73862030D02*
X119664791Y-73761015D01*
X119664791Y-73693671D01*
X119631119Y-73592656D01*
X119597447Y-73558984D01*
X119496432Y-73525312D01*
X119429089Y-73525312D01*
X119328073Y-73558984D01*
X119193386Y-73693671D01*
X119159715Y-73794687D01*
X119159715Y-73862030D01*
X119193386Y-73963045D01*
X119227058Y-73996717D01*
X119328073Y-74030389D01*
X119395417Y-74030389D01*
X119496432Y-73996717D01*
X119631119Y-73862030D01*
X119732134Y-73828358D01*
X119799478Y-73828358D01*
X119900493Y-73862030D01*
X120035180Y-73996717D01*
X120068852Y-74097732D01*
X120068852Y-74165076D01*
X120035180Y-74266091D01*
X119900493Y-74400778D01*
X119799478Y-74434450D01*
X119732134Y-74434450D01*
X119631119Y-74400778D01*
X119496432Y-74266091D01*
X119462760Y-74165076D01*
X119462760Y-74097732D01*
X119496432Y-73996717D01*
M02*
