G04 #@! TF.GenerationSoftware,KiCad,Pcbnew,(5.1.8)-1*
G04 #@! TF.CreationDate,2020-11-11T23:44:18+03:00*
G04 #@! TF.ProjectId,HardDuinoTQFP,48617264-4475-4696-9e6f-545146502e6b,rev?*
G04 #@! TF.SameCoordinates,Original*
G04 #@! TF.FileFunction,Soldermask,Bot*
G04 #@! TF.FilePolarity,Negative*
%FSLAX46Y46*%
G04 Gerber Fmt 4.6, Leading zero omitted, Abs format (unit mm)*
G04 Created by KiCad (PCBNEW (5.1.8)-1) date 2020-11-11 23:44:18*
%MOMM*%
%LPD*%
G01*
G04 APERTURE LIST*
%ADD10C,3.302000*%
%ADD11O,2.402000X2.402000*%
%ADD12O,2.102000X2.102000*%
%ADD13C,1.602000*%
%ADD14C,0.100000*%
G04 APERTURE END LIST*
D10*
X92710000Y-41910000D03*
X92710000Y-74930000D03*
X125730000Y-41910000D03*
X125730000Y-74930000D03*
G36*
G01*
X91509000Y-48140000D02*
X91509000Y-45840000D01*
G75*
G02*
X91560000Y-45789000I51000J0D01*
G01*
X93860000Y-45789000D01*
G75*
G02*
X93911000Y-45840000I0J-51000D01*
G01*
X93911000Y-48140000D01*
G75*
G02*
X93860000Y-48191000I-51000J0D01*
G01*
X91560000Y-48191000D01*
G75*
G02*
X91509000Y-48140000I0J51000D01*
G01*
G37*
D11*
X92710000Y-49530000D03*
X92710000Y-52070000D03*
X92710000Y-54610000D03*
X92710000Y-57150000D03*
X92710000Y-59690000D03*
X92710000Y-62230000D03*
X92710000Y-64770000D03*
X92710000Y-67310000D03*
X92710000Y-69850000D03*
X125730000Y-69850000D03*
X125730000Y-67310000D03*
X125730000Y-64770000D03*
X125730000Y-62230000D03*
X125730000Y-59690000D03*
X125730000Y-57150000D03*
X125730000Y-54610000D03*
X125730000Y-52070000D03*
X125730000Y-49530000D03*
G36*
G01*
X124529000Y-48140000D02*
X124529000Y-45840000D01*
G75*
G02*
X124580000Y-45789000I51000J0D01*
G01*
X126880000Y-45789000D01*
G75*
G02*
X126931000Y-45840000I0J-51000D01*
G01*
X126931000Y-48140000D01*
G75*
G02*
X126880000Y-48191000I-51000J0D01*
G01*
X124580000Y-48191000D01*
G75*
G02*
X124529000Y-48140000I0J51000D01*
G01*
G37*
G36*
G01*
X99851172Y-68199000D02*
X100808828Y-68199000D01*
G75*
G02*
X101081000Y-68471172I0J-272172D01*
G01*
X101081000Y-69178828D01*
G75*
G02*
X100808828Y-69451000I-272172J0D01*
G01*
X99851172Y-69451000D01*
G75*
G02*
X99579000Y-69178828I0J272172D01*
G01*
X99579000Y-68471172D01*
G75*
G02*
X99851172Y-68199000I272172J0D01*
G01*
G37*
G36*
G01*
X99851172Y-70249000D02*
X100808828Y-70249000D01*
G75*
G02*
X101081000Y-70521172I0J-272172D01*
G01*
X101081000Y-71228828D01*
G75*
G02*
X100808828Y-71501000I-272172J0D01*
G01*
X99851172Y-71501000D01*
G75*
G02*
X99579000Y-71228828I0J272172D01*
G01*
X99579000Y-70521172D01*
G75*
G02*
X99851172Y-70249000I272172J0D01*
G01*
G37*
G36*
G01*
X115555717Y-71811448D02*
X114878552Y-71134283D01*
G75*
G02*
X114878552Y-70749373I192455J192455D01*
G01*
X115378941Y-70248984D01*
G75*
G02*
X115763851Y-70248984I192455J-192455D01*
G01*
X116441016Y-70926149D01*
G75*
G02*
X116441016Y-71311059I-192455J-192455D01*
G01*
X115940627Y-71811448D01*
G75*
G02*
X115555717Y-71811448I-192455J192455D01*
G01*
G37*
G36*
G01*
X114106149Y-73261016D02*
X113428984Y-72583851D01*
G75*
G02*
X113428984Y-72198941I192455J192455D01*
G01*
X113929373Y-71698552D01*
G75*
G02*
X114314283Y-71698552I192455J-192455D01*
G01*
X114991448Y-72375717D01*
G75*
G02*
X114991448Y-72760627I-192455J-192455D01*
G01*
X114491059Y-73261016D01*
G75*
G02*
X114106149Y-73261016I-192455J192455D01*
G01*
G37*
G36*
G01*
X117598649Y-69768516D02*
X116921484Y-69091351D01*
G75*
G02*
X116921484Y-68706441I192455J192455D01*
G01*
X117421873Y-68206052D01*
G75*
G02*
X117806783Y-68206052I192455J-192455D01*
G01*
X118483948Y-68883217D01*
G75*
G02*
X118483948Y-69268127I-192455J-192455D01*
G01*
X117983559Y-69768516D01*
G75*
G02*
X117598649Y-69768516I-192455J192455D01*
G01*
G37*
G36*
G01*
X119048217Y-68318948D02*
X118371052Y-67641783D01*
G75*
G02*
X118371052Y-67256873I192455J192455D01*
G01*
X118871441Y-66756484D01*
G75*
G02*
X119256351Y-66756484I192455J-192455D01*
G01*
X119933516Y-67433649D01*
G75*
G02*
X119933516Y-67818559I-192455J-192455D01*
G01*
X119433127Y-68318948D01*
G75*
G02*
X119048217Y-68318948I-192455J192455D01*
G01*
G37*
G36*
G01*
X111603828Y-55481000D02*
X110646172Y-55481000D01*
G75*
G02*
X110374000Y-55208828I0J272172D01*
G01*
X110374000Y-54501172D01*
G75*
G02*
X110646172Y-54229000I272172J0D01*
G01*
X111603828Y-54229000D01*
G75*
G02*
X111876000Y-54501172I0J-272172D01*
G01*
X111876000Y-55208828D01*
G75*
G02*
X111603828Y-55481000I-272172J0D01*
G01*
G37*
G36*
G01*
X111603828Y-57531000D02*
X110646172Y-57531000D01*
G75*
G02*
X110374000Y-57258828I0J272172D01*
G01*
X110374000Y-56551172D01*
G75*
G02*
X110646172Y-56279000I272172J0D01*
G01*
X111603828Y-56279000D01*
G75*
G02*
X111876000Y-56551172I0J-272172D01*
G01*
X111876000Y-57258828D01*
G75*
G02*
X111603828Y-57531000I-272172J0D01*
G01*
G37*
G36*
G01*
X98390500Y-74598500D02*
X97189500Y-74598500D01*
G75*
G02*
X96589000Y-73998000I0J600500D01*
G01*
X96589000Y-72797000D01*
G75*
G02*
X97189500Y-72196500I600500J0D01*
G01*
X98390500Y-72196500D01*
G75*
G02*
X98991000Y-72797000I0J-600500D01*
G01*
X98991000Y-73998000D01*
G75*
G02*
X98390500Y-74598500I-600500J0D01*
G01*
G37*
G36*
G01*
X98390500Y-70098500D02*
X97189500Y-70098500D01*
G75*
G02*
X96589000Y-69498000I0J600500D01*
G01*
X96589000Y-68297000D01*
G75*
G02*
X97189500Y-67696500I600500J0D01*
G01*
X98390500Y-67696500D01*
G75*
G02*
X98991000Y-68297000I0J-600500D01*
G01*
X98991000Y-69498000D01*
G75*
G02*
X98390500Y-70098500I-600500J0D01*
G01*
G37*
G36*
G01*
X104890500Y-74598500D02*
X103689500Y-74598500D01*
G75*
G02*
X103089000Y-73998000I0J600500D01*
G01*
X103089000Y-72797000D01*
G75*
G02*
X103689500Y-72196500I600500J0D01*
G01*
X104890500Y-72196500D01*
G75*
G02*
X105491000Y-72797000I0J-600500D01*
G01*
X105491000Y-73998000D01*
G75*
G02*
X104890500Y-74598500I-600500J0D01*
G01*
G37*
G36*
G01*
X104890500Y-70098500D02*
X103689500Y-70098500D01*
G75*
G02*
X103089000Y-69498000I0J600500D01*
G01*
X103089000Y-68297000D01*
G75*
G02*
X103689500Y-67696500I600500J0D01*
G01*
X104890500Y-67696500D01*
G75*
G02*
X105491000Y-68297000I0J-600500D01*
G01*
X105491000Y-69498000D01*
G75*
G02*
X104890500Y-70098500I-600500J0D01*
G01*
G37*
G36*
G01*
X100695000Y-77886000D02*
X98695000Y-77886000D01*
G75*
G02*
X98644000Y-77835000I0J51000D01*
G01*
X98644000Y-75835000D01*
G75*
G02*
X98695000Y-75784000I51000J0D01*
G01*
X100695000Y-75784000D01*
G75*
G02*
X100746000Y-75835000I0J-51000D01*
G01*
X100746000Y-77835000D01*
G75*
G02*
X100695000Y-77886000I-51000J0D01*
G01*
G37*
D12*
X102235000Y-76835000D03*
X104775000Y-76835000D03*
X107315000Y-76835000D03*
X109855000Y-76835000D03*
G36*
G01*
X94771172Y-70249000D02*
X95728828Y-70249000D01*
G75*
G02*
X96001000Y-70521172I0J-272172D01*
G01*
X96001000Y-71228828D01*
G75*
G02*
X95728828Y-71501000I-272172J0D01*
G01*
X94771172Y-71501000D01*
G75*
G02*
X94499000Y-71228828I0J272172D01*
G01*
X94499000Y-70521172D01*
G75*
G02*
X94771172Y-70249000I272172J0D01*
G01*
G37*
G36*
G01*
X94771172Y-68199000D02*
X95728828Y-68199000D01*
G75*
G02*
X96001000Y-68471172I0J-272172D01*
G01*
X96001000Y-69178828D01*
G75*
G02*
X95728828Y-69451000I-272172J0D01*
G01*
X94771172Y-69451000D01*
G75*
G02*
X94499000Y-69178828I0J272172D01*
G01*
X94499000Y-68471172D01*
G75*
G02*
X94771172Y-68199000I272172J0D01*
G01*
G37*
G36*
G01*
X97628672Y-65169000D02*
X98586328Y-65169000D01*
G75*
G02*
X98858500Y-65441172I0J-272172D01*
G01*
X98858500Y-66148828D01*
G75*
G02*
X98586328Y-66421000I-272172J0D01*
G01*
X97628672Y-66421000D01*
G75*
G02*
X97356500Y-66148828I0J272172D01*
G01*
X97356500Y-65441172D01*
G75*
G02*
X97628672Y-65169000I272172J0D01*
G01*
G37*
G36*
G01*
X97628672Y-63119000D02*
X98586328Y-63119000D01*
G75*
G02*
X98858500Y-63391172I0J-272172D01*
G01*
X98858500Y-64098828D01*
G75*
G02*
X98586328Y-64371000I-272172J0D01*
G01*
X97628672Y-64371000D01*
G75*
G02*
X97356500Y-64098828I0J272172D01*
G01*
X97356500Y-63391172D01*
G75*
G02*
X97628672Y-63119000I272172J0D01*
G01*
G37*
G36*
G01*
X102391172Y-63119000D02*
X103348828Y-63119000D01*
G75*
G02*
X103621000Y-63391172I0J-272172D01*
G01*
X103621000Y-64098828D01*
G75*
G02*
X103348828Y-64371000I-272172J0D01*
G01*
X102391172Y-64371000D01*
G75*
G02*
X102119000Y-64098828I0J272172D01*
G01*
X102119000Y-63391172D01*
G75*
G02*
X102391172Y-63119000I272172J0D01*
G01*
G37*
G36*
G01*
X102391172Y-65169000D02*
X103348828Y-65169000D01*
G75*
G02*
X103621000Y-65441172I0J-272172D01*
G01*
X103621000Y-66148828D01*
G75*
G02*
X103348828Y-66421000I-272172J0D01*
G01*
X102391172Y-66421000D01*
G75*
G02*
X102119000Y-66148828I0J272172D01*
G01*
X102119000Y-65441172D01*
G75*
G02*
X102391172Y-65169000I272172J0D01*
G01*
G37*
G36*
G01*
X104931172Y-63119000D02*
X105888828Y-63119000D01*
G75*
G02*
X106161000Y-63391172I0J-272172D01*
G01*
X106161000Y-64098828D01*
G75*
G02*
X105888828Y-64371000I-272172J0D01*
G01*
X104931172Y-64371000D01*
G75*
G02*
X104659000Y-64098828I0J272172D01*
G01*
X104659000Y-63391172D01*
G75*
G02*
X104931172Y-63119000I272172J0D01*
G01*
G37*
G36*
G01*
X104931172Y-65169000D02*
X105888828Y-65169000D01*
G75*
G02*
X106161000Y-65441172I0J-272172D01*
G01*
X106161000Y-66148828D01*
G75*
G02*
X105888828Y-66421000I-272172J0D01*
G01*
X104931172Y-66421000D01*
G75*
G02*
X104659000Y-66148828I0J272172D01*
G01*
X104659000Y-65441172D01*
G75*
G02*
X104931172Y-65169000I272172J0D01*
G01*
G37*
D13*
X113030000Y-69850000D03*
X116480681Y-66399319D03*
G36*
G01*
X102115000Y-44381000D02*
X99815000Y-44381000D01*
G75*
G02*
X99764000Y-44330000I0J51000D01*
G01*
X99764000Y-42030000D01*
G75*
G02*
X99815000Y-41979000I51000J0D01*
G01*
X102115000Y-41979000D01*
G75*
G02*
X102166000Y-42030000I0J-51000D01*
G01*
X102166000Y-44330000D01*
G75*
G02*
X102115000Y-44381000I-51000J0D01*
G01*
G37*
D11*
X100965000Y-40640000D03*
X103505000Y-43180000D03*
X103505000Y-40640000D03*
X106045000Y-43180000D03*
X106045000Y-40640000D03*
G36*
G01*
X113399000Y-76732500D02*
X113399000Y-75032500D01*
G75*
G02*
X113450000Y-74981500I51000J0D01*
G01*
X115150000Y-74981500D01*
G75*
G02*
X115201000Y-75032500I0J-51000D01*
G01*
X115201000Y-76732500D01*
G75*
G02*
X115150000Y-76783500I-51000J0D01*
G01*
X113450000Y-76783500D01*
G75*
G02*
X113399000Y-76732500I0J51000D01*
G01*
G37*
G36*
G01*
X118005933Y-73806232D02*
X117328768Y-73129067D01*
G75*
G02*
X117328768Y-72744157I192455J192455D01*
G01*
X117829157Y-72243768D01*
G75*
G02*
X118214067Y-72243768I192455J-192455D01*
G01*
X118891232Y-72920933D01*
G75*
G02*
X118891232Y-73305843I-192455J-192455D01*
G01*
X118390843Y-73806232D01*
G75*
G02*
X118005933Y-73806232I-192455J192455D01*
G01*
G37*
G36*
G01*
X119455501Y-72356664D02*
X118778336Y-71679499D01*
G75*
G02*
X118778336Y-71294589I192455J192455D01*
G01*
X119278725Y-70794200D01*
G75*
G02*
X119663635Y-70794200I192455J-192455D01*
G01*
X120340800Y-71471365D01*
G75*
G02*
X120340800Y-71856275I-192455J-192455D01*
G01*
X119840411Y-72356664D01*
G75*
G02*
X119455501Y-72356664I-192455J192455D01*
G01*
G37*
D14*
G36*
X105492165Y-73996374D02*
G01*
X105493000Y-73998000D01*
X105493000Y-74020546D01*
X105492990Y-74020742D01*
X105481695Y-74135423D01*
X105481619Y-74135808D01*
X105448884Y-74243722D01*
X105448734Y-74244084D01*
X105395573Y-74343539D01*
X105395355Y-74343865D01*
X105323815Y-74431038D01*
X105323538Y-74431315D01*
X105236365Y-74502855D01*
X105236039Y-74503073D01*
X105136584Y-74556234D01*
X105136222Y-74556384D01*
X105028308Y-74589119D01*
X105027923Y-74589195D01*
X104913242Y-74600490D01*
X104913046Y-74600500D01*
X104890500Y-74600500D01*
X104888768Y-74599500D01*
X104888768Y-74597500D01*
X104890304Y-74596510D01*
X105007257Y-74584992D01*
X105119532Y-74550933D01*
X105223004Y-74495627D01*
X105313697Y-74421197D01*
X105388127Y-74330504D01*
X105443433Y-74227032D01*
X105477492Y-74114757D01*
X105489010Y-73997804D01*
X105490175Y-73996178D01*
X105492165Y-73996374D01*
G37*
G36*
X98992165Y-73996374D02*
G01*
X98993000Y-73998000D01*
X98993000Y-74020546D01*
X98992990Y-74020742D01*
X98981695Y-74135423D01*
X98981619Y-74135808D01*
X98948884Y-74243722D01*
X98948734Y-74244084D01*
X98895573Y-74343539D01*
X98895355Y-74343865D01*
X98823815Y-74431038D01*
X98823538Y-74431315D01*
X98736365Y-74502855D01*
X98736039Y-74503073D01*
X98636584Y-74556234D01*
X98636222Y-74556384D01*
X98528308Y-74589119D01*
X98527923Y-74589195D01*
X98413242Y-74600490D01*
X98413046Y-74600500D01*
X98390500Y-74600500D01*
X98388768Y-74599500D01*
X98388768Y-74597500D01*
X98390304Y-74596510D01*
X98507257Y-74584992D01*
X98619532Y-74550933D01*
X98723004Y-74495627D01*
X98813697Y-74421197D01*
X98888127Y-74330504D01*
X98943433Y-74227032D01*
X98977492Y-74114757D01*
X98989010Y-73997804D01*
X98990175Y-73996178D01*
X98992165Y-73996374D01*
G37*
G36*
X96590990Y-73997804D02*
G01*
X96602508Y-74114757D01*
X96636567Y-74227032D01*
X96691873Y-74330504D01*
X96766303Y-74421197D01*
X96856996Y-74495627D01*
X96960468Y-74550933D01*
X97072743Y-74584992D01*
X97189696Y-74596510D01*
X97191322Y-74597675D01*
X97191126Y-74599665D01*
X97189500Y-74600500D01*
X97166954Y-74600500D01*
X97166758Y-74600490D01*
X97052077Y-74589195D01*
X97051692Y-74589119D01*
X96943778Y-74556384D01*
X96943416Y-74556234D01*
X96843961Y-74503073D01*
X96843635Y-74502855D01*
X96756462Y-74431315D01*
X96756185Y-74431038D01*
X96684645Y-74343865D01*
X96684427Y-74343539D01*
X96631266Y-74244084D01*
X96631116Y-74243722D01*
X96598381Y-74135808D01*
X96598305Y-74135423D01*
X96587010Y-74020742D01*
X96587000Y-74020546D01*
X96587000Y-73998000D01*
X96588000Y-73996268D01*
X96590000Y-73996268D01*
X96590990Y-73997804D01*
G37*
G36*
X103090990Y-73997804D02*
G01*
X103102508Y-74114757D01*
X103136567Y-74227032D01*
X103191873Y-74330504D01*
X103266303Y-74421197D01*
X103356996Y-74495627D01*
X103460468Y-74550933D01*
X103572743Y-74584992D01*
X103689696Y-74596510D01*
X103691322Y-74597675D01*
X103691126Y-74599665D01*
X103689500Y-74600500D01*
X103666954Y-74600500D01*
X103666758Y-74600490D01*
X103552077Y-74589195D01*
X103551692Y-74589119D01*
X103443778Y-74556384D01*
X103443416Y-74556234D01*
X103343961Y-74503073D01*
X103343635Y-74502855D01*
X103256462Y-74431315D01*
X103256185Y-74431038D01*
X103184645Y-74343865D01*
X103184427Y-74343539D01*
X103131266Y-74244084D01*
X103131116Y-74243722D01*
X103098381Y-74135808D01*
X103098305Y-74135423D01*
X103087010Y-74020742D01*
X103087000Y-74020546D01*
X103087000Y-73998000D01*
X103088000Y-73996268D01*
X103090000Y-73996268D01*
X103090990Y-73997804D01*
G37*
G36*
X103691232Y-72195500D02*
G01*
X103691232Y-72197500D01*
X103689696Y-72198490D01*
X103572743Y-72210008D01*
X103460468Y-72244067D01*
X103356996Y-72299373D01*
X103266303Y-72373803D01*
X103191873Y-72464496D01*
X103136567Y-72567968D01*
X103102508Y-72680243D01*
X103090990Y-72797196D01*
X103089825Y-72798822D01*
X103087835Y-72798626D01*
X103087000Y-72797000D01*
X103087000Y-72774454D01*
X103087010Y-72774258D01*
X103098305Y-72659577D01*
X103098381Y-72659192D01*
X103131116Y-72551278D01*
X103131266Y-72550916D01*
X103184427Y-72451461D01*
X103184645Y-72451135D01*
X103256185Y-72363962D01*
X103256462Y-72363685D01*
X103343635Y-72292145D01*
X103343961Y-72291927D01*
X103443416Y-72238766D01*
X103443778Y-72238616D01*
X103551692Y-72205881D01*
X103552077Y-72205805D01*
X103666758Y-72194510D01*
X103666954Y-72194500D01*
X103689500Y-72194500D01*
X103691232Y-72195500D01*
G37*
G36*
X97191232Y-72195500D02*
G01*
X97191232Y-72197500D01*
X97189696Y-72198490D01*
X97072743Y-72210008D01*
X96960468Y-72244067D01*
X96856996Y-72299373D01*
X96766303Y-72373803D01*
X96691873Y-72464496D01*
X96636567Y-72567968D01*
X96602508Y-72680243D01*
X96590990Y-72797196D01*
X96589825Y-72798822D01*
X96587835Y-72798626D01*
X96587000Y-72797000D01*
X96587000Y-72774454D01*
X96587010Y-72774258D01*
X96598305Y-72659577D01*
X96598381Y-72659192D01*
X96631116Y-72551278D01*
X96631266Y-72550916D01*
X96684427Y-72451461D01*
X96684645Y-72451135D01*
X96756185Y-72363962D01*
X96756462Y-72363685D01*
X96843635Y-72292145D01*
X96843961Y-72291927D01*
X96943416Y-72238766D01*
X96943778Y-72238616D01*
X97051692Y-72205881D01*
X97052077Y-72205805D01*
X97166758Y-72194510D01*
X97166954Y-72194500D01*
X97189500Y-72194500D01*
X97191232Y-72195500D01*
G37*
G36*
X98413242Y-72194510D02*
G01*
X98527923Y-72205805D01*
X98528308Y-72205881D01*
X98636222Y-72238616D01*
X98636584Y-72238766D01*
X98736039Y-72291927D01*
X98736365Y-72292145D01*
X98823538Y-72363685D01*
X98823815Y-72363962D01*
X98895355Y-72451135D01*
X98895573Y-72451461D01*
X98948734Y-72550916D01*
X98948884Y-72551278D01*
X98981619Y-72659192D01*
X98981695Y-72659577D01*
X98992990Y-72774258D01*
X98993000Y-72774454D01*
X98993000Y-72797000D01*
X98992000Y-72798732D01*
X98990000Y-72798732D01*
X98989010Y-72797196D01*
X98977492Y-72680243D01*
X98943433Y-72567968D01*
X98888127Y-72464496D01*
X98813697Y-72373803D01*
X98723004Y-72299373D01*
X98619532Y-72244067D01*
X98507257Y-72210008D01*
X98390304Y-72198490D01*
X98388678Y-72197325D01*
X98388874Y-72195335D01*
X98390500Y-72194500D01*
X98413046Y-72194500D01*
X98413242Y-72194510D01*
G37*
G36*
X104913242Y-72194510D02*
G01*
X105027923Y-72205805D01*
X105028308Y-72205881D01*
X105136222Y-72238616D01*
X105136584Y-72238766D01*
X105236039Y-72291927D01*
X105236365Y-72292145D01*
X105323538Y-72363685D01*
X105323815Y-72363962D01*
X105395355Y-72451135D01*
X105395573Y-72451461D01*
X105448734Y-72550916D01*
X105448884Y-72551278D01*
X105481619Y-72659192D01*
X105481695Y-72659577D01*
X105492990Y-72774258D01*
X105493000Y-72774454D01*
X105493000Y-72797000D01*
X105492000Y-72798732D01*
X105490000Y-72798732D01*
X105489010Y-72797196D01*
X105477492Y-72680243D01*
X105443433Y-72567968D01*
X105388127Y-72464496D01*
X105313697Y-72373803D01*
X105223004Y-72299373D01*
X105119532Y-72244067D01*
X105007257Y-72210008D01*
X104890304Y-72198490D01*
X104888678Y-72197325D01*
X104888874Y-72195335D01*
X104890500Y-72194500D01*
X104913046Y-72194500D01*
X104913242Y-72194510D01*
G37*
G36*
X103090990Y-69497804D02*
G01*
X103102508Y-69614757D01*
X103136567Y-69727032D01*
X103191873Y-69830504D01*
X103266303Y-69921197D01*
X103356996Y-69995627D01*
X103460468Y-70050933D01*
X103572743Y-70084992D01*
X103689696Y-70096510D01*
X103691322Y-70097675D01*
X103691126Y-70099665D01*
X103689500Y-70100500D01*
X103666954Y-70100500D01*
X103666758Y-70100490D01*
X103552077Y-70089195D01*
X103551692Y-70089119D01*
X103443778Y-70056384D01*
X103443416Y-70056234D01*
X103343961Y-70003073D01*
X103343635Y-70002855D01*
X103256462Y-69931315D01*
X103256185Y-69931038D01*
X103184645Y-69843865D01*
X103184427Y-69843539D01*
X103131266Y-69744084D01*
X103131116Y-69743722D01*
X103098381Y-69635808D01*
X103098305Y-69635423D01*
X103087010Y-69520742D01*
X103087000Y-69520546D01*
X103087000Y-69498000D01*
X103088000Y-69496268D01*
X103090000Y-69496268D01*
X103090990Y-69497804D01*
G37*
G36*
X98992165Y-69496374D02*
G01*
X98993000Y-69498000D01*
X98993000Y-69520546D01*
X98992990Y-69520742D01*
X98981695Y-69635423D01*
X98981619Y-69635808D01*
X98948884Y-69743722D01*
X98948734Y-69744084D01*
X98895573Y-69843539D01*
X98895355Y-69843865D01*
X98823815Y-69931038D01*
X98823538Y-69931315D01*
X98736365Y-70002855D01*
X98736039Y-70003073D01*
X98636584Y-70056234D01*
X98636222Y-70056384D01*
X98528308Y-70089119D01*
X98527923Y-70089195D01*
X98413242Y-70100490D01*
X98413046Y-70100500D01*
X98390500Y-70100500D01*
X98388768Y-70099500D01*
X98388768Y-70097500D01*
X98390304Y-70096510D01*
X98507257Y-70084992D01*
X98619532Y-70050933D01*
X98723004Y-69995627D01*
X98813697Y-69921197D01*
X98888127Y-69830504D01*
X98943433Y-69727032D01*
X98977492Y-69614757D01*
X98989010Y-69497804D01*
X98990175Y-69496178D01*
X98992165Y-69496374D01*
G37*
G36*
X105492165Y-69496374D02*
G01*
X105493000Y-69498000D01*
X105493000Y-69520546D01*
X105492990Y-69520742D01*
X105481695Y-69635423D01*
X105481619Y-69635808D01*
X105448884Y-69743722D01*
X105448734Y-69744084D01*
X105395573Y-69843539D01*
X105395355Y-69843865D01*
X105323815Y-69931038D01*
X105323538Y-69931315D01*
X105236365Y-70002855D01*
X105236039Y-70003073D01*
X105136584Y-70056234D01*
X105136222Y-70056384D01*
X105028308Y-70089119D01*
X105027923Y-70089195D01*
X104913242Y-70100490D01*
X104913046Y-70100500D01*
X104890500Y-70100500D01*
X104888768Y-70099500D01*
X104888768Y-70097500D01*
X104890304Y-70096510D01*
X105007257Y-70084992D01*
X105119532Y-70050933D01*
X105223004Y-69995627D01*
X105313697Y-69921197D01*
X105388127Y-69830504D01*
X105443433Y-69727032D01*
X105477492Y-69614757D01*
X105489010Y-69497804D01*
X105490175Y-69496178D01*
X105492165Y-69496374D01*
G37*
G36*
X96590990Y-69497804D02*
G01*
X96602508Y-69614757D01*
X96636567Y-69727032D01*
X96691873Y-69830504D01*
X96766303Y-69921197D01*
X96856996Y-69995627D01*
X96960468Y-70050933D01*
X97072743Y-70084992D01*
X97189696Y-70096510D01*
X97191322Y-70097675D01*
X97191126Y-70099665D01*
X97189500Y-70100500D01*
X97166954Y-70100500D01*
X97166758Y-70100490D01*
X97052077Y-70089195D01*
X97051692Y-70089119D01*
X96943778Y-70056384D01*
X96943416Y-70056234D01*
X96843961Y-70003073D01*
X96843635Y-70002855D01*
X96756462Y-69931315D01*
X96756185Y-69931038D01*
X96684645Y-69843865D01*
X96684427Y-69843539D01*
X96631266Y-69744084D01*
X96631116Y-69743722D01*
X96598381Y-69635808D01*
X96598305Y-69635423D01*
X96587010Y-69520742D01*
X96587000Y-69520546D01*
X96587000Y-69498000D01*
X96588000Y-69496268D01*
X96590000Y-69496268D01*
X96590990Y-69497804D01*
G37*
G36*
X103691232Y-67695500D02*
G01*
X103691232Y-67697500D01*
X103689696Y-67698490D01*
X103572743Y-67710008D01*
X103460468Y-67744067D01*
X103356996Y-67799373D01*
X103266303Y-67873803D01*
X103191873Y-67964496D01*
X103136567Y-68067968D01*
X103102508Y-68180243D01*
X103090990Y-68297196D01*
X103089825Y-68298822D01*
X103087835Y-68298626D01*
X103087000Y-68297000D01*
X103087000Y-68274454D01*
X103087010Y-68274258D01*
X103098305Y-68159577D01*
X103098381Y-68159192D01*
X103131116Y-68051278D01*
X103131266Y-68050916D01*
X103184427Y-67951461D01*
X103184645Y-67951135D01*
X103256185Y-67863962D01*
X103256462Y-67863685D01*
X103343635Y-67792145D01*
X103343961Y-67791927D01*
X103443416Y-67738766D01*
X103443778Y-67738616D01*
X103551692Y-67705881D01*
X103552077Y-67705805D01*
X103666758Y-67694510D01*
X103666954Y-67694500D01*
X103689500Y-67694500D01*
X103691232Y-67695500D01*
G37*
G36*
X97191232Y-67695500D02*
G01*
X97191232Y-67697500D01*
X97189696Y-67698490D01*
X97072743Y-67710008D01*
X96960468Y-67744067D01*
X96856996Y-67799373D01*
X96766303Y-67873803D01*
X96691873Y-67964496D01*
X96636567Y-68067968D01*
X96602508Y-68180243D01*
X96590990Y-68297196D01*
X96589825Y-68298822D01*
X96587835Y-68298626D01*
X96587000Y-68297000D01*
X96587000Y-68274454D01*
X96587010Y-68274258D01*
X96598305Y-68159577D01*
X96598381Y-68159192D01*
X96631116Y-68051278D01*
X96631266Y-68050916D01*
X96684427Y-67951461D01*
X96684645Y-67951135D01*
X96756185Y-67863962D01*
X96756462Y-67863685D01*
X96843635Y-67792145D01*
X96843961Y-67791927D01*
X96943416Y-67738766D01*
X96943778Y-67738616D01*
X97051692Y-67705881D01*
X97052077Y-67705805D01*
X97166758Y-67694510D01*
X97166954Y-67694500D01*
X97189500Y-67694500D01*
X97191232Y-67695500D01*
G37*
G36*
X98413242Y-67694510D02*
G01*
X98527923Y-67705805D01*
X98528308Y-67705881D01*
X98636222Y-67738616D01*
X98636584Y-67738766D01*
X98736039Y-67791927D01*
X98736365Y-67792145D01*
X98823538Y-67863685D01*
X98823815Y-67863962D01*
X98895355Y-67951135D01*
X98895573Y-67951461D01*
X98948734Y-68050916D01*
X98948884Y-68051278D01*
X98981619Y-68159192D01*
X98981695Y-68159577D01*
X98992990Y-68274258D01*
X98993000Y-68274454D01*
X98993000Y-68297000D01*
X98992000Y-68298732D01*
X98990000Y-68298732D01*
X98989010Y-68297196D01*
X98977492Y-68180243D01*
X98943433Y-68067968D01*
X98888127Y-67964496D01*
X98813697Y-67873803D01*
X98723004Y-67799373D01*
X98619532Y-67744067D01*
X98507257Y-67710008D01*
X98390304Y-67698490D01*
X98388678Y-67697325D01*
X98388874Y-67695335D01*
X98390500Y-67694500D01*
X98413046Y-67694500D01*
X98413242Y-67694510D01*
G37*
G36*
X104913242Y-67694510D02*
G01*
X105027923Y-67705805D01*
X105028308Y-67705881D01*
X105136222Y-67738616D01*
X105136584Y-67738766D01*
X105236039Y-67791927D01*
X105236365Y-67792145D01*
X105323538Y-67863685D01*
X105323815Y-67863962D01*
X105395355Y-67951135D01*
X105395573Y-67951461D01*
X105448734Y-68050916D01*
X105448884Y-68051278D01*
X105481619Y-68159192D01*
X105481695Y-68159577D01*
X105492990Y-68274258D01*
X105493000Y-68274454D01*
X105493000Y-68297000D01*
X105492000Y-68298732D01*
X105490000Y-68298732D01*
X105489010Y-68297196D01*
X105477492Y-68180243D01*
X105443433Y-68067968D01*
X105388127Y-67964496D01*
X105313697Y-67873803D01*
X105223004Y-67799373D01*
X105119532Y-67744067D01*
X105007257Y-67710008D01*
X104890304Y-67698490D01*
X104888678Y-67697325D01*
X104888874Y-67695335D01*
X104890500Y-67694500D01*
X104913046Y-67694500D01*
X104913242Y-67694510D01*
G37*
M02*
