G04 #@! TF.GenerationSoftware,KiCad,Pcbnew,(5.1.4)-1*
G04 #@! TF.CreationDate,2020-01-25T22:58:35+03:00*
G04 #@! TF.ProjectId,LED,4c45442e-6b69-4636-9164-5f7063625858,rev?*
G04 #@! TF.SameCoordinates,Original*
G04 #@! TF.FileFunction,Copper,L1,Top*
G04 #@! TF.FilePolarity,Positive*
%FSLAX46Y46*%
G04 Gerber Fmt 4.6, Leading zero omitted, Abs format (unit mm)*
G04 Created by KiCad (PCBNEW (5.1.4)-1) date 2020-01-25 22:58:36*
%MOMM*%
%LPD*%
G04 APERTURE LIST*
%ADD10C,0.150000*%
%ADD11C,2.200000*%
%ADD12C,1.150000*%
%ADD13R,2.000000X2.000000*%
%ADD14C,2.000000*%
%ADD15C,0.600000*%
%ADD16C,1.500000*%
%ADD17C,1.300000*%
%ADD18C,0.500000*%
%ADD19C,0.400000*%
%ADD20C,0.600000*%
%ADD21C,0.800000*%
%ADD22C,0.300000*%
G04 APERTURE END LIST*
D10*
X127000000Y-50800000D02*
G75*
G02X129540000Y-53340000I0J-2540000D01*
G01*
X129540000Y-88900000D02*
G75*
G02X127000000Y-91440000I-2540000J0D01*
G01*
X91440000Y-91440000D02*
G75*
G02X88900000Y-88900000I0J2540000D01*
G01*
X88900000Y-53340000D02*
G75*
G02X91440000Y-50800000I2540000J0D01*
G01*
X88900000Y-88900000D02*
X88900000Y-53340000D01*
X127000000Y-91440000D02*
X91440000Y-91440000D01*
X129540000Y-53340000D02*
X129540000Y-88900000D01*
X91440000Y-50800000D02*
X127000000Y-50800000D01*
G36*
X98901909Y-76372648D02*
G01*
X98955300Y-76380568D01*
X99007657Y-76393683D01*
X99058476Y-76411866D01*
X99107268Y-76434943D01*
X99153564Y-76462692D01*
X99196916Y-76494844D01*
X99236909Y-76531091D01*
X99273156Y-76571084D01*
X99305308Y-76614436D01*
X99333057Y-76660732D01*
X99356134Y-76709524D01*
X99374317Y-76760343D01*
X99387432Y-76812700D01*
X99395352Y-76866091D01*
X99398000Y-76920000D01*
X99398000Y-78020000D01*
X99395352Y-78073909D01*
X99387432Y-78127300D01*
X99374317Y-78179657D01*
X99356134Y-78230476D01*
X99333057Y-78279268D01*
X99305308Y-78325564D01*
X99273156Y-78368916D01*
X99236909Y-78408909D01*
X99196916Y-78445156D01*
X99153564Y-78477308D01*
X99107268Y-78505057D01*
X99058476Y-78528134D01*
X99007657Y-78546317D01*
X98955300Y-78559432D01*
X98901909Y-78567352D01*
X98848000Y-78570000D01*
X97748000Y-78570000D01*
X97694091Y-78567352D01*
X97640700Y-78559432D01*
X97588343Y-78546317D01*
X97537524Y-78528134D01*
X97488732Y-78505057D01*
X97442436Y-78477308D01*
X97399084Y-78445156D01*
X97359091Y-78408909D01*
X97322844Y-78368916D01*
X97290692Y-78325564D01*
X97262943Y-78279268D01*
X97239866Y-78230476D01*
X97221683Y-78179657D01*
X97208568Y-78127300D01*
X97200648Y-78073909D01*
X97198000Y-78020000D01*
X97198000Y-76920000D01*
X97200648Y-76866091D01*
X97208568Y-76812700D01*
X97221683Y-76760343D01*
X97239866Y-76709524D01*
X97262943Y-76660732D01*
X97290692Y-76614436D01*
X97322844Y-76571084D01*
X97359091Y-76531091D01*
X97399084Y-76494844D01*
X97442436Y-76462692D01*
X97488732Y-76434943D01*
X97537524Y-76411866D01*
X97588343Y-76393683D01*
X97640700Y-76380568D01*
X97694091Y-76372648D01*
X97748000Y-76370000D01*
X98848000Y-76370000D01*
X98901909Y-76372648D01*
X98901909Y-76372648D01*
G37*
D11*
X98298000Y-77470000D03*
D10*
G36*
X98901909Y-73832648D02*
G01*
X98955300Y-73840568D01*
X99007657Y-73853683D01*
X99058476Y-73871866D01*
X99107268Y-73894943D01*
X99153564Y-73922692D01*
X99196916Y-73954844D01*
X99236909Y-73991091D01*
X99273156Y-74031084D01*
X99305308Y-74074436D01*
X99333057Y-74120732D01*
X99356134Y-74169524D01*
X99374317Y-74220343D01*
X99387432Y-74272700D01*
X99395352Y-74326091D01*
X99398000Y-74380000D01*
X99398000Y-75480000D01*
X99395352Y-75533909D01*
X99387432Y-75587300D01*
X99374317Y-75639657D01*
X99356134Y-75690476D01*
X99333057Y-75739268D01*
X99305308Y-75785564D01*
X99273156Y-75828916D01*
X99236909Y-75868909D01*
X99196916Y-75905156D01*
X99153564Y-75937308D01*
X99107268Y-75965057D01*
X99058476Y-75988134D01*
X99007657Y-76006317D01*
X98955300Y-76019432D01*
X98901909Y-76027352D01*
X98848000Y-76030000D01*
X97748000Y-76030000D01*
X97694091Y-76027352D01*
X97640700Y-76019432D01*
X97588343Y-76006317D01*
X97537524Y-75988134D01*
X97488732Y-75965057D01*
X97442436Y-75937308D01*
X97399084Y-75905156D01*
X97359091Y-75868909D01*
X97322844Y-75828916D01*
X97290692Y-75785564D01*
X97262943Y-75739268D01*
X97239866Y-75690476D01*
X97221683Y-75639657D01*
X97208568Y-75587300D01*
X97200648Y-75533909D01*
X97198000Y-75480000D01*
X97198000Y-74380000D01*
X97200648Y-74326091D01*
X97208568Y-74272700D01*
X97221683Y-74220343D01*
X97239866Y-74169524D01*
X97262943Y-74120732D01*
X97290692Y-74074436D01*
X97322844Y-74031084D01*
X97359091Y-73991091D01*
X97399084Y-73954844D01*
X97442436Y-73922692D01*
X97488732Y-73894943D01*
X97537524Y-73871866D01*
X97588343Y-73853683D01*
X97640700Y-73840568D01*
X97694091Y-73832648D01*
X97748000Y-73830000D01*
X98848000Y-73830000D01*
X98901909Y-73832648D01*
X98901909Y-73832648D01*
G37*
D11*
X98298000Y-74930000D03*
D10*
G36*
X98901909Y-71292648D02*
G01*
X98955300Y-71300568D01*
X99007657Y-71313683D01*
X99058476Y-71331866D01*
X99107268Y-71354943D01*
X99153564Y-71382692D01*
X99196916Y-71414844D01*
X99236909Y-71451091D01*
X99273156Y-71491084D01*
X99305308Y-71534436D01*
X99333057Y-71580732D01*
X99356134Y-71629524D01*
X99374317Y-71680343D01*
X99387432Y-71732700D01*
X99395352Y-71786091D01*
X99398000Y-71840000D01*
X99398000Y-72940000D01*
X99395352Y-72993909D01*
X99387432Y-73047300D01*
X99374317Y-73099657D01*
X99356134Y-73150476D01*
X99333057Y-73199268D01*
X99305308Y-73245564D01*
X99273156Y-73288916D01*
X99236909Y-73328909D01*
X99196916Y-73365156D01*
X99153564Y-73397308D01*
X99107268Y-73425057D01*
X99058476Y-73448134D01*
X99007657Y-73466317D01*
X98955300Y-73479432D01*
X98901909Y-73487352D01*
X98848000Y-73490000D01*
X97748000Y-73490000D01*
X97694091Y-73487352D01*
X97640700Y-73479432D01*
X97588343Y-73466317D01*
X97537524Y-73448134D01*
X97488732Y-73425057D01*
X97442436Y-73397308D01*
X97399084Y-73365156D01*
X97359091Y-73328909D01*
X97322844Y-73288916D01*
X97290692Y-73245564D01*
X97262943Y-73199268D01*
X97239866Y-73150476D01*
X97221683Y-73099657D01*
X97208568Y-73047300D01*
X97200648Y-72993909D01*
X97198000Y-72940000D01*
X97198000Y-71840000D01*
X97200648Y-71786091D01*
X97208568Y-71732700D01*
X97221683Y-71680343D01*
X97239866Y-71629524D01*
X97262943Y-71580732D01*
X97290692Y-71534436D01*
X97322844Y-71491084D01*
X97359091Y-71451091D01*
X97399084Y-71414844D01*
X97442436Y-71382692D01*
X97488732Y-71354943D01*
X97537524Y-71331866D01*
X97588343Y-71313683D01*
X97640700Y-71300568D01*
X97694091Y-71292648D01*
X97748000Y-71290000D01*
X98848000Y-71290000D01*
X98901909Y-71292648D01*
X98901909Y-71292648D01*
G37*
D11*
X98298000Y-72390000D03*
D10*
G36*
X98901909Y-68752648D02*
G01*
X98955300Y-68760568D01*
X99007657Y-68773683D01*
X99058476Y-68791866D01*
X99107268Y-68814943D01*
X99153564Y-68842692D01*
X99196916Y-68874844D01*
X99236909Y-68911091D01*
X99273156Y-68951084D01*
X99305308Y-68994436D01*
X99333057Y-69040732D01*
X99356134Y-69089524D01*
X99374317Y-69140343D01*
X99387432Y-69192700D01*
X99395352Y-69246091D01*
X99398000Y-69300000D01*
X99398000Y-70400000D01*
X99395352Y-70453909D01*
X99387432Y-70507300D01*
X99374317Y-70559657D01*
X99356134Y-70610476D01*
X99333057Y-70659268D01*
X99305308Y-70705564D01*
X99273156Y-70748916D01*
X99236909Y-70788909D01*
X99196916Y-70825156D01*
X99153564Y-70857308D01*
X99107268Y-70885057D01*
X99058476Y-70908134D01*
X99007657Y-70926317D01*
X98955300Y-70939432D01*
X98901909Y-70947352D01*
X98848000Y-70950000D01*
X97748000Y-70950000D01*
X97694091Y-70947352D01*
X97640700Y-70939432D01*
X97588343Y-70926317D01*
X97537524Y-70908134D01*
X97488732Y-70885057D01*
X97442436Y-70857308D01*
X97399084Y-70825156D01*
X97359091Y-70788909D01*
X97322844Y-70748916D01*
X97290692Y-70705564D01*
X97262943Y-70659268D01*
X97239866Y-70610476D01*
X97221683Y-70559657D01*
X97208568Y-70507300D01*
X97200648Y-70453909D01*
X97198000Y-70400000D01*
X97198000Y-69300000D01*
X97200648Y-69246091D01*
X97208568Y-69192700D01*
X97221683Y-69140343D01*
X97239866Y-69089524D01*
X97262943Y-69040732D01*
X97290692Y-68994436D01*
X97322844Y-68951084D01*
X97359091Y-68911091D01*
X97399084Y-68874844D01*
X97442436Y-68842692D01*
X97488732Y-68814943D01*
X97537524Y-68791866D01*
X97588343Y-68773683D01*
X97640700Y-68760568D01*
X97694091Y-68752648D01*
X97748000Y-68750000D01*
X98848000Y-68750000D01*
X98901909Y-68752648D01*
X98901909Y-68752648D01*
G37*
D11*
X98298000Y-69850000D03*
D10*
G36*
X98901909Y-66212648D02*
G01*
X98955300Y-66220568D01*
X99007657Y-66233683D01*
X99058476Y-66251866D01*
X99107268Y-66274943D01*
X99153564Y-66302692D01*
X99196916Y-66334844D01*
X99236909Y-66371091D01*
X99273156Y-66411084D01*
X99305308Y-66454436D01*
X99333057Y-66500732D01*
X99356134Y-66549524D01*
X99374317Y-66600343D01*
X99387432Y-66652700D01*
X99395352Y-66706091D01*
X99398000Y-66760000D01*
X99398000Y-67860000D01*
X99395352Y-67913909D01*
X99387432Y-67967300D01*
X99374317Y-68019657D01*
X99356134Y-68070476D01*
X99333057Y-68119268D01*
X99305308Y-68165564D01*
X99273156Y-68208916D01*
X99236909Y-68248909D01*
X99196916Y-68285156D01*
X99153564Y-68317308D01*
X99107268Y-68345057D01*
X99058476Y-68368134D01*
X99007657Y-68386317D01*
X98955300Y-68399432D01*
X98901909Y-68407352D01*
X98848000Y-68410000D01*
X97748000Y-68410000D01*
X97694091Y-68407352D01*
X97640700Y-68399432D01*
X97588343Y-68386317D01*
X97537524Y-68368134D01*
X97488732Y-68345057D01*
X97442436Y-68317308D01*
X97399084Y-68285156D01*
X97359091Y-68248909D01*
X97322844Y-68208916D01*
X97290692Y-68165564D01*
X97262943Y-68119268D01*
X97239866Y-68070476D01*
X97221683Y-68019657D01*
X97208568Y-67967300D01*
X97200648Y-67913909D01*
X97198000Y-67860000D01*
X97198000Y-66760000D01*
X97200648Y-66706091D01*
X97208568Y-66652700D01*
X97221683Y-66600343D01*
X97239866Y-66549524D01*
X97262943Y-66500732D01*
X97290692Y-66454436D01*
X97322844Y-66411084D01*
X97359091Y-66371091D01*
X97399084Y-66334844D01*
X97442436Y-66302692D01*
X97488732Y-66274943D01*
X97537524Y-66251866D01*
X97588343Y-66233683D01*
X97640700Y-66220568D01*
X97694091Y-66212648D01*
X97748000Y-66210000D01*
X98848000Y-66210000D01*
X98901909Y-66212648D01*
X98901909Y-66212648D01*
G37*
D11*
X98298000Y-67310000D03*
D10*
G36*
X98901909Y-63672648D02*
G01*
X98955300Y-63680568D01*
X99007657Y-63693683D01*
X99058476Y-63711866D01*
X99107268Y-63734943D01*
X99153564Y-63762692D01*
X99196916Y-63794844D01*
X99236909Y-63831091D01*
X99273156Y-63871084D01*
X99305308Y-63914436D01*
X99333057Y-63960732D01*
X99356134Y-64009524D01*
X99374317Y-64060343D01*
X99387432Y-64112700D01*
X99395352Y-64166091D01*
X99398000Y-64220000D01*
X99398000Y-65320000D01*
X99395352Y-65373909D01*
X99387432Y-65427300D01*
X99374317Y-65479657D01*
X99356134Y-65530476D01*
X99333057Y-65579268D01*
X99305308Y-65625564D01*
X99273156Y-65668916D01*
X99236909Y-65708909D01*
X99196916Y-65745156D01*
X99153564Y-65777308D01*
X99107268Y-65805057D01*
X99058476Y-65828134D01*
X99007657Y-65846317D01*
X98955300Y-65859432D01*
X98901909Y-65867352D01*
X98848000Y-65870000D01*
X97748000Y-65870000D01*
X97694091Y-65867352D01*
X97640700Y-65859432D01*
X97588343Y-65846317D01*
X97537524Y-65828134D01*
X97488732Y-65805057D01*
X97442436Y-65777308D01*
X97399084Y-65745156D01*
X97359091Y-65708909D01*
X97322844Y-65668916D01*
X97290692Y-65625564D01*
X97262943Y-65579268D01*
X97239866Y-65530476D01*
X97221683Y-65479657D01*
X97208568Y-65427300D01*
X97200648Y-65373909D01*
X97198000Y-65320000D01*
X97198000Y-64220000D01*
X97200648Y-64166091D01*
X97208568Y-64112700D01*
X97221683Y-64060343D01*
X97239866Y-64009524D01*
X97262943Y-63960732D01*
X97290692Y-63914436D01*
X97322844Y-63871084D01*
X97359091Y-63831091D01*
X97399084Y-63794844D01*
X97442436Y-63762692D01*
X97488732Y-63734943D01*
X97537524Y-63711866D01*
X97588343Y-63693683D01*
X97640700Y-63680568D01*
X97694091Y-63672648D01*
X97748000Y-63670000D01*
X98848000Y-63670000D01*
X98901909Y-63672648D01*
X98901909Y-63672648D01*
G37*
D11*
X98298000Y-64770000D03*
D10*
G36*
X111601909Y-63672648D02*
G01*
X111655300Y-63680568D01*
X111707657Y-63693683D01*
X111758476Y-63711866D01*
X111807268Y-63734943D01*
X111853564Y-63762692D01*
X111896916Y-63794844D01*
X111936909Y-63831091D01*
X111973156Y-63871084D01*
X112005308Y-63914436D01*
X112033057Y-63960732D01*
X112056134Y-64009524D01*
X112074317Y-64060343D01*
X112087432Y-64112700D01*
X112095352Y-64166091D01*
X112098000Y-64220000D01*
X112098000Y-65320000D01*
X112095352Y-65373909D01*
X112087432Y-65427300D01*
X112074317Y-65479657D01*
X112056134Y-65530476D01*
X112033057Y-65579268D01*
X112005308Y-65625564D01*
X111973156Y-65668916D01*
X111936909Y-65708909D01*
X111896916Y-65745156D01*
X111853564Y-65777308D01*
X111807268Y-65805057D01*
X111758476Y-65828134D01*
X111707657Y-65846317D01*
X111655300Y-65859432D01*
X111601909Y-65867352D01*
X111548000Y-65870000D01*
X110448000Y-65870000D01*
X110394091Y-65867352D01*
X110340700Y-65859432D01*
X110288343Y-65846317D01*
X110237524Y-65828134D01*
X110188732Y-65805057D01*
X110142436Y-65777308D01*
X110099084Y-65745156D01*
X110059091Y-65708909D01*
X110022844Y-65668916D01*
X109990692Y-65625564D01*
X109962943Y-65579268D01*
X109939866Y-65530476D01*
X109921683Y-65479657D01*
X109908568Y-65427300D01*
X109900648Y-65373909D01*
X109898000Y-65320000D01*
X109898000Y-64220000D01*
X109900648Y-64166091D01*
X109908568Y-64112700D01*
X109921683Y-64060343D01*
X109939866Y-64009524D01*
X109962943Y-63960732D01*
X109990692Y-63914436D01*
X110022844Y-63871084D01*
X110059091Y-63831091D01*
X110099084Y-63794844D01*
X110142436Y-63762692D01*
X110188732Y-63734943D01*
X110237524Y-63711866D01*
X110288343Y-63693683D01*
X110340700Y-63680568D01*
X110394091Y-63672648D01*
X110448000Y-63670000D01*
X111548000Y-63670000D01*
X111601909Y-63672648D01*
X111601909Y-63672648D01*
G37*
D11*
X110998000Y-64770000D03*
D10*
G36*
X111601909Y-66212648D02*
G01*
X111655300Y-66220568D01*
X111707657Y-66233683D01*
X111758476Y-66251866D01*
X111807268Y-66274943D01*
X111853564Y-66302692D01*
X111896916Y-66334844D01*
X111936909Y-66371091D01*
X111973156Y-66411084D01*
X112005308Y-66454436D01*
X112033057Y-66500732D01*
X112056134Y-66549524D01*
X112074317Y-66600343D01*
X112087432Y-66652700D01*
X112095352Y-66706091D01*
X112098000Y-66760000D01*
X112098000Y-67860000D01*
X112095352Y-67913909D01*
X112087432Y-67967300D01*
X112074317Y-68019657D01*
X112056134Y-68070476D01*
X112033057Y-68119268D01*
X112005308Y-68165564D01*
X111973156Y-68208916D01*
X111936909Y-68248909D01*
X111896916Y-68285156D01*
X111853564Y-68317308D01*
X111807268Y-68345057D01*
X111758476Y-68368134D01*
X111707657Y-68386317D01*
X111655300Y-68399432D01*
X111601909Y-68407352D01*
X111548000Y-68410000D01*
X110448000Y-68410000D01*
X110394091Y-68407352D01*
X110340700Y-68399432D01*
X110288343Y-68386317D01*
X110237524Y-68368134D01*
X110188732Y-68345057D01*
X110142436Y-68317308D01*
X110099084Y-68285156D01*
X110059091Y-68248909D01*
X110022844Y-68208916D01*
X109990692Y-68165564D01*
X109962943Y-68119268D01*
X109939866Y-68070476D01*
X109921683Y-68019657D01*
X109908568Y-67967300D01*
X109900648Y-67913909D01*
X109898000Y-67860000D01*
X109898000Y-66760000D01*
X109900648Y-66706091D01*
X109908568Y-66652700D01*
X109921683Y-66600343D01*
X109939866Y-66549524D01*
X109962943Y-66500732D01*
X109990692Y-66454436D01*
X110022844Y-66411084D01*
X110059091Y-66371091D01*
X110099084Y-66334844D01*
X110142436Y-66302692D01*
X110188732Y-66274943D01*
X110237524Y-66251866D01*
X110288343Y-66233683D01*
X110340700Y-66220568D01*
X110394091Y-66212648D01*
X110448000Y-66210000D01*
X111548000Y-66210000D01*
X111601909Y-66212648D01*
X111601909Y-66212648D01*
G37*
D11*
X110998000Y-67310000D03*
D10*
G36*
X111601909Y-68752648D02*
G01*
X111655300Y-68760568D01*
X111707657Y-68773683D01*
X111758476Y-68791866D01*
X111807268Y-68814943D01*
X111853564Y-68842692D01*
X111896916Y-68874844D01*
X111936909Y-68911091D01*
X111973156Y-68951084D01*
X112005308Y-68994436D01*
X112033057Y-69040732D01*
X112056134Y-69089524D01*
X112074317Y-69140343D01*
X112087432Y-69192700D01*
X112095352Y-69246091D01*
X112098000Y-69300000D01*
X112098000Y-70400000D01*
X112095352Y-70453909D01*
X112087432Y-70507300D01*
X112074317Y-70559657D01*
X112056134Y-70610476D01*
X112033057Y-70659268D01*
X112005308Y-70705564D01*
X111973156Y-70748916D01*
X111936909Y-70788909D01*
X111896916Y-70825156D01*
X111853564Y-70857308D01*
X111807268Y-70885057D01*
X111758476Y-70908134D01*
X111707657Y-70926317D01*
X111655300Y-70939432D01*
X111601909Y-70947352D01*
X111548000Y-70950000D01*
X110448000Y-70950000D01*
X110394091Y-70947352D01*
X110340700Y-70939432D01*
X110288343Y-70926317D01*
X110237524Y-70908134D01*
X110188732Y-70885057D01*
X110142436Y-70857308D01*
X110099084Y-70825156D01*
X110059091Y-70788909D01*
X110022844Y-70748916D01*
X109990692Y-70705564D01*
X109962943Y-70659268D01*
X109939866Y-70610476D01*
X109921683Y-70559657D01*
X109908568Y-70507300D01*
X109900648Y-70453909D01*
X109898000Y-70400000D01*
X109898000Y-69300000D01*
X109900648Y-69246091D01*
X109908568Y-69192700D01*
X109921683Y-69140343D01*
X109939866Y-69089524D01*
X109962943Y-69040732D01*
X109990692Y-68994436D01*
X110022844Y-68951084D01*
X110059091Y-68911091D01*
X110099084Y-68874844D01*
X110142436Y-68842692D01*
X110188732Y-68814943D01*
X110237524Y-68791866D01*
X110288343Y-68773683D01*
X110340700Y-68760568D01*
X110394091Y-68752648D01*
X110448000Y-68750000D01*
X111548000Y-68750000D01*
X111601909Y-68752648D01*
X111601909Y-68752648D01*
G37*
D11*
X110998000Y-69850000D03*
D10*
G36*
X111601909Y-71292648D02*
G01*
X111655300Y-71300568D01*
X111707657Y-71313683D01*
X111758476Y-71331866D01*
X111807268Y-71354943D01*
X111853564Y-71382692D01*
X111896916Y-71414844D01*
X111936909Y-71451091D01*
X111973156Y-71491084D01*
X112005308Y-71534436D01*
X112033057Y-71580732D01*
X112056134Y-71629524D01*
X112074317Y-71680343D01*
X112087432Y-71732700D01*
X112095352Y-71786091D01*
X112098000Y-71840000D01*
X112098000Y-72940000D01*
X112095352Y-72993909D01*
X112087432Y-73047300D01*
X112074317Y-73099657D01*
X112056134Y-73150476D01*
X112033057Y-73199268D01*
X112005308Y-73245564D01*
X111973156Y-73288916D01*
X111936909Y-73328909D01*
X111896916Y-73365156D01*
X111853564Y-73397308D01*
X111807268Y-73425057D01*
X111758476Y-73448134D01*
X111707657Y-73466317D01*
X111655300Y-73479432D01*
X111601909Y-73487352D01*
X111548000Y-73490000D01*
X110448000Y-73490000D01*
X110394091Y-73487352D01*
X110340700Y-73479432D01*
X110288343Y-73466317D01*
X110237524Y-73448134D01*
X110188732Y-73425057D01*
X110142436Y-73397308D01*
X110099084Y-73365156D01*
X110059091Y-73328909D01*
X110022844Y-73288916D01*
X109990692Y-73245564D01*
X109962943Y-73199268D01*
X109939866Y-73150476D01*
X109921683Y-73099657D01*
X109908568Y-73047300D01*
X109900648Y-72993909D01*
X109898000Y-72940000D01*
X109898000Y-71840000D01*
X109900648Y-71786091D01*
X109908568Y-71732700D01*
X109921683Y-71680343D01*
X109939866Y-71629524D01*
X109962943Y-71580732D01*
X109990692Y-71534436D01*
X110022844Y-71491084D01*
X110059091Y-71451091D01*
X110099084Y-71414844D01*
X110142436Y-71382692D01*
X110188732Y-71354943D01*
X110237524Y-71331866D01*
X110288343Y-71313683D01*
X110340700Y-71300568D01*
X110394091Y-71292648D01*
X110448000Y-71290000D01*
X111548000Y-71290000D01*
X111601909Y-71292648D01*
X111601909Y-71292648D01*
G37*
D11*
X110998000Y-72390000D03*
D10*
G36*
X111601909Y-73832648D02*
G01*
X111655300Y-73840568D01*
X111707657Y-73853683D01*
X111758476Y-73871866D01*
X111807268Y-73894943D01*
X111853564Y-73922692D01*
X111896916Y-73954844D01*
X111936909Y-73991091D01*
X111973156Y-74031084D01*
X112005308Y-74074436D01*
X112033057Y-74120732D01*
X112056134Y-74169524D01*
X112074317Y-74220343D01*
X112087432Y-74272700D01*
X112095352Y-74326091D01*
X112098000Y-74380000D01*
X112098000Y-75480000D01*
X112095352Y-75533909D01*
X112087432Y-75587300D01*
X112074317Y-75639657D01*
X112056134Y-75690476D01*
X112033057Y-75739268D01*
X112005308Y-75785564D01*
X111973156Y-75828916D01*
X111936909Y-75868909D01*
X111896916Y-75905156D01*
X111853564Y-75937308D01*
X111807268Y-75965057D01*
X111758476Y-75988134D01*
X111707657Y-76006317D01*
X111655300Y-76019432D01*
X111601909Y-76027352D01*
X111548000Y-76030000D01*
X110448000Y-76030000D01*
X110394091Y-76027352D01*
X110340700Y-76019432D01*
X110288343Y-76006317D01*
X110237524Y-75988134D01*
X110188732Y-75965057D01*
X110142436Y-75937308D01*
X110099084Y-75905156D01*
X110059091Y-75868909D01*
X110022844Y-75828916D01*
X109990692Y-75785564D01*
X109962943Y-75739268D01*
X109939866Y-75690476D01*
X109921683Y-75639657D01*
X109908568Y-75587300D01*
X109900648Y-75533909D01*
X109898000Y-75480000D01*
X109898000Y-74380000D01*
X109900648Y-74326091D01*
X109908568Y-74272700D01*
X109921683Y-74220343D01*
X109939866Y-74169524D01*
X109962943Y-74120732D01*
X109990692Y-74074436D01*
X110022844Y-74031084D01*
X110059091Y-73991091D01*
X110099084Y-73954844D01*
X110142436Y-73922692D01*
X110188732Y-73894943D01*
X110237524Y-73871866D01*
X110288343Y-73853683D01*
X110340700Y-73840568D01*
X110394091Y-73832648D01*
X110448000Y-73830000D01*
X111548000Y-73830000D01*
X111601909Y-73832648D01*
X111601909Y-73832648D01*
G37*
D11*
X110998000Y-74930000D03*
D10*
G36*
X111601909Y-76372648D02*
G01*
X111655300Y-76380568D01*
X111707657Y-76393683D01*
X111758476Y-76411866D01*
X111807268Y-76434943D01*
X111853564Y-76462692D01*
X111896916Y-76494844D01*
X111936909Y-76531091D01*
X111973156Y-76571084D01*
X112005308Y-76614436D01*
X112033057Y-76660732D01*
X112056134Y-76709524D01*
X112074317Y-76760343D01*
X112087432Y-76812700D01*
X112095352Y-76866091D01*
X112098000Y-76920000D01*
X112098000Y-78020000D01*
X112095352Y-78073909D01*
X112087432Y-78127300D01*
X112074317Y-78179657D01*
X112056134Y-78230476D01*
X112033057Y-78279268D01*
X112005308Y-78325564D01*
X111973156Y-78368916D01*
X111936909Y-78408909D01*
X111896916Y-78445156D01*
X111853564Y-78477308D01*
X111807268Y-78505057D01*
X111758476Y-78528134D01*
X111707657Y-78546317D01*
X111655300Y-78559432D01*
X111601909Y-78567352D01*
X111548000Y-78570000D01*
X110448000Y-78570000D01*
X110394091Y-78567352D01*
X110340700Y-78559432D01*
X110288343Y-78546317D01*
X110237524Y-78528134D01*
X110188732Y-78505057D01*
X110142436Y-78477308D01*
X110099084Y-78445156D01*
X110059091Y-78408909D01*
X110022844Y-78368916D01*
X109990692Y-78325564D01*
X109962943Y-78279268D01*
X109939866Y-78230476D01*
X109921683Y-78179657D01*
X109908568Y-78127300D01*
X109900648Y-78073909D01*
X109898000Y-78020000D01*
X109898000Y-76920000D01*
X109900648Y-76866091D01*
X109908568Y-76812700D01*
X109921683Y-76760343D01*
X109939866Y-76709524D01*
X109962943Y-76660732D01*
X109990692Y-76614436D01*
X110022844Y-76571084D01*
X110059091Y-76531091D01*
X110099084Y-76494844D01*
X110142436Y-76462692D01*
X110188732Y-76434943D01*
X110237524Y-76411866D01*
X110288343Y-76393683D01*
X110340700Y-76380568D01*
X110394091Y-76372648D01*
X110448000Y-76370000D01*
X111548000Y-76370000D01*
X111601909Y-76372648D01*
X111601909Y-76372648D01*
G37*
D11*
X110998000Y-77470000D03*
D10*
G36*
X114012505Y-77159204D02*
G01*
X114036773Y-77162804D01*
X114060572Y-77168765D01*
X114083671Y-77177030D01*
X114105850Y-77187520D01*
X114126893Y-77200132D01*
X114146599Y-77214747D01*
X114164777Y-77231223D01*
X114181253Y-77249401D01*
X114195868Y-77269107D01*
X114208480Y-77290150D01*
X114218970Y-77312329D01*
X114227235Y-77335428D01*
X114233196Y-77359227D01*
X114236796Y-77383495D01*
X114238000Y-77407999D01*
X114238000Y-78058001D01*
X114236796Y-78082505D01*
X114233196Y-78106773D01*
X114227235Y-78130572D01*
X114218970Y-78153671D01*
X114208480Y-78175850D01*
X114195868Y-78196893D01*
X114181253Y-78216599D01*
X114164777Y-78234777D01*
X114146599Y-78251253D01*
X114126893Y-78265868D01*
X114105850Y-78278480D01*
X114083671Y-78288970D01*
X114060572Y-78297235D01*
X114036773Y-78303196D01*
X114012505Y-78306796D01*
X113988001Y-78308000D01*
X113087999Y-78308000D01*
X113063495Y-78306796D01*
X113039227Y-78303196D01*
X113015428Y-78297235D01*
X112992329Y-78288970D01*
X112970150Y-78278480D01*
X112949107Y-78265868D01*
X112929401Y-78251253D01*
X112911223Y-78234777D01*
X112894747Y-78216599D01*
X112880132Y-78196893D01*
X112867520Y-78175850D01*
X112857030Y-78153671D01*
X112848765Y-78130572D01*
X112842804Y-78106773D01*
X112839204Y-78082505D01*
X112838000Y-78058001D01*
X112838000Y-77407999D01*
X112839204Y-77383495D01*
X112842804Y-77359227D01*
X112848765Y-77335428D01*
X112857030Y-77312329D01*
X112867520Y-77290150D01*
X112880132Y-77269107D01*
X112894747Y-77249401D01*
X112911223Y-77231223D01*
X112929401Y-77214747D01*
X112949107Y-77200132D01*
X112970150Y-77187520D01*
X112992329Y-77177030D01*
X113015428Y-77168765D01*
X113039227Y-77162804D01*
X113063495Y-77159204D01*
X113087999Y-77158000D01*
X113988001Y-77158000D01*
X114012505Y-77159204D01*
X114012505Y-77159204D01*
G37*
D12*
X113538000Y-77733000D03*
D10*
G36*
X114012505Y-75109204D02*
G01*
X114036773Y-75112804D01*
X114060572Y-75118765D01*
X114083671Y-75127030D01*
X114105850Y-75137520D01*
X114126893Y-75150132D01*
X114146599Y-75164747D01*
X114164777Y-75181223D01*
X114181253Y-75199401D01*
X114195868Y-75219107D01*
X114208480Y-75240150D01*
X114218970Y-75262329D01*
X114227235Y-75285428D01*
X114233196Y-75309227D01*
X114236796Y-75333495D01*
X114238000Y-75357999D01*
X114238000Y-76008001D01*
X114236796Y-76032505D01*
X114233196Y-76056773D01*
X114227235Y-76080572D01*
X114218970Y-76103671D01*
X114208480Y-76125850D01*
X114195868Y-76146893D01*
X114181253Y-76166599D01*
X114164777Y-76184777D01*
X114146599Y-76201253D01*
X114126893Y-76215868D01*
X114105850Y-76228480D01*
X114083671Y-76238970D01*
X114060572Y-76247235D01*
X114036773Y-76253196D01*
X114012505Y-76256796D01*
X113988001Y-76258000D01*
X113087999Y-76258000D01*
X113063495Y-76256796D01*
X113039227Y-76253196D01*
X113015428Y-76247235D01*
X112992329Y-76238970D01*
X112970150Y-76228480D01*
X112949107Y-76215868D01*
X112929401Y-76201253D01*
X112911223Y-76184777D01*
X112894747Y-76166599D01*
X112880132Y-76146893D01*
X112867520Y-76125850D01*
X112857030Y-76103671D01*
X112848765Y-76080572D01*
X112842804Y-76056773D01*
X112839204Y-76032505D01*
X112838000Y-76008001D01*
X112838000Y-75357999D01*
X112839204Y-75333495D01*
X112842804Y-75309227D01*
X112848765Y-75285428D01*
X112857030Y-75262329D01*
X112867520Y-75240150D01*
X112880132Y-75219107D01*
X112894747Y-75199401D01*
X112911223Y-75181223D01*
X112929401Y-75164747D01*
X112949107Y-75150132D01*
X112970150Y-75137520D01*
X112992329Y-75127030D01*
X113015428Y-75118765D01*
X113039227Y-75112804D01*
X113063495Y-75109204D01*
X113087999Y-75108000D01*
X113988001Y-75108000D01*
X114012505Y-75109204D01*
X114012505Y-75109204D01*
G37*
D12*
X113538000Y-75683000D03*
D13*
X125730000Y-82550000D03*
X125730000Y-80010000D03*
X125730000Y-77470000D03*
X125730000Y-74930000D03*
X125730000Y-72390000D03*
X125730000Y-69850000D03*
X125730000Y-67310000D03*
X125730000Y-64770000D03*
X125730000Y-62230000D03*
X125730000Y-59690000D03*
X92710000Y-62230000D03*
X92710000Y-64770000D03*
X92710000Y-67310000D03*
X92710000Y-69850000D03*
X92710000Y-72390000D03*
X92710000Y-74930000D03*
X92710000Y-77470000D03*
X92710000Y-80010000D03*
X92710000Y-59690000D03*
X92710000Y-82550000D03*
D14*
X120578000Y-80010000D03*
X116078000Y-80010000D03*
X120578000Y-73510000D03*
X116078000Y-73510000D03*
X116078000Y-62334000D03*
X120578000Y-62334000D03*
X116078000Y-68834000D03*
X120578000Y-68834000D03*
D10*
G36*
X103999505Y-74231204D02*
G01*
X104023773Y-74234804D01*
X104047572Y-74240765D01*
X104070671Y-74249030D01*
X104092850Y-74259520D01*
X104113893Y-74272132D01*
X104133599Y-74286747D01*
X104151777Y-74303223D01*
X104168253Y-74321401D01*
X104182868Y-74341107D01*
X104195480Y-74362150D01*
X104205970Y-74384329D01*
X104214235Y-74407428D01*
X104220196Y-74431227D01*
X104223796Y-74455495D01*
X104225000Y-74479999D01*
X104225000Y-75380001D01*
X104223796Y-75404505D01*
X104220196Y-75428773D01*
X104214235Y-75452572D01*
X104205970Y-75475671D01*
X104195480Y-75497850D01*
X104182868Y-75518893D01*
X104168253Y-75538599D01*
X104151777Y-75556777D01*
X104133599Y-75573253D01*
X104113893Y-75587868D01*
X104092850Y-75600480D01*
X104070671Y-75610970D01*
X104047572Y-75619235D01*
X104023773Y-75625196D01*
X103999505Y-75628796D01*
X103975001Y-75630000D01*
X103324999Y-75630000D01*
X103300495Y-75628796D01*
X103276227Y-75625196D01*
X103252428Y-75619235D01*
X103229329Y-75610970D01*
X103207150Y-75600480D01*
X103186107Y-75587868D01*
X103166401Y-75573253D01*
X103148223Y-75556777D01*
X103131747Y-75538599D01*
X103117132Y-75518893D01*
X103104520Y-75497850D01*
X103094030Y-75475671D01*
X103085765Y-75452572D01*
X103079804Y-75428773D01*
X103076204Y-75404505D01*
X103075000Y-75380001D01*
X103075000Y-74479999D01*
X103076204Y-74455495D01*
X103079804Y-74431227D01*
X103085765Y-74407428D01*
X103094030Y-74384329D01*
X103104520Y-74362150D01*
X103117132Y-74341107D01*
X103131747Y-74321401D01*
X103148223Y-74303223D01*
X103166401Y-74286747D01*
X103186107Y-74272132D01*
X103207150Y-74259520D01*
X103229329Y-74249030D01*
X103252428Y-74240765D01*
X103276227Y-74234804D01*
X103300495Y-74231204D01*
X103324999Y-74230000D01*
X103975001Y-74230000D01*
X103999505Y-74231204D01*
X103999505Y-74231204D01*
G37*
D12*
X103650000Y-74930000D03*
D10*
G36*
X101949505Y-74231204D02*
G01*
X101973773Y-74234804D01*
X101997572Y-74240765D01*
X102020671Y-74249030D01*
X102042850Y-74259520D01*
X102063893Y-74272132D01*
X102083599Y-74286747D01*
X102101777Y-74303223D01*
X102118253Y-74321401D01*
X102132868Y-74341107D01*
X102145480Y-74362150D01*
X102155970Y-74384329D01*
X102164235Y-74407428D01*
X102170196Y-74431227D01*
X102173796Y-74455495D01*
X102175000Y-74479999D01*
X102175000Y-75380001D01*
X102173796Y-75404505D01*
X102170196Y-75428773D01*
X102164235Y-75452572D01*
X102155970Y-75475671D01*
X102145480Y-75497850D01*
X102132868Y-75518893D01*
X102118253Y-75538599D01*
X102101777Y-75556777D01*
X102083599Y-75573253D01*
X102063893Y-75587868D01*
X102042850Y-75600480D01*
X102020671Y-75610970D01*
X101997572Y-75619235D01*
X101973773Y-75625196D01*
X101949505Y-75628796D01*
X101925001Y-75630000D01*
X101274999Y-75630000D01*
X101250495Y-75628796D01*
X101226227Y-75625196D01*
X101202428Y-75619235D01*
X101179329Y-75610970D01*
X101157150Y-75600480D01*
X101136107Y-75587868D01*
X101116401Y-75573253D01*
X101098223Y-75556777D01*
X101081747Y-75538599D01*
X101067132Y-75518893D01*
X101054520Y-75497850D01*
X101044030Y-75475671D01*
X101035765Y-75452572D01*
X101029804Y-75428773D01*
X101026204Y-75404505D01*
X101025000Y-75380001D01*
X101025000Y-74479999D01*
X101026204Y-74455495D01*
X101029804Y-74431227D01*
X101035765Y-74407428D01*
X101044030Y-74384329D01*
X101054520Y-74362150D01*
X101067132Y-74341107D01*
X101081747Y-74321401D01*
X101098223Y-74303223D01*
X101116401Y-74286747D01*
X101136107Y-74272132D01*
X101157150Y-74259520D01*
X101179329Y-74249030D01*
X101202428Y-74240765D01*
X101226227Y-74234804D01*
X101250495Y-74231204D01*
X101274999Y-74230000D01*
X101925001Y-74230000D01*
X101949505Y-74231204D01*
X101949505Y-74231204D01*
G37*
D12*
X101600000Y-74930000D03*
D10*
G36*
X101178505Y-64071204D02*
G01*
X101202773Y-64074804D01*
X101226572Y-64080765D01*
X101249671Y-64089030D01*
X101271850Y-64099520D01*
X101292893Y-64112132D01*
X101312599Y-64126747D01*
X101330777Y-64143223D01*
X101347253Y-64161401D01*
X101361868Y-64181107D01*
X101374480Y-64202150D01*
X101384970Y-64224329D01*
X101393235Y-64247428D01*
X101399196Y-64271227D01*
X101402796Y-64295495D01*
X101404000Y-64319999D01*
X101404000Y-65220001D01*
X101402796Y-65244505D01*
X101399196Y-65268773D01*
X101393235Y-65292572D01*
X101384970Y-65315671D01*
X101374480Y-65337850D01*
X101361868Y-65358893D01*
X101347253Y-65378599D01*
X101330777Y-65396777D01*
X101312599Y-65413253D01*
X101292893Y-65427868D01*
X101271850Y-65440480D01*
X101249671Y-65450970D01*
X101226572Y-65459235D01*
X101202773Y-65465196D01*
X101178505Y-65468796D01*
X101154001Y-65470000D01*
X100503999Y-65470000D01*
X100479495Y-65468796D01*
X100455227Y-65465196D01*
X100431428Y-65459235D01*
X100408329Y-65450970D01*
X100386150Y-65440480D01*
X100365107Y-65427868D01*
X100345401Y-65413253D01*
X100327223Y-65396777D01*
X100310747Y-65378599D01*
X100296132Y-65358893D01*
X100283520Y-65337850D01*
X100273030Y-65315671D01*
X100264765Y-65292572D01*
X100258804Y-65268773D01*
X100255204Y-65244505D01*
X100254000Y-65220001D01*
X100254000Y-64319999D01*
X100255204Y-64295495D01*
X100258804Y-64271227D01*
X100264765Y-64247428D01*
X100273030Y-64224329D01*
X100283520Y-64202150D01*
X100296132Y-64181107D01*
X100310747Y-64161401D01*
X100327223Y-64143223D01*
X100345401Y-64126747D01*
X100365107Y-64112132D01*
X100386150Y-64099520D01*
X100408329Y-64089030D01*
X100431428Y-64080765D01*
X100455227Y-64074804D01*
X100479495Y-64071204D01*
X100503999Y-64070000D01*
X101154001Y-64070000D01*
X101178505Y-64071204D01*
X101178505Y-64071204D01*
G37*
D12*
X100829000Y-64770000D03*
D10*
G36*
X103228505Y-64071204D02*
G01*
X103252773Y-64074804D01*
X103276572Y-64080765D01*
X103299671Y-64089030D01*
X103321850Y-64099520D01*
X103342893Y-64112132D01*
X103362599Y-64126747D01*
X103380777Y-64143223D01*
X103397253Y-64161401D01*
X103411868Y-64181107D01*
X103424480Y-64202150D01*
X103434970Y-64224329D01*
X103443235Y-64247428D01*
X103449196Y-64271227D01*
X103452796Y-64295495D01*
X103454000Y-64319999D01*
X103454000Y-65220001D01*
X103452796Y-65244505D01*
X103449196Y-65268773D01*
X103443235Y-65292572D01*
X103434970Y-65315671D01*
X103424480Y-65337850D01*
X103411868Y-65358893D01*
X103397253Y-65378599D01*
X103380777Y-65396777D01*
X103362599Y-65413253D01*
X103342893Y-65427868D01*
X103321850Y-65440480D01*
X103299671Y-65450970D01*
X103276572Y-65459235D01*
X103252773Y-65465196D01*
X103228505Y-65468796D01*
X103204001Y-65470000D01*
X102553999Y-65470000D01*
X102529495Y-65468796D01*
X102505227Y-65465196D01*
X102481428Y-65459235D01*
X102458329Y-65450970D01*
X102436150Y-65440480D01*
X102415107Y-65427868D01*
X102395401Y-65413253D01*
X102377223Y-65396777D01*
X102360747Y-65378599D01*
X102346132Y-65358893D01*
X102333520Y-65337850D01*
X102323030Y-65315671D01*
X102314765Y-65292572D01*
X102308804Y-65268773D01*
X102305204Y-65244505D01*
X102304000Y-65220001D01*
X102304000Y-64319999D01*
X102305204Y-64295495D01*
X102308804Y-64271227D01*
X102314765Y-64247428D01*
X102323030Y-64224329D01*
X102333520Y-64202150D01*
X102346132Y-64181107D01*
X102360747Y-64161401D01*
X102377223Y-64143223D01*
X102395401Y-64126747D01*
X102415107Y-64112132D01*
X102436150Y-64099520D01*
X102458329Y-64089030D01*
X102481428Y-64080765D01*
X102505227Y-64074804D01*
X102529495Y-64071204D01*
X102553999Y-64070000D01*
X103204001Y-64070000D01*
X103228505Y-64071204D01*
X103228505Y-64071204D01*
G37*
D12*
X102879000Y-64770000D03*
D10*
G36*
X108932505Y-71571204D02*
G01*
X108956773Y-71574804D01*
X108980572Y-71580765D01*
X109003671Y-71589030D01*
X109025850Y-71599520D01*
X109046893Y-71612132D01*
X109066599Y-71626747D01*
X109084777Y-71643223D01*
X109101253Y-71661401D01*
X109115868Y-71681107D01*
X109128480Y-71702150D01*
X109138970Y-71724329D01*
X109147235Y-71747428D01*
X109153196Y-71771227D01*
X109156796Y-71795495D01*
X109158000Y-71819999D01*
X109158000Y-72470001D01*
X109156796Y-72494505D01*
X109153196Y-72518773D01*
X109147235Y-72542572D01*
X109138970Y-72565671D01*
X109128480Y-72587850D01*
X109115868Y-72608893D01*
X109101253Y-72628599D01*
X109084777Y-72646777D01*
X109066599Y-72663253D01*
X109046893Y-72677868D01*
X109025850Y-72690480D01*
X109003671Y-72700970D01*
X108980572Y-72709235D01*
X108956773Y-72715196D01*
X108932505Y-72718796D01*
X108908001Y-72720000D01*
X108007999Y-72720000D01*
X107983495Y-72718796D01*
X107959227Y-72715196D01*
X107935428Y-72709235D01*
X107912329Y-72700970D01*
X107890150Y-72690480D01*
X107869107Y-72677868D01*
X107849401Y-72663253D01*
X107831223Y-72646777D01*
X107814747Y-72628599D01*
X107800132Y-72608893D01*
X107787520Y-72587850D01*
X107777030Y-72565671D01*
X107768765Y-72542572D01*
X107762804Y-72518773D01*
X107759204Y-72494505D01*
X107758000Y-72470001D01*
X107758000Y-71819999D01*
X107759204Y-71795495D01*
X107762804Y-71771227D01*
X107768765Y-71747428D01*
X107777030Y-71724329D01*
X107787520Y-71702150D01*
X107800132Y-71681107D01*
X107814747Y-71661401D01*
X107831223Y-71643223D01*
X107849401Y-71626747D01*
X107869107Y-71612132D01*
X107890150Y-71599520D01*
X107912329Y-71589030D01*
X107935428Y-71580765D01*
X107959227Y-71574804D01*
X107983495Y-71571204D01*
X108007999Y-71570000D01*
X108908001Y-71570000D01*
X108932505Y-71571204D01*
X108932505Y-71571204D01*
G37*
D12*
X108458000Y-72145000D03*
D10*
G36*
X108932505Y-69521204D02*
G01*
X108956773Y-69524804D01*
X108980572Y-69530765D01*
X109003671Y-69539030D01*
X109025850Y-69549520D01*
X109046893Y-69562132D01*
X109066599Y-69576747D01*
X109084777Y-69593223D01*
X109101253Y-69611401D01*
X109115868Y-69631107D01*
X109128480Y-69652150D01*
X109138970Y-69674329D01*
X109147235Y-69697428D01*
X109153196Y-69721227D01*
X109156796Y-69745495D01*
X109158000Y-69769999D01*
X109158000Y-70420001D01*
X109156796Y-70444505D01*
X109153196Y-70468773D01*
X109147235Y-70492572D01*
X109138970Y-70515671D01*
X109128480Y-70537850D01*
X109115868Y-70558893D01*
X109101253Y-70578599D01*
X109084777Y-70596777D01*
X109066599Y-70613253D01*
X109046893Y-70627868D01*
X109025850Y-70640480D01*
X109003671Y-70650970D01*
X108980572Y-70659235D01*
X108956773Y-70665196D01*
X108932505Y-70668796D01*
X108908001Y-70670000D01*
X108007999Y-70670000D01*
X107983495Y-70668796D01*
X107959227Y-70665196D01*
X107935428Y-70659235D01*
X107912329Y-70650970D01*
X107890150Y-70640480D01*
X107869107Y-70627868D01*
X107849401Y-70613253D01*
X107831223Y-70596777D01*
X107814747Y-70578599D01*
X107800132Y-70558893D01*
X107787520Y-70537850D01*
X107777030Y-70515671D01*
X107768765Y-70492572D01*
X107762804Y-70468773D01*
X107759204Y-70444505D01*
X107758000Y-70420001D01*
X107758000Y-69769999D01*
X107759204Y-69745495D01*
X107762804Y-69721227D01*
X107768765Y-69697428D01*
X107777030Y-69674329D01*
X107787520Y-69652150D01*
X107800132Y-69631107D01*
X107814747Y-69611401D01*
X107831223Y-69593223D01*
X107849401Y-69576747D01*
X107869107Y-69562132D01*
X107890150Y-69549520D01*
X107912329Y-69539030D01*
X107935428Y-69530765D01*
X107959227Y-69524804D01*
X107983495Y-69521204D01*
X108007999Y-69520000D01*
X108908001Y-69520000D01*
X108932505Y-69521204D01*
X108932505Y-69521204D01*
G37*
D12*
X108458000Y-70095000D03*
D10*
G36*
X108932505Y-74601204D02*
G01*
X108956773Y-74604804D01*
X108980572Y-74610765D01*
X109003671Y-74619030D01*
X109025850Y-74629520D01*
X109046893Y-74642132D01*
X109066599Y-74656747D01*
X109084777Y-74673223D01*
X109101253Y-74691401D01*
X109115868Y-74711107D01*
X109128480Y-74732150D01*
X109138970Y-74754329D01*
X109147235Y-74777428D01*
X109153196Y-74801227D01*
X109156796Y-74825495D01*
X109158000Y-74849999D01*
X109158000Y-75500001D01*
X109156796Y-75524505D01*
X109153196Y-75548773D01*
X109147235Y-75572572D01*
X109138970Y-75595671D01*
X109128480Y-75617850D01*
X109115868Y-75638893D01*
X109101253Y-75658599D01*
X109084777Y-75676777D01*
X109066599Y-75693253D01*
X109046893Y-75707868D01*
X109025850Y-75720480D01*
X109003671Y-75730970D01*
X108980572Y-75739235D01*
X108956773Y-75745196D01*
X108932505Y-75748796D01*
X108908001Y-75750000D01*
X108007999Y-75750000D01*
X107983495Y-75748796D01*
X107959227Y-75745196D01*
X107935428Y-75739235D01*
X107912329Y-75730970D01*
X107890150Y-75720480D01*
X107869107Y-75707868D01*
X107849401Y-75693253D01*
X107831223Y-75676777D01*
X107814747Y-75658599D01*
X107800132Y-75638893D01*
X107787520Y-75617850D01*
X107777030Y-75595671D01*
X107768765Y-75572572D01*
X107762804Y-75548773D01*
X107759204Y-75524505D01*
X107758000Y-75500001D01*
X107758000Y-74849999D01*
X107759204Y-74825495D01*
X107762804Y-74801227D01*
X107768765Y-74777428D01*
X107777030Y-74754329D01*
X107787520Y-74732150D01*
X107800132Y-74711107D01*
X107814747Y-74691401D01*
X107831223Y-74673223D01*
X107849401Y-74656747D01*
X107869107Y-74642132D01*
X107890150Y-74629520D01*
X107912329Y-74619030D01*
X107935428Y-74610765D01*
X107959227Y-74604804D01*
X107983495Y-74601204D01*
X108007999Y-74600000D01*
X108908001Y-74600000D01*
X108932505Y-74601204D01*
X108932505Y-74601204D01*
G37*
D12*
X108458000Y-75175000D03*
D10*
G36*
X108932505Y-76651204D02*
G01*
X108956773Y-76654804D01*
X108980572Y-76660765D01*
X109003671Y-76669030D01*
X109025850Y-76679520D01*
X109046893Y-76692132D01*
X109066599Y-76706747D01*
X109084777Y-76723223D01*
X109101253Y-76741401D01*
X109115868Y-76761107D01*
X109128480Y-76782150D01*
X109138970Y-76804329D01*
X109147235Y-76827428D01*
X109153196Y-76851227D01*
X109156796Y-76875495D01*
X109158000Y-76899999D01*
X109158000Y-77550001D01*
X109156796Y-77574505D01*
X109153196Y-77598773D01*
X109147235Y-77622572D01*
X109138970Y-77645671D01*
X109128480Y-77667850D01*
X109115868Y-77688893D01*
X109101253Y-77708599D01*
X109084777Y-77726777D01*
X109066599Y-77743253D01*
X109046893Y-77757868D01*
X109025850Y-77770480D01*
X109003671Y-77780970D01*
X108980572Y-77789235D01*
X108956773Y-77795196D01*
X108932505Y-77798796D01*
X108908001Y-77800000D01*
X108007999Y-77800000D01*
X107983495Y-77798796D01*
X107959227Y-77795196D01*
X107935428Y-77789235D01*
X107912329Y-77780970D01*
X107890150Y-77770480D01*
X107869107Y-77757868D01*
X107849401Y-77743253D01*
X107831223Y-77726777D01*
X107814747Y-77708599D01*
X107800132Y-77688893D01*
X107787520Y-77667850D01*
X107777030Y-77645671D01*
X107768765Y-77622572D01*
X107762804Y-77598773D01*
X107759204Y-77574505D01*
X107758000Y-77550001D01*
X107758000Y-76899999D01*
X107759204Y-76875495D01*
X107762804Y-76851227D01*
X107768765Y-76827428D01*
X107777030Y-76804329D01*
X107787520Y-76782150D01*
X107800132Y-76761107D01*
X107814747Y-76741401D01*
X107831223Y-76723223D01*
X107849401Y-76706747D01*
X107869107Y-76692132D01*
X107890150Y-76679520D01*
X107912329Y-76669030D01*
X107935428Y-76660765D01*
X107959227Y-76654804D01*
X107983495Y-76651204D01*
X108007999Y-76650000D01*
X108908001Y-76650000D01*
X108932505Y-76651204D01*
X108932505Y-76651204D01*
G37*
D12*
X108458000Y-77225000D03*
D10*
G36*
X111472505Y-81223204D02*
G01*
X111496773Y-81226804D01*
X111520572Y-81232765D01*
X111543671Y-81241030D01*
X111565850Y-81251520D01*
X111586893Y-81264132D01*
X111606599Y-81278747D01*
X111624777Y-81295223D01*
X111641253Y-81313401D01*
X111655868Y-81333107D01*
X111668480Y-81354150D01*
X111678970Y-81376329D01*
X111687235Y-81399428D01*
X111693196Y-81423227D01*
X111696796Y-81447495D01*
X111698000Y-81471999D01*
X111698000Y-82122001D01*
X111696796Y-82146505D01*
X111693196Y-82170773D01*
X111687235Y-82194572D01*
X111678970Y-82217671D01*
X111668480Y-82239850D01*
X111655868Y-82260893D01*
X111641253Y-82280599D01*
X111624777Y-82298777D01*
X111606599Y-82315253D01*
X111586893Y-82329868D01*
X111565850Y-82342480D01*
X111543671Y-82352970D01*
X111520572Y-82361235D01*
X111496773Y-82367196D01*
X111472505Y-82370796D01*
X111448001Y-82372000D01*
X110547999Y-82372000D01*
X110523495Y-82370796D01*
X110499227Y-82367196D01*
X110475428Y-82361235D01*
X110452329Y-82352970D01*
X110430150Y-82342480D01*
X110409107Y-82329868D01*
X110389401Y-82315253D01*
X110371223Y-82298777D01*
X110354747Y-82280599D01*
X110340132Y-82260893D01*
X110327520Y-82239850D01*
X110317030Y-82217671D01*
X110308765Y-82194572D01*
X110302804Y-82170773D01*
X110299204Y-82146505D01*
X110298000Y-82122001D01*
X110298000Y-81471999D01*
X110299204Y-81447495D01*
X110302804Y-81423227D01*
X110308765Y-81399428D01*
X110317030Y-81376329D01*
X110327520Y-81354150D01*
X110340132Y-81333107D01*
X110354747Y-81313401D01*
X110371223Y-81295223D01*
X110389401Y-81278747D01*
X110409107Y-81264132D01*
X110430150Y-81251520D01*
X110452329Y-81241030D01*
X110475428Y-81232765D01*
X110499227Y-81226804D01*
X110523495Y-81223204D01*
X110547999Y-81222000D01*
X111448001Y-81222000D01*
X111472505Y-81223204D01*
X111472505Y-81223204D01*
G37*
D12*
X110998000Y-81797000D03*
D10*
G36*
X111472505Y-79173204D02*
G01*
X111496773Y-79176804D01*
X111520572Y-79182765D01*
X111543671Y-79191030D01*
X111565850Y-79201520D01*
X111586893Y-79214132D01*
X111606599Y-79228747D01*
X111624777Y-79245223D01*
X111641253Y-79263401D01*
X111655868Y-79283107D01*
X111668480Y-79304150D01*
X111678970Y-79326329D01*
X111687235Y-79349428D01*
X111693196Y-79373227D01*
X111696796Y-79397495D01*
X111698000Y-79421999D01*
X111698000Y-80072001D01*
X111696796Y-80096505D01*
X111693196Y-80120773D01*
X111687235Y-80144572D01*
X111678970Y-80167671D01*
X111668480Y-80189850D01*
X111655868Y-80210893D01*
X111641253Y-80230599D01*
X111624777Y-80248777D01*
X111606599Y-80265253D01*
X111586893Y-80279868D01*
X111565850Y-80292480D01*
X111543671Y-80302970D01*
X111520572Y-80311235D01*
X111496773Y-80317196D01*
X111472505Y-80320796D01*
X111448001Y-80322000D01*
X110547999Y-80322000D01*
X110523495Y-80320796D01*
X110499227Y-80317196D01*
X110475428Y-80311235D01*
X110452329Y-80302970D01*
X110430150Y-80292480D01*
X110409107Y-80279868D01*
X110389401Y-80265253D01*
X110371223Y-80248777D01*
X110354747Y-80230599D01*
X110340132Y-80210893D01*
X110327520Y-80189850D01*
X110317030Y-80167671D01*
X110308765Y-80144572D01*
X110302804Y-80120773D01*
X110299204Y-80096505D01*
X110298000Y-80072001D01*
X110298000Y-79421999D01*
X110299204Y-79397495D01*
X110302804Y-79373227D01*
X110308765Y-79349428D01*
X110317030Y-79326329D01*
X110327520Y-79304150D01*
X110340132Y-79283107D01*
X110354747Y-79263401D01*
X110371223Y-79245223D01*
X110389401Y-79228747D01*
X110409107Y-79214132D01*
X110430150Y-79201520D01*
X110452329Y-79191030D01*
X110475428Y-79182765D01*
X110499227Y-79176804D01*
X110523495Y-79173204D01*
X110547999Y-79172000D01*
X111448001Y-79172000D01*
X111472505Y-79173204D01*
X111472505Y-79173204D01*
G37*
D12*
X110998000Y-79747000D03*
D10*
G36*
X101187505Y-71691204D02*
G01*
X101211773Y-71694804D01*
X101235572Y-71700765D01*
X101258671Y-71709030D01*
X101280850Y-71719520D01*
X101301893Y-71732132D01*
X101321599Y-71746747D01*
X101339777Y-71763223D01*
X101356253Y-71781401D01*
X101370868Y-71801107D01*
X101383480Y-71822150D01*
X101393970Y-71844329D01*
X101402235Y-71867428D01*
X101408196Y-71891227D01*
X101411796Y-71915495D01*
X101413000Y-71939999D01*
X101413000Y-72840001D01*
X101411796Y-72864505D01*
X101408196Y-72888773D01*
X101402235Y-72912572D01*
X101393970Y-72935671D01*
X101383480Y-72957850D01*
X101370868Y-72978893D01*
X101356253Y-72998599D01*
X101339777Y-73016777D01*
X101321599Y-73033253D01*
X101301893Y-73047868D01*
X101280850Y-73060480D01*
X101258671Y-73070970D01*
X101235572Y-73079235D01*
X101211773Y-73085196D01*
X101187505Y-73088796D01*
X101163001Y-73090000D01*
X100512999Y-73090000D01*
X100488495Y-73088796D01*
X100464227Y-73085196D01*
X100440428Y-73079235D01*
X100417329Y-73070970D01*
X100395150Y-73060480D01*
X100374107Y-73047868D01*
X100354401Y-73033253D01*
X100336223Y-73016777D01*
X100319747Y-72998599D01*
X100305132Y-72978893D01*
X100292520Y-72957850D01*
X100282030Y-72935671D01*
X100273765Y-72912572D01*
X100267804Y-72888773D01*
X100264204Y-72864505D01*
X100263000Y-72840001D01*
X100263000Y-71939999D01*
X100264204Y-71915495D01*
X100267804Y-71891227D01*
X100273765Y-71867428D01*
X100282030Y-71844329D01*
X100292520Y-71822150D01*
X100305132Y-71801107D01*
X100319747Y-71781401D01*
X100336223Y-71763223D01*
X100354401Y-71746747D01*
X100374107Y-71732132D01*
X100395150Y-71719520D01*
X100417329Y-71709030D01*
X100440428Y-71700765D01*
X100464227Y-71694804D01*
X100488495Y-71691204D01*
X100512999Y-71690000D01*
X101163001Y-71690000D01*
X101187505Y-71691204D01*
X101187505Y-71691204D01*
G37*
D12*
X100838000Y-72390000D03*
D10*
G36*
X103237505Y-71691204D02*
G01*
X103261773Y-71694804D01*
X103285572Y-71700765D01*
X103308671Y-71709030D01*
X103330850Y-71719520D01*
X103351893Y-71732132D01*
X103371599Y-71746747D01*
X103389777Y-71763223D01*
X103406253Y-71781401D01*
X103420868Y-71801107D01*
X103433480Y-71822150D01*
X103443970Y-71844329D01*
X103452235Y-71867428D01*
X103458196Y-71891227D01*
X103461796Y-71915495D01*
X103463000Y-71939999D01*
X103463000Y-72840001D01*
X103461796Y-72864505D01*
X103458196Y-72888773D01*
X103452235Y-72912572D01*
X103443970Y-72935671D01*
X103433480Y-72957850D01*
X103420868Y-72978893D01*
X103406253Y-72998599D01*
X103389777Y-73016777D01*
X103371599Y-73033253D01*
X103351893Y-73047868D01*
X103330850Y-73060480D01*
X103308671Y-73070970D01*
X103285572Y-73079235D01*
X103261773Y-73085196D01*
X103237505Y-73088796D01*
X103213001Y-73090000D01*
X102562999Y-73090000D01*
X102538495Y-73088796D01*
X102514227Y-73085196D01*
X102490428Y-73079235D01*
X102467329Y-73070970D01*
X102445150Y-73060480D01*
X102424107Y-73047868D01*
X102404401Y-73033253D01*
X102386223Y-73016777D01*
X102369747Y-72998599D01*
X102355132Y-72978893D01*
X102342520Y-72957850D01*
X102332030Y-72935671D01*
X102323765Y-72912572D01*
X102317804Y-72888773D01*
X102314204Y-72864505D01*
X102313000Y-72840001D01*
X102313000Y-71939999D01*
X102314204Y-71915495D01*
X102317804Y-71891227D01*
X102323765Y-71867428D01*
X102332030Y-71844329D01*
X102342520Y-71822150D01*
X102355132Y-71801107D01*
X102369747Y-71781401D01*
X102386223Y-71763223D01*
X102404401Y-71746747D01*
X102424107Y-71732132D01*
X102445150Y-71719520D01*
X102467329Y-71709030D01*
X102490428Y-71700765D01*
X102514227Y-71694804D01*
X102538495Y-71691204D01*
X102562999Y-71690000D01*
X103213001Y-71690000D01*
X103237505Y-71691204D01*
X103237505Y-71691204D01*
G37*
D12*
X102888000Y-72390000D03*
D10*
G36*
X98264505Y-86493704D02*
G01*
X98288773Y-86497304D01*
X98312572Y-86503265D01*
X98335671Y-86511530D01*
X98357850Y-86522020D01*
X98378893Y-86534632D01*
X98398599Y-86549247D01*
X98416777Y-86565723D01*
X98433253Y-86583901D01*
X98447868Y-86603607D01*
X98460480Y-86624650D01*
X98470970Y-86646829D01*
X98479235Y-86669928D01*
X98485196Y-86693727D01*
X98488796Y-86717995D01*
X98490000Y-86742499D01*
X98490000Y-87392501D01*
X98488796Y-87417005D01*
X98485196Y-87441273D01*
X98479235Y-87465072D01*
X98470970Y-87488171D01*
X98460480Y-87510350D01*
X98447868Y-87531393D01*
X98433253Y-87551099D01*
X98416777Y-87569277D01*
X98398599Y-87585753D01*
X98378893Y-87600368D01*
X98357850Y-87612980D01*
X98335671Y-87623470D01*
X98312572Y-87631735D01*
X98288773Y-87637696D01*
X98264505Y-87641296D01*
X98240001Y-87642500D01*
X97339999Y-87642500D01*
X97315495Y-87641296D01*
X97291227Y-87637696D01*
X97267428Y-87631735D01*
X97244329Y-87623470D01*
X97222150Y-87612980D01*
X97201107Y-87600368D01*
X97181401Y-87585753D01*
X97163223Y-87569277D01*
X97146747Y-87551099D01*
X97132132Y-87531393D01*
X97119520Y-87510350D01*
X97109030Y-87488171D01*
X97100765Y-87465072D01*
X97094804Y-87441273D01*
X97091204Y-87417005D01*
X97090000Y-87392501D01*
X97090000Y-86742499D01*
X97091204Y-86717995D01*
X97094804Y-86693727D01*
X97100765Y-86669928D01*
X97109030Y-86646829D01*
X97119520Y-86624650D01*
X97132132Y-86603607D01*
X97146747Y-86583901D01*
X97163223Y-86565723D01*
X97181401Y-86549247D01*
X97201107Y-86534632D01*
X97222150Y-86522020D01*
X97244329Y-86511530D01*
X97267428Y-86503265D01*
X97291227Y-86497304D01*
X97315495Y-86493704D01*
X97339999Y-86492500D01*
X98240001Y-86492500D01*
X98264505Y-86493704D01*
X98264505Y-86493704D01*
G37*
D12*
X97790000Y-87067500D03*
D10*
G36*
X98264505Y-84443704D02*
G01*
X98288773Y-84447304D01*
X98312572Y-84453265D01*
X98335671Y-84461530D01*
X98357850Y-84472020D01*
X98378893Y-84484632D01*
X98398599Y-84499247D01*
X98416777Y-84515723D01*
X98433253Y-84533901D01*
X98447868Y-84553607D01*
X98460480Y-84574650D01*
X98470970Y-84596829D01*
X98479235Y-84619928D01*
X98485196Y-84643727D01*
X98488796Y-84667995D01*
X98490000Y-84692499D01*
X98490000Y-85342501D01*
X98488796Y-85367005D01*
X98485196Y-85391273D01*
X98479235Y-85415072D01*
X98470970Y-85438171D01*
X98460480Y-85460350D01*
X98447868Y-85481393D01*
X98433253Y-85501099D01*
X98416777Y-85519277D01*
X98398599Y-85535753D01*
X98378893Y-85550368D01*
X98357850Y-85562980D01*
X98335671Y-85573470D01*
X98312572Y-85581735D01*
X98288773Y-85587696D01*
X98264505Y-85591296D01*
X98240001Y-85592500D01*
X97339999Y-85592500D01*
X97315495Y-85591296D01*
X97291227Y-85587696D01*
X97267428Y-85581735D01*
X97244329Y-85573470D01*
X97222150Y-85562980D01*
X97201107Y-85550368D01*
X97181401Y-85535753D01*
X97163223Y-85519277D01*
X97146747Y-85501099D01*
X97132132Y-85481393D01*
X97119520Y-85460350D01*
X97109030Y-85438171D01*
X97100765Y-85415072D01*
X97094804Y-85391273D01*
X97091204Y-85367005D01*
X97090000Y-85342501D01*
X97090000Y-84692499D01*
X97091204Y-84667995D01*
X97094804Y-84643727D01*
X97100765Y-84619928D01*
X97109030Y-84596829D01*
X97119520Y-84574650D01*
X97132132Y-84553607D01*
X97146747Y-84533901D01*
X97163223Y-84515723D01*
X97181401Y-84499247D01*
X97201107Y-84484632D01*
X97222150Y-84472020D01*
X97244329Y-84461530D01*
X97267428Y-84453265D01*
X97291227Y-84447304D01*
X97315495Y-84443704D01*
X97339999Y-84442500D01*
X98240001Y-84442500D01*
X98264505Y-84443704D01*
X98264505Y-84443704D01*
G37*
D12*
X97790000Y-85017500D03*
D10*
G36*
X100177203Y-87860722D02*
G01*
X100191764Y-87862882D01*
X100206043Y-87866459D01*
X100219903Y-87871418D01*
X100233210Y-87877712D01*
X100245836Y-87885280D01*
X100257659Y-87894048D01*
X100268566Y-87903934D01*
X100278452Y-87914841D01*
X100287220Y-87926664D01*
X100294788Y-87939290D01*
X100301082Y-87952597D01*
X100306041Y-87966457D01*
X100309618Y-87980736D01*
X100311778Y-87995297D01*
X100312500Y-88010000D01*
X100312500Y-89660000D01*
X100311778Y-89674703D01*
X100309618Y-89689264D01*
X100306041Y-89703543D01*
X100301082Y-89717403D01*
X100294788Y-89730710D01*
X100287220Y-89743336D01*
X100278452Y-89755159D01*
X100268566Y-89766066D01*
X100257659Y-89775952D01*
X100245836Y-89784720D01*
X100233210Y-89792288D01*
X100219903Y-89798582D01*
X100206043Y-89803541D01*
X100191764Y-89807118D01*
X100177203Y-89809278D01*
X100162500Y-89810000D01*
X99862500Y-89810000D01*
X99847797Y-89809278D01*
X99833236Y-89807118D01*
X99818957Y-89803541D01*
X99805097Y-89798582D01*
X99791790Y-89792288D01*
X99779164Y-89784720D01*
X99767341Y-89775952D01*
X99756434Y-89766066D01*
X99746548Y-89755159D01*
X99737780Y-89743336D01*
X99730212Y-89730710D01*
X99723918Y-89717403D01*
X99718959Y-89703543D01*
X99715382Y-89689264D01*
X99713222Y-89674703D01*
X99712500Y-89660000D01*
X99712500Y-88010000D01*
X99713222Y-87995297D01*
X99715382Y-87980736D01*
X99718959Y-87966457D01*
X99723918Y-87952597D01*
X99730212Y-87939290D01*
X99737780Y-87926664D01*
X99746548Y-87914841D01*
X99756434Y-87903934D01*
X99767341Y-87894048D01*
X99779164Y-87885280D01*
X99791790Y-87877712D01*
X99805097Y-87871418D01*
X99818957Y-87866459D01*
X99833236Y-87862882D01*
X99847797Y-87860722D01*
X99862500Y-87860000D01*
X100162500Y-87860000D01*
X100177203Y-87860722D01*
X100177203Y-87860722D01*
G37*
D15*
X100012500Y-88835000D03*
D10*
G36*
X101447203Y-87860722D02*
G01*
X101461764Y-87862882D01*
X101476043Y-87866459D01*
X101489903Y-87871418D01*
X101503210Y-87877712D01*
X101515836Y-87885280D01*
X101527659Y-87894048D01*
X101538566Y-87903934D01*
X101548452Y-87914841D01*
X101557220Y-87926664D01*
X101564788Y-87939290D01*
X101571082Y-87952597D01*
X101576041Y-87966457D01*
X101579618Y-87980736D01*
X101581778Y-87995297D01*
X101582500Y-88010000D01*
X101582500Y-89660000D01*
X101581778Y-89674703D01*
X101579618Y-89689264D01*
X101576041Y-89703543D01*
X101571082Y-89717403D01*
X101564788Y-89730710D01*
X101557220Y-89743336D01*
X101548452Y-89755159D01*
X101538566Y-89766066D01*
X101527659Y-89775952D01*
X101515836Y-89784720D01*
X101503210Y-89792288D01*
X101489903Y-89798582D01*
X101476043Y-89803541D01*
X101461764Y-89807118D01*
X101447203Y-89809278D01*
X101432500Y-89810000D01*
X101132500Y-89810000D01*
X101117797Y-89809278D01*
X101103236Y-89807118D01*
X101088957Y-89803541D01*
X101075097Y-89798582D01*
X101061790Y-89792288D01*
X101049164Y-89784720D01*
X101037341Y-89775952D01*
X101026434Y-89766066D01*
X101016548Y-89755159D01*
X101007780Y-89743336D01*
X101000212Y-89730710D01*
X100993918Y-89717403D01*
X100988959Y-89703543D01*
X100985382Y-89689264D01*
X100983222Y-89674703D01*
X100982500Y-89660000D01*
X100982500Y-88010000D01*
X100983222Y-87995297D01*
X100985382Y-87980736D01*
X100988959Y-87966457D01*
X100993918Y-87952597D01*
X101000212Y-87939290D01*
X101007780Y-87926664D01*
X101016548Y-87914841D01*
X101026434Y-87903934D01*
X101037341Y-87894048D01*
X101049164Y-87885280D01*
X101061790Y-87877712D01*
X101075097Y-87871418D01*
X101088957Y-87866459D01*
X101103236Y-87862882D01*
X101117797Y-87860722D01*
X101132500Y-87860000D01*
X101432500Y-87860000D01*
X101447203Y-87860722D01*
X101447203Y-87860722D01*
G37*
D15*
X101282500Y-88835000D03*
D10*
G36*
X102717203Y-87860722D02*
G01*
X102731764Y-87862882D01*
X102746043Y-87866459D01*
X102759903Y-87871418D01*
X102773210Y-87877712D01*
X102785836Y-87885280D01*
X102797659Y-87894048D01*
X102808566Y-87903934D01*
X102818452Y-87914841D01*
X102827220Y-87926664D01*
X102834788Y-87939290D01*
X102841082Y-87952597D01*
X102846041Y-87966457D01*
X102849618Y-87980736D01*
X102851778Y-87995297D01*
X102852500Y-88010000D01*
X102852500Y-89660000D01*
X102851778Y-89674703D01*
X102849618Y-89689264D01*
X102846041Y-89703543D01*
X102841082Y-89717403D01*
X102834788Y-89730710D01*
X102827220Y-89743336D01*
X102818452Y-89755159D01*
X102808566Y-89766066D01*
X102797659Y-89775952D01*
X102785836Y-89784720D01*
X102773210Y-89792288D01*
X102759903Y-89798582D01*
X102746043Y-89803541D01*
X102731764Y-89807118D01*
X102717203Y-89809278D01*
X102702500Y-89810000D01*
X102402500Y-89810000D01*
X102387797Y-89809278D01*
X102373236Y-89807118D01*
X102358957Y-89803541D01*
X102345097Y-89798582D01*
X102331790Y-89792288D01*
X102319164Y-89784720D01*
X102307341Y-89775952D01*
X102296434Y-89766066D01*
X102286548Y-89755159D01*
X102277780Y-89743336D01*
X102270212Y-89730710D01*
X102263918Y-89717403D01*
X102258959Y-89703543D01*
X102255382Y-89689264D01*
X102253222Y-89674703D01*
X102252500Y-89660000D01*
X102252500Y-88010000D01*
X102253222Y-87995297D01*
X102255382Y-87980736D01*
X102258959Y-87966457D01*
X102263918Y-87952597D01*
X102270212Y-87939290D01*
X102277780Y-87926664D01*
X102286548Y-87914841D01*
X102296434Y-87903934D01*
X102307341Y-87894048D01*
X102319164Y-87885280D01*
X102331790Y-87877712D01*
X102345097Y-87871418D01*
X102358957Y-87866459D01*
X102373236Y-87862882D01*
X102387797Y-87860722D01*
X102402500Y-87860000D01*
X102702500Y-87860000D01*
X102717203Y-87860722D01*
X102717203Y-87860722D01*
G37*
D15*
X102552500Y-88835000D03*
D10*
G36*
X103987203Y-87860722D02*
G01*
X104001764Y-87862882D01*
X104016043Y-87866459D01*
X104029903Y-87871418D01*
X104043210Y-87877712D01*
X104055836Y-87885280D01*
X104067659Y-87894048D01*
X104078566Y-87903934D01*
X104088452Y-87914841D01*
X104097220Y-87926664D01*
X104104788Y-87939290D01*
X104111082Y-87952597D01*
X104116041Y-87966457D01*
X104119618Y-87980736D01*
X104121778Y-87995297D01*
X104122500Y-88010000D01*
X104122500Y-89660000D01*
X104121778Y-89674703D01*
X104119618Y-89689264D01*
X104116041Y-89703543D01*
X104111082Y-89717403D01*
X104104788Y-89730710D01*
X104097220Y-89743336D01*
X104088452Y-89755159D01*
X104078566Y-89766066D01*
X104067659Y-89775952D01*
X104055836Y-89784720D01*
X104043210Y-89792288D01*
X104029903Y-89798582D01*
X104016043Y-89803541D01*
X104001764Y-89807118D01*
X103987203Y-89809278D01*
X103972500Y-89810000D01*
X103672500Y-89810000D01*
X103657797Y-89809278D01*
X103643236Y-89807118D01*
X103628957Y-89803541D01*
X103615097Y-89798582D01*
X103601790Y-89792288D01*
X103589164Y-89784720D01*
X103577341Y-89775952D01*
X103566434Y-89766066D01*
X103556548Y-89755159D01*
X103547780Y-89743336D01*
X103540212Y-89730710D01*
X103533918Y-89717403D01*
X103528959Y-89703543D01*
X103525382Y-89689264D01*
X103523222Y-89674703D01*
X103522500Y-89660000D01*
X103522500Y-88010000D01*
X103523222Y-87995297D01*
X103525382Y-87980736D01*
X103528959Y-87966457D01*
X103533918Y-87952597D01*
X103540212Y-87939290D01*
X103547780Y-87926664D01*
X103556548Y-87914841D01*
X103566434Y-87903934D01*
X103577341Y-87894048D01*
X103589164Y-87885280D01*
X103601790Y-87877712D01*
X103615097Y-87871418D01*
X103628957Y-87866459D01*
X103643236Y-87862882D01*
X103657797Y-87860722D01*
X103672500Y-87860000D01*
X103972500Y-87860000D01*
X103987203Y-87860722D01*
X103987203Y-87860722D01*
G37*
D15*
X103822500Y-88835000D03*
D10*
G36*
X105257203Y-87860722D02*
G01*
X105271764Y-87862882D01*
X105286043Y-87866459D01*
X105299903Y-87871418D01*
X105313210Y-87877712D01*
X105325836Y-87885280D01*
X105337659Y-87894048D01*
X105348566Y-87903934D01*
X105358452Y-87914841D01*
X105367220Y-87926664D01*
X105374788Y-87939290D01*
X105381082Y-87952597D01*
X105386041Y-87966457D01*
X105389618Y-87980736D01*
X105391778Y-87995297D01*
X105392500Y-88010000D01*
X105392500Y-89660000D01*
X105391778Y-89674703D01*
X105389618Y-89689264D01*
X105386041Y-89703543D01*
X105381082Y-89717403D01*
X105374788Y-89730710D01*
X105367220Y-89743336D01*
X105358452Y-89755159D01*
X105348566Y-89766066D01*
X105337659Y-89775952D01*
X105325836Y-89784720D01*
X105313210Y-89792288D01*
X105299903Y-89798582D01*
X105286043Y-89803541D01*
X105271764Y-89807118D01*
X105257203Y-89809278D01*
X105242500Y-89810000D01*
X104942500Y-89810000D01*
X104927797Y-89809278D01*
X104913236Y-89807118D01*
X104898957Y-89803541D01*
X104885097Y-89798582D01*
X104871790Y-89792288D01*
X104859164Y-89784720D01*
X104847341Y-89775952D01*
X104836434Y-89766066D01*
X104826548Y-89755159D01*
X104817780Y-89743336D01*
X104810212Y-89730710D01*
X104803918Y-89717403D01*
X104798959Y-89703543D01*
X104795382Y-89689264D01*
X104793222Y-89674703D01*
X104792500Y-89660000D01*
X104792500Y-88010000D01*
X104793222Y-87995297D01*
X104795382Y-87980736D01*
X104798959Y-87966457D01*
X104803918Y-87952597D01*
X104810212Y-87939290D01*
X104817780Y-87926664D01*
X104826548Y-87914841D01*
X104836434Y-87903934D01*
X104847341Y-87894048D01*
X104859164Y-87885280D01*
X104871790Y-87877712D01*
X104885097Y-87871418D01*
X104898957Y-87866459D01*
X104913236Y-87862882D01*
X104927797Y-87860722D01*
X104942500Y-87860000D01*
X105242500Y-87860000D01*
X105257203Y-87860722D01*
X105257203Y-87860722D01*
G37*
D15*
X105092500Y-88835000D03*
D10*
G36*
X106527203Y-87860722D02*
G01*
X106541764Y-87862882D01*
X106556043Y-87866459D01*
X106569903Y-87871418D01*
X106583210Y-87877712D01*
X106595836Y-87885280D01*
X106607659Y-87894048D01*
X106618566Y-87903934D01*
X106628452Y-87914841D01*
X106637220Y-87926664D01*
X106644788Y-87939290D01*
X106651082Y-87952597D01*
X106656041Y-87966457D01*
X106659618Y-87980736D01*
X106661778Y-87995297D01*
X106662500Y-88010000D01*
X106662500Y-89660000D01*
X106661778Y-89674703D01*
X106659618Y-89689264D01*
X106656041Y-89703543D01*
X106651082Y-89717403D01*
X106644788Y-89730710D01*
X106637220Y-89743336D01*
X106628452Y-89755159D01*
X106618566Y-89766066D01*
X106607659Y-89775952D01*
X106595836Y-89784720D01*
X106583210Y-89792288D01*
X106569903Y-89798582D01*
X106556043Y-89803541D01*
X106541764Y-89807118D01*
X106527203Y-89809278D01*
X106512500Y-89810000D01*
X106212500Y-89810000D01*
X106197797Y-89809278D01*
X106183236Y-89807118D01*
X106168957Y-89803541D01*
X106155097Y-89798582D01*
X106141790Y-89792288D01*
X106129164Y-89784720D01*
X106117341Y-89775952D01*
X106106434Y-89766066D01*
X106096548Y-89755159D01*
X106087780Y-89743336D01*
X106080212Y-89730710D01*
X106073918Y-89717403D01*
X106068959Y-89703543D01*
X106065382Y-89689264D01*
X106063222Y-89674703D01*
X106062500Y-89660000D01*
X106062500Y-88010000D01*
X106063222Y-87995297D01*
X106065382Y-87980736D01*
X106068959Y-87966457D01*
X106073918Y-87952597D01*
X106080212Y-87939290D01*
X106087780Y-87926664D01*
X106096548Y-87914841D01*
X106106434Y-87903934D01*
X106117341Y-87894048D01*
X106129164Y-87885280D01*
X106141790Y-87877712D01*
X106155097Y-87871418D01*
X106168957Y-87866459D01*
X106183236Y-87862882D01*
X106197797Y-87860722D01*
X106212500Y-87860000D01*
X106512500Y-87860000D01*
X106527203Y-87860722D01*
X106527203Y-87860722D01*
G37*
D15*
X106362500Y-88835000D03*
D10*
G36*
X107797203Y-87860722D02*
G01*
X107811764Y-87862882D01*
X107826043Y-87866459D01*
X107839903Y-87871418D01*
X107853210Y-87877712D01*
X107865836Y-87885280D01*
X107877659Y-87894048D01*
X107888566Y-87903934D01*
X107898452Y-87914841D01*
X107907220Y-87926664D01*
X107914788Y-87939290D01*
X107921082Y-87952597D01*
X107926041Y-87966457D01*
X107929618Y-87980736D01*
X107931778Y-87995297D01*
X107932500Y-88010000D01*
X107932500Y-89660000D01*
X107931778Y-89674703D01*
X107929618Y-89689264D01*
X107926041Y-89703543D01*
X107921082Y-89717403D01*
X107914788Y-89730710D01*
X107907220Y-89743336D01*
X107898452Y-89755159D01*
X107888566Y-89766066D01*
X107877659Y-89775952D01*
X107865836Y-89784720D01*
X107853210Y-89792288D01*
X107839903Y-89798582D01*
X107826043Y-89803541D01*
X107811764Y-89807118D01*
X107797203Y-89809278D01*
X107782500Y-89810000D01*
X107482500Y-89810000D01*
X107467797Y-89809278D01*
X107453236Y-89807118D01*
X107438957Y-89803541D01*
X107425097Y-89798582D01*
X107411790Y-89792288D01*
X107399164Y-89784720D01*
X107387341Y-89775952D01*
X107376434Y-89766066D01*
X107366548Y-89755159D01*
X107357780Y-89743336D01*
X107350212Y-89730710D01*
X107343918Y-89717403D01*
X107338959Y-89703543D01*
X107335382Y-89689264D01*
X107333222Y-89674703D01*
X107332500Y-89660000D01*
X107332500Y-88010000D01*
X107333222Y-87995297D01*
X107335382Y-87980736D01*
X107338959Y-87966457D01*
X107343918Y-87952597D01*
X107350212Y-87939290D01*
X107357780Y-87926664D01*
X107366548Y-87914841D01*
X107376434Y-87903934D01*
X107387341Y-87894048D01*
X107399164Y-87885280D01*
X107411790Y-87877712D01*
X107425097Y-87871418D01*
X107438957Y-87866459D01*
X107453236Y-87862882D01*
X107467797Y-87860722D01*
X107482500Y-87860000D01*
X107782500Y-87860000D01*
X107797203Y-87860722D01*
X107797203Y-87860722D01*
G37*
D15*
X107632500Y-88835000D03*
D10*
G36*
X109067203Y-87860722D02*
G01*
X109081764Y-87862882D01*
X109096043Y-87866459D01*
X109109903Y-87871418D01*
X109123210Y-87877712D01*
X109135836Y-87885280D01*
X109147659Y-87894048D01*
X109158566Y-87903934D01*
X109168452Y-87914841D01*
X109177220Y-87926664D01*
X109184788Y-87939290D01*
X109191082Y-87952597D01*
X109196041Y-87966457D01*
X109199618Y-87980736D01*
X109201778Y-87995297D01*
X109202500Y-88010000D01*
X109202500Y-89660000D01*
X109201778Y-89674703D01*
X109199618Y-89689264D01*
X109196041Y-89703543D01*
X109191082Y-89717403D01*
X109184788Y-89730710D01*
X109177220Y-89743336D01*
X109168452Y-89755159D01*
X109158566Y-89766066D01*
X109147659Y-89775952D01*
X109135836Y-89784720D01*
X109123210Y-89792288D01*
X109109903Y-89798582D01*
X109096043Y-89803541D01*
X109081764Y-89807118D01*
X109067203Y-89809278D01*
X109052500Y-89810000D01*
X108752500Y-89810000D01*
X108737797Y-89809278D01*
X108723236Y-89807118D01*
X108708957Y-89803541D01*
X108695097Y-89798582D01*
X108681790Y-89792288D01*
X108669164Y-89784720D01*
X108657341Y-89775952D01*
X108646434Y-89766066D01*
X108636548Y-89755159D01*
X108627780Y-89743336D01*
X108620212Y-89730710D01*
X108613918Y-89717403D01*
X108608959Y-89703543D01*
X108605382Y-89689264D01*
X108603222Y-89674703D01*
X108602500Y-89660000D01*
X108602500Y-88010000D01*
X108603222Y-87995297D01*
X108605382Y-87980736D01*
X108608959Y-87966457D01*
X108613918Y-87952597D01*
X108620212Y-87939290D01*
X108627780Y-87926664D01*
X108636548Y-87914841D01*
X108646434Y-87903934D01*
X108657341Y-87894048D01*
X108669164Y-87885280D01*
X108681790Y-87877712D01*
X108695097Y-87871418D01*
X108708957Y-87866459D01*
X108723236Y-87862882D01*
X108737797Y-87860722D01*
X108752500Y-87860000D01*
X109052500Y-87860000D01*
X109067203Y-87860722D01*
X109067203Y-87860722D01*
G37*
D15*
X108902500Y-88835000D03*
D10*
G36*
X109067203Y-82910722D02*
G01*
X109081764Y-82912882D01*
X109096043Y-82916459D01*
X109109903Y-82921418D01*
X109123210Y-82927712D01*
X109135836Y-82935280D01*
X109147659Y-82944048D01*
X109158566Y-82953934D01*
X109168452Y-82964841D01*
X109177220Y-82976664D01*
X109184788Y-82989290D01*
X109191082Y-83002597D01*
X109196041Y-83016457D01*
X109199618Y-83030736D01*
X109201778Y-83045297D01*
X109202500Y-83060000D01*
X109202500Y-84710000D01*
X109201778Y-84724703D01*
X109199618Y-84739264D01*
X109196041Y-84753543D01*
X109191082Y-84767403D01*
X109184788Y-84780710D01*
X109177220Y-84793336D01*
X109168452Y-84805159D01*
X109158566Y-84816066D01*
X109147659Y-84825952D01*
X109135836Y-84834720D01*
X109123210Y-84842288D01*
X109109903Y-84848582D01*
X109096043Y-84853541D01*
X109081764Y-84857118D01*
X109067203Y-84859278D01*
X109052500Y-84860000D01*
X108752500Y-84860000D01*
X108737797Y-84859278D01*
X108723236Y-84857118D01*
X108708957Y-84853541D01*
X108695097Y-84848582D01*
X108681790Y-84842288D01*
X108669164Y-84834720D01*
X108657341Y-84825952D01*
X108646434Y-84816066D01*
X108636548Y-84805159D01*
X108627780Y-84793336D01*
X108620212Y-84780710D01*
X108613918Y-84767403D01*
X108608959Y-84753543D01*
X108605382Y-84739264D01*
X108603222Y-84724703D01*
X108602500Y-84710000D01*
X108602500Y-83060000D01*
X108603222Y-83045297D01*
X108605382Y-83030736D01*
X108608959Y-83016457D01*
X108613918Y-83002597D01*
X108620212Y-82989290D01*
X108627780Y-82976664D01*
X108636548Y-82964841D01*
X108646434Y-82953934D01*
X108657341Y-82944048D01*
X108669164Y-82935280D01*
X108681790Y-82927712D01*
X108695097Y-82921418D01*
X108708957Y-82916459D01*
X108723236Y-82912882D01*
X108737797Y-82910722D01*
X108752500Y-82910000D01*
X109052500Y-82910000D01*
X109067203Y-82910722D01*
X109067203Y-82910722D01*
G37*
D15*
X108902500Y-83885000D03*
D10*
G36*
X107797203Y-82910722D02*
G01*
X107811764Y-82912882D01*
X107826043Y-82916459D01*
X107839903Y-82921418D01*
X107853210Y-82927712D01*
X107865836Y-82935280D01*
X107877659Y-82944048D01*
X107888566Y-82953934D01*
X107898452Y-82964841D01*
X107907220Y-82976664D01*
X107914788Y-82989290D01*
X107921082Y-83002597D01*
X107926041Y-83016457D01*
X107929618Y-83030736D01*
X107931778Y-83045297D01*
X107932500Y-83060000D01*
X107932500Y-84710000D01*
X107931778Y-84724703D01*
X107929618Y-84739264D01*
X107926041Y-84753543D01*
X107921082Y-84767403D01*
X107914788Y-84780710D01*
X107907220Y-84793336D01*
X107898452Y-84805159D01*
X107888566Y-84816066D01*
X107877659Y-84825952D01*
X107865836Y-84834720D01*
X107853210Y-84842288D01*
X107839903Y-84848582D01*
X107826043Y-84853541D01*
X107811764Y-84857118D01*
X107797203Y-84859278D01*
X107782500Y-84860000D01*
X107482500Y-84860000D01*
X107467797Y-84859278D01*
X107453236Y-84857118D01*
X107438957Y-84853541D01*
X107425097Y-84848582D01*
X107411790Y-84842288D01*
X107399164Y-84834720D01*
X107387341Y-84825952D01*
X107376434Y-84816066D01*
X107366548Y-84805159D01*
X107357780Y-84793336D01*
X107350212Y-84780710D01*
X107343918Y-84767403D01*
X107338959Y-84753543D01*
X107335382Y-84739264D01*
X107333222Y-84724703D01*
X107332500Y-84710000D01*
X107332500Y-83060000D01*
X107333222Y-83045297D01*
X107335382Y-83030736D01*
X107338959Y-83016457D01*
X107343918Y-83002597D01*
X107350212Y-82989290D01*
X107357780Y-82976664D01*
X107366548Y-82964841D01*
X107376434Y-82953934D01*
X107387341Y-82944048D01*
X107399164Y-82935280D01*
X107411790Y-82927712D01*
X107425097Y-82921418D01*
X107438957Y-82916459D01*
X107453236Y-82912882D01*
X107467797Y-82910722D01*
X107482500Y-82910000D01*
X107782500Y-82910000D01*
X107797203Y-82910722D01*
X107797203Y-82910722D01*
G37*
D15*
X107632500Y-83885000D03*
D10*
G36*
X106527203Y-82910722D02*
G01*
X106541764Y-82912882D01*
X106556043Y-82916459D01*
X106569903Y-82921418D01*
X106583210Y-82927712D01*
X106595836Y-82935280D01*
X106607659Y-82944048D01*
X106618566Y-82953934D01*
X106628452Y-82964841D01*
X106637220Y-82976664D01*
X106644788Y-82989290D01*
X106651082Y-83002597D01*
X106656041Y-83016457D01*
X106659618Y-83030736D01*
X106661778Y-83045297D01*
X106662500Y-83060000D01*
X106662500Y-84710000D01*
X106661778Y-84724703D01*
X106659618Y-84739264D01*
X106656041Y-84753543D01*
X106651082Y-84767403D01*
X106644788Y-84780710D01*
X106637220Y-84793336D01*
X106628452Y-84805159D01*
X106618566Y-84816066D01*
X106607659Y-84825952D01*
X106595836Y-84834720D01*
X106583210Y-84842288D01*
X106569903Y-84848582D01*
X106556043Y-84853541D01*
X106541764Y-84857118D01*
X106527203Y-84859278D01*
X106512500Y-84860000D01*
X106212500Y-84860000D01*
X106197797Y-84859278D01*
X106183236Y-84857118D01*
X106168957Y-84853541D01*
X106155097Y-84848582D01*
X106141790Y-84842288D01*
X106129164Y-84834720D01*
X106117341Y-84825952D01*
X106106434Y-84816066D01*
X106096548Y-84805159D01*
X106087780Y-84793336D01*
X106080212Y-84780710D01*
X106073918Y-84767403D01*
X106068959Y-84753543D01*
X106065382Y-84739264D01*
X106063222Y-84724703D01*
X106062500Y-84710000D01*
X106062500Y-83060000D01*
X106063222Y-83045297D01*
X106065382Y-83030736D01*
X106068959Y-83016457D01*
X106073918Y-83002597D01*
X106080212Y-82989290D01*
X106087780Y-82976664D01*
X106096548Y-82964841D01*
X106106434Y-82953934D01*
X106117341Y-82944048D01*
X106129164Y-82935280D01*
X106141790Y-82927712D01*
X106155097Y-82921418D01*
X106168957Y-82916459D01*
X106183236Y-82912882D01*
X106197797Y-82910722D01*
X106212500Y-82910000D01*
X106512500Y-82910000D01*
X106527203Y-82910722D01*
X106527203Y-82910722D01*
G37*
D15*
X106362500Y-83885000D03*
D10*
G36*
X105257203Y-82910722D02*
G01*
X105271764Y-82912882D01*
X105286043Y-82916459D01*
X105299903Y-82921418D01*
X105313210Y-82927712D01*
X105325836Y-82935280D01*
X105337659Y-82944048D01*
X105348566Y-82953934D01*
X105358452Y-82964841D01*
X105367220Y-82976664D01*
X105374788Y-82989290D01*
X105381082Y-83002597D01*
X105386041Y-83016457D01*
X105389618Y-83030736D01*
X105391778Y-83045297D01*
X105392500Y-83060000D01*
X105392500Y-84710000D01*
X105391778Y-84724703D01*
X105389618Y-84739264D01*
X105386041Y-84753543D01*
X105381082Y-84767403D01*
X105374788Y-84780710D01*
X105367220Y-84793336D01*
X105358452Y-84805159D01*
X105348566Y-84816066D01*
X105337659Y-84825952D01*
X105325836Y-84834720D01*
X105313210Y-84842288D01*
X105299903Y-84848582D01*
X105286043Y-84853541D01*
X105271764Y-84857118D01*
X105257203Y-84859278D01*
X105242500Y-84860000D01*
X104942500Y-84860000D01*
X104927797Y-84859278D01*
X104913236Y-84857118D01*
X104898957Y-84853541D01*
X104885097Y-84848582D01*
X104871790Y-84842288D01*
X104859164Y-84834720D01*
X104847341Y-84825952D01*
X104836434Y-84816066D01*
X104826548Y-84805159D01*
X104817780Y-84793336D01*
X104810212Y-84780710D01*
X104803918Y-84767403D01*
X104798959Y-84753543D01*
X104795382Y-84739264D01*
X104793222Y-84724703D01*
X104792500Y-84710000D01*
X104792500Y-83060000D01*
X104793222Y-83045297D01*
X104795382Y-83030736D01*
X104798959Y-83016457D01*
X104803918Y-83002597D01*
X104810212Y-82989290D01*
X104817780Y-82976664D01*
X104826548Y-82964841D01*
X104836434Y-82953934D01*
X104847341Y-82944048D01*
X104859164Y-82935280D01*
X104871790Y-82927712D01*
X104885097Y-82921418D01*
X104898957Y-82916459D01*
X104913236Y-82912882D01*
X104927797Y-82910722D01*
X104942500Y-82910000D01*
X105242500Y-82910000D01*
X105257203Y-82910722D01*
X105257203Y-82910722D01*
G37*
D15*
X105092500Y-83885000D03*
D10*
G36*
X103987203Y-82910722D02*
G01*
X104001764Y-82912882D01*
X104016043Y-82916459D01*
X104029903Y-82921418D01*
X104043210Y-82927712D01*
X104055836Y-82935280D01*
X104067659Y-82944048D01*
X104078566Y-82953934D01*
X104088452Y-82964841D01*
X104097220Y-82976664D01*
X104104788Y-82989290D01*
X104111082Y-83002597D01*
X104116041Y-83016457D01*
X104119618Y-83030736D01*
X104121778Y-83045297D01*
X104122500Y-83060000D01*
X104122500Y-84710000D01*
X104121778Y-84724703D01*
X104119618Y-84739264D01*
X104116041Y-84753543D01*
X104111082Y-84767403D01*
X104104788Y-84780710D01*
X104097220Y-84793336D01*
X104088452Y-84805159D01*
X104078566Y-84816066D01*
X104067659Y-84825952D01*
X104055836Y-84834720D01*
X104043210Y-84842288D01*
X104029903Y-84848582D01*
X104016043Y-84853541D01*
X104001764Y-84857118D01*
X103987203Y-84859278D01*
X103972500Y-84860000D01*
X103672500Y-84860000D01*
X103657797Y-84859278D01*
X103643236Y-84857118D01*
X103628957Y-84853541D01*
X103615097Y-84848582D01*
X103601790Y-84842288D01*
X103589164Y-84834720D01*
X103577341Y-84825952D01*
X103566434Y-84816066D01*
X103556548Y-84805159D01*
X103547780Y-84793336D01*
X103540212Y-84780710D01*
X103533918Y-84767403D01*
X103528959Y-84753543D01*
X103525382Y-84739264D01*
X103523222Y-84724703D01*
X103522500Y-84710000D01*
X103522500Y-83060000D01*
X103523222Y-83045297D01*
X103525382Y-83030736D01*
X103528959Y-83016457D01*
X103533918Y-83002597D01*
X103540212Y-82989290D01*
X103547780Y-82976664D01*
X103556548Y-82964841D01*
X103566434Y-82953934D01*
X103577341Y-82944048D01*
X103589164Y-82935280D01*
X103601790Y-82927712D01*
X103615097Y-82921418D01*
X103628957Y-82916459D01*
X103643236Y-82912882D01*
X103657797Y-82910722D01*
X103672500Y-82910000D01*
X103972500Y-82910000D01*
X103987203Y-82910722D01*
X103987203Y-82910722D01*
G37*
D15*
X103822500Y-83885000D03*
D10*
G36*
X102717203Y-82910722D02*
G01*
X102731764Y-82912882D01*
X102746043Y-82916459D01*
X102759903Y-82921418D01*
X102773210Y-82927712D01*
X102785836Y-82935280D01*
X102797659Y-82944048D01*
X102808566Y-82953934D01*
X102818452Y-82964841D01*
X102827220Y-82976664D01*
X102834788Y-82989290D01*
X102841082Y-83002597D01*
X102846041Y-83016457D01*
X102849618Y-83030736D01*
X102851778Y-83045297D01*
X102852500Y-83060000D01*
X102852500Y-84710000D01*
X102851778Y-84724703D01*
X102849618Y-84739264D01*
X102846041Y-84753543D01*
X102841082Y-84767403D01*
X102834788Y-84780710D01*
X102827220Y-84793336D01*
X102818452Y-84805159D01*
X102808566Y-84816066D01*
X102797659Y-84825952D01*
X102785836Y-84834720D01*
X102773210Y-84842288D01*
X102759903Y-84848582D01*
X102746043Y-84853541D01*
X102731764Y-84857118D01*
X102717203Y-84859278D01*
X102702500Y-84860000D01*
X102402500Y-84860000D01*
X102387797Y-84859278D01*
X102373236Y-84857118D01*
X102358957Y-84853541D01*
X102345097Y-84848582D01*
X102331790Y-84842288D01*
X102319164Y-84834720D01*
X102307341Y-84825952D01*
X102296434Y-84816066D01*
X102286548Y-84805159D01*
X102277780Y-84793336D01*
X102270212Y-84780710D01*
X102263918Y-84767403D01*
X102258959Y-84753543D01*
X102255382Y-84739264D01*
X102253222Y-84724703D01*
X102252500Y-84710000D01*
X102252500Y-83060000D01*
X102253222Y-83045297D01*
X102255382Y-83030736D01*
X102258959Y-83016457D01*
X102263918Y-83002597D01*
X102270212Y-82989290D01*
X102277780Y-82976664D01*
X102286548Y-82964841D01*
X102296434Y-82953934D01*
X102307341Y-82944048D01*
X102319164Y-82935280D01*
X102331790Y-82927712D01*
X102345097Y-82921418D01*
X102358957Y-82916459D01*
X102373236Y-82912882D01*
X102387797Y-82910722D01*
X102402500Y-82910000D01*
X102702500Y-82910000D01*
X102717203Y-82910722D01*
X102717203Y-82910722D01*
G37*
D15*
X102552500Y-83885000D03*
D10*
G36*
X101447203Y-82910722D02*
G01*
X101461764Y-82912882D01*
X101476043Y-82916459D01*
X101489903Y-82921418D01*
X101503210Y-82927712D01*
X101515836Y-82935280D01*
X101527659Y-82944048D01*
X101538566Y-82953934D01*
X101548452Y-82964841D01*
X101557220Y-82976664D01*
X101564788Y-82989290D01*
X101571082Y-83002597D01*
X101576041Y-83016457D01*
X101579618Y-83030736D01*
X101581778Y-83045297D01*
X101582500Y-83060000D01*
X101582500Y-84710000D01*
X101581778Y-84724703D01*
X101579618Y-84739264D01*
X101576041Y-84753543D01*
X101571082Y-84767403D01*
X101564788Y-84780710D01*
X101557220Y-84793336D01*
X101548452Y-84805159D01*
X101538566Y-84816066D01*
X101527659Y-84825952D01*
X101515836Y-84834720D01*
X101503210Y-84842288D01*
X101489903Y-84848582D01*
X101476043Y-84853541D01*
X101461764Y-84857118D01*
X101447203Y-84859278D01*
X101432500Y-84860000D01*
X101132500Y-84860000D01*
X101117797Y-84859278D01*
X101103236Y-84857118D01*
X101088957Y-84853541D01*
X101075097Y-84848582D01*
X101061790Y-84842288D01*
X101049164Y-84834720D01*
X101037341Y-84825952D01*
X101026434Y-84816066D01*
X101016548Y-84805159D01*
X101007780Y-84793336D01*
X101000212Y-84780710D01*
X100993918Y-84767403D01*
X100988959Y-84753543D01*
X100985382Y-84739264D01*
X100983222Y-84724703D01*
X100982500Y-84710000D01*
X100982500Y-83060000D01*
X100983222Y-83045297D01*
X100985382Y-83030736D01*
X100988959Y-83016457D01*
X100993918Y-83002597D01*
X101000212Y-82989290D01*
X101007780Y-82976664D01*
X101016548Y-82964841D01*
X101026434Y-82953934D01*
X101037341Y-82944048D01*
X101049164Y-82935280D01*
X101061790Y-82927712D01*
X101075097Y-82921418D01*
X101088957Y-82916459D01*
X101103236Y-82912882D01*
X101117797Y-82910722D01*
X101132500Y-82910000D01*
X101432500Y-82910000D01*
X101447203Y-82910722D01*
X101447203Y-82910722D01*
G37*
D15*
X101282500Y-83885000D03*
D10*
G36*
X100177203Y-82910722D02*
G01*
X100191764Y-82912882D01*
X100206043Y-82916459D01*
X100219903Y-82921418D01*
X100233210Y-82927712D01*
X100245836Y-82935280D01*
X100257659Y-82944048D01*
X100268566Y-82953934D01*
X100278452Y-82964841D01*
X100287220Y-82976664D01*
X100294788Y-82989290D01*
X100301082Y-83002597D01*
X100306041Y-83016457D01*
X100309618Y-83030736D01*
X100311778Y-83045297D01*
X100312500Y-83060000D01*
X100312500Y-84710000D01*
X100311778Y-84724703D01*
X100309618Y-84739264D01*
X100306041Y-84753543D01*
X100301082Y-84767403D01*
X100294788Y-84780710D01*
X100287220Y-84793336D01*
X100278452Y-84805159D01*
X100268566Y-84816066D01*
X100257659Y-84825952D01*
X100245836Y-84834720D01*
X100233210Y-84842288D01*
X100219903Y-84848582D01*
X100206043Y-84853541D01*
X100191764Y-84857118D01*
X100177203Y-84859278D01*
X100162500Y-84860000D01*
X99862500Y-84860000D01*
X99847797Y-84859278D01*
X99833236Y-84857118D01*
X99818957Y-84853541D01*
X99805097Y-84848582D01*
X99791790Y-84842288D01*
X99779164Y-84834720D01*
X99767341Y-84825952D01*
X99756434Y-84816066D01*
X99746548Y-84805159D01*
X99737780Y-84793336D01*
X99730212Y-84780710D01*
X99723918Y-84767403D01*
X99718959Y-84753543D01*
X99715382Y-84739264D01*
X99713222Y-84724703D01*
X99712500Y-84710000D01*
X99712500Y-83060000D01*
X99713222Y-83045297D01*
X99715382Y-83030736D01*
X99718959Y-83016457D01*
X99723918Y-83002597D01*
X99730212Y-82989290D01*
X99737780Y-82976664D01*
X99746548Y-82964841D01*
X99756434Y-82953934D01*
X99767341Y-82944048D01*
X99779164Y-82935280D01*
X99791790Y-82927712D01*
X99805097Y-82921418D01*
X99818957Y-82916459D01*
X99833236Y-82912882D01*
X99847797Y-82910722D01*
X99862500Y-82910000D01*
X100162500Y-82910000D01*
X100177203Y-82910722D01*
X100177203Y-82910722D01*
G37*
D15*
X100012500Y-83885000D03*
D16*
X113538000Y-79756000D03*
D17*
X102489000Y-81153000D03*
D16*
X99822000Y-81153000D03*
X110807500Y-88900000D03*
X97472500Y-55880000D03*
X96774000Y-79756000D03*
D17*
X100647500Y-55880000D03*
X99695000Y-62547500D03*
X99695000Y-86995000D03*
X102235000Y-86042500D03*
D18*
X103759000Y-75039000D02*
X103650000Y-74930000D01*
X103759000Y-83660000D02*
X103759000Y-75039000D01*
X105029000Y-69977000D02*
X105029000Y-83660000D01*
X105156000Y-69850000D02*
X105029000Y-69977000D01*
X105156000Y-65532000D02*
X105156000Y-69850000D01*
X102879000Y-64770000D02*
X104394000Y-64770000D01*
X104394000Y-64770000D02*
X105156000Y-65532000D01*
X108458000Y-72145000D02*
X108458000Y-73152000D01*
X108458000Y-73152000D02*
X107950000Y-73660000D01*
X107950000Y-73660000D02*
X106426000Y-73660000D01*
X106299000Y-73787000D02*
X106299000Y-83660000D01*
X106426000Y-73660000D02*
X106299000Y-73787000D01*
X107569000Y-79883000D02*
X107569000Y-83660000D01*
X108458000Y-77225000D02*
X108458000Y-78994000D01*
X108458000Y-78994000D02*
X107569000Y-79883000D01*
X108839000Y-82410000D02*
X108839000Y-83660000D01*
X109452000Y-81797000D02*
X108839000Y-82410000D01*
X110998000Y-81797000D02*
X109452000Y-81797000D01*
X102888000Y-72390000D02*
X102888000Y-73388000D01*
D19*
X102888000Y-73388000D02*
X102616000Y-73660000D01*
X102616000Y-73660000D02*
X102616000Y-76200000D01*
D18*
X101219000Y-77597000D02*
X101219000Y-83660000D01*
X102616000Y-76200000D02*
X101219000Y-77597000D01*
X102489000Y-83660000D02*
X102489000Y-82410000D01*
X102489000Y-82410000D02*
X102489000Y-81153000D01*
X102489000Y-81153000D02*
X102489000Y-81153000D01*
X102489000Y-81153000D02*
X102489000Y-81153000D01*
X113792000Y-79502000D02*
X113538000Y-79756000D01*
X113792000Y-77733000D02*
X113792000Y-79502000D01*
D20*
X99822000Y-81153000D02*
X99949000Y-81153000D01*
D18*
X97790000Y-85017500D02*
X97790000Y-83820000D01*
X97790000Y-83820000D02*
X100012500Y-83820000D01*
D21*
X94510000Y-59690000D02*
X92710000Y-59690000D01*
X94996000Y-60176000D02*
X94510000Y-59690000D01*
X94996000Y-81026000D02*
X94996000Y-60176000D01*
X96393000Y-82423000D02*
X94996000Y-81026000D01*
X99949000Y-82423000D02*
X96393000Y-82423000D01*
D20*
X99949000Y-82423000D02*
X99949000Y-83660000D01*
X99949000Y-81153000D02*
X99949000Y-82423000D01*
X97472500Y-55880000D02*
X97472500Y-61023500D01*
X97472500Y-61023500D02*
X96266000Y-62230000D01*
X96266000Y-62230000D02*
X96266000Y-79502000D01*
X96266000Y-79502000D02*
X96266000Y-79502000D01*
X96520000Y-79756000D02*
X96266000Y-79502000D01*
X96774000Y-79756000D02*
X96520000Y-79756000D01*
D22*
X110742500Y-88835000D02*
X110807500Y-88900000D01*
D18*
X108902500Y-88835000D02*
X110742500Y-88835000D01*
X97790000Y-87067500D02*
X97790000Y-90914990D01*
X97790000Y-90914990D02*
X102552500Y-90914990D01*
X102552500Y-90914990D02*
X102552500Y-88835000D01*
X105092500Y-90805000D02*
X105092500Y-88835000D01*
X102552500Y-90914990D02*
X104982510Y-90914990D01*
X104982510Y-90914990D02*
X105092500Y-90805000D01*
X100647500Y-61595000D02*
X100647500Y-55880000D01*
X99695000Y-62547500D02*
X100647500Y-61595000D01*
X107569000Y-87810000D02*
X107569000Y-89060000D01*
X125730000Y-77470000D02*
X124380000Y-77470000D01*
X124380000Y-77470000D02*
X123825000Y-78025000D01*
X123825000Y-78025000D02*
X123825000Y-82867500D01*
X123825000Y-82867500D02*
X119380000Y-87312500D01*
X119380000Y-87312500D02*
X108066500Y-87312500D01*
X108066500Y-87312500D02*
X107569000Y-87810000D01*
X100012500Y-87312500D02*
X99695000Y-86995000D01*
X100012500Y-88835000D02*
X100012500Y-87312500D01*
X101315762Y-86042500D02*
X102235000Y-86042500D01*
X101282500Y-86075762D02*
X101315762Y-86042500D01*
X101282500Y-88835000D02*
X101282500Y-86075762D01*
X124142500Y-69850000D02*
X125730000Y-69850000D01*
X106299000Y-87376000D02*
X107315000Y-86360000D01*
X106299000Y-89060000D02*
X106299000Y-87376000D01*
X107315000Y-86360000D02*
X118745000Y-86360000D01*
X118745000Y-86360000D02*
X122872500Y-82232500D01*
X122872500Y-82232500D02*
X122872500Y-71120000D01*
X122872500Y-71120000D02*
X124142500Y-69850000D01*
X98298000Y-74930000D02*
X101600000Y-74930000D01*
X98298000Y-72390000D02*
X100838000Y-72390000D01*
X98298000Y-64770000D02*
X100829000Y-64770000D01*
X110998000Y-67310000D02*
X113030000Y-67310000D01*
X113792000Y-68072000D02*
X113792000Y-75683000D01*
X113030000Y-67310000D02*
X113792000Y-68072000D01*
X108703000Y-69850000D02*
X108458000Y-70095000D01*
X110998000Y-69850000D02*
X108703000Y-69850000D01*
X110753000Y-75175000D02*
X110998000Y-74930000D01*
X108458000Y-75175000D02*
X110753000Y-75175000D01*
X110998000Y-77470000D02*
X110998000Y-79747000D01*
M02*
