G04 #@! TF.GenerationSoftware,KiCad,Pcbnew,(5.1.4)-1*
G04 #@! TF.CreationDate,2020-01-25T22:58:36+03:00*
G04 #@! TF.ProjectId,LED,4c45442e-6b69-4636-9164-5f7063625858,rev?*
G04 #@! TF.SameCoordinates,Original*
G04 #@! TF.FileFunction,Legend,Top*
G04 #@! TF.FilePolarity,Positive*
%FSLAX46Y46*%
G04 Gerber Fmt 4.6, Leading zero omitted, Abs format (unit mm)*
G04 Created by KiCad (PCBNEW (5.1.4)-1) date 2020-01-25 22:58:36*
%MOMM*%
%LPD*%
G04 APERTURE LIST*
%ADD10C,0.150000*%
%ADD11C,0.120000*%
G04 APERTURE END LIST*
D10*
X114252761Y-53284380D02*
X114252761Y-52284380D01*
X114252761Y-52760571D02*
X114824190Y-52760571D01*
X114824190Y-53284380D02*
X114824190Y-52284380D01*
X115728952Y-53284380D02*
X115728952Y-52760571D01*
X115681333Y-52665333D01*
X115586095Y-52617714D01*
X115395619Y-52617714D01*
X115300380Y-52665333D01*
X115728952Y-53236761D02*
X115633714Y-53284380D01*
X115395619Y-53284380D01*
X115300380Y-53236761D01*
X115252761Y-53141523D01*
X115252761Y-53046285D01*
X115300380Y-52951047D01*
X115395619Y-52903428D01*
X115633714Y-52903428D01*
X115728952Y-52855809D01*
X116205142Y-53284380D02*
X116205142Y-52617714D01*
X116205142Y-52808190D02*
X116252761Y-52712952D01*
X116300380Y-52665333D01*
X116395619Y-52617714D01*
X116490857Y-52617714D01*
X117252761Y-53284380D02*
X117252761Y-52284380D01*
X117252761Y-53236761D02*
X117157523Y-53284380D01*
X116967047Y-53284380D01*
X116871809Y-53236761D01*
X116824190Y-53189142D01*
X116776571Y-53093904D01*
X116776571Y-52808190D01*
X116824190Y-52712952D01*
X116871809Y-52665333D01*
X116967047Y-52617714D01*
X117157523Y-52617714D01*
X117252761Y-52665333D01*
X118157523Y-52617714D02*
X118157523Y-53284380D01*
X117728952Y-52617714D02*
X117728952Y-53141523D01*
X117776571Y-53236761D01*
X117871809Y-53284380D01*
X118014666Y-53284380D01*
X118109904Y-53236761D01*
X118157523Y-53189142D01*
X118633714Y-53284380D02*
X118633714Y-52617714D01*
X118633714Y-52284380D02*
X118586095Y-52332000D01*
X118633714Y-52379619D01*
X118681333Y-52332000D01*
X118633714Y-52284380D01*
X118633714Y-52379619D01*
X119109904Y-52617714D02*
X119109904Y-53284380D01*
X119109904Y-52712952D02*
X119157523Y-52665333D01*
X119252761Y-52617714D01*
X119395619Y-52617714D01*
X119490857Y-52665333D01*
X119538476Y-52760571D01*
X119538476Y-53284380D01*
X120157523Y-53284380D02*
X120062285Y-53236761D01*
X120014666Y-53189142D01*
X119967047Y-53093904D01*
X119967047Y-52808190D01*
X120014666Y-52712952D01*
X120062285Y-52665333D01*
X120157523Y-52617714D01*
X120300380Y-52617714D01*
X120395619Y-52665333D01*
X120443238Y-52712952D01*
X120490857Y-52808190D01*
X120490857Y-53093904D01*
X120443238Y-53189142D01*
X120395619Y-53236761D01*
X120300380Y-53284380D01*
X120157523Y-53284380D01*
X89527142Y-82050000D02*
X89431904Y-82002380D01*
X89289047Y-82002380D01*
X89146190Y-82050000D01*
X89050952Y-82145238D01*
X89003333Y-82240476D01*
X88955714Y-82430952D01*
X88955714Y-82573809D01*
X89003333Y-82764285D01*
X89050952Y-82859523D01*
X89146190Y-82954761D01*
X89289047Y-83002380D01*
X89384285Y-83002380D01*
X89527142Y-82954761D01*
X89574761Y-82907142D01*
X89574761Y-82573809D01*
X89384285Y-82573809D01*
X90003333Y-82335714D02*
X90003333Y-83002380D01*
X90003333Y-82430952D02*
X90050952Y-82383333D01*
X90146190Y-82335714D01*
X90289047Y-82335714D01*
X90384285Y-82383333D01*
X90431904Y-82478571D01*
X90431904Y-83002380D01*
X91336666Y-83002380D02*
X91336666Y-82002380D01*
X91336666Y-82954761D02*
X91241428Y-83002380D01*
X91050952Y-83002380D01*
X90955714Y-82954761D01*
X90908095Y-82907142D01*
X90860476Y-82811904D01*
X90860476Y-82526190D01*
X90908095Y-82430952D01*
X90955714Y-82383333D01*
X91050952Y-82335714D01*
X91241428Y-82335714D01*
X91336666Y-82383333D01*
X89455714Y-80176666D02*
X89931904Y-80176666D01*
X89360476Y-80462380D02*
X89693809Y-79462380D01*
X90027142Y-80462380D01*
X90836666Y-79462380D02*
X90360476Y-79462380D01*
X90312857Y-79938571D01*
X90360476Y-79890952D01*
X90455714Y-79843333D01*
X90693809Y-79843333D01*
X90789047Y-79890952D01*
X90836666Y-79938571D01*
X90884285Y-80033809D01*
X90884285Y-80271904D01*
X90836666Y-80367142D01*
X90789047Y-80414761D01*
X90693809Y-80462380D01*
X90455714Y-80462380D01*
X90360476Y-80414761D01*
X90312857Y-80367142D01*
X89455714Y-77636666D02*
X89931904Y-77636666D01*
X89360476Y-77922380D02*
X89693809Y-76922380D01*
X90027142Y-77922380D01*
X90789047Y-77255714D02*
X90789047Y-77922380D01*
X90550952Y-76874761D02*
X90312857Y-77589047D01*
X90931904Y-77589047D01*
X89455714Y-75096666D02*
X89931904Y-75096666D01*
X89360476Y-75382380D02*
X89693809Y-74382380D01*
X90027142Y-75382380D01*
X90265238Y-74382380D02*
X90884285Y-74382380D01*
X90550952Y-74763333D01*
X90693809Y-74763333D01*
X90789047Y-74810952D01*
X90836666Y-74858571D01*
X90884285Y-74953809D01*
X90884285Y-75191904D01*
X90836666Y-75287142D01*
X90789047Y-75334761D01*
X90693809Y-75382380D01*
X90408095Y-75382380D01*
X90312857Y-75334761D01*
X90265238Y-75287142D01*
X89455714Y-72556666D02*
X89931904Y-72556666D01*
X89360476Y-72842380D02*
X89693809Y-71842380D01*
X90027142Y-72842380D01*
X90312857Y-71937619D02*
X90360476Y-71890000D01*
X90455714Y-71842380D01*
X90693809Y-71842380D01*
X90789047Y-71890000D01*
X90836666Y-71937619D01*
X90884285Y-72032857D01*
X90884285Y-72128095D01*
X90836666Y-72270952D01*
X90265238Y-72842380D01*
X90884285Y-72842380D01*
X89455714Y-70016666D02*
X89931904Y-70016666D01*
X89360476Y-70302380D02*
X89693809Y-69302380D01*
X90027142Y-70302380D01*
X90884285Y-70302380D02*
X90312857Y-70302380D01*
X90598571Y-70302380D02*
X90598571Y-69302380D01*
X90503333Y-69445238D01*
X90408095Y-69540476D01*
X90312857Y-69588095D01*
X89455714Y-67476666D02*
X89931904Y-67476666D01*
X89360476Y-67762380D02*
X89693809Y-66762380D01*
X90027142Y-67762380D01*
X90550952Y-66762380D02*
X90646190Y-66762380D01*
X90741428Y-66810000D01*
X90789047Y-66857619D01*
X90836666Y-66952857D01*
X90884285Y-67143333D01*
X90884285Y-67381428D01*
X90836666Y-67571904D01*
X90789047Y-67667142D01*
X90741428Y-67714761D01*
X90646190Y-67762380D01*
X90550952Y-67762380D01*
X90455714Y-67714761D01*
X90408095Y-67667142D01*
X90360476Y-67571904D01*
X90312857Y-67381428D01*
X90312857Y-67143333D01*
X90360476Y-66952857D01*
X90408095Y-66857619D01*
X90455714Y-66810000D01*
X90550952Y-66762380D01*
X88979523Y-59142380D02*
X89312857Y-60142380D01*
X89646190Y-59142380D01*
X90408095Y-60094761D02*
X90312857Y-60142380D01*
X90122380Y-60142380D01*
X90027142Y-60094761D01*
X89979523Y-60047142D01*
X89931904Y-59951904D01*
X89931904Y-59666190D01*
X89979523Y-59570952D01*
X90027142Y-59523333D01*
X90122380Y-59475714D01*
X90312857Y-59475714D01*
X90408095Y-59523333D01*
X91265238Y-60094761D02*
X91170000Y-60142380D01*
X90979523Y-60142380D01*
X90884285Y-60094761D01*
X90836666Y-60047142D01*
X90789047Y-59951904D01*
X90789047Y-59666190D01*
X90836666Y-59570952D01*
X90884285Y-59523333D01*
X90979523Y-59475714D01*
X91170000Y-59475714D01*
X91265238Y-59523333D01*
X89979523Y-65222380D02*
X89408095Y-65222380D01*
X89693809Y-65222380D02*
X89693809Y-64222380D01*
X89598571Y-64365238D01*
X89503333Y-64460476D01*
X89408095Y-64508095D01*
X90312857Y-64222380D02*
X90931904Y-64222380D01*
X90598571Y-64603333D01*
X90741428Y-64603333D01*
X90836666Y-64650952D01*
X90884285Y-64698571D01*
X90931904Y-64793809D01*
X90931904Y-65031904D01*
X90884285Y-65127142D01*
X90836666Y-65174761D01*
X90741428Y-65222380D01*
X90455714Y-65222380D01*
X90360476Y-65174761D01*
X90312857Y-65127142D01*
X89979523Y-62682380D02*
X89408095Y-62682380D01*
X89693809Y-62682380D02*
X89693809Y-61682380D01*
X89598571Y-61825238D01*
X89503333Y-61920476D01*
X89408095Y-61968095D01*
X90360476Y-61777619D02*
X90408095Y-61730000D01*
X90503333Y-61682380D01*
X90741428Y-61682380D01*
X90836666Y-61730000D01*
X90884285Y-61777619D01*
X90931904Y-61872857D01*
X90931904Y-61968095D01*
X90884285Y-62110952D01*
X90312857Y-62682380D01*
X90931904Y-62682380D01*
X128079523Y-60142380D02*
X127508095Y-60142380D01*
X127793809Y-60142380D02*
X127793809Y-59142380D01*
X127698571Y-59285238D01*
X127603333Y-59380476D01*
X127508095Y-59428095D01*
X129031904Y-60142380D02*
X128460476Y-60142380D01*
X128746190Y-60142380D02*
X128746190Y-59142380D01*
X128650952Y-59285238D01*
X128555714Y-59380476D01*
X128460476Y-59428095D01*
X128079523Y-62682380D02*
X127508095Y-62682380D01*
X127793809Y-62682380D02*
X127793809Y-61682380D01*
X127698571Y-61825238D01*
X127603333Y-61920476D01*
X127508095Y-61968095D01*
X128698571Y-61682380D02*
X128793809Y-61682380D01*
X128889047Y-61730000D01*
X128936666Y-61777619D01*
X128984285Y-61872857D01*
X129031904Y-62063333D01*
X129031904Y-62301428D01*
X128984285Y-62491904D01*
X128936666Y-62587142D01*
X128889047Y-62634761D01*
X128793809Y-62682380D01*
X128698571Y-62682380D01*
X128603333Y-62634761D01*
X128555714Y-62587142D01*
X128508095Y-62491904D01*
X128460476Y-62301428D01*
X128460476Y-62063333D01*
X128508095Y-61872857D01*
X128555714Y-61777619D01*
X128603333Y-61730000D01*
X128698571Y-61682380D01*
X128079523Y-65222380D02*
X128270000Y-65222380D01*
X128365238Y-65174761D01*
X128412857Y-65127142D01*
X128508095Y-64984285D01*
X128555714Y-64793809D01*
X128555714Y-64412857D01*
X128508095Y-64317619D01*
X128460476Y-64270000D01*
X128365238Y-64222380D01*
X128174761Y-64222380D01*
X128079523Y-64270000D01*
X128031904Y-64317619D01*
X127984285Y-64412857D01*
X127984285Y-64650952D01*
X128031904Y-64746190D01*
X128079523Y-64793809D01*
X128174761Y-64841428D01*
X128365238Y-64841428D01*
X128460476Y-64793809D01*
X128508095Y-64746190D01*
X128555714Y-64650952D01*
X128174761Y-67190952D02*
X128079523Y-67143333D01*
X128031904Y-67095714D01*
X127984285Y-67000476D01*
X127984285Y-66952857D01*
X128031904Y-66857619D01*
X128079523Y-66810000D01*
X128174761Y-66762380D01*
X128365238Y-66762380D01*
X128460476Y-66810000D01*
X128508095Y-66857619D01*
X128555714Y-66952857D01*
X128555714Y-67000476D01*
X128508095Y-67095714D01*
X128460476Y-67143333D01*
X128365238Y-67190952D01*
X128174761Y-67190952D01*
X128079523Y-67238571D01*
X128031904Y-67286190D01*
X127984285Y-67381428D01*
X127984285Y-67571904D01*
X128031904Y-67667142D01*
X128079523Y-67714761D01*
X128174761Y-67762380D01*
X128365238Y-67762380D01*
X128460476Y-67714761D01*
X128508095Y-67667142D01*
X128555714Y-67571904D01*
X128555714Y-67381428D01*
X128508095Y-67286190D01*
X128460476Y-67238571D01*
X128365238Y-67190952D01*
X127936666Y-69302380D02*
X128603333Y-69302380D01*
X128174761Y-70302380D01*
X128460476Y-71842380D02*
X128270000Y-71842380D01*
X128174761Y-71890000D01*
X128127142Y-71937619D01*
X128031904Y-72080476D01*
X127984285Y-72270952D01*
X127984285Y-72651904D01*
X128031904Y-72747142D01*
X128079523Y-72794761D01*
X128174761Y-72842380D01*
X128365238Y-72842380D01*
X128460476Y-72794761D01*
X128508095Y-72747142D01*
X128555714Y-72651904D01*
X128555714Y-72413809D01*
X128508095Y-72318571D01*
X128460476Y-72270952D01*
X128365238Y-72223333D01*
X128174761Y-72223333D01*
X128079523Y-72270952D01*
X128031904Y-72318571D01*
X127984285Y-72413809D01*
X128508095Y-74382380D02*
X128031904Y-74382380D01*
X127984285Y-74858571D01*
X128031904Y-74810952D01*
X128127142Y-74763333D01*
X128365238Y-74763333D01*
X128460476Y-74810952D01*
X128508095Y-74858571D01*
X128555714Y-74953809D01*
X128555714Y-75191904D01*
X128508095Y-75287142D01*
X128460476Y-75334761D01*
X128365238Y-75382380D01*
X128127142Y-75382380D01*
X128031904Y-75334761D01*
X127984285Y-75287142D01*
X128460476Y-77255714D02*
X128460476Y-77922380D01*
X128222380Y-76874761D02*
X127984285Y-77589047D01*
X128603333Y-77589047D01*
X127936666Y-79462380D02*
X128555714Y-79462380D01*
X128222380Y-79843333D01*
X128365238Y-79843333D01*
X128460476Y-79890952D01*
X128508095Y-79938571D01*
X128555714Y-80033809D01*
X128555714Y-80271904D01*
X128508095Y-80367142D01*
X128460476Y-80414761D01*
X128365238Y-80462380D01*
X128079523Y-80462380D01*
X127984285Y-80414761D01*
X127936666Y-80367142D01*
X127984285Y-82097619D02*
X128031904Y-82050000D01*
X128127142Y-82002380D01*
X128365238Y-82002380D01*
X128460476Y-82050000D01*
X128508095Y-82097619D01*
X128555714Y-82192857D01*
X128555714Y-82288095D01*
X128508095Y-82430952D01*
X127936666Y-83002380D01*
X128555714Y-83002380D01*
X127000000Y-50800000D02*
G75*
G02X129540000Y-53340000I0J-2540000D01*
G01*
X129540000Y-88900000D02*
G75*
G02X127000000Y-91440000I-2540000J0D01*
G01*
X91440000Y-91440000D02*
G75*
G02X88900000Y-88900000I0J2540000D01*
G01*
X88900000Y-53340000D02*
G75*
G02X91440000Y-50800000I2540000J0D01*
G01*
X88900000Y-88900000D02*
X88900000Y-53340000D01*
X127000000Y-91440000D02*
X91440000Y-91440000D01*
X129540000Y-53340000D02*
X129540000Y-88900000D01*
X91440000Y-50800000D02*
X127000000Y-50800000D01*
X96647000Y-90932000D02*
X96647000Y-50927000D01*
X96647000Y-50927000D02*
X112522000Y-50927000D01*
X112522000Y-50927000D02*
X112522000Y-90932000D01*
X112522000Y-90932000D02*
X96647000Y-90932000D01*
D11*
X112828000Y-76446748D02*
X112828000Y-76969252D01*
X114248000Y-76446748D02*
X114248000Y-76969252D01*
X124400000Y-81220000D02*
X125730000Y-81220000D01*
X124400000Y-82550000D02*
X124400000Y-81220000D01*
X124400000Y-83820000D02*
X127060000Y-83820000D01*
X127060000Y-83820000D02*
X127060000Y-83880000D01*
X124400000Y-83820000D02*
X124400000Y-83880000D01*
X124400000Y-83880000D02*
X127060000Y-83880000D01*
X124400000Y-81340000D02*
X127060000Y-81340000D01*
X124400000Y-81280000D02*
X124400000Y-81340000D01*
X127060000Y-81280000D02*
X127060000Y-81340000D01*
X124400000Y-81280000D02*
X127060000Y-81280000D01*
X124400000Y-80010000D02*
X124400000Y-78680000D01*
X124400000Y-78680000D02*
X125730000Y-78680000D01*
X124400000Y-76140000D02*
X125730000Y-76140000D01*
X124400000Y-77470000D02*
X124400000Y-76140000D01*
X124400000Y-78740000D02*
X127060000Y-78740000D01*
X127060000Y-78740000D02*
X127060000Y-78800000D01*
X124400000Y-78740000D02*
X124400000Y-78800000D01*
X124400000Y-78800000D02*
X127060000Y-78800000D01*
X124400000Y-76260000D02*
X127060000Y-76260000D01*
X124400000Y-76200000D02*
X124400000Y-76260000D01*
X127060000Y-76200000D02*
X127060000Y-76260000D01*
X124400000Y-76200000D02*
X127060000Y-76200000D01*
X124400000Y-74930000D02*
X124400000Y-73600000D01*
X124400000Y-73600000D02*
X125730000Y-73600000D01*
X124400000Y-71060000D02*
X125730000Y-71060000D01*
X124400000Y-72390000D02*
X124400000Y-71060000D01*
X124400000Y-73660000D02*
X127060000Y-73660000D01*
X127060000Y-73660000D02*
X127060000Y-73720000D01*
X124400000Y-73660000D02*
X124400000Y-73720000D01*
X124400000Y-73720000D02*
X127060000Y-73720000D01*
X124400000Y-71180000D02*
X127060000Y-71180000D01*
X124400000Y-71120000D02*
X124400000Y-71180000D01*
X127060000Y-71120000D02*
X127060000Y-71180000D01*
X124400000Y-71120000D02*
X127060000Y-71120000D01*
X124400000Y-69850000D02*
X124400000Y-68520000D01*
X124400000Y-68520000D02*
X125730000Y-68520000D01*
X124400000Y-65980000D02*
X125730000Y-65980000D01*
X124400000Y-67310000D02*
X124400000Y-65980000D01*
X124400000Y-68580000D02*
X127060000Y-68580000D01*
X127060000Y-68580000D02*
X127060000Y-68640000D01*
X124400000Y-68580000D02*
X124400000Y-68640000D01*
X124400000Y-68640000D02*
X127060000Y-68640000D01*
X124400000Y-66100000D02*
X127060000Y-66100000D01*
X124400000Y-66040000D02*
X124400000Y-66100000D01*
X127060000Y-66040000D02*
X127060000Y-66100000D01*
X124400000Y-66040000D02*
X127060000Y-66040000D01*
X124400000Y-64770000D02*
X124400000Y-63440000D01*
X124400000Y-63440000D02*
X125730000Y-63440000D01*
X124400000Y-60900000D02*
X125730000Y-60900000D01*
X124400000Y-62230000D02*
X124400000Y-60900000D01*
X124400000Y-63500000D02*
X127060000Y-63500000D01*
X127060000Y-63500000D02*
X127060000Y-63560000D01*
X124400000Y-63500000D02*
X124400000Y-63560000D01*
X124400000Y-63560000D02*
X127060000Y-63560000D01*
X124400000Y-61020000D02*
X127060000Y-61020000D01*
X124400000Y-60960000D02*
X124400000Y-61020000D01*
X127060000Y-60960000D02*
X127060000Y-61020000D01*
X124400000Y-60960000D02*
X127060000Y-60960000D01*
X124400000Y-59690000D02*
X124400000Y-58360000D01*
X124400000Y-58360000D02*
X125730000Y-58360000D01*
X91380000Y-60900000D02*
X92710000Y-60900000D01*
X91380000Y-62230000D02*
X91380000Y-60900000D01*
X91380000Y-63500000D02*
X94040000Y-63500000D01*
X94040000Y-63500000D02*
X94040000Y-63560000D01*
X91380000Y-63500000D02*
X91380000Y-63560000D01*
X91380000Y-63560000D02*
X94040000Y-63560000D01*
X91380000Y-66100000D02*
X94040000Y-66100000D01*
X91380000Y-66040000D02*
X91380000Y-66100000D01*
X94040000Y-66040000D02*
X94040000Y-66100000D01*
X91380000Y-66040000D02*
X94040000Y-66040000D01*
X91380000Y-64770000D02*
X91380000Y-63440000D01*
X91380000Y-63440000D02*
X92710000Y-63440000D01*
X91380000Y-68640000D02*
X94040000Y-68640000D01*
X91380000Y-68580000D02*
X91380000Y-68640000D01*
X94040000Y-68580000D02*
X94040000Y-68640000D01*
X91380000Y-68580000D02*
X94040000Y-68580000D01*
X91380000Y-67310000D02*
X91380000Y-65980000D01*
X91380000Y-65980000D02*
X92710000Y-65980000D01*
X91380000Y-68520000D02*
X92710000Y-68520000D01*
X91380000Y-69850000D02*
X91380000Y-68520000D01*
X91380000Y-71120000D02*
X94040000Y-71120000D01*
X94040000Y-71120000D02*
X94040000Y-71180000D01*
X91380000Y-71120000D02*
X91380000Y-71180000D01*
X91380000Y-71180000D02*
X94040000Y-71180000D01*
X91380000Y-73720000D02*
X94040000Y-73720000D01*
X91380000Y-73660000D02*
X91380000Y-73720000D01*
X94040000Y-73660000D02*
X94040000Y-73720000D01*
X91380000Y-73660000D02*
X94040000Y-73660000D01*
X91380000Y-72390000D02*
X91380000Y-71060000D01*
X91380000Y-71060000D02*
X92710000Y-71060000D01*
X91380000Y-73600000D02*
X92710000Y-73600000D01*
X91380000Y-74930000D02*
X91380000Y-73600000D01*
X91380000Y-76200000D02*
X94040000Y-76200000D01*
X94040000Y-76200000D02*
X94040000Y-76260000D01*
X91380000Y-76200000D02*
X91380000Y-76260000D01*
X91380000Y-76260000D02*
X94040000Y-76260000D01*
X91380000Y-78800000D02*
X94040000Y-78800000D01*
X91380000Y-78740000D02*
X91380000Y-78800000D01*
X94040000Y-78740000D02*
X94040000Y-78800000D01*
X91380000Y-78740000D02*
X94040000Y-78740000D01*
X91380000Y-77470000D02*
X91380000Y-76140000D01*
X91380000Y-76140000D02*
X92710000Y-76140000D01*
X91380000Y-78680000D02*
X92710000Y-78680000D01*
X91380000Y-80010000D02*
X91380000Y-78680000D01*
X91380000Y-81280000D02*
X94040000Y-81280000D01*
X94040000Y-81280000D02*
X94040000Y-81340000D01*
X91380000Y-81280000D02*
X91380000Y-81340000D01*
X91380000Y-81340000D02*
X94040000Y-81340000D01*
X91380000Y-61020000D02*
X94040000Y-61020000D01*
X91380000Y-60960000D02*
X91380000Y-61020000D01*
X94040000Y-60960000D02*
X94040000Y-61020000D01*
X91380000Y-60960000D02*
X94040000Y-60960000D01*
X91380000Y-59690000D02*
X91380000Y-58360000D01*
X91380000Y-58360000D02*
X92710000Y-58360000D01*
X91380000Y-81220000D02*
X92710000Y-81220000D01*
X91380000Y-82550000D02*
X91380000Y-81220000D01*
X91380000Y-83820000D02*
X94040000Y-83820000D01*
X94040000Y-83820000D02*
X94040000Y-83880000D01*
X91380000Y-83820000D02*
X91380000Y-83880000D01*
X91380000Y-83880000D02*
X94040000Y-83880000D01*
X121578000Y-79010000D02*
X121578000Y-74510000D01*
X117578000Y-80260000D02*
X119078000Y-80260000D01*
X115078000Y-74510000D02*
X115078000Y-79010000D01*
X119078000Y-73260000D02*
X117578000Y-73260000D01*
X119078000Y-62084000D02*
X117578000Y-62084000D01*
X115078000Y-63334000D02*
X115078000Y-67834000D01*
X117578000Y-69084000D02*
X119078000Y-69084000D01*
X121578000Y-67834000D02*
X121578000Y-63334000D01*
X102363748Y-75640000D02*
X102886252Y-75640000D01*
X102363748Y-74220000D02*
X102886252Y-74220000D01*
X101592748Y-64060000D02*
X102115252Y-64060000D01*
X101592748Y-65480000D02*
X102115252Y-65480000D01*
X107748000Y-70858748D02*
X107748000Y-71381252D01*
X109168000Y-70858748D02*
X109168000Y-71381252D01*
X109168000Y-75938748D02*
X109168000Y-76461252D01*
X107748000Y-75938748D02*
X107748000Y-76461252D01*
X110288000Y-80510748D02*
X110288000Y-81033252D01*
X111708000Y-80510748D02*
X111708000Y-81033252D01*
X101601748Y-71680000D02*
X102124252Y-71680000D01*
X101601748Y-73100000D02*
X102124252Y-73100000D01*
X97080000Y-86303752D02*
X97080000Y-85781248D01*
X98500000Y-86303752D02*
X98500000Y-85781248D01*
X109517500Y-86360000D02*
X109517500Y-84410000D01*
X109517500Y-86360000D02*
X109517500Y-88310000D01*
X99397500Y-86360000D02*
X99397500Y-84410000D01*
X99397500Y-86360000D02*
X99397500Y-89810000D01*
D10*
X105735380Y-69111666D02*
X104735380Y-69111666D01*
X105211571Y-69111666D02*
X105211571Y-68540238D01*
X105735380Y-68540238D02*
X104735380Y-68540238D01*
X105735380Y-67587857D02*
X105735380Y-68064047D01*
X104735380Y-68064047D01*
X105735380Y-66730714D02*
X105735380Y-67302142D01*
X105735380Y-67016428D02*
X104735380Y-67016428D01*
X104878238Y-67111666D01*
X104973476Y-67206904D01*
X105021095Y-67302142D01*
X113990380Y-73572666D02*
X113514190Y-73906000D01*
X113990380Y-74144095D02*
X112990380Y-74144095D01*
X112990380Y-73763142D01*
X113038000Y-73667904D01*
X113085619Y-73620285D01*
X113180857Y-73572666D01*
X113323714Y-73572666D01*
X113418952Y-73620285D01*
X113466571Y-73667904D01*
X113514190Y-73763142D01*
X113514190Y-74144095D01*
X112990380Y-73239333D02*
X112990380Y-72572666D01*
X113990380Y-73001238D01*
X119070380Y-83415095D02*
X118070380Y-83415095D01*
X118070380Y-83177000D01*
X118118000Y-83034142D01*
X118213238Y-82938904D01*
X118308476Y-82891285D01*
X118498952Y-82843666D01*
X118641809Y-82843666D01*
X118832285Y-82891285D01*
X118927523Y-82938904D01*
X119022761Y-83034142D01*
X119070380Y-83177000D01*
X119070380Y-83415095D01*
X118403714Y-81986523D02*
X119070380Y-81986523D01*
X118022761Y-82224619D02*
X118737047Y-82462714D01*
X118737047Y-81843666D01*
X119070380Y-60555095D02*
X118070380Y-60555095D01*
X118070380Y-60317000D01*
X118118000Y-60174142D01*
X118213238Y-60078904D01*
X118308476Y-60031285D01*
X118498952Y-59983666D01*
X118641809Y-59983666D01*
X118832285Y-60031285D01*
X118927523Y-60078904D01*
X119022761Y-60174142D01*
X119070380Y-60317000D01*
X119070380Y-60555095D01*
X118070380Y-59078904D02*
X118070380Y-59555095D01*
X118546571Y-59602714D01*
X118498952Y-59555095D01*
X118451333Y-59459857D01*
X118451333Y-59221761D01*
X118498952Y-59126523D01*
X118546571Y-59078904D01*
X118641809Y-59031285D01*
X118879904Y-59031285D01*
X118975142Y-59078904D01*
X119022761Y-59126523D01*
X119070380Y-59221761D01*
X119070380Y-59459857D01*
X119022761Y-59555095D01*
X118975142Y-59602714D01*
X102322333Y-77033380D02*
X101989000Y-76557190D01*
X101750904Y-77033380D02*
X101750904Y-76033380D01*
X102131857Y-76033380D01*
X102227095Y-76081000D01*
X102274714Y-76128619D01*
X102322333Y-76223857D01*
X102322333Y-76366714D01*
X102274714Y-76461952D01*
X102227095Y-76509571D01*
X102131857Y-76557190D01*
X101750904Y-76557190D01*
X103274714Y-77033380D02*
X102703285Y-77033380D01*
X102989000Y-77033380D02*
X102989000Y-76033380D01*
X102893761Y-76176238D01*
X102798523Y-76271476D01*
X102703285Y-76319095D01*
X101687333Y-63572380D02*
X101354000Y-63096190D01*
X101115904Y-63572380D02*
X101115904Y-62572380D01*
X101496857Y-62572380D01*
X101592095Y-62620000D01*
X101639714Y-62667619D01*
X101687333Y-62762857D01*
X101687333Y-62905714D01*
X101639714Y-63000952D01*
X101592095Y-63048571D01*
X101496857Y-63096190D01*
X101115904Y-63096190D01*
X102068285Y-62667619D02*
X102115904Y-62620000D01*
X102211142Y-62572380D01*
X102449238Y-62572380D01*
X102544476Y-62620000D01*
X102592095Y-62667619D01*
X102639714Y-62762857D01*
X102639714Y-62858095D01*
X102592095Y-63000952D01*
X102020666Y-63572380D01*
X102639714Y-63572380D01*
X107132380Y-71921666D02*
X106656190Y-72255000D01*
X107132380Y-72493095D02*
X106132380Y-72493095D01*
X106132380Y-72112142D01*
X106180000Y-72016904D01*
X106227619Y-71969285D01*
X106322857Y-71921666D01*
X106465714Y-71921666D01*
X106560952Y-71969285D01*
X106608571Y-72016904D01*
X106656190Y-72112142D01*
X106656190Y-72493095D01*
X106132380Y-71588333D02*
X106132380Y-70969285D01*
X106513333Y-71302619D01*
X106513333Y-71159761D01*
X106560952Y-71064523D01*
X106608571Y-71016904D01*
X106703809Y-70969285D01*
X106941904Y-70969285D01*
X107037142Y-71016904D01*
X107084761Y-71064523D01*
X107132380Y-71159761D01*
X107132380Y-71445476D01*
X107084761Y-71540714D01*
X107037142Y-71588333D01*
X107132380Y-77509666D02*
X106656190Y-77843000D01*
X107132380Y-78081095D02*
X106132380Y-78081095D01*
X106132380Y-77700142D01*
X106180000Y-77604904D01*
X106227619Y-77557285D01*
X106322857Y-77509666D01*
X106465714Y-77509666D01*
X106560952Y-77557285D01*
X106608571Y-77604904D01*
X106656190Y-77700142D01*
X106656190Y-78081095D01*
X106465714Y-76652523D02*
X107132380Y-76652523D01*
X106084761Y-76890619D02*
X106799047Y-77128714D01*
X106799047Y-76509666D01*
X109799380Y-80938666D02*
X109323190Y-81272000D01*
X109799380Y-81510095D02*
X108799380Y-81510095D01*
X108799380Y-81129142D01*
X108847000Y-81033904D01*
X108894619Y-80986285D01*
X108989857Y-80938666D01*
X109132714Y-80938666D01*
X109227952Y-80986285D01*
X109275571Y-81033904D01*
X109323190Y-81129142D01*
X109323190Y-81510095D01*
X108799380Y-80033904D02*
X108799380Y-80510095D01*
X109275571Y-80557714D01*
X109227952Y-80510095D01*
X109180333Y-80414857D01*
X109180333Y-80176761D01*
X109227952Y-80081523D01*
X109275571Y-80033904D01*
X109370809Y-79986285D01*
X109608904Y-79986285D01*
X109704142Y-80033904D01*
X109751761Y-80081523D01*
X109799380Y-80176761D01*
X109799380Y-80414857D01*
X109751761Y-80510095D01*
X109704142Y-80557714D01*
X101696333Y-71192380D02*
X101363000Y-70716190D01*
X101124904Y-71192380D02*
X101124904Y-70192380D01*
X101505857Y-70192380D01*
X101601095Y-70240000D01*
X101648714Y-70287619D01*
X101696333Y-70382857D01*
X101696333Y-70525714D01*
X101648714Y-70620952D01*
X101601095Y-70668571D01*
X101505857Y-70716190D01*
X101124904Y-70716190D01*
X102553476Y-70192380D02*
X102363000Y-70192380D01*
X102267761Y-70240000D01*
X102220142Y-70287619D01*
X102124904Y-70430476D01*
X102077285Y-70620952D01*
X102077285Y-71001904D01*
X102124904Y-71097142D01*
X102172523Y-71144761D01*
X102267761Y-71192380D01*
X102458238Y-71192380D01*
X102553476Y-71144761D01*
X102601095Y-71097142D01*
X102648714Y-71001904D01*
X102648714Y-70763809D01*
X102601095Y-70668571D01*
X102553476Y-70620952D01*
X102458238Y-70573333D01*
X102267761Y-70573333D01*
X102172523Y-70620952D01*
X102124904Y-70668571D01*
X102077285Y-70763809D01*
X98750380Y-90050857D02*
X98274190Y-90384190D01*
X98750380Y-90622285D02*
X97750380Y-90622285D01*
X97750380Y-90241333D01*
X97798000Y-90146095D01*
X97845619Y-90098476D01*
X97940857Y-90050857D01*
X98083714Y-90050857D01*
X98178952Y-90098476D01*
X98226571Y-90146095D01*
X98274190Y-90241333D01*
X98274190Y-90622285D01*
X98750380Y-89098476D02*
X98750380Y-89669904D01*
X98750380Y-89384190D02*
X97750380Y-89384190D01*
X97893238Y-89479428D01*
X97988476Y-89574666D01*
X98036095Y-89669904D01*
X97750380Y-88765142D02*
X97750380Y-88146095D01*
X98131333Y-88479428D01*
X98131333Y-88336571D01*
X98178952Y-88241333D01*
X98226571Y-88193714D01*
X98321809Y-88146095D01*
X98559904Y-88146095D01*
X98655142Y-88193714D01*
X98702761Y-88241333D01*
X98750380Y-88336571D01*
X98750380Y-88622285D01*
X98702761Y-88717523D01*
X98655142Y-88765142D01*
X110196380Y-86867904D02*
X111005904Y-86867904D01*
X111101142Y-86820285D01*
X111148761Y-86772666D01*
X111196380Y-86677428D01*
X111196380Y-86486952D01*
X111148761Y-86391714D01*
X111101142Y-86344095D01*
X111005904Y-86296476D01*
X110196380Y-86296476D01*
X111196380Y-85296476D02*
X111196380Y-85867904D01*
X111196380Y-85582190D02*
X110196380Y-85582190D01*
X110339238Y-85677428D01*
X110434476Y-85772666D01*
X110482095Y-85867904D01*
M02*
