G04 #@! TF.GenerationSoftware,KiCad,Pcbnew,(5.1.8)-1*
G04 #@! TF.CreationDate,2020-11-13T23:00:42+03:00*
G04 #@! TF.ProjectId,LED,4c45442e-6b69-4636-9164-5f7063625858,rev?*
G04 #@! TF.SameCoordinates,Original*
G04 #@! TF.FileFunction,Copper,L2,Bot*
G04 #@! TF.FilePolarity,Positive*
%FSLAX46Y46*%
G04 Gerber Fmt 4.6, Leading zero omitted, Abs format (unit mm)*
G04 Created by KiCad (PCBNEW (5.1.8)-1) date 2020-11-13 23:00:42*
%MOMM*%
%LPD*%
G01*
G04 APERTURE LIST*
G04 #@! TA.AperFunction,ComponentPad*
%ADD10R,2.000000X2.000000*%
G04 #@! TD*
G04 #@! TA.AperFunction,ComponentPad*
%ADD11C,2.000000*%
G04 #@! TD*
G04 #@! TA.AperFunction,SMDPad,CuDef*
%ADD12R,1.300000X1.700000*%
G04 #@! TD*
G04 #@! TA.AperFunction,SMDPad,CuDef*
%ADD13R,0.800000X0.900000*%
G04 #@! TD*
G04 #@! TA.AperFunction,SMDPad,CuDef*
%ADD14R,0.900000X0.800000*%
G04 #@! TD*
G04 #@! TA.AperFunction,ComponentPad*
%ADD15R,2.100000X2.200000*%
G04 #@! TD*
G04 #@! TA.AperFunction,ComponentPad*
%ADD16O,2.100000X2.200000*%
G04 #@! TD*
G04 #@! TA.AperFunction,ViaPad*
%ADD17C,1.500000*%
G04 #@! TD*
G04 #@! TA.AperFunction,ViaPad*
%ADD18C,1.300000*%
G04 #@! TD*
G04 #@! TA.AperFunction,ViaPad*
%ADD19C,1.600000*%
G04 #@! TD*
G04 #@! TA.AperFunction,Conductor*
%ADD20C,0.300000*%
G04 #@! TD*
G04 #@! TA.AperFunction,Conductor*
%ADD21C,0.500000*%
G04 #@! TD*
G04 #@! TA.AperFunction,Conductor*
%ADD22C,0.600000*%
G04 #@! TD*
G04 #@! TA.AperFunction,Conductor*
%ADD23C,0.800000*%
G04 #@! TD*
G04 #@! TA.AperFunction,Conductor*
%ADD24C,0.400000*%
G04 #@! TD*
G04 APERTURE END LIST*
G04 #@! TA.AperFunction,ComponentPad*
G36*
G01*
X98848000Y-78570000D02*
X97748000Y-78570000D01*
G75*
G02*
X97198000Y-78020000I0J550000D01*
G01*
X97198000Y-76920000D01*
G75*
G02*
X97748000Y-76370000I550000J0D01*
G01*
X98848000Y-76370000D01*
G75*
G02*
X99398000Y-76920000I0J-550000D01*
G01*
X99398000Y-78020000D01*
G75*
G02*
X98848000Y-78570000I-550000J0D01*
G01*
G37*
G04 #@! TD.AperFunction*
G04 #@! TA.AperFunction,ComponentPad*
G36*
G01*
X98848000Y-76030000D02*
X97748000Y-76030000D01*
G75*
G02*
X97198000Y-75480000I0J550000D01*
G01*
X97198000Y-74380000D01*
G75*
G02*
X97748000Y-73830000I550000J0D01*
G01*
X98848000Y-73830000D01*
G75*
G02*
X99398000Y-74380000I0J-550000D01*
G01*
X99398000Y-75480000D01*
G75*
G02*
X98848000Y-76030000I-550000J0D01*
G01*
G37*
G04 #@! TD.AperFunction*
G04 #@! TA.AperFunction,ComponentPad*
G36*
G01*
X98848000Y-73490000D02*
X97748000Y-73490000D01*
G75*
G02*
X97198000Y-72940000I0J550000D01*
G01*
X97198000Y-71840000D01*
G75*
G02*
X97748000Y-71290000I550000J0D01*
G01*
X98848000Y-71290000D01*
G75*
G02*
X99398000Y-71840000I0J-550000D01*
G01*
X99398000Y-72940000D01*
G75*
G02*
X98848000Y-73490000I-550000J0D01*
G01*
G37*
G04 #@! TD.AperFunction*
G04 #@! TA.AperFunction,ComponentPad*
G36*
G01*
X98848000Y-70950000D02*
X97748000Y-70950000D01*
G75*
G02*
X97198000Y-70400000I0J550000D01*
G01*
X97198000Y-69300000D01*
G75*
G02*
X97748000Y-68750000I550000J0D01*
G01*
X98848000Y-68750000D01*
G75*
G02*
X99398000Y-69300000I0J-550000D01*
G01*
X99398000Y-70400000D01*
G75*
G02*
X98848000Y-70950000I-550000J0D01*
G01*
G37*
G04 #@! TD.AperFunction*
G04 #@! TA.AperFunction,ComponentPad*
G36*
G01*
X98848000Y-68410000D02*
X97748000Y-68410000D01*
G75*
G02*
X97198000Y-67860000I0J550000D01*
G01*
X97198000Y-66760000D01*
G75*
G02*
X97748000Y-66210000I550000J0D01*
G01*
X98848000Y-66210000D01*
G75*
G02*
X99398000Y-66760000I0J-550000D01*
G01*
X99398000Y-67860000D01*
G75*
G02*
X98848000Y-68410000I-550000J0D01*
G01*
G37*
G04 #@! TD.AperFunction*
G04 #@! TA.AperFunction,ComponentPad*
G36*
G01*
X98848000Y-65870000D02*
X97748000Y-65870000D01*
G75*
G02*
X97198000Y-65320000I0J550000D01*
G01*
X97198000Y-64220000D01*
G75*
G02*
X97748000Y-63670000I550000J0D01*
G01*
X98848000Y-63670000D01*
G75*
G02*
X99398000Y-64220000I0J-550000D01*
G01*
X99398000Y-65320000D01*
G75*
G02*
X98848000Y-65870000I-550000J0D01*
G01*
G37*
G04 #@! TD.AperFunction*
G04 #@! TA.AperFunction,ComponentPad*
G36*
G01*
X111548000Y-65870000D02*
X110448000Y-65870000D01*
G75*
G02*
X109898000Y-65320000I0J550000D01*
G01*
X109898000Y-64220000D01*
G75*
G02*
X110448000Y-63670000I550000J0D01*
G01*
X111548000Y-63670000D01*
G75*
G02*
X112098000Y-64220000I0J-550000D01*
G01*
X112098000Y-65320000D01*
G75*
G02*
X111548000Y-65870000I-550000J0D01*
G01*
G37*
G04 #@! TD.AperFunction*
G04 #@! TA.AperFunction,ComponentPad*
G36*
G01*
X111548000Y-68410000D02*
X110448000Y-68410000D01*
G75*
G02*
X109898000Y-67860000I0J550000D01*
G01*
X109898000Y-66760000D01*
G75*
G02*
X110448000Y-66210000I550000J0D01*
G01*
X111548000Y-66210000D01*
G75*
G02*
X112098000Y-66760000I0J-550000D01*
G01*
X112098000Y-67860000D01*
G75*
G02*
X111548000Y-68410000I-550000J0D01*
G01*
G37*
G04 #@! TD.AperFunction*
G04 #@! TA.AperFunction,ComponentPad*
G36*
G01*
X111548000Y-70950000D02*
X110448000Y-70950000D01*
G75*
G02*
X109898000Y-70400000I0J550000D01*
G01*
X109898000Y-69300000D01*
G75*
G02*
X110448000Y-68750000I550000J0D01*
G01*
X111548000Y-68750000D01*
G75*
G02*
X112098000Y-69300000I0J-550000D01*
G01*
X112098000Y-70400000D01*
G75*
G02*
X111548000Y-70950000I-550000J0D01*
G01*
G37*
G04 #@! TD.AperFunction*
G04 #@! TA.AperFunction,ComponentPad*
G36*
G01*
X111548000Y-73490000D02*
X110448000Y-73490000D01*
G75*
G02*
X109898000Y-72940000I0J550000D01*
G01*
X109898000Y-71840000D01*
G75*
G02*
X110448000Y-71290000I550000J0D01*
G01*
X111548000Y-71290000D01*
G75*
G02*
X112098000Y-71840000I0J-550000D01*
G01*
X112098000Y-72940000D01*
G75*
G02*
X111548000Y-73490000I-550000J0D01*
G01*
G37*
G04 #@! TD.AperFunction*
G04 #@! TA.AperFunction,ComponentPad*
G36*
G01*
X111548000Y-76030000D02*
X110448000Y-76030000D01*
G75*
G02*
X109898000Y-75480000I0J550000D01*
G01*
X109898000Y-74380000D01*
G75*
G02*
X110448000Y-73830000I550000J0D01*
G01*
X111548000Y-73830000D01*
G75*
G02*
X112098000Y-74380000I0J-550000D01*
G01*
X112098000Y-75480000D01*
G75*
G02*
X111548000Y-76030000I-550000J0D01*
G01*
G37*
G04 #@! TD.AperFunction*
G04 #@! TA.AperFunction,ComponentPad*
G36*
G01*
X111548000Y-78570000D02*
X110448000Y-78570000D01*
G75*
G02*
X109898000Y-78020000I0J550000D01*
G01*
X109898000Y-76920000D01*
G75*
G02*
X110448000Y-76370000I550000J0D01*
G01*
X111548000Y-76370000D01*
G75*
G02*
X112098000Y-76920000I0J-550000D01*
G01*
X112098000Y-78020000D01*
G75*
G02*
X111548000Y-78570000I-550000J0D01*
G01*
G37*
G04 #@! TD.AperFunction*
D10*
X125730000Y-82550000D03*
X125730000Y-80010000D03*
X125730000Y-77470000D03*
X125730000Y-74930000D03*
X125730000Y-72390000D03*
X125730000Y-69850000D03*
X125730000Y-67310000D03*
X125730000Y-64770000D03*
X125730000Y-62230000D03*
X125730000Y-59690000D03*
X92710000Y-62230000D03*
X92710000Y-64770000D03*
X92710000Y-67310000D03*
X92710000Y-69850000D03*
X92710000Y-72390000D03*
X92710000Y-74930000D03*
X92710000Y-77470000D03*
X92710000Y-80010000D03*
X92710000Y-59690000D03*
X92710000Y-82550000D03*
D11*
X120578000Y-80010000D03*
X116078000Y-80010000D03*
X120578000Y-73510000D03*
X116078000Y-73510000D03*
X116078000Y-62334000D03*
X120578000Y-62334000D03*
X116078000Y-68834000D03*
X120578000Y-68834000D03*
G04 #@! TA.AperFunction,SMDPad,CuDef*
G36*
G01*
X107130001Y-66860000D02*
X106229999Y-66860000D01*
G75*
G02*
X105980000Y-66610001I0J249999D01*
G01*
X105980000Y-65959999D01*
G75*
G02*
X106229999Y-65710000I249999J0D01*
G01*
X107130001Y-65710000D01*
G75*
G02*
X107380000Y-65959999I0J-249999D01*
G01*
X107380000Y-66610001D01*
G75*
G02*
X107130001Y-66860000I-249999J0D01*
G01*
G37*
G04 #@! TD.AperFunction*
G04 #@! TA.AperFunction,SMDPad,CuDef*
G36*
G01*
X107130001Y-68910000D02*
X106229999Y-68910000D01*
G75*
G02*
X105980000Y-68660001I0J249999D01*
G01*
X105980000Y-68009999D01*
G75*
G02*
X106229999Y-67760000I249999J0D01*
G01*
X107130001Y-67760000D01*
G75*
G02*
X107380000Y-68009999I0J-249999D01*
G01*
X107380000Y-68660001D01*
G75*
G02*
X107130001Y-68910000I-249999J0D01*
G01*
G37*
G04 #@! TD.AperFunction*
G04 #@! TA.AperFunction,SMDPad,CuDef*
G36*
G01*
X102685001Y-64465000D02*
X101784999Y-64465000D01*
G75*
G02*
X101535000Y-64215001I0J249999D01*
G01*
X101535000Y-63564999D01*
G75*
G02*
X101784999Y-63315000I249999J0D01*
G01*
X102685001Y-63315000D01*
G75*
G02*
X102935000Y-63564999I0J-249999D01*
G01*
X102935000Y-64215001D01*
G75*
G02*
X102685001Y-64465000I-249999J0D01*
G01*
G37*
G04 #@! TD.AperFunction*
G04 #@! TA.AperFunction,SMDPad,CuDef*
G36*
G01*
X102685001Y-62415000D02*
X101784999Y-62415000D01*
G75*
G02*
X101535000Y-62165001I0J249999D01*
G01*
X101535000Y-61514999D01*
G75*
G02*
X101784999Y-61265000I249999J0D01*
G01*
X102685001Y-61265000D01*
G75*
G02*
X102935000Y-61514999I0J-249999D01*
G01*
X102935000Y-62165001D01*
G75*
G02*
X102685001Y-62415000I-249999J0D01*
G01*
G37*
G04 #@! TD.AperFunction*
G04 #@! TA.AperFunction,SMDPad,CuDef*
G36*
G01*
X104590001Y-62415000D02*
X103689999Y-62415000D01*
G75*
G02*
X103440000Y-62165001I0J249999D01*
G01*
X103440000Y-61514999D01*
G75*
G02*
X103689999Y-61265000I249999J0D01*
G01*
X104590001Y-61265000D01*
G75*
G02*
X104840000Y-61514999I0J-249999D01*
G01*
X104840000Y-62165001D01*
G75*
G02*
X104590001Y-62415000I-249999J0D01*
G01*
G37*
G04 #@! TD.AperFunction*
G04 #@! TA.AperFunction,SMDPad,CuDef*
G36*
G01*
X104590001Y-64465000D02*
X103689999Y-64465000D01*
G75*
G02*
X103440000Y-64215001I0J249999D01*
G01*
X103440000Y-63564999D01*
G75*
G02*
X103689999Y-63315000I249999J0D01*
G01*
X104590001Y-63315000D01*
G75*
G02*
X104840000Y-63564999I0J-249999D01*
G01*
X104840000Y-64215001D01*
G75*
G02*
X104590001Y-64465000I-249999J0D01*
G01*
G37*
G04 #@! TD.AperFunction*
G04 #@! TA.AperFunction,SMDPad,CuDef*
G36*
G01*
X106495001Y-64465000D02*
X105594999Y-64465000D01*
G75*
G02*
X105345000Y-64215001I0J249999D01*
G01*
X105345000Y-63564999D01*
G75*
G02*
X105594999Y-63315000I249999J0D01*
G01*
X106495001Y-63315000D01*
G75*
G02*
X106745000Y-63564999I0J-249999D01*
G01*
X106745000Y-64215001D01*
G75*
G02*
X106495001Y-64465000I-249999J0D01*
G01*
G37*
G04 #@! TD.AperFunction*
G04 #@! TA.AperFunction,SMDPad,CuDef*
G36*
G01*
X106495001Y-62415000D02*
X105594999Y-62415000D01*
G75*
G02*
X105345000Y-62165001I0J249999D01*
G01*
X105345000Y-61514999D01*
G75*
G02*
X105594999Y-61265000I249999J0D01*
G01*
X106495001Y-61265000D01*
G75*
G02*
X106745000Y-61514999I0J-249999D01*
G01*
X106745000Y-62165001D01*
G75*
G02*
X106495001Y-62415000I-249999J0D01*
G01*
G37*
G04 #@! TD.AperFunction*
G04 #@! TA.AperFunction,SMDPad,CuDef*
G36*
G01*
X118560000Y-82682501D02*
X118560000Y-81782499D01*
G75*
G02*
X118809999Y-81532500I249999J0D01*
G01*
X119460001Y-81532500D01*
G75*
G02*
X119710000Y-81782499I0J-249999D01*
G01*
X119710000Y-82682501D01*
G75*
G02*
X119460001Y-82932500I-249999J0D01*
G01*
X118809999Y-82932500D01*
G75*
G02*
X118560000Y-82682501I0J249999D01*
G01*
G37*
G04 #@! TD.AperFunction*
G04 #@! TA.AperFunction,SMDPad,CuDef*
G36*
G01*
X116510000Y-82682501D02*
X116510000Y-81782499D01*
G75*
G02*
X116759999Y-81532500I249999J0D01*
G01*
X117410001Y-81532500D01*
G75*
G02*
X117660000Y-81782499I0J-249999D01*
G01*
X117660000Y-82682501D01*
G75*
G02*
X117410001Y-82932500I-249999J0D01*
G01*
X116759999Y-82932500D01*
G75*
G02*
X116510000Y-82682501I0J249999D01*
G01*
G37*
G04 #@! TD.AperFunction*
G04 #@! TA.AperFunction,SMDPad,CuDef*
G36*
G01*
X96335001Y-60727500D02*
X95434999Y-60727500D01*
G75*
G02*
X95185000Y-60477501I0J249999D01*
G01*
X95185000Y-59827499D01*
G75*
G02*
X95434999Y-59577500I249999J0D01*
G01*
X96335001Y-59577500D01*
G75*
G02*
X96585000Y-59827499I0J-249999D01*
G01*
X96585000Y-60477501D01*
G75*
G02*
X96335001Y-60727500I-249999J0D01*
G01*
G37*
G04 #@! TD.AperFunction*
G04 #@! TA.AperFunction,SMDPad,CuDef*
G36*
G01*
X96335001Y-58677500D02*
X95434999Y-58677500D01*
G75*
G02*
X95185000Y-58427501I0J249999D01*
G01*
X95185000Y-57777499D01*
G75*
G02*
X95434999Y-57527500I249999J0D01*
G01*
X96335001Y-57527500D01*
G75*
G02*
X96585000Y-57777499I0J-249999D01*
G01*
X96585000Y-58427501D01*
G75*
G02*
X96335001Y-58677500I-249999J0D01*
G01*
G37*
G04 #@! TD.AperFunction*
D12*
X109692500Y-60325000D03*
X113192500Y-60325000D03*
X113030000Y-57150000D03*
X109530000Y-57150000D03*
D13*
X107762000Y-70390000D03*
X106812000Y-72390000D03*
X108712000Y-72390000D03*
D14*
X102917500Y-66360000D03*
X102917500Y-68260000D03*
X100917500Y-67310000D03*
X100854000Y-71437500D03*
X102854000Y-72387500D03*
X102854000Y-70487500D03*
X102600000Y-76520000D03*
X102600000Y-78420000D03*
X100600000Y-77470000D03*
D15*
X116205000Y-85090000D03*
D16*
X113665000Y-85090000D03*
G04 #@! TA.AperFunction,SMDPad,CuDef*
G36*
G01*
X97640000Y-52430000D02*
X97940000Y-52430000D01*
G75*
G02*
X98090000Y-52580000I0J-150000D01*
G01*
X98090000Y-54230000D01*
G75*
G02*
X97940000Y-54380000I-150000J0D01*
G01*
X97640000Y-54380000D01*
G75*
G02*
X97490000Y-54230000I0J150000D01*
G01*
X97490000Y-52580000D01*
G75*
G02*
X97640000Y-52430000I150000J0D01*
G01*
G37*
G04 #@! TD.AperFunction*
G04 #@! TA.AperFunction,SMDPad,CuDef*
G36*
G01*
X98910000Y-52430000D02*
X99210000Y-52430000D01*
G75*
G02*
X99360000Y-52580000I0J-150000D01*
G01*
X99360000Y-54230000D01*
G75*
G02*
X99210000Y-54380000I-150000J0D01*
G01*
X98910000Y-54380000D01*
G75*
G02*
X98760000Y-54230000I0J150000D01*
G01*
X98760000Y-52580000D01*
G75*
G02*
X98910000Y-52430000I150000J0D01*
G01*
G37*
G04 #@! TD.AperFunction*
G04 #@! TA.AperFunction,SMDPad,CuDef*
G36*
G01*
X100180000Y-52430000D02*
X100480000Y-52430000D01*
G75*
G02*
X100630000Y-52580000I0J-150000D01*
G01*
X100630000Y-54230000D01*
G75*
G02*
X100480000Y-54380000I-150000J0D01*
G01*
X100180000Y-54380000D01*
G75*
G02*
X100030000Y-54230000I0J150000D01*
G01*
X100030000Y-52580000D01*
G75*
G02*
X100180000Y-52430000I150000J0D01*
G01*
G37*
G04 #@! TD.AperFunction*
G04 #@! TA.AperFunction,SMDPad,CuDef*
G36*
G01*
X101450000Y-52430000D02*
X101750000Y-52430000D01*
G75*
G02*
X101900000Y-52580000I0J-150000D01*
G01*
X101900000Y-54230000D01*
G75*
G02*
X101750000Y-54380000I-150000J0D01*
G01*
X101450000Y-54380000D01*
G75*
G02*
X101300000Y-54230000I0J150000D01*
G01*
X101300000Y-52580000D01*
G75*
G02*
X101450000Y-52430000I150000J0D01*
G01*
G37*
G04 #@! TD.AperFunction*
G04 #@! TA.AperFunction,SMDPad,CuDef*
G36*
G01*
X102720000Y-52430000D02*
X103020000Y-52430000D01*
G75*
G02*
X103170000Y-52580000I0J-150000D01*
G01*
X103170000Y-54230000D01*
G75*
G02*
X103020000Y-54380000I-150000J0D01*
G01*
X102720000Y-54380000D01*
G75*
G02*
X102570000Y-54230000I0J150000D01*
G01*
X102570000Y-52580000D01*
G75*
G02*
X102720000Y-52430000I150000J0D01*
G01*
G37*
G04 #@! TD.AperFunction*
G04 #@! TA.AperFunction,SMDPad,CuDef*
G36*
G01*
X103990000Y-52430000D02*
X104290000Y-52430000D01*
G75*
G02*
X104440000Y-52580000I0J-150000D01*
G01*
X104440000Y-54230000D01*
G75*
G02*
X104290000Y-54380000I-150000J0D01*
G01*
X103990000Y-54380000D01*
G75*
G02*
X103840000Y-54230000I0J150000D01*
G01*
X103840000Y-52580000D01*
G75*
G02*
X103990000Y-52430000I150000J0D01*
G01*
G37*
G04 #@! TD.AperFunction*
G04 #@! TA.AperFunction,SMDPad,CuDef*
G36*
G01*
X105260000Y-52430000D02*
X105560000Y-52430000D01*
G75*
G02*
X105710000Y-52580000I0J-150000D01*
G01*
X105710000Y-54230000D01*
G75*
G02*
X105560000Y-54380000I-150000J0D01*
G01*
X105260000Y-54380000D01*
G75*
G02*
X105110000Y-54230000I0J150000D01*
G01*
X105110000Y-52580000D01*
G75*
G02*
X105260000Y-52430000I150000J0D01*
G01*
G37*
G04 #@! TD.AperFunction*
G04 #@! TA.AperFunction,SMDPad,CuDef*
G36*
G01*
X106530000Y-52430000D02*
X106830000Y-52430000D01*
G75*
G02*
X106980000Y-52580000I0J-150000D01*
G01*
X106980000Y-54230000D01*
G75*
G02*
X106830000Y-54380000I-150000J0D01*
G01*
X106530000Y-54380000D01*
G75*
G02*
X106380000Y-54230000I0J150000D01*
G01*
X106380000Y-52580000D01*
G75*
G02*
X106530000Y-52430000I150000J0D01*
G01*
G37*
G04 #@! TD.AperFunction*
G04 #@! TA.AperFunction,SMDPad,CuDef*
G36*
G01*
X106530000Y-57380000D02*
X106830000Y-57380000D01*
G75*
G02*
X106980000Y-57530000I0J-150000D01*
G01*
X106980000Y-59180000D01*
G75*
G02*
X106830000Y-59330000I-150000J0D01*
G01*
X106530000Y-59330000D01*
G75*
G02*
X106380000Y-59180000I0J150000D01*
G01*
X106380000Y-57530000D01*
G75*
G02*
X106530000Y-57380000I150000J0D01*
G01*
G37*
G04 #@! TD.AperFunction*
G04 #@! TA.AperFunction,SMDPad,CuDef*
G36*
G01*
X105260000Y-57380000D02*
X105560000Y-57380000D01*
G75*
G02*
X105710000Y-57530000I0J-150000D01*
G01*
X105710000Y-59180000D01*
G75*
G02*
X105560000Y-59330000I-150000J0D01*
G01*
X105260000Y-59330000D01*
G75*
G02*
X105110000Y-59180000I0J150000D01*
G01*
X105110000Y-57530000D01*
G75*
G02*
X105260000Y-57380000I150000J0D01*
G01*
G37*
G04 #@! TD.AperFunction*
G04 #@! TA.AperFunction,SMDPad,CuDef*
G36*
G01*
X103990000Y-57380000D02*
X104290000Y-57380000D01*
G75*
G02*
X104440000Y-57530000I0J-150000D01*
G01*
X104440000Y-59180000D01*
G75*
G02*
X104290000Y-59330000I-150000J0D01*
G01*
X103990000Y-59330000D01*
G75*
G02*
X103840000Y-59180000I0J150000D01*
G01*
X103840000Y-57530000D01*
G75*
G02*
X103990000Y-57380000I150000J0D01*
G01*
G37*
G04 #@! TD.AperFunction*
G04 #@! TA.AperFunction,SMDPad,CuDef*
G36*
G01*
X102720000Y-57380000D02*
X103020000Y-57380000D01*
G75*
G02*
X103170000Y-57530000I0J-150000D01*
G01*
X103170000Y-59180000D01*
G75*
G02*
X103020000Y-59330000I-150000J0D01*
G01*
X102720000Y-59330000D01*
G75*
G02*
X102570000Y-59180000I0J150000D01*
G01*
X102570000Y-57530000D01*
G75*
G02*
X102720000Y-57380000I150000J0D01*
G01*
G37*
G04 #@! TD.AperFunction*
G04 #@! TA.AperFunction,SMDPad,CuDef*
G36*
G01*
X101450000Y-57380000D02*
X101750000Y-57380000D01*
G75*
G02*
X101900000Y-57530000I0J-150000D01*
G01*
X101900000Y-59180000D01*
G75*
G02*
X101750000Y-59330000I-150000J0D01*
G01*
X101450000Y-59330000D01*
G75*
G02*
X101300000Y-59180000I0J150000D01*
G01*
X101300000Y-57530000D01*
G75*
G02*
X101450000Y-57380000I150000J0D01*
G01*
G37*
G04 #@! TD.AperFunction*
G04 #@! TA.AperFunction,SMDPad,CuDef*
G36*
G01*
X100180000Y-57380000D02*
X100480000Y-57380000D01*
G75*
G02*
X100630000Y-57530000I0J-150000D01*
G01*
X100630000Y-59180000D01*
G75*
G02*
X100480000Y-59330000I-150000J0D01*
G01*
X100180000Y-59330000D01*
G75*
G02*
X100030000Y-59180000I0J150000D01*
G01*
X100030000Y-57530000D01*
G75*
G02*
X100180000Y-57380000I150000J0D01*
G01*
G37*
G04 #@! TD.AperFunction*
G04 #@! TA.AperFunction,SMDPad,CuDef*
G36*
G01*
X98910000Y-57380000D02*
X99210000Y-57380000D01*
G75*
G02*
X99360000Y-57530000I0J-150000D01*
G01*
X99360000Y-59180000D01*
G75*
G02*
X99210000Y-59330000I-150000J0D01*
G01*
X98910000Y-59330000D01*
G75*
G02*
X98760000Y-59180000I0J150000D01*
G01*
X98760000Y-57530000D01*
G75*
G02*
X98910000Y-57380000I150000J0D01*
G01*
G37*
G04 #@! TD.AperFunction*
G04 #@! TA.AperFunction,SMDPad,CuDef*
G36*
G01*
X97640000Y-57380000D02*
X97940000Y-57380000D01*
G75*
G02*
X98090000Y-57530000I0J-150000D01*
G01*
X98090000Y-59180000D01*
G75*
G02*
X97940000Y-59330000I-150000J0D01*
G01*
X97640000Y-59330000D01*
G75*
G02*
X97490000Y-59180000I0J150000D01*
G01*
X97490000Y-57530000D01*
G75*
G02*
X97640000Y-57380000I150000J0D01*
G01*
G37*
G04 #@! TD.AperFunction*
D17*
X111442500Y-80645000D03*
D18*
X102489000Y-81153000D03*
D17*
X99822000Y-81153000D03*
X110807500Y-88900000D03*
X97472500Y-55880000D03*
X96774000Y-79756000D03*
D18*
X99695000Y-86995000D03*
X102235000Y-86042500D03*
D19*
X118745000Y-85725000D03*
D20*
X90170000Y-81915000D02*
X90170000Y-83185000D01*
X89535000Y-83185000D02*
X90805000Y-83185000D01*
X89535000Y-59690000D02*
X90805000Y-59690000D01*
X90170000Y-59055000D02*
X90170000Y-60325000D01*
D21*
X111125000Y-60325000D02*
X109692500Y-60325000D01*
X111125000Y-55880000D02*
X111125000Y-60325000D01*
X102870000Y-56832500D02*
X104140000Y-55562500D01*
X102870000Y-58355000D02*
X102870000Y-56832500D01*
X107950000Y-55562500D02*
X108648500Y-54864000D01*
X104140000Y-55562500D02*
X107950000Y-55562500D01*
X108648500Y-54864000D02*
X110109000Y-54864000D01*
X110109000Y-54864000D02*
X111125000Y-55880000D01*
D22*
X108585000Y-64135000D02*
X108585000Y-63182500D01*
X109692500Y-62075000D02*
X109692500Y-60325000D01*
X108585000Y-63182500D02*
X109692500Y-62075000D01*
X107480000Y-66285000D02*
X107632500Y-66132500D01*
X106680000Y-66285000D02*
X107480000Y-66285000D01*
X107632500Y-66132500D02*
X107632500Y-65087500D01*
X107632500Y-65087500D02*
X108585000Y-64135000D01*
D21*
X113410000Y-60960000D02*
X113347500Y-60897500D01*
D22*
X116078000Y-72095787D02*
X115419713Y-71437500D01*
X116078000Y-73510000D02*
X116078000Y-72095787D01*
X115377500Y-71437500D02*
X113410000Y-69470000D01*
X115419713Y-71437500D02*
X115377500Y-71437500D01*
X113410000Y-60960000D02*
X113410000Y-69470000D01*
X116584000Y-61828000D02*
X116078000Y-62334000D01*
X116078000Y-63748213D02*
X116078000Y-68834000D01*
X116078000Y-62334000D02*
X116078000Y-63748213D01*
X116078000Y-60919787D02*
X116078000Y-62334000D01*
X116078000Y-58948000D02*
X116078000Y-60919787D01*
X114280000Y-57150000D02*
X116078000Y-58948000D01*
X113030000Y-57150000D02*
X114280000Y-57150000D01*
D21*
X102235000Y-61165000D02*
X103075000Y-60325000D01*
X102235000Y-61840000D02*
X102235000Y-61165000D01*
X103075000Y-60325000D02*
X103505000Y-60325000D01*
X104140000Y-59690000D02*
X104140000Y-58355000D01*
X103505000Y-60325000D02*
X104140000Y-59690000D01*
X104140000Y-57280000D02*
X104140000Y-58355000D01*
X104905000Y-56515000D02*
X104140000Y-57280000D01*
X108267500Y-56515000D02*
X104905000Y-56515000D01*
X108267500Y-57037500D02*
X108267500Y-56515000D01*
X108380000Y-57150000D02*
X108267500Y-57037500D01*
X109530000Y-57150000D02*
X108380000Y-57150000D01*
X106680000Y-68335000D02*
X106680000Y-69342000D01*
X106680000Y-69342000D02*
X106172000Y-69850000D01*
X106172000Y-69850000D02*
X106172000Y-70866000D01*
X106172000Y-70866000D02*
X106680000Y-71374000D01*
X106680000Y-71374000D02*
X107696000Y-71374000D01*
X107696000Y-71374000D02*
X108712000Y-72390000D01*
X102854000Y-66360000D02*
X102854000Y-65421000D01*
X102235000Y-64802000D02*
X102854000Y-65421000D01*
X102235000Y-63890000D02*
X102235000Y-64802000D01*
X103804000Y-70424000D02*
X104140000Y-70088000D01*
X102854000Y-70424000D02*
X103804000Y-70424000D01*
X104140000Y-63890000D02*
X104140000Y-70088000D01*
X103820000Y-76520000D02*
X102600000Y-76520000D01*
X104775000Y-75565000D02*
X103820000Y-76520000D01*
X105136047Y-70377953D02*
X104775000Y-70739000D01*
X104775000Y-70739000D02*
X104775000Y-75565000D01*
X106045000Y-63890000D02*
X106045000Y-64643000D01*
X106045000Y-64643000D02*
X105156000Y-65532000D01*
X105156000Y-65532000D02*
X105156000Y-70377953D01*
X105156000Y-70377953D02*
X105136047Y-70377953D01*
X102489000Y-81153000D02*
X105918000Y-81153000D01*
D22*
X106426000Y-80645000D02*
X106394250Y-80676750D01*
X111442500Y-80645000D02*
X106426000Y-80645000D01*
D21*
X106394250Y-80676750D02*
X105918000Y-81153000D01*
X106680000Y-58355000D02*
X106680000Y-60007500D01*
X106680000Y-60007500D02*
X106045000Y-60642500D01*
X106045000Y-60642500D02*
X106045000Y-61840000D01*
X101904000Y-68260000D02*
X101600000Y-68564000D01*
X102854000Y-68260000D02*
X101904000Y-68260000D01*
X102550000Y-78420000D02*
X102600000Y-78420000D01*
X101650000Y-77520000D02*
X102550000Y-78420000D01*
X101650000Y-75809998D02*
X101650000Y-77520000D01*
X101754001Y-75705997D02*
X101650000Y-75809998D01*
X101600000Y-68564000D02*
X101754001Y-68718001D01*
X101851500Y-72324000D02*
X101754001Y-72226501D01*
X102854000Y-72324000D02*
X101851500Y-72324000D01*
X101754001Y-68718001D02*
X101754001Y-72226501D01*
X101754001Y-72226501D02*
X101754001Y-75705997D01*
X103952000Y-78420000D02*
X102600000Y-78420000D01*
X105540020Y-76831980D02*
X103952000Y-78420000D01*
D22*
X102600000Y-79120000D02*
X102600000Y-78420000D01*
X102345000Y-79375000D02*
X102600000Y-79120000D01*
X101600000Y-79375000D02*
X102345000Y-79375000D01*
X99822000Y-81153000D02*
X101600000Y-79375000D01*
D21*
X105540020Y-72761980D02*
X105540020Y-72767980D01*
X105912000Y-72390000D02*
X105540020Y-72761980D01*
X106812000Y-72390000D02*
X105912000Y-72390000D01*
X105540020Y-72767980D02*
X105540020Y-76831980D01*
X93172500Y-60152500D02*
X92710000Y-59690000D01*
X95885000Y-60152500D02*
X93172500Y-60152500D01*
X97790000Y-58355000D02*
X97790000Y-60152500D01*
X97744500Y-60152500D02*
X95885000Y-60152500D01*
D22*
X99822000Y-82072238D02*
X99822000Y-81153000D01*
X101569762Y-83820000D02*
X99822000Y-82072238D01*
X109855000Y-83820000D02*
X101569762Y-83820000D01*
X117085000Y-82232500D02*
X111442500Y-82232500D01*
X111442500Y-82232500D02*
X109855000Y-83820000D01*
D23*
X94932500Y-82550000D02*
X92710000Y-82550000D01*
X97155000Y-83820000D02*
X97155000Y-88900000D01*
X97155000Y-88900000D02*
X97790000Y-89535000D01*
X97790000Y-89535000D02*
X110807500Y-89535000D01*
X94932500Y-82550000D02*
X95885000Y-82550000D01*
D21*
X97790000Y-53405000D02*
X99060000Y-53405000D01*
X99060000Y-53405000D02*
X100330000Y-53405000D01*
D23*
X110807500Y-88900000D02*
X110807500Y-89535000D01*
D21*
X100330000Y-53405000D02*
X100330000Y-51325010D01*
X100330000Y-51325010D02*
X106570010Y-51325010D01*
X106680000Y-51435000D02*
X106680000Y-53405000D01*
X106570010Y-51325010D02*
X106680000Y-51435000D01*
X97472500Y-55880000D02*
X99060000Y-55880000D01*
X99060000Y-53405000D02*
X99060000Y-55880000D01*
X99060000Y-55880000D02*
X99060000Y-58355000D01*
X95885000Y-57467500D02*
X97472500Y-55880000D01*
X95885000Y-58102500D02*
X95885000Y-57467500D01*
D22*
X96266000Y-82804000D02*
X96202500Y-82867500D01*
D23*
X96774000Y-79756000D02*
X96774000Y-83058000D01*
X95885000Y-82550000D02*
X96202500Y-82867500D01*
X96202500Y-82867500D02*
X97155000Y-83820000D01*
D21*
X104140000Y-60960000D02*
X104140000Y-61840000D01*
X105410000Y-58355000D02*
X105410000Y-59690000D01*
X105410000Y-59690000D02*
X104140000Y-60960000D01*
X99060000Y-61277500D02*
X99060000Y-61277500D01*
X100330000Y-60007500D02*
X100330000Y-58355000D01*
X99060000Y-61277500D02*
X100330000Y-60007500D01*
X96520000Y-61277500D02*
X99060000Y-61277500D01*
X92710000Y-62230000D02*
X95567500Y-62230000D01*
X95567500Y-62230000D02*
X96520000Y-61277500D01*
D22*
X94210000Y-64770000D02*
X92710000Y-64770000D01*
X94615000Y-64770000D02*
X96837500Y-62547500D01*
X94210000Y-64770000D02*
X94615000Y-64770000D01*
X101600000Y-58355000D02*
X101600000Y-60325000D01*
X101600000Y-60325000D02*
X100330000Y-61595000D01*
X100330000Y-61595000D02*
X99377500Y-62547500D01*
X96837500Y-62547500D02*
X99377500Y-62547500D01*
X100344999Y-87644999D02*
X99695000Y-86995000D01*
X124130000Y-64770000D02*
X125730000Y-64770000D01*
X123825000Y-65075000D02*
X124130000Y-64770000D01*
X123825000Y-83185000D02*
X123825000Y-65075000D01*
X121443750Y-85566250D02*
X123825000Y-83185000D01*
X121443750Y-88423750D02*
X121443750Y-85566250D01*
X104140000Y-86995000D02*
X111125000Y-86995000D01*
X103505000Y-87630000D02*
X104140000Y-86995000D01*
X111125000Y-86995000D02*
X113347500Y-89217500D01*
X113347500Y-89217500D02*
X120650000Y-89217500D01*
X100344999Y-87630000D02*
X103505000Y-87630000D01*
X120650000Y-89217500D02*
X121443750Y-88423750D01*
D21*
X102884999Y-85392501D02*
X102870000Y-85407500D01*
D22*
X102235000Y-86042500D02*
X102884999Y-85392501D01*
X122872500Y-62865000D02*
X123507500Y-62230000D01*
X122872500Y-82232500D02*
X122872500Y-62865000D01*
X102870000Y-85407500D02*
X111442500Y-85407500D01*
X111442500Y-85407500D02*
X113982500Y-87947500D01*
X113982500Y-87947500D02*
X120332500Y-87947500D01*
X120332500Y-87947500D02*
X120643740Y-87636260D01*
X123507500Y-62230000D02*
X125730000Y-62230000D01*
X120643740Y-87636260D02*
X120643740Y-84461260D01*
X120643740Y-84461260D02*
X122872500Y-82232500D01*
D21*
X98298000Y-77470000D02*
X100600000Y-77470000D01*
X99330000Y-69850000D02*
X100854000Y-71374000D01*
X98298000Y-69850000D02*
X99330000Y-69850000D01*
X98298000Y-67310000D02*
X100854000Y-67310000D01*
X109798000Y-64770000D02*
X110998000Y-64770000D01*
X108712000Y-65856000D02*
X109798000Y-64770000D01*
X108712000Y-70340000D02*
X108712000Y-65856000D01*
X107762000Y-70390000D02*
X108662000Y-70390000D01*
X108662000Y-70390000D02*
X108712000Y-70340000D01*
D22*
X110998000Y-72390000D02*
X112198000Y-72390000D01*
X112198000Y-72390000D02*
X113030000Y-72390000D01*
X113030000Y-72390000D02*
X113665000Y-73025000D01*
X113665000Y-73025000D02*
X113665000Y-75882500D01*
X113665000Y-75882500D02*
X114300000Y-76517500D01*
X114300000Y-76517500D02*
X117792500Y-76517500D01*
X117792500Y-76517500D02*
X118110000Y-76835000D01*
X118110000Y-76835000D02*
X118110000Y-79692500D01*
X118110000Y-79692500D02*
X118110000Y-80962500D01*
D24*
X118110000Y-80962500D02*
X118110000Y-83502500D01*
D22*
X118745000Y-84137500D02*
X118110000Y-83502500D01*
X118745000Y-85725000D02*
X118745000Y-84137500D01*
X125580000Y-82400000D02*
X125730000Y-82550000D01*
X120578000Y-68834000D02*
X120578000Y-73510000D01*
X120578000Y-63748213D02*
X120578000Y-68834000D01*
X120578000Y-62334000D02*
X120578000Y-63748213D01*
X120578000Y-74924213D02*
X120578000Y-80010000D01*
X120578000Y-73510000D02*
X120578000Y-74924213D01*
D21*
X120578000Y-80010000D02*
X120578000Y-82232500D01*
X120578000Y-82232500D02*
X119279500Y-82232500D01*
M02*
