M48
INCH,TZ
T1C0.0354
T2C0.0394
T3C0.0433
T4C0.1260
%
G90
G05
T1
X38100Y-31400
X38375Y-22000
X39250Y-34250
X39300Y-31950
X40250Y-33875
X40350Y-31950
X43625Y-35000
X43875Y-31750
X38700Y-25500
X38700Y-26500
X38700Y-27500
X38700Y-28500
X38700Y-29500
X38700Y-30500
X43700Y-25500
X43700Y-26500
X43700Y-27500
X43700Y-28500
X43700Y-29500
X43700Y-30500
T2
X36500Y-30500
X36500Y-24500
X49500Y-29500
X36500Y-23500
X49500Y-27500
X36500Y-27500
X49500Y-25500
X49500Y-32500
X36500Y-29500
X49500Y-23500
X49500Y-30500
X36500Y-31500
X36500Y-25500
X49500Y-28500
X36500Y-32500
X36500Y-26500
X49500Y-26500
X44750Y-33500
X45750Y-33500
X36500Y-28500
X49500Y-24500
X49500Y-31500
T3
X46750Y-33750
X45700Y-24541
X45700Y-27100
X47472Y-24541
X47472Y-27100
X45700Y-28941
X45700Y-31500
X47472Y-28941
X47472Y-31500
T4
X36500Y-34500
X49500Y-34500
X36500Y-21500
X49500Y-21500
T0
M30
