G04 #@! TF.GenerationSoftware,KiCad,Pcbnew,(5.1.8)-1*
G04 #@! TF.CreationDate,2020-11-24T21:56:22+03:00*
G04 #@! TF.ProjectId,LCDbtns,4c434462-746e-4732-9e6b-696361645f70,rev?*
G04 #@! TF.SameCoordinates,Original*
G04 #@! TF.FileFunction,Soldermask,Top*
G04 #@! TF.FilePolarity,Negative*
%FSLAX46Y46*%
G04 Gerber Fmt 4.6, Leading zero omitted, Abs format (unit mm)*
G04 Created by KiCad (PCBNEW (5.1.8)-1) date 2020-11-24 21:56:22*
%MOMM*%
%LPD*%
G01*
G04 APERTURE LIST*
%ADD10C,2.102000*%
%ADD11C,3.302000*%
G04 APERTURE END LIST*
D10*
X141287500Y-33505000D03*
X145787500Y-33505000D03*
X141287500Y-40005000D03*
X145787500Y-40005000D03*
X133667500Y-33505000D03*
X138167500Y-33505000D03*
X133667500Y-40005000D03*
X138167500Y-40005000D03*
D11*
X154305000Y-36830000D03*
X79375000Y-36830000D03*
D10*
X87947500Y-33505000D03*
X92447500Y-33505000D03*
X87947500Y-40005000D03*
X92447500Y-40005000D03*
X100067500Y-40005000D03*
X95567500Y-40005000D03*
X100067500Y-33505000D03*
X95567500Y-33505000D03*
X107687500Y-40005000D03*
X103187500Y-40005000D03*
X107687500Y-33505000D03*
X103187500Y-33505000D03*
X110807500Y-33505000D03*
X115307500Y-33505000D03*
X110807500Y-40005000D03*
X115307500Y-40005000D03*
X122927500Y-40005000D03*
X118427500Y-40005000D03*
X122927500Y-33505000D03*
X118427500Y-33505000D03*
X126047500Y-33505000D03*
X130547500Y-33505000D03*
X126047500Y-40005000D03*
X130547500Y-40005000D03*
X149225000Y-39370000D03*
X149225000Y-36830000D03*
X149225000Y-34290000D03*
X84455000Y-39370000D03*
X84455000Y-36830000D03*
X84455000Y-34290000D03*
M02*
