G04 #@! TF.GenerationSoftware,KiCad,Pcbnew,(5.1.8)-1*
G04 #@! TF.CreationDate,2020-11-24T21:56:22+03:00*
G04 #@! TF.ProjectId,LCDbtns,4c434462-746e-4732-9e6b-696361645f70,rev?*
G04 #@! TF.SameCoordinates,Original*
G04 #@! TF.FileFunction,Copper,L2,Bot*
G04 #@! TF.FilePolarity,Positive*
%FSLAX46Y46*%
G04 Gerber Fmt 4.6, Leading zero omitted, Abs format (unit mm)*
G04 Created by KiCad (PCBNEW (5.1.8)-1) date 2020-11-24 21:56:22*
%MOMM*%
%LPD*%
G01*
G04 APERTURE LIST*
G04 #@! TA.AperFunction,ComponentPad*
%ADD10C,2.000000*%
G04 #@! TD*
G04 #@! TA.AperFunction,SMDPad,CuDef*
%ADD11R,1.300000X1.700000*%
G04 #@! TD*
G04 #@! TA.AperFunction,ViaPad*
%ADD12C,1.300000*%
G04 #@! TD*
G04 #@! TA.AperFunction,Conductor*
%ADD13C,0.600000*%
G04 #@! TD*
G04 #@! TA.AperFunction,Conductor*
%ADD14C,0.500000*%
G04 #@! TD*
G04 APERTURE END LIST*
D10*
X141287500Y-33505000D03*
X145787500Y-33505000D03*
X141287500Y-40005000D03*
X145787500Y-40005000D03*
X133667500Y-33505000D03*
X138167500Y-33505000D03*
X133667500Y-40005000D03*
X138167500Y-40005000D03*
X87947500Y-33505000D03*
X92447500Y-33505000D03*
X87947500Y-40005000D03*
X92447500Y-40005000D03*
X100067500Y-40005000D03*
X95567500Y-40005000D03*
X100067500Y-33505000D03*
X95567500Y-33505000D03*
X107687500Y-40005000D03*
X103187500Y-40005000D03*
X107687500Y-33505000D03*
X103187500Y-33505000D03*
X110807500Y-33505000D03*
X115307500Y-33505000D03*
X110807500Y-40005000D03*
X115307500Y-40005000D03*
X122927500Y-40005000D03*
X118427500Y-40005000D03*
X122927500Y-33505000D03*
X118427500Y-33505000D03*
X126047500Y-33505000D03*
X130547500Y-33505000D03*
X126047500Y-40005000D03*
X130547500Y-40005000D03*
X149225000Y-39370000D03*
X149225000Y-36830000D03*
X149225000Y-34290000D03*
X84455000Y-39370000D03*
X84455000Y-36830000D03*
X84455000Y-34290000D03*
D11*
X87450000Y-36195000D03*
X90950000Y-36195000D03*
X105890000Y-36195000D03*
X102390000Y-36195000D03*
X117947500Y-37465000D03*
X121447500Y-37465000D03*
X142395000Y-37465000D03*
X145895000Y-37465000D03*
D12*
X93662500Y-36830000D03*
D13*
X92447500Y-35560000D02*
X92447500Y-33505000D01*
X100100000Y-33500000D02*
X100100000Y-35500000D01*
X91757500Y-36195000D02*
X92452500Y-35500000D01*
X90950000Y-36195000D02*
X91637500Y-36195000D01*
X100100000Y-35500000D02*
X92447500Y-35500000D01*
X115307500Y-36775000D02*
X115307500Y-33505000D01*
X107687500Y-36830000D02*
X115252500Y-36830000D01*
D14*
X107632500Y-36195000D02*
X107687500Y-36250000D01*
D13*
X105890000Y-36195000D02*
X107632500Y-36195000D01*
X107687500Y-36250000D02*
X107687500Y-36830000D01*
X107687500Y-33505000D02*
X107687500Y-36250000D01*
X130600000Y-38100000D02*
X130600000Y-39950000D01*
X122927500Y-40005000D02*
X122927500Y-38100000D01*
X122927500Y-38100000D02*
X130600000Y-38100000D01*
X122237500Y-37465000D02*
X122872500Y-38100000D01*
X121447500Y-37465000D02*
X122292500Y-37465000D01*
X142240000Y-37310000D02*
X142240000Y-35560000D01*
X145787500Y-34980000D02*
X145787500Y-33505000D01*
X145207500Y-35560000D02*
X145787500Y-34980000D01*
X138430000Y-35560000D02*
X145207500Y-35560000D01*
X138167500Y-35297500D02*
X138430000Y-35560000D01*
X138167500Y-33505000D02*
X138167500Y-35297500D01*
X149225000Y-39370000D02*
X147955000Y-38100000D01*
X147320000Y-37465000D02*
X147955000Y-38100000D01*
X145895000Y-37465000D02*
X147320000Y-37465000D01*
X84455000Y-39370000D02*
X85725000Y-38100000D01*
X85725000Y-38100000D02*
X115887500Y-38100000D01*
X116522500Y-37465000D02*
X115887500Y-38100000D01*
X117947500Y-37465000D02*
X116522500Y-37465000D01*
X102390000Y-36195000D02*
X101282500Y-36195000D01*
X101282500Y-36195000D02*
X100647500Y-36830000D01*
X93662500Y-36830000D02*
X100647500Y-36830000D01*
X86360000Y-36195000D02*
X84455000Y-34290000D01*
X87450000Y-36195000D02*
X86360000Y-36195000D01*
M02*
