M48
INCH,TZ
T1C0.0315
T2C0.0394
T3C0.0433
T4C0.1260
%
G90
G05
T1
X36875Y-14500
T2
X33250Y-13500
X33250Y-14500
X33250Y-15500
X58750Y-13500
X58750Y-14500
X58750Y-15500
T3
X46625Y-13191
X46625Y-15750
X48397Y-13191
X48397Y-15750
X52625Y-13191
X52625Y-15750
X54397Y-13191
X54397Y-15750
X37625Y-13191
X37625Y-15750
X39397Y-13191
X39397Y-15750
X43625Y-13191
X43625Y-15750
X45397Y-13191
X45397Y-15750
X55625Y-13191
X55625Y-15750
X57397Y-13191
X57397Y-15750
X49625Y-13191
X49625Y-15750
X51397Y-13191
X51397Y-15750
X34625Y-13191
X34625Y-15750
X36397Y-13191
X36397Y-15750
X40625Y-13191
X40625Y-15750
X42397Y-13191
X42397Y-15750
T4
X31250Y-14500
X60750Y-14500
T0
M30
