G04 #@! TF.GenerationSoftware,KiCad,Pcbnew,(5.1.8)-1*
G04 #@! TF.CreationDate,2020-11-24T21:56:22+03:00*
G04 #@! TF.ProjectId,LCDbtns,4c434462-746e-4732-9e6b-696361645f70,rev?*
G04 #@! TF.SameCoordinates,Original*
G04 #@! TF.FileFunction,Soldermask,Bot*
G04 #@! TF.FilePolarity,Negative*
%FSLAX46Y46*%
G04 Gerber Fmt 4.6, Leading zero omitted, Abs format (unit mm)*
G04 Created by KiCad (PCBNEW (5.1.8)-1) date 2020-11-24 21:56:22*
%MOMM*%
%LPD*%
G01*
G04 APERTURE LIST*
%ADD10C,2.102000*%
%ADD11C,3.302000*%
G04 APERTURE END LIST*
D10*
X141287500Y-33505000D03*
X145787500Y-33505000D03*
X141287500Y-40005000D03*
X145787500Y-40005000D03*
X133667500Y-33505000D03*
X138167500Y-33505000D03*
X133667500Y-40005000D03*
X138167500Y-40005000D03*
D11*
X154305000Y-36830000D03*
X79375000Y-36830000D03*
D10*
X87947500Y-33505000D03*
X92447500Y-33505000D03*
X87947500Y-40005000D03*
X92447500Y-40005000D03*
X100067500Y-40005000D03*
X95567500Y-40005000D03*
X100067500Y-33505000D03*
X95567500Y-33505000D03*
X107687500Y-40005000D03*
X103187500Y-40005000D03*
X107687500Y-33505000D03*
X103187500Y-33505000D03*
X110807500Y-33505000D03*
X115307500Y-33505000D03*
X110807500Y-40005000D03*
X115307500Y-40005000D03*
X122927500Y-40005000D03*
X118427500Y-40005000D03*
X122927500Y-33505000D03*
X118427500Y-33505000D03*
X126047500Y-33505000D03*
X130547500Y-33505000D03*
X126047500Y-40005000D03*
X130547500Y-40005000D03*
X149225000Y-39370000D03*
X149225000Y-36830000D03*
X149225000Y-34290000D03*
X84455000Y-39370000D03*
X84455000Y-36830000D03*
X84455000Y-34290000D03*
G36*
G01*
X86749000Y-37045000D02*
X86749000Y-35345000D01*
G75*
G02*
X86800000Y-35294000I51000J0D01*
G01*
X88100000Y-35294000D01*
G75*
G02*
X88151000Y-35345000I0J-51000D01*
G01*
X88151000Y-37045000D01*
G75*
G02*
X88100000Y-37096000I-51000J0D01*
G01*
X86800000Y-37096000D01*
G75*
G02*
X86749000Y-37045000I0J51000D01*
G01*
G37*
G36*
G01*
X90249000Y-37045000D02*
X90249000Y-35345000D01*
G75*
G02*
X90300000Y-35294000I51000J0D01*
G01*
X91600000Y-35294000D01*
G75*
G02*
X91651000Y-35345000I0J-51000D01*
G01*
X91651000Y-37045000D01*
G75*
G02*
X91600000Y-37096000I-51000J0D01*
G01*
X90300000Y-37096000D01*
G75*
G02*
X90249000Y-37045000I0J51000D01*
G01*
G37*
G36*
G01*
X105189000Y-37045000D02*
X105189000Y-35345000D01*
G75*
G02*
X105240000Y-35294000I51000J0D01*
G01*
X106540000Y-35294000D01*
G75*
G02*
X106591000Y-35345000I0J-51000D01*
G01*
X106591000Y-37045000D01*
G75*
G02*
X106540000Y-37096000I-51000J0D01*
G01*
X105240000Y-37096000D01*
G75*
G02*
X105189000Y-37045000I0J51000D01*
G01*
G37*
G36*
G01*
X101689000Y-37045000D02*
X101689000Y-35345000D01*
G75*
G02*
X101740000Y-35294000I51000J0D01*
G01*
X103040000Y-35294000D01*
G75*
G02*
X103091000Y-35345000I0J-51000D01*
G01*
X103091000Y-37045000D01*
G75*
G02*
X103040000Y-37096000I-51000J0D01*
G01*
X101740000Y-37096000D01*
G75*
G02*
X101689000Y-37045000I0J51000D01*
G01*
G37*
G36*
G01*
X117246500Y-38315000D02*
X117246500Y-36615000D01*
G75*
G02*
X117297500Y-36564000I51000J0D01*
G01*
X118597500Y-36564000D01*
G75*
G02*
X118648500Y-36615000I0J-51000D01*
G01*
X118648500Y-38315000D01*
G75*
G02*
X118597500Y-38366000I-51000J0D01*
G01*
X117297500Y-38366000D01*
G75*
G02*
X117246500Y-38315000I0J51000D01*
G01*
G37*
G36*
G01*
X120746500Y-38315000D02*
X120746500Y-36615000D01*
G75*
G02*
X120797500Y-36564000I51000J0D01*
G01*
X122097500Y-36564000D01*
G75*
G02*
X122148500Y-36615000I0J-51000D01*
G01*
X122148500Y-38315000D01*
G75*
G02*
X122097500Y-38366000I-51000J0D01*
G01*
X120797500Y-38366000D01*
G75*
G02*
X120746500Y-38315000I0J51000D01*
G01*
G37*
G36*
G01*
X143096000Y-36615000D02*
X143096000Y-38315000D01*
G75*
G02*
X143045000Y-38366000I-51000J0D01*
G01*
X141745000Y-38366000D01*
G75*
G02*
X141694000Y-38315000I0J51000D01*
G01*
X141694000Y-36615000D01*
G75*
G02*
X141745000Y-36564000I51000J0D01*
G01*
X143045000Y-36564000D01*
G75*
G02*
X143096000Y-36615000I0J-51000D01*
G01*
G37*
G36*
G01*
X146596000Y-36615000D02*
X146596000Y-38315000D01*
G75*
G02*
X146545000Y-38366000I-51000J0D01*
G01*
X145245000Y-38366000D01*
G75*
G02*
X145194000Y-38315000I0J51000D01*
G01*
X145194000Y-36615000D01*
G75*
G02*
X145245000Y-36564000I51000J0D01*
G01*
X146545000Y-36564000D01*
G75*
G02*
X146596000Y-36615000I0J-51000D01*
G01*
G37*
M02*
