G04 #@! TF.GenerationSoftware,KiCad,Pcbnew,(5.1.8)-1*
G04 #@! TF.CreationDate,2020-11-24T21:56:22+03:00*
G04 #@! TF.ProjectId,LCDbtns,4c434462-746e-4732-9e6b-696361645f70,rev?*
G04 #@! TF.SameCoordinates,Original*
G04 #@! TF.FileFunction,Copper,L1,Top*
G04 #@! TF.FilePolarity,Positive*
%FSLAX46Y46*%
G04 Gerber Fmt 4.6, Leading zero omitted, Abs format (unit mm)*
G04 Created by KiCad (PCBNEW (5.1.8)-1) date 2020-11-24 21:56:22*
%MOMM*%
%LPD*%
G01*
G04 APERTURE LIST*
G04 #@! TA.AperFunction,ComponentPad*
%ADD10C,2.000000*%
G04 #@! TD*
G04 #@! TA.AperFunction,ViaPad*
%ADD11C,1.300000*%
G04 #@! TD*
G04 #@! TA.AperFunction,Conductor*
%ADD12C,0.600000*%
G04 #@! TD*
G04 #@! TA.AperFunction,Conductor*
%ADD13C,0.500000*%
G04 #@! TD*
G04 APERTURE END LIST*
D10*
X141287500Y-33505000D03*
X145787500Y-33505000D03*
X141287500Y-40005000D03*
X145787500Y-40005000D03*
X133667500Y-33505000D03*
X138167500Y-33505000D03*
X133667500Y-40005000D03*
X138167500Y-40005000D03*
X87947500Y-33505000D03*
X92447500Y-33505000D03*
X87947500Y-40005000D03*
X92447500Y-40005000D03*
X100067500Y-40005000D03*
X95567500Y-40005000D03*
X100067500Y-33505000D03*
X95567500Y-33505000D03*
X107687500Y-40005000D03*
X103187500Y-40005000D03*
X107687500Y-33505000D03*
X103187500Y-33505000D03*
X110807500Y-33505000D03*
X115307500Y-33505000D03*
X110807500Y-40005000D03*
X115307500Y-40005000D03*
X122927500Y-40005000D03*
X118427500Y-40005000D03*
X122927500Y-33505000D03*
X118427500Y-33505000D03*
X126047500Y-33505000D03*
X130547500Y-33505000D03*
X126047500Y-40005000D03*
X130547500Y-40005000D03*
X149225000Y-39370000D03*
X149225000Y-36830000D03*
X149225000Y-34290000D03*
X84455000Y-39370000D03*
X84455000Y-36830000D03*
X84455000Y-34290000D03*
D11*
X93662500Y-36830000D03*
D12*
X147955000Y-35570000D02*
X133667500Y-35570000D01*
X149225000Y-34300000D02*
X147955000Y-35570000D01*
X133667500Y-35570000D02*
X133667500Y-33515000D01*
X133667500Y-35570000D02*
X118427500Y-35570000D01*
X118427500Y-35570000D02*
X118427500Y-33515000D01*
X118427500Y-35570000D02*
X103187500Y-35570000D01*
X103187500Y-35570000D02*
X103187500Y-33515000D01*
X87947500Y-35570000D02*
X87947500Y-33515000D01*
X103187500Y-35570000D02*
X87947500Y-35570000D01*
X149255000Y-36830000D02*
X141317500Y-36830000D01*
X141317500Y-36830000D02*
X141317500Y-40005000D01*
X141317500Y-36830000D02*
X126077500Y-36830000D01*
X126077500Y-36830000D02*
X126077500Y-40005000D01*
X110837500Y-36830000D02*
X110837500Y-40005000D01*
X126077500Y-36830000D02*
X110837500Y-36830000D01*
X110837500Y-36830000D02*
X95597500Y-36830000D01*
X95597500Y-36830000D02*
X95597500Y-40005000D01*
X115252500Y-36830000D02*
X115307500Y-36775000D01*
D13*
X83820000Y-39370000D02*
X85022081Y-39370000D01*
D12*
X84455000Y-36830000D02*
X93662500Y-36830000D01*
M02*
