G04 #@! TF.GenerationSoftware,KiCad,Pcbnew,(5.1.4)-1*
G04 #@! TF.CreationDate,2020-03-09T15:05:49+03:00*
G04 #@! TF.ProjectId,L293,4c323933-2e6b-4696-9361-645f70636258,rev?*
G04 #@! TF.SameCoordinates,Original*
G04 #@! TF.FileFunction,Soldermask,Top*
G04 #@! TF.FilePolarity,Negative*
%FSLAX46Y46*%
G04 Gerber Fmt 4.6, Leading zero omitted, Abs format (unit mm)*
G04 Created by KiCad (PCBNEW (5.1.4)-1) date 2020-03-09 15:05:49*
%MOMM*%
%LPD*%
G04 APERTURE LIST*
%ADD10C,0.100000*%
G04 APERTURE END LIST*
D10*
G36*
X126081059Y-86016485D02*
G01*
X126211579Y-86042447D01*
X126512042Y-86166903D01*
X126782451Y-86347585D01*
X127012415Y-86577549D01*
X127193097Y-86847958D01*
X127317280Y-87147761D01*
X127317553Y-87148422D01*
X127377026Y-87447409D01*
X127381000Y-87467391D01*
X127381000Y-87792609D01*
X127317553Y-88111579D01*
X127193097Y-88412042D01*
X127012415Y-88682451D01*
X126782451Y-88912415D01*
X126512042Y-89093097D01*
X126211579Y-89217553D01*
X126105256Y-89238702D01*
X125892611Y-89281000D01*
X125567389Y-89281000D01*
X125354744Y-89238702D01*
X125248421Y-89217553D01*
X124947958Y-89093097D01*
X124677549Y-88912415D01*
X124447585Y-88682451D01*
X124266903Y-88412042D01*
X124142447Y-88111579D01*
X124079000Y-87792609D01*
X124079000Y-87467391D01*
X124082975Y-87447409D01*
X124142447Y-87148422D01*
X124142721Y-87147761D01*
X124266903Y-86847958D01*
X124447585Y-86577549D01*
X124677549Y-86347585D01*
X124947958Y-86166903D01*
X125248421Y-86042447D01*
X125378941Y-86016485D01*
X125567389Y-85979000D01*
X125892611Y-85979000D01*
X126081059Y-86016485D01*
X126081059Y-86016485D01*
G37*
G36*
X93061059Y-86016485D02*
G01*
X93191579Y-86042447D01*
X93492042Y-86166903D01*
X93762451Y-86347585D01*
X93992415Y-86577549D01*
X94173097Y-86847958D01*
X94297280Y-87147761D01*
X94297553Y-87148422D01*
X94357026Y-87447409D01*
X94361000Y-87467391D01*
X94361000Y-87792609D01*
X94297553Y-88111579D01*
X94173097Y-88412042D01*
X93992415Y-88682451D01*
X93762451Y-88912415D01*
X93492042Y-89093097D01*
X93191579Y-89217553D01*
X93085256Y-89238702D01*
X92872611Y-89281000D01*
X92547389Y-89281000D01*
X92334744Y-89238702D01*
X92228421Y-89217553D01*
X91927958Y-89093097D01*
X91657549Y-88912415D01*
X91427585Y-88682451D01*
X91246903Y-88412042D01*
X91122447Y-88111579D01*
X91059000Y-87792609D01*
X91059000Y-87467391D01*
X91062975Y-87447409D01*
X91122447Y-87148422D01*
X91122721Y-87147761D01*
X91246903Y-86847958D01*
X91427585Y-86577549D01*
X91657549Y-86347585D01*
X91927958Y-86166903D01*
X92228421Y-86042447D01*
X92358941Y-86016485D01*
X92547389Y-85979000D01*
X92872611Y-85979000D01*
X93061059Y-86016485D01*
X93061059Y-86016485D01*
G37*
G36*
X101902585Y-85473802D02*
G01*
X102052410Y-85503604D01*
X102334674Y-85620521D01*
X102588705Y-85790259D01*
X102804741Y-86006295D01*
X102974479Y-86260326D01*
X103044458Y-86429272D01*
X103091396Y-86542591D01*
X103151000Y-86842239D01*
X103151000Y-87147761D01*
X103136635Y-87219980D01*
X103091396Y-87447410D01*
X102974479Y-87729674D01*
X102804741Y-87983705D01*
X102588705Y-88199741D01*
X102334674Y-88369479D01*
X102052410Y-88486396D01*
X101902585Y-88516198D01*
X101752761Y-88546000D01*
X101447239Y-88546000D01*
X101297415Y-88516198D01*
X101147590Y-88486396D01*
X100865326Y-88369479D01*
X100611295Y-88199741D01*
X100395259Y-87983705D01*
X100225521Y-87729674D01*
X100108604Y-87447410D01*
X100063365Y-87219980D01*
X100049000Y-87147761D01*
X100049000Y-86842239D01*
X100108604Y-86542591D01*
X100155542Y-86429272D01*
X100225521Y-86260326D01*
X100395259Y-86006295D01*
X100611295Y-85790259D01*
X100865326Y-85620521D01*
X101147590Y-85503604D01*
X101297415Y-85473802D01*
X101447239Y-85444000D01*
X101752761Y-85444000D01*
X101902585Y-85473802D01*
X101902585Y-85473802D01*
G37*
G36*
X108231000Y-88546000D02*
G01*
X105129000Y-88546000D01*
X105129000Y-85444000D01*
X108231000Y-85444000D01*
X108231000Y-88546000D01*
X108231000Y-88546000D01*
G37*
G36*
X113246000Y-87528500D02*
G01*
X111544000Y-87528500D01*
X111544000Y-85826500D01*
X113246000Y-85826500D01*
X113246000Y-87528500D01*
X113246000Y-87528500D01*
G37*
G36*
X116143228Y-85859203D02*
G01*
X116298100Y-85923353D01*
X116437481Y-86016485D01*
X116556015Y-86135019D01*
X116649147Y-86274400D01*
X116713297Y-86429272D01*
X116746000Y-86593684D01*
X116746000Y-86761316D01*
X116713297Y-86925728D01*
X116649147Y-87080600D01*
X116556015Y-87219981D01*
X116437481Y-87338515D01*
X116298100Y-87431647D01*
X116143228Y-87495797D01*
X115978816Y-87528500D01*
X115811184Y-87528500D01*
X115646772Y-87495797D01*
X115491900Y-87431647D01*
X115352519Y-87338515D01*
X115233985Y-87219981D01*
X115140853Y-87080600D01*
X115076703Y-86925728D01*
X115044000Y-86761316D01*
X115044000Y-86593684D01*
X115076703Y-86429272D01*
X115140853Y-86274400D01*
X115233985Y-86135019D01*
X115352519Y-86016485D01*
X115491900Y-85923353D01*
X115646772Y-85859203D01*
X115811184Y-85826500D01*
X115978816Y-85826500D01*
X116143228Y-85859203D01*
X116143228Y-85859203D01*
G37*
G36*
X93611000Y-83451000D02*
G01*
X91809000Y-83451000D01*
X91809000Y-81649000D01*
X93611000Y-81649000D01*
X93611000Y-83451000D01*
X93611000Y-83451000D01*
G37*
G36*
X126631000Y-83451000D02*
G01*
X124829000Y-83451000D01*
X124829000Y-81649000D01*
X126631000Y-81649000D01*
X126631000Y-83451000D01*
X126631000Y-83451000D01*
G37*
G36*
X93611000Y-80911000D02*
G01*
X91809000Y-80911000D01*
X91809000Y-79109000D01*
X93611000Y-79109000D01*
X93611000Y-80911000D01*
X93611000Y-80911000D01*
G37*
G36*
X126631000Y-80911000D02*
G01*
X124829000Y-80911000D01*
X124829000Y-79109000D01*
X126631000Y-79109000D01*
X126631000Y-80911000D01*
X126631000Y-80911000D01*
G37*
G36*
X101181000Y-80126000D02*
G01*
X99479000Y-80126000D01*
X99479000Y-78624000D01*
X101181000Y-78624000D01*
X101181000Y-80126000D01*
X101181000Y-80126000D01*
G37*
G36*
X108801000Y-80126000D02*
G01*
X107099000Y-80126000D01*
X107099000Y-78624000D01*
X108801000Y-78624000D01*
X108801000Y-80126000D01*
X108801000Y-80126000D01*
G37*
G36*
X93611000Y-78371000D02*
G01*
X91809000Y-78371000D01*
X91809000Y-76569000D01*
X93611000Y-76569000D01*
X93611000Y-78371000D01*
X93611000Y-78371000D01*
G37*
G36*
X126631000Y-78371000D02*
G01*
X124829000Y-78371000D01*
X124829000Y-76569000D01*
X126631000Y-76569000D01*
X126631000Y-78371000D01*
X126631000Y-78371000D01*
G37*
G36*
X101181000Y-77586000D02*
G01*
X99479000Y-77586000D01*
X99479000Y-76084000D01*
X101181000Y-76084000D01*
X101181000Y-77586000D01*
X101181000Y-77586000D01*
G37*
G36*
X108801000Y-77586000D02*
G01*
X107099000Y-77586000D01*
X107099000Y-76084000D01*
X108801000Y-76084000D01*
X108801000Y-77586000D01*
X108801000Y-77586000D01*
G37*
G36*
X93611000Y-75831000D02*
G01*
X91809000Y-75831000D01*
X91809000Y-74029000D01*
X93611000Y-74029000D01*
X93611000Y-75831000D01*
X93611000Y-75831000D01*
G37*
G36*
X126631000Y-75831000D02*
G01*
X124829000Y-75831000D01*
X124829000Y-74029000D01*
X126631000Y-74029000D01*
X126631000Y-75831000D01*
X126631000Y-75831000D01*
G37*
G36*
X108801000Y-75046000D02*
G01*
X107099000Y-75046000D01*
X107099000Y-73544000D01*
X108801000Y-73544000D01*
X108801000Y-75046000D01*
X108801000Y-75046000D01*
G37*
G36*
X101181000Y-75046000D02*
G01*
X99479000Y-75046000D01*
X99479000Y-73544000D01*
X101181000Y-73544000D01*
X101181000Y-75046000D01*
X101181000Y-75046000D01*
G37*
G36*
X93611000Y-73291000D02*
G01*
X91809000Y-73291000D01*
X91809000Y-71489000D01*
X93611000Y-71489000D01*
X93611000Y-73291000D01*
X93611000Y-73291000D01*
G37*
G36*
X126631000Y-73291000D02*
G01*
X124829000Y-73291000D01*
X124829000Y-71489000D01*
X126631000Y-71489000D01*
X126631000Y-73291000D01*
X126631000Y-73291000D01*
G37*
G36*
X109201000Y-73006000D02*
G01*
X106699000Y-73006000D01*
X106699000Y-67964000D01*
X109201000Y-67964000D01*
X109201000Y-73006000D01*
X109201000Y-73006000D01*
G37*
G36*
X101581000Y-73006000D02*
G01*
X99079000Y-73006000D01*
X99079000Y-67964000D01*
X101581000Y-67964000D01*
X101581000Y-73006000D01*
X101581000Y-73006000D01*
G37*
G36*
X117621174Y-70690965D02*
G01*
X117658867Y-70702399D01*
X117693603Y-70720966D01*
X117724048Y-70745952D01*
X117749034Y-70776397D01*
X117767601Y-70811133D01*
X117779035Y-70848826D01*
X117783500Y-70894161D01*
X117783500Y-71980839D01*
X117779035Y-72026174D01*
X117767601Y-72063867D01*
X117749034Y-72098603D01*
X117724048Y-72129048D01*
X117693603Y-72154034D01*
X117658867Y-72172601D01*
X117621174Y-72184035D01*
X117575839Y-72188500D01*
X116739161Y-72188500D01*
X116693826Y-72184035D01*
X116656133Y-72172601D01*
X116621397Y-72154034D01*
X116590952Y-72129048D01*
X116565966Y-72098603D01*
X116547399Y-72063867D01*
X116535965Y-72026174D01*
X116531500Y-71980839D01*
X116531500Y-70894161D01*
X116535965Y-70848826D01*
X116547399Y-70811133D01*
X116565966Y-70776397D01*
X116590952Y-70745952D01*
X116621397Y-70720966D01*
X116656133Y-70702399D01*
X116693826Y-70690965D01*
X116739161Y-70686500D01*
X117575839Y-70686500D01*
X117621174Y-70690965D01*
X117621174Y-70690965D01*
G37*
G36*
X115571174Y-70690965D02*
G01*
X115608867Y-70702399D01*
X115643603Y-70720966D01*
X115674048Y-70745952D01*
X115699034Y-70776397D01*
X115717601Y-70811133D01*
X115729035Y-70848826D01*
X115733500Y-70894161D01*
X115733500Y-71980839D01*
X115729035Y-72026174D01*
X115717601Y-72063867D01*
X115699034Y-72098603D01*
X115674048Y-72129048D01*
X115643603Y-72154034D01*
X115608867Y-72172601D01*
X115571174Y-72184035D01*
X115525839Y-72188500D01*
X114689161Y-72188500D01*
X114643826Y-72184035D01*
X114606133Y-72172601D01*
X114571397Y-72154034D01*
X114540952Y-72129048D01*
X114515966Y-72098603D01*
X114497399Y-72063867D01*
X114485965Y-72026174D01*
X114481500Y-71980839D01*
X114481500Y-70894161D01*
X114485965Y-70848826D01*
X114497399Y-70811133D01*
X114515966Y-70776397D01*
X114540952Y-70745952D01*
X114571397Y-70720966D01*
X114606133Y-70702399D01*
X114643826Y-70690965D01*
X114689161Y-70686500D01*
X115525839Y-70686500D01*
X115571174Y-70690965D01*
X115571174Y-70690965D01*
G37*
G36*
X111078674Y-69545965D02*
G01*
X111116367Y-69557399D01*
X111151103Y-69575966D01*
X111181548Y-69600952D01*
X111206534Y-69631397D01*
X111225101Y-69666133D01*
X111236535Y-69703826D01*
X111241000Y-69749161D01*
X111241000Y-70585839D01*
X111236535Y-70631174D01*
X111225101Y-70668867D01*
X111206534Y-70703603D01*
X111181548Y-70734048D01*
X111151103Y-70759034D01*
X111116367Y-70777601D01*
X111078674Y-70789035D01*
X111033339Y-70793500D01*
X109946661Y-70793500D01*
X109901326Y-70789035D01*
X109863633Y-70777601D01*
X109828897Y-70759034D01*
X109798452Y-70734048D01*
X109773466Y-70703603D01*
X109754899Y-70668867D01*
X109743465Y-70631174D01*
X109739000Y-70585839D01*
X109739000Y-69749161D01*
X109743465Y-69703826D01*
X109754899Y-69666133D01*
X109773466Y-69631397D01*
X109798452Y-69600952D01*
X109828897Y-69575966D01*
X109863633Y-69557399D01*
X109901326Y-69545965D01*
X109946661Y-69541500D01*
X111033339Y-69541500D01*
X111078674Y-69545965D01*
X111078674Y-69545965D01*
G37*
G36*
X126631000Y-70751000D02*
G01*
X124829000Y-70751000D01*
X124829000Y-68949000D01*
X126631000Y-68949000D01*
X126631000Y-70751000D01*
X126631000Y-70751000D01*
G37*
G36*
X93611000Y-70751000D02*
G01*
X91809000Y-70751000D01*
X91809000Y-68949000D01*
X93611000Y-68949000D01*
X93611000Y-70751000D01*
X93611000Y-70751000D01*
G37*
G36*
X111078674Y-67495965D02*
G01*
X111116367Y-67507399D01*
X111151103Y-67525966D01*
X111181548Y-67550952D01*
X111206534Y-67581397D01*
X111225101Y-67616133D01*
X111236535Y-67653826D01*
X111241000Y-67699161D01*
X111241000Y-68535839D01*
X111236535Y-68581174D01*
X111225101Y-68618867D01*
X111206534Y-68653603D01*
X111181548Y-68684048D01*
X111151103Y-68709034D01*
X111116367Y-68727601D01*
X111078674Y-68739035D01*
X111033339Y-68743500D01*
X109946661Y-68743500D01*
X109901326Y-68739035D01*
X109863633Y-68727601D01*
X109828897Y-68709034D01*
X109798452Y-68684048D01*
X109773466Y-68653603D01*
X109754899Y-68618867D01*
X109743465Y-68581174D01*
X109739000Y-68535839D01*
X109739000Y-67699161D01*
X109743465Y-67653826D01*
X109754899Y-67616133D01*
X109773466Y-67581397D01*
X109798452Y-67550952D01*
X109828897Y-67525966D01*
X109863633Y-67507399D01*
X109901326Y-67495965D01*
X109946661Y-67491500D01*
X111033339Y-67491500D01*
X111078674Y-67495965D01*
X111078674Y-67495965D01*
G37*
G36*
X126631000Y-68211000D02*
G01*
X124829000Y-68211000D01*
X124829000Y-66409000D01*
X126631000Y-66409000D01*
X126631000Y-68211000D01*
X126631000Y-68211000D01*
G37*
G36*
X93611000Y-68211000D02*
G01*
X91809000Y-68211000D01*
X91809000Y-66409000D01*
X93611000Y-66409000D01*
X93611000Y-68211000D01*
X93611000Y-68211000D01*
G37*
G36*
X108801000Y-67426000D02*
G01*
X107099000Y-67426000D01*
X107099000Y-65924000D01*
X108801000Y-65924000D01*
X108801000Y-67426000D01*
X108801000Y-67426000D01*
G37*
G36*
X101181000Y-67426000D02*
G01*
X99479000Y-67426000D01*
X99479000Y-65924000D01*
X101181000Y-65924000D01*
X101181000Y-67426000D01*
X101181000Y-67426000D01*
G37*
G36*
X126631000Y-65671000D02*
G01*
X124829000Y-65671000D01*
X124829000Y-63869000D01*
X126631000Y-63869000D01*
X126631000Y-65671000D01*
X126631000Y-65671000D01*
G37*
G36*
X93611000Y-65671000D02*
G01*
X91809000Y-65671000D01*
X91809000Y-63869000D01*
X93611000Y-63869000D01*
X93611000Y-65671000D01*
X93611000Y-65671000D01*
G37*
G36*
X108801000Y-64886000D02*
G01*
X107099000Y-64886000D01*
X107099000Y-63384000D01*
X108801000Y-63384000D01*
X108801000Y-64886000D01*
X108801000Y-64886000D01*
G37*
G36*
X101181000Y-64886000D02*
G01*
X99479000Y-64886000D01*
X99479000Y-63384000D01*
X101181000Y-63384000D01*
X101181000Y-64886000D01*
X101181000Y-64886000D01*
G37*
G36*
X126631000Y-63131000D02*
G01*
X124829000Y-63131000D01*
X124829000Y-61329000D01*
X126631000Y-61329000D01*
X126631000Y-63131000D01*
X126631000Y-63131000D01*
G37*
G36*
X93611000Y-63131000D02*
G01*
X91809000Y-63131000D01*
X91809000Y-61329000D01*
X93611000Y-61329000D01*
X93611000Y-63131000D01*
X93611000Y-63131000D01*
G37*
G36*
X108801000Y-62346000D02*
G01*
X107099000Y-62346000D01*
X107099000Y-60844000D01*
X108801000Y-60844000D01*
X108801000Y-62346000D01*
X108801000Y-62346000D01*
G37*
G36*
X101181000Y-62346000D02*
G01*
X99479000Y-62346000D01*
X99479000Y-60844000D01*
X101181000Y-60844000D01*
X101181000Y-62346000D01*
X101181000Y-62346000D01*
G37*
G36*
X93611000Y-60591000D02*
G01*
X91809000Y-60591000D01*
X91809000Y-58789000D01*
X93611000Y-58789000D01*
X93611000Y-60591000D01*
X93611000Y-60591000D01*
G37*
G36*
X126631000Y-60591000D02*
G01*
X124829000Y-60591000D01*
X124829000Y-58789000D01*
X126631000Y-58789000D01*
X126631000Y-60591000D01*
X126631000Y-60591000D01*
G37*
G36*
X93085256Y-53001298D02*
G01*
X93191579Y-53022447D01*
X93492042Y-53146903D01*
X93762451Y-53327585D01*
X93992415Y-53557549D01*
X94035009Y-53621296D01*
X94173098Y-53827960D01*
X94297553Y-54128422D01*
X94361000Y-54447389D01*
X94361000Y-54772611D01*
X94297553Y-55091578D01*
X94192718Y-55344674D01*
X94173097Y-55392042D01*
X93992415Y-55662451D01*
X93762451Y-55892415D01*
X93492042Y-56073097D01*
X93191579Y-56197553D01*
X93085256Y-56218702D01*
X92872611Y-56261000D01*
X92547389Y-56261000D01*
X92334744Y-56218702D01*
X92228421Y-56197553D01*
X91927958Y-56073097D01*
X91657549Y-55892415D01*
X91427585Y-55662451D01*
X91246903Y-55392042D01*
X91227283Y-55344674D01*
X91122447Y-55091578D01*
X91059000Y-54772611D01*
X91059000Y-54447389D01*
X91122447Y-54128422D01*
X91246902Y-53827960D01*
X91384991Y-53621296D01*
X91427585Y-53557549D01*
X91657549Y-53327585D01*
X91927958Y-53146903D01*
X92228421Y-53022447D01*
X92334744Y-53001298D01*
X92547389Y-52959000D01*
X92872611Y-52959000D01*
X93085256Y-53001298D01*
X93085256Y-53001298D01*
G37*
G36*
X126105256Y-53001298D02*
G01*
X126211579Y-53022447D01*
X126512042Y-53146903D01*
X126782451Y-53327585D01*
X127012415Y-53557549D01*
X127055009Y-53621296D01*
X127193098Y-53827960D01*
X127317553Y-54128422D01*
X127381000Y-54447389D01*
X127381000Y-54772611D01*
X127317553Y-55091578D01*
X127212718Y-55344674D01*
X127193097Y-55392042D01*
X127012415Y-55662451D01*
X126782451Y-55892415D01*
X126512042Y-56073097D01*
X126211579Y-56197553D01*
X126105256Y-56218702D01*
X125892611Y-56261000D01*
X125567389Y-56261000D01*
X125354744Y-56218702D01*
X125248421Y-56197553D01*
X124947958Y-56073097D01*
X124677549Y-55892415D01*
X124447585Y-55662451D01*
X124266903Y-55392042D01*
X124247283Y-55344674D01*
X124142447Y-55091578D01*
X124079000Y-54772611D01*
X124079000Y-54447389D01*
X124142447Y-54128422D01*
X124266902Y-53827960D01*
X124404991Y-53621296D01*
X124447585Y-53557549D01*
X124677549Y-53327585D01*
X124947958Y-53146903D01*
X125248421Y-53022447D01*
X125354744Y-53001298D01*
X125567389Y-52959000D01*
X125892611Y-52959000D01*
X126105256Y-53001298D01*
X126105256Y-53001298D01*
G37*
G36*
X118412585Y-53088802D02*
G01*
X118562410Y-53118604D01*
X118844674Y-53235521D01*
X119098705Y-53405259D01*
X119314741Y-53621295D01*
X119484479Y-53875326D01*
X119601396Y-54157590D01*
X119661000Y-54457240D01*
X119661000Y-54762760D01*
X119601396Y-55062410D01*
X119484479Y-55344674D01*
X119314741Y-55598705D01*
X119098705Y-55814741D01*
X118844674Y-55984479D01*
X118562410Y-56101396D01*
X118412585Y-56131198D01*
X118262761Y-56161000D01*
X117957239Y-56161000D01*
X117807415Y-56131198D01*
X117657590Y-56101396D01*
X117375326Y-55984479D01*
X117121295Y-55814741D01*
X116905259Y-55598705D01*
X116735521Y-55344674D01*
X116618604Y-55062410D01*
X116559000Y-54762760D01*
X116559000Y-54457240D01*
X116618604Y-54157590D01*
X116735521Y-53875326D01*
X116905259Y-53621295D01*
X117121295Y-53405259D01*
X117375326Y-53235521D01*
X117657590Y-53118604D01*
X117807415Y-53088802D01*
X117957239Y-53059000D01*
X118262761Y-53059000D01*
X118412585Y-53088802D01*
X118412585Y-53088802D01*
G37*
G36*
X114581000Y-56161000D02*
G01*
X111479000Y-56161000D01*
X111479000Y-53059000D01*
X114581000Y-53059000D01*
X114581000Y-56161000D01*
X114581000Y-56161000D01*
G37*
G36*
X101881000Y-56161000D02*
G01*
X98779000Y-56161000D01*
X98779000Y-53059000D01*
X101881000Y-53059000D01*
X101881000Y-56161000D01*
X101881000Y-56161000D01*
G37*
G36*
X105712585Y-53088802D02*
G01*
X105862410Y-53118604D01*
X106144674Y-53235521D01*
X106398705Y-53405259D01*
X106614741Y-53621295D01*
X106784479Y-53875326D01*
X106901396Y-54157590D01*
X106961000Y-54457240D01*
X106961000Y-54762760D01*
X106901396Y-55062410D01*
X106784479Y-55344674D01*
X106614741Y-55598705D01*
X106398705Y-55814741D01*
X106144674Y-55984479D01*
X105862410Y-56101396D01*
X105712585Y-56131198D01*
X105562761Y-56161000D01*
X105257239Y-56161000D01*
X105107415Y-56131198D01*
X104957590Y-56101396D01*
X104675326Y-55984479D01*
X104421295Y-55814741D01*
X104205259Y-55598705D01*
X104035521Y-55344674D01*
X103918604Y-55062410D01*
X103859000Y-54762760D01*
X103859000Y-54457240D01*
X103918604Y-54157590D01*
X104035521Y-53875326D01*
X104205259Y-53621295D01*
X104421295Y-53405259D01*
X104675326Y-53235521D01*
X104957590Y-53118604D01*
X105107415Y-53088802D01*
X105257239Y-53059000D01*
X105562761Y-53059000D01*
X105712585Y-53088802D01*
X105712585Y-53088802D01*
G37*
M02*
