G04 #@! TF.GenerationSoftware,KiCad,Pcbnew,(5.1.4)-1*
G04 #@! TF.CreationDate,2020-03-09T15:05:49+03:00*
G04 #@! TF.ProjectId,L293,4c323933-2e6b-4696-9361-645f70636258,rev?*
G04 #@! TF.SameCoordinates,Original*
G04 #@! TF.FileFunction,Copper,L2,Bot*
G04 #@! TF.FilePolarity,Positive*
%FSLAX46Y46*%
G04 Gerber Fmt 4.6, Leading zero omitted, Abs format (unit mm)*
G04 Created by KiCad (PCBNEW (5.1.4)-1) date 2020-03-09 15:05:49*
%MOMM*%
%LPD*%
G04 APERTURE LIST*
%ADD10C,0.100000*%
%ADD11C,1.150000*%
%ADD12C,1.600000*%
%ADD13R,1.600000X1.600000*%
%ADD14R,1.700000X1.700000*%
%ADD15R,3.000000X3.000000*%
%ADD16C,3.000000*%
%ADD17R,1.560000X0.650000*%
%ADD18R,1.600000X1.400000*%
%ADD19R,2.400000X2.400000*%
%ADD20C,0.400000*%
%ADD21C,0.600000*%
%ADD22C,1.200000*%
%ADD23C,0.800000*%
G04 APERTURE END LIST*
D10*
G36*
X120807005Y-84126204D02*
G01*
X120831273Y-84129804D01*
X120855072Y-84135765D01*
X120878171Y-84144030D01*
X120900350Y-84154520D01*
X120921393Y-84167132D01*
X120941099Y-84181747D01*
X120959277Y-84198223D01*
X120975753Y-84216401D01*
X120990368Y-84236107D01*
X121002980Y-84257150D01*
X121013470Y-84279329D01*
X121021735Y-84302428D01*
X121027696Y-84326227D01*
X121031296Y-84350495D01*
X121032500Y-84374999D01*
X121032500Y-85025001D01*
X121031296Y-85049505D01*
X121027696Y-85073773D01*
X121021735Y-85097572D01*
X121013470Y-85120671D01*
X121002980Y-85142850D01*
X120990368Y-85163893D01*
X120975753Y-85183599D01*
X120959277Y-85201777D01*
X120941099Y-85218253D01*
X120921393Y-85232868D01*
X120900350Y-85245480D01*
X120878171Y-85255970D01*
X120855072Y-85264235D01*
X120831273Y-85270196D01*
X120807005Y-85273796D01*
X120782501Y-85275000D01*
X119882499Y-85275000D01*
X119857995Y-85273796D01*
X119833727Y-85270196D01*
X119809928Y-85264235D01*
X119786829Y-85255970D01*
X119764650Y-85245480D01*
X119743607Y-85232868D01*
X119723901Y-85218253D01*
X119705723Y-85201777D01*
X119689247Y-85183599D01*
X119674632Y-85163893D01*
X119662020Y-85142850D01*
X119651530Y-85120671D01*
X119643265Y-85097572D01*
X119637304Y-85073773D01*
X119633704Y-85049505D01*
X119632500Y-85025001D01*
X119632500Y-84374999D01*
X119633704Y-84350495D01*
X119637304Y-84326227D01*
X119643265Y-84302428D01*
X119651530Y-84279329D01*
X119662020Y-84257150D01*
X119674632Y-84236107D01*
X119689247Y-84216401D01*
X119705723Y-84198223D01*
X119723901Y-84181747D01*
X119743607Y-84167132D01*
X119764650Y-84154520D01*
X119786829Y-84144030D01*
X119809928Y-84135765D01*
X119833727Y-84129804D01*
X119857995Y-84126204D01*
X119882499Y-84125000D01*
X120782501Y-84125000D01*
X120807005Y-84126204D01*
X120807005Y-84126204D01*
G37*
D11*
X120332500Y-84700000D03*
D10*
G36*
X120807005Y-86176204D02*
G01*
X120831273Y-86179804D01*
X120855072Y-86185765D01*
X120878171Y-86194030D01*
X120900350Y-86204520D01*
X120921393Y-86217132D01*
X120941099Y-86231747D01*
X120959277Y-86248223D01*
X120975753Y-86266401D01*
X120990368Y-86286107D01*
X121002980Y-86307150D01*
X121013470Y-86329329D01*
X121021735Y-86352428D01*
X121027696Y-86376227D01*
X121031296Y-86400495D01*
X121032500Y-86424999D01*
X121032500Y-87075001D01*
X121031296Y-87099505D01*
X121027696Y-87123773D01*
X121021735Y-87147572D01*
X121013470Y-87170671D01*
X121002980Y-87192850D01*
X120990368Y-87213893D01*
X120975753Y-87233599D01*
X120959277Y-87251777D01*
X120941099Y-87268253D01*
X120921393Y-87282868D01*
X120900350Y-87295480D01*
X120878171Y-87305970D01*
X120855072Y-87314235D01*
X120831273Y-87320196D01*
X120807005Y-87323796D01*
X120782501Y-87325000D01*
X119882499Y-87325000D01*
X119857995Y-87323796D01*
X119833727Y-87320196D01*
X119809928Y-87314235D01*
X119786829Y-87305970D01*
X119764650Y-87295480D01*
X119743607Y-87282868D01*
X119723901Y-87268253D01*
X119705723Y-87251777D01*
X119689247Y-87233599D01*
X119674632Y-87213893D01*
X119662020Y-87192850D01*
X119651530Y-87170671D01*
X119643265Y-87147572D01*
X119637304Y-87123773D01*
X119633704Y-87099505D01*
X119632500Y-87075001D01*
X119632500Y-86424999D01*
X119633704Y-86400495D01*
X119637304Y-86376227D01*
X119643265Y-86352428D01*
X119651530Y-86329329D01*
X119662020Y-86307150D01*
X119674632Y-86286107D01*
X119689247Y-86266401D01*
X119705723Y-86248223D01*
X119723901Y-86231747D01*
X119743607Y-86217132D01*
X119764650Y-86204520D01*
X119786829Y-86194030D01*
X119809928Y-86185765D01*
X119833727Y-86179804D01*
X119857995Y-86176204D01*
X119882499Y-86175000D01*
X120782501Y-86175000D01*
X120807005Y-86176204D01*
X120807005Y-86176204D01*
G37*
D11*
X120332500Y-86750000D03*
D12*
X115895000Y-86677500D03*
D13*
X112395000Y-86677500D03*
D14*
X125730000Y-82550000D03*
X125730000Y-80010000D03*
X125730000Y-77470000D03*
X125730000Y-74930000D03*
X125730000Y-72390000D03*
X125730000Y-69850000D03*
X125730000Y-67310000D03*
X125730000Y-64770000D03*
X125730000Y-62230000D03*
X125730000Y-59690000D03*
X92710000Y-62230000D03*
X92710000Y-64770000D03*
X92710000Y-67310000D03*
X92710000Y-69850000D03*
X92710000Y-72390000D03*
X92710000Y-74930000D03*
X92710000Y-77470000D03*
X92710000Y-80010000D03*
X92710000Y-59690000D03*
X92710000Y-82550000D03*
D10*
G36*
X100044505Y-81851204D02*
G01*
X100068773Y-81854804D01*
X100092572Y-81860765D01*
X100115671Y-81869030D01*
X100137850Y-81879520D01*
X100158893Y-81892132D01*
X100178599Y-81906747D01*
X100196777Y-81923223D01*
X100213253Y-81941401D01*
X100227868Y-81961107D01*
X100240480Y-81982150D01*
X100250970Y-82004329D01*
X100259235Y-82027428D01*
X100265196Y-82051227D01*
X100268796Y-82075495D01*
X100270000Y-82099999D01*
X100270000Y-83000001D01*
X100268796Y-83024505D01*
X100265196Y-83048773D01*
X100259235Y-83072572D01*
X100250970Y-83095671D01*
X100240480Y-83117850D01*
X100227868Y-83138893D01*
X100213253Y-83158599D01*
X100196777Y-83176777D01*
X100178599Y-83193253D01*
X100158893Y-83207868D01*
X100137850Y-83220480D01*
X100115671Y-83230970D01*
X100092572Y-83239235D01*
X100068773Y-83245196D01*
X100044505Y-83248796D01*
X100020001Y-83250000D01*
X99369999Y-83250000D01*
X99345495Y-83248796D01*
X99321227Y-83245196D01*
X99297428Y-83239235D01*
X99274329Y-83230970D01*
X99252150Y-83220480D01*
X99231107Y-83207868D01*
X99211401Y-83193253D01*
X99193223Y-83176777D01*
X99176747Y-83158599D01*
X99162132Y-83138893D01*
X99149520Y-83117850D01*
X99139030Y-83095671D01*
X99130765Y-83072572D01*
X99124804Y-83048773D01*
X99121204Y-83024505D01*
X99120000Y-83000001D01*
X99120000Y-82099999D01*
X99121204Y-82075495D01*
X99124804Y-82051227D01*
X99130765Y-82027428D01*
X99139030Y-82004329D01*
X99149520Y-81982150D01*
X99162132Y-81961107D01*
X99176747Y-81941401D01*
X99193223Y-81923223D01*
X99211401Y-81906747D01*
X99231107Y-81892132D01*
X99252150Y-81879520D01*
X99274329Y-81869030D01*
X99297428Y-81860765D01*
X99321227Y-81854804D01*
X99345495Y-81851204D01*
X99369999Y-81850000D01*
X100020001Y-81850000D01*
X100044505Y-81851204D01*
X100044505Y-81851204D01*
G37*
D11*
X99695000Y-82550000D03*
D10*
G36*
X97994505Y-81851204D02*
G01*
X98018773Y-81854804D01*
X98042572Y-81860765D01*
X98065671Y-81869030D01*
X98087850Y-81879520D01*
X98108893Y-81892132D01*
X98128599Y-81906747D01*
X98146777Y-81923223D01*
X98163253Y-81941401D01*
X98177868Y-81961107D01*
X98190480Y-81982150D01*
X98200970Y-82004329D01*
X98209235Y-82027428D01*
X98215196Y-82051227D01*
X98218796Y-82075495D01*
X98220000Y-82099999D01*
X98220000Y-83000001D01*
X98218796Y-83024505D01*
X98215196Y-83048773D01*
X98209235Y-83072572D01*
X98200970Y-83095671D01*
X98190480Y-83117850D01*
X98177868Y-83138893D01*
X98163253Y-83158599D01*
X98146777Y-83176777D01*
X98128599Y-83193253D01*
X98108893Y-83207868D01*
X98087850Y-83220480D01*
X98065671Y-83230970D01*
X98042572Y-83239235D01*
X98018773Y-83245196D01*
X97994505Y-83248796D01*
X97970001Y-83250000D01*
X97319999Y-83250000D01*
X97295495Y-83248796D01*
X97271227Y-83245196D01*
X97247428Y-83239235D01*
X97224329Y-83230970D01*
X97202150Y-83220480D01*
X97181107Y-83207868D01*
X97161401Y-83193253D01*
X97143223Y-83176777D01*
X97126747Y-83158599D01*
X97112132Y-83138893D01*
X97099520Y-83117850D01*
X97089030Y-83095671D01*
X97080765Y-83072572D01*
X97074804Y-83048773D01*
X97071204Y-83024505D01*
X97070000Y-83000001D01*
X97070000Y-82099999D01*
X97071204Y-82075495D01*
X97074804Y-82051227D01*
X97080765Y-82027428D01*
X97089030Y-82004329D01*
X97099520Y-81982150D01*
X97112132Y-81961107D01*
X97126747Y-81941401D01*
X97143223Y-81923223D01*
X97161401Y-81906747D01*
X97181107Y-81892132D01*
X97202150Y-81879520D01*
X97224329Y-81869030D01*
X97247428Y-81860765D01*
X97271227Y-81854804D01*
X97295495Y-81851204D01*
X97319999Y-81850000D01*
X97970001Y-81850000D01*
X97994505Y-81851204D01*
X97994505Y-81851204D01*
G37*
D11*
X97645000Y-82550000D03*
D15*
X106680000Y-86995000D03*
D16*
X101600000Y-86995000D03*
X105410000Y-54610000D03*
D15*
X100330000Y-54610000D03*
X113030000Y-54610000D03*
D16*
X118110000Y-54610000D03*
D17*
X117555000Y-78425000D03*
X117555000Y-79375000D03*
X117555000Y-80325000D03*
X114855000Y-80325000D03*
X114855000Y-78425000D03*
X114855000Y-73345000D03*
X114855000Y-75245000D03*
X117555000Y-75245000D03*
X117555000Y-74295000D03*
X117555000Y-73345000D03*
X114855000Y-68265000D03*
X114855000Y-70165000D03*
X117555000Y-70165000D03*
X117555000Y-69215000D03*
X117555000Y-68265000D03*
X117555000Y-63185000D03*
X117555000Y-64135000D03*
X117555000Y-65085000D03*
X114855000Y-65085000D03*
X114855000Y-63185000D03*
D18*
X100330000Y-61595000D03*
X107950000Y-79375000D03*
X100330000Y-64135000D03*
X107950000Y-76835000D03*
X100330000Y-66675000D03*
X107950000Y-74295000D03*
D19*
X100330000Y-69215000D03*
X107950000Y-71755000D03*
X100330000Y-71755000D03*
X107950000Y-69215000D03*
D18*
X100330000Y-74295000D03*
X107950000Y-66675000D03*
X100330000Y-76835000D03*
X107950000Y-64135000D03*
X100330000Y-79375000D03*
X107950000Y-61595000D03*
D12*
X110807500Y-61912500D03*
X112715000Y-63185000D03*
X112715000Y-68265000D03*
X112715000Y-73345000D03*
X112715000Y-78425000D03*
X119695000Y-65085000D03*
X119697500Y-70167500D03*
X119695000Y-75245000D03*
X119695000Y-80325000D03*
X95885000Y-82550000D03*
D20*
X116205000Y-69215000D02*
X117555000Y-69215000D01*
X117555000Y-64135000D02*
X116205000Y-64135000D01*
X116205000Y-64135000D02*
X116205000Y-69215000D01*
X116205000Y-69215000D02*
X116205000Y-74295000D01*
X116522500Y-74295000D02*
X117555000Y-74295000D01*
X116205000Y-74295000D02*
X116522500Y-74295000D01*
X116205000Y-74295000D02*
X116205000Y-79375000D01*
X116205000Y-79375000D02*
X117555000Y-79375000D01*
X116205000Y-79375000D02*
X116205000Y-82232500D01*
D21*
X121285000Y-82232500D02*
X123507500Y-80010000D01*
X123507500Y-80010000D02*
X125730000Y-80010000D01*
X120332500Y-84025000D02*
X120332500Y-82232500D01*
X120332500Y-84700000D02*
X120332500Y-84025000D01*
X116205000Y-82232500D02*
X120332500Y-82232500D01*
X120332500Y-82232500D02*
X121285000Y-82232500D01*
X117555000Y-78425000D02*
X120330000Y-78425000D01*
X121285000Y-77470000D02*
X125730000Y-77470000D01*
X120330000Y-78425000D02*
X121285000Y-77470000D01*
X117555000Y-73345000D02*
X120970000Y-73345000D01*
X120970000Y-73345000D02*
X122555000Y-74930000D01*
X122555000Y-74930000D02*
X125730000Y-74930000D01*
X123190000Y-72390000D02*
X125730000Y-72390000D01*
X121285000Y-70485000D02*
X123190000Y-72390000D01*
X121285000Y-68580000D02*
X121285000Y-70485000D01*
X117555000Y-68265000D02*
X120970000Y-68265000D01*
X120970000Y-68265000D02*
X121285000Y-68580000D01*
X117555000Y-63185000D02*
X120970000Y-63185000D01*
X120970000Y-63185000D02*
X122555000Y-64770000D01*
X122555000Y-64770000D02*
X122555000Y-69215000D01*
X123190000Y-69850000D02*
X125730000Y-69850000D01*
X122555000Y-69215000D02*
X123190000Y-69850000D01*
X124142500Y-62230000D02*
X125730000Y-62230000D01*
X122872500Y-60960000D02*
X124142500Y-62230000D01*
X110807500Y-61912500D02*
X111760000Y-60960000D01*
X111760000Y-60960000D02*
X122872500Y-60960000D01*
X114855000Y-63185000D02*
X112715000Y-63185000D01*
X114855000Y-68265000D02*
X112715000Y-68265000D01*
X114855000Y-73345000D02*
X112715000Y-73345000D01*
X114855000Y-78425000D02*
X112715000Y-78425000D01*
X112715000Y-63185000D02*
X112715000Y-63185000D01*
X112715000Y-68265000D02*
X112715000Y-68265000D01*
X112715000Y-73345000D02*
X112715000Y-73345000D01*
X112715000Y-78425000D02*
X112715000Y-78425000D01*
D22*
X92710000Y-82550000D02*
X95885000Y-82550000D01*
X95885000Y-82550000D02*
X95885000Y-83185000D01*
X95885000Y-83185000D02*
X99695000Y-86995000D01*
X99695000Y-86995000D02*
X101600000Y-86995000D01*
D21*
X117555000Y-65085000D02*
X119695000Y-65085000D01*
X118935000Y-70165000D02*
X118937500Y-70167500D01*
X117555000Y-70165000D02*
X118935000Y-70165000D01*
X118937500Y-70167500D02*
X119697500Y-70167500D01*
X117555000Y-75245000D02*
X119695000Y-75245000D01*
X117555000Y-80325000D02*
X119695000Y-80325000D01*
X119695000Y-65085000D02*
X119695000Y-65085000D01*
X119697500Y-70167500D02*
X119697500Y-70167500D01*
X119695000Y-75245000D02*
X119695000Y-75245000D01*
X119695000Y-80325000D02*
X119695000Y-80325000D01*
D23*
X97645000Y-82550000D02*
X95885000Y-82550000D01*
D22*
X95885000Y-82550000D02*
X95885000Y-82550000D01*
X115895000Y-90162500D02*
X115895000Y-86677500D01*
X115570000Y-90487500D02*
X115895000Y-90162500D01*
X102235000Y-90487500D02*
X115570000Y-90487500D01*
X101600000Y-86995000D02*
X101600000Y-89852500D01*
X101600000Y-89852500D02*
X102235000Y-90487500D01*
D21*
X120260000Y-86677500D02*
X120332500Y-86750000D01*
X115895000Y-86677500D02*
X120260000Y-86677500D01*
D22*
X100330000Y-69215000D02*
X100330000Y-71755000D01*
X107950000Y-69215000D02*
X107950000Y-71755000D01*
X106680000Y-83820000D02*
X106680000Y-86995000D01*
X102870000Y-83820000D02*
X106680000Y-83820000D01*
X101600000Y-82550000D02*
X102870000Y-83820000D01*
X100330000Y-79375000D02*
X101600000Y-79375000D01*
X101600000Y-79375000D02*
X101600000Y-82550000D01*
D23*
X99695000Y-82550000D02*
X101600000Y-82550000D01*
D22*
X109855000Y-86677500D02*
X112395000Y-86677500D01*
X106680000Y-86995000D02*
X109537500Y-86995000D01*
X109537500Y-86995000D02*
X109855000Y-86677500D01*
D23*
X103505000Y-73342500D02*
X103505000Y-58420000D01*
X103505000Y-58420000D02*
X105410000Y-56515000D01*
X105410000Y-56515000D02*
X105410000Y-54610000D01*
X103505000Y-73342500D02*
X102552500Y-74295000D01*
X102552500Y-74295000D02*
X100330000Y-74295000D01*
X100330000Y-66675000D02*
X101600000Y-66675000D01*
X101600000Y-66675000D02*
X102235000Y-66040000D01*
X102235000Y-66040000D02*
X102235000Y-58420000D01*
X102235000Y-58420000D02*
X100330000Y-56515000D01*
X100330000Y-56515000D02*
X100330000Y-54610000D01*
X113030000Y-56832500D02*
X113030000Y-55880000D01*
X105727500Y-74295000D02*
X104775000Y-73342500D01*
X107950000Y-74295000D02*
X105727500Y-74295000D01*
X104775000Y-73342500D02*
X104775000Y-59690000D01*
X104775000Y-59690000D02*
X107315000Y-57150000D01*
X107315000Y-57150000D02*
X112712500Y-57150000D01*
X112712500Y-57150000D02*
X113030000Y-56832500D01*
X106680000Y-66675000D02*
X106045000Y-66040000D01*
X118110000Y-57150000D02*
X118110000Y-54610000D01*
X107950000Y-66675000D02*
X106680000Y-66675000D01*
X106045000Y-66040000D02*
X106045000Y-60642500D01*
X106045000Y-60642500D02*
X107950000Y-58737500D01*
X107950000Y-58737500D02*
X116522500Y-58737500D01*
X116522500Y-58737500D02*
X118110000Y-57150000D01*
D21*
X100330000Y-64135000D02*
X98425000Y-64135000D01*
X98425000Y-64135000D02*
X97790000Y-64770000D01*
X97790000Y-64770000D02*
X97790000Y-77470000D01*
X97790000Y-77470000D02*
X98425000Y-78105000D01*
X98425000Y-78105000D02*
X102870000Y-78105000D01*
X113350000Y-80325000D02*
X114855000Y-80325000D01*
X103505000Y-78105000D02*
X104775000Y-79375000D01*
X104775000Y-79375000D02*
X104775000Y-81280000D01*
X102870000Y-78105000D02*
X103505000Y-78105000D01*
X104775000Y-81280000D02*
X105410000Y-81915000D01*
X105410000Y-81915000D02*
X111760000Y-81915000D01*
X111760000Y-81915000D02*
X113350000Y-80325000D01*
X104775000Y-76835000D02*
X106045000Y-78105000D01*
X100330000Y-76835000D02*
X104775000Y-76835000D01*
X111760000Y-76835000D02*
X110490000Y-78105000D01*
X113350000Y-75245000D02*
X111760000Y-76835000D01*
X114855000Y-75245000D02*
X113350000Y-75245000D01*
X106045000Y-78105000D02*
X110490000Y-78105000D01*
X111445000Y-70165000D02*
X114855000Y-70165000D01*
X110490000Y-71120000D02*
X111445000Y-70165000D01*
X110490000Y-76200000D02*
X110490000Y-71120000D01*
X107950000Y-76835000D02*
X109855000Y-76835000D01*
X109855000Y-76835000D02*
X110490000Y-76200000D01*
X107950000Y-64135000D02*
X110490000Y-64135000D01*
X111440000Y-65085000D02*
X114855000Y-65085000D01*
X110490000Y-64135000D02*
X111440000Y-65085000D01*
M02*
