M48
INCH,TZ
T1C0.0315
T2C0.0354
T3C0.0394
T4C0.0598
T5C0.1260
%
G90
G05
T1
X39500Y-24250
X39500Y-25250
X39500Y-26250
X39500Y-27250
X39500Y-28250
X39500Y-29250
X39500Y-30250
X39500Y-31250
X42500Y-24250
X42500Y-25250
X42500Y-26250
X42500Y-27250
X42500Y-28250
X42500Y-29250
X42500Y-30250
X42500Y-31250
X44250Y-34125
X45628Y-34125
T2
X37750Y-32500
X43625Y-24375
X44376Y-24876
X44376Y-26876
X44376Y-28876
X44376Y-30876
X47124Y-25624
X47124Y-29624
X47124Y-31624
X47125Y-27625
T3
X36500Y-28500
X49500Y-32500
X36500Y-31500
X49500Y-29500
X49500Y-25500
X36500Y-24500
X36500Y-27500
X36500Y-30500
X49500Y-30500
X36500Y-32500
X49500Y-26500
X49500Y-23500
X36500Y-26500
X36500Y-29500
X49500Y-31500
X36500Y-23500
X49500Y-27500
X49500Y-28500
X49500Y-24500
X36500Y-25500
T4
X40000Y-34250
X42000Y-34250
X44500Y-21500
X46500Y-21500
X39500Y-21500
X41500Y-21500
T5
X36500Y-34500
X36500Y-21500
X49500Y-34500
X49500Y-21500
T0
M30
