G04 #@! TF.GenerationSoftware,KiCad,Pcbnew,(5.1.4)-1*
G04 #@! TF.CreationDate,2020-03-09T15:05:49+03:00*
G04 #@! TF.ProjectId,L293,4c323933-2e6b-4696-9361-645f70636258,rev?*
G04 #@! TF.SameCoordinates,Original*
G04 #@! TF.FileFunction,Paste,Top*
G04 #@! TF.FilePolarity,Positive*
%FSLAX46Y46*%
G04 Gerber Fmt 4.6, Leading zero omitted, Abs format (unit mm)*
G04 Created by KiCad (PCBNEW (5.1.4)-1) date 2020-03-09 15:05:49*
%MOMM*%
%LPD*%
G04 APERTURE LIST*
%ADD10C,0.100000*%
%ADD11C,1.150000*%
G04 APERTURE END LIST*
D10*
G36*
X115457005Y-70738704D02*
G01*
X115481273Y-70742304D01*
X115505072Y-70748265D01*
X115528171Y-70756530D01*
X115550350Y-70767020D01*
X115571393Y-70779632D01*
X115591099Y-70794247D01*
X115609277Y-70810723D01*
X115625753Y-70828901D01*
X115640368Y-70848607D01*
X115652980Y-70869650D01*
X115663470Y-70891829D01*
X115671735Y-70914928D01*
X115677696Y-70938727D01*
X115681296Y-70962995D01*
X115682500Y-70987499D01*
X115682500Y-71887501D01*
X115681296Y-71912005D01*
X115677696Y-71936273D01*
X115671735Y-71960072D01*
X115663470Y-71983171D01*
X115652980Y-72005350D01*
X115640368Y-72026393D01*
X115625753Y-72046099D01*
X115609277Y-72064277D01*
X115591099Y-72080753D01*
X115571393Y-72095368D01*
X115550350Y-72107980D01*
X115528171Y-72118470D01*
X115505072Y-72126735D01*
X115481273Y-72132696D01*
X115457005Y-72136296D01*
X115432501Y-72137500D01*
X114782499Y-72137500D01*
X114757995Y-72136296D01*
X114733727Y-72132696D01*
X114709928Y-72126735D01*
X114686829Y-72118470D01*
X114664650Y-72107980D01*
X114643607Y-72095368D01*
X114623901Y-72080753D01*
X114605723Y-72064277D01*
X114589247Y-72046099D01*
X114574632Y-72026393D01*
X114562020Y-72005350D01*
X114551530Y-71983171D01*
X114543265Y-71960072D01*
X114537304Y-71936273D01*
X114533704Y-71912005D01*
X114532500Y-71887501D01*
X114532500Y-70987499D01*
X114533704Y-70962995D01*
X114537304Y-70938727D01*
X114543265Y-70914928D01*
X114551530Y-70891829D01*
X114562020Y-70869650D01*
X114574632Y-70848607D01*
X114589247Y-70828901D01*
X114605723Y-70810723D01*
X114623901Y-70794247D01*
X114643607Y-70779632D01*
X114664650Y-70767020D01*
X114686829Y-70756530D01*
X114709928Y-70748265D01*
X114733727Y-70742304D01*
X114757995Y-70738704D01*
X114782499Y-70737500D01*
X115432501Y-70737500D01*
X115457005Y-70738704D01*
X115457005Y-70738704D01*
G37*
D11*
X115107500Y-71437500D03*
D10*
G36*
X117507005Y-70738704D02*
G01*
X117531273Y-70742304D01*
X117555072Y-70748265D01*
X117578171Y-70756530D01*
X117600350Y-70767020D01*
X117621393Y-70779632D01*
X117641099Y-70794247D01*
X117659277Y-70810723D01*
X117675753Y-70828901D01*
X117690368Y-70848607D01*
X117702980Y-70869650D01*
X117713470Y-70891829D01*
X117721735Y-70914928D01*
X117727696Y-70938727D01*
X117731296Y-70962995D01*
X117732500Y-70987499D01*
X117732500Y-71887501D01*
X117731296Y-71912005D01*
X117727696Y-71936273D01*
X117721735Y-71960072D01*
X117713470Y-71983171D01*
X117702980Y-72005350D01*
X117690368Y-72026393D01*
X117675753Y-72046099D01*
X117659277Y-72064277D01*
X117641099Y-72080753D01*
X117621393Y-72095368D01*
X117600350Y-72107980D01*
X117578171Y-72118470D01*
X117555072Y-72126735D01*
X117531273Y-72132696D01*
X117507005Y-72136296D01*
X117482501Y-72137500D01*
X116832499Y-72137500D01*
X116807995Y-72136296D01*
X116783727Y-72132696D01*
X116759928Y-72126735D01*
X116736829Y-72118470D01*
X116714650Y-72107980D01*
X116693607Y-72095368D01*
X116673901Y-72080753D01*
X116655723Y-72064277D01*
X116639247Y-72046099D01*
X116624632Y-72026393D01*
X116612020Y-72005350D01*
X116601530Y-71983171D01*
X116593265Y-71960072D01*
X116587304Y-71936273D01*
X116583704Y-71912005D01*
X116582500Y-71887501D01*
X116582500Y-70987499D01*
X116583704Y-70962995D01*
X116587304Y-70938727D01*
X116593265Y-70914928D01*
X116601530Y-70891829D01*
X116612020Y-70869650D01*
X116624632Y-70848607D01*
X116639247Y-70828901D01*
X116655723Y-70810723D01*
X116673901Y-70794247D01*
X116693607Y-70779632D01*
X116714650Y-70767020D01*
X116736829Y-70756530D01*
X116759928Y-70748265D01*
X116783727Y-70742304D01*
X116807995Y-70738704D01*
X116832499Y-70737500D01*
X117482501Y-70737500D01*
X117507005Y-70738704D01*
X117507005Y-70738704D01*
G37*
D11*
X117157500Y-71437500D03*
D10*
G36*
X110964505Y-67543704D02*
G01*
X110988773Y-67547304D01*
X111012572Y-67553265D01*
X111035671Y-67561530D01*
X111057850Y-67572020D01*
X111078893Y-67584632D01*
X111098599Y-67599247D01*
X111116777Y-67615723D01*
X111133253Y-67633901D01*
X111147868Y-67653607D01*
X111160480Y-67674650D01*
X111170970Y-67696829D01*
X111179235Y-67719928D01*
X111185196Y-67743727D01*
X111188796Y-67767995D01*
X111190000Y-67792499D01*
X111190000Y-68442501D01*
X111188796Y-68467005D01*
X111185196Y-68491273D01*
X111179235Y-68515072D01*
X111170970Y-68538171D01*
X111160480Y-68560350D01*
X111147868Y-68581393D01*
X111133253Y-68601099D01*
X111116777Y-68619277D01*
X111098599Y-68635753D01*
X111078893Y-68650368D01*
X111057850Y-68662980D01*
X111035671Y-68673470D01*
X111012572Y-68681735D01*
X110988773Y-68687696D01*
X110964505Y-68691296D01*
X110940001Y-68692500D01*
X110039999Y-68692500D01*
X110015495Y-68691296D01*
X109991227Y-68687696D01*
X109967428Y-68681735D01*
X109944329Y-68673470D01*
X109922150Y-68662980D01*
X109901107Y-68650368D01*
X109881401Y-68635753D01*
X109863223Y-68619277D01*
X109846747Y-68601099D01*
X109832132Y-68581393D01*
X109819520Y-68560350D01*
X109809030Y-68538171D01*
X109800765Y-68515072D01*
X109794804Y-68491273D01*
X109791204Y-68467005D01*
X109790000Y-68442501D01*
X109790000Y-67792499D01*
X109791204Y-67767995D01*
X109794804Y-67743727D01*
X109800765Y-67719928D01*
X109809030Y-67696829D01*
X109819520Y-67674650D01*
X109832132Y-67653607D01*
X109846747Y-67633901D01*
X109863223Y-67615723D01*
X109881401Y-67599247D01*
X109901107Y-67584632D01*
X109922150Y-67572020D01*
X109944329Y-67561530D01*
X109967428Y-67553265D01*
X109991227Y-67547304D01*
X110015495Y-67543704D01*
X110039999Y-67542500D01*
X110940001Y-67542500D01*
X110964505Y-67543704D01*
X110964505Y-67543704D01*
G37*
D11*
X110490000Y-68117500D03*
D10*
G36*
X110964505Y-69593704D02*
G01*
X110988773Y-69597304D01*
X111012572Y-69603265D01*
X111035671Y-69611530D01*
X111057850Y-69622020D01*
X111078893Y-69634632D01*
X111098599Y-69649247D01*
X111116777Y-69665723D01*
X111133253Y-69683901D01*
X111147868Y-69703607D01*
X111160480Y-69724650D01*
X111170970Y-69746829D01*
X111179235Y-69769928D01*
X111185196Y-69793727D01*
X111188796Y-69817995D01*
X111190000Y-69842499D01*
X111190000Y-70492501D01*
X111188796Y-70517005D01*
X111185196Y-70541273D01*
X111179235Y-70565072D01*
X111170970Y-70588171D01*
X111160480Y-70610350D01*
X111147868Y-70631393D01*
X111133253Y-70651099D01*
X111116777Y-70669277D01*
X111098599Y-70685753D01*
X111078893Y-70700368D01*
X111057850Y-70712980D01*
X111035671Y-70723470D01*
X111012572Y-70731735D01*
X110988773Y-70737696D01*
X110964505Y-70741296D01*
X110940001Y-70742500D01*
X110039999Y-70742500D01*
X110015495Y-70741296D01*
X109991227Y-70737696D01*
X109967428Y-70731735D01*
X109944329Y-70723470D01*
X109922150Y-70712980D01*
X109901107Y-70700368D01*
X109881401Y-70685753D01*
X109863223Y-70669277D01*
X109846747Y-70651099D01*
X109832132Y-70631393D01*
X109819520Y-70610350D01*
X109809030Y-70588171D01*
X109800765Y-70565072D01*
X109794804Y-70541273D01*
X109791204Y-70517005D01*
X109790000Y-70492501D01*
X109790000Y-69842499D01*
X109791204Y-69817995D01*
X109794804Y-69793727D01*
X109800765Y-69769928D01*
X109809030Y-69746829D01*
X109819520Y-69724650D01*
X109832132Y-69703607D01*
X109846747Y-69683901D01*
X109863223Y-69665723D01*
X109881401Y-69649247D01*
X109901107Y-69634632D01*
X109922150Y-69622020D01*
X109944329Y-69611530D01*
X109967428Y-69603265D01*
X109991227Y-69597304D01*
X110015495Y-69593704D01*
X110039999Y-69592500D01*
X110940001Y-69592500D01*
X110964505Y-69593704D01*
X110964505Y-69593704D01*
G37*
D11*
X110490000Y-70167500D03*
M02*
