G04 #@! TF.GenerationSoftware,KiCad,Pcbnew,(5.1.4)-1*
G04 #@! TF.CreationDate,2020-03-09T15:05:49+03:00*
G04 #@! TF.ProjectId,L293,4c323933-2e6b-4696-9361-645f70636258,rev?*
G04 #@! TF.SameCoordinates,Original*
G04 #@! TF.FileFunction,Soldermask,Bot*
G04 #@! TF.FilePolarity,Negative*
%FSLAX46Y46*%
G04 Gerber Fmt 4.6, Leading zero omitted, Abs format (unit mm)*
G04 Created by KiCad (PCBNEW (5.1.4)-1) date 2020-03-09 15:05:49*
%MOMM*%
%LPD*%
G04 APERTURE LIST*
%ADD10C,0.100000*%
G04 APERTURE END LIST*
D10*
G36*
X126081059Y-86016485D02*
G01*
X126211579Y-86042447D01*
X126408465Y-86124000D01*
X126491674Y-86158466D01*
X126512042Y-86166903D01*
X126782451Y-86347585D01*
X127012415Y-86577549D01*
X127193097Y-86847958D01*
X127317553Y-87148421D01*
X127321515Y-87168339D01*
X127377026Y-87447409D01*
X127381000Y-87467391D01*
X127381000Y-87792609D01*
X127317553Y-88111579D01*
X127193097Y-88412042D01*
X127012415Y-88682451D01*
X126782451Y-88912415D01*
X126512042Y-89093097D01*
X126211579Y-89217553D01*
X126105256Y-89238702D01*
X125892611Y-89281000D01*
X125567389Y-89281000D01*
X125354744Y-89238702D01*
X125248421Y-89217553D01*
X124947958Y-89093097D01*
X124677549Y-88912415D01*
X124447585Y-88682451D01*
X124266903Y-88412042D01*
X124142447Y-88111579D01*
X124079000Y-87792609D01*
X124079000Y-87467391D01*
X124082975Y-87447409D01*
X124138485Y-87168339D01*
X124142447Y-87148421D01*
X124266903Y-86847958D01*
X124447585Y-86577549D01*
X124677549Y-86347585D01*
X124947958Y-86166903D01*
X124968327Y-86158466D01*
X125051535Y-86124000D01*
X125248421Y-86042447D01*
X125378941Y-86016485D01*
X125567389Y-85979000D01*
X125892611Y-85979000D01*
X126081059Y-86016485D01*
X126081059Y-86016485D01*
G37*
G36*
X93061059Y-86016485D02*
G01*
X93191579Y-86042447D01*
X93388465Y-86124000D01*
X93471674Y-86158466D01*
X93492042Y-86166903D01*
X93762451Y-86347585D01*
X93992415Y-86577549D01*
X94173097Y-86847958D01*
X94297553Y-87148421D01*
X94301515Y-87168339D01*
X94357026Y-87447409D01*
X94361000Y-87467391D01*
X94361000Y-87792609D01*
X94297553Y-88111579D01*
X94173097Y-88412042D01*
X93992415Y-88682451D01*
X93762451Y-88912415D01*
X93492042Y-89093097D01*
X93191579Y-89217553D01*
X93085256Y-89238702D01*
X92872611Y-89281000D01*
X92547389Y-89281000D01*
X92334744Y-89238702D01*
X92228421Y-89217553D01*
X91927958Y-89093097D01*
X91657549Y-88912415D01*
X91427585Y-88682451D01*
X91246903Y-88412042D01*
X91122447Y-88111579D01*
X91059000Y-87792609D01*
X91059000Y-87467391D01*
X91062975Y-87447409D01*
X91118485Y-87168339D01*
X91122447Y-87148421D01*
X91246903Y-86847958D01*
X91427585Y-86577549D01*
X91657549Y-86347585D01*
X91927958Y-86166903D01*
X91948327Y-86158466D01*
X92031535Y-86124000D01*
X92228421Y-86042447D01*
X92358941Y-86016485D01*
X92547389Y-85979000D01*
X92872611Y-85979000D01*
X93061059Y-86016485D01*
X93061059Y-86016485D01*
G37*
G36*
X101902585Y-85473802D02*
G01*
X102052410Y-85503604D01*
X102334674Y-85620521D01*
X102588705Y-85790259D01*
X102804741Y-86006295D01*
X102974479Y-86260326D01*
X103044458Y-86429272D01*
X103091396Y-86542591D01*
X103151000Y-86842239D01*
X103151000Y-87147761D01*
X103149177Y-87156925D01*
X103091396Y-87447410D01*
X102974479Y-87729674D01*
X102804741Y-87983705D01*
X102588705Y-88199741D01*
X102334674Y-88369479D01*
X102052410Y-88486396D01*
X101902585Y-88516198D01*
X101752761Y-88546000D01*
X101447239Y-88546000D01*
X101297415Y-88516198D01*
X101147590Y-88486396D01*
X100865326Y-88369479D01*
X100611295Y-88199741D01*
X100395259Y-87983705D01*
X100225521Y-87729674D01*
X100108604Y-87447410D01*
X100050823Y-87156925D01*
X100049000Y-87147761D01*
X100049000Y-86842239D01*
X100108604Y-86542591D01*
X100155542Y-86429272D01*
X100225521Y-86260326D01*
X100395259Y-86006295D01*
X100611295Y-85790259D01*
X100865326Y-85620521D01*
X101147590Y-85503604D01*
X101297415Y-85473802D01*
X101447239Y-85444000D01*
X101752761Y-85444000D01*
X101902585Y-85473802D01*
X101902585Y-85473802D01*
G37*
G36*
X108231000Y-88546000D02*
G01*
X105129000Y-88546000D01*
X105129000Y-85444000D01*
X108231000Y-85444000D01*
X108231000Y-88546000D01*
X108231000Y-88546000D01*
G37*
G36*
X116143228Y-85859203D02*
G01*
X116298100Y-85923353D01*
X116437481Y-86016485D01*
X116556015Y-86135019D01*
X116649147Y-86274400D01*
X116713297Y-86429272D01*
X116746000Y-86593684D01*
X116746000Y-86761316D01*
X116713297Y-86925728D01*
X116649147Y-87080600D01*
X116556015Y-87219981D01*
X116437481Y-87338515D01*
X116298100Y-87431647D01*
X116143228Y-87495797D01*
X115978816Y-87528500D01*
X115811184Y-87528500D01*
X115646772Y-87495797D01*
X115491900Y-87431647D01*
X115352519Y-87338515D01*
X115233985Y-87219981D01*
X115140853Y-87080600D01*
X115076703Y-86925728D01*
X115044000Y-86761316D01*
X115044000Y-86593684D01*
X115076703Y-86429272D01*
X115140853Y-86274400D01*
X115233985Y-86135019D01*
X115352519Y-86016485D01*
X115491900Y-85923353D01*
X115646772Y-85859203D01*
X115811184Y-85826500D01*
X115978816Y-85826500D01*
X116143228Y-85859203D01*
X116143228Y-85859203D01*
G37*
G36*
X113246000Y-87528500D02*
G01*
X111544000Y-87528500D01*
X111544000Y-85826500D01*
X113246000Y-85826500D01*
X113246000Y-87528500D01*
X113246000Y-87528500D01*
G37*
G36*
X120921174Y-86128465D02*
G01*
X120958867Y-86139899D01*
X120993603Y-86158466D01*
X121024048Y-86183452D01*
X121049034Y-86213897D01*
X121067601Y-86248633D01*
X121079035Y-86286326D01*
X121083500Y-86331661D01*
X121083500Y-87168339D01*
X121079035Y-87213674D01*
X121067601Y-87251367D01*
X121049034Y-87286103D01*
X121024048Y-87316548D01*
X120993603Y-87341534D01*
X120958867Y-87360101D01*
X120921174Y-87371535D01*
X120875839Y-87376000D01*
X119789161Y-87376000D01*
X119743826Y-87371535D01*
X119706133Y-87360101D01*
X119671397Y-87341534D01*
X119640952Y-87316548D01*
X119615966Y-87286103D01*
X119597399Y-87251367D01*
X119585965Y-87213674D01*
X119581500Y-87168339D01*
X119581500Y-86331661D01*
X119585965Y-86286326D01*
X119597399Y-86248633D01*
X119615966Y-86213897D01*
X119640952Y-86183452D01*
X119671397Y-86158466D01*
X119706133Y-86139899D01*
X119743826Y-86128465D01*
X119789161Y-86124000D01*
X120875839Y-86124000D01*
X120921174Y-86128465D01*
X120921174Y-86128465D01*
G37*
G36*
X120921174Y-84078465D02*
G01*
X120958867Y-84089899D01*
X120993603Y-84108466D01*
X121024048Y-84133452D01*
X121049034Y-84163897D01*
X121067601Y-84198633D01*
X121079035Y-84236326D01*
X121083500Y-84281661D01*
X121083500Y-85118339D01*
X121079035Y-85163674D01*
X121067601Y-85201367D01*
X121049034Y-85236103D01*
X121024048Y-85266548D01*
X120993603Y-85291534D01*
X120958867Y-85310101D01*
X120921174Y-85321535D01*
X120875839Y-85326000D01*
X119789161Y-85326000D01*
X119743826Y-85321535D01*
X119706133Y-85310101D01*
X119671397Y-85291534D01*
X119640952Y-85266548D01*
X119615966Y-85236103D01*
X119597399Y-85201367D01*
X119585965Y-85163674D01*
X119581500Y-85118339D01*
X119581500Y-84281661D01*
X119585965Y-84236326D01*
X119597399Y-84198633D01*
X119615966Y-84163897D01*
X119640952Y-84133452D01*
X119671397Y-84108466D01*
X119706133Y-84089899D01*
X119743826Y-84078465D01*
X119789161Y-84074000D01*
X120875839Y-84074000D01*
X120921174Y-84078465D01*
X120921174Y-84078465D01*
G37*
G36*
X93611000Y-83451000D02*
G01*
X91809000Y-83451000D01*
X91809000Y-81649000D01*
X93611000Y-81649000D01*
X93611000Y-83451000D01*
X93611000Y-83451000D01*
G37*
G36*
X126631000Y-83451000D02*
G01*
X124829000Y-83451000D01*
X124829000Y-81649000D01*
X126631000Y-81649000D01*
X126631000Y-83451000D01*
X126631000Y-83451000D01*
G37*
G36*
X98108674Y-81803465D02*
G01*
X98146367Y-81814899D01*
X98181103Y-81833466D01*
X98211548Y-81858452D01*
X98236534Y-81888897D01*
X98255101Y-81923633D01*
X98266535Y-81961326D01*
X98271000Y-82006661D01*
X98271000Y-83093339D01*
X98266535Y-83138674D01*
X98255101Y-83176367D01*
X98236534Y-83211103D01*
X98211548Y-83241548D01*
X98181103Y-83266534D01*
X98146367Y-83285101D01*
X98108674Y-83296535D01*
X98063339Y-83301000D01*
X97226661Y-83301000D01*
X97181326Y-83296535D01*
X97143633Y-83285101D01*
X97108897Y-83266534D01*
X97078452Y-83241548D01*
X97053466Y-83211103D01*
X97034899Y-83176367D01*
X97023465Y-83138674D01*
X97019000Y-83093339D01*
X97019000Y-82006661D01*
X97023465Y-81961326D01*
X97034899Y-81923633D01*
X97053466Y-81888897D01*
X97078452Y-81858452D01*
X97108897Y-81833466D01*
X97143633Y-81814899D01*
X97181326Y-81803465D01*
X97226661Y-81799000D01*
X98063339Y-81799000D01*
X98108674Y-81803465D01*
X98108674Y-81803465D01*
G37*
G36*
X100158674Y-81803465D02*
G01*
X100196367Y-81814899D01*
X100231103Y-81833466D01*
X100261548Y-81858452D01*
X100286534Y-81888897D01*
X100305101Y-81923633D01*
X100316535Y-81961326D01*
X100321000Y-82006661D01*
X100321000Y-83093339D01*
X100316535Y-83138674D01*
X100305101Y-83176367D01*
X100286534Y-83211103D01*
X100261548Y-83241548D01*
X100231103Y-83266534D01*
X100196367Y-83285101D01*
X100158674Y-83296535D01*
X100113339Y-83301000D01*
X99276661Y-83301000D01*
X99231326Y-83296535D01*
X99193633Y-83285101D01*
X99158897Y-83266534D01*
X99128452Y-83241548D01*
X99103466Y-83211103D01*
X99084899Y-83176367D01*
X99073465Y-83138674D01*
X99069000Y-83093339D01*
X99069000Y-82006661D01*
X99073465Y-81961326D01*
X99084899Y-81923633D01*
X99103466Y-81888897D01*
X99128452Y-81858452D01*
X99158897Y-81833466D01*
X99193633Y-81814899D01*
X99231326Y-81803465D01*
X99276661Y-81799000D01*
X100113339Y-81799000D01*
X100158674Y-81803465D01*
X100158674Y-81803465D01*
G37*
G36*
X126631000Y-80911000D02*
G01*
X124829000Y-80911000D01*
X124829000Y-79109000D01*
X126631000Y-79109000D01*
X126631000Y-80911000D01*
X126631000Y-80911000D01*
G37*
G36*
X93611000Y-80911000D02*
G01*
X91809000Y-80911000D01*
X91809000Y-79109000D01*
X93611000Y-79109000D01*
X93611000Y-80911000D01*
X93611000Y-80911000D01*
G37*
G36*
X115686000Y-80701000D02*
G01*
X114024000Y-80701000D01*
X114024000Y-79949000D01*
X115686000Y-79949000D01*
X115686000Y-80701000D01*
X115686000Y-80701000D01*
G37*
G36*
X118386000Y-80701000D02*
G01*
X116724000Y-80701000D01*
X116724000Y-78049000D01*
X118386000Y-78049000D01*
X118386000Y-80701000D01*
X118386000Y-80701000D01*
G37*
G36*
X101181000Y-80126000D02*
G01*
X99479000Y-80126000D01*
X99479000Y-78624000D01*
X101181000Y-78624000D01*
X101181000Y-80126000D01*
X101181000Y-80126000D01*
G37*
G36*
X108801000Y-80126000D02*
G01*
X107099000Y-80126000D01*
X107099000Y-78624000D01*
X108801000Y-78624000D01*
X108801000Y-80126000D01*
X108801000Y-80126000D01*
G37*
G36*
X115686000Y-78801000D02*
G01*
X114024000Y-78801000D01*
X114024000Y-78049000D01*
X115686000Y-78049000D01*
X115686000Y-78801000D01*
X115686000Y-78801000D01*
G37*
G36*
X93611000Y-78371000D02*
G01*
X91809000Y-78371000D01*
X91809000Y-76569000D01*
X93611000Y-76569000D01*
X93611000Y-78371000D01*
X93611000Y-78371000D01*
G37*
G36*
X126631000Y-78371000D02*
G01*
X124829000Y-78371000D01*
X124829000Y-76569000D01*
X126631000Y-76569000D01*
X126631000Y-78371000D01*
X126631000Y-78371000D01*
G37*
G36*
X101181000Y-77586000D02*
G01*
X99479000Y-77586000D01*
X99479000Y-76084000D01*
X101181000Y-76084000D01*
X101181000Y-77586000D01*
X101181000Y-77586000D01*
G37*
G36*
X108801000Y-77586000D02*
G01*
X107099000Y-77586000D01*
X107099000Y-76084000D01*
X108801000Y-76084000D01*
X108801000Y-77586000D01*
X108801000Y-77586000D01*
G37*
G36*
X126631000Y-75831000D02*
G01*
X124829000Y-75831000D01*
X124829000Y-74029000D01*
X126631000Y-74029000D01*
X126631000Y-75831000D01*
X126631000Y-75831000D01*
G37*
G36*
X93611000Y-75831000D02*
G01*
X91809000Y-75831000D01*
X91809000Y-74029000D01*
X93611000Y-74029000D01*
X93611000Y-75831000D01*
X93611000Y-75831000D01*
G37*
G36*
X118386000Y-75621000D02*
G01*
X116724000Y-75621000D01*
X116724000Y-72969000D01*
X118386000Y-72969000D01*
X118386000Y-75621000D01*
X118386000Y-75621000D01*
G37*
G36*
X115686000Y-75621000D02*
G01*
X114024000Y-75621000D01*
X114024000Y-74869000D01*
X115686000Y-74869000D01*
X115686000Y-75621000D01*
X115686000Y-75621000D01*
G37*
G36*
X108801000Y-75046000D02*
G01*
X107099000Y-75046000D01*
X107099000Y-73544000D01*
X108801000Y-73544000D01*
X108801000Y-75046000D01*
X108801000Y-75046000D01*
G37*
G36*
X101181000Y-75046000D02*
G01*
X99479000Y-75046000D01*
X99479000Y-73544000D01*
X101181000Y-73544000D01*
X101181000Y-75046000D01*
X101181000Y-75046000D01*
G37*
G36*
X115686000Y-73721000D02*
G01*
X114024000Y-73721000D01*
X114024000Y-72969000D01*
X115686000Y-72969000D01*
X115686000Y-73721000D01*
X115686000Y-73721000D01*
G37*
G36*
X93611000Y-73291000D02*
G01*
X91809000Y-73291000D01*
X91809000Y-71489000D01*
X93611000Y-71489000D01*
X93611000Y-73291000D01*
X93611000Y-73291000D01*
G37*
G36*
X126631000Y-73291000D02*
G01*
X124829000Y-73291000D01*
X124829000Y-71489000D01*
X126631000Y-71489000D01*
X126631000Y-73291000D01*
X126631000Y-73291000D01*
G37*
G36*
X101581000Y-73006000D02*
G01*
X99079000Y-73006000D01*
X99079000Y-67964000D01*
X101581000Y-67964000D01*
X101581000Y-73006000D01*
X101581000Y-73006000D01*
G37*
G36*
X109201000Y-73006000D02*
G01*
X106699000Y-73006000D01*
X106699000Y-67964000D01*
X109201000Y-67964000D01*
X109201000Y-73006000D01*
X109201000Y-73006000D01*
G37*
G36*
X93611000Y-70751000D02*
G01*
X91809000Y-70751000D01*
X91809000Y-68949000D01*
X93611000Y-68949000D01*
X93611000Y-70751000D01*
X93611000Y-70751000D01*
G37*
G36*
X126631000Y-70751000D02*
G01*
X124829000Y-70751000D01*
X124829000Y-68949000D01*
X126631000Y-68949000D01*
X126631000Y-70751000D01*
X126631000Y-70751000D01*
G37*
G36*
X115686000Y-70541000D02*
G01*
X114024000Y-70541000D01*
X114024000Y-69789000D01*
X115686000Y-69789000D01*
X115686000Y-70541000D01*
X115686000Y-70541000D01*
G37*
G36*
X118386000Y-70541000D02*
G01*
X116724000Y-70541000D01*
X116724000Y-67889000D01*
X118386000Y-67889000D01*
X118386000Y-70541000D01*
X118386000Y-70541000D01*
G37*
G36*
X115686000Y-68641000D02*
G01*
X114024000Y-68641000D01*
X114024000Y-67889000D01*
X115686000Y-67889000D01*
X115686000Y-68641000D01*
X115686000Y-68641000D01*
G37*
G36*
X93611000Y-68211000D02*
G01*
X91809000Y-68211000D01*
X91809000Y-66409000D01*
X93611000Y-66409000D01*
X93611000Y-68211000D01*
X93611000Y-68211000D01*
G37*
G36*
X126631000Y-68211000D02*
G01*
X124829000Y-68211000D01*
X124829000Y-66409000D01*
X126631000Y-66409000D01*
X126631000Y-68211000D01*
X126631000Y-68211000D01*
G37*
G36*
X108801000Y-67426000D02*
G01*
X107099000Y-67426000D01*
X107099000Y-65924000D01*
X108801000Y-65924000D01*
X108801000Y-67426000D01*
X108801000Y-67426000D01*
G37*
G36*
X101181000Y-67426000D02*
G01*
X99479000Y-67426000D01*
X99479000Y-65924000D01*
X101181000Y-65924000D01*
X101181000Y-67426000D01*
X101181000Y-67426000D01*
G37*
G36*
X93611000Y-65671000D02*
G01*
X91809000Y-65671000D01*
X91809000Y-63869000D01*
X93611000Y-63869000D01*
X93611000Y-65671000D01*
X93611000Y-65671000D01*
G37*
G36*
X126631000Y-65671000D02*
G01*
X124829000Y-65671000D01*
X124829000Y-63869000D01*
X126631000Y-63869000D01*
X126631000Y-65671000D01*
X126631000Y-65671000D01*
G37*
G36*
X115686000Y-65461000D02*
G01*
X114024000Y-65461000D01*
X114024000Y-64709000D01*
X115686000Y-64709000D01*
X115686000Y-65461000D01*
X115686000Y-65461000D01*
G37*
G36*
X118386000Y-65461000D02*
G01*
X116724000Y-65461000D01*
X116724000Y-62809000D01*
X118386000Y-62809000D01*
X118386000Y-65461000D01*
X118386000Y-65461000D01*
G37*
G36*
X108801000Y-64886000D02*
G01*
X107099000Y-64886000D01*
X107099000Y-63384000D01*
X108801000Y-63384000D01*
X108801000Y-64886000D01*
X108801000Y-64886000D01*
G37*
G36*
X101181000Y-64886000D02*
G01*
X99479000Y-64886000D01*
X99479000Y-63384000D01*
X101181000Y-63384000D01*
X101181000Y-64886000D01*
X101181000Y-64886000D01*
G37*
G36*
X115686000Y-63561000D02*
G01*
X114024000Y-63561000D01*
X114024000Y-62809000D01*
X115686000Y-62809000D01*
X115686000Y-63561000D01*
X115686000Y-63561000D01*
G37*
G36*
X93611000Y-63131000D02*
G01*
X91809000Y-63131000D01*
X91809000Y-61329000D01*
X93611000Y-61329000D01*
X93611000Y-63131000D01*
X93611000Y-63131000D01*
G37*
G36*
X126631000Y-63131000D02*
G01*
X124829000Y-63131000D01*
X124829000Y-61329000D01*
X126631000Y-61329000D01*
X126631000Y-63131000D01*
X126631000Y-63131000D01*
G37*
G36*
X108801000Y-62346000D02*
G01*
X107099000Y-62346000D01*
X107099000Y-60844000D01*
X108801000Y-60844000D01*
X108801000Y-62346000D01*
X108801000Y-62346000D01*
G37*
G36*
X101181000Y-62346000D02*
G01*
X99479000Y-62346000D01*
X99479000Y-60844000D01*
X101181000Y-60844000D01*
X101181000Y-62346000D01*
X101181000Y-62346000D01*
G37*
G36*
X126631000Y-60591000D02*
G01*
X124829000Y-60591000D01*
X124829000Y-58789000D01*
X126631000Y-58789000D01*
X126631000Y-60591000D01*
X126631000Y-60591000D01*
G37*
G36*
X93611000Y-60591000D02*
G01*
X91809000Y-60591000D01*
X91809000Y-58789000D01*
X93611000Y-58789000D01*
X93611000Y-60591000D01*
X93611000Y-60591000D01*
G37*
G36*
X126105256Y-53001298D02*
G01*
X126211579Y-53022447D01*
X126512042Y-53146903D01*
X126782451Y-53327585D01*
X127012415Y-53557549D01*
X127055009Y-53621296D01*
X127193098Y-53827960D01*
X127317553Y-54128422D01*
X127381000Y-54447389D01*
X127381000Y-54772611D01*
X127317553Y-55091578D01*
X127212718Y-55344674D01*
X127193097Y-55392042D01*
X127012415Y-55662451D01*
X126782451Y-55892415D01*
X126512042Y-56073097D01*
X126211579Y-56197553D01*
X126105256Y-56218702D01*
X125892611Y-56261000D01*
X125567389Y-56261000D01*
X125354744Y-56218702D01*
X125248421Y-56197553D01*
X124947958Y-56073097D01*
X124677549Y-55892415D01*
X124447585Y-55662451D01*
X124266903Y-55392042D01*
X124247283Y-55344674D01*
X124142447Y-55091578D01*
X124079000Y-54772611D01*
X124079000Y-54447389D01*
X124142447Y-54128422D01*
X124266902Y-53827960D01*
X124404991Y-53621296D01*
X124447585Y-53557549D01*
X124677549Y-53327585D01*
X124947958Y-53146903D01*
X125248421Y-53022447D01*
X125354744Y-53001298D01*
X125567389Y-52959000D01*
X125892611Y-52959000D01*
X126105256Y-53001298D01*
X126105256Y-53001298D01*
G37*
G36*
X93085256Y-53001298D02*
G01*
X93191579Y-53022447D01*
X93492042Y-53146903D01*
X93762451Y-53327585D01*
X93992415Y-53557549D01*
X94035009Y-53621296D01*
X94173098Y-53827960D01*
X94297553Y-54128422D01*
X94361000Y-54447389D01*
X94361000Y-54772611D01*
X94297553Y-55091578D01*
X94192718Y-55344674D01*
X94173097Y-55392042D01*
X93992415Y-55662451D01*
X93762451Y-55892415D01*
X93492042Y-56073097D01*
X93191579Y-56197553D01*
X93085256Y-56218702D01*
X92872611Y-56261000D01*
X92547389Y-56261000D01*
X92334744Y-56218702D01*
X92228421Y-56197553D01*
X91927958Y-56073097D01*
X91657549Y-55892415D01*
X91427585Y-55662451D01*
X91246903Y-55392042D01*
X91227283Y-55344674D01*
X91122447Y-55091578D01*
X91059000Y-54772611D01*
X91059000Y-54447389D01*
X91122447Y-54128422D01*
X91246902Y-53827960D01*
X91384991Y-53621296D01*
X91427585Y-53557549D01*
X91657549Y-53327585D01*
X91927958Y-53146903D01*
X92228421Y-53022447D01*
X92334744Y-53001298D01*
X92547389Y-52959000D01*
X92872611Y-52959000D01*
X93085256Y-53001298D01*
X93085256Y-53001298D01*
G37*
G36*
X105712585Y-53088802D02*
G01*
X105862410Y-53118604D01*
X106144674Y-53235521D01*
X106398705Y-53405259D01*
X106614741Y-53621295D01*
X106784479Y-53875326D01*
X106901396Y-54157590D01*
X106961000Y-54457240D01*
X106961000Y-54762760D01*
X106901396Y-55062410D01*
X106784479Y-55344674D01*
X106614741Y-55598705D01*
X106398705Y-55814741D01*
X106144674Y-55984479D01*
X105862410Y-56101396D01*
X105712585Y-56131198D01*
X105562761Y-56161000D01*
X105257239Y-56161000D01*
X105107415Y-56131198D01*
X104957590Y-56101396D01*
X104675326Y-55984479D01*
X104421295Y-55814741D01*
X104205259Y-55598705D01*
X104035521Y-55344674D01*
X103918604Y-55062410D01*
X103859000Y-54762760D01*
X103859000Y-54457240D01*
X103918604Y-54157590D01*
X104035521Y-53875326D01*
X104205259Y-53621295D01*
X104421295Y-53405259D01*
X104675326Y-53235521D01*
X104957590Y-53118604D01*
X105107415Y-53088802D01*
X105257239Y-53059000D01*
X105562761Y-53059000D01*
X105712585Y-53088802D01*
X105712585Y-53088802D01*
G37*
G36*
X118412585Y-53088802D02*
G01*
X118562410Y-53118604D01*
X118844674Y-53235521D01*
X119098705Y-53405259D01*
X119314741Y-53621295D01*
X119484479Y-53875326D01*
X119601396Y-54157590D01*
X119661000Y-54457240D01*
X119661000Y-54762760D01*
X119601396Y-55062410D01*
X119484479Y-55344674D01*
X119314741Y-55598705D01*
X119098705Y-55814741D01*
X118844674Y-55984479D01*
X118562410Y-56101396D01*
X118412585Y-56131198D01*
X118262761Y-56161000D01*
X117957239Y-56161000D01*
X117807415Y-56131198D01*
X117657590Y-56101396D01*
X117375326Y-55984479D01*
X117121295Y-55814741D01*
X116905259Y-55598705D01*
X116735521Y-55344674D01*
X116618604Y-55062410D01*
X116559000Y-54762760D01*
X116559000Y-54457240D01*
X116618604Y-54157590D01*
X116735521Y-53875326D01*
X116905259Y-53621295D01*
X117121295Y-53405259D01*
X117375326Y-53235521D01*
X117657590Y-53118604D01*
X117807415Y-53088802D01*
X117957239Y-53059000D01*
X118262761Y-53059000D01*
X118412585Y-53088802D01*
X118412585Y-53088802D01*
G37*
G36*
X114581000Y-56161000D02*
G01*
X111479000Y-56161000D01*
X111479000Y-53059000D01*
X114581000Y-53059000D01*
X114581000Y-56161000D01*
X114581000Y-56161000D01*
G37*
G36*
X101881000Y-56161000D02*
G01*
X98779000Y-56161000D01*
X98779000Y-53059000D01*
X101881000Y-53059000D01*
X101881000Y-56161000D01*
X101881000Y-56161000D01*
G37*
M02*
