G04 #@! TF.GenerationSoftware,KiCad,Pcbnew,(5.1.4)-1*
G04 #@! TF.CreationDate,2020-03-09T15:05:49+03:00*
G04 #@! TF.ProjectId,L293,4c323933-2e6b-4696-9361-645f70636258,rev?*
G04 #@! TF.SameCoordinates,Original*
G04 #@! TF.FileFunction,Legend,Bot*
G04 #@! TF.FilePolarity,Positive*
%FSLAX46Y46*%
G04 Gerber Fmt 4.6, Leading zero omitted, Abs format (unit mm)*
G04 Created by KiCad (PCBNEW (5.1.4)-1) date 2020-03-09 15:05:49*
%MOMM*%
%LPD*%
G04 APERTURE LIST*
%ADD10C,0.120000*%
%ADD11C,0.150000*%
G04 APERTURE END LIST*
D10*
X119622500Y-85986252D02*
X119622500Y-85463748D01*
X121042500Y-85986252D02*
X121042500Y-85463748D01*
X98408748Y-81840000D02*
X98931252Y-81840000D01*
X98408748Y-83260000D02*
X98931252Y-83260000D01*
X117105000Y-80985000D02*
X115305000Y-80985000D01*
X115305000Y-77765000D02*
X117755000Y-77765000D01*
X115305000Y-72685000D02*
X117755000Y-72685000D01*
X117105000Y-75905000D02*
X115305000Y-75905000D01*
X115305000Y-67605000D02*
X117755000Y-67605000D01*
X117105000Y-70825000D02*
X115305000Y-70825000D01*
X117105000Y-65745000D02*
X115305000Y-65745000D01*
X115305000Y-62525000D02*
X117755000Y-62525000D01*
D11*
X122434880Y-85558333D02*
X121958690Y-85225000D01*
X122434880Y-84986904D02*
X121434880Y-84986904D01*
X121434880Y-85367857D01*
X121482500Y-85463095D01*
X121530119Y-85510714D01*
X121625357Y-85558333D01*
X121768214Y-85558333D01*
X121863452Y-85510714D01*
X121911071Y-85463095D01*
X121958690Y-85367857D01*
X121958690Y-84986904D01*
X122434880Y-86510714D02*
X122434880Y-85939285D01*
X122434880Y-86225000D02*
X121434880Y-86225000D01*
X121577738Y-86129761D01*
X121672976Y-86034523D01*
X121720595Y-85939285D01*
X98836666Y-84557142D02*
X98884285Y-84604761D01*
X99027142Y-84652380D01*
X99122380Y-84652380D01*
X99265238Y-84604761D01*
X99360476Y-84509523D01*
X99408095Y-84414285D01*
X99455714Y-84223809D01*
X99455714Y-84080952D01*
X99408095Y-83890476D01*
X99360476Y-83795238D01*
X99265238Y-83700000D01*
X99122380Y-83652380D01*
X99027142Y-83652380D01*
X98884285Y-83700000D01*
X98836666Y-83747619D01*
X98455714Y-83747619D02*
X98408095Y-83700000D01*
X98312857Y-83652380D01*
X98074761Y-83652380D01*
X97979523Y-83700000D01*
X97931904Y-83747619D01*
X97884285Y-83842857D01*
X97884285Y-83938095D01*
X97931904Y-84080952D01*
X98503333Y-84652380D01*
X97884285Y-84652380D01*
X112839404Y-79779880D02*
X112839404Y-80589404D01*
X112791785Y-80684642D01*
X112744166Y-80732261D01*
X112648928Y-80779880D01*
X112458452Y-80779880D01*
X112363214Y-80732261D01*
X112315595Y-80684642D01*
X112267976Y-80589404D01*
X112267976Y-79779880D01*
X111267976Y-80779880D02*
X111839404Y-80779880D01*
X111553690Y-80779880D02*
X111553690Y-79779880D01*
X111648928Y-79922738D01*
X111744166Y-80017976D01*
X111839404Y-80065595D01*
X112839404Y-74382380D02*
X112839404Y-75191904D01*
X112791785Y-75287142D01*
X112744166Y-75334761D01*
X112648928Y-75382380D01*
X112458452Y-75382380D01*
X112363214Y-75334761D01*
X112315595Y-75287142D01*
X112267976Y-75191904D01*
X112267976Y-74382380D01*
X111839404Y-74477619D02*
X111791785Y-74430000D01*
X111696547Y-74382380D01*
X111458452Y-74382380D01*
X111363214Y-74430000D01*
X111315595Y-74477619D01*
X111267976Y-74572857D01*
X111267976Y-74668095D01*
X111315595Y-74810952D01*
X111887023Y-75382380D01*
X111267976Y-75382380D01*
X112839404Y-69302380D02*
X112839404Y-70111904D01*
X112791785Y-70207142D01*
X112744166Y-70254761D01*
X112648928Y-70302380D01*
X112458452Y-70302380D01*
X112363214Y-70254761D01*
X112315595Y-70207142D01*
X112267976Y-70111904D01*
X112267976Y-69302380D01*
X111887023Y-69302380D02*
X111267976Y-69302380D01*
X111601309Y-69683333D01*
X111458452Y-69683333D01*
X111363214Y-69730952D01*
X111315595Y-69778571D01*
X111267976Y-69873809D01*
X111267976Y-70111904D01*
X111315595Y-70207142D01*
X111363214Y-70254761D01*
X111458452Y-70302380D01*
X111744166Y-70302380D01*
X111839404Y-70254761D01*
X111887023Y-70207142D01*
X112839404Y-64222380D02*
X112839404Y-65031904D01*
X112791785Y-65127142D01*
X112744166Y-65174761D01*
X112648928Y-65222380D01*
X112458452Y-65222380D01*
X112363214Y-65174761D01*
X112315595Y-65127142D01*
X112267976Y-65031904D01*
X112267976Y-64222380D01*
X111363214Y-64555714D02*
X111363214Y-65222380D01*
X111601309Y-64174761D02*
X111839404Y-64889047D01*
X111220357Y-64889047D01*
M02*
