G04 #@! TF.GenerationSoftware,KiCad,Pcbnew,(5.1.8)-1*
G04 #@! TF.CreationDate,2020-11-24T22:17:42+03:00*
G04 #@! TF.ProjectId,LCD,4c43442e-6b69-4636-9164-5f7063625858,rev?*
G04 #@! TF.SameCoordinates,Original*
G04 #@! TF.FileFunction,Legend,Bot*
G04 #@! TF.FilePolarity,Positive*
%FSLAX46Y46*%
G04 Gerber Fmt 4.6, Leading zero omitted, Abs format (unit mm)*
G04 Created by KiCad (PCBNEW (5.1.8)-1) date 2020-11-24 22:17:42*
%MOMM*%
%LPD*%
G01*
G04 APERTURE LIST*
%ADD10C,0.120000*%
%ADD11C,0.150000*%
G04 APERTURE END LIST*
D10*
X111386252Y-25960000D02*
X110863748Y-25960000D01*
X111386252Y-27380000D02*
X110863748Y-27380000D01*
X102295000Y-60900000D02*
X102295000Y-63560000D01*
X79375000Y-60900000D02*
X102295000Y-60900000D01*
X79375000Y-63560000D02*
X102295000Y-63560000D01*
X79375000Y-60900000D02*
X79375000Y-63560000D01*
X78105000Y-60900000D02*
X76775000Y-60900000D01*
X76775000Y-60900000D02*
X76775000Y-62230000D01*
X118685000Y-27880000D02*
X118685000Y-29210000D01*
X120015000Y-27880000D02*
X118685000Y-27880000D01*
X121285000Y-27880000D02*
X121285000Y-30540000D01*
X121285000Y-30540000D02*
X144205000Y-30540000D01*
X121285000Y-27880000D02*
X144205000Y-27880000D01*
X144205000Y-27880000D02*
X144205000Y-30540000D01*
D11*
X114466666Y-27122380D02*
X114800000Y-26646190D01*
X115038095Y-27122380D02*
X115038095Y-26122380D01*
X114657142Y-26122380D01*
X114561904Y-26170000D01*
X114514285Y-26217619D01*
X114466666Y-26312857D01*
X114466666Y-26455714D01*
X114514285Y-26550952D01*
X114561904Y-26598571D01*
X114657142Y-26646190D01*
X115038095Y-26646190D01*
X113514285Y-27122380D02*
X114085714Y-27122380D01*
X113800000Y-27122380D02*
X113800000Y-26122380D01*
X113895238Y-26265238D01*
X113990476Y-26360476D01*
X114085714Y-26408095D01*
X75227380Y-61896666D02*
X75941666Y-61896666D01*
X76084523Y-61849047D01*
X76179761Y-61753809D01*
X76227380Y-61610952D01*
X76227380Y-61515714D01*
X76227380Y-62896666D02*
X76227380Y-62325238D01*
X76227380Y-62610952D02*
X75227380Y-62610952D01*
X75370238Y-62515714D01*
X75465476Y-62420476D01*
X75513095Y-62325238D01*
X117137380Y-28876666D02*
X117851666Y-28876666D01*
X117994523Y-28829047D01*
X118089761Y-28733809D01*
X118137380Y-28590952D01*
X118137380Y-28495714D01*
X117232619Y-29305238D02*
X117185000Y-29352857D01*
X117137380Y-29448095D01*
X117137380Y-29686190D01*
X117185000Y-29781428D01*
X117232619Y-29829047D01*
X117327857Y-29876666D01*
X117423095Y-29876666D01*
X117565952Y-29829047D01*
X118137380Y-29257619D01*
X118137380Y-29876666D01*
M02*
