G04 #@! TF.GenerationSoftware,KiCad,Pcbnew,(5.1.8)-1*
G04 #@! TF.CreationDate,2020-11-29T01:33:09+03:00*
G04 #@! TF.ProjectId,LCD,4c43442e-6b69-4636-9164-5f7063625858,rev?*
G04 #@! TF.SameCoordinates,Original*
G04 #@! TF.FileFunction,Copper,L1,Top*
G04 #@! TF.FilePolarity,Positive*
%FSLAX46Y46*%
G04 Gerber Fmt 4.6, Leading zero omitted, Abs format (unit mm)*
G04 Created by KiCad (PCBNEW (5.1.8)-1) date 2020-11-29 01:33:09*
%MOMM*%
%LPD*%
G01*
G04 APERTURE LIST*
G04 #@! TA.AperFunction,ComponentPad*
%ADD10O,1.800000X2.600000*%
G04 #@! TD*
G04 #@! TA.AperFunction,ComponentPad*
%ADD11R,1.800000X2.600000*%
G04 #@! TD*
G04 #@! TA.AperFunction,ComponentPad*
%ADD12C,2.200000*%
G04 #@! TD*
G04 #@! TA.AperFunction,ComponentPad*
%ADD13R,2.000000X2.000000*%
G04 #@! TD*
G04 #@! TA.AperFunction,ComponentPad*
%ADD14C,2.000000*%
G04 #@! TD*
G04 #@! TA.AperFunction,ComponentPad*
%ADD15R,1.700000X1.700000*%
G04 #@! TD*
G04 #@! TA.AperFunction,ComponentPad*
%ADD16O,1.700000X1.700000*%
G04 #@! TD*
G04 #@! TA.AperFunction,ViaPad*
%ADD17C,2.200000*%
G04 #@! TD*
G04 #@! TA.AperFunction,ViaPad*
%ADD18C,1.600000*%
G04 #@! TD*
G04 #@! TA.AperFunction,Conductor*
%ADD19C,0.600000*%
G04 #@! TD*
G04 #@! TA.AperFunction,Conductor*
%ADD20C,0.800000*%
G04 #@! TD*
G04 APERTURE END LIST*
D10*
X116586000Y-31242000D03*
X114046000Y-31242000D03*
X111506000Y-31242000D03*
X108966000Y-31242000D03*
X106426000Y-31242000D03*
X103886000Y-31242000D03*
X101346000Y-31242000D03*
X98806000Y-31242000D03*
X96266000Y-31242000D03*
X93726000Y-31242000D03*
X91186000Y-31242000D03*
X88646000Y-31242000D03*
X86106000Y-31242000D03*
X83566000Y-31242000D03*
X81026000Y-31242000D03*
D11*
X78486000Y-31242000D03*
D12*
X73025000Y-47862500D03*
X75525000Y-45362500D03*
X73025000Y-42862500D03*
D13*
X78105000Y-62230000D03*
D14*
X80645000Y-62230000D03*
X83185000Y-62230000D03*
X85725000Y-62230000D03*
X88265000Y-62230000D03*
X90805000Y-62230000D03*
X93345000Y-62230000D03*
X95885000Y-62230000D03*
X98425000Y-62230000D03*
X100965000Y-62230000D03*
X142875000Y-29210000D03*
X140335000Y-29210000D03*
X137795000Y-29210000D03*
X135255000Y-29210000D03*
X132715000Y-29210000D03*
X130175000Y-29210000D03*
X127635000Y-29210000D03*
X125095000Y-29210000D03*
X122555000Y-29210000D03*
D13*
X120015000Y-29210000D03*
D15*
X114935000Y-57150000D03*
D16*
X112395000Y-57150000D03*
X109855000Y-57150000D03*
X107315000Y-57150000D03*
D15*
X129540000Y-57150000D03*
D16*
X127000000Y-57150000D03*
D17*
X120015000Y-62230000D03*
X122555000Y-62230000D03*
X125095000Y-62230000D03*
X127635000Y-62230000D03*
X130175000Y-62230000D03*
X132715000Y-62230000D03*
X135255000Y-62230000D03*
X137795000Y-62230000D03*
X140335000Y-62230000D03*
X142875000Y-62230000D03*
D18*
X121285000Y-44767500D03*
X119697500Y-55880000D03*
X117475000Y-54927500D03*
X88646000Y-34290000D03*
X78486000Y-34290000D03*
X137795000Y-40640000D03*
X137795000Y-45402500D03*
X86106000Y-39370000D03*
X95250000Y-39370000D03*
D19*
X114046000Y-37528500D02*
X121285000Y-44767500D01*
X114046000Y-31242000D02*
X114046000Y-37528500D01*
X80645000Y-62230000D02*
X80645000Y-52070000D01*
X80645000Y-52070000D02*
X82232500Y-50482500D01*
X82232500Y-50482500D02*
X118427500Y-50482500D01*
X119697500Y-51752500D02*
X119697500Y-55880000D01*
X118427500Y-50482500D02*
X119697500Y-51752500D01*
X83185000Y-62230000D02*
X83185000Y-53340000D01*
X83185000Y-53340000D02*
X84455000Y-52070000D01*
X84455000Y-52070000D02*
X116205000Y-52070000D01*
X117475000Y-53340000D02*
X117475000Y-54927500D01*
X116205000Y-52070000D02*
X117475000Y-53340000D01*
D20*
X78486000Y-34290000D02*
X88646000Y-34290000D01*
D19*
X137795000Y-40640000D02*
X137795000Y-45402500D01*
D20*
X86106000Y-39370000D02*
X95250000Y-39370000D01*
M02*
