G04 #@! TF.GenerationSoftware,KiCad,Pcbnew,(5.1.8)-1*
G04 #@! TF.CreationDate,2020-11-29T01:25:36+03:00*
G04 #@! TF.ProjectId,LCD,4c43442e-6b69-4636-9164-5f7063625858,rev?*
G04 #@! TF.SameCoordinates,Original*
G04 #@! TF.FileFunction,Soldermask,Top*
G04 #@! TF.FilePolarity,Negative*
%FSLAX46Y46*%
G04 Gerber Fmt 4.6, Leading zero omitted, Abs format (unit mm)*
G04 Created by KiCad (PCBNEW (5.1.8)-1) date 2020-11-29 01:25:36*
%MOMM*%
%LPD*%
G01*
G04 APERTURE LIST*
%ADD10C,0.100000*%
%ADD11C,3.302000*%
%ADD12O,1.902000X2.702000*%
%ADD13C,2.302000*%
%ADD14C,2.102000*%
%ADD15O,1.802000X1.802000*%
G04 APERTURE END LIST*
D10*
G36*
X144780000Y-63500000D02*
G01*
X118110000Y-63500000D01*
X118110000Y-60960000D01*
X144780000Y-60960000D01*
X144780000Y-63500000D01*
G37*
X144780000Y-63500000D02*
X118110000Y-63500000D01*
X118110000Y-60960000D01*
X144780000Y-60960000D01*
X144780000Y-63500000D01*
G36*
X144780000Y-63500000D02*
G01*
X118110000Y-63500000D01*
X118110000Y-60960000D01*
X144780000Y-60960000D01*
X144780000Y-63500000D01*
G37*
X144780000Y-63500000D02*
X118110000Y-63500000D01*
X118110000Y-60960000D01*
X144780000Y-60960000D01*
X144780000Y-63500000D01*
D11*
X147955000Y-62230000D03*
X147955000Y-29210000D03*
X73025000Y-62230000D03*
X73025000Y-29210000D03*
D12*
X116586000Y-31242000D03*
X114046000Y-31242000D03*
X111506000Y-31242000D03*
X108966000Y-31242000D03*
X106426000Y-31242000D03*
X103886000Y-31242000D03*
X101346000Y-31242000D03*
X98806000Y-31242000D03*
X96266000Y-31242000D03*
X93726000Y-31242000D03*
X91186000Y-31242000D03*
X88646000Y-31242000D03*
X86106000Y-31242000D03*
X83566000Y-31242000D03*
X81026000Y-31242000D03*
G36*
G01*
X77535000Y-32542000D02*
X77535000Y-29942000D01*
G75*
G02*
X77586000Y-29891000I51000J0D01*
G01*
X79386000Y-29891000D01*
G75*
G02*
X79437000Y-29942000I0J-51000D01*
G01*
X79437000Y-32542000D01*
G75*
G02*
X79386000Y-32593000I-51000J0D01*
G01*
X77586000Y-32593000D01*
G75*
G02*
X77535000Y-32542000I0J51000D01*
G01*
G37*
D13*
X73025000Y-47862500D03*
X75525000Y-45362500D03*
X73025000Y-42862500D03*
G36*
G01*
X77105000Y-61179000D02*
X79105000Y-61179000D01*
G75*
G02*
X79156000Y-61230000I0J-51000D01*
G01*
X79156000Y-63230000D01*
G75*
G02*
X79105000Y-63281000I-51000J0D01*
G01*
X77105000Y-63281000D01*
G75*
G02*
X77054000Y-63230000I0J51000D01*
G01*
X77054000Y-61230000D01*
G75*
G02*
X77105000Y-61179000I51000J0D01*
G01*
G37*
D14*
X80645000Y-62230000D03*
X83185000Y-62230000D03*
X85725000Y-62230000D03*
X88265000Y-62230000D03*
X90805000Y-62230000D03*
X93345000Y-62230000D03*
X95885000Y-62230000D03*
X98425000Y-62230000D03*
X100965000Y-62230000D03*
X142875000Y-29210000D03*
X140335000Y-29210000D03*
X137795000Y-29210000D03*
X135255000Y-29210000D03*
X132715000Y-29210000D03*
X130175000Y-29210000D03*
X127635000Y-29210000D03*
X125095000Y-29210000D03*
X122555000Y-29210000D03*
G36*
G01*
X119015000Y-28159000D02*
X121015000Y-28159000D01*
G75*
G02*
X121066000Y-28210000I0J-51000D01*
G01*
X121066000Y-30210000D01*
G75*
G02*
X121015000Y-30261000I-51000J0D01*
G01*
X119015000Y-30261000D01*
G75*
G02*
X118964000Y-30210000I0J51000D01*
G01*
X118964000Y-28210000D01*
G75*
G02*
X119015000Y-28159000I51000J0D01*
G01*
G37*
G36*
G01*
X114085000Y-56249000D02*
X115785000Y-56249000D01*
G75*
G02*
X115836000Y-56300000I0J-51000D01*
G01*
X115836000Y-58000000D01*
G75*
G02*
X115785000Y-58051000I-51000J0D01*
G01*
X114085000Y-58051000D01*
G75*
G02*
X114034000Y-58000000I0J51000D01*
G01*
X114034000Y-56300000D01*
G75*
G02*
X114085000Y-56249000I51000J0D01*
G01*
G37*
D15*
X112395000Y-57150000D03*
X109855000Y-57150000D03*
X107315000Y-57150000D03*
G36*
G01*
X128690000Y-56249000D02*
X130390000Y-56249000D01*
G75*
G02*
X130441000Y-56300000I0J-51000D01*
G01*
X130441000Y-58000000D01*
G75*
G02*
X130390000Y-58051000I-51000J0D01*
G01*
X128690000Y-58051000D01*
G75*
G02*
X128639000Y-58000000I0J51000D01*
G01*
X128639000Y-56300000D01*
G75*
G02*
X128690000Y-56249000I51000J0D01*
G01*
G37*
X127000000Y-57150000D03*
M02*
