G04 #@! TF.GenerationSoftware,KiCad,Pcbnew,(5.1.8)-1*
G04 #@! TF.CreationDate,2020-11-29T01:25:36+03:00*
G04 #@! TF.ProjectId,LCD,4c43442e-6b69-4636-9164-5f7063625858,rev?*
G04 #@! TF.SameCoordinates,Original*
G04 #@! TF.FileFunction,Soldermask,Bot*
G04 #@! TF.FilePolarity,Negative*
%FSLAX46Y46*%
G04 Gerber Fmt 4.6, Leading zero omitted, Abs format (unit mm)*
G04 Created by KiCad (PCBNEW (5.1.8)-1) date 2020-11-29 01:25:36*
%MOMM*%
%LPD*%
G01*
G04 APERTURE LIST*
%ADD10C,0.100000*%
%ADD11C,3.302000*%
%ADD12O,1.902000X2.702000*%
%ADD13C,2.302000*%
%ADD14C,2.102000*%
%ADD15O,1.802000X1.802000*%
G04 APERTURE END LIST*
D10*
G36*
X144780000Y-63500000D02*
G01*
X118110000Y-63500000D01*
X118110000Y-60960000D01*
X144780000Y-60960000D01*
X144780000Y-63500000D01*
G37*
X144780000Y-63500000D02*
X118110000Y-63500000D01*
X118110000Y-60960000D01*
X144780000Y-60960000D01*
X144780000Y-63500000D01*
G36*
X144780000Y-63500000D02*
G01*
X118110000Y-63500000D01*
X118110000Y-60960000D01*
X144780000Y-60960000D01*
X144780000Y-63500000D01*
G37*
X144780000Y-63500000D02*
X118110000Y-63500000D01*
X118110000Y-60960000D01*
X144780000Y-60960000D01*
X144780000Y-63500000D01*
D11*
X147955000Y-62230000D03*
X147955000Y-29210000D03*
X73025000Y-62230000D03*
X73025000Y-29210000D03*
D12*
X116586000Y-31242000D03*
X114046000Y-31242000D03*
X111506000Y-31242000D03*
X108966000Y-31242000D03*
X106426000Y-31242000D03*
X103886000Y-31242000D03*
X101346000Y-31242000D03*
X98806000Y-31242000D03*
X96266000Y-31242000D03*
X93726000Y-31242000D03*
X91186000Y-31242000D03*
X88646000Y-31242000D03*
X86106000Y-31242000D03*
X83566000Y-31242000D03*
X81026000Y-31242000D03*
G36*
G01*
X77535000Y-32542000D02*
X77535000Y-29942000D01*
G75*
G02*
X77586000Y-29891000I51000J0D01*
G01*
X79386000Y-29891000D01*
G75*
G02*
X79437000Y-29942000I0J-51000D01*
G01*
X79437000Y-32542000D01*
G75*
G02*
X79386000Y-32593000I-51000J0D01*
G01*
X77586000Y-32593000D01*
G75*
G02*
X77535000Y-32542000I0J51000D01*
G01*
G37*
G36*
G01*
X112776000Y-26191172D02*
X112776000Y-27148828D01*
G75*
G02*
X112503828Y-27421000I-272172J0D01*
G01*
X111796172Y-27421000D01*
G75*
G02*
X111524000Y-27148828I0J272172D01*
G01*
X111524000Y-26191172D01*
G75*
G02*
X111796172Y-25919000I272172J0D01*
G01*
X112503828Y-25919000D01*
G75*
G02*
X112776000Y-26191172I0J-272172D01*
G01*
G37*
G36*
G01*
X110726000Y-26191172D02*
X110726000Y-27148828D01*
G75*
G02*
X110453828Y-27421000I-272172J0D01*
G01*
X109746172Y-27421000D01*
G75*
G02*
X109474000Y-27148828I0J272172D01*
G01*
X109474000Y-26191172D01*
G75*
G02*
X109746172Y-25919000I272172J0D01*
G01*
X110453828Y-25919000D01*
G75*
G02*
X110726000Y-26191172I0J-272172D01*
G01*
G37*
D13*
X73025000Y-47862500D03*
X75525000Y-45362500D03*
X73025000Y-42862500D03*
G36*
G01*
X77105000Y-61179000D02*
X79105000Y-61179000D01*
G75*
G02*
X79156000Y-61230000I0J-51000D01*
G01*
X79156000Y-63230000D01*
G75*
G02*
X79105000Y-63281000I-51000J0D01*
G01*
X77105000Y-63281000D01*
G75*
G02*
X77054000Y-63230000I0J51000D01*
G01*
X77054000Y-61230000D01*
G75*
G02*
X77105000Y-61179000I51000J0D01*
G01*
G37*
D14*
X80645000Y-62230000D03*
X83185000Y-62230000D03*
X85725000Y-62230000D03*
X88265000Y-62230000D03*
X90805000Y-62230000D03*
X93345000Y-62230000D03*
X95885000Y-62230000D03*
X98425000Y-62230000D03*
X100965000Y-62230000D03*
X142875000Y-29210000D03*
X140335000Y-29210000D03*
X137795000Y-29210000D03*
X135255000Y-29210000D03*
X132715000Y-29210000D03*
X130175000Y-29210000D03*
X127635000Y-29210000D03*
X125095000Y-29210000D03*
X122555000Y-29210000D03*
G36*
G01*
X119015000Y-28159000D02*
X121015000Y-28159000D01*
G75*
G02*
X121066000Y-28210000I0J-51000D01*
G01*
X121066000Y-30210000D01*
G75*
G02*
X121015000Y-30261000I-51000J0D01*
G01*
X119015000Y-30261000D01*
G75*
G02*
X118964000Y-30210000I0J51000D01*
G01*
X118964000Y-28210000D01*
G75*
G02*
X119015000Y-28159000I51000J0D01*
G01*
G37*
G36*
G01*
X114085000Y-56249000D02*
X115785000Y-56249000D01*
G75*
G02*
X115836000Y-56300000I0J-51000D01*
G01*
X115836000Y-58000000D01*
G75*
G02*
X115785000Y-58051000I-51000J0D01*
G01*
X114085000Y-58051000D01*
G75*
G02*
X114034000Y-58000000I0J51000D01*
G01*
X114034000Y-56300000D01*
G75*
G02*
X114085000Y-56249000I51000J0D01*
G01*
G37*
D15*
X112395000Y-57150000D03*
X109855000Y-57150000D03*
X107315000Y-57150000D03*
G36*
G01*
X128690000Y-56249000D02*
X130390000Y-56249000D01*
G75*
G02*
X130441000Y-56300000I0J-51000D01*
G01*
X130441000Y-58000000D01*
G75*
G02*
X130390000Y-58051000I-51000J0D01*
G01*
X128690000Y-58051000D01*
G75*
G02*
X128639000Y-58000000I0J51000D01*
G01*
X128639000Y-56300000D01*
G75*
G02*
X128690000Y-56249000I51000J0D01*
G01*
G37*
X127000000Y-57150000D03*
G36*
G01*
X122716328Y-50228500D02*
X121758672Y-50228500D01*
G75*
G02*
X121486500Y-49956328I0J272172D01*
G01*
X121486500Y-49248672D01*
G75*
G02*
X121758672Y-48976500I272172J0D01*
G01*
X122716328Y-48976500D01*
G75*
G02*
X122988500Y-49248672I0J-272172D01*
G01*
X122988500Y-49956328D01*
G75*
G02*
X122716328Y-50228500I-272172J0D01*
G01*
G37*
G36*
G01*
X122716328Y-48178500D02*
X121758672Y-48178500D01*
G75*
G02*
X121486500Y-47906328I0J272172D01*
G01*
X121486500Y-47198672D01*
G75*
G02*
X121758672Y-46926500I272172J0D01*
G01*
X122716328Y-46926500D01*
G75*
G02*
X122988500Y-47198672I0J-272172D01*
G01*
X122988500Y-47906328D01*
G75*
G02*
X122716328Y-48178500I-272172J0D01*
G01*
G37*
G36*
G01*
X119873000Y-53031000D02*
X119522000Y-53031000D01*
G75*
G02*
X119346500Y-52855500I0J175500D01*
G01*
X119346500Y-51154500D01*
G75*
G02*
X119522000Y-50979000I175500J0D01*
G01*
X119873000Y-50979000D01*
G75*
G02*
X120048500Y-51154500I0J-175500D01*
G01*
X120048500Y-52855500D01*
G75*
G02*
X119873000Y-53031000I-175500J0D01*
G01*
G37*
G36*
G01*
X118603000Y-53031000D02*
X118252000Y-53031000D01*
G75*
G02*
X118076500Y-52855500I0J175500D01*
G01*
X118076500Y-51154500D01*
G75*
G02*
X118252000Y-50979000I175500J0D01*
G01*
X118603000Y-50979000D01*
G75*
G02*
X118778500Y-51154500I0J-175500D01*
G01*
X118778500Y-52855500D01*
G75*
G02*
X118603000Y-53031000I-175500J0D01*
G01*
G37*
G36*
G01*
X117333000Y-53031000D02*
X116982000Y-53031000D01*
G75*
G02*
X116806500Y-52855500I0J175500D01*
G01*
X116806500Y-51154500D01*
G75*
G02*
X116982000Y-50979000I175500J0D01*
G01*
X117333000Y-50979000D01*
G75*
G02*
X117508500Y-51154500I0J-175500D01*
G01*
X117508500Y-52855500D01*
G75*
G02*
X117333000Y-53031000I-175500J0D01*
G01*
G37*
G36*
G01*
X116063000Y-53031000D02*
X115712000Y-53031000D01*
G75*
G02*
X115536500Y-52855500I0J175500D01*
G01*
X115536500Y-51154500D01*
G75*
G02*
X115712000Y-50979000I175500J0D01*
G01*
X116063000Y-50979000D01*
G75*
G02*
X116238500Y-51154500I0J-175500D01*
G01*
X116238500Y-52855500D01*
G75*
G02*
X116063000Y-53031000I-175500J0D01*
G01*
G37*
G36*
G01*
X114793000Y-53031000D02*
X114442000Y-53031000D01*
G75*
G02*
X114266500Y-52855500I0J175500D01*
G01*
X114266500Y-51154500D01*
G75*
G02*
X114442000Y-50979000I175500J0D01*
G01*
X114793000Y-50979000D01*
G75*
G02*
X114968500Y-51154500I0J-175500D01*
G01*
X114968500Y-52855500D01*
G75*
G02*
X114793000Y-53031000I-175500J0D01*
G01*
G37*
G36*
G01*
X113523000Y-53031000D02*
X113172000Y-53031000D01*
G75*
G02*
X112996500Y-52855500I0J175500D01*
G01*
X112996500Y-51154500D01*
G75*
G02*
X113172000Y-50979000I175500J0D01*
G01*
X113523000Y-50979000D01*
G75*
G02*
X113698500Y-51154500I0J-175500D01*
G01*
X113698500Y-52855500D01*
G75*
G02*
X113523000Y-53031000I-175500J0D01*
G01*
G37*
G36*
G01*
X112253000Y-53031000D02*
X111902000Y-53031000D01*
G75*
G02*
X111726500Y-52855500I0J175500D01*
G01*
X111726500Y-51154500D01*
G75*
G02*
X111902000Y-50979000I175500J0D01*
G01*
X112253000Y-50979000D01*
G75*
G02*
X112428500Y-51154500I0J-175500D01*
G01*
X112428500Y-52855500D01*
G75*
G02*
X112253000Y-53031000I-175500J0D01*
G01*
G37*
G36*
G01*
X110983000Y-53031000D02*
X110632000Y-53031000D01*
G75*
G02*
X110456500Y-52855500I0J175500D01*
G01*
X110456500Y-51154500D01*
G75*
G02*
X110632000Y-50979000I175500J0D01*
G01*
X110983000Y-50979000D01*
G75*
G02*
X111158500Y-51154500I0J-175500D01*
G01*
X111158500Y-52855500D01*
G75*
G02*
X110983000Y-53031000I-175500J0D01*
G01*
G37*
G36*
G01*
X110983000Y-48081000D02*
X110632000Y-48081000D01*
G75*
G02*
X110456500Y-47905500I0J175500D01*
G01*
X110456500Y-46204500D01*
G75*
G02*
X110632000Y-46029000I175500J0D01*
G01*
X110983000Y-46029000D01*
G75*
G02*
X111158500Y-46204500I0J-175500D01*
G01*
X111158500Y-47905500D01*
G75*
G02*
X110983000Y-48081000I-175500J0D01*
G01*
G37*
G36*
G01*
X112253000Y-48081000D02*
X111902000Y-48081000D01*
G75*
G02*
X111726500Y-47905500I0J175500D01*
G01*
X111726500Y-46204500D01*
G75*
G02*
X111902000Y-46029000I175500J0D01*
G01*
X112253000Y-46029000D01*
G75*
G02*
X112428500Y-46204500I0J-175500D01*
G01*
X112428500Y-47905500D01*
G75*
G02*
X112253000Y-48081000I-175500J0D01*
G01*
G37*
G36*
G01*
X113523000Y-48081000D02*
X113172000Y-48081000D01*
G75*
G02*
X112996500Y-47905500I0J175500D01*
G01*
X112996500Y-46204500D01*
G75*
G02*
X113172000Y-46029000I175500J0D01*
G01*
X113523000Y-46029000D01*
G75*
G02*
X113698500Y-46204500I0J-175500D01*
G01*
X113698500Y-47905500D01*
G75*
G02*
X113523000Y-48081000I-175500J0D01*
G01*
G37*
G36*
G01*
X114793000Y-48081000D02*
X114442000Y-48081000D01*
G75*
G02*
X114266500Y-47905500I0J175500D01*
G01*
X114266500Y-46204500D01*
G75*
G02*
X114442000Y-46029000I175500J0D01*
G01*
X114793000Y-46029000D01*
G75*
G02*
X114968500Y-46204500I0J-175500D01*
G01*
X114968500Y-47905500D01*
G75*
G02*
X114793000Y-48081000I-175500J0D01*
G01*
G37*
G36*
G01*
X116063000Y-48081000D02*
X115712000Y-48081000D01*
G75*
G02*
X115536500Y-47905500I0J175500D01*
G01*
X115536500Y-46204500D01*
G75*
G02*
X115712000Y-46029000I175500J0D01*
G01*
X116063000Y-46029000D01*
G75*
G02*
X116238500Y-46204500I0J-175500D01*
G01*
X116238500Y-47905500D01*
G75*
G02*
X116063000Y-48081000I-175500J0D01*
G01*
G37*
G36*
G01*
X117333000Y-48081000D02*
X116982000Y-48081000D01*
G75*
G02*
X116806500Y-47905500I0J175500D01*
G01*
X116806500Y-46204500D01*
G75*
G02*
X116982000Y-46029000I175500J0D01*
G01*
X117333000Y-46029000D01*
G75*
G02*
X117508500Y-46204500I0J-175500D01*
G01*
X117508500Y-47905500D01*
G75*
G02*
X117333000Y-48081000I-175500J0D01*
G01*
G37*
G36*
G01*
X118603000Y-48081000D02*
X118252000Y-48081000D01*
G75*
G02*
X118076500Y-47905500I0J175500D01*
G01*
X118076500Y-46204500D01*
G75*
G02*
X118252000Y-46029000I175500J0D01*
G01*
X118603000Y-46029000D01*
G75*
G02*
X118778500Y-46204500I0J-175500D01*
G01*
X118778500Y-47905500D01*
G75*
G02*
X118603000Y-48081000I-175500J0D01*
G01*
G37*
G36*
G01*
X119873000Y-48081000D02*
X119522000Y-48081000D01*
G75*
G02*
X119346500Y-47905500I0J175500D01*
G01*
X119346500Y-46204500D01*
G75*
G02*
X119522000Y-46029000I175500J0D01*
G01*
X119873000Y-46029000D01*
G75*
G02*
X120048500Y-46204500I0J-175500D01*
G01*
X120048500Y-47905500D01*
G75*
G02*
X119873000Y-48081000I-175500J0D01*
G01*
G37*
M02*
