G04 #@! TF.GenerationSoftware,KiCad,Pcbnew,(5.1.8)-1*
G04 #@! TF.CreationDate,2020-11-24T22:17:42+03:00*
G04 #@! TF.ProjectId,LCD,4c43442e-6b69-4636-9164-5f7063625858,rev?*
G04 #@! TF.SameCoordinates,Original*
G04 #@! TF.FileFunction,Copper,L2,Bot*
G04 #@! TF.FilePolarity,Positive*
%FSLAX46Y46*%
G04 Gerber Fmt 4.6, Leading zero omitted, Abs format (unit mm)*
G04 Created by KiCad (PCBNEW (5.1.8)-1) date 2020-11-24 22:17:42*
%MOMM*%
%LPD*%
G01*
G04 APERTURE LIST*
G04 #@! TA.AperFunction,NonConductor*
%ADD10C,0.200000*%
G04 #@! TD*
G04 #@! TA.AperFunction,NonConductor*
%ADD11C,0.300000*%
G04 #@! TD*
G04 #@! TA.AperFunction,ComponentPad*
%ADD12O,1.800000X2.600000*%
G04 #@! TD*
G04 #@! TA.AperFunction,ComponentPad*
%ADD13R,1.800000X2.600000*%
G04 #@! TD*
G04 #@! TA.AperFunction,ComponentPad*
%ADD14C,2.200000*%
G04 #@! TD*
G04 #@! TA.AperFunction,ComponentPad*
%ADD15R,2.000000X2.000000*%
G04 #@! TD*
G04 #@! TA.AperFunction,ComponentPad*
%ADD16C,2.000000*%
G04 #@! TD*
G04 #@! TA.AperFunction,ViaPad*
%ADD17C,2.200000*%
G04 #@! TD*
G04 #@! TA.AperFunction,ViaPad*
%ADD18C,1.600000*%
G04 #@! TD*
G04 #@! TA.AperFunction,Conductor*
%ADD19C,0.250000*%
G04 #@! TD*
G04 #@! TA.AperFunction,Conductor*
%ADD20C,0.800000*%
G04 #@! TD*
G04 #@! TA.AperFunction,Conductor*
%ADD21C,0.600000*%
G04 #@! TD*
G04 APERTURE END LIST*
D10*
X138461428Y-56300714D02*
X138080476Y-56300714D01*
X138318571Y-56967380D02*
X138318571Y-56110238D01*
X138270952Y-56015000D01*
X138175714Y-55967380D01*
X138080476Y-55967380D01*
X137270952Y-55967380D02*
X137747142Y-55967380D01*
X137794761Y-56443571D01*
X137747142Y-56395952D01*
X137651904Y-56348333D01*
X137413809Y-56348333D01*
X137318571Y-56395952D01*
X137270952Y-56443571D01*
X137223333Y-56538809D01*
X137223333Y-56776904D01*
X137270952Y-56872142D01*
X137318571Y-56919761D01*
X137413809Y-56967380D01*
X137651904Y-56967380D01*
X137747142Y-56919761D01*
X137794761Y-56872142D01*
X136318571Y-55967380D02*
X136794761Y-55967380D01*
X136842380Y-56443571D01*
X136794761Y-56395952D01*
X136699523Y-56348333D01*
X136461428Y-56348333D01*
X136366190Y-56395952D01*
X136318571Y-56443571D01*
X136270952Y-56538809D01*
X136270952Y-56776904D01*
X136318571Y-56872142D01*
X136366190Y-56919761D01*
X136461428Y-56967380D01*
X136699523Y-56967380D01*
X136794761Y-56919761D01*
X136842380Y-56872142D01*
X135937619Y-55967380D02*
X135318571Y-55967380D01*
X135651904Y-56348333D01*
X135509047Y-56348333D01*
X135413809Y-56395952D01*
X135366190Y-56443571D01*
X135318571Y-56538809D01*
X135318571Y-56776904D01*
X135366190Y-56872142D01*
X135413809Y-56919761D01*
X135509047Y-56967380D01*
X135794761Y-56967380D01*
X135890000Y-56919761D01*
X135937619Y-56872142D01*
X134366190Y-56967380D02*
X134937619Y-56967380D01*
X134651904Y-56967380D02*
X134651904Y-55967380D01*
X134747142Y-56110238D01*
X134842380Y-56205476D01*
X134937619Y-56253095D01*
X133985238Y-56062619D02*
X133937619Y-56015000D01*
X133842380Y-55967380D01*
X133604285Y-55967380D01*
X133509047Y-56015000D01*
X133461428Y-56062619D01*
X133413809Y-56157857D01*
X133413809Y-56253095D01*
X133461428Y-56395952D01*
X134032857Y-56967380D01*
X133413809Y-56967380D01*
D11*
X129023928Y-55876071D02*
X128666785Y-56876071D01*
X128309642Y-55876071D01*
X127809642Y-55518928D02*
X127738214Y-55447500D01*
X127595357Y-55376071D01*
X127238214Y-55376071D01*
X127095357Y-55447500D01*
X127023928Y-55518928D01*
X126952500Y-55661785D01*
X126952500Y-55804642D01*
X127023928Y-56018928D01*
X127881071Y-56876071D01*
X126952500Y-56876071D01*
D10*
X122586309Y-56967380D02*
X123157738Y-56967380D01*
X122872023Y-56967380D02*
X122872023Y-55967380D01*
X122967261Y-56110238D01*
X123062500Y-56205476D01*
X123157738Y-56253095D01*
X121729166Y-55967380D02*
X121919642Y-55967380D01*
X122014880Y-56015000D01*
X122062500Y-56062619D01*
X122157738Y-56205476D01*
X122205357Y-56395952D01*
X122205357Y-56776904D01*
X122157738Y-56872142D01*
X122110119Y-56919761D01*
X122014880Y-56967380D01*
X121824404Y-56967380D01*
X121729166Y-56919761D01*
X121681547Y-56872142D01*
X121633928Y-56776904D01*
X121633928Y-56538809D01*
X121681547Y-56443571D01*
X121729166Y-56395952D01*
X121824404Y-56348333D01*
X122014880Y-56348333D01*
X122110119Y-56395952D01*
X122157738Y-56443571D01*
X122205357Y-56538809D01*
X121205357Y-56872142D02*
X121157738Y-56919761D01*
X121205357Y-56967380D01*
X121252976Y-56919761D01*
X121205357Y-56872142D01*
X121205357Y-56967380D01*
X120538690Y-55967380D02*
X120443452Y-55967380D01*
X120348214Y-56015000D01*
X120300595Y-56062619D01*
X120252976Y-56157857D01*
X120205357Y-56348333D01*
X120205357Y-56586428D01*
X120252976Y-56776904D01*
X120300595Y-56872142D01*
X120348214Y-56919761D01*
X120443452Y-56967380D01*
X120538690Y-56967380D01*
X120633928Y-56919761D01*
X120681547Y-56872142D01*
X120729166Y-56776904D01*
X120776785Y-56586428D01*
X120776785Y-56348333D01*
X120729166Y-56157857D01*
X120681547Y-56062619D01*
X120633928Y-56015000D01*
X120538690Y-55967380D01*
X119300595Y-55967380D02*
X119776785Y-55967380D01*
X119824404Y-56443571D01*
X119776785Y-56395952D01*
X119681547Y-56348333D01*
X119443452Y-56348333D01*
X119348214Y-56395952D01*
X119300595Y-56443571D01*
X119252976Y-56538809D01*
X119252976Y-56776904D01*
X119300595Y-56872142D01*
X119348214Y-56919761D01*
X119443452Y-56967380D01*
X119681547Y-56967380D01*
X119776785Y-56919761D01*
X119824404Y-56872142D01*
X118824404Y-56872142D02*
X118776785Y-56919761D01*
X118824404Y-56967380D01*
X118872023Y-56919761D01*
X118824404Y-56872142D01*
X118824404Y-56967380D01*
X118395833Y-56062619D02*
X118348214Y-56015000D01*
X118252976Y-55967380D01*
X118014880Y-55967380D01*
X117919642Y-56015000D01*
X117872023Y-56062619D01*
X117824404Y-56157857D01*
X117824404Y-56253095D01*
X117872023Y-56395952D01*
X118443452Y-56967380D01*
X117824404Y-56967380D01*
X117205357Y-55967380D02*
X117110119Y-55967380D01*
X117014880Y-56015000D01*
X116967261Y-56062619D01*
X116919642Y-56157857D01*
X116872023Y-56348333D01*
X116872023Y-56586428D01*
X116919642Y-56776904D01*
X116967261Y-56872142D01*
X117014880Y-56919761D01*
X117110119Y-56967380D01*
X117205357Y-56967380D01*
X117300595Y-56919761D01*
X117348214Y-56872142D01*
X117395833Y-56776904D01*
X117443452Y-56586428D01*
X117443452Y-56348333D01*
X117395833Y-56157857D01*
X117348214Y-56062619D01*
X117300595Y-56015000D01*
X117205357Y-55967380D01*
X116491071Y-56062619D02*
X116443452Y-56015000D01*
X116348214Y-55967380D01*
X116110119Y-55967380D01*
X116014880Y-56015000D01*
X115967261Y-56062619D01*
X115919642Y-56157857D01*
X115919642Y-56253095D01*
X115967261Y-56395952D01*
X116538690Y-56967380D01*
X115919642Y-56967380D01*
X115300595Y-55967380D02*
X115205357Y-55967380D01*
X115110119Y-56015000D01*
X115062500Y-56062619D01*
X115014880Y-56157857D01*
X114967261Y-56348333D01*
X114967261Y-56586428D01*
X115014880Y-56776904D01*
X115062500Y-56872142D01*
X115110119Y-56919761D01*
X115205357Y-56967380D01*
X115300595Y-56967380D01*
X115395833Y-56919761D01*
X115443452Y-56872142D01*
X115491071Y-56776904D01*
X115538690Y-56586428D01*
X115538690Y-56348333D01*
X115491071Y-56157857D01*
X115443452Y-56062619D01*
X115395833Y-56015000D01*
X115300595Y-55967380D01*
D12*
X116586000Y-31242000D03*
X114046000Y-31242000D03*
X111506000Y-31242000D03*
X108966000Y-31242000D03*
X106426000Y-31242000D03*
X103886000Y-31242000D03*
X101346000Y-31242000D03*
X98806000Y-31242000D03*
X96266000Y-31242000D03*
X93726000Y-31242000D03*
X91186000Y-31242000D03*
X88646000Y-31242000D03*
X86106000Y-31242000D03*
X83566000Y-31242000D03*
X81026000Y-31242000D03*
D13*
X78486000Y-31242000D03*
G04 #@! TA.AperFunction,SMDPad,CuDef*
G36*
G01*
X112725000Y-26219999D02*
X112725000Y-27120001D01*
G75*
G02*
X112475001Y-27370000I-249999J0D01*
G01*
X111824999Y-27370000D01*
G75*
G02*
X111575000Y-27120001I0J249999D01*
G01*
X111575000Y-26219999D01*
G75*
G02*
X111824999Y-25970000I249999J0D01*
G01*
X112475001Y-25970000D01*
G75*
G02*
X112725000Y-26219999I0J-249999D01*
G01*
G37*
G04 #@! TD.AperFunction*
G04 #@! TA.AperFunction,SMDPad,CuDef*
G36*
G01*
X110675000Y-26219999D02*
X110675000Y-27120001D01*
G75*
G02*
X110425001Y-27370000I-249999J0D01*
G01*
X109774999Y-27370000D01*
G75*
G02*
X109525000Y-27120001I0J249999D01*
G01*
X109525000Y-26219999D01*
G75*
G02*
X109774999Y-25970000I249999J0D01*
G01*
X110425001Y-25970000D01*
G75*
G02*
X110675000Y-26219999I0J-249999D01*
G01*
G37*
G04 #@! TD.AperFunction*
D14*
X73025000Y-47862500D03*
X75525000Y-45362500D03*
X73025000Y-42862500D03*
D15*
X78105000Y-62230000D03*
D16*
X80645000Y-62230000D03*
X83185000Y-62230000D03*
X85725000Y-62230000D03*
X88265000Y-62230000D03*
X90805000Y-62230000D03*
X93345000Y-62230000D03*
X95885000Y-62230000D03*
X98425000Y-62230000D03*
X100965000Y-62230000D03*
X142875000Y-29210000D03*
X140335000Y-29210000D03*
X137795000Y-29210000D03*
X135255000Y-29210000D03*
X132715000Y-29210000D03*
X130175000Y-29210000D03*
X127635000Y-29210000D03*
X125095000Y-29210000D03*
X122555000Y-29210000D03*
D15*
X120015000Y-29210000D03*
D17*
X120015000Y-62230000D03*
X122555000Y-62230000D03*
X125095000Y-62230000D03*
X127635000Y-62230000D03*
X130175000Y-62230000D03*
X132715000Y-62230000D03*
X135255000Y-62230000D03*
X137795000Y-62230000D03*
X140335000Y-62230000D03*
X142875000Y-62230000D03*
D18*
X88646000Y-34290000D03*
X78486000Y-34290000D03*
X86106000Y-39370000D03*
X95250000Y-39370000D03*
D19*
X100330000Y-64770000D02*
X101917500Y-64770000D01*
X101917500Y-65405000D02*
X101917500Y-64135000D01*
X78105000Y-64135000D02*
X78105000Y-65405000D01*
X77470000Y-64770000D02*
X78740000Y-64770000D01*
D20*
X81026000Y-31242000D02*
X81026000Y-28829000D01*
X81026000Y-28829000D02*
X81280000Y-28575000D01*
X114046000Y-29142000D02*
X114046000Y-31242000D01*
X113479000Y-28575000D02*
X114046000Y-29142000D01*
X81280000Y-28575000D02*
X113479000Y-28575000D01*
X71755000Y-56515000D02*
X71120000Y-55880000D01*
X81026000Y-35814000D02*
X81026000Y-31242000D01*
X80010000Y-36830000D02*
X81026000Y-35814000D01*
X71120000Y-37782500D02*
X72072500Y-36830000D01*
X72072500Y-36830000D02*
X80010000Y-36830000D01*
X71120000Y-55880000D02*
X71120000Y-42862500D01*
X73025000Y-42862500D02*
X71120000Y-42862500D01*
X71120000Y-42862500D02*
X71120000Y-37782500D01*
X78105000Y-58420000D02*
X78105000Y-62230000D01*
X76200000Y-56515000D02*
X78105000Y-58420000D01*
X76200000Y-56515000D02*
X71755000Y-56515000D01*
X88646000Y-36576000D02*
X88646000Y-36576000D01*
X88646000Y-31242000D02*
X88646000Y-34544000D01*
X98425000Y-52705000D02*
X100965000Y-55245000D01*
X100965000Y-55245000D02*
X100965000Y-62230000D01*
X78486000Y-31242000D02*
X78486000Y-27559000D01*
X78486000Y-27559000D02*
X79375000Y-26670000D01*
X78486000Y-31301000D02*
X78486000Y-34290000D01*
X78486000Y-34290000D02*
X78486000Y-34290000D01*
X88646000Y-34544000D02*
X88646000Y-47862500D01*
X79375000Y-26670000D02*
X110100000Y-26670000D01*
X73025000Y-47862500D02*
X88646000Y-47862500D01*
X88646000Y-48006000D02*
X93345000Y-52705000D01*
X88646000Y-47862500D02*
X88646000Y-48006000D01*
X93345000Y-52705000D02*
X98425000Y-52705000D01*
X142875000Y-39370000D02*
X142875000Y-29210000D01*
X141605000Y-43180000D02*
X142875000Y-41910000D01*
X142875000Y-41910000D02*
X142875000Y-39370000D01*
X92456000Y-43180000D02*
X141605000Y-43180000D01*
X91186000Y-31242000D02*
X91186000Y-41910000D01*
X91186000Y-41910000D02*
X92456000Y-43180000D01*
X86106000Y-31242000D02*
X86106000Y-39370000D01*
X128905000Y-39370000D02*
X130175000Y-38100000D01*
X130175000Y-38100000D02*
X130175000Y-29210000D01*
X128905000Y-39370000D02*
X95250000Y-39370000D01*
X103886000Y-31242000D02*
X103886000Y-37211000D01*
X103886000Y-37211000D02*
X104775000Y-38100000D01*
X126365000Y-38100000D02*
X127635000Y-36830000D01*
X127635000Y-36830000D02*
X127635000Y-29210000D01*
X104775000Y-38100000D02*
X126365000Y-38100000D01*
X106426000Y-35941000D02*
X107315000Y-36830000D01*
X106426000Y-31242000D02*
X106426000Y-35941000D01*
X123825000Y-36830000D02*
X125095000Y-35560000D01*
X125095000Y-35560000D02*
X125095000Y-29210000D01*
X107315000Y-36830000D02*
X123825000Y-36830000D01*
X108966000Y-34671000D02*
X109855000Y-35560000D01*
X108966000Y-31242000D02*
X108966000Y-34671000D01*
X121285000Y-35560000D02*
X122555000Y-34290000D01*
X122555000Y-34290000D02*
X122555000Y-29210000D01*
X109855000Y-35560000D02*
X121285000Y-35560000D01*
X111506000Y-33401000D02*
X112395000Y-34290000D01*
X111506000Y-31242000D02*
X111506000Y-33401000D01*
X118745000Y-34290000D02*
X120015000Y-33020000D01*
X120015000Y-33020000D02*
X120015000Y-29210000D01*
X112395000Y-34290000D02*
X118745000Y-34290000D01*
X83566000Y-31242000D02*
X83566000Y-39624000D01*
X75525000Y-45362500D02*
X81320000Y-45362500D01*
X83566000Y-43116500D02*
X83566000Y-39624000D01*
X81320000Y-45362500D02*
X83566000Y-43116500D01*
D21*
X96266000Y-31242000D02*
X96266000Y-31642000D01*
D20*
X116586000Y-27686000D02*
X116586000Y-31242000D01*
X115570000Y-26670000D02*
X116586000Y-27686000D01*
X115570000Y-26670000D02*
X112150000Y-26670000D01*
M02*
