G04 #@! TF.GenerationSoftware,KiCad,Pcbnew,(5.1.8)-1*
G04 #@! TF.CreationDate,2020-11-29T01:33:09+03:00*
G04 #@! TF.ProjectId,LCD,4c43442e-6b69-4636-9164-5f7063625858,rev?*
G04 #@! TF.SameCoordinates,Original*
G04 #@! TF.FileFunction,Copper,L2,Bot*
G04 #@! TF.FilePolarity,Positive*
%FSLAX46Y46*%
G04 Gerber Fmt 4.6, Leading zero omitted, Abs format (unit mm)*
G04 Created by KiCad (PCBNEW (5.1.8)-1) date 2020-11-29 01:33:09*
%MOMM*%
%LPD*%
G01*
G04 APERTURE LIST*
G04 #@! TA.AperFunction,NonConductor*
%ADD10C,0.200000*%
G04 #@! TD*
G04 #@! TA.AperFunction,NonConductor*
%ADD11C,0.300000*%
G04 #@! TD*
G04 #@! TA.AperFunction,ComponentPad*
%ADD12O,1.800000X2.600000*%
G04 #@! TD*
G04 #@! TA.AperFunction,ComponentPad*
%ADD13R,1.800000X2.600000*%
G04 #@! TD*
G04 #@! TA.AperFunction,ComponentPad*
%ADD14C,2.200000*%
G04 #@! TD*
G04 #@! TA.AperFunction,ComponentPad*
%ADD15R,2.000000X2.000000*%
G04 #@! TD*
G04 #@! TA.AperFunction,ComponentPad*
%ADD16C,2.000000*%
G04 #@! TD*
G04 #@! TA.AperFunction,ComponentPad*
%ADD17R,1.700000X1.700000*%
G04 #@! TD*
G04 #@! TA.AperFunction,ComponentPad*
%ADD18O,1.700000X1.700000*%
G04 #@! TD*
G04 #@! TA.AperFunction,ViaPad*
%ADD19C,2.200000*%
G04 #@! TD*
G04 #@! TA.AperFunction,ViaPad*
%ADD20C,1.600000*%
G04 #@! TD*
G04 #@! TA.AperFunction,Conductor*
%ADD21C,0.250000*%
G04 #@! TD*
G04 #@! TA.AperFunction,Conductor*
%ADD22C,0.800000*%
G04 #@! TD*
G04 #@! TA.AperFunction,Conductor*
%ADD23C,0.500000*%
G04 #@! TD*
G04 #@! TA.AperFunction,Conductor*
%ADD24C,0.600000*%
G04 #@! TD*
G04 APERTURE END LIST*
D10*
X85208809Y-50934880D02*
X85780238Y-50934880D01*
X85494523Y-50934880D02*
X85494523Y-49934880D01*
X85589761Y-50077738D01*
X85685000Y-50172976D01*
X85780238Y-50220595D01*
X84351666Y-50887261D02*
X84446904Y-50934880D01*
X84637380Y-50934880D01*
X84732619Y-50887261D01*
X84780238Y-50839642D01*
X84827857Y-50744404D01*
X84827857Y-50458690D01*
X84780238Y-50363452D01*
X84732619Y-50315833D01*
X84637380Y-50268214D01*
X84446904Y-50268214D01*
X84351666Y-50315833D01*
X83399285Y-50934880D02*
X83970714Y-50934880D01*
X83685000Y-50934880D02*
X83685000Y-49934880D01*
X83780238Y-50077738D01*
X83875476Y-50172976D01*
X83970714Y-50220595D01*
X82542142Y-50268214D02*
X82542142Y-50934880D01*
X82780238Y-49887261D02*
X83018333Y-50601547D01*
X82399285Y-50601547D01*
X81589761Y-49934880D02*
X81780238Y-49934880D01*
X81875476Y-49982500D01*
X81923095Y-50030119D01*
X82018333Y-50172976D01*
X82065952Y-50363452D01*
X82065952Y-50744404D01*
X82018333Y-50839642D01*
X81970714Y-50887261D01*
X81875476Y-50934880D01*
X81685000Y-50934880D01*
X81589761Y-50887261D01*
X81542142Y-50839642D01*
X81494523Y-50744404D01*
X81494523Y-50506309D01*
X81542142Y-50411071D01*
X81589761Y-50363452D01*
X81685000Y-50315833D01*
X81875476Y-50315833D01*
X81970714Y-50363452D01*
X82018333Y-50411071D01*
X82065952Y-50506309D01*
X80637380Y-50934880D02*
X80637380Y-50411071D01*
X80685000Y-50315833D01*
X80780238Y-50268214D01*
X80970714Y-50268214D01*
X81065952Y-50315833D01*
X80637380Y-50887261D02*
X80732619Y-50934880D01*
X80970714Y-50934880D01*
X81065952Y-50887261D01*
X81113571Y-50792023D01*
X81113571Y-50696785D01*
X81065952Y-50601547D01*
X80970714Y-50553928D01*
X80732619Y-50553928D01*
X80637380Y-50506309D01*
D11*
X77271428Y-52701071D02*
X76914285Y-53701071D01*
X76557142Y-52701071D01*
X76057142Y-52343928D02*
X75985714Y-52272500D01*
X75842857Y-52201071D01*
X75485714Y-52201071D01*
X75342857Y-52272500D01*
X75271428Y-52343928D01*
X75200000Y-52486785D01*
X75200000Y-52629642D01*
X75271428Y-52843928D01*
X76128571Y-53701071D01*
X75200000Y-53701071D01*
D10*
X88232738Y-52887619D02*
X88185119Y-52840000D01*
X88089880Y-52792380D01*
X87851785Y-52792380D01*
X87756547Y-52840000D01*
X87708928Y-52887619D01*
X87661309Y-52982857D01*
X87661309Y-53078095D01*
X87708928Y-53220952D01*
X88280357Y-53792380D01*
X87661309Y-53792380D01*
X87185119Y-53792380D02*
X86994642Y-53792380D01*
X86899404Y-53744761D01*
X86851785Y-53697142D01*
X86756547Y-53554285D01*
X86708928Y-53363809D01*
X86708928Y-52982857D01*
X86756547Y-52887619D01*
X86804166Y-52840000D01*
X86899404Y-52792380D01*
X87089880Y-52792380D01*
X87185119Y-52840000D01*
X87232738Y-52887619D01*
X87280357Y-52982857D01*
X87280357Y-53220952D01*
X87232738Y-53316190D01*
X87185119Y-53363809D01*
X87089880Y-53411428D01*
X86899404Y-53411428D01*
X86804166Y-53363809D01*
X86756547Y-53316190D01*
X86708928Y-53220952D01*
X86280357Y-53697142D02*
X86232738Y-53744761D01*
X86280357Y-53792380D01*
X86327976Y-53744761D01*
X86280357Y-53697142D01*
X86280357Y-53792380D01*
X85613690Y-52792380D02*
X85518452Y-52792380D01*
X85423214Y-52840000D01*
X85375595Y-52887619D01*
X85327976Y-52982857D01*
X85280357Y-53173333D01*
X85280357Y-53411428D01*
X85327976Y-53601904D01*
X85375595Y-53697142D01*
X85423214Y-53744761D01*
X85518452Y-53792380D01*
X85613690Y-53792380D01*
X85708928Y-53744761D01*
X85756547Y-53697142D01*
X85804166Y-53601904D01*
X85851785Y-53411428D01*
X85851785Y-53173333D01*
X85804166Y-52982857D01*
X85756547Y-52887619D01*
X85708928Y-52840000D01*
X85613690Y-52792380D01*
X84375595Y-52792380D02*
X84851785Y-52792380D01*
X84899404Y-53268571D01*
X84851785Y-53220952D01*
X84756547Y-53173333D01*
X84518452Y-53173333D01*
X84423214Y-53220952D01*
X84375595Y-53268571D01*
X84327976Y-53363809D01*
X84327976Y-53601904D01*
X84375595Y-53697142D01*
X84423214Y-53744761D01*
X84518452Y-53792380D01*
X84756547Y-53792380D01*
X84851785Y-53744761D01*
X84899404Y-53697142D01*
X83899404Y-53697142D02*
X83851785Y-53744761D01*
X83899404Y-53792380D01*
X83947023Y-53744761D01*
X83899404Y-53697142D01*
X83899404Y-53792380D01*
X83470833Y-52887619D02*
X83423214Y-52840000D01*
X83327976Y-52792380D01*
X83089880Y-52792380D01*
X82994642Y-52840000D01*
X82947023Y-52887619D01*
X82899404Y-52982857D01*
X82899404Y-53078095D01*
X82947023Y-53220952D01*
X83518452Y-53792380D01*
X82899404Y-53792380D01*
X82280357Y-52792380D02*
X82185119Y-52792380D01*
X82089880Y-52840000D01*
X82042261Y-52887619D01*
X81994642Y-52982857D01*
X81947023Y-53173333D01*
X81947023Y-53411428D01*
X81994642Y-53601904D01*
X82042261Y-53697142D01*
X82089880Y-53744761D01*
X82185119Y-53792380D01*
X82280357Y-53792380D01*
X82375595Y-53744761D01*
X82423214Y-53697142D01*
X82470833Y-53601904D01*
X82518452Y-53411428D01*
X82518452Y-53173333D01*
X82470833Y-52982857D01*
X82423214Y-52887619D01*
X82375595Y-52840000D01*
X82280357Y-52792380D01*
X81566071Y-52887619D02*
X81518452Y-52840000D01*
X81423214Y-52792380D01*
X81185119Y-52792380D01*
X81089880Y-52840000D01*
X81042261Y-52887619D01*
X80994642Y-52982857D01*
X80994642Y-53078095D01*
X81042261Y-53220952D01*
X81613690Y-53792380D01*
X80994642Y-53792380D01*
X80375595Y-52792380D02*
X80280357Y-52792380D01*
X80185119Y-52840000D01*
X80137500Y-52887619D01*
X80089880Y-52982857D01*
X80042261Y-53173333D01*
X80042261Y-53411428D01*
X80089880Y-53601904D01*
X80137500Y-53697142D01*
X80185119Y-53744761D01*
X80280357Y-53792380D01*
X80375595Y-53792380D01*
X80470833Y-53744761D01*
X80518452Y-53697142D01*
X80566071Y-53601904D01*
X80613690Y-53411428D01*
X80613690Y-53173333D01*
X80566071Y-52982857D01*
X80518452Y-52887619D01*
X80470833Y-52840000D01*
X80375595Y-52792380D01*
D12*
X116586000Y-31242000D03*
X114046000Y-31242000D03*
X111506000Y-31242000D03*
X108966000Y-31242000D03*
X106426000Y-31242000D03*
X103886000Y-31242000D03*
X101346000Y-31242000D03*
X98806000Y-31242000D03*
X96266000Y-31242000D03*
X93726000Y-31242000D03*
X91186000Y-31242000D03*
X88646000Y-31242000D03*
X86106000Y-31242000D03*
X83566000Y-31242000D03*
X81026000Y-31242000D03*
D13*
X78486000Y-31242000D03*
G04 #@! TA.AperFunction,SMDPad,CuDef*
G36*
G01*
X112725000Y-26219999D02*
X112725000Y-27120001D01*
G75*
G02*
X112475001Y-27370000I-249999J0D01*
G01*
X111824999Y-27370000D01*
G75*
G02*
X111575000Y-27120001I0J249999D01*
G01*
X111575000Y-26219999D01*
G75*
G02*
X111824999Y-25970000I249999J0D01*
G01*
X112475001Y-25970000D01*
G75*
G02*
X112725000Y-26219999I0J-249999D01*
G01*
G37*
G04 #@! TD.AperFunction*
G04 #@! TA.AperFunction,SMDPad,CuDef*
G36*
G01*
X110675000Y-26219999D02*
X110675000Y-27120001D01*
G75*
G02*
X110425001Y-27370000I-249999J0D01*
G01*
X109774999Y-27370000D01*
G75*
G02*
X109525000Y-27120001I0J249999D01*
G01*
X109525000Y-26219999D01*
G75*
G02*
X109774999Y-25970000I249999J0D01*
G01*
X110425001Y-25970000D01*
G75*
G02*
X110675000Y-26219999I0J-249999D01*
G01*
G37*
G04 #@! TD.AperFunction*
D14*
X73025000Y-47862500D03*
X75525000Y-45362500D03*
X73025000Y-42862500D03*
D15*
X78105000Y-62230000D03*
D16*
X80645000Y-62230000D03*
X83185000Y-62230000D03*
X85725000Y-62230000D03*
X88265000Y-62230000D03*
X90805000Y-62230000D03*
X93345000Y-62230000D03*
X95885000Y-62230000D03*
X98425000Y-62230000D03*
X100965000Y-62230000D03*
X142875000Y-29210000D03*
X140335000Y-29210000D03*
X137795000Y-29210000D03*
X135255000Y-29210000D03*
X132715000Y-29210000D03*
X130175000Y-29210000D03*
X127635000Y-29210000D03*
X125095000Y-29210000D03*
X122555000Y-29210000D03*
D15*
X120015000Y-29210000D03*
D17*
X114935000Y-57150000D03*
D18*
X112395000Y-57150000D03*
X109855000Y-57150000D03*
X107315000Y-57150000D03*
D17*
X129540000Y-57150000D03*
D18*
X127000000Y-57150000D03*
G04 #@! TA.AperFunction,SMDPad,CuDef*
G36*
G01*
X122687501Y-50177500D02*
X121787499Y-50177500D01*
G75*
G02*
X121537500Y-49927501I0J249999D01*
G01*
X121537500Y-49277499D01*
G75*
G02*
X121787499Y-49027500I249999J0D01*
G01*
X122687501Y-49027500D01*
G75*
G02*
X122937500Y-49277499I0J-249999D01*
G01*
X122937500Y-49927501D01*
G75*
G02*
X122687501Y-50177500I-249999J0D01*
G01*
G37*
G04 #@! TD.AperFunction*
G04 #@! TA.AperFunction,SMDPad,CuDef*
G36*
G01*
X122687501Y-48127500D02*
X121787499Y-48127500D01*
G75*
G02*
X121537500Y-47877501I0J249999D01*
G01*
X121537500Y-47227499D01*
G75*
G02*
X121787499Y-46977500I249999J0D01*
G01*
X122687501Y-46977500D01*
G75*
G02*
X122937500Y-47227499I0J-249999D01*
G01*
X122937500Y-47877501D01*
G75*
G02*
X122687501Y-48127500I-249999J0D01*
G01*
G37*
G04 #@! TD.AperFunction*
G04 #@! TA.AperFunction,SMDPad,CuDef*
G36*
G01*
X119847500Y-52980000D02*
X119547500Y-52980000D01*
G75*
G02*
X119397500Y-52830000I0J150000D01*
G01*
X119397500Y-51180000D01*
G75*
G02*
X119547500Y-51030000I150000J0D01*
G01*
X119847500Y-51030000D01*
G75*
G02*
X119997500Y-51180000I0J-150000D01*
G01*
X119997500Y-52830000D01*
G75*
G02*
X119847500Y-52980000I-150000J0D01*
G01*
G37*
G04 #@! TD.AperFunction*
G04 #@! TA.AperFunction,SMDPad,CuDef*
G36*
G01*
X118577500Y-52980000D02*
X118277500Y-52980000D01*
G75*
G02*
X118127500Y-52830000I0J150000D01*
G01*
X118127500Y-51180000D01*
G75*
G02*
X118277500Y-51030000I150000J0D01*
G01*
X118577500Y-51030000D01*
G75*
G02*
X118727500Y-51180000I0J-150000D01*
G01*
X118727500Y-52830000D01*
G75*
G02*
X118577500Y-52980000I-150000J0D01*
G01*
G37*
G04 #@! TD.AperFunction*
G04 #@! TA.AperFunction,SMDPad,CuDef*
G36*
G01*
X117307500Y-52980000D02*
X117007500Y-52980000D01*
G75*
G02*
X116857500Y-52830000I0J150000D01*
G01*
X116857500Y-51180000D01*
G75*
G02*
X117007500Y-51030000I150000J0D01*
G01*
X117307500Y-51030000D01*
G75*
G02*
X117457500Y-51180000I0J-150000D01*
G01*
X117457500Y-52830000D01*
G75*
G02*
X117307500Y-52980000I-150000J0D01*
G01*
G37*
G04 #@! TD.AperFunction*
G04 #@! TA.AperFunction,SMDPad,CuDef*
G36*
G01*
X116037500Y-52980000D02*
X115737500Y-52980000D01*
G75*
G02*
X115587500Y-52830000I0J150000D01*
G01*
X115587500Y-51180000D01*
G75*
G02*
X115737500Y-51030000I150000J0D01*
G01*
X116037500Y-51030000D01*
G75*
G02*
X116187500Y-51180000I0J-150000D01*
G01*
X116187500Y-52830000D01*
G75*
G02*
X116037500Y-52980000I-150000J0D01*
G01*
G37*
G04 #@! TD.AperFunction*
G04 #@! TA.AperFunction,SMDPad,CuDef*
G36*
G01*
X114767500Y-52980000D02*
X114467500Y-52980000D01*
G75*
G02*
X114317500Y-52830000I0J150000D01*
G01*
X114317500Y-51180000D01*
G75*
G02*
X114467500Y-51030000I150000J0D01*
G01*
X114767500Y-51030000D01*
G75*
G02*
X114917500Y-51180000I0J-150000D01*
G01*
X114917500Y-52830000D01*
G75*
G02*
X114767500Y-52980000I-150000J0D01*
G01*
G37*
G04 #@! TD.AperFunction*
G04 #@! TA.AperFunction,SMDPad,CuDef*
G36*
G01*
X113497500Y-52980000D02*
X113197500Y-52980000D01*
G75*
G02*
X113047500Y-52830000I0J150000D01*
G01*
X113047500Y-51180000D01*
G75*
G02*
X113197500Y-51030000I150000J0D01*
G01*
X113497500Y-51030000D01*
G75*
G02*
X113647500Y-51180000I0J-150000D01*
G01*
X113647500Y-52830000D01*
G75*
G02*
X113497500Y-52980000I-150000J0D01*
G01*
G37*
G04 #@! TD.AperFunction*
G04 #@! TA.AperFunction,SMDPad,CuDef*
G36*
G01*
X112227500Y-52980000D02*
X111927500Y-52980000D01*
G75*
G02*
X111777500Y-52830000I0J150000D01*
G01*
X111777500Y-51180000D01*
G75*
G02*
X111927500Y-51030000I150000J0D01*
G01*
X112227500Y-51030000D01*
G75*
G02*
X112377500Y-51180000I0J-150000D01*
G01*
X112377500Y-52830000D01*
G75*
G02*
X112227500Y-52980000I-150000J0D01*
G01*
G37*
G04 #@! TD.AperFunction*
G04 #@! TA.AperFunction,SMDPad,CuDef*
G36*
G01*
X110957500Y-52980000D02*
X110657500Y-52980000D01*
G75*
G02*
X110507500Y-52830000I0J150000D01*
G01*
X110507500Y-51180000D01*
G75*
G02*
X110657500Y-51030000I150000J0D01*
G01*
X110957500Y-51030000D01*
G75*
G02*
X111107500Y-51180000I0J-150000D01*
G01*
X111107500Y-52830000D01*
G75*
G02*
X110957500Y-52980000I-150000J0D01*
G01*
G37*
G04 #@! TD.AperFunction*
G04 #@! TA.AperFunction,SMDPad,CuDef*
G36*
G01*
X110957500Y-48030000D02*
X110657500Y-48030000D01*
G75*
G02*
X110507500Y-47880000I0J150000D01*
G01*
X110507500Y-46230000D01*
G75*
G02*
X110657500Y-46080000I150000J0D01*
G01*
X110957500Y-46080000D01*
G75*
G02*
X111107500Y-46230000I0J-150000D01*
G01*
X111107500Y-47880000D01*
G75*
G02*
X110957500Y-48030000I-150000J0D01*
G01*
G37*
G04 #@! TD.AperFunction*
G04 #@! TA.AperFunction,SMDPad,CuDef*
G36*
G01*
X112227500Y-48030000D02*
X111927500Y-48030000D01*
G75*
G02*
X111777500Y-47880000I0J150000D01*
G01*
X111777500Y-46230000D01*
G75*
G02*
X111927500Y-46080000I150000J0D01*
G01*
X112227500Y-46080000D01*
G75*
G02*
X112377500Y-46230000I0J-150000D01*
G01*
X112377500Y-47880000D01*
G75*
G02*
X112227500Y-48030000I-150000J0D01*
G01*
G37*
G04 #@! TD.AperFunction*
G04 #@! TA.AperFunction,SMDPad,CuDef*
G36*
G01*
X113497500Y-48030000D02*
X113197500Y-48030000D01*
G75*
G02*
X113047500Y-47880000I0J150000D01*
G01*
X113047500Y-46230000D01*
G75*
G02*
X113197500Y-46080000I150000J0D01*
G01*
X113497500Y-46080000D01*
G75*
G02*
X113647500Y-46230000I0J-150000D01*
G01*
X113647500Y-47880000D01*
G75*
G02*
X113497500Y-48030000I-150000J0D01*
G01*
G37*
G04 #@! TD.AperFunction*
G04 #@! TA.AperFunction,SMDPad,CuDef*
G36*
G01*
X114767500Y-48030000D02*
X114467500Y-48030000D01*
G75*
G02*
X114317500Y-47880000I0J150000D01*
G01*
X114317500Y-46230000D01*
G75*
G02*
X114467500Y-46080000I150000J0D01*
G01*
X114767500Y-46080000D01*
G75*
G02*
X114917500Y-46230000I0J-150000D01*
G01*
X114917500Y-47880000D01*
G75*
G02*
X114767500Y-48030000I-150000J0D01*
G01*
G37*
G04 #@! TD.AperFunction*
G04 #@! TA.AperFunction,SMDPad,CuDef*
G36*
G01*
X116037500Y-48030000D02*
X115737500Y-48030000D01*
G75*
G02*
X115587500Y-47880000I0J150000D01*
G01*
X115587500Y-46230000D01*
G75*
G02*
X115737500Y-46080000I150000J0D01*
G01*
X116037500Y-46080000D01*
G75*
G02*
X116187500Y-46230000I0J-150000D01*
G01*
X116187500Y-47880000D01*
G75*
G02*
X116037500Y-48030000I-150000J0D01*
G01*
G37*
G04 #@! TD.AperFunction*
G04 #@! TA.AperFunction,SMDPad,CuDef*
G36*
G01*
X117307500Y-48030000D02*
X117007500Y-48030000D01*
G75*
G02*
X116857500Y-47880000I0J150000D01*
G01*
X116857500Y-46230000D01*
G75*
G02*
X117007500Y-46080000I150000J0D01*
G01*
X117307500Y-46080000D01*
G75*
G02*
X117457500Y-46230000I0J-150000D01*
G01*
X117457500Y-47880000D01*
G75*
G02*
X117307500Y-48030000I-150000J0D01*
G01*
G37*
G04 #@! TD.AperFunction*
G04 #@! TA.AperFunction,SMDPad,CuDef*
G36*
G01*
X118577500Y-48030000D02*
X118277500Y-48030000D01*
G75*
G02*
X118127500Y-47880000I0J150000D01*
G01*
X118127500Y-46230000D01*
G75*
G02*
X118277500Y-46080000I150000J0D01*
G01*
X118577500Y-46080000D01*
G75*
G02*
X118727500Y-46230000I0J-150000D01*
G01*
X118727500Y-47880000D01*
G75*
G02*
X118577500Y-48030000I-150000J0D01*
G01*
G37*
G04 #@! TD.AperFunction*
G04 #@! TA.AperFunction,SMDPad,CuDef*
G36*
G01*
X119847500Y-48030000D02*
X119547500Y-48030000D01*
G75*
G02*
X119397500Y-47880000I0J150000D01*
G01*
X119397500Y-46230000D01*
G75*
G02*
X119547500Y-46080000I150000J0D01*
G01*
X119847500Y-46080000D01*
G75*
G02*
X119997500Y-46230000I0J-150000D01*
G01*
X119997500Y-47880000D01*
G75*
G02*
X119847500Y-48030000I-150000J0D01*
G01*
G37*
G04 #@! TD.AperFunction*
D19*
X120015000Y-62230000D03*
X122555000Y-62230000D03*
X125095000Y-62230000D03*
X127635000Y-62230000D03*
X130175000Y-62230000D03*
X132715000Y-62230000D03*
X135255000Y-62230000D03*
X137795000Y-62230000D03*
X140335000Y-62230000D03*
X142875000Y-62230000D03*
D20*
X121285000Y-44767500D03*
X119697500Y-55880000D03*
X117475000Y-54927500D03*
X88646000Y-34290000D03*
X78486000Y-34290000D03*
X137795000Y-40640000D03*
X137795000Y-45402500D03*
X86106000Y-39370000D03*
X95250000Y-39370000D03*
D21*
X102870000Y-62230000D02*
X104457500Y-62230000D01*
X104457500Y-62865000D02*
X104457500Y-61595000D01*
X78105000Y-64135000D02*
X78105000Y-65405000D01*
X77470000Y-64770000D02*
X78740000Y-64770000D01*
D22*
X81026000Y-31242000D02*
X81026000Y-28829000D01*
X81026000Y-28829000D02*
X81280000Y-28575000D01*
X114046000Y-29142000D02*
X114046000Y-31242000D01*
X113479000Y-28575000D02*
X114046000Y-29142000D01*
X81280000Y-28575000D02*
X113479000Y-28575000D01*
X71755000Y-56515000D02*
X71120000Y-55880000D01*
X81026000Y-35814000D02*
X81026000Y-31242000D01*
X80010000Y-36830000D02*
X81026000Y-35814000D01*
X71120000Y-37782500D02*
X72072500Y-36830000D01*
X72072500Y-36830000D02*
X80010000Y-36830000D01*
X71120000Y-55880000D02*
X71120000Y-42862500D01*
X73025000Y-42862500D02*
X71120000Y-42862500D01*
X71120000Y-42862500D02*
X71120000Y-37782500D01*
X78105000Y-58420000D02*
X78105000Y-62230000D01*
X76200000Y-56515000D02*
X78105000Y-58420000D01*
X76200000Y-56515000D02*
X71755000Y-56515000D01*
D23*
X119697500Y-46955000D02*
X120297500Y-46955000D01*
X120895000Y-47552500D02*
X122237500Y-47552500D01*
X120297500Y-46955000D02*
X120895000Y-47552500D01*
X120015000Y-44767500D02*
X121285000Y-44767500D01*
X119697500Y-45085000D02*
X120015000Y-44767500D01*
X119697500Y-46955000D02*
X119697500Y-45085000D01*
X118427500Y-52105000D02*
X118427500Y-53340000D01*
X119697500Y-54610000D02*
X119697500Y-55880000D01*
X118427500Y-53340000D02*
X119697500Y-54610000D01*
X117157500Y-54610000D02*
X117475000Y-54927500D01*
X117157500Y-52105000D02*
X117157500Y-54610000D01*
D24*
X124460000Y-57150000D02*
X127000000Y-57150000D01*
X121920000Y-59690000D02*
X124460000Y-57150000D01*
X116205000Y-59690000D02*
X121920000Y-59690000D01*
X93662500Y-64770000D02*
X111125000Y-64770000D01*
X93345000Y-64452500D02*
X93662500Y-64770000D01*
X111125000Y-64770000D02*
X116205000Y-59690000D01*
X93345000Y-62230000D02*
X93345000Y-64452500D01*
D22*
X88646000Y-36576000D02*
X88646000Y-36576000D01*
X88646000Y-31242000D02*
X88646000Y-34544000D01*
X98425000Y-52705000D02*
X100965000Y-55245000D01*
X100965000Y-55245000D02*
X100965000Y-62230000D01*
X78486000Y-31242000D02*
X78486000Y-27559000D01*
X78486000Y-27559000D02*
X79375000Y-26670000D01*
X78486000Y-31301000D02*
X78486000Y-34290000D01*
X78486000Y-34290000D02*
X78486000Y-34290000D01*
X88646000Y-34544000D02*
X88646000Y-47862500D01*
X79375000Y-26670000D02*
X110100000Y-26670000D01*
X73025000Y-47862500D02*
X88646000Y-47862500D01*
X88646000Y-48006000D02*
X93345000Y-52705000D01*
X88646000Y-47862500D02*
X88646000Y-48006000D01*
X93345000Y-52705000D02*
X98425000Y-52705000D01*
D23*
X101282500Y-49847500D02*
X98425000Y-52705000D01*
X119697500Y-50800000D02*
X118745000Y-49847500D01*
X119697500Y-52105000D02*
X119697500Y-50800000D01*
X110807500Y-52105000D02*
X110807500Y-49847500D01*
X110807500Y-49847500D02*
X101282500Y-49847500D01*
X118745000Y-49847500D02*
X110807500Y-49847500D01*
D22*
X142875000Y-39370000D02*
X142875000Y-29210000D01*
X141605000Y-43180000D02*
X142875000Y-41910000D01*
X142875000Y-41910000D02*
X142875000Y-39370000D01*
X92456000Y-43180000D02*
X141605000Y-43180000D01*
X91186000Y-31242000D02*
X91186000Y-41910000D01*
X91186000Y-41910000D02*
X92456000Y-43180000D01*
D24*
X137795000Y-29210000D02*
X137795000Y-40640000D01*
D23*
X137795000Y-40640000D02*
X137795000Y-40640000D01*
D24*
X129540000Y-53657500D02*
X129540000Y-57150000D01*
X137795000Y-45402500D02*
X129540000Y-53657500D01*
D22*
X86106000Y-31242000D02*
X86106000Y-39370000D01*
X128905000Y-39370000D02*
X130175000Y-38100000D01*
X130175000Y-38100000D02*
X130175000Y-29210000D01*
X128905000Y-39370000D02*
X95250000Y-39370000D01*
X103886000Y-31242000D02*
X103886000Y-37211000D01*
X103886000Y-37211000D02*
X104775000Y-38100000D01*
X126365000Y-38100000D02*
X127635000Y-36830000D01*
X127635000Y-36830000D02*
X127635000Y-29210000D01*
X104775000Y-38100000D02*
X126365000Y-38100000D01*
X106426000Y-35941000D02*
X107315000Y-36830000D01*
X106426000Y-31242000D02*
X106426000Y-35941000D01*
X123825000Y-36830000D02*
X125095000Y-35560000D01*
X125095000Y-35560000D02*
X125095000Y-29210000D01*
X107315000Y-36830000D02*
X123825000Y-36830000D01*
X108966000Y-34671000D02*
X109855000Y-35560000D01*
X108966000Y-31242000D02*
X108966000Y-34671000D01*
X121285000Y-35560000D02*
X122555000Y-34290000D01*
X122555000Y-34290000D02*
X122555000Y-29210000D01*
X109855000Y-35560000D02*
X121285000Y-35560000D01*
X111506000Y-33401000D02*
X112395000Y-34290000D01*
X111506000Y-31242000D02*
X111506000Y-33401000D01*
X118745000Y-34290000D02*
X120015000Y-33020000D01*
X120015000Y-33020000D02*
X120015000Y-29210000D01*
X112395000Y-34290000D02*
X118745000Y-34290000D01*
X83566000Y-31242000D02*
X83566000Y-39624000D01*
X75525000Y-45362500D02*
X81320000Y-45362500D01*
X83566000Y-43116500D02*
X83566000Y-39624000D01*
X81320000Y-45362500D02*
X83566000Y-43116500D01*
D24*
X96266000Y-31242000D02*
X96266000Y-31642000D01*
D22*
X116586000Y-27686000D02*
X116586000Y-31242000D01*
X115570000Y-26670000D02*
X116586000Y-27686000D01*
X115570000Y-26670000D02*
X112150000Y-26670000D01*
D23*
X114935000Y-56197500D02*
X114935000Y-57150000D01*
X115887500Y-55245000D02*
X114935000Y-56197500D01*
X115887500Y-52105000D02*
X115887500Y-55245000D01*
X114617500Y-54292500D02*
X114617500Y-52105000D01*
X114617500Y-54927500D02*
X114617500Y-54292500D01*
X113982500Y-55562500D02*
X114617500Y-54927500D01*
X112395000Y-56515000D02*
X113347500Y-55562500D01*
X113347500Y-55562500D02*
X113982500Y-55562500D01*
X112395000Y-57150000D02*
X112395000Y-56515000D01*
X113347500Y-52105000D02*
X113347500Y-54292500D01*
X113347500Y-54292500D02*
X112712500Y-54927500D01*
X112712500Y-54927500D02*
X112077500Y-54927500D01*
X112077500Y-54927500D02*
X109855000Y-57150000D01*
X112077500Y-53657500D02*
X112077500Y-52105000D01*
X110807500Y-53657500D02*
X112077500Y-53657500D01*
X107315000Y-57150000D02*
X110807500Y-53657500D01*
X115887500Y-46955000D02*
X118427500Y-46955000D01*
X119770000Y-49602500D02*
X122237500Y-49602500D01*
X118427500Y-48260000D02*
X119770000Y-49602500D01*
X118427500Y-46955000D02*
X118427500Y-48260000D01*
M02*
