M48
INCH,TZ
T1C0.0354
T2C0.0394
T3C0.0472
T4C0.1260
%
G90
G05
T1
X30900Y-13500
X33900Y-15500
X34900Y-13500
X37500Y-15500
X46250Y-21625
X47125Y-22000
X47250Y-24500
X47750Y-17625
X48250Y-24500
X49250Y-24500
X50250Y-24500
X51250Y-24500
X52250Y-24500
X53250Y-24500
X54250Y-16000
X54250Y-17875
X54250Y-24500
X55250Y-24500
X56250Y-24500
X28750Y-16875
X28750Y-18844
X29734Y-17859
T2
X42250Y-22500
X43250Y-22500
X44250Y-22500
X45250Y-22500
X30750Y-24500
X31750Y-24500
X32750Y-24500
X33750Y-24500
X34750Y-24500
X35750Y-24500
X36750Y-24500
X37750Y-24500
X38750Y-24500
X39750Y-24500
X50000Y-22500
X51000Y-22500
X47250Y-11500
X48250Y-11500
X49250Y-11500
X50250Y-11500
X51250Y-11500
X52250Y-11500
X53250Y-11500
X54250Y-11500
X55250Y-11500
X56250Y-11500
T3
X30900Y-12300
X31900Y-12300
X32900Y-12300
X33900Y-12300
X34900Y-12300
X35900Y-12300
X36900Y-12300
X37900Y-12300
X38900Y-12300
X39900Y-12300
X40900Y-12300
X41900Y-12300
X42900Y-12300
X43900Y-12300
X44900Y-12300
X45900Y-12300
T4
X28750Y-24500
X28750Y-11500
X58250Y-11500
X58250Y-24500
T0
M30
