G04 #@! TF.GenerationSoftware,KiCad,Pcbnew,(5.1.8)-1*
G04 #@! TF.CreationDate,2020-11-28T14:58:21+03:00*
G04 #@! TF.ProjectId,A4988,41343938-382e-46b6-9963-61645f706362,rev?*
G04 #@! TF.SameCoordinates,Original*
G04 #@! TF.FileFunction,Copper,L1,Top*
G04 #@! TF.FilePolarity,Positive*
%FSLAX46Y46*%
G04 Gerber Fmt 4.6, Leading zero omitted, Abs format (unit mm)*
G04 Created by KiCad (PCBNEW (5.1.8)-1) date 2020-11-28 14:58:21*
%MOMM*%
%LPD*%
G01*
G04 APERTURE LIST*
G04 #@! TA.AperFunction,NonConductor*
%ADD10C,0.200000*%
G04 #@! TD*
G04 #@! TA.AperFunction,NonConductor*
%ADD11C,0.300000*%
G04 #@! TD*
G04 #@! TA.AperFunction,ComponentPad*
%ADD12R,2.300000X2.300000*%
G04 #@! TD*
G04 #@! TA.AperFunction,ComponentPad*
%ADD13O,2.300000X2.300000*%
G04 #@! TD*
G04 #@! TA.AperFunction,ComponentPad*
%ADD14R,2.400000X2.400000*%
G04 #@! TD*
G04 #@! TA.AperFunction,ComponentPad*
%ADD15C,2.400000*%
G04 #@! TD*
G04 #@! TA.AperFunction,ComponentPad*
%ADD16R,2.000000X2.000000*%
G04 #@! TD*
G04 #@! TA.AperFunction,ComponentPad*
%ADD17C,2.000000*%
G04 #@! TD*
G04 #@! TA.AperFunction,ComponentPad*
%ADD18O,1.700000X1.950000*%
G04 #@! TD*
G04 #@! TA.AperFunction,ComponentPad*
%ADD19O,2.000000X2.000000*%
G04 #@! TD*
G04 #@! TA.AperFunction,ComponentPad*
%ADD20R,3.000000X3.000000*%
G04 #@! TD*
G04 #@! TA.AperFunction,ComponentPad*
%ADD21C,3.000000*%
G04 #@! TD*
G04 #@! TA.AperFunction,ViaPad*
%ADD22C,1.600000*%
G04 #@! TD*
G04 #@! TA.AperFunction,Conductor*
%ADD23C,0.600000*%
G04 #@! TD*
G04 APERTURE END LIST*
D10*
X96337380Y-71548333D02*
X95337380Y-71548333D01*
X95718333Y-71548333D02*
X95670714Y-71453095D01*
X95670714Y-71262619D01*
X95718333Y-71167380D01*
X95765952Y-71119761D01*
X95861190Y-71072142D01*
X96146904Y-71072142D01*
X96242142Y-71119761D01*
X96289761Y-71167380D01*
X96337380Y-71262619D01*
X96337380Y-71453095D01*
X96289761Y-71548333D01*
X96337380Y-70643571D02*
X95337380Y-70643571D01*
X95718333Y-70643571D02*
X95670714Y-70548333D01*
X95670714Y-70357857D01*
X95718333Y-70262619D01*
X95765952Y-70215000D01*
X95861190Y-70167380D01*
X96146904Y-70167380D01*
X96242142Y-70215000D01*
X96289761Y-70262619D01*
X96337380Y-70357857D01*
X96337380Y-70548333D01*
X96289761Y-70643571D01*
X95337380Y-69262619D02*
X95337380Y-69738809D01*
X95813571Y-69786428D01*
X95765952Y-69738809D01*
X95718333Y-69643571D01*
X95718333Y-69405476D01*
X95765952Y-69310238D01*
X95813571Y-69262619D01*
X95908809Y-69215000D01*
X96146904Y-69215000D01*
X96242142Y-69262619D01*
X96289761Y-69310238D01*
X96337380Y-69405476D01*
X96337380Y-69643571D01*
X96289761Y-69738809D01*
X96242142Y-69786428D01*
X95337380Y-68357857D02*
X95337380Y-68548333D01*
X95385000Y-68643571D01*
X95432619Y-68691190D01*
X95575476Y-68786428D01*
X95765952Y-68834047D01*
X96146904Y-68834047D01*
X96242142Y-68786428D01*
X96289761Y-68738809D01*
X96337380Y-68643571D01*
X96337380Y-68453095D01*
X96289761Y-68357857D01*
X96242142Y-68310238D01*
X96146904Y-68262619D01*
X95908809Y-68262619D01*
X95813571Y-68310238D01*
X95765952Y-68357857D01*
X95718333Y-68453095D01*
X95718333Y-68643571D01*
X95765952Y-68738809D01*
X95813571Y-68786428D01*
X95908809Y-68834047D01*
X96289761Y-67405476D02*
X96337380Y-67500714D01*
X96337380Y-67691190D01*
X96289761Y-67786428D01*
X96242142Y-67834047D01*
X96146904Y-67881666D01*
X95861190Y-67881666D01*
X95765952Y-67834047D01*
X95718333Y-67786428D01*
X95670714Y-67691190D01*
X95670714Y-67500714D01*
X95718333Y-67405476D01*
X95670714Y-67119761D02*
X95670714Y-66738809D01*
X96337380Y-66976904D02*
X95480238Y-66976904D01*
X95385000Y-66929285D01*
X95337380Y-66834047D01*
X95337380Y-66738809D01*
D11*
X96718571Y-89213571D02*
X97075714Y-90213571D01*
X97432857Y-89213571D01*
X97932857Y-88856428D02*
X98004285Y-88785000D01*
X98147142Y-88713571D01*
X98504285Y-88713571D01*
X98647142Y-88785000D01*
X98718571Y-88856428D01*
X98790000Y-88999285D01*
X98790000Y-89142142D01*
X98718571Y-89356428D01*
X97861428Y-90213571D01*
X98790000Y-90213571D01*
D10*
X95432619Y-84740238D02*
X95385000Y-84692619D01*
X95337380Y-84597380D01*
X95337380Y-84359285D01*
X95385000Y-84264047D01*
X95432619Y-84216428D01*
X95527857Y-84168809D01*
X95623095Y-84168809D01*
X95765952Y-84216428D01*
X96337380Y-84787857D01*
X96337380Y-84168809D01*
X95765952Y-83597380D02*
X95718333Y-83692619D01*
X95670714Y-83740238D01*
X95575476Y-83787857D01*
X95527857Y-83787857D01*
X95432619Y-83740238D01*
X95385000Y-83692619D01*
X95337380Y-83597380D01*
X95337380Y-83406904D01*
X95385000Y-83311666D01*
X95432619Y-83264047D01*
X95527857Y-83216428D01*
X95575476Y-83216428D01*
X95670714Y-83264047D01*
X95718333Y-83311666D01*
X95765952Y-83406904D01*
X95765952Y-83597380D01*
X95813571Y-83692619D01*
X95861190Y-83740238D01*
X95956428Y-83787857D01*
X96146904Y-83787857D01*
X96242142Y-83740238D01*
X96289761Y-83692619D01*
X96337380Y-83597380D01*
X96337380Y-83406904D01*
X96289761Y-83311666D01*
X96242142Y-83264047D01*
X96146904Y-83216428D01*
X95956428Y-83216428D01*
X95861190Y-83264047D01*
X95813571Y-83311666D01*
X95765952Y-83406904D01*
X96242142Y-82787857D02*
X96289761Y-82740238D01*
X96337380Y-82787857D01*
X96289761Y-82835476D01*
X96242142Y-82787857D01*
X96337380Y-82787857D01*
X96337380Y-81787857D02*
X96337380Y-82359285D01*
X96337380Y-82073571D02*
X95337380Y-82073571D01*
X95480238Y-82168809D01*
X95575476Y-82264047D01*
X95623095Y-82359285D01*
X96337380Y-80835476D02*
X96337380Y-81406904D01*
X96337380Y-81121190D02*
X95337380Y-81121190D01*
X95480238Y-81216428D01*
X95575476Y-81311666D01*
X95623095Y-81406904D01*
X96242142Y-80406904D02*
X96289761Y-80359285D01*
X96337380Y-80406904D01*
X96289761Y-80454523D01*
X96242142Y-80406904D01*
X96337380Y-80406904D01*
X95432619Y-79978333D02*
X95385000Y-79930714D01*
X95337380Y-79835476D01*
X95337380Y-79597380D01*
X95385000Y-79502142D01*
X95432619Y-79454523D01*
X95527857Y-79406904D01*
X95623095Y-79406904D01*
X95765952Y-79454523D01*
X96337380Y-80025952D01*
X96337380Y-79406904D01*
X95337380Y-78787857D02*
X95337380Y-78692619D01*
X95385000Y-78597380D01*
X95432619Y-78549761D01*
X95527857Y-78502142D01*
X95718333Y-78454523D01*
X95956428Y-78454523D01*
X96146904Y-78502142D01*
X96242142Y-78549761D01*
X96289761Y-78597380D01*
X96337380Y-78692619D01*
X96337380Y-78787857D01*
X96289761Y-78883095D01*
X96242142Y-78930714D01*
X96146904Y-78978333D01*
X95956428Y-79025952D01*
X95718333Y-79025952D01*
X95527857Y-78978333D01*
X95432619Y-78930714D01*
X95385000Y-78883095D01*
X95337380Y-78787857D01*
X95432619Y-78073571D02*
X95385000Y-78025952D01*
X95337380Y-77930714D01*
X95337380Y-77692619D01*
X95385000Y-77597380D01*
X95432619Y-77549761D01*
X95527857Y-77502142D01*
X95623095Y-77502142D01*
X95765952Y-77549761D01*
X96337380Y-78121190D01*
X96337380Y-77502142D01*
X95337380Y-76883095D02*
X95337380Y-76787857D01*
X95385000Y-76692619D01*
X95432619Y-76645000D01*
X95527857Y-76597380D01*
X95718333Y-76549761D01*
X95956428Y-76549761D01*
X96146904Y-76597380D01*
X96242142Y-76645000D01*
X96289761Y-76692619D01*
X96337380Y-76787857D01*
X96337380Y-76883095D01*
X96289761Y-76978333D01*
X96242142Y-77025952D01*
X96146904Y-77073571D01*
X95956428Y-77121190D01*
X95718333Y-77121190D01*
X95527857Y-77073571D01*
X95432619Y-77025952D01*
X95385000Y-76978333D01*
X95337380Y-76883095D01*
D12*
X92710000Y-59690000D03*
D13*
X92710000Y-62230000D03*
X92710000Y-64770000D03*
X92710000Y-67310000D03*
X92710000Y-69850000D03*
X92710000Y-72390000D03*
X92710000Y-74930000D03*
X92710000Y-77470000D03*
X92710000Y-80010000D03*
X92710000Y-82550000D03*
X125730000Y-82550000D03*
X125730000Y-80010000D03*
X125730000Y-77470000D03*
X125730000Y-74930000D03*
X125730000Y-72390000D03*
X125730000Y-69850000D03*
X125730000Y-67310000D03*
X125730000Y-64770000D03*
X125730000Y-62230000D03*
D12*
X125730000Y-59690000D03*
D14*
X100012500Y-61595000D03*
D15*
X105012500Y-61595000D03*
D16*
X100647500Y-86042500D03*
D17*
X103187500Y-86042500D03*
X105727500Y-86042500D03*
X108267500Y-86042500D03*
X110807500Y-86042500D03*
X113347500Y-86042500D03*
X115887500Y-86042500D03*
X118427500Y-86042500D03*
X118427500Y-70802500D03*
X115887500Y-70802500D03*
X113347500Y-70802500D03*
X110807500Y-70802500D03*
X108267500Y-70802500D03*
X105727500Y-70802500D03*
X103187500Y-70802500D03*
D16*
X100647500Y-70802500D03*
G04 #@! TA.AperFunction,ComponentPad*
G36*
G01*
X111545000Y-62955000D02*
X111545000Y-61505000D01*
G75*
G02*
X111795000Y-61255000I250000J0D01*
G01*
X112995000Y-61255000D01*
G75*
G02*
X113245000Y-61505000I0J-250000D01*
G01*
X113245000Y-62955000D01*
G75*
G02*
X112995000Y-63205000I-250000J0D01*
G01*
X111795000Y-63205000D01*
G75*
G02*
X111545000Y-62955000I0J250000D01*
G01*
G37*
G04 #@! TD.AperFunction*
D18*
X114895000Y-62230000D03*
X117395000Y-62230000D03*
X119895000Y-62230000D03*
D16*
X108267500Y-74612500D03*
D17*
X103187500Y-82232500D03*
D19*
X105727500Y-74612500D03*
D17*
X105727500Y-82232500D03*
D19*
X103187500Y-74612500D03*
D17*
X108267500Y-82232500D03*
D20*
X116840000Y-54610000D03*
D21*
X111760000Y-54610000D03*
D22*
X100012500Y-77470000D03*
X96837500Y-73977500D03*
D23*
X96837500Y-74295000D02*
X100012500Y-77470000D01*
M02*
