M48
INCH,TZ
T1C0.0315
T2C0.0354
T3C0.0374
T4C0.0394
T5C0.0472
T6C0.0598
T7C0.1260
%
G90
G05
T1
X40625Y-29375
X40625Y-32375
X41625Y-29375
X41625Y-32375
X42625Y-29375
X42625Y-32375
T2
X38125Y-29125
X39375Y-30500
T3
X44250Y-24500
X45234Y-24500
X46219Y-24500
X47203Y-24500
T4
X39625Y-27875
X40625Y-27875
X41625Y-27875
X42625Y-27875
X43625Y-27875
X44625Y-27875
X45625Y-27875
X46625Y-27875
X49500Y-23500
X49500Y-24500
X49500Y-25500
X49500Y-26500
X49500Y-27500
X49500Y-28500
X49500Y-29500
X49500Y-30500
X49500Y-31500
X49500Y-32500
X39625Y-33875
X40625Y-33875
X41625Y-33875
X42625Y-33875
X43625Y-33875
X44625Y-33875
X45625Y-33875
X46625Y-33875
X36500Y-23500
X36500Y-24500
X36500Y-25500
X36500Y-26500
X36500Y-27500
X36500Y-28500
X36500Y-29500
X36500Y-30500
X36500Y-31500
X36500Y-32500
T5
X39375Y-24250
X41344Y-24250
T6
X44000Y-21500
X46000Y-21500
T7
X49500Y-34500
X49500Y-21500
X36500Y-21500
X36500Y-34500
T0
M30
