G04 #@! TF.GenerationSoftware,KiCad,Pcbnew,(5.1.8)-1*
G04 #@! TF.CreationDate,2020-11-28T14:58:21+03:00*
G04 #@! TF.ProjectId,A4988,41343938-382e-46b6-9963-61645f706362,rev?*
G04 #@! TF.SameCoordinates,Original*
G04 #@! TF.FileFunction,Soldermask,Top*
G04 #@! TF.FilePolarity,Negative*
%FSLAX46Y46*%
G04 Gerber Fmt 4.6, Leading zero omitted, Abs format (unit mm)*
G04 Created by KiCad (PCBNEW (5.1.8)-1) date 2020-11-28 14:58:21*
%MOMM*%
%LPD*%
G01*
G04 APERTURE LIST*
%ADD10C,3.302000*%
%ADD11O,2.402000X2.402000*%
%ADD12C,2.502000*%
%ADD13C,2.102000*%
%ADD14O,1.802000X2.052000*%
%ADD15O,2.102000X2.102000*%
%ADD16C,3.102000*%
G04 APERTURE END LIST*
D10*
X92710000Y-54610000D03*
X92710000Y-87630000D03*
X125730000Y-54610000D03*
X125730000Y-87630000D03*
G36*
G01*
X91509000Y-60840000D02*
X91509000Y-58540000D01*
G75*
G02*
X91560000Y-58489000I51000J0D01*
G01*
X93860000Y-58489000D01*
G75*
G02*
X93911000Y-58540000I0J-51000D01*
G01*
X93911000Y-60840000D01*
G75*
G02*
X93860000Y-60891000I-51000J0D01*
G01*
X91560000Y-60891000D01*
G75*
G02*
X91509000Y-60840000I0J51000D01*
G01*
G37*
D11*
X92710000Y-62230000D03*
X92710000Y-64770000D03*
X92710000Y-67310000D03*
X92710000Y-69850000D03*
X92710000Y-72390000D03*
X92710000Y-74930000D03*
X92710000Y-77470000D03*
X92710000Y-80010000D03*
X92710000Y-82550000D03*
X125730000Y-82550000D03*
X125730000Y-80010000D03*
X125730000Y-77470000D03*
X125730000Y-74930000D03*
X125730000Y-72390000D03*
X125730000Y-69850000D03*
X125730000Y-67310000D03*
X125730000Y-64770000D03*
X125730000Y-62230000D03*
G36*
G01*
X124529000Y-60840000D02*
X124529000Y-58540000D01*
G75*
G02*
X124580000Y-58489000I51000J0D01*
G01*
X126880000Y-58489000D01*
G75*
G02*
X126931000Y-58540000I0J-51000D01*
G01*
X126931000Y-60840000D01*
G75*
G02*
X126880000Y-60891000I-51000J0D01*
G01*
X124580000Y-60891000D01*
G75*
G02*
X124529000Y-60840000I0J51000D01*
G01*
G37*
G36*
G01*
X98761500Y-62795000D02*
X98761500Y-60395000D01*
G75*
G02*
X98812500Y-60344000I51000J0D01*
G01*
X101212500Y-60344000D01*
G75*
G02*
X101263500Y-60395000I0J-51000D01*
G01*
X101263500Y-62795000D01*
G75*
G02*
X101212500Y-62846000I-51000J0D01*
G01*
X98812500Y-62846000D01*
G75*
G02*
X98761500Y-62795000I0J51000D01*
G01*
G37*
D12*
X105012500Y-61595000D03*
G36*
G01*
X101647500Y-87093500D02*
X99647500Y-87093500D01*
G75*
G02*
X99596500Y-87042500I0J51000D01*
G01*
X99596500Y-85042500D01*
G75*
G02*
X99647500Y-84991500I51000J0D01*
G01*
X101647500Y-84991500D01*
G75*
G02*
X101698500Y-85042500I0J-51000D01*
G01*
X101698500Y-87042500D01*
G75*
G02*
X101647500Y-87093500I-51000J0D01*
G01*
G37*
D13*
X103187500Y-86042500D03*
X105727500Y-86042500D03*
X108267500Y-86042500D03*
X110807500Y-86042500D03*
X113347500Y-86042500D03*
X115887500Y-86042500D03*
X118427500Y-86042500D03*
X118427500Y-70802500D03*
X115887500Y-70802500D03*
X113347500Y-70802500D03*
X110807500Y-70802500D03*
X108267500Y-70802500D03*
X105727500Y-70802500D03*
X103187500Y-70802500D03*
G36*
G01*
X101647500Y-71853500D02*
X99647500Y-71853500D01*
G75*
G02*
X99596500Y-71802500I0J51000D01*
G01*
X99596500Y-69802500D01*
G75*
G02*
X99647500Y-69751500I51000J0D01*
G01*
X101647500Y-69751500D01*
G75*
G02*
X101698500Y-69802500I0J-51000D01*
G01*
X101698500Y-71802500D01*
G75*
G02*
X101647500Y-71853500I-51000J0D01*
G01*
G37*
G36*
G01*
X111494000Y-62991000D02*
X111494000Y-61469000D01*
G75*
G02*
X111759000Y-61204000I265000J0D01*
G01*
X113031000Y-61204000D01*
G75*
G02*
X113296000Y-61469000I0J-265000D01*
G01*
X113296000Y-62991000D01*
G75*
G02*
X113031000Y-63256000I-265000J0D01*
G01*
X111759000Y-63256000D01*
G75*
G02*
X111494000Y-62991000I0J265000D01*
G01*
G37*
D14*
X114895000Y-62230000D03*
X117395000Y-62230000D03*
X119895000Y-62230000D03*
G36*
G01*
X107267500Y-73561500D02*
X109267500Y-73561500D01*
G75*
G02*
X109318500Y-73612500I0J-51000D01*
G01*
X109318500Y-75612500D01*
G75*
G02*
X109267500Y-75663500I-51000J0D01*
G01*
X107267500Y-75663500D01*
G75*
G02*
X107216500Y-75612500I0J51000D01*
G01*
X107216500Y-73612500D01*
G75*
G02*
X107267500Y-73561500I51000J0D01*
G01*
G37*
D13*
X103187500Y-82232500D03*
D15*
X105727500Y-74612500D03*
D13*
X105727500Y-82232500D03*
D15*
X103187500Y-74612500D03*
D13*
X108267500Y-82232500D03*
G36*
G01*
X118391000Y-53110000D02*
X118391000Y-56110000D01*
G75*
G02*
X118340000Y-56161000I-51000J0D01*
G01*
X115340000Y-56161000D01*
G75*
G02*
X115289000Y-56110000I0J51000D01*
G01*
X115289000Y-53110000D01*
G75*
G02*
X115340000Y-53059000I51000J0D01*
G01*
X118340000Y-53059000D01*
G75*
G02*
X118391000Y-53110000I0J-51000D01*
G01*
G37*
D16*
X111760000Y-54610000D03*
M02*
