G04 #@! TF.GenerationSoftware,KiCad,Pcbnew,(5.1.8)-1*
G04 #@! TF.CreationDate,2020-11-28T01:47:50+03:00*
G04 #@! TF.ProjectId,A4988,41343938-382e-46b6-9963-61645f706362,rev?*
G04 #@! TF.SameCoordinates,Original*
G04 #@! TF.FileFunction,Legend,Top*
G04 #@! TF.FilePolarity,Positive*
%FSLAX46Y46*%
G04 Gerber Fmt 4.6, Leading zero omitted, Abs format (unit mm)*
G04 Created by KiCad (PCBNEW (5.1.8)-1) date 2020-11-28 01:47:50*
%MOMM*%
%LPD*%
G01*
G04 APERTURE LIST*
%ADD10C,0.150000*%
%ADD11C,0.120000*%
G04 APERTURE END LIST*
D10*
X104941904Y-51967380D02*
X105275238Y-52967380D01*
X105608571Y-51967380D01*
X105941904Y-52967380D02*
X105941904Y-52300714D01*
X105941904Y-52395952D02*
X105989523Y-52348333D01*
X106084761Y-52300714D01*
X106227619Y-52300714D01*
X106322857Y-52348333D01*
X106370476Y-52443571D01*
X106370476Y-52967380D01*
X106370476Y-52443571D02*
X106418095Y-52348333D01*
X106513333Y-52300714D01*
X106656190Y-52300714D01*
X106751428Y-52348333D01*
X106799047Y-52443571D01*
X106799047Y-52967380D01*
X107418095Y-52967380D02*
X107322857Y-52919761D01*
X107275238Y-52872142D01*
X107227619Y-52776904D01*
X107227619Y-52491190D01*
X107275238Y-52395952D01*
X107322857Y-52348333D01*
X107418095Y-52300714D01*
X107560952Y-52300714D01*
X107656190Y-52348333D01*
X107703809Y-52395952D01*
X107751428Y-52491190D01*
X107751428Y-52776904D01*
X107703809Y-52872142D01*
X107656190Y-52919761D01*
X107560952Y-52967380D01*
X107418095Y-52967380D01*
X108037142Y-52300714D02*
X108418095Y-52300714D01*
X108180000Y-51967380D02*
X108180000Y-52824523D01*
X108227619Y-52919761D01*
X108322857Y-52967380D01*
X108418095Y-52967380D01*
X106680000Y-54236428D02*
X107441904Y-54236428D01*
X107060952Y-54617380D02*
X107060952Y-53855476D01*
X120642142Y-52205000D02*
X120546904Y-52157380D01*
X120404047Y-52157380D01*
X120261190Y-52205000D01*
X120165952Y-52300238D01*
X120118333Y-52395476D01*
X120070714Y-52585952D01*
X120070714Y-52728809D01*
X120118333Y-52919285D01*
X120165952Y-53014523D01*
X120261190Y-53109761D01*
X120404047Y-53157380D01*
X120499285Y-53157380D01*
X120642142Y-53109761D01*
X120689761Y-53062142D01*
X120689761Y-52728809D01*
X120499285Y-52728809D01*
X121118333Y-52490714D02*
X121118333Y-53157380D01*
X121118333Y-52585952D02*
X121165952Y-52538333D01*
X121261190Y-52490714D01*
X121404047Y-52490714D01*
X121499285Y-52538333D01*
X121546904Y-52633571D01*
X121546904Y-53157380D01*
X122451666Y-53157380D02*
X122451666Y-52157380D01*
X122451666Y-53109761D02*
X122356428Y-53157380D01*
X122165952Y-53157380D01*
X122070714Y-53109761D01*
X122023095Y-53062142D01*
X121975476Y-52966904D01*
X121975476Y-52681190D01*
X122023095Y-52585952D01*
X122070714Y-52538333D01*
X122165952Y-52490714D01*
X122356428Y-52490714D01*
X122451666Y-52538333D01*
X118737142Y-68080000D02*
X118641904Y-68032380D01*
X118499047Y-68032380D01*
X118356190Y-68080000D01*
X118260952Y-68175238D01*
X118213333Y-68270476D01*
X118165714Y-68460952D01*
X118165714Y-68603809D01*
X118213333Y-68794285D01*
X118260952Y-68889523D01*
X118356190Y-68984761D01*
X118499047Y-69032380D01*
X118594285Y-69032380D01*
X118737142Y-68984761D01*
X118784761Y-68937142D01*
X118784761Y-68603809D01*
X118594285Y-68603809D01*
X119213333Y-68365714D02*
X119213333Y-69032380D01*
X119213333Y-68460952D02*
X119260952Y-68413333D01*
X119356190Y-68365714D01*
X119499047Y-68365714D01*
X119594285Y-68413333D01*
X119641904Y-68508571D01*
X119641904Y-69032380D01*
X120546666Y-69032380D02*
X120546666Y-68032380D01*
X120546666Y-68984761D02*
X120451428Y-69032380D01*
X120260952Y-69032380D01*
X120165714Y-68984761D01*
X120118095Y-68937142D01*
X120070476Y-68841904D01*
X120070476Y-68556190D01*
X120118095Y-68460952D01*
X120165714Y-68413333D01*
X120260952Y-68365714D01*
X120451428Y-68365714D01*
X120546666Y-68413333D01*
X115014523Y-68032380D02*
X115347857Y-69032380D01*
X115681190Y-68032380D01*
X116443095Y-68984761D02*
X116347857Y-69032380D01*
X116157380Y-69032380D01*
X116062142Y-68984761D01*
X116014523Y-68937142D01*
X115966904Y-68841904D01*
X115966904Y-68556190D01*
X116014523Y-68460952D01*
X116062142Y-68413333D01*
X116157380Y-68365714D01*
X116347857Y-68365714D01*
X116443095Y-68413333D01*
X117300238Y-68984761D02*
X117205000Y-69032380D01*
X117014523Y-69032380D01*
X116919285Y-68984761D01*
X116871666Y-68937142D01*
X116824047Y-68841904D01*
X116824047Y-68556190D01*
X116871666Y-68460952D01*
X116919285Y-68413333D01*
X117014523Y-68365714D01*
X117205000Y-68365714D01*
X117300238Y-68413333D01*
X111871666Y-67238571D02*
X112014523Y-67286190D01*
X112062142Y-67333809D01*
X112109761Y-67429047D01*
X112109761Y-67571904D01*
X112062142Y-67667142D01*
X112014523Y-67714761D01*
X111919285Y-67762380D01*
X111538333Y-67762380D01*
X111538333Y-66762380D01*
X111871666Y-66762380D01*
X111966904Y-66810000D01*
X112014523Y-66857619D01*
X112062142Y-66952857D01*
X112062142Y-67048095D01*
X112014523Y-67143333D01*
X111966904Y-67190952D01*
X111871666Y-67238571D01*
X111538333Y-67238571D01*
X112490714Y-66857619D02*
X112538333Y-66810000D01*
X112633571Y-66762380D01*
X112871666Y-66762380D01*
X112966904Y-66810000D01*
X113014523Y-66857619D01*
X113062142Y-66952857D01*
X113062142Y-67048095D01*
X113014523Y-67190952D01*
X112443095Y-67762380D01*
X113062142Y-67762380D01*
X114585952Y-67238571D02*
X114728809Y-67286190D01*
X114776428Y-67333809D01*
X114824047Y-67429047D01*
X114824047Y-67571904D01*
X114776428Y-67667142D01*
X114728809Y-67714761D01*
X114633571Y-67762380D01*
X114252619Y-67762380D01*
X114252619Y-66762380D01*
X114585952Y-66762380D01*
X114681190Y-66810000D01*
X114728809Y-66857619D01*
X114776428Y-66952857D01*
X114776428Y-67048095D01*
X114728809Y-67143333D01*
X114681190Y-67190952D01*
X114585952Y-67238571D01*
X114252619Y-67238571D01*
X115776428Y-67762380D02*
X115205000Y-67762380D01*
X115490714Y-67762380D02*
X115490714Y-66762380D01*
X115395476Y-66905238D01*
X115300238Y-67000476D01*
X115205000Y-67048095D01*
X116919285Y-67476666D02*
X117395476Y-67476666D01*
X116824047Y-67762380D02*
X117157380Y-66762380D01*
X117490714Y-67762380D01*
X118347857Y-67762380D02*
X117776428Y-67762380D01*
X118062142Y-67762380D02*
X118062142Y-66762380D01*
X117966904Y-66905238D01*
X117871666Y-67000476D01*
X117776428Y-67048095D01*
X119490714Y-67476666D02*
X119966904Y-67476666D01*
X119395476Y-67762380D02*
X119728809Y-66762380D01*
X120062142Y-67762380D01*
X120347857Y-66857619D02*
X120395476Y-66810000D01*
X120490714Y-66762380D01*
X120728809Y-66762380D01*
X120824047Y-66810000D01*
X120871666Y-66857619D01*
X120919285Y-66952857D01*
X120919285Y-67048095D01*
X120871666Y-67190952D01*
X120300238Y-67762380D01*
X120919285Y-67762380D01*
X118879880Y-89900000D02*
X117879880Y-89900000D01*
X117879880Y-89661904D01*
X117927500Y-89519047D01*
X118022738Y-89423809D01*
X118117976Y-89376190D01*
X118308452Y-89328571D01*
X118451309Y-89328571D01*
X118641785Y-89376190D01*
X118737023Y-89423809D01*
X118832261Y-89519047D01*
X118879880Y-89661904D01*
X118879880Y-89900000D01*
X118879880Y-88900000D02*
X117879880Y-88900000D01*
X118879880Y-87852380D02*
X118403690Y-88185714D01*
X118879880Y-88423809D02*
X117879880Y-88423809D01*
X117879880Y-88042857D01*
X117927500Y-87947619D01*
X117975119Y-87900000D01*
X118070357Y-87852380D01*
X118213214Y-87852380D01*
X118308452Y-87900000D01*
X118356071Y-87947619D01*
X118403690Y-88042857D01*
X118403690Y-88423809D01*
X116292261Y-90836547D02*
X116339880Y-90693690D01*
X116339880Y-90455595D01*
X116292261Y-90360357D01*
X116244642Y-90312738D01*
X116149404Y-90265119D01*
X116054166Y-90265119D01*
X115958928Y-90312738D01*
X115911309Y-90360357D01*
X115863690Y-90455595D01*
X115816071Y-90646071D01*
X115768452Y-90741309D01*
X115720833Y-90788928D01*
X115625595Y-90836547D01*
X115530357Y-90836547D01*
X115435119Y-90788928D01*
X115387500Y-90741309D01*
X115339880Y-90646071D01*
X115339880Y-90407976D01*
X115387500Y-90265119D01*
X115339880Y-89979404D02*
X115339880Y-89407976D01*
X116339880Y-89693690D02*
X115339880Y-89693690D01*
X115816071Y-89074642D02*
X115816071Y-88741309D01*
X116339880Y-88598452D02*
X116339880Y-89074642D01*
X115339880Y-89074642D01*
X115339880Y-88598452D01*
X116339880Y-88169880D02*
X115339880Y-88169880D01*
X115339880Y-87788928D01*
X115387500Y-87693690D01*
X115435119Y-87646071D01*
X115530357Y-87598452D01*
X115673214Y-87598452D01*
X115768452Y-87646071D01*
X115816071Y-87693690D01*
X115863690Y-87788928D01*
X115863690Y-88169880D01*
X113752261Y-90407976D02*
X113799880Y-90265119D01*
X113799880Y-90027023D01*
X113752261Y-89931785D01*
X113704642Y-89884166D01*
X113609404Y-89836547D01*
X113514166Y-89836547D01*
X113418928Y-89884166D01*
X113371309Y-89931785D01*
X113323690Y-90027023D01*
X113276071Y-90217500D01*
X113228452Y-90312738D01*
X113180833Y-90360357D01*
X113085595Y-90407976D01*
X112990357Y-90407976D01*
X112895119Y-90360357D01*
X112847500Y-90312738D01*
X112799880Y-90217500D01*
X112799880Y-89979404D01*
X112847500Y-89836547D01*
X113799880Y-88931785D02*
X113799880Y-89407976D01*
X112799880Y-89407976D01*
X113799880Y-88598452D02*
X112799880Y-88598452D01*
X112799880Y-88217500D01*
X112847500Y-88122261D01*
X112895119Y-88074642D01*
X112990357Y-88027023D01*
X113133214Y-88027023D01*
X113228452Y-88074642D01*
X113276071Y-88122261D01*
X113323690Y-88217500D01*
X113323690Y-88598452D01*
X111259880Y-89765119D02*
X110783690Y-90098452D01*
X111259880Y-90336547D02*
X110259880Y-90336547D01*
X110259880Y-89955595D01*
X110307500Y-89860357D01*
X110355119Y-89812738D01*
X110450357Y-89765119D01*
X110593214Y-89765119D01*
X110688452Y-89812738D01*
X110736071Y-89860357D01*
X110783690Y-89955595D01*
X110783690Y-90336547D01*
X111212261Y-89384166D02*
X111259880Y-89241309D01*
X111259880Y-89003214D01*
X111212261Y-88907976D01*
X111164642Y-88860357D01*
X111069404Y-88812738D01*
X110974166Y-88812738D01*
X110878928Y-88860357D01*
X110831309Y-88907976D01*
X110783690Y-89003214D01*
X110736071Y-89193690D01*
X110688452Y-89288928D01*
X110640833Y-89336547D01*
X110545595Y-89384166D01*
X110450357Y-89384166D01*
X110355119Y-89336547D01*
X110307500Y-89288928D01*
X110259880Y-89193690D01*
X110259880Y-88955595D01*
X110307500Y-88812738D01*
X110259880Y-88527023D02*
X110259880Y-87955595D01*
X111259880Y-88241309D02*
X110259880Y-88241309D01*
X108719880Y-90503214D02*
X107719880Y-90503214D01*
X108434166Y-90169880D01*
X107719880Y-89836547D01*
X108719880Y-89836547D01*
X108672261Y-89407976D02*
X108719880Y-89265119D01*
X108719880Y-89027023D01*
X108672261Y-88931785D01*
X108624642Y-88884166D01*
X108529404Y-88836547D01*
X108434166Y-88836547D01*
X108338928Y-88884166D01*
X108291309Y-88931785D01*
X108243690Y-89027023D01*
X108196071Y-89217500D01*
X108148452Y-89312738D01*
X108100833Y-89360357D01*
X108005595Y-89407976D01*
X107910357Y-89407976D01*
X107815119Y-89360357D01*
X107767500Y-89312738D01*
X107719880Y-89217500D01*
X107719880Y-88979404D01*
X107767500Y-88836547D01*
X107815119Y-88455595D02*
X107767500Y-88407976D01*
X107719880Y-88312738D01*
X107719880Y-88074642D01*
X107767500Y-87979404D01*
X107815119Y-87931785D01*
X107910357Y-87884166D01*
X108005595Y-87884166D01*
X108148452Y-87931785D01*
X108719880Y-88503214D01*
X108719880Y-87884166D01*
X106179880Y-90503214D02*
X105179880Y-90503214D01*
X105894166Y-90169880D01*
X105179880Y-89836547D01*
X106179880Y-89836547D01*
X106132261Y-89407976D02*
X106179880Y-89265119D01*
X106179880Y-89027023D01*
X106132261Y-88931785D01*
X106084642Y-88884166D01*
X105989404Y-88836547D01*
X105894166Y-88836547D01*
X105798928Y-88884166D01*
X105751309Y-88931785D01*
X105703690Y-89027023D01*
X105656071Y-89217500D01*
X105608452Y-89312738D01*
X105560833Y-89360357D01*
X105465595Y-89407976D01*
X105370357Y-89407976D01*
X105275119Y-89360357D01*
X105227500Y-89312738D01*
X105179880Y-89217500D01*
X105179880Y-88979404D01*
X105227500Y-88836547D01*
X106179880Y-87884166D02*
X106179880Y-88455595D01*
X106179880Y-88169880D02*
X105179880Y-88169880D01*
X105322738Y-88265119D01*
X105417976Y-88360357D01*
X105465595Y-88455595D01*
X103639880Y-90503214D02*
X102639880Y-90503214D01*
X103354166Y-90169880D01*
X102639880Y-89836547D01*
X103639880Y-89836547D01*
X103592261Y-89407976D02*
X103639880Y-89265119D01*
X103639880Y-89027023D01*
X103592261Y-88931785D01*
X103544642Y-88884166D01*
X103449404Y-88836547D01*
X103354166Y-88836547D01*
X103258928Y-88884166D01*
X103211309Y-88931785D01*
X103163690Y-89027023D01*
X103116071Y-89217500D01*
X103068452Y-89312738D01*
X103020833Y-89360357D01*
X102925595Y-89407976D01*
X102830357Y-89407976D01*
X102735119Y-89360357D01*
X102687500Y-89312738D01*
X102639880Y-89217500D01*
X102639880Y-88979404D01*
X102687500Y-88836547D01*
X102639880Y-88217500D02*
X102639880Y-88122261D01*
X102687500Y-88027023D01*
X102735119Y-87979404D01*
X102830357Y-87931785D01*
X103020833Y-87884166D01*
X103258928Y-87884166D01*
X103449404Y-87931785D01*
X103544642Y-87979404D01*
X103592261Y-88027023D01*
X103639880Y-88122261D01*
X103639880Y-88217500D01*
X103592261Y-88312738D01*
X103544642Y-88360357D01*
X103449404Y-88407976D01*
X103258928Y-88455595D01*
X103020833Y-88455595D01*
X102830357Y-88407976D01*
X102735119Y-88360357D01*
X102687500Y-88312738D01*
X102639880Y-88217500D01*
X100576071Y-89320595D02*
X100576071Y-88987261D01*
X101099880Y-88844404D02*
X101099880Y-89320595D01*
X100099880Y-89320595D01*
X100099880Y-88844404D01*
X101099880Y-88415833D02*
X100099880Y-88415833D01*
X101099880Y-87844404D01*
X100099880Y-87844404D01*
X111688571Y-75201071D02*
X111831428Y-75201071D01*
X111974285Y-75272500D01*
X112045714Y-75343928D01*
X112117142Y-75486785D01*
X112188571Y-75772500D01*
X112188571Y-76129642D01*
X112117142Y-76415357D01*
X112045714Y-76558214D01*
X111974285Y-76629642D01*
X111831428Y-76701071D01*
X111688571Y-76701071D01*
X111545714Y-76629642D01*
X111474285Y-76558214D01*
X111402857Y-76415357D01*
X111331428Y-76129642D01*
X111331428Y-75772500D01*
X111402857Y-75486785D01*
X111474285Y-75343928D01*
X111545714Y-75272500D01*
X111688571Y-75201071D01*
X112188571Y-81501071D02*
X111331428Y-81501071D01*
X111760000Y-81501071D02*
X111760000Y-80001071D01*
X111617142Y-80215357D01*
X111474285Y-80358214D01*
X111331428Y-80429642D01*
X114665595Y-83954880D02*
X114094166Y-83954880D01*
X114379880Y-83954880D02*
X114379880Y-82954880D01*
X114284642Y-83097738D01*
X114189404Y-83192976D01*
X114094166Y-83240595D01*
X116379880Y-83954880D02*
X115808452Y-83954880D01*
X116094166Y-83954880D02*
X116094166Y-82954880D01*
X115998928Y-83097738D01*
X115903690Y-83192976D01*
X115808452Y-83240595D01*
X118094166Y-83954880D02*
X117522738Y-83954880D01*
X117808452Y-83954880D02*
X117808452Y-82954880D01*
X117713214Y-83097738D01*
X117617976Y-83192976D01*
X117522738Y-83240595D01*
X119808452Y-83954880D02*
X119237023Y-83954880D01*
X119522738Y-83954880D02*
X119522738Y-82954880D01*
X119427500Y-83097738D01*
X119332261Y-83192976D01*
X119237023Y-83240595D01*
X120951309Y-82907261D02*
X120094166Y-84192976D01*
X121808452Y-83954880D02*
X121237023Y-83954880D01*
X121522738Y-83954880D02*
X121522738Y-82954880D01*
X121427500Y-83097738D01*
X121332261Y-83192976D01*
X121237023Y-83240595D01*
X122665595Y-82954880D02*
X122475119Y-82954880D01*
X122379880Y-83002500D01*
X122332261Y-83050119D01*
X122237023Y-83192976D01*
X122189404Y-83383452D01*
X122189404Y-83764404D01*
X122237023Y-83859642D01*
X122284642Y-83907261D01*
X122379880Y-83954880D01*
X122570357Y-83954880D01*
X122665595Y-83907261D01*
X122713214Y-83859642D01*
X122760833Y-83764404D01*
X122760833Y-83526309D01*
X122713214Y-83431071D01*
X122665595Y-83383452D01*
X122570357Y-83335833D01*
X122379880Y-83335833D01*
X122284642Y-83383452D01*
X122237023Y-83431071D01*
X122189404Y-83526309D01*
X114506785Y-82049880D02*
X113935357Y-82049880D01*
X114221071Y-82049880D02*
X114221071Y-81049880D01*
X114125833Y-81192738D01*
X114030595Y-81287976D01*
X113935357Y-81335595D01*
X116221071Y-82049880D02*
X115649642Y-82049880D01*
X115935357Y-82049880D02*
X115935357Y-81049880D01*
X115840119Y-81192738D01*
X115744880Y-81287976D01*
X115649642Y-81335595D01*
X117602023Y-81049880D02*
X117697261Y-81049880D01*
X117792500Y-81097500D01*
X117840119Y-81145119D01*
X117887738Y-81240357D01*
X117935357Y-81430833D01*
X117935357Y-81668928D01*
X117887738Y-81859404D01*
X117840119Y-81954642D01*
X117792500Y-82002261D01*
X117697261Y-82049880D01*
X117602023Y-82049880D01*
X117506785Y-82002261D01*
X117459166Y-81954642D01*
X117411547Y-81859404D01*
X117363928Y-81668928D01*
X117363928Y-81430833D01*
X117411547Y-81240357D01*
X117459166Y-81145119D01*
X117506785Y-81097500D01*
X117602023Y-81049880D01*
X119649642Y-82049880D02*
X119078214Y-82049880D01*
X119363928Y-82049880D02*
X119363928Y-81049880D01*
X119268690Y-81192738D01*
X119173452Y-81287976D01*
X119078214Y-81335595D01*
X120792500Y-81002261D02*
X119935357Y-82287976D01*
X121268690Y-81478452D02*
X121173452Y-81430833D01*
X121125833Y-81383214D01*
X121078214Y-81287976D01*
X121078214Y-81240357D01*
X121125833Y-81145119D01*
X121173452Y-81097500D01*
X121268690Y-81049880D01*
X121459166Y-81049880D01*
X121554404Y-81097500D01*
X121602023Y-81145119D01*
X121649642Y-81240357D01*
X121649642Y-81287976D01*
X121602023Y-81383214D01*
X121554404Y-81430833D01*
X121459166Y-81478452D01*
X121268690Y-81478452D01*
X121173452Y-81526071D01*
X121125833Y-81573690D01*
X121078214Y-81668928D01*
X121078214Y-81859404D01*
X121125833Y-81954642D01*
X121173452Y-82002261D01*
X121268690Y-82049880D01*
X121459166Y-82049880D01*
X121554404Y-82002261D01*
X121602023Y-81954642D01*
X121649642Y-81859404D01*
X121649642Y-81668928D01*
X121602023Y-81573690D01*
X121554404Y-81526071D01*
X121459166Y-81478452D01*
X114173452Y-79462380D02*
X114268690Y-79462380D01*
X114363928Y-79510000D01*
X114411547Y-79557619D01*
X114459166Y-79652857D01*
X114506785Y-79843333D01*
X114506785Y-80081428D01*
X114459166Y-80271904D01*
X114411547Y-80367142D01*
X114363928Y-80414761D01*
X114268690Y-80462380D01*
X114173452Y-80462380D01*
X114078214Y-80414761D01*
X114030595Y-80367142D01*
X113982976Y-80271904D01*
X113935357Y-80081428D01*
X113935357Y-79843333D01*
X113982976Y-79652857D01*
X114030595Y-79557619D01*
X114078214Y-79510000D01*
X114173452Y-79462380D01*
X116221071Y-80462380D02*
X115649642Y-80462380D01*
X115935357Y-80462380D02*
X115935357Y-79462380D01*
X115840119Y-79605238D01*
X115744880Y-79700476D01*
X115649642Y-79748095D01*
X117602023Y-79462380D02*
X117697261Y-79462380D01*
X117792500Y-79510000D01*
X117840119Y-79557619D01*
X117887738Y-79652857D01*
X117935357Y-79843333D01*
X117935357Y-80081428D01*
X117887738Y-80271904D01*
X117840119Y-80367142D01*
X117792500Y-80414761D01*
X117697261Y-80462380D01*
X117602023Y-80462380D01*
X117506785Y-80414761D01*
X117459166Y-80367142D01*
X117411547Y-80271904D01*
X117363928Y-80081428D01*
X117363928Y-79843333D01*
X117411547Y-79652857D01*
X117459166Y-79557619D01*
X117506785Y-79510000D01*
X117602023Y-79462380D01*
X119649642Y-80462380D02*
X119078214Y-80462380D01*
X119363928Y-80462380D02*
X119363928Y-79462380D01*
X119268690Y-79605238D01*
X119173452Y-79700476D01*
X119078214Y-79748095D01*
X120792500Y-79414761D02*
X119935357Y-80700476D01*
X121554404Y-79795714D02*
X121554404Y-80462380D01*
X121316309Y-79414761D02*
X121078214Y-80129047D01*
X121697261Y-80129047D01*
X114506785Y-78874880D02*
X113935357Y-78874880D01*
X114221071Y-78874880D02*
X114221071Y-77874880D01*
X114125833Y-78017738D01*
X114030595Y-78112976D01*
X113935357Y-78160595D01*
X115887738Y-77874880D02*
X115982976Y-77874880D01*
X116078214Y-77922500D01*
X116125833Y-77970119D01*
X116173452Y-78065357D01*
X116221071Y-78255833D01*
X116221071Y-78493928D01*
X116173452Y-78684404D01*
X116125833Y-78779642D01*
X116078214Y-78827261D01*
X115982976Y-78874880D01*
X115887738Y-78874880D01*
X115792500Y-78827261D01*
X115744880Y-78779642D01*
X115697261Y-78684404D01*
X115649642Y-78493928D01*
X115649642Y-78255833D01*
X115697261Y-78065357D01*
X115744880Y-77970119D01*
X115792500Y-77922500D01*
X115887738Y-77874880D01*
X117602023Y-77874880D02*
X117697261Y-77874880D01*
X117792500Y-77922500D01*
X117840119Y-77970119D01*
X117887738Y-78065357D01*
X117935357Y-78255833D01*
X117935357Y-78493928D01*
X117887738Y-78684404D01*
X117840119Y-78779642D01*
X117792500Y-78827261D01*
X117697261Y-78874880D01*
X117602023Y-78874880D01*
X117506785Y-78827261D01*
X117459166Y-78779642D01*
X117411547Y-78684404D01*
X117363928Y-78493928D01*
X117363928Y-78255833D01*
X117411547Y-78065357D01*
X117459166Y-77970119D01*
X117506785Y-77922500D01*
X117602023Y-77874880D01*
X119649642Y-78874880D02*
X119078214Y-78874880D01*
X119363928Y-78874880D02*
X119363928Y-77874880D01*
X119268690Y-78017738D01*
X119173452Y-78112976D01*
X119078214Y-78160595D01*
X120792500Y-77827261D02*
X119935357Y-79112976D01*
X121078214Y-77970119D02*
X121125833Y-77922500D01*
X121221071Y-77874880D01*
X121459166Y-77874880D01*
X121554404Y-77922500D01*
X121602023Y-77970119D01*
X121649642Y-78065357D01*
X121649642Y-78160595D01*
X121602023Y-78303452D01*
X121030595Y-78874880D01*
X121649642Y-78874880D01*
X114220952Y-76287380D02*
X114316190Y-76287380D01*
X114411428Y-76335000D01*
X114459047Y-76382619D01*
X114506666Y-76477857D01*
X114554285Y-76668333D01*
X114554285Y-76906428D01*
X114506666Y-77096904D01*
X114459047Y-77192142D01*
X114411428Y-77239761D01*
X114316190Y-77287380D01*
X114220952Y-77287380D01*
X114125714Y-77239761D01*
X114078095Y-77192142D01*
X114030476Y-77096904D01*
X113982857Y-76906428D01*
X113982857Y-76668333D01*
X114030476Y-76477857D01*
X114078095Y-76382619D01*
X114125714Y-76335000D01*
X114220952Y-76287380D01*
X115935238Y-76287380D02*
X116030476Y-76287380D01*
X116125714Y-76335000D01*
X116173333Y-76382619D01*
X116220952Y-76477857D01*
X116268571Y-76668333D01*
X116268571Y-76906428D01*
X116220952Y-77096904D01*
X116173333Y-77192142D01*
X116125714Y-77239761D01*
X116030476Y-77287380D01*
X115935238Y-77287380D01*
X115840000Y-77239761D01*
X115792380Y-77192142D01*
X115744761Y-77096904D01*
X115697142Y-76906428D01*
X115697142Y-76668333D01*
X115744761Y-76477857D01*
X115792380Y-76382619D01*
X115840000Y-76335000D01*
X115935238Y-76287380D01*
X117649523Y-76287380D02*
X117744761Y-76287380D01*
X117840000Y-76335000D01*
X117887619Y-76382619D01*
X117935238Y-76477857D01*
X117982857Y-76668333D01*
X117982857Y-76906428D01*
X117935238Y-77096904D01*
X117887619Y-77192142D01*
X117840000Y-77239761D01*
X117744761Y-77287380D01*
X117649523Y-77287380D01*
X117554285Y-77239761D01*
X117506666Y-77192142D01*
X117459047Y-77096904D01*
X117411428Y-76906428D01*
X117411428Y-76668333D01*
X117459047Y-76477857D01*
X117506666Y-76382619D01*
X117554285Y-76335000D01*
X117649523Y-76287380D01*
X119697142Y-77287380D02*
X119125714Y-77287380D01*
X119411428Y-77287380D02*
X119411428Y-76287380D01*
X119316190Y-76430238D01*
X119220952Y-76525476D01*
X119125714Y-76573095D01*
X114817380Y-75580714D02*
X113817380Y-75580714D01*
X114531666Y-75247380D01*
X113817380Y-74914047D01*
X114817380Y-74914047D01*
X114769761Y-74485476D02*
X114817380Y-74342619D01*
X114817380Y-74104523D01*
X114769761Y-74009285D01*
X114722142Y-73961666D01*
X114626904Y-73914047D01*
X114531666Y-73914047D01*
X114436428Y-73961666D01*
X114388809Y-74009285D01*
X114341190Y-74104523D01*
X114293571Y-74295000D01*
X114245952Y-74390238D01*
X114198333Y-74437857D01*
X114103095Y-74485476D01*
X114007857Y-74485476D01*
X113912619Y-74437857D01*
X113865000Y-74390238D01*
X113817380Y-74295000D01*
X113817380Y-74056904D01*
X113865000Y-73914047D01*
X113817380Y-73295000D02*
X113817380Y-73199761D01*
X113865000Y-73104523D01*
X113912619Y-73056904D01*
X114007857Y-73009285D01*
X114198333Y-72961666D01*
X114436428Y-72961666D01*
X114626904Y-73009285D01*
X114722142Y-73056904D01*
X114769761Y-73104523D01*
X114817380Y-73199761D01*
X114817380Y-73295000D01*
X114769761Y-73390238D01*
X114722142Y-73437857D01*
X114626904Y-73485476D01*
X114436428Y-73533095D01*
X114198333Y-73533095D01*
X114007857Y-73485476D01*
X113912619Y-73437857D01*
X113865000Y-73390238D01*
X113817380Y-73295000D01*
X116467380Y-75580714D02*
X115467380Y-75580714D01*
X116181666Y-75247380D01*
X115467380Y-74914047D01*
X116467380Y-74914047D01*
X116419761Y-74485476D02*
X116467380Y-74342619D01*
X116467380Y-74104523D01*
X116419761Y-74009285D01*
X116372142Y-73961666D01*
X116276904Y-73914047D01*
X116181666Y-73914047D01*
X116086428Y-73961666D01*
X116038809Y-74009285D01*
X115991190Y-74104523D01*
X115943571Y-74295000D01*
X115895952Y-74390238D01*
X115848333Y-74437857D01*
X115753095Y-74485476D01*
X115657857Y-74485476D01*
X115562619Y-74437857D01*
X115515000Y-74390238D01*
X115467380Y-74295000D01*
X115467380Y-74056904D01*
X115515000Y-73914047D01*
X116467380Y-72961666D02*
X116467380Y-73533095D01*
X116467380Y-73247380D02*
X115467380Y-73247380D01*
X115610238Y-73342619D01*
X115705476Y-73437857D01*
X115753095Y-73533095D01*
X118117380Y-75580714D02*
X117117380Y-75580714D01*
X117831666Y-75247380D01*
X117117380Y-74914047D01*
X118117380Y-74914047D01*
X118069761Y-74485476D02*
X118117380Y-74342619D01*
X118117380Y-74104523D01*
X118069761Y-74009285D01*
X118022142Y-73961666D01*
X117926904Y-73914047D01*
X117831666Y-73914047D01*
X117736428Y-73961666D01*
X117688809Y-74009285D01*
X117641190Y-74104523D01*
X117593571Y-74295000D01*
X117545952Y-74390238D01*
X117498333Y-74437857D01*
X117403095Y-74485476D01*
X117307857Y-74485476D01*
X117212619Y-74437857D01*
X117165000Y-74390238D01*
X117117380Y-74295000D01*
X117117380Y-74056904D01*
X117165000Y-73914047D01*
X117212619Y-73533095D02*
X117165000Y-73485476D01*
X117117380Y-73390238D01*
X117117380Y-73152142D01*
X117165000Y-73056904D01*
X117212619Y-73009285D01*
X117307857Y-72961666D01*
X117403095Y-72961666D01*
X117545952Y-73009285D01*
X118117380Y-73580714D01*
X118117380Y-72961666D01*
X119719761Y-75747380D02*
X119767380Y-75604523D01*
X119767380Y-75366428D01*
X119719761Y-75271190D01*
X119672142Y-75223571D01*
X119576904Y-75175952D01*
X119481666Y-75175952D01*
X119386428Y-75223571D01*
X119338809Y-75271190D01*
X119291190Y-75366428D01*
X119243571Y-75556904D01*
X119195952Y-75652142D01*
X119148333Y-75699761D01*
X119053095Y-75747380D01*
X118957857Y-75747380D01*
X118862619Y-75699761D01*
X118815000Y-75652142D01*
X118767380Y-75556904D01*
X118767380Y-75318809D01*
X118815000Y-75175952D01*
X119100714Y-74890238D02*
X119100714Y-74509285D01*
X118767380Y-74747380D02*
X119624523Y-74747380D01*
X119719761Y-74699761D01*
X119767380Y-74604523D01*
X119767380Y-74509285D01*
X119719761Y-73795000D02*
X119767380Y-73890238D01*
X119767380Y-74080714D01*
X119719761Y-74175952D01*
X119624523Y-74223571D01*
X119243571Y-74223571D01*
X119148333Y-74175952D01*
X119100714Y-74080714D01*
X119100714Y-73890238D01*
X119148333Y-73795000D01*
X119243571Y-73747380D01*
X119338809Y-73747380D01*
X119434047Y-74223571D01*
X119100714Y-73318809D02*
X120100714Y-73318809D01*
X119148333Y-73318809D02*
X119100714Y-73223571D01*
X119100714Y-73033095D01*
X119148333Y-72937857D01*
X119195952Y-72890238D01*
X119291190Y-72842619D01*
X119576904Y-72842619D01*
X119672142Y-72890238D01*
X119719761Y-72937857D01*
X119767380Y-73033095D01*
X119767380Y-73223571D01*
X119719761Y-73318809D01*
X89527142Y-82050000D02*
X89431904Y-82002380D01*
X89289047Y-82002380D01*
X89146190Y-82050000D01*
X89050952Y-82145238D01*
X89003333Y-82240476D01*
X88955714Y-82430952D01*
X88955714Y-82573809D01*
X89003333Y-82764285D01*
X89050952Y-82859523D01*
X89146190Y-82954761D01*
X89289047Y-83002380D01*
X89384285Y-83002380D01*
X89527142Y-82954761D01*
X89574761Y-82907142D01*
X89574761Y-82573809D01*
X89384285Y-82573809D01*
X90003333Y-82335714D02*
X90003333Y-83002380D01*
X90003333Y-82430952D02*
X90050952Y-82383333D01*
X90146190Y-82335714D01*
X90289047Y-82335714D01*
X90384285Y-82383333D01*
X90431904Y-82478571D01*
X90431904Y-83002380D01*
X91336666Y-83002380D02*
X91336666Y-82002380D01*
X91336666Y-82954761D02*
X91241428Y-83002380D01*
X91050952Y-83002380D01*
X90955714Y-82954761D01*
X90908095Y-82907142D01*
X90860476Y-82811904D01*
X90860476Y-82526190D01*
X90908095Y-82430952D01*
X90955714Y-82383333D01*
X91050952Y-82335714D01*
X91241428Y-82335714D01*
X91336666Y-82383333D01*
X89455714Y-80176666D02*
X89931904Y-80176666D01*
X89360476Y-80462380D02*
X89693809Y-79462380D01*
X90027142Y-80462380D01*
X90836666Y-79462380D02*
X90360476Y-79462380D01*
X90312857Y-79938571D01*
X90360476Y-79890952D01*
X90455714Y-79843333D01*
X90693809Y-79843333D01*
X90789047Y-79890952D01*
X90836666Y-79938571D01*
X90884285Y-80033809D01*
X90884285Y-80271904D01*
X90836666Y-80367142D01*
X90789047Y-80414761D01*
X90693809Y-80462380D01*
X90455714Y-80462380D01*
X90360476Y-80414761D01*
X90312857Y-80367142D01*
X89455714Y-77636666D02*
X89931904Y-77636666D01*
X89360476Y-77922380D02*
X89693809Y-76922380D01*
X90027142Y-77922380D01*
X90789047Y-77255714D02*
X90789047Y-77922380D01*
X90550952Y-76874761D02*
X90312857Y-77589047D01*
X90931904Y-77589047D01*
X89455714Y-75096666D02*
X89931904Y-75096666D01*
X89360476Y-75382380D02*
X89693809Y-74382380D01*
X90027142Y-75382380D01*
X90265238Y-74382380D02*
X90884285Y-74382380D01*
X90550952Y-74763333D01*
X90693809Y-74763333D01*
X90789047Y-74810952D01*
X90836666Y-74858571D01*
X90884285Y-74953809D01*
X90884285Y-75191904D01*
X90836666Y-75287142D01*
X90789047Y-75334761D01*
X90693809Y-75382380D01*
X90408095Y-75382380D01*
X90312857Y-75334761D01*
X90265238Y-75287142D01*
X89455714Y-72556666D02*
X89931904Y-72556666D01*
X89360476Y-72842380D02*
X89693809Y-71842380D01*
X90027142Y-72842380D01*
X90312857Y-71937619D02*
X90360476Y-71890000D01*
X90455714Y-71842380D01*
X90693809Y-71842380D01*
X90789047Y-71890000D01*
X90836666Y-71937619D01*
X90884285Y-72032857D01*
X90884285Y-72128095D01*
X90836666Y-72270952D01*
X90265238Y-72842380D01*
X90884285Y-72842380D01*
X89455714Y-70016666D02*
X89931904Y-70016666D01*
X89360476Y-70302380D02*
X89693809Y-69302380D01*
X90027142Y-70302380D01*
X90884285Y-70302380D02*
X90312857Y-70302380D01*
X90598571Y-70302380D02*
X90598571Y-69302380D01*
X90503333Y-69445238D01*
X90408095Y-69540476D01*
X90312857Y-69588095D01*
X89455714Y-67476666D02*
X89931904Y-67476666D01*
X89360476Y-67762380D02*
X89693809Y-66762380D01*
X90027142Y-67762380D01*
X90550952Y-66762380D02*
X90646190Y-66762380D01*
X90741428Y-66810000D01*
X90789047Y-66857619D01*
X90836666Y-66952857D01*
X90884285Y-67143333D01*
X90884285Y-67381428D01*
X90836666Y-67571904D01*
X90789047Y-67667142D01*
X90741428Y-67714761D01*
X90646190Y-67762380D01*
X90550952Y-67762380D01*
X90455714Y-67714761D01*
X90408095Y-67667142D01*
X90360476Y-67571904D01*
X90312857Y-67381428D01*
X90312857Y-67143333D01*
X90360476Y-66952857D01*
X90408095Y-66857619D01*
X90455714Y-66810000D01*
X90550952Y-66762380D01*
X88979523Y-59142380D02*
X89312857Y-60142380D01*
X89646190Y-59142380D01*
X90408095Y-60094761D02*
X90312857Y-60142380D01*
X90122380Y-60142380D01*
X90027142Y-60094761D01*
X89979523Y-60047142D01*
X89931904Y-59951904D01*
X89931904Y-59666190D01*
X89979523Y-59570952D01*
X90027142Y-59523333D01*
X90122380Y-59475714D01*
X90312857Y-59475714D01*
X90408095Y-59523333D01*
X91265238Y-60094761D02*
X91170000Y-60142380D01*
X90979523Y-60142380D01*
X90884285Y-60094761D01*
X90836666Y-60047142D01*
X90789047Y-59951904D01*
X90789047Y-59666190D01*
X90836666Y-59570952D01*
X90884285Y-59523333D01*
X90979523Y-59475714D01*
X91170000Y-59475714D01*
X91265238Y-59523333D01*
X89979523Y-65222380D02*
X89408095Y-65222380D01*
X89693809Y-65222380D02*
X89693809Y-64222380D01*
X89598571Y-64365238D01*
X89503333Y-64460476D01*
X89408095Y-64508095D01*
X90312857Y-64222380D02*
X90931904Y-64222380D01*
X90598571Y-64603333D01*
X90741428Y-64603333D01*
X90836666Y-64650952D01*
X90884285Y-64698571D01*
X90931904Y-64793809D01*
X90931904Y-65031904D01*
X90884285Y-65127142D01*
X90836666Y-65174761D01*
X90741428Y-65222380D01*
X90455714Y-65222380D01*
X90360476Y-65174761D01*
X90312857Y-65127142D01*
X89979523Y-62682380D02*
X89408095Y-62682380D01*
X89693809Y-62682380D02*
X89693809Y-61682380D01*
X89598571Y-61825238D01*
X89503333Y-61920476D01*
X89408095Y-61968095D01*
X90360476Y-61777619D02*
X90408095Y-61730000D01*
X90503333Y-61682380D01*
X90741428Y-61682380D01*
X90836666Y-61730000D01*
X90884285Y-61777619D01*
X90931904Y-61872857D01*
X90931904Y-61968095D01*
X90884285Y-62110952D01*
X90312857Y-62682380D01*
X90931904Y-62682380D01*
X128079523Y-60142380D02*
X127508095Y-60142380D01*
X127793809Y-60142380D02*
X127793809Y-59142380D01*
X127698571Y-59285238D01*
X127603333Y-59380476D01*
X127508095Y-59428095D01*
X129031904Y-60142380D02*
X128460476Y-60142380D01*
X128746190Y-60142380D02*
X128746190Y-59142380D01*
X128650952Y-59285238D01*
X128555714Y-59380476D01*
X128460476Y-59428095D01*
X128079523Y-62682380D02*
X127508095Y-62682380D01*
X127793809Y-62682380D02*
X127793809Y-61682380D01*
X127698571Y-61825238D01*
X127603333Y-61920476D01*
X127508095Y-61968095D01*
X128698571Y-61682380D02*
X128793809Y-61682380D01*
X128889047Y-61730000D01*
X128936666Y-61777619D01*
X128984285Y-61872857D01*
X129031904Y-62063333D01*
X129031904Y-62301428D01*
X128984285Y-62491904D01*
X128936666Y-62587142D01*
X128889047Y-62634761D01*
X128793809Y-62682380D01*
X128698571Y-62682380D01*
X128603333Y-62634761D01*
X128555714Y-62587142D01*
X128508095Y-62491904D01*
X128460476Y-62301428D01*
X128460476Y-62063333D01*
X128508095Y-61872857D01*
X128555714Y-61777619D01*
X128603333Y-61730000D01*
X128698571Y-61682380D01*
X128079523Y-65222380D02*
X128270000Y-65222380D01*
X128365238Y-65174761D01*
X128412857Y-65127142D01*
X128508095Y-64984285D01*
X128555714Y-64793809D01*
X128555714Y-64412857D01*
X128508095Y-64317619D01*
X128460476Y-64270000D01*
X128365238Y-64222380D01*
X128174761Y-64222380D01*
X128079523Y-64270000D01*
X128031904Y-64317619D01*
X127984285Y-64412857D01*
X127984285Y-64650952D01*
X128031904Y-64746190D01*
X128079523Y-64793809D01*
X128174761Y-64841428D01*
X128365238Y-64841428D01*
X128460476Y-64793809D01*
X128508095Y-64746190D01*
X128555714Y-64650952D01*
X128174761Y-67190952D02*
X128079523Y-67143333D01*
X128031904Y-67095714D01*
X127984285Y-67000476D01*
X127984285Y-66952857D01*
X128031904Y-66857619D01*
X128079523Y-66810000D01*
X128174761Y-66762380D01*
X128365238Y-66762380D01*
X128460476Y-66810000D01*
X128508095Y-66857619D01*
X128555714Y-66952857D01*
X128555714Y-67000476D01*
X128508095Y-67095714D01*
X128460476Y-67143333D01*
X128365238Y-67190952D01*
X128174761Y-67190952D01*
X128079523Y-67238571D01*
X128031904Y-67286190D01*
X127984285Y-67381428D01*
X127984285Y-67571904D01*
X128031904Y-67667142D01*
X128079523Y-67714761D01*
X128174761Y-67762380D01*
X128365238Y-67762380D01*
X128460476Y-67714761D01*
X128508095Y-67667142D01*
X128555714Y-67571904D01*
X128555714Y-67381428D01*
X128508095Y-67286190D01*
X128460476Y-67238571D01*
X128365238Y-67190952D01*
X127936666Y-69302380D02*
X128603333Y-69302380D01*
X128174761Y-70302380D01*
X128460476Y-71842380D02*
X128270000Y-71842380D01*
X128174761Y-71890000D01*
X128127142Y-71937619D01*
X128031904Y-72080476D01*
X127984285Y-72270952D01*
X127984285Y-72651904D01*
X128031904Y-72747142D01*
X128079523Y-72794761D01*
X128174761Y-72842380D01*
X128365238Y-72842380D01*
X128460476Y-72794761D01*
X128508095Y-72747142D01*
X128555714Y-72651904D01*
X128555714Y-72413809D01*
X128508095Y-72318571D01*
X128460476Y-72270952D01*
X128365238Y-72223333D01*
X128174761Y-72223333D01*
X128079523Y-72270952D01*
X128031904Y-72318571D01*
X127984285Y-72413809D01*
X128508095Y-74382380D02*
X128031904Y-74382380D01*
X127984285Y-74858571D01*
X128031904Y-74810952D01*
X128127142Y-74763333D01*
X128365238Y-74763333D01*
X128460476Y-74810952D01*
X128508095Y-74858571D01*
X128555714Y-74953809D01*
X128555714Y-75191904D01*
X128508095Y-75287142D01*
X128460476Y-75334761D01*
X128365238Y-75382380D01*
X128127142Y-75382380D01*
X128031904Y-75334761D01*
X127984285Y-75287142D01*
X128460476Y-77255714D02*
X128460476Y-77922380D01*
X128222380Y-76874761D02*
X127984285Y-77589047D01*
X128603333Y-77589047D01*
X127936666Y-79462380D02*
X128555714Y-79462380D01*
X128222380Y-79843333D01*
X128365238Y-79843333D01*
X128460476Y-79890952D01*
X128508095Y-79938571D01*
X128555714Y-80033809D01*
X128555714Y-80271904D01*
X128508095Y-80367142D01*
X128460476Y-80414761D01*
X128365238Y-80462380D01*
X128079523Y-80462380D01*
X127984285Y-80414761D01*
X127936666Y-80367142D01*
X127984285Y-82097619D02*
X128031904Y-82050000D01*
X128127142Y-82002380D01*
X128365238Y-82002380D01*
X128460476Y-82050000D01*
X128508095Y-82097619D01*
X128555714Y-82192857D01*
X128555714Y-82288095D01*
X128508095Y-82430952D01*
X127936666Y-83002380D01*
X128555714Y-83002380D01*
D11*
X92710000Y-58360000D02*
X94040000Y-58360000D01*
X94040000Y-58360000D02*
X94040000Y-59690000D01*
X94040000Y-60960000D02*
X94040000Y-83880000D01*
X91380000Y-83880000D02*
X94040000Y-83880000D01*
X91380000Y-60960000D02*
X91380000Y-83880000D01*
X91380000Y-60960000D02*
X94040000Y-60960000D01*
X124400000Y-60960000D02*
X127060000Y-60960000D01*
X124400000Y-60960000D02*
X124400000Y-83880000D01*
X124400000Y-83880000D02*
X127060000Y-83880000D01*
X127060000Y-60960000D02*
X127060000Y-83880000D01*
X127060000Y-58360000D02*
X127060000Y-59690000D01*
X125730000Y-58360000D02*
X127060000Y-58360000D01*
X96077931Y-57230000D02*
X96077931Y-58530000D01*
X95427931Y-57880000D02*
X96727931Y-57880000D01*
X109113500Y-61120000D02*
X109113500Y-62070000D01*
X109073500Y-60745000D02*
X109073500Y-62445000D01*
X109033500Y-60488000D02*
X109033500Y-62702000D01*
X108993500Y-60280000D02*
X108993500Y-62910000D01*
X108953500Y-60101000D02*
X108953500Y-63089000D01*
X108913500Y-59942000D02*
X108913500Y-63248000D01*
X108873500Y-59797000D02*
X108873500Y-63393000D01*
X108833500Y-59664000D02*
X108833500Y-63526000D01*
X108793500Y-59540000D02*
X108793500Y-63650000D01*
X108753500Y-59424000D02*
X108753500Y-63766000D01*
X108713500Y-59314000D02*
X108713500Y-63876000D01*
X108673500Y-59210000D02*
X108673500Y-63980000D01*
X108633500Y-59111000D02*
X108633500Y-64079000D01*
X108593500Y-59016000D02*
X108593500Y-64174000D01*
X108553500Y-58925000D02*
X108553500Y-64265000D01*
X108513500Y-58837000D02*
X108513500Y-64353000D01*
X108473500Y-58753000D02*
X108473500Y-64437000D01*
X108433500Y-58672000D02*
X108433500Y-64518000D01*
X108393500Y-58593000D02*
X108393500Y-64597000D01*
X108353500Y-58517000D02*
X108353500Y-64673000D01*
X108313500Y-58443000D02*
X108313500Y-64747000D01*
X108273500Y-58372000D02*
X108273500Y-64818000D01*
X108233500Y-58302000D02*
X108233500Y-64888000D01*
X108193500Y-58234000D02*
X108193500Y-64956000D01*
X108153500Y-58168000D02*
X108153500Y-65022000D01*
X108113500Y-58104000D02*
X108113500Y-65086000D01*
X108073500Y-58041000D02*
X108073500Y-65149000D01*
X108033500Y-57980000D02*
X108033500Y-65210000D01*
X107993500Y-57920000D02*
X107993500Y-65270000D01*
X107953500Y-57862000D02*
X107953500Y-65328000D01*
X107913500Y-57805000D02*
X107913500Y-65385000D01*
X107873500Y-57749000D02*
X107873500Y-65441000D01*
X107833500Y-57695000D02*
X107833500Y-65495000D01*
X107793500Y-57641000D02*
X107793500Y-65549000D01*
X107753500Y-57589000D02*
X107753500Y-65601000D01*
X107713500Y-57538000D02*
X107713500Y-65652000D01*
X107673500Y-57487000D02*
X107673500Y-65703000D01*
X107633500Y-57438000D02*
X107633500Y-65752000D01*
X107593500Y-57390000D02*
X107593500Y-65800000D01*
X107553500Y-57342000D02*
X107553500Y-65848000D01*
X107513500Y-57296000D02*
X107513500Y-65894000D01*
X107473500Y-57250000D02*
X107473500Y-65940000D01*
X107433500Y-57205000D02*
X107433500Y-65985000D01*
X107393500Y-57161000D02*
X107393500Y-66029000D01*
X107353500Y-57118000D02*
X107353500Y-66072000D01*
X107313500Y-57076000D02*
X107313500Y-66114000D01*
X107273500Y-57034000D02*
X107273500Y-66156000D01*
X107233500Y-56993000D02*
X107233500Y-66197000D01*
X107193500Y-56952000D02*
X107193500Y-66238000D01*
X107153500Y-56913000D02*
X107153500Y-66277000D01*
X107113500Y-56874000D02*
X107113500Y-66316000D01*
X107073500Y-56835000D02*
X107073500Y-66355000D01*
X107033500Y-56798000D02*
X107033500Y-66392000D01*
X106993500Y-56761000D02*
X106993500Y-66429000D01*
X106953500Y-56724000D02*
X106953500Y-66466000D01*
X106913500Y-56688000D02*
X106913500Y-66502000D01*
X106873500Y-56653000D02*
X106873500Y-66537000D01*
X106833500Y-56618000D02*
X106833500Y-66572000D01*
X106793500Y-56584000D02*
X106793500Y-66606000D01*
X106753500Y-56551000D02*
X106753500Y-66639000D01*
X106713500Y-56517000D02*
X106713500Y-66673000D01*
X106673500Y-56485000D02*
X106673500Y-66705000D01*
X106633500Y-56453000D02*
X106633500Y-66737000D01*
X106593500Y-56421000D02*
X106593500Y-66769000D01*
X106553500Y-56390000D02*
X106553500Y-66800000D01*
X106513500Y-56360000D02*
X106513500Y-66830000D01*
X106473500Y-56330000D02*
X106473500Y-66860000D01*
X106433500Y-63035000D02*
X106433500Y-66890000D01*
X106433500Y-56300000D02*
X106433500Y-60155000D01*
X106393500Y-63035000D02*
X106393500Y-66919000D01*
X106393500Y-56271000D02*
X106393500Y-60155000D01*
X106353500Y-63035000D02*
X106353500Y-66948000D01*
X106353500Y-56242000D02*
X106353500Y-60155000D01*
X106313500Y-63035000D02*
X106313500Y-66976000D01*
X106313500Y-56214000D02*
X106313500Y-60155000D01*
X106273500Y-63035000D02*
X106273500Y-67004000D01*
X106273500Y-56186000D02*
X106273500Y-60155000D01*
X106233500Y-63035000D02*
X106233500Y-67031000D01*
X106233500Y-56159000D02*
X106233500Y-60155000D01*
X106193500Y-63035000D02*
X106193500Y-67058000D01*
X106193500Y-56132000D02*
X106193500Y-60155000D01*
X106153500Y-63035000D02*
X106153500Y-67085000D01*
X106153500Y-56105000D02*
X106153500Y-60155000D01*
X106113500Y-63035000D02*
X106113500Y-67111000D01*
X106113500Y-56079000D02*
X106113500Y-60155000D01*
X106073500Y-63035000D02*
X106073500Y-67137000D01*
X106073500Y-56053000D02*
X106073500Y-60155000D01*
X106033500Y-63035000D02*
X106033500Y-67162000D01*
X106033500Y-56028000D02*
X106033500Y-60155000D01*
X105993500Y-63035000D02*
X105993500Y-67187000D01*
X105993500Y-56003000D02*
X105993500Y-60155000D01*
X105953500Y-63035000D02*
X105953500Y-67212000D01*
X105953500Y-55978000D02*
X105953500Y-60155000D01*
X105913500Y-63035000D02*
X105913500Y-67236000D01*
X105913500Y-55954000D02*
X105913500Y-60155000D01*
X105873500Y-63035000D02*
X105873500Y-67259000D01*
X105873500Y-55931000D02*
X105873500Y-60155000D01*
X105833500Y-63035000D02*
X105833500Y-67283000D01*
X105833500Y-55907000D02*
X105833500Y-60155000D01*
X105793500Y-63035000D02*
X105793500Y-67306000D01*
X105793500Y-55884000D02*
X105793500Y-60155000D01*
X105753500Y-63035000D02*
X105753500Y-67328000D01*
X105753500Y-55862000D02*
X105753500Y-60155000D01*
X105713500Y-63035000D02*
X105713500Y-67351000D01*
X105713500Y-55839000D02*
X105713500Y-60155000D01*
X105673500Y-63035000D02*
X105673500Y-67373000D01*
X105673500Y-55817000D02*
X105673500Y-60155000D01*
X105633500Y-63035000D02*
X105633500Y-67394000D01*
X105633500Y-55796000D02*
X105633500Y-60155000D01*
X105593500Y-63035000D02*
X105593500Y-67415000D01*
X105593500Y-55775000D02*
X105593500Y-60155000D01*
X105553500Y-63035000D02*
X105553500Y-67436000D01*
X105553500Y-55754000D02*
X105553500Y-60155000D01*
X105513500Y-63035000D02*
X105513500Y-67457000D01*
X105513500Y-55733000D02*
X105513500Y-60155000D01*
X105473500Y-63035000D02*
X105473500Y-67477000D01*
X105473500Y-55713000D02*
X105473500Y-60155000D01*
X105433500Y-63035000D02*
X105433500Y-67497000D01*
X105433500Y-55693000D02*
X105433500Y-60155000D01*
X105393500Y-63035000D02*
X105393500Y-67516000D01*
X105393500Y-55674000D02*
X105393500Y-60155000D01*
X105353500Y-63035000D02*
X105353500Y-67535000D01*
X105353500Y-55655000D02*
X105353500Y-60155000D01*
X105313500Y-63035000D02*
X105313500Y-67554000D01*
X105313500Y-55636000D02*
X105313500Y-60155000D01*
X105273500Y-63035000D02*
X105273500Y-67573000D01*
X105273500Y-55617000D02*
X105273500Y-60155000D01*
X105233500Y-63035000D02*
X105233500Y-67591000D01*
X105233500Y-55599000D02*
X105233500Y-60155000D01*
X105193500Y-63035000D02*
X105193500Y-67609000D01*
X105193500Y-55581000D02*
X105193500Y-60155000D01*
X105153500Y-63035000D02*
X105153500Y-67626000D01*
X105153500Y-55564000D02*
X105153500Y-60155000D01*
X105113500Y-63035000D02*
X105113500Y-67644000D01*
X105113500Y-55546000D02*
X105113500Y-60155000D01*
X105073500Y-63035000D02*
X105073500Y-67660000D01*
X105073500Y-55530000D02*
X105073500Y-60155000D01*
X105033500Y-63035000D02*
X105033500Y-67677000D01*
X105033500Y-55513000D02*
X105033500Y-60155000D01*
X104993500Y-63035000D02*
X104993500Y-67693000D01*
X104993500Y-55497000D02*
X104993500Y-60155000D01*
X104953500Y-63035000D02*
X104953500Y-67709000D01*
X104953500Y-55481000D02*
X104953500Y-60155000D01*
X104913500Y-63035000D02*
X104913500Y-67725000D01*
X104913500Y-55465000D02*
X104913500Y-60155000D01*
X104873500Y-63035000D02*
X104873500Y-67741000D01*
X104873500Y-55449000D02*
X104873500Y-60155000D01*
X104833500Y-63035000D02*
X104833500Y-67756000D01*
X104833500Y-55434000D02*
X104833500Y-60155000D01*
X104793500Y-63035000D02*
X104793500Y-67770000D01*
X104793500Y-55420000D02*
X104793500Y-60155000D01*
X104753500Y-63035000D02*
X104753500Y-67785000D01*
X104753500Y-55405000D02*
X104753500Y-60155000D01*
X104713500Y-63035000D02*
X104713500Y-67799000D01*
X104713500Y-55391000D02*
X104713500Y-60155000D01*
X104673500Y-63035000D02*
X104673500Y-67813000D01*
X104673500Y-55377000D02*
X104673500Y-60155000D01*
X104633500Y-63035000D02*
X104633500Y-67827000D01*
X104633500Y-55363000D02*
X104633500Y-60155000D01*
X104593500Y-63035000D02*
X104593500Y-67840000D01*
X104593500Y-55350000D02*
X104593500Y-60155000D01*
X104553500Y-63035000D02*
X104553500Y-67853000D01*
X104553500Y-55337000D02*
X104553500Y-60155000D01*
X104513500Y-63035000D02*
X104513500Y-67866000D01*
X104513500Y-55324000D02*
X104513500Y-60155000D01*
X104473500Y-63035000D02*
X104473500Y-67879000D01*
X104473500Y-55311000D02*
X104473500Y-60155000D01*
X104433500Y-63035000D02*
X104433500Y-67891000D01*
X104433500Y-55299000D02*
X104433500Y-60155000D01*
X104393500Y-63035000D02*
X104393500Y-67903000D01*
X104393500Y-55287000D02*
X104393500Y-60155000D01*
X104353500Y-63035000D02*
X104353500Y-67915000D01*
X104353500Y-55275000D02*
X104353500Y-60155000D01*
X104313500Y-63035000D02*
X104313500Y-67926000D01*
X104313500Y-55264000D02*
X104313500Y-60155000D01*
X104273500Y-63035000D02*
X104273500Y-67937000D01*
X104273500Y-55253000D02*
X104273500Y-60155000D01*
X104233500Y-63035000D02*
X104233500Y-67948000D01*
X104233500Y-55242000D02*
X104233500Y-60155000D01*
X104193500Y-63035000D02*
X104193500Y-67959000D01*
X104193500Y-55231000D02*
X104193500Y-60155000D01*
X104153500Y-63035000D02*
X104153500Y-67969000D01*
X104153500Y-55221000D02*
X104153500Y-60155000D01*
X104113500Y-63035000D02*
X104113500Y-67979000D01*
X104113500Y-55211000D02*
X104113500Y-60155000D01*
X104073500Y-63035000D02*
X104073500Y-67989000D01*
X104073500Y-55201000D02*
X104073500Y-60155000D01*
X104033500Y-63035000D02*
X104033500Y-67999000D01*
X104033500Y-55191000D02*
X104033500Y-60155000D01*
X103993500Y-63035000D02*
X103993500Y-68008000D01*
X103993500Y-55182000D02*
X103993500Y-60155000D01*
X103953500Y-63035000D02*
X103953500Y-68017000D01*
X103953500Y-55173000D02*
X103953500Y-60155000D01*
X103913500Y-63035000D02*
X103913500Y-68026000D01*
X103913500Y-55164000D02*
X103913500Y-60155000D01*
X103873500Y-63035000D02*
X103873500Y-68034000D01*
X103873500Y-55156000D02*
X103873500Y-60155000D01*
X103833500Y-63035000D02*
X103833500Y-68043000D01*
X103833500Y-55147000D02*
X103833500Y-60155000D01*
X103793500Y-63035000D02*
X103793500Y-68051000D01*
X103793500Y-55139000D02*
X103793500Y-60155000D01*
X103753500Y-63035000D02*
X103753500Y-68058000D01*
X103753500Y-55132000D02*
X103753500Y-60155000D01*
X103713500Y-63035000D02*
X103713500Y-68066000D01*
X103713500Y-55124000D02*
X103713500Y-60155000D01*
X103673500Y-63035000D02*
X103673500Y-68073000D01*
X103673500Y-55117000D02*
X103673500Y-60155000D01*
X103633500Y-63035000D02*
X103633500Y-68080000D01*
X103633500Y-55110000D02*
X103633500Y-60155000D01*
X103593500Y-63035000D02*
X103593500Y-68087000D01*
X103593500Y-55103000D02*
X103593500Y-60155000D01*
X103553500Y-55097000D02*
X103553500Y-68093000D01*
X103513500Y-55090000D02*
X103513500Y-68100000D01*
X103473500Y-55084000D02*
X103473500Y-68106000D01*
X103433500Y-55079000D02*
X103433500Y-68111000D01*
X103393500Y-55073000D02*
X103393500Y-68117000D01*
X103353500Y-55068000D02*
X103353500Y-68122000D01*
X103313500Y-55063000D02*
X103313500Y-68127000D01*
X103273500Y-55058000D02*
X103273500Y-68132000D01*
X103233500Y-55054000D02*
X103233500Y-68136000D01*
X103192500Y-55050000D02*
X103192500Y-68140000D01*
X103152500Y-55046000D02*
X103152500Y-68144000D01*
X103112500Y-55042000D02*
X103112500Y-68148000D01*
X103072500Y-55038000D02*
X103072500Y-68152000D01*
X103032500Y-55035000D02*
X103032500Y-68155000D01*
X102992500Y-55032000D02*
X102992500Y-68158000D01*
X102952500Y-55029000D02*
X102952500Y-68161000D01*
X102912500Y-55027000D02*
X102912500Y-68163000D01*
X102872500Y-55024000D02*
X102872500Y-68166000D01*
X102832500Y-55022000D02*
X102832500Y-68168000D01*
X102792500Y-55020000D02*
X102792500Y-68170000D01*
X102752500Y-55019000D02*
X102752500Y-68171000D01*
X102712500Y-55018000D02*
X102712500Y-68172000D01*
X102672500Y-55016000D02*
X102672500Y-68174000D01*
X102632500Y-55016000D02*
X102632500Y-68174000D01*
X102592500Y-55015000D02*
X102592500Y-68175000D01*
X102552500Y-55015000D02*
X102552500Y-68175000D01*
X102512500Y-55015000D02*
X102512500Y-68175000D01*
X109132500Y-61595000D02*
G75*
G03*
X109132500Y-61595000I-6620000J0D01*
G01*
X99317500Y-86042500D02*
X99317500Y-84712500D01*
X99317500Y-84712500D02*
X100647500Y-84712500D01*
X101917500Y-84712500D02*
X119757500Y-84712500D01*
X119757500Y-87372500D02*
X119757500Y-84712500D01*
X101917500Y-87372500D02*
X119757500Y-87372500D01*
X101917500Y-87372500D02*
X101917500Y-84712500D01*
X101917500Y-72132500D02*
X101917500Y-69472500D01*
X101917500Y-72132500D02*
X119757500Y-72132500D01*
X119757500Y-72132500D02*
X119757500Y-69472500D01*
X101917500Y-69472500D02*
X119757500Y-69472500D01*
X99317500Y-69472500D02*
X100647500Y-69472500D01*
X99317500Y-70802500D02*
X99317500Y-69472500D01*
X109545000Y-59480000D02*
X109545000Y-60730000D01*
X110795000Y-59480000D02*
X109545000Y-59480000D01*
X121695000Y-64980000D02*
X116145000Y-64980000D01*
X121695000Y-62030000D02*
X121695000Y-64980000D01*
X122445000Y-62030000D02*
X121695000Y-62030000D01*
X110595000Y-64980000D02*
X116145000Y-64980000D01*
X110595000Y-62030000D02*
X110595000Y-64980000D01*
X109845000Y-62030000D02*
X110595000Y-62030000D01*
X122445000Y-59780000D02*
X120645000Y-59780000D01*
X122445000Y-60530000D02*
X122445000Y-59780000D01*
X120645000Y-60530000D02*
X122445000Y-60530000D01*
X120645000Y-59780000D02*
X120645000Y-60530000D01*
X111645000Y-59780000D02*
X109845000Y-59780000D01*
X111645000Y-60530000D02*
X111645000Y-59780000D01*
X109845000Y-60530000D02*
X111645000Y-60530000D01*
X109845000Y-59780000D02*
X109845000Y-60530000D01*
X119145000Y-59780000D02*
X113145000Y-59780000D01*
X119145000Y-60530000D02*
X119145000Y-59780000D01*
X113145000Y-60530000D02*
X119145000Y-60530000D01*
X113145000Y-59780000D02*
X113145000Y-60530000D01*
X122455000Y-59770000D02*
X109835000Y-59770000D01*
X122455000Y-65740000D02*
X122455000Y-59770000D01*
X109835000Y-65740000D02*
X122455000Y-65740000D01*
X109835000Y-59770000D02*
X109835000Y-65740000D01*
X103822500Y-77745833D02*
X102552500Y-77745833D01*
X102622500Y-76392500D02*
X102622500Y-77745833D01*
X102742500Y-76392500D02*
X102742500Y-77745833D01*
X102862500Y-76392500D02*
X102862500Y-77745833D01*
X102982500Y-76392500D02*
X102982500Y-77745833D01*
X103102500Y-76392500D02*
X103102500Y-77745833D01*
X103222500Y-76392500D02*
X103222500Y-77745833D01*
X103342500Y-76392500D02*
X103342500Y-77745833D01*
X103462500Y-76392500D02*
X103462500Y-77745833D01*
X103582500Y-76392500D02*
X103582500Y-77745833D01*
X103702500Y-76392500D02*
X103702500Y-77745833D01*
X103822500Y-80452500D02*
X103822500Y-76392500D01*
X102552500Y-80452500D02*
X103822500Y-80452500D01*
X102552500Y-76392500D02*
X102552500Y-80452500D01*
X103822500Y-76392500D02*
X102552500Y-76392500D01*
X106362500Y-77745833D02*
X105092500Y-77745833D01*
X105162500Y-76392500D02*
X105162500Y-77745833D01*
X105282500Y-76392500D02*
X105282500Y-77745833D01*
X105402500Y-76392500D02*
X105402500Y-77745833D01*
X105522500Y-76392500D02*
X105522500Y-77745833D01*
X105642500Y-76392500D02*
X105642500Y-77745833D01*
X105762500Y-76392500D02*
X105762500Y-77745833D01*
X105882500Y-76392500D02*
X105882500Y-77745833D01*
X106002500Y-76392500D02*
X106002500Y-77745833D01*
X106122500Y-76392500D02*
X106122500Y-77745833D01*
X106242500Y-76392500D02*
X106242500Y-77745833D01*
X106362500Y-80452500D02*
X106362500Y-76392500D01*
X105092500Y-80452500D02*
X106362500Y-80452500D01*
X105092500Y-76392500D02*
X105092500Y-80452500D01*
X106362500Y-76392500D02*
X105092500Y-76392500D01*
X108902500Y-77745833D02*
X107632500Y-77745833D01*
X107702500Y-76392500D02*
X107702500Y-77745833D01*
X107822500Y-76392500D02*
X107822500Y-77745833D01*
X107942500Y-76392500D02*
X107942500Y-77745833D01*
X108062500Y-76392500D02*
X108062500Y-77745833D01*
X108182500Y-76392500D02*
X108182500Y-77745833D01*
X108302500Y-76392500D02*
X108302500Y-77745833D01*
X108422500Y-76392500D02*
X108422500Y-77745833D01*
X108542500Y-76392500D02*
X108542500Y-77745833D01*
X108662500Y-76392500D02*
X108662500Y-77745833D01*
X108782500Y-76392500D02*
X108782500Y-77745833D01*
X108902500Y-80452500D02*
X108902500Y-76392500D01*
X107632500Y-80452500D02*
X108902500Y-80452500D01*
X107632500Y-76392500D02*
X107632500Y-80452500D01*
X108902500Y-76392500D02*
X107632500Y-76392500D01*
X110927500Y-73232500D02*
X109544500Y-73232500D01*
X110927500Y-73232500D02*
X110927500Y-74616500D01*
X110687500Y-83372500D02*
X100767500Y-83372500D01*
X110687500Y-73472500D02*
X100767500Y-73472500D01*
X100767500Y-73472500D02*
X100767500Y-83372500D01*
X110687500Y-73472500D02*
X110687500Y-83372500D01*
X119380000Y-50800000D02*
X109220000Y-50800000D01*
X119380000Y-58420000D02*
X119380000Y-50800000D01*
X109220000Y-58420000D02*
X119380000Y-58420000D01*
X109220000Y-50800000D02*
X109220000Y-58420000D01*
X109220000Y-52070000D02*
X119380000Y-52070000D01*
D10*
X89519166Y-57237380D02*
X89519166Y-57951666D01*
X89471547Y-58094523D01*
X89376309Y-58189761D01*
X89233452Y-58237380D01*
X89138214Y-58237380D01*
X90519166Y-58237380D02*
X89947738Y-58237380D01*
X90233452Y-58237380D02*
X90233452Y-57237380D01*
X90138214Y-57380238D01*
X90042976Y-57475476D01*
X89947738Y-57523095D01*
X128254166Y-57237380D02*
X128254166Y-57951666D01*
X128206547Y-58094523D01*
X128111309Y-58189761D01*
X127968452Y-58237380D01*
X127873214Y-58237380D01*
X128682738Y-57332619D02*
X128730357Y-57285000D01*
X128825595Y-57237380D01*
X129063690Y-57237380D01*
X129158928Y-57285000D01*
X129206547Y-57332619D01*
X129254166Y-57427857D01*
X129254166Y-57523095D01*
X129206547Y-57665952D01*
X128635119Y-58237380D01*
X129254166Y-58237380D01*
X100163333Y-58142142D02*
X100115714Y-58189761D01*
X99972857Y-58237380D01*
X99877619Y-58237380D01*
X99734761Y-58189761D01*
X99639523Y-58094523D01*
X99591904Y-57999285D01*
X99544285Y-57808809D01*
X99544285Y-57665952D01*
X99591904Y-57475476D01*
X99639523Y-57380238D01*
X99734761Y-57285000D01*
X99877619Y-57237380D01*
X99972857Y-57237380D01*
X100115714Y-57285000D01*
X100163333Y-57332619D01*
X101115714Y-58237380D02*
X100544285Y-58237380D01*
X100830000Y-58237380D02*
X100830000Y-57237380D01*
X100734761Y-57380238D01*
X100639523Y-57475476D01*
X100544285Y-57523095D01*
X97329880Y-86375833D02*
X98044166Y-86375833D01*
X98187023Y-86423452D01*
X98282261Y-86518690D01*
X98329880Y-86661547D01*
X98329880Y-86756785D01*
X97329880Y-85994880D02*
X97329880Y-85375833D01*
X97710833Y-85709166D01*
X97710833Y-85566309D01*
X97758452Y-85471071D01*
X97806071Y-85423452D01*
X97901309Y-85375833D01*
X98139404Y-85375833D01*
X98234642Y-85423452D01*
X98282261Y-85471071D01*
X98329880Y-85566309D01*
X98329880Y-85852023D01*
X98282261Y-85947261D01*
X98234642Y-85994880D01*
X97329880Y-71135833D02*
X98044166Y-71135833D01*
X98187023Y-71183452D01*
X98282261Y-71278690D01*
X98329880Y-71421547D01*
X98329880Y-71516785D01*
X97663214Y-70231071D02*
X98329880Y-70231071D01*
X97282261Y-70469166D02*
X97996547Y-70707261D01*
X97996547Y-70088214D01*
X122221666Y-57872380D02*
X122221666Y-58586666D01*
X122174047Y-58729523D01*
X122078809Y-58824761D01*
X121935952Y-58872380D01*
X121840714Y-58872380D01*
X123174047Y-57872380D02*
X122697857Y-57872380D01*
X122650238Y-58348571D01*
X122697857Y-58300952D01*
X122793095Y-58253333D01*
X123031190Y-58253333D01*
X123126428Y-58300952D01*
X123174047Y-58348571D01*
X123221666Y-58443809D01*
X123221666Y-58681904D01*
X123174047Y-58777142D01*
X123126428Y-58824761D01*
X123031190Y-58872380D01*
X122793095Y-58872380D01*
X122697857Y-58824761D01*
X122650238Y-58777142D01*
X100099761Y-81343333D02*
X100147380Y-81200476D01*
X100147380Y-80962380D01*
X100099761Y-80867142D01*
X100052142Y-80819523D01*
X99956904Y-80771904D01*
X99861666Y-80771904D01*
X99766428Y-80819523D01*
X99718809Y-80867142D01*
X99671190Y-80962380D01*
X99623571Y-81152857D01*
X99575952Y-81248095D01*
X99528333Y-81295714D01*
X99433095Y-81343333D01*
X99337857Y-81343333D01*
X99242619Y-81295714D01*
X99195000Y-81248095D01*
X99147380Y-81152857D01*
X99147380Y-80914761D01*
X99195000Y-80771904D01*
X99147380Y-80438571D02*
X100147380Y-80200476D01*
X99433095Y-80010000D01*
X100147380Y-79819523D01*
X99147380Y-79581428D01*
X100147380Y-78676666D02*
X100147380Y-79248095D01*
X100147380Y-78962380D02*
X99147380Y-78962380D01*
X99290238Y-79057619D01*
X99385476Y-79152857D01*
X99433095Y-79248095D01*
X120316666Y-55967380D02*
X120316666Y-56681666D01*
X120269047Y-56824523D01*
X120173809Y-56919761D01*
X120030952Y-56967380D01*
X119935714Y-56967380D01*
X121221428Y-55967380D02*
X121030952Y-55967380D01*
X120935714Y-56015000D01*
X120888095Y-56062619D01*
X120792857Y-56205476D01*
X120745238Y-56395952D01*
X120745238Y-56776904D01*
X120792857Y-56872142D01*
X120840476Y-56919761D01*
X120935714Y-56967380D01*
X121126190Y-56967380D01*
X121221428Y-56919761D01*
X121269047Y-56872142D01*
X121316666Y-56776904D01*
X121316666Y-56538809D01*
X121269047Y-56443571D01*
X121221428Y-56395952D01*
X121126190Y-56348333D01*
X120935714Y-56348333D01*
X120840476Y-56395952D01*
X120792857Y-56443571D01*
X120745238Y-56538809D01*
M02*
