M48
INCH,TZ
T1C0.0157
T2C0.0354
T3C0.0394
T4C0.1260
%
G90
G05
T1
X18000Y-16375
X18000Y-19125
X19000Y-15625
X19000Y-19500
X20000Y-15250
X20000Y-19875
X21000Y-14875
X21000Y-20250
X22000Y-14500
X22000Y-20625
X23000Y-14125
X23000Y-21000
X24000Y-13750
X24000Y-21375
X25000Y-13375
X25000Y-21750
X26000Y-13000
X26000Y-22125
X27000Y-12500
X27000Y-22500
X34500Y-16375
X34500Y-19125
X35500Y-15625
X35500Y-19500
X36500Y-15250
X36500Y-19875
X37500Y-14875
X37500Y-20250
X38500Y-14500
X38500Y-20625
X39500Y-14125
X39500Y-21000
X40500Y-13750
X40500Y-21375
X41500Y-13375
X41500Y-21750
X42500Y-13000
X42500Y-22125
X43500Y-12500
X43500Y-22500
T2
X51000Y-16375
X51000Y-18875
X52000Y-15813
X52000Y-19250
X53000Y-15438
X53000Y-19625
X54000Y-15062
X54000Y-20000
X55000Y-14688
X55000Y-20375
X56000Y-14313
X56000Y-20750
X57000Y-13938
X57000Y-21125
X58000Y-13563
X58000Y-21500
X59000Y-13187
X59000Y-21875
X60000Y-12500
X60000Y-22500
X60250Y-14500
X67000Y-12500
T3
X51000Y-24000
X52000Y-24000
X53000Y-24000
X54000Y-24000
X55000Y-24000
X56000Y-24000
X57000Y-24000
X58000Y-24000
X59000Y-24000
X60000Y-24000
X18000Y-11000
X19000Y-11000
X20000Y-11000
X21000Y-11000
X22000Y-11000
X23000Y-11000
X24000Y-11000
X25000Y-11000
X26000Y-11000
X27000Y-11000
X64000Y-10250
X65000Y-10250
X66000Y-10250
X67000Y-10250
X35500Y-10000
X36500Y-10000
X37500Y-10000
X38500Y-10000
X39500Y-10000
X40500Y-10000
X66000Y-13500
X66000Y-14500
X66000Y-15500
X66000Y-16500
X66000Y-17500
X66000Y-18500
X66000Y-19500
X66000Y-20500
X66000Y-21500
X66000Y-22500
X66000Y-23500
X66000Y-24500
X34500Y-11000
X35500Y-11000
X36500Y-11000
X37500Y-11000
X38500Y-11000
X39500Y-11000
X40500Y-11000
X41500Y-11000
X42500Y-11000
X43500Y-11000
X16000Y-13750
X16000Y-14750
X51000Y-11000
X52000Y-11000
X53000Y-11000
X54000Y-11000
X55000Y-11000
X56000Y-11000
X57000Y-11000
X58000Y-11000
X59000Y-11000
X60000Y-11000
X64000Y-11500
X65000Y-11500
X66000Y-11500
X67000Y-11500
X18000Y-24000
X19000Y-24000
X20000Y-24000
X21000Y-24000
X22000Y-24000
X23000Y-24000
X24000Y-24000
X25000Y-24000
X26000Y-24000
X27000Y-24000
X65000Y-13500
X65000Y-14500
X65000Y-15500
X65000Y-16500
X65000Y-17500
X65000Y-18500
X65000Y-19500
X65000Y-20500
X65000Y-21500
X65000Y-22500
X65000Y-23500
X65000Y-24500
X67000Y-13500
X67000Y-14500
X67000Y-15500
X67000Y-16500
X67000Y-17500
X67000Y-18500
X67000Y-19500
X67000Y-20500
X67000Y-21500
X67000Y-22500
X67000Y-23500
X67000Y-24500
X34500Y-24000
X35500Y-24000
X36500Y-24000
X37500Y-24000
X38500Y-24000
X39500Y-24000
X40500Y-24000
X41500Y-24000
X42500Y-24000
X43500Y-24000
T4
X29000Y-11000
X62000Y-11000
X62000Y-24000
X32500Y-11000
X29000Y-24000
X16000Y-24000
X49000Y-11000
X45500Y-24000
X49000Y-24000
X45500Y-11000
X16000Y-11000
X32500Y-24000
T0
M30
