G04 #@! TF.GenerationSoftware,KiCad,Pcbnew,(5.1.8)-1*
G04 #@! TF.CreationDate,2020-11-11T23:30:57+03:00*
G04 #@! TF.ProjectId,h3xSv2,68337853-7632-42e6-9b69-6361645f7063,rev?*
G04 #@! TF.SameCoordinates,Original*
G04 #@! TF.FileFunction,Soldermask,Bot*
G04 #@! TF.FilePolarity,Negative*
%FSLAX46Y46*%
G04 Gerber Fmt 4.6, Leading zero omitted, Abs format (unit mm)*
G04 Created by KiCad (PCBNEW (5.1.8)-1) date 2020-11-11 23:30:57*
%MOMM*%
%LPD*%
G01*
G04 APERTURE LIST*
%ADD10C,3.302000*%
%ADD11O,2.302000X2.302000*%
%ADD12O,2.102000X2.102000*%
%ADD13O,1.802000X1.802000*%
G04 APERTURE END LIST*
D10*
X82550000Y-60960000D03*
X115570000Y-60960000D03*
X82550000Y-27940000D03*
X115570000Y-27940000D03*
G36*
G01*
X109390000Y-26789000D02*
X111590000Y-26789000D01*
G75*
G02*
X111641000Y-26840000I0J-51000D01*
G01*
X111641000Y-29040000D01*
G75*
G02*
X111590000Y-29091000I-51000J0D01*
G01*
X109390000Y-29091000D01*
G75*
G02*
X109339000Y-29040000I0J51000D01*
G01*
X109339000Y-26840000D01*
G75*
G02*
X109390000Y-26789000I51000J0D01*
G01*
G37*
D11*
X107950000Y-27940000D03*
X105410000Y-27940000D03*
X102870000Y-27940000D03*
X100330000Y-27940000D03*
X97790000Y-27940000D03*
X95250000Y-27940000D03*
X92710000Y-27940000D03*
X90170000Y-27940000D03*
X87630000Y-27940000D03*
X87630000Y-60960000D03*
X90170000Y-60960000D03*
X92710000Y-60960000D03*
X95250000Y-60960000D03*
X97790000Y-60960000D03*
X100330000Y-60960000D03*
X102870000Y-60960000D03*
X105410000Y-60960000D03*
X107950000Y-60960000D03*
G36*
G01*
X109390000Y-59809000D02*
X111590000Y-59809000D01*
G75*
G02*
X111641000Y-59860000I0J-51000D01*
G01*
X111641000Y-62060000D01*
G75*
G02*
X111590000Y-62111000I-51000J0D01*
G01*
X109390000Y-62111000D01*
G75*
G02*
X109339000Y-62060000I0J51000D01*
G01*
X109339000Y-59860000D01*
G75*
G02*
X109390000Y-59809000I51000J0D01*
G01*
G37*
G36*
G01*
X151300000Y-26789000D02*
X153500000Y-26789000D01*
G75*
G02*
X153551000Y-26840000I0J-51000D01*
G01*
X153551000Y-29040000D01*
G75*
G02*
X153500000Y-29091000I-51000J0D01*
G01*
X151300000Y-29091000D01*
G75*
G02*
X151249000Y-29040000I0J51000D01*
G01*
X151249000Y-26840000D01*
G75*
G02*
X151300000Y-26789000I51000J0D01*
G01*
G37*
X149860000Y-27940000D03*
X147320000Y-27940000D03*
X144780000Y-27940000D03*
X142240000Y-27940000D03*
X139700000Y-27940000D03*
X137160000Y-27940000D03*
X134620000Y-27940000D03*
X132080000Y-27940000D03*
X129540000Y-27940000D03*
X129540000Y-60960000D03*
X132080000Y-60960000D03*
X134620000Y-60960000D03*
X137160000Y-60960000D03*
X139700000Y-60960000D03*
X142240000Y-60960000D03*
X144780000Y-60960000D03*
X147320000Y-60960000D03*
X149860000Y-60960000D03*
G36*
G01*
X151300000Y-59809000D02*
X153500000Y-59809000D01*
G75*
G02*
X153551000Y-59860000I0J-51000D01*
G01*
X153551000Y-62060000D01*
G75*
G02*
X153500000Y-62111000I-51000J0D01*
G01*
X151300000Y-62111000D01*
G75*
G02*
X151249000Y-62060000I0J51000D01*
G01*
X151249000Y-59860000D01*
G75*
G02*
X151300000Y-59809000I51000J0D01*
G01*
G37*
D12*
X170180000Y-29210000D03*
X167640000Y-29210000D03*
X165100000Y-29210000D03*
G36*
G01*
X163560000Y-30261000D02*
X161560000Y-30261000D01*
G75*
G02*
X161509000Y-30210000I0J51000D01*
G01*
X161509000Y-28210000D01*
G75*
G02*
X161560000Y-28159000I51000J0D01*
G01*
X163560000Y-28159000D01*
G75*
G02*
X163611000Y-28210000I0J-51000D01*
G01*
X163611000Y-30210000D01*
G75*
G02*
X163560000Y-30261000I-51000J0D01*
G01*
G37*
G36*
G01*
X163560000Y-27086000D02*
X161560000Y-27086000D01*
G75*
G02*
X161509000Y-27035000I0J51000D01*
G01*
X161509000Y-25035000D01*
G75*
G02*
X161560000Y-24984000I51000J0D01*
G01*
X163560000Y-24984000D01*
G75*
G02*
X163611000Y-25035000I0J-51000D01*
G01*
X163611000Y-27035000D01*
G75*
G02*
X163560000Y-27086000I-51000J0D01*
G01*
G37*
X165100000Y-26035000D03*
X167640000Y-26035000D03*
X170180000Y-26035000D03*
G36*
G01*
X166151000Y-61230000D02*
X166151000Y-63230000D01*
G75*
G02*
X166100000Y-63281000I-51000J0D01*
G01*
X164100000Y-63281000D01*
G75*
G02*
X164049000Y-63230000I0J51000D01*
G01*
X164049000Y-61230000D01*
G75*
G02*
X164100000Y-61179000I51000J0D01*
G01*
X166100000Y-61179000D01*
G75*
G02*
X166151000Y-61230000I0J-51000D01*
G01*
G37*
X165100000Y-59690000D03*
X165100000Y-57150000D03*
X165100000Y-54610000D03*
X165100000Y-52070000D03*
X165100000Y-49530000D03*
X165100000Y-46990000D03*
X165100000Y-44450000D03*
X165100000Y-41910000D03*
X165100000Y-39370000D03*
X165100000Y-36830000D03*
X165100000Y-34290000D03*
G36*
G01*
X168691000Y-61230000D02*
X168691000Y-63230000D01*
G75*
G02*
X168640000Y-63281000I-51000J0D01*
G01*
X166640000Y-63281000D01*
G75*
G02*
X166589000Y-63230000I0J51000D01*
G01*
X166589000Y-61230000D01*
G75*
G02*
X166640000Y-61179000I51000J0D01*
G01*
X168640000Y-61179000D01*
G75*
G02*
X168691000Y-61230000I0J-51000D01*
G01*
G37*
X167640000Y-59690000D03*
X167640000Y-57150000D03*
X167640000Y-54610000D03*
D13*
X167640000Y-52070000D03*
D12*
X167640000Y-49530000D03*
X167640000Y-46990000D03*
X167640000Y-44450000D03*
X167640000Y-41910000D03*
X167640000Y-39370000D03*
X167640000Y-36830000D03*
X167640000Y-34290000D03*
X170180000Y-34290000D03*
X170180000Y-36830000D03*
X170180000Y-39370000D03*
X170180000Y-41910000D03*
X170180000Y-44450000D03*
X170180000Y-46990000D03*
X170180000Y-49530000D03*
X170180000Y-52070000D03*
X170180000Y-54610000D03*
X170180000Y-57150000D03*
X170180000Y-59690000D03*
G36*
G01*
X171231000Y-61230000D02*
X171231000Y-63230000D01*
G75*
G02*
X171180000Y-63281000I-51000J0D01*
G01*
X169180000Y-63281000D01*
G75*
G02*
X169129000Y-63230000I0J51000D01*
G01*
X169129000Y-61230000D01*
G75*
G02*
X169180000Y-61179000I51000J0D01*
G01*
X171180000Y-61179000D01*
G75*
G02*
X171231000Y-61230000I0J-51000D01*
G01*
G37*
G36*
G01*
X41541000Y-36615000D02*
X41541000Y-38315000D01*
G75*
G02*
X41490000Y-38366000I-51000J0D01*
G01*
X39790000Y-38366000D01*
G75*
G02*
X39739000Y-38315000I0J51000D01*
G01*
X39739000Y-36615000D01*
G75*
G02*
X39790000Y-36564000I51000J0D01*
G01*
X41490000Y-36564000D01*
G75*
G02*
X41541000Y-36615000I0J-51000D01*
G01*
G37*
D13*
X40640000Y-34925000D03*
D10*
X157480000Y-27940000D03*
X124460000Y-27940000D03*
X157480000Y-60960000D03*
X124460000Y-60960000D03*
G36*
G01*
X91170000Y-26451000D02*
X89170000Y-26451000D01*
G75*
G02*
X89119000Y-26400000I0J51000D01*
G01*
X89119000Y-24400000D01*
G75*
G02*
X89170000Y-24349000I51000J0D01*
G01*
X91170000Y-24349000D01*
G75*
G02*
X91221000Y-24400000I0J-51000D01*
G01*
X91221000Y-26400000D01*
G75*
G02*
X91170000Y-26451000I-51000J0D01*
G01*
G37*
D12*
X92710000Y-25400000D03*
X95250000Y-25400000D03*
X97790000Y-25400000D03*
X100330000Y-25400000D03*
X102870000Y-25400000D03*
D10*
X40640000Y-27940000D03*
X73660000Y-60960000D03*
X73660000Y-27940000D03*
X40640000Y-60960000D03*
D13*
X45720000Y-27940000D03*
X48260000Y-27940000D03*
X50800000Y-27940000D03*
X53340000Y-27940000D03*
X55880000Y-27940000D03*
X58420000Y-27940000D03*
X60960000Y-27940000D03*
X63500000Y-27940000D03*
X66040000Y-27940000D03*
G36*
G01*
X67730000Y-27039000D02*
X69430000Y-27039000D01*
G75*
G02*
X69481000Y-27090000I0J-51000D01*
G01*
X69481000Y-28790000D01*
G75*
G02*
X69430000Y-28841000I-51000J0D01*
G01*
X67730000Y-28841000D01*
G75*
G02*
X67679000Y-28790000I0J51000D01*
G01*
X67679000Y-27090000D01*
G75*
G02*
X67730000Y-27039000I51000J0D01*
G01*
G37*
G36*
G01*
X67730000Y-60059000D02*
X69430000Y-60059000D01*
G75*
G02*
X69481000Y-60110000I0J-51000D01*
G01*
X69481000Y-61810000D01*
G75*
G02*
X69430000Y-61861000I-51000J0D01*
G01*
X67730000Y-61861000D01*
G75*
G02*
X67679000Y-61810000I0J51000D01*
G01*
X67679000Y-60110000D01*
G75*
G02*
X67730000Y-60059000I51000J0D01*
G01*
G37*
X66040000Y-60960000D03*
X63500000Y-60960000D03*
X60960000Y-60960000D03*
X58420000Y-60960000D03*
X55880000Y-60960000D03*
X53340000Y-60960000D03*
X50800000Y-60960000D03*
X48260000Y-60960000D03*
X45720000Y-60960000D03*
M02*
