G04 #@! TF.GenerationSoftware,KiCad,Pcbnew,(5.1.8)-1*
G04 #@! TF.CreationDate,2020-11-11T23:30:57+03:00*
G04 #@! TF.ProjectId,h3xSv2,68337853-7632-42e6-9b69-6361645f7063,rev?*
G04 #@! TF.SameCoordinates,Original*
G04 #@! TF.FileFunction,Legend,Top*
G04 #@! TF.FilePolarity,Positive*
%FSLAX46Y46*%
G04 Gerber Fmt 4.6, Leading zero omitted, Abs format (unit mm)*
G04 Created by KiCad (PCBNEW (5.1.8)-1) date 2020-11-11 23:30:57*
%MOMM*%
%LPD*%
G01*
G04 APERTURE LIST*
%ADD10C,0.150000*%
%ADD11C,0.120000*%
%ADD12C,0.100000*%
G04 APERTURE END LIST*
D10*
X162615595Y-64269880D02*
X162615595Y-63269880D01*
X162853690Y-63269880D01*
X162996547Y-63317500D01*
X163091785Y-63412738D01*
X163139404Y-63507976D01*
X163187023Y-63698452D01*
X163187023Y-63841309D01*
X163139404Y-64031785D01*
X163091785Y-64127023D01*
X162996547Y-64222261D01*
X162853690Y-64269880D01*
X162615595Y-64269880D01*
X165719285Y-64206428D02*
X166481190Y-64206428D01*
X166100238Y-64587380D02*
X166100238Y-63825476D01*
X167433571Y-63587380D02*
X166957380Y-63587380D01*
X166909761Y-64063571D01*
X166957380Y-64015952D01*
X167052619Y-63968333D01*
X167290714Y-63968333D01*
X167385952Y-64015952D01*
X167433571Y-64063571D01*
X167481190Y-64158809D01*
X167481190Y-64396904D01*
X167433571Y-64492142D01*
X167385952Y-64539761D01*
X167290714Y-64587380D01*
X167052619Y-64587380D01*
X166957380Y-64539761D01*
X166909761Y-64492142D01*
X167766904Y-63587380D02*
X168100238Y-64587380D01*
X168433571Y-63587380D01*
X171585000Y-58110357D02*
X171537380Y-58205595D01*
X171537380Y-58348452D01*
X171585000Y-58491309D01*
X171680238Y-58586547D01*
X171775476Y-58634166D01*
X171965952Y-58681785D01*
X172108809Y-58681785D01*
X172299285Y-58634166D01*
X172394523Y-58586547D01*
X172489761Y-58491309D01*
X172537380Y-58348452D01*
X172537380Y-58253214D01*
X172489761Y-58110357D01*
X172442142Y-58062738D01*
X172108809Y-58062738D01*
X172108809Y-58253214D01*
X171870714Y-57634166D02*
X172537380Y-57634166D01*
X171965952Y-57634166D02*
X171918333Y-57586547D01*
X171870714Y-57491309D01*
X171870714Y-57348452D01*
X171918333Y-57253214D01*
X172013571Y-57205595D01*
X172537380Y-57205595D01*
X172537380Y-56300833D02*
X171537380Y-56300833D01*
X172489761Y-56300833D02*
X172537380Y-56396071D01*
X172537380Y-56586547D01*
X172489761Y-56681785D01*
X172442142Y-56729404D01*
X172346904Y-56777023D01*
X172061190Y-56777023D01*
X171965952Y-56729404D01*
X171918333Y-56681785D01*
X171870714Y-56586547D01*
X171870714Y-56396071D01*
X171918333Y-56300833D01*
X65587619Y-25209523D02*
X65587619Y-24638095D01*
X65587619Y-24923809D02*
X66587619Y-24923809D01*
X66444761Y-24828571D01*
X66349523Y-24733333D01*
X66301904Y-24638095D01*
X66492380Y-25590476D02*
X66540000Y-25638095D01*
X66587619Y-25733333D01*
X66587619Y-25971428D01*
X66540000Y-26066666D01*
X66492380Y-26114285D01*
X66397142Y-26161904D01*
X66301904Y-26161904D01*
X66159047Y-26114285D01*
X65587619Y-25542857D01*
X65587619Y-26161904D01*
X63047619Y-25209523D02*
X63047619Y-24638095D01*
X63047619Y-24923809D02*
X64047619Y-24923809D01*
X63904761Y-24828571D01*
X63809523Y-24733333D01*
X63761904Y-24638095D01*
X64047619Y-25542857D02*
X64047619Y-26161904D01*
X63666666Y-25828571D01*
X63666666Y-25971428D01*
X63619047Y-26066666D01*
X63571428Y-26114285D01*
X63476190Y-26161904D01*
X63238095Y-26161904D01*
X63142857Y-26114285D01*
X63095238Y-26066666D01*
X63047619Y-25971428D01*
X63047619Y-25685714D01*
X63095238Y-25590476D01*
X63142857Y-25542857D01*
X69127619Y-24209523D02*
X68127619Y-24542857D01*
X69127619Y-24876190D01*
X68175238Y-25638095D02*
X68127619Y-25542857D01*
X68127619Y-25352380D01*
X68175238Y-25257142D01*
X68222857Y-25209523D01*
X68318095Y-25161904D01*
X68603809Y-25161904D01*
X68699047Y-25209523D01*
X68746666Y-25257142D01*
X68794285Y-25352380D01*
X68794285Y-25542857D01*
X68746666Y-25638095D01*
X68175238Y-26495238D02*
X68127619Y-26400000D01*
X68127619Y-26209523D01*
X68175238Y-26114285D01*
X68222857Y-26066666D01*
X68318095Y-26019047D01*
X68603809Y-26019047D01*
X68699047Y-26066666D01*
X68746666Y-26114285D01*
X68794285Y-26209523D01*
X68794285Y-26400000D01*
X68746666Y-26495238D01*
X60793333Y-24685714D02*
X60793333Y-25161904D01*
X60507619Y-24590476D02*
X61507619Y-24923809D01*
X60507619Y-25257142D01*
X61507619Y-25780952D02*
X61507619Y-25876190D01*
X61460000Y-25971428D01*
X61412380Y-26019047D01*
X61317142Y-26066666D01*
X61126666Y-26114285D01*
X60888571Y-26114285D01*
X60698095Y-26066666D01*
X60602857Y-26019047D01*
X60555238Y-25971428D01*
X60507619Y-25876190D01*
X60507619Y-25780952D01*
X60555238Y-25685714D01*
X60602857Y-25638095D01*
X60698095Y-25590476D01*
X60888571Y-25542857D01*
X61126666Y-25542857D01*
X61317142Y-25590476D01*
X61412380Y-25638095D01*
X61460000Y-25685714D01*
X61507619Y-25780952D01*
X58253333Y-24685714D02*
X58253333Y-25161904D01*
X57967619Y-24590476D02*
X58967619Y-24923809D01*
X57967619Y-25257142D01*
X57967619Y-26114285D02*
X57967619Y-25542857D01*
X57967619Y-25828571D02*
X58967619Y-25828571D01*
X58824761Y-25733333D01*
X58729523Y-25638095D01*
X58681904Y-25542857D01*
X55713333Y-24685714D02*
X55713333Y-25161904D01*
X55427619Y-24590476D02*
X56427619Y-24923809D01*
X55427619Y-25257142D01*
X56332380Y-25542857D02*
X56380000Y-25590476D01*
X56427619Y-25685714D01*
X56427619Y-25923809D01*
X56380000Y-26019047D01*
X56332380Y-26066666D01*
X56237142Y-26114285D01*
X56141904Y-26114285D01*
X55999047Y-26066666D01*
X55427619Y-25495238D01*
X55427619Y-26114285D01*
X53173333Y-24685714D02*
X53173333Y-25161904D01*
X52887619Y-24590476D02*
X53887619Y-24923809D01*
X52887619Y-25257142D01*
X53887619Y-25495238D02*
X53887619Y-26114285D01*
X53506666Y-25780952D01*
X53506666Y-25923809D01*
X53459047Y-26019047D01*
X53411428Y-26066666D01*
X53316190Y-26114285D01*
X53078095Y-26114285D01*
X52982857Y-26066666D01*
X52935238Y-26019047D01*
X52887619Y-25923809D01*
X52887619Y-25638095D01*
X52935238Y-25542857D01*
X52982857Y-25495238D01*
X50633333Y-24685714D02*
X50633333Y-25161904D01*
X50347619Y-24590476D02*
X51347619Y-24923809D01*
X50347619Y-25257142D01*
X51014285Y-26019047D02*
X50347619Y-26019047D01*
X51395238Y-25780952D02*
X50680952Y-25542857D01*
X50680952Y-26161904D01*
X48093333Y-24685714D02*
X48093333Y-25161904D01*
X47807619Y-24590476D02*
X48807619Y-24923809D01*
X47807619Y-25257142D01*
X48807619Y-26066666D02*
X48807619Y-25590476D01*
X48331428Y-25542857D01*
X48379047Y-25590476D01*
X48426666Y-25685714D01*
X48426666Y-25923809D01*
X48379047Y-26019047D01*
X48331428Y-26066666D01*
X48236190Y-26114285D01*
X47998095Y-26114285D01*
X47902857Y-26066666D01*
X47855238Y-26019047D01*
X47807619Y-25923809D01*
X47807619Y-25685714D01*
X47855238Y-25590476D01*
X47902857Y-25542857D01*
X46220000Y-24757142D02*
X46267619Y-24661904D01*
X46267619Y-24519047D01*
X46220000Y-24376190D01*
X46124761Y-24280952D01*
X46029523Y-24233333D01*
X45839047Y-24185714D01*
X45696190Y-24185714D01*
X45505714Y-24233333D01*
X45410476Y-24280952D01*
X45315238Y-24376190D01*
X45267619Y-24519047D01*
X45267619Y-24614285D01*
X45315238Y-24757142D01*
X45362857Y-24804761D01*
X45696190Y-24804761D01*
X45696190Y-24614285D01*
X45934285Y-25233333D02*
X45267619Y-25233333D01*
X45839047Y-25233333D02*
X45886666Y-25280952D01*
X45934285Y-25376190D01*
X45934285Y-25519047D01*
X45886666Y-25614285D01*
X45791428Y-25661904D01*
X45267619Y-25661904D01*
X45267619Y-26566666D02*
X46267619Y-26566666D01*
X45315238Y-26566666D02*
X45267619Y-26471428D01*
X45267619Y-26280952D01*
X45315238Y-26185714D01*
X45362857Y-26138095D01*
X45458095Y-26090476D01*
X45743809Y-26090476D01*
X45839047Y-26138095D01*
X45886666Y-26185714D01*
X45934285Y-26280952D01*
X45934285Y-26471428D01*
X45886666Y-26566666D01*
X68127619Y-63309523D02*
X68127619Y-62738095D01*
X68127619Y-63023809D02*
X69127619Y-63023809D01*
X68984761Y-62928571D01*
X68889523Y-62833333D01*
X68841904Y-62738095D01*
X68127619Y-64261904D02*
X68127619Y-63690476D01*
X68127619Y-63976190D02*
X69127619Y-63976190D01*
X68984761Y-63880952D01*
X68889523Y-63785714D01*
X68841904Y-63690476D01*
X65587619Y-63309523D02*
X65587619Y-62738095D01*
X65587619Y-63023809D02*
X66587619Y-63023809D01*
X66444761Y-62928571D01*
X66349523Y-62833333D01*
X66301904Y-62738095D01*
X66587619Y-63928571D02*
X66587619Y-64023809D01*
X66540000Y-64119047D01*
X66492380Y-64166666D01*
X66397142Y-64214285D01*
X66206666Y-64261904D01*
X65968571Y-64261904D01*
X65778095Y-64214285D01*
X65682857Y-64166666D01*
X65635238Y-64119047D01*
X65587619Y-64023809D01*
X65587619Y-63928571D01*
X65635238Y-63833333D01*
X65682857Y-63785714D01*
X65778095Y-63738095D01*
X65968571Y-63690476D01*
X66206666Y-63690476D01*
X66397142Y-63738095D01*
X66492380Y-63785714D01*
X66540000Y-63833333D01*
X66587619Y-63928571D01*
X63047619Y-63309523D02*
X63047619Y-63500000D01*
X63095238Y-63595238D01*
X63142857Y-63642857D01*
X63285714Y-63738095D01*
X63476190Y-63785714D01*
X63857142Y-63785714D01*
X63952380Y-63738095D01*
X64000000Y-63690476D01*
X64047619Y-63595238D01*
X64047619Y-63404761D01*
X64000000Y-63309523D01*
X63952380Y-63261904D01*
X63857142Y-63214285D01*
X63619047Y-63214285D01*
X63523809Y-63261904D01*
X63476190Y-63309523D01*
X63428571Y-63404761D01*
X63428571Y-63595238D01*
X63476190Y-63690476D01*
X63523809Y-63738095D01*
X63619047Y-63785714D01*
X61079047Y-63404761D02*
X61126666Y-63309523D01*
X61174285Y-63261904D01*
X61269523Y-63214285D01*
X61317142Y-63214285D01*
X61412380Y-63261904D01*
X61460000Y-63309523D01*
X61507619Y-63404761D01*
X61507619Y-63595238D01*
X61460000Y-63690476D01*
X61412380Y-63738095D01*
X61317142Y-63785714D01*
X61269523Y-63785714D01*
X61174285Y-63738095D01*
X61126666Y-63690476D01*
X61079047Y-63595238D01*
X61079047Y-63404761D01*
X61031428Y-63309523D01*
X60983809Y-63261904D01*
X60888571Y-63214285D01*
X60698095Y-63214285D01*
X60602857Y-63261904D01*
X60555238Y-63309523D01*
X60507619Y-63404761D01*
X60507619Y-63595238D01*
X60555238Y-63690476D01*
X60602857Y-63738095D01*
X60698095Y-63785714D01*
X60888571Y-63785714D01*
X60983809Y-63738095D01*
X61031428Y-63690476D01*
X61079047Y-63595238D01*
X58967619Y-63166666D02*
X58967619Y-63833333D01*
X57967619Y-63404761D01*
X56427619Y-63690476D02*
X56427619Y-63500000D01*
X56380000Y-63404761D01*
X56332380Y-63357142D01*
X56189523Y-63261904D01*
X55999047Y-63214285D01*
X55618095Y-63214285D01*
X55522857Y-63261904D01*
X55475238Y-63309523D01*
X55427619Y-63404761D01*
X55427619Y-63595238D01*
X55475238Y-63690476D01*
X55522857Y-63738095D01*
X55618095Y-63785714D01*
X55856190Y-63785714D01*
X55951428Y-63738095D01*
X55999047Y-63690476D01*
X56046666Y-63595238D01*
X56046666Y-63404761D01*
X55999047Y-63309523D01*
X55951428Y-63261904D01*
X55856190Y-63214285D01*
X53887619Y-63738095D02*
X53887619Y-63261904D01*
X53411428Y-63214285D01*
X53459047Y-63261904D01*
X53506666Y-63357142D01*
X53506666Y-63595238D01*
X53459047Y-63690476D01*
X53411428Y-63738095D01*
X53316190Y-63785714D01*
X53078095Y-63785714D01*
X52982857Y-63738095D01*
X52935238Y-63690476D01*
X52887619Y-63595238D01*
X52887619Y-63357142D01*
X52935238Y-63261904D01*
X52982857Y-63214285D01*
X51014285Y-63690476D02*
X50347619Y-63690476D01*
X51395238Y-63452380D02*
X50680952Y-63214285D01*
X50680952Y-63833333D01*
X48807619Y-63166666D02*
X48807619Y-63785714D01*
X48426666Y-63452380D01*
X48426666Y-63595238D01*
X48379047Y-63690476D01*
X48331428Y-63738095D01*
X48236190Y-63785714D01*
X47998095Y-63785714D01*
X47902857Y-63738095D01*
X47855238Y-63690476D01*
X47807619Y-63595238D01*
X47807619Y-63309523D01*
X47855238Y-63214285D01*
X47902857Y-63166666D01*
X46172380Y-63214285D02*
X46220000Y-63261904D01*
X46267619Y-63357142D01*
X46267619Y-63595238D01*
X46220000Y-63690476D01*
X46172380Y-63738095D01*
X46077142Y-63785714D01*
X45981904Y-63785714D01*
X45839047Y-63738095D01*
X45267619Y-63166666D01*
X45267619Y-63785714D01*
X162052023Y-60142380D02*
X161480595Y-60142380D01*
X161766309Y-60142380D02*
X161766309Y-59142380D01*
X161671071Y-59285238D01*
X161575833Y-59380476D01*
X161480595Y-59428095D01*
X162671071Y-59142380D02*
X162766309Y-59142380D01*
X162861547Y-59190000D01*
X162909166Y-59237619D01*
X162956785Y-59332857D01*
X163004404Y-59523333D01*
X163004404Y-59761428D01*
X162956785Y-59951904D01*
X162909166Y-60047142D01*
X162861547Y-60094761D01*
X162766309Y-60142380D01*
X162671071Y-60142380D01*
X162575833Y-60094761D01*
X162528214Y-60047142D01*
X162480595Y-59951904D01*
X162432976Y-59761428D01*
X162432976Y-59523333D01*
X162480595Y-59332857D01*
X162528214Y-59237619D01*
X162575833Y-59190000D01*
X162671071Y-59142380D01*
X162369523Y-57602380D02*
X162560000Y-57602380D01*
X162655238Y-57554761D01*
X162702857Y-57507142D01*
X162798095Y-57364285D01*
X162845714Y-57173809D01*
X162845714Y-56792857D01*
X162798095Y-56697619D01*
X162750476Y-56650000D01*
X162655238Y-56602380D01*
X162464761Y-56602380D01*
X162369523Y-56650000D01*
X162321904Y-56697619D01*
X162274285Y-56792857D01*
X162274285Y-57030952D01*
X162321904Y-57126190D01*
X162369523Y-57173809D01*
X162464761Y-57221428D01*
X162655238Y-57221428D01*
X162750476Y-57173809D01*
X162798095Y-57126190D01*
X162845714Y-57030952D01*
X162464761Y-54490952D02*
X162369523Y-54443333D01*
X162321904Y-54395714D01*
X162274285Y-54300476D01*
X162274285Y-54252857D01*
X162321904Y-54157619D01*
X162369523Y-54110000D01*
X162464761Y-54062380D01*
X162655238Y-54062380D01*
X162750476Y-54110000D01*
X162798095Y-54157619D01*
X162845714Y-54252857D01*
X162845714Y-54300476D01*
X162798095Y-54395714D01*
X162750476Y-54443333D01*
X162655238Y-54490952D01*
X162464761Y-54490952D01*
X162369523Y-54538571D01*
X162321904Y-54586190D01*
X162274285Y-54681428D01*
X162274285Y-54871904D01*
X162321904Y-54967142D01*
X162369523Y-55014761D01*
X162464761Y-55062380D01*
X162655238Y-55062380D01*
X162750476Y-55014761D01*
X162798095Y-54967142D01*
X162845714Y-54871904D01*
X162845714Y-54681428D01*
X162798095Y-54586190D01*
X162750476Y-54538571D01*
X162655238Y-54490952D01*
X162226666Y-51522380D02*
X162893333Y-51522380D01*
X162464761Y-52522380D01*
X162750476Y-48982380D02*
X162560000Y-48982380D01*
X162464761Y-49030000D01*
X162417142Y-49077619D01*
X162321904Y-49220476D01*
X162274285Y-49410952D01*
X162274285Y-49791904D01*
X162321904Y-49887142D01*
X162369523Y-49934761D01*
X162464761Y-49982380D01*
X162655238Y-49982380D01*
X162750476Y-49934761D01*
X162798095Y-49887142D01*
X162845714Y-49791904D01*
X162845714Y-49553809D01*
X162798095Y-49458571D01*
X162750476Y-49410952D01*
X162655238Y-49363333D01*
X162464761Y-49363333D01*
X162369523Y-49410952D01*
X162321904Y-49458571D01*
X162274285Y-49553809D01*
X162798095Y-46442380D02*
X162321904Y-46442380D01*
X162274285Y-46918571D01*
X162321904Y-46870952D01*
X162417142Y-46823333D01*
X162655238Y-46823333D01*
X162750476Y-46870952D01*
X162798095Y-46918571D01*
X162845714Y-47013809D01*
X162845714Y-47251904D01*
X162798095Y-47347142D01*
X162750476Y-47394761D01*
X162655238Y-47442380D01*
X162417142Y-47442380D01*
X162321904Y-47394761D01*
X162274285Y-47347142D01*
X162750476Y-44235714D02*
X162750476Y-44902380D01*
X162512380Y-43854761D02*
X162274285Y-44569047D01*
X162893333Y-44569047D01*
X162226666Y-41362380D02*
X162845714Y-41362380D01*
X162512380Y-41743333D01*
X162655238Y-41743333D01*
X162750476Y-41790952D01*
X162798095Y-41838571D01*
X162845714Y-41933809D01*
X162845714Y-42171904D01*
X162798095Y-42267142D01*
X162750476Y-42314761D01*
X162655238Y-42362380D01*
X162369523Y-42362380D01*
X162274285Y-42314761D01*
X162226666Y-42267142D01*
X162052023Y-34742380D02*
X161480595Y-34742380D01*
X161766309Y-34742380D02*
X161766309Y-33742380D01*
X161671071Y-33885238D01*
X161575833Y-33980476D01*
X161480595Y-34028095D01*
X162385357Y-33742380D02*
X163004404Y-33742380D01*
X162671071Y-34123333D01*
X162813928Y-34123333D01*
X162909166Y-34170952D01*
X162956785Y-34218571D01*
X163004404Y-34313809D01*
X163004404Y-34551904D01*
X162956785Y-34647142D01*
X162909166Y-34694761D01*
X162813928Y-34742380D01*
X162528214Y-34742380D01*
X162432976Y-34694761D01*
X162385357Y-34647142D01*
D11*
X158750000Y-38417500D02*
X161925000Y-30480000D01*
D10*
X162052023Y-37282380D02*
X161480595Y-37282380D01*
X161766309Y-37282380D02*
X161766309Y-36282380D01*
X161671071Y-36425238D01*
X161575833Y-36520476D01*
X161480595Y-36568095D01*
X162432976Y-36377619D02*
X162480595Y-36330000D01*
X162575833Y-36282380D01*
X162813928Y-36282380D01*
X162909166Y-36330000D01*
X162956785Y-36377619D01*
X163004404Y-36472857D01*
X163004404Y-36568095D01*
X162956785Y-36710952D01*
X162385357Y-37282380D01*
X163004404Y-37282380D01*
X162274285Y-38917619D02*
X162321904Y-38870000D01*
X162417142Y-38822380D01*
X162655238Y-38822380D01*
X162750476Y-38870000D01*
X162798095Y-38917619D01*
X162845714Y-39012857D01*
X162845714Y-39108095D01*
X162798095Y-39250952D01*
X162226666Y-39822380D01*
X162845714Y-39822380D01*
X162369523Y-62682380D02*
X161798095Y-62682380D01*
X162083809Y-62682380D02*
X162083809Y-61682380D01*
X161988571Y-61825238D01*
X161893333Y-61920476D01*
X161798095Y-61968095D01*
X163321904Y-62682380D02*
X162750476Y-62682380D01*
X163036190Y-62682380D02*
X163036190Y-61682380D01*
X162940952Y-61825238D01*
X162845714Y-61920476D01*
X162750476Y-61968095D01*
X169854642Y-31567500D02*
X169759404Y-31519880D01*
X169616547Y-31519880D01*
X169473690Y-31567500D01*
X169378452Y-31662738D01*
X169330833Y-31757976D01*
X169283214Y-31948452D01*
X169283214Y-32091309D01*
X169330833Y-32281785D01*
X169378452Y-32377023D01*
X169473690Y-32472261D01*
X169616547Y-32519880D01*
X169711785Y-32519880D01*
X169854642Y-32472261D01*
X169902261Y-32424642D01*
X169902261Y-32091309D01*
X169711785Y-32091309D01*
X170330833Y-31853214D02*
X170330833Y-32519880D01*
X170330833Y-31948452D02*
X170378452Y-31900833D01*
X170473690Y-31853214D01*
X170616547Y-31853214D01*
X170711785Y-31900833D01*
X170759404Y-31996071D01*
X170759404Y-32519880D01*
X171664166Y-32519880D02*
X171664166Y-31519880D01*
X171664166Y-32472261D02*
X171568928Y-32519880D01*
X171378452Y-32519880D01*
X171283214Y-32472261D01*
X171235595Y-32424642D01*
X171187976Y-32329404D01*
X171187976Y-32043690D01*
X171235595Y-31948452D01*
X171283214Y-31900833D01*
X171378452Y-31853214D01*
X171568928Y-31853214D01*
X171664166Y-31900833D01*
X166036785Y-32138928D02*
X166798690Y-32138928D01*
X166417738Y-32519880D02*
X166417738Y-31757976D01*
X167751071Y-31519880D02*
X167274880Y-31519880D01*
X167227261Y-31996071D01*
X167274880Y-31948452D01*
X167370119Y-31900833D01*
X167608214Y-31900833D01*
X167703452Y-31948452D01*
X167751071Y-31996071D01*
X167798690Y-32091309D01*
X167798690Y-32329404D01*
X167751071Y-32424642D01*
X167703452Y-32472261D01*
X167608214Y-32519880D01*
X167370119Y-32519880D01*
X167274880Y-32472261D01*
X167227261Y-32424642D01*
X168084404Y-31519880D02*
X168417738Y-32519880D01*
X168751071Y-31519880D01*
X164838095Y-32519880D02*
X164838095Y-31519880D01*
X165076190Y-31519880D01*
X165219047Y-31567500D01*
X165314285Y-31662738D01*
X165361904Y-31757976D01*
X165409523Y-31948452D01*
X165409523Y-32091309D01*
X165361904Y-32281785D01*
X165314285Y-32377023D01*
X165219047Y-32472261D01*
X165076190Y-32519880D01*
X164838095Y-32519880D01*
X42942023Y-36917380D02*
X43275357Y-37917380D01*
X43608690Y-36917380D01*
X44370595Y-37869761D02*
X44275357Y-37917380D01*
X44084880Y-37917380D01*
X43989642Y-37869761D01*
X43942023Y-37822142D01*
X43894404Y-37726904D01*
X43894404Y-37441190D01*
X43942023Y-37345952D01*
X43989642Y-37298333D01*
X44084880Y-37250714D01*
X44275357Y-37250714D01*
X44370595Y-37298333D01*
X45227738Y-37869761D02*
X45132500Y-37917380D01*
X44942023Y-37917380D01*
X44846785Y-37869761D01*
X44799166Y-37822142D01*
X44751547Y-37726904D01*
X44751547Y-37441190D01*
X44799166Y-37345952D01*
X44846785Y-37298333D01*
X44942023Y-37250714D01*
X45132500Y-37250714D01*
X45227738Y-37298333D01*
X43489642Y-34425000D02*
X43394404Y-34377380D01*
X43251547Y-34377380D01*
X43108690Y-34425000D01*
X43013452Y-34520238D01*
X42965833Y-34615476D01*
X42918214Y-34805952D01*
X42918214Y-34948809D01*
X42965833Y-35139285D01*
X43013452Y-35234523D01*
X43108690Y-35329761D01*
X43251547Y-35377380D01*
X43346785Y-35377380D01*
X43489642Y-35329761D01*
X43537261Y-35282142D01*
X43537261Y-34948809D01*
X43346785Y-34948809D01*
X43965833Y-34710714D02*
X43965833Y-35377380D01*
X43965833Y-34805952D02*
X44013452Y-34758333D01*
X44108690Y-34710714D01*
X44251547Y-34710714D01*
X44346785Y-34758333D01*
X44394404Y-34853571D01*
X44394404Y-35377380D01*
X45299166Y-35377380D02*
X45299166Y-34377380D01*
X45299166Y-35329761D02*
X45203928Y-35377380D01*
X45013452Y-35377380D01*
X44918214Y-35329761D01*
X44870595Y-35282142D01*
X44822976Y-35186904D01*
X44822976Y-34901190D01*
X44870595Y-34805952D01*
X44918214Y-34758333D01*
X45013452Y-34710714D01*
X45203928Y-34710714D01*
X45299166Y-34758333D01*
X129992380Y-63214285D02*
X130040000Y-63261904D01*
X130087619Y-63357142D01*
X130087619Y-63595238D01*
X130040000Y-63690476D01*
X129992380Y-63738095D01*
X129897142Y-63785714D01*
X129801904Y-63785714D01*
X129659047Y-63738095D01*
X129087619Y-63166666D01*
X129087619Y-63785714D01*
X132627619Y-63166666D02*
X132627619Y-63785714D01*
X132246666Y-63452380D01*
X132246666Y-63595238D01*
X132199047Y-63690476D01*
X132151428Y-63738095D01*
X132056190Y-63785714D01*
X131818095Y-63785714D01*
X131722857Y-63738095D01*
X131675238Y-63690476D01*
X131627619Y-63595238D01*
X131627619Y-63309523D01*
X131675238Y-63214285D01*
X131722857Y-63166666D01*
X134834285Y-63690476D02*
X134167619Y-63690476D01*
X135215238Y-63452380D02*
X134500952Y-63214285D01*
X134500952Y-63833333D01*
X137707619Y-63738095D02*
X137707619Y-63261904D01*
X137231428Y-63214285D01*
X137279047Y-63261904D01*
X137326666Y-63357142D01*
X137326666Y-63595238D01*
X137279047Y-63690476D01*
X137231428Y-63738095D01*
X137136190Y-63785714D01*
X136898095Y-63785714D01*
X136802857Y-63738095D01*
X136755238Y-63690476D01*
X136707619Y-63595238D01*
X136707619Y-63357142D01*
X136755238Y-63261904D01*
X136802857Y-63214285D01*
X140247619Y-63690476D02*
X140247619Y-63500000D01*
X140200000Y-63404761D01*
X140152380Y-63357142D01*
X140009523Y-63261904D01*
X139819047Y-63214285D01*
X139438095Y-63214285D01*
X139342857Y-63261904D01*
X139295238Y-63309523D01*
X139247619Y-63404761D01*
X139247619Y-63595238D01*
X139295238Y-63690476D01*
X139342857Y-63738095D01*
X139438095Y-63785714D01*
X139676190Y-63785714D01*
X139771428Y-63738095D01*
X139819047Y-63690476D01*
X139866666Y-63595238D01*
X139866666Y-63404761D01*
X139819047Y-63309523D01*
X139771428Y-63261904D01*
X139676190Y-63214285D01*
X142787619Y-63166666D02*
X142787619Y-63833333D01*
X141787619Y-63404761D01*
X144899047Y-63404761D02*
X144946666Y-63309523D01*
X144994285Y-63261904D01*
X145089523Y-63214285D01*
X145137142Y-63214285D01*
X145232380Y-63261904D01*
X145280000Y-63309523D01*
X145327619Y-63404761D01*
X145327619Y-63595238D01*
X145280000Y-63690476D01*
X145232380Y-63738095D01*
X145137142Y-63785714D01*
X145089523Y-63785714D01*
X144994285Y-63738095D01*
X144946666Y-63690476D01*
X144899047Y-63595238D01*
X144899047Y-63404761D01*
X144851428Y-63309523D01*
X144803809Y-63261904D01*
X144708571Y-63214285D01*
X144518095Y-63214285D01*
X144422857Y-63261904D01*
X144375238Y-63309523D01*
X144327619Y-63404761D01*
X144327619Y-63595238D01*
X144375238Y-63690476D01*
X144422857Y-63738095D01*
X144518095Y-63785714D01*
X144708571Y-63785714D01*
X144803809Y-63738095D01*
X144851428Y-63690476D01*
X144899047Y-63595238D01*
X146867619Y-63309523D02*
X146867619Y-63500000D01*
X146915238Y-63595238D01*
X146962857Y-63642857D01*
X147105714Y-63738095D01*
X147296190Y-63785714D01*
X147677142Y-63785714D01*
X147772380Y-63738095D01*
X147820000Y-63690476D01*
X147867619Y-63595238D01*
X147867619Y-63404761D01*
X147820000Y-63309523D01*
X147772380Y-63261904D01*
X147677142Y-63214285D01*
X147439047Y-63214285D01*
X147343809Y-63261904D01*
X147296190Y-63309523D01*
X147248571Y-63404761D01*
X147248571Y-63595238D01*
X147296190Y-63690476D01*
X147343809Y-63738095D01*
X147439047Y-63785714D01*
X149407619Y-63309523D02*
X149407619Y-62738095D01*
X149407619Y-63023809D02*
X150407619Y-63023809D01*
X150264761Y-62928571D01*
X150169523Y-62833333D01*
X150121904Y-62738095D01*
X150407619Y-63928571D02*
X150407619Y-64023809D01*
X150360000Y-64119047D01*
X150312380Y-64166666D01*
X150217142Y-64214285D01*
X150026666Y-64261904D01*
X149788571Y-64261904D01*
X149598095Y-64214285D01*
X149502857Y-64166666D01*
X149455238Y-64119047D01*
X149407619Y-64023809D01*
X149407619Y-63928571D01*
X149455238Y-63833333D01*
X149502857Y-63785714D01*
X149598095Y-63738095D01*
X149788571Y-63690476D01*
X150026666Y-63690476D01*
X150217142Y-63738095D01*
X150312380Y-63785714D01*
X150360000Y-63833333D01*
X150407619Y-63928571D01*
X151947619Y-63309523D02*
X151947619Y-62738095D01*
X151947619Y-63023809D02*
X152947619Y-63023809D01*
X152804761Y-62928571D01*
X152709523Y-62833333D01*
X152661904Y-62738095D01*
X151947619Y-64261904D02*
X151947619Y-63690476D01*
X151947619Y-63976190D02*
X152947619Y-63976190D01*
X152804761Y-63880952D01*
X152709523Y-63785714D01*
X152661904Y-63690476D01*
X149407619Y-25209523D02*
X149407619Y-24638095D01*
X149407619Y-24923809D02*
X150407619Y-24923809D01*
X150264761Y-24828571D01*
X150169523Y-24733333D01*
X150121904Y-24638095D01*
X150312380Y-25590476D02*
X150360000Y-25638095D01*
X150407619Y-25733333D01*
X150407619Y-25971428D01*
X150360000Y-26066666D01*
X150312380Y-26114285D01*
X150217142Y-26161904D01*
X150121904Y-26161904D01*
X149979047Y-26114285D01*
X149407619Y-25542857D01*
X149407619Y-26161904D01*
X146867619Y-25209523D02*
X146867619Y-24638095D01*
X146867619Y-24923809D02*
X147867619Y-24923809D01*
X147724761Y-24828571D01*
X147629523Y-24733333D01*
X147581904Y-24638095D01*
X147867619Y-25542857D02*
X147867619Y-26161904D01*
X147486666Y-25828571D01*
X147486666Y-25971428D01*
X147439047Y-26066666D01*
X147391428Y-26114285D01*
X147296190Y-26161904D01*
X147058095Y-26161904D01*
X146962857Y-26114285D01*
X146915238Y-26066666D01*
X146867619Y-25971428D01*
X146867619Y-25685714D01*
X146915238Y-25590476D01*
X146962857Y-25542857D01*
X152947619Y-24209523D02*
X151947619Y-24542857D01*
X152947619Y-24876190D01*
X151995238Y-25638095D02*
X151947619Y-25542857D01*
X151947619Y-25352380D01*
X151995238Y-25257142D01*
X152042857Y-25209523D01*
X152138095Y-25161904D01*
X152423809Y-25161904D01*
X152519047Y-25209523D01*
X152566666Y-25257142D01*
X152614285Y-25352380D01*
X152614285Y-25542857D01*
X152566666Y-25638095D01*
X151995238Y-26495238D02*
X151947619Y-26400000D01*
X151947619Y-26209523D01*
X151995238Y-26114285D01*
X152042857Y-26066666D01*
X152138095Y-26019047D01*
X152423809Y-26019047D01*
X152519047Y-26066666D01*
X152566666Y-26114285D01*
X152614285Y-26209523D01*
X152614285Y-26400000D01*
X152566666Y-26495238D01*
X144613333Y-24685714D02*
X144613333Y-25161904D01*
X144327619Y-24590476D02*
X145327619Y-24923809D01*
X144327619Y-25257142D01*
X145327619Y-25780952D02*
X145327619Y-25876190D01*
X145280000Y-25971428D01*
X145232380Y-26019047D01*
X145137142Y-26066666D01*
X144946666Y-26114285D01*
X144708571Y-26114285D01*
X144518095Y-26066666D01*
X144422857Y-26019047D01*
X144375238Y-25971428D01*
X144327619Y-25876190D01*
X144327619Y-25780952D01*
X144375238Y-25685714D01*
X144422857Y-25638095D01*
X144518095Y-25590476D01*
X144708571Y-25542857D01*
X144946666Y-25542857D01*
X145137142Y-25590476D01*
X145232380Y-25638095D01*
X145280000Y-25685714D01*
X145327619Y-25780952D01*
X142073333Y-24685714D02*
X142073333Y-25161904D01*
X141787619Y-24590476D02*
X142787619Y-24923809D01*
X141787619Y-25257142D01*
X141787619Y-26114285D02*
X141787619Y-25542857D01*
X141787619Y-25828571D02*
X142787619Y-25828571D01*
X142644761Y-25733333D01*
X142549523Y-25638095D01*
X142501904Y-25542857D01*
X139533333Y-24685714D02*
X139533333Y-25161904D01*
X139247619Y-24590476D02*
X140247619Y-24923809D01*
X139247619Y-25257142D01*
X140152380Y-25542857D02*
X140200000Y-25590476D01*
X140247619Y-25685714D01*
X140247619Y-25923809D01*
X140200000Y-26019047D01*
X140152380Y-26066666D01*
X140057142Y-26114285D01*
X139961904Y-26114285D01*
X139819047Y-26066666D01*
X139247619Y-25495238D01*
X139247619Y-26114285D01*
X136993333Y-24685714D02*
X136993333Y-25161904D01*
X136707619Y-24590476D02*
X137707619Y-24923809D01*
X136707619Y-25257142D01*
X137707619Y-25495238D02*
X137707619Y-26114285D01*
X137326666Y-25780952D01*
X137326666Y-25923809D01*
X137279047Y-26019047D01*
X137231428Y-26066666D01*
X137136190Y-26114285D01*
X136898095Y-26114285D01*
X136802857Y-26066666D01*
X136755238Y-26019047D01*
X136707619Y-25923809D01*
X136707619Y-25638095D01*
X136755238Y-25542857D01*
X136802857Y-25495238D01*
X134453333Y-24685714D02*
X134453333Y-25161904D01*
X134167619Y-24590476D02*
X135167619Y-24923809D01*
X134167619Y-25257142D01*
X134834285Y-26019047D02*
X134167619Y-26019047D01*
X135215238Y-25780952D02*
X134500952Y-25542857D01*
X134500952Y-26161904D01*
X131913333Y-24685714D02*
X131913333Y-25161904D01*
X131627619Y-24590476D02*
X132627619Y-24923809D01*
X131627619Y-25257142D01*
X132627619Y-26066666D02*
X132627619Y-25590476D01*
X132151428Y-25542857D01*
X132199047Y-25590476D01*
X132246666Y-25685714D01*
X132246666Y-25923809D01*
X132199047Y-26019047D01*
X132151428Y-26066666D01*
X132056190Y-26114285D01*
X131818095Y-26114285D01*
X131722857Y-26066666D01*
X131675238Y-26019047D01*
X131627619Y-25923809D01*
X131627619Y-25685714D01*
X131675238Y-25590476D01*
X131722857Y-25542857D01*
X130040000Y-24757142D02*
X130087619Y-24661904D01*
X130087619Y-24519047D01*
X130040000Y-24376190D01*
X129944761Y-24280952D01*
X129849523Y-24233333D01*
X129659047Y-24185714D01*
X129516190Y-24185714D01*
X129325714Y-24233333D01*
X129230476Y-24280952D01*
X129135238Y-24376190D01*
X129087619Y-24519047D01*
X129087619Y-24614285D01*
X129135238Y-24757142D01*
X129182857Y-24804761D01*
X129516190Y-24804761D01*
X129516190Y-24614285D01*
X129754285Y-25233333D02*
X129087619Y-25233333D01*
X129659047Y-25233333D02*
X129706666Y-25280952D01*
X129754285Y-25376190D01*
X129754285Y-25519047D01*
X129706666Y-25614285D01*
X129611428Y-25661904D01*
X129087619Y-25661904D01*
X129087619Y-26566666D02*
X130087619Y-26566666D01*
X129135238Y-26566666D02*
X129087619Y-26471428D01*
X129087619Y-26280952D01*
X129135238Y-26185714D01*
X129182857Y-26138095D01*
X129278095Y-26090476D01*
X129563809Y-26090476D01*
X129659047Y-26138095D01*
X129706666Y-26185714D01*
X129754285Y-26280952D01*
X129754285Y-26471428D01*
X129706666Y-26566666D01*
D12*
G36*
X117000000Y-41785000D02*
G01*
X117220000Y-42105000D01*
X117410000Y-42285000D01*
X117470000Y-42325000D01*
X117900000Y-42455000D01*
X117940000Y-42435000D01*
X117940000Y-42345000D01*
X117750000Y-41915000D01*
X117450000Y-41265000D01*
X118260000Y-42255000D01*
X118460000Y-42475000D01*
X118580000Y-42575000D01*
X118660000Y-42605000D01*
X118840000Y-42615000D01*
X119060000Y-42675000D01*
X119020000Y-42555000D01*
X118510000Y-41665000D01*
X119280000Y-42505000D01*
X119440000Y-42695000D01*
X119530000Y-42775000D01*
X119640000Y-42825000D01*
X120080000Y-42875000D01*
X120540000Y-42895000D01*
X121020000Y-42295000D01*
X121170000Y-42145000D01*
X121160000Y-42225000D01*
X121020000Y-42555000D01*
X120940000Y-42725000D01*
X120930000Y-42805000D01*
X121010000Y-42815000D01*
X121410000Y-42795000D01*
X121760000Y-42685000D01*
X122430000Y-42115000D01*
X122310000Y-42405000D01*
X121880000Y-43055000D01*
X121550000Y-43115000D01*
X120940000Y-43165000D01*
X120750000Y-43235000D01*
X120970000Y-43295000D01*
X122300000Y-43515000D01*
X122620000Y-43585000D01*
X122750000Y-43685000D01*
X122770000Y-43855000D01*
X122750000Y-44015000D01*
X122690000Y-44095000D01*
X122640000Y-44115000D01*
X122600000Y-44195000D01*
X122600000Y-44295000D01*
X122540000Y-44345000D01*
X122350000Y-44395000D01*
X121730000Y-44505000D01*
X121440000Y-44585000D01*
X121310000Y-44705000D01*
X121280000Y-44765000D01*
X121250000Y-44915000D01*
X121260000Y-45085000D01*
X120930000Y-48855000D01*
X120980000Y-45465000D01*
X120970000Y-45185000D01*
X120960000Y-44995000D01*
X120950000Y-44955000D01*
X120910000Y-44915000D01*
X120860000Y-45035000D01*
X120830000Y-45365000D01*
X120800000Y-45855000D01*
X120770000Y-47235000D01*
X120750000Y-47765000D01*
X120710000Y-48095000D01*
X120680000Y-47915000D01*
X120650000Y-47235000D01*
X120650000Y-46355000D01*
X120630000Y-45135000D01*
X120470000Y-45175000D01*
X120360000Y-45175000D01*
X120290000Y-45125000D01*
X120220000Y-44995000D01*
X119980000Y-44365000D01*
X120290000Y-43965000D01*
X120250000Y-44195000D01*
X120240000Y-44355000D01*
X120240000Y-44425000D01*
X120310000Y-44555000D01*
X120460000Y-44765000D01*
X121370000Y-44375000D01*
X121500000Y-44305000D01*
X121550000Y-44245000D01*
X121440000Y-44205000D01*
X121650000Y-44165000D01*
X122170000Y-44155000D01*
X122290000Y-44135000D01*
X122380000Y-44085000D01*
X122410000Y-44025000D01*
X122380000Y-43905000D01*
X122220000Y-43805000D01*
X121950000Y-43695000D01*
X121550000Y-43615000D01*
X121310000Y-43605000D01*
X121170000Y-43625000D01*
X121120000Y-43665000D01*
X121050000Y-43765000D01*
X121000000Y-43775000D01*
X120940000Y-43775000D01*
X120820000Y-43725000D01*
X120670000Y-43625000D01*
X120630000Y-43565000D01*
X120620000Y-43525000D01*
X120560000Y-43495000D01*
X120480000Y-43465000D01*
X119990000Y-43445000D01*
X119540000Y-43455000D01*
X119400000Y-43475000D01*
X119280000Y-43505000D01*
X119300000Y-43545000D01*
X119510000Y-43585000D01*
X119810000Y-43605000D01*
X120320000Y-43615000D01*
X119900000Y-43765000D01*
X119900000Y-43795000D01*
X120100000Y-43815000D01*
X120110000Y-43845000D01*
X119870000Y-43965000D01*
X119810000Y-44035000D01*
X119680000Y-44225000D01*
X119480000Y-44655000D01*
X119050000Y-45705000D01*
X118830000Y-46355000D01*
X118780000Y-46525000D01*
X118750000Y-46665000D01*
X118800000Y-46745000D01*
X118850000Y-46715000D01*
X118890000Y-46645000D01*
X118980000Y-46425000D01*
X119160000Y-45915000D01*
X119470000Y-45085000D01*
X119430000Y-45345000D01*
X119180000Y-46345000D01*
X119120000Y-46555000D01*
X119060000Y-46895000D01*
X119040000Y-47015000D01*
X119040000Y-47125000D01*
X119090000Y-47185000D01*
X119150000Y-47105000D01*
X119190000Y-46955000D01*
X119290000Y-46585000D01*
X119450000Y-45865000D01*
X119480000Y-45865000D01*
X119330000Y-47025000D01*
X119260000Y-47475000D01*
X119650000Y-48045000D01*
X119810000Y-48345000D01*
X119200000Y-47635000D01*
X118500000Y-46745000D01*
X116860000Y-46815000D01*
X118260000Y-46515000D01*
X118470000Y-46445000D01*
X118550000Y-46225000D01*
X118840000Y-45345000D01*
X119090000Y-44495000D01*
X119250000Y-43825000D01*
X118520000Y-43255000D01*
X118880000Y-43215000D01*
X119330000Y-43235000D01*
X119810000Y-43245000D01*
X117890000Y-42825000D01*
X117090000Y-42635000D01*
X116660000Y-41665000D01*
X116290000Y-40765000D01*
X117000000Y-41785000D01*
G37*
X117000000Y-41785000D02*
X117220000Y-42105000D01*
X117410000Y-42285000D01*
X117470000Y-42325000D01*
X117900000Y-42455000D01*
X117940000Y-42435000D01*
X117940000Y-42345000D01*
X117750000Y-41915000D01*
X117450000Y-41265000D01*
X118260000Y-42255000D01*
X118460000Y-42475000D01*
X118580000Y-42575000D01*
X118660000Y-42605000D01*
X118840000Y-42615000D01*
X119060000Y-42675000D01*
X119020000Y-42555000D01*
X118510000Y-41665000D01*
X119280000Y-42505000D01*
X119440000Y-42695000D01*
X119530000Y-42775000D01*
X119640000Y-42825000D01*
X120080000Y-42875000D01*
X120540000Y-42895000D01*
X121020000Y-42295000D01*
X121170000Y-42145000D01*
X121160000Y-42225000D01*
X121020000Y-42555000D01*
X120940000Y-42725000D01*
X120930000Y-42805000D01*
X121010000Y-42815000D01*
X121410000Y-42795000D01*
X121760000Y-42685000D01*
X122430000Y-42115000D01*
X122310000Y-42405000D01*
X121880000Y-43055000D01*
X121550000Y-43115000D01*
X120940000Y-43165000D01*
X120750000Y-43235000D01*
X120970000Y-43295000D01*
X122300000Y-43515000D01*
X122620000Y-43585000D01*
X122750000Y-43685000D01*
X122770000Y-43855000D01*
X122750000Y-44015000D01*
X122690000Y-44095000D01*
X122640000Y-44115000D01*
X122600000Y-44195000D01*
X122600000Y-44295000D01*
X122540000Y-44345000D01*
X122350000Y-44395000D01*
X121730000Y-44505000D01*
X121440000Y-44585000D01*
X121310000Y-44705000D01*
X121280000Y-44765000D01*
X121250000Y-44915000D01*
X121260000Y-45085000D01*
X120930000Y-48855000D01*
X120980000Y-45465000D01*
X120970000Y-45185000D01*
X120960000Y-44995000D01*
X120950000Y-44955000D01*
X120910000Y-44915000D01*
X120860000Y-45035000D01*
X120830000Y-45365000D01*
X120800000Y-45855000D01*
X120770000Y-47235000D01*
X120750000Y-47765000D01*
X120710000Y-48095000D01*
X120680000Y-47915000D01*
X120650000Y-47235000D01*
X120650000Y-46355000D01*
X120630000Y-45135000D01*
X120470000Y-45175000D01*
X120360000Y-45175000D01*
X120290000Y-45125000D01*
X120220000Y-44995000D01*
X119980000Y-44365000D01*
X120290000Y-43965000D01*
X120250000Y-44195000D01*
X120240000Y-44355000D01*
X120240000Y-44425000D01*
X120310000Y-44555000D01*
X120460000Y-44765000D01*
X121370000Y-44375000D01*
X121500000Y-44305000D01*
X121550000Y-44245000D01*
X121440000Y-44205000D01*
X121650000Y-44165000D01*
X122170000Y-44155000D01*
X122290000Y-44135000D01*
X122380000Y-44085000D01*
X122410000Y-44025000D01*
X122380000Y-43905000D01*
X122220000Y-43805000D01*
X121950000Y-43695000D01*
X121550000Y-43615000D01*
X121310000Y-43605000D01*
X121170000Y-43625000D01*
X121120000Y-43665000D01*
X121050000Y-43765000D01*
X121000000Y-43775000D01*
X120940000Y-43775000D01*
X120820000Y-43725000D01*
X120670000Y-43625000D01*
X120630000Y-43565000D01*
X120620000Y-43525000D01*
X120560000Y-43495000D01*
X120480000Y-43465000D01*
X119990000Y-43445000D01*
X119540000Y-43455000D01*
X119400000Y-43475000D01*
X119280000Y-43505000D01*
X119300000Y-43545000D01*
X119510000Y-43585000D01*
X119810000Y-43605000D01*
X120320000Y-43615000D01*
X119900000Y-43765000D01*
X119900000Y-43795000D01*
X120100000Y-43815000D01*
X120110000Y-43845000D01*
X119870000Y-43965000D01*
X119810000Y-44035000D01*
X119680000Y-44225000D01*
X119480000Y-44655000D01*
X119050000Y-45705000D01*
X118830000Y-46355000D01*
X118780000Y-46525000D01*
X118750000Y-46665000D01*
X118800000Y-46745000D01*
X118850000Y-46715000D01*
X118890000Y-46645000D01*
X118980000Y-46425000D01*
X119160000Y-45915000D01*
X119470000Y-45085000D01*
X119430000Y-45345000D01*
X119180000Y-46345000D01*
X119120000Y-46555000D01*
X119060000Y-46895000D01*
X119040000Y-47015000D01*
X119040000Y-47125000D01*
X119090000Y-47185000D01*
X119150000Y-47105000D01*
X119190000Y-46955000D01*
X119290000Y-46585000D01*
X119450000Y-45865000D01*
X119480000Y-45865000D01*
X119330000Y-47025000D01*
X119260000Y-47475000D01*
X119650000Y-48045000D01*
X119810000Y-48345000D01*
X119200000Y-47635000D01*
X118500000Y-46745000D01*
X116860000Y-46815000D01*
X118260000Y-46515000D01*
X118470000Y-46445000D01*
X118550000Y-46225000D01*
X118840000Y-45345000D01*
X119090000Y-44495000D01*
X119250000Y-43825000D01*
X118520000Y-43255000D01*
X118880000Y-43215000D01*
X119330000Y-43235000D01*
X119810000Y-43245000D01*
X117890000Y-42825000D01*
X117090000Y-42635000D01*
X116660000Y-41665000D01*
X116290000Y-40765000D01*
X117000000Y-41785000D01*
D10*
X116102261Y-38552380D02*
X116102261Y-37552380D01*
X116102261Y-38028571D02*
X116673690Y-38028571D01*
X116673690Y-38552380D02*
X116673690Y-37552380D01*
X117578452Y-38552380D02*
X117578452Y-38028571D01*
X117530833Y-37933333D01*
X117435595Y-37885714D01*
X117245119Y-37885714D01*
X117149880Y-37933333D01*
X117578452Y-38504761D02*
X117483214Y-38552380D01*
X117245119Y-38552380D01*
X117149880Y-38504761D01*
X117102261Y-38409523D01*
X117102261Y-38314285D01*
X117149880Y-38219047D01*
X117245119Y-38171428D01*
X117483214Y-38171428D01*
X117578452Y-38123809D01*
X118054642Y-38552380D02*
X118054642Y-37885714D01*
X118054642Y-38076190D02*
X118102261Y-37980952D01*
X118149880Y-37933333D01*
X118245119Y-37885714D01*
X118340357Y-37885714D01*
X119102261Y-38552380D02*
X119102261Y-37552380D01*
X119102261Y-38504761D02*
X119007023Y-38552380D01*
X118816547Y-38552380D01*
X118721309Y-38504761D01*
X118673690Y-38457142D01*
X118626071Y-38361904D01*
X118626071Y-38076190D01*
X118673690Y-37980952D01*
X118721309Y-37933333D01*
X118816547Y-37885714D01*
X119007023Y-37885714D01*
X119102261Y-37933333D01*
X119578452Y-38552380D02*
X119578452Y-37552380D01*
X119816547Y-37552380D01*
X119959404Y-37600000D01*
X120054642Y-37695238D01*
X120102261Y-37790476D01*
X120149880Y-37980952D01*
X120149880Y-38123809D01*
X120102261Y-38314285D01*
X120054642Y-38409523D01*
X119959404Y-38504761D01*
X119816547Y-38552380D01*
X119578452Y-38552380D01*
X121007023Y-37885714D02*
X121007023Y-38552380D01*
X120578452Y-37885714D02*
X120578452Y-38409523D01*
X120626071Y-38504761D01*
X120721309Y-38552380D01*
X120864166Y-38552380D01*
X120959404Y-38504761D01*
X121007023Y-38457142D01*
X121483214Y-38552380D02*
X121483214Y-37885714D01*
X121483214Y-37552380D02*
X121435595Y-37600000D01*
X121483214Y-37647619D01*
X121530833Y-37600000D01*
X121483214Y-37552380D01*
X121483214Y-37647619D01*
X121959404Y-37885714D02*
X121959404Y-38552380D01*
X121959404Y-37980952D02*
X122007023Y-37933333D01*
X122102261Y-37885714D01*
X122245119Y-37885714D01*
X122340357Y-37933333D01*
X122387976Y-38028571D01*
X122387976Y-38552380D01*
X123007023Y-38552380D02*
X122911785Y-38504761D01*
X122864166Y-38457142D01*
X122816547Y-38361904D01*
X122816547Y-38076190D01*
X122864166Y-37980952D01*
X122911785Y-37933333D01*
X123007023Y-37885714D01*
X123149880Y-37885714D01*
X123245119Y-37933333D01*
X123292738Y-37980952D01*
X123340357Y-38076190D01*
X123340357Y-38361904D01*
X123292738Y-38457142D01*
X123245119Y-38504761D01*
X123149880Y-38552380D01*
X123007023Y-38552380D01*
X86860000Y-30472142D02*
X86907619Y-30376904D01*
X86907619Y-30234047D01*
X86860000Y-30091190D01*
X86764761Y-29995952D01*
X86669523Y-29948333D01*
X86479047Y-29900714D01*
X86336190Y-29900714D01*
X86145714Y-29948333D01*
X86050476Y-29995952D01*
X85955238Y-30091190D01*
X85907619Y-30234047D01*
X85907619Y-30329285D01*
X85955238Y-30472142D01*
X86002857Y-30519761D01*
X86336190Y-30519761D01*
X86336190Y-30329285D01*
X86574285Y-30948333D02*
X85907619Y-30948333D01*
X86479047Y-30948333D02*
X86526666Y-30995952D01*
X86574285Y-31091190D01*
X86574285Y-31234047D01*
X86526666Y-31329285D01*
X86431428Y-31376904D01*
X85907619Y-31376904D01*
X85907619Y-32281666D02*
X86907619Y-32281666D01*
X85955238Y-32281666D02*
X85907619Y-32186428D01*
X85907619Y-31995952D01*
X85955238Y-31900714D01*
X86002857Y-31853095D01*
X86098095Y-31805476D01*
X86383809Y-31805476D01*
X86479047Y-31853095D01*
X86526666Y-31900714D01*
X86574285Y-31995952D01*
X86574285Y-32186428D01*
X86526666Y-32281666D01*
X88733333Y-30400714D02*
X88733333Y-30876904D01*
X88447619Y-30305476D02*
X89447619Y-30638809D01*
X88447619Y-30972142D01*
X89447619Y-31781666D02*
X89447619Y-31305476D01*
X88971428Y-31257857D01*
X89019047Y-31305476D01*
X89066666Y-31400714D01*
X89066666Y-31638809D01*
X89019047Y-31734047D01*
X88971428Y-31781666D01*
X88876190Y-31829285D01*
X88638095Y-31829285D01*
X88542857Y-31781666D01*
X88495238Y-31734047D01*
X88447619Y-31638809D01*
X88447619Y-31400714D01*
X88495238Y-31305476D01*
X88542857Y-31257857D01*
X91273333Y-30400714D02*
X91273333Y-30876904D01*
X90987619Y-30305476D02*
X91987619Y-30638809D01*
X90987619Y-30972142D01*
X91654285Y-31734047D02*
X90987619Y-31734047D01*
X92035238Y-31495952D02*
X91320952Y-31257857D01*
X91320952Y-31876904D01*
X93813333Y-30400714D02*
X93813333Y-30876904D01*
X93527619Y-30305476D02*
X94527619Y-30638809D01*
X93527619Y-30972142D01*
X94527619Y-31210238D02*
X94527619Y-31829285D01*
X94146666Y-31495952D01*
X94146666Y-31638809D01*
X94099047Y-31734047D01*
X94051428Y-31781666D01*
X93956190Y-31829285D01*
X93718095Y-31829285D01*
X93622857Y-31781666D01*
X93575238Y-31734047D01*
X93527619Y-31638809D01*
X93527619Y-31353095D01*
X93575238Y-31257857D01*
X93622857Y-31210238D01*
X96353333Y-30400714D02*
X96353333Y-30876904D01*
X96067619Y-30305476D02*
X97067619Y-30638809D01*
X96067619Y-30972142D01*
X96972380Y-31257857D02*
X97020000Y-31305476D01*
X97067619Y-31400714D01*
X97067619Y-31638809D01*
X97020000Y-31734047D01*
X96972380Y-31781666D01*
X96877142Y-31829285D01*
X96781904Y-31829285D01*
X96639047Y-31781666D01*
X96067619Y-31210238D01*
X96067619Y-31829285D01*
X98893333Y-30400714D02*
X98893333Y-30876904D01*
X98607619Y-30305476D02*
X99607619Y-30638809D01*
X98607619Y-30972142D01*
X98607619Y-31829285D02*
X98607619Y-31257857D01*
X98607619Y-31543571D02*
X99607619Y-31543571D01*
X99464761Y-31448333D01*
X99369523Y-31353095D01*
X99321904Y-31257857D01*
X101433333Y-30400714D02*
X101433333Y-30876904D01*
X101147619Y-30305476D02*
X102147619Y-30638809D01*
X101147619Y-30972142D01*
X102147619Y-31495952D02*
X102147619Y-31591190D01*
X102100000Y-31686428D01*
X102052380Y-31734047D01*
X101957142Y-31781666D01*
X101766666Y-31829285D01*
X101528571Y-31829285D01*
X101338095Y-31781666D01*
X101242857Y-31734047D01*
X101195238Y-31686428D01*
X101147619Y-31591190D01*
X101147619Y-31495952D01*
X101195238Y-31400714D01*
X101242857Y-31353095D01*
X101338095Y-31305476D01*
X101528571Y-31257857D01*
X101766666Y-31257857D01*
X101957142Y-31305476D01*
X102052380Y-31353095D01*
X102100000Y-31400714D01*
X102147619Y-31495952D01*
X109767619Y-29924523D02*
X108767619Y-30257857D01*
X109767619Y-30591190D01*
X108815238Y-31353095D02*
X108767619Y-31257857D01*
X108767619Y-31067380D01*
X108815238Y-30972142D01*
X108862857Y-30924523D01*
X108958095Y-30876904D01*
X109243809Y-30876904D01*
X109339047Y-30924523D01*
X109386666Y-30972142D01*
X109434285Y-31067380D01*
X109434285Y-31257857D01*
X109386666Y-31353095D01*
X108815238Y-32210238D02*
X108767619Y-32115000D01*
X108767619Y-31924523D01*
X108815238Y-31829285D01*
X108862857Y-31781666D01*
X108958095Y-31734047D01*
X109243809Y-31734047D01*
X109339047Y-31781666D01*
X109386666Y-31829285D01*
X109434285Y-31924523D01*
X109434285Y-32115000D01*
X109386666Y-32210238D01*
X103687619Y-30924523D02*
X103687619Y-30353095D01*
X103687619Y-30638809D02*
X104687619Y-30638809D01*
X104544761Y-30543571D01*
X104449523Y-30448333D01*
X104401904Y-30353095D01*
X104687619Y-31257857D02*
X104687619Y-31876904D01*
X104306666Y-31543571D01*
X104306666Y-31686428D01*
X104259047Y-31781666D01*
X104211428Y-31829285D01*
X104116190Y-31876904D01*
X103878095Y-31876904D01*
X103782857Y-31829285D01*
X103735238Y-31781666D01*
X103687619Y-31686428D01*
X103687619Y-31400714D01*
X103735238Y-31305476D01*
X103782857Y-31257857D01*
X106227619Y-30924523D02*
X106227619Y-30353095D01*
X106227619Y-30638809D02*
X107227619Y-30638809D01*
X107084761Y-30543571D01*
X106989523Y-30448333D01*
X106941904Y-30353095D01*
X107132380Y-31305476D02*
X107180000Y-31353095D01*
X107227619Y-31448333D01*
X107227619Y-31686428D01*
X107180000Y-31781666D01*
X107132380Y-31829285D01*
X107037142Y-31876904D01*
X106941904Y-31876904D01*
X106799047Y-31829285D01*
X106227619Y-31257857D01*
X106227619Y-31876904D01*
X108767619Y-63309523D02*
X108767619Y-62738095D01*
X108767619Y-63023809D02*
X109767619Y-63023809D01*
X109624761Y-62928571D01*
X109529523Y-62833333D01*
X109481904Y-62738095D01*
X108767619Y-64261904D02*
X108767619Y-63690476D01*
X108767619Y-63976190D02*
X109767619Y-63976190D01*
X109624761Y-63880952D01*
X109529523Y-63785714D01*
X109481904Y-63690476D01*
X106227619Y-63309523D02*
X106227619Y-62738095D01*
X106227619Y-63023809D02*
X107227619Y-63023809D01*
X107084761Y-62928571D01*
X106989523Y-62833333D01*
X106941904Y-62738095D01*
X107227619Y-63928571D02*
X107227619Y-64023809D01*
X107180000Y-64119047D01*
X107132380Y-64166666D01*
X107037142Y-64214285D01*
X106846666Y-64261904D01*
X106608571Y-64261904D01*
X106418095Y-64214285D01*
X106322857Y-64166666D01*
X106275238Y-64119047D01*
X106227619Y-64023809D01*
X106227619Y-63928571D01*
X106275238Y-63833333D01*
X106322857Y-63785714D01*
X106418095Y-63738095D01*
X106608571Y-63690476D01*
X106846666Y-63690476D01*
X107037142Y-63738095D01*
X107132380Y-63785714D01*
X107180000Y-63833333D01*
X107227619Y-63928571D01*
X103687619Y-63309523D02*
X103687619Y-63500000D01*
X103735238Y-63595238D01*
X103782857Y-63642857D01*
X103925714Y-63738095D01*
X104116190Y-63785714D01*
X104497142Y-63785714D01*
X104592380Y-63738095D01*
X104640000Y-63690476D01*
X104687619Y-63595238D01*
X104687619Y-63404761D01*
X104640000Y-63309523D01*
X104592380Y-63261904D01*
X104497142Y-63214285D01*
X104259047Y-63214285D01*
X104163809Y-63261904D01*
X104116190Y-63309523D01*
X104068571Y-63404761D01*
X104068571Y-63595238D01*
X104116190Y-63690476D01*
X104163809Y-63738095D01*
X104259047Y-63785714D01*
X101719047Y-63404761D02*
X101766666Y-63309523D01*
X101814285Y-63261904D01*
X101909523Y-63214285D01*
X101957142Y-63214285D01*
X102052380Y-63261904D01*
X102100000Y-63309523D01*
X102147619Y-63404761D01*
X102147619Y-63595238D01*
X102100000Y-63690476D01*
X102052380Y-63738095D01*
X101957142Y-63785714D01*
X101909523Y-63785714D01*
X101814285Y-63738095D01*
X101766666Y-63690476D01*
X101719047Y-63595238D01*
X101719047Y-63404761D01*
X101671428Y-63309523D01*
X101623809Y-63261904D01*
X101528571Y-63214285D01*
X101338095Y-63214285D01*
X101242857Y-63261904D01*
X101195238Y-63309523D01*
X101147619Y-63404761D01*
X101147619Y-63595238D01*
X101195238Y-63690476D01*
X101242857Y-63738095D01*
X101338095Y-63785714D01*
X101528571Y-63785714D01*
X101623809Y-63738095D01*
X101671428Y-63690476D01*
X101719047Y-63595238D01*
X99607619Y-63166666D02*
X99607619Y-63833333D01*
X98607619Y-63404761D01*
X97067619Y-63690476D02*
X97067619Y-63500000D01*
X97020000Y-63404761D01*
X96972380Y-63357142D01*
X96829523Y-63261904D01*
X96639047Y-63214285D01*
X96258095Y-63214285D01*
X96162857Y-63261904D01*
X96115238Y-63309523D01*
X96067619Y-63404761D01*
X96067619Y-63595238D01*
X96115238Y-63690476D01*
X96162857Y-63738095D01*
X96258095Y-63785714D01*
X96496190Y-63785714D01*
X96591428Y-63738095D01*
X96639047Y-63690476D01*
X96686666Y-63595238D01*
X96686666Y-63404761D01*
X96639047Y-63309523D01*
X96591428Y-63261904D01*
X96496190Y-63214285D01*
X94527619Y-63738095D02*
X94527619Y-63261904D01*
X94051428Y-63214285D01*
X94099047Y-63261904D01*
X94146666Y-63357142D01*
X94146666Y-63595238D01*
X94099047Y-63690476D01*
X94051428Y-63738095D01*
X93956190Y-63785714D01*
X93718095Y-63785714D01*
X93622857Y-63738095D01*
X93575238Y-63690476D01*
X93527619Y-63595238D01*
X93527619Y-63357142D01*
X93575238Y-63261904D01*
X93622857Y-63214285D01*
X91654285Y-63690476D02*
X90987619Y-63690476D01*
X92035238Y-63452380D02*
X91320952Y-63214285D01*
X91320952Y-63833333D01*
X89447619Y-63166666D02*
X89447619Y-63785714D01*
X89066666Y-63452380D01*
X89066666Y-63595238D01*
X89019047Y-63690476D01*
X88971428Y-63738095D01*
X88876190Y-63785714D01*
X88638095Y-63785714D01*
X88542857Y-63738095D01*
X88495238Y-63690476D01*
X88447619Y-63595238D01*
X88447619Y-63309523D01*
X88495238Y-63214285D01*
X88542857Y-63166666D01*
X86812380Y-63214285D02*
X86860000Y-63261904D01*
X86907619Y-63357142D01*
X86907619Y-63595238D01*
X86860000Y-63690476D01*
X86812380Y-63738095D01*
X86717142Y-63785714D01*
X86621904Y-63785714D01*
X86479047Y-63738095D01*
X85907619Y-63166666D01*
X85907619Y-63785714D01*
X155233809Y-37917380D02*
X155233809Y-36917380D01*
X155662380Y-37012619D02*
X155710000Y-36965000D01*
X155805238Y-36917380D01*
X156043333Y-36917380D01*
X156138571Y-36965000D01*
X156186190Y-37012619D01*
X156233809Y-37107857D01*
X156233809Y-37203095D01*
X156186190Y-37345952D01*
X155614761Y-37917380D01*
X156233809Y-37917380D01*
X157233809Y-37822142D02*
X157186190Y-37869761D01*
X157043333Y-37917380D01*
X156948095Y-37917380D01*
X156805238Y-37869761D01*
X156710000Y-37774523D01*
X156662380Y-37679285D01*
X156614761Y-37488809D01*
X156614761Y-37345952D01*
X156662380Y-37155476D01*
X156710000Y-37060238D01*
X156805238Y-36965000D01*
X156948095Y-36917380D01*
X157043333Y-36917380D01*
X157186190Y-36965000D01*
X157233809Y-37012619D01*
D11*
X152082500Y-42227500D02*
X152082500Y-38417500D01*
X160337500Y-42227500D02*
X152082500Y-42227500D01*
X160337500Y-38417500D02*
X160337500Y-42227500D01*
X152082500Y-38417500D02*
X160337500Y-38417500D01*
D10*
X158567500Y-40965357D02*
X158519880Y-41060595D01*
X158519880Y-41203452D01*
X158567500Y-41346309D01*
X158662738Y-41441547D01*
X158757976Y-41489166D01*
X158948452Y-41536785D01*
X159091309Y-41536785D01*
X159281785Y-41489166D01*
X159377023Y-41441547D01*
X159472261Y-41346309D01*
X159519880Y-41203452D01*
X159519880Y-41108214D01*
X159472261Y-40965357D01*
X159424642Y-40917738D01*
X159091309Y-40917738D01*
X159091309Y-41108214D01*
X158853214Y-40489166D02*
X159519880Y-40489166D01*
X158948452Y-40489166D02*
X158900833Y-40441547D01*
X158853214Y-40346309D01*
X158853214Y-40203452D01*
X158900833Y-40108214D01*
X158996071Y-40060595D01*
X159519880Y-40060595D01*
X159519880Y-39155833D02*
X158519880Y-39155833D01*
X159472261Y-39155833D02*
X159519880Y-39251071D01*
X159519880Y-39441547D01*
X159472261Y-39536785D01*
X159424642Y-39584404D01*
X159329404Y-39632023D01*
X159043690Y-39632023D01*
X158948452Y-39584404D01*
X158900833Y-39536785D01*
X158853214Y-39441547D01*
X158853214Y-39251071D01*
X158900833Y-39155833D01*
X156614880Y-41512976D02*
X157614880Y-41179642D01*
X156614880Y-40846309D01*
X157567261Y-40084404D02*
X157614880Y-40179642D01*
X157614880Y-40370119D01*
X157567261Y-40465357D01*
X157519642Y-40512976D01*
X157424404Y-40560595D01*
X157138690Y-40560595D01*
X157043452Y-40512976D01*
X156995833Y-40465357D01*
X156948214Y-40370119D01*
X156948214Y-40179642D01*
X156995833Y-40084404D01*
X157567261Y-39227261D02*
X157614880Y-39322500D01*
X157614880Y-39512976D01*
X157567261Y-39608214D01*
X157519642Y-39655833D01*
X157424404Y-39703452D01*
X157138690Y-39703452D01*
X157043452Y-39655833D01*
X156995833Y-39608214D01*
X156948214Y-39512976D01*
X156948214Y-39322500D01*
X156995833Y-39227261D01*
X153757261Y-41512976D02*
X153804880Y-41370119D01*
X153804880Y-41132023D01*
X153757261Y-41036785D01*
X153709642Y-40989166D01*
X153614404Y-40941547D01*
X153519166Y-40941547D01*
X153423928Y-40989166D01*
X153376309Y-41036785D01*
X153328690Y-41132023D01*
X153281071Y-41322500D01*
X153233452Y-41417738D01*
X153185833Y-41465357D01*
X153090595Y-41512976D01*
X152995357Y-41512976D01*
X152900119Y-41465357D01*
X152852500Y-41417738D01*
X152804880Y-41322500D01*
X152804880Y-41084404D01*
X152852500Y-40941547D01*
X153709642Y-39941547D02*
X153757261Y-39989166D01*
X153804880Y-40132023D01*
X153804880Y-40227261D01*
X153757261Y-40370119D01*
X153662023Y-40465357D01*
X153566785Y-40512976D01*
X153376309Y-40560595D01*
X153233452Y-40560595D01*
X153042976Y-40512976D01*
X152947738Y-40465357D01*
X152852500Y-40370119D01*
X152804880Y-40227261D01*
X152804880Y-40132023D01*
X152852500Y-39989166D01*
X152900119Y-39941547D01*
X153804880Y-39036785D02*
X153804880Y-39512976D01*
X152804880Y-39512976D01*
X155662261Y-41536785D02*
X155709880Y-41393928D01*
X155709880Y-41155833D01*
X155662261Y-41060595D01*
X155614642Y-41012976D01*
X155519404Y-40965357D01*
X155424166Y-40965357D01*
X155328928Y-41012976D01*
X155281309Y-41060595D01*
X155233690Y-41155833D01*
X155186071Y-41346309D01*
X155138452Y-41441547D01*
X155090833Y-41489166D01*
X154995595Y-41536785D01*
X154900357Y-41536785D01*
X154805119Y-41489166D01*
X154757500Y-41441547D01*
X154709880Y-41346309D01*
X154709880Y-41108214D01*
X154757500Y-40965357D01*
X155709880Y-40536785D02*
X154709880Y-40536785D01*
X154709880Y-40298690D01*
X154757500Y-40155833D01*
X154852738Y-40060595D01*
X154947976Y-40012976D01*
X155138452Y-39965357D01*
X155281309Y-39965357D01*
X155471785Y-40012976D01*
X155567023Y-40060595D01*
X155662261Y-40155833D01*
X155709880Y-40298690D01*
X155709880Y-40536785D01*
X155424166Y-39584404D02*
X155424166Y-39108214D01*
X155709880Y-39679642D02*
X154709880Y-39346309D01*
X155709880Y-39012976D01*
D11*
X111820000Y-27940000D02*
X111820000Y-29270000D01*
X111820000Y-29270000D02*
X110490000Y-29270000D01*
X109220000Y-29270000D02*
X86300000Y-29270000D01*
X86300000Y-26610000D02*
X86300000Y-29270000D01*
X109220000Y-26610000D02*
X86300000Y-26610000D01*
X109220000Y-26610000D02*
X109220000Y-29270000D01*
X109220000Y-59630000D02*
X109220000Y-62290000D01*
X109220000Y-59630000D02*
X86300000Y-59630000D01*
X86300000Y-59630000D02*
X86300000Y-62290000D01*
X109220000Y-62290000D02*
X86300000Y-62290000D01*
X111820000Y-62290000D02*
X110490000Y-62290000D01*
X111820000Y-60960000D02*
X111820000Y-62290000D01*
X153730000Y-27940000D02*
X153730000Y-29270000D01*
X153730000Y-29270000D02*
X152400000Y-29270000D01*
X151130000Y-29270000D02*
X128210000Y-29270000D01*
X128210000Y-26610000D02*
X128210000Y-29270000D01*
X151130000Y-26610000D02*
X128210000Y-26610000D01*
X151130000Y-26610000D02*
X151130000Y-29270000D01*
X151130000Y-59630000D02*
X151130000Y-62290000D01*
X151130000Y-59630000D02*
X128210000Y-59630000D01*
X128210000Y-59630000D02*
X128210000Y-62290000D01*
X151130000Y-62290000D02*
X128210000Y-62290000D01*
X153730000Y-62290000D02*
X152400000Y-62290000D01*
X153730000Y-60960000D02*
X153730000Y-62290000D01*
X171510000Y-30540000D02*
X171510000Y-27880000D01*
X163830000Y-30540000D02*
X171510000Y-30540000D01*
X163830000Y-27880000D02*
X171510000Y-27880000D01*
X163830000Y-30540000D02*
X163830000Y-27880000D01*
X162560000Y-30540000D02*
X161230000Y-30540000D01*
X161230000Y-30540000D02*
X161230000Y-29210000D01*
X161230000Y-27365000D02*
X161230000Y-26035000D01*
X162560000Y-27365000D02*
X161230000Y-27365000D01*
X163830000Y-27365000D02*
X163830000Y-24705000D01*
X163830000Y-24705000D02*
X171510000Y-24705000D01*
X163830000Y-27365000D02*
X171510000Y-27365000D01*
X171510000Y-27365000D02*
X171510000Y-24705000D01*
X166430000Y-63560000D02*
X165100000Y-63560000D01*
X166430000Y-62230000D02*
X166430000Y-63560000D01*
X166430000Y-60960000D02*
X163770000Y-60960000D01*
X163770000Y-60960000D02*
X163770000Y-32960000D01*
X166430000Y-60960000D02*
X166430000Y-32960000D01*
X166430000Y-32960000D02*
X163770000Y-32960000D01*
X168970000Y-63560000D02*
X167640000Y-63560000D01*
X168970000Y-62230000D02*
X168970000Y-63560000D01*
X168970000Y-60960000D02*
X166310000Y-60960000D01*
X166310000Y-60960000D02*
X166310000Y-32960000D01*
X168970000Y-60960000D02*
X168970000Y-32960000D01*
X168970000Y-32960000D02*
X166310000Y-32960000D01*
X171510000Y-32960000D02*
X168850000Y-32960000D01*
X171510000Y-60960000D02*
X171510000Y-32960000D01*
X168850000Y-60960000D02*
X168850000Y-32960000D01*
X171510000Y-60960000D02*
X168850000Y-60960000D01*
X171510000Y-62230000D02*
X171510000Y-63560000D01*
X171510000Y-63560000D02*
X170180000Y-63560000D01*
X41970000Y-38795000D02*
X40640000Y-38795000D01*
X41970000Y-37465000D02*
X41970000Y-38795000D01*
X41970000Y-36195000D02*
X39310000Y-36195000D01*
X39310000Y-36195000D02*
X39310000Y-33595000D01*
X41970000Y-36195000D02*
X41970000Y-33595000D01*
X41970000Y-33595000D02*
X39310000Y-33595000D01*
X88840000Y-26730000D02*
X88840000Y-25400000D01*
X90170000Y-26730000D02*
X88840000Y-26730000D01*
X91440000Y-26730000D02*
X91440000Y-24070000D01*
X91440000Y-24070000D02*
X104200000Y-24070000D01*
X91440000Y-26730000D02*
X104200000Y-26730000D01*
X104200000Y-26730000D02*
X104200000Y-24070000D01*
X67310000Y-26610000D02*
X67310000Y-29270000D01*
X67310000Y-26610000D02*
X44390000Y-26610000D01*
X44390000Y-26610000D02*
X44390000Y-29270000D01*
X67310000Y-29270000D02*
X44390000Y-29270000D01*
X69910000Y-29270000D02*
X68580000Y-29270000D01*
X69910000Y-27940000D02*
X69910000Y-29270000D01*
X69910000Y-60960000D02*
X69910000Y-62290000D01*
X69910000Y-62290000D02*
X68580000Y-62290000D01*
X67310000Y-62290000D02*
X44390000Y-62290000D01*
X44390000Y-59630000D02*
X44390000Y-62290000D01*
X67310000Y-59630000D02*
X44390000Y-59630000D01*
X67310000Y-59630000D02*
X67310000Y-62290000D01*
M02*
