M48
INCH,TZ
T1C0.0354
T2C0.0394
T3C0.0433
T4C0.1260
%
G90
G05
T1
X39375Y-27375
X41250Y-28500
X43125Y-29625
X43125Y-33750
T2
X36500Y-27500
X49500Y-26500
X36500Y-30500
X45500Y-33375
X46500Y-33375
X47500Y-33375
X49500Y-24500
X36500Y-23500
X49500Y-31500
X36500Y-24500
X49500Y-29500
X36500Y-26500
X49500Y-27500
X36500Y-29500
X49500Y-25500
X36500Y-31500
X49500Y-32500
X49500Y-23500
X36500Y-32500
X49500Y-30500
X36500Y-25500
X49500Y-28500
X36500Y-28500
T3
X45728Y-29000
X45728Y-31559
X47500Y-29000
X47500Y-31559
X42228Y-32750
X42228Y-35309
X44000Y-32750
X44000Y-35309
X45728Y-20625
X45728Y-23184
X47500Y-20625
X47500Y-23184
X42228Y-25250
X42228Y-27809
X44000Y-25250
X44000Y-27809
X38728Y-29000
X38728Y-31559
X40500Y-29000
X40500Y-31559
X42228Y-29000
X42228Y-31559
X44000Y-29000
X44000Y-31559
X38728Y-20625
X38728Y-23184
X40500Y-20625
X40500Y-23184
X42228Y-20625
X42228Y-23184
X44000Y-20625
X44000Y-23184
T4
X49500Y-34500
X49500Y-21500
X36500Y-34500
X36500Y-21500
T0
M30
