G04 #@! TF.GenerationSoftware,KiCad,Pcbnew,(5.1.8)-1*
G04 #@! TF.CreationDate,2020-11-07T15:34:37+03:00*
G04 #@! TF.ProjectId,ArrowKbd,4172726f-774b-4626-942e-6b696361645f,rev?*
G04 #@! TF.SameCoordinates,Original*
G04 #@! TF.FileFunction,Soldermask,Top*
G04 #@! TF.FilePolarity,Negative*
%FSLAX46Y46*%
G04 Gerber Fmt 4.6, Leading zero omitted, Abs format (unit mm)*
G04 Created by KiCad (PCBNEW (5.1.8)-1) date 2020-11-07 15:34:37*
%MOMM*%
%LPD*%
G01*
G04 APERTURE LIST*
%ADD10C,3.302000*%
%ADD11O,2.102000X2.102000*%
%ADD12C,2.102000*%
G04 APERTURE END LIST*
D10*
X92710000Y-54610000D03*
X92710000Y-87630000D03*
X125730000Y-54610000D03*
X125730000Y-87630000D03*
G36*
G01*
X124829000Y-83400000D02*
X124829000Y-81700000D01*
G75*
G02*
X124880000Y-81649000I51000J0D01*
G01*
X126580000Y-81649000D01*
G75*
G02*
X126631000Y-81700000I0J-51000D01*
G01*
X126631000Y-83400000D01*
G75*
G02*
X126580000Y-83451000I-51000J0D01*
G01*
X124880000Y-83451000D01*
G75*
G02*
X124829000Y-83400000I0J51000D01*
G01*
G37*
G36*
G01*
X124829000Y-80860000D02*
X124829000Y-79160000D01*
G75*
G02*
X124880000Y-79109000I51000J0D01*
G01*
X126580000Y-79109000D01*
G75*
G02*
X126631000Y-79160000I0J-51000D01*
G01*
X126631000Y-80860000D01*
G75*
G02*
X126580000Y-80911000I-51000J0D01*
G01*
X124880000Y-80911000D01*
G75*
G02*
X124829000Y-80860000I0J51000D01*
G01*
G37*
G36*
G01*
X124829000Y-78320000D02*
X124829000Y-76620000D01*
G75*
G02*
X124880000Y-76569000I51000J0D01*
G01*
X126580000Y-76569000D01*
G75*
G02*
X126631000Y-76620000I0J-51000D01*
G01*
X126631000Y-78320000D01*
G75*
G02*
X126580000Y-78371000I-51000J0D01*
G01*
X124880000Y-78371000D01*
G75*
G02*
X124829000Y-78320000I0J51000D01*
G01*
G37*
G36*
G01*
X124829000Y-75780000D02*
X124829000Y-74080000D01*
G75*
G02*
X124880000Y-74029000I51000J0D01*
G01*
X126580000Y-74029000D01*
G75*
G02*
X126631000Y-74080000I0J-51000D01*
G01*
X126631000Y-75780000D01*
G75*
G02*
X126580000Y-75831000I-51000J0D01*
G01*
X124880000Y-75831000D01*
G75*
G02*
X124829000Y-75780000I0J51000D01*
G01*
G37*
G36*
G01*
X124829000Y-73240000D02*
X124829000Y-71540000D01*
G75*
G02*
X124880000Y-71489000I51000J0D01*
G01*
X126580000Y-71489000D01*
G75*
G02*
X126631000Y-71540000I0J-51000D01*
G01*
X126631000Y-73240000D01*
G75*
G02*
X126580000Y-73291000I-51000J0D01*
G01*
X124880000Y-73291000D01*
G75*
G02*
X124829000Y-73240000I0J51000D01*
G01*
G37*
G36*
G01*
X124829000Y-70700000D02*
X124829000Y-69000000D01*
G75*
G02*
X124880000Y-68949000I51000J0D01*
G01*
X126580000Y-68949000D01*
G75*
G02*
X126631000Y-69000000I0J-51000D01*
G01*
X126631000Y-70700000D01*
G75*
G02*
X126580000Y-70751000I-51000J0D01*
G01*
X124880000Y-70751000D01*
G75*
G02*
X124829000Y-70700000I0J51000D01*
G01*
G37*
G36*
G01*
X124829000Y-68160000D02*
X124829000Y-66460000D01*
G75*
G02*
X124880000Y-66409000I51000J0D01*
G01*
X126580000Y-66409000D01*
G75*
G02*
X126631000Y-66460000I0J-51000D01*
G01*
X126631000Y-68160000D01*
G75*
G02*
X126580000Y-68211000I-51000J0D01*
G01*
X124880000Y-68211000D01*
G75*
G02*
X124829000Y-68160000I0J51000D01*
G01*
G37*
G36*
G01*
X124829000Y-65620000D02*
X124829000Y-63920000D01*
G75*
G02*
X124880000Y-63869000I51000J0D01*
G01*
X126580000Y-63869000D01*
G75*
G02*
X126631000Y-63920000I0J-51000D01*
G01*
X126631000Y-65620000D01*
G75*
G02*
X126580000Y-65671000I-51000J0D01*
G01*
X124880000Y-65671000D01*
G75*
G02*
X124829000Y-65620000I0J51000D01*
G01*
G37*
G36*
G01*
X124829000Y-63080000D02*
X124829000Y-61380000D01*
G75*
G02*
X124880000Y-61329000I51000J0D01*
G01*
X126580000Y-61329000D01*
G75*
G02*
X126631000Y-61380000I0J-51000D01*
G01*
X126631000Y-63080000D01*
G75*
G02*
X126580000Y-63131000I-51000J0D01*
G01*
X124880000Y-63131000D01*
G75*
G02*
X124829000Y-63080000I0J51000D01*
G01*
G37*
G36*
G01*
X124829000Y-60540000D02*
X124829000Y-58840000D01*
G75*
G02*
X124880000Y-58789000I51000J0D01*
G01*
X126580000Y-58789000D01*
G75*
G02*
X126631000Y-58840000I0J-51000D01*
G01*
X126631000Y-60540000D01*
G75*
G02*
X126580000Y-60591000I-51000J0D01*
G01*
X124880000Y-60591000D01*
G75*
G02*
X124829000Y-60540000I0J51000D01*
G01*
G37*
G36*
G01*
X91809000Y-63080000D02*
X91809000Y-61380000D01*
G75*
G02*
X91860000Y-61329000I51000J0D01*
G01*
X93560000Y-61329000D01*
G75*
G02*
X93611000Y-61380000I0J-51000D01*
G01*
X93611000Y-63080000D01*
G75*
G02*
X93560000Y-63131000I-51000J0D01*
G01*
X91860000Y-63131000D01*
G75*
G02*
X91809000Y-63080000I0J51000D01*
G01*
G37*
G36*
G01*
X91809000Y-65620000D02*
X91809000Y-63920000D01*
G75*
G02*
X91860000Y-63869000I51000J0D01*
G01*
X93560000Y-63869000D01*
G75*
G02*
X93611000Y-63920000I0J-51000D01*
G01*
X93611000Y-65620000D01*
G75*
G02*
X93560000Y-65671000I-51000J0D01*
G01*
X91860000Y-65671000D01*
G75*
G02*
X91809000Y-65620000I0J51000D01*
G01*
G37*
G36*
G01*
X91809000Y-68160000D02*
X91809000Y-66460000D01*
G75*
G02*
X91860000Y-66409000I51000J0D01*
G01*
X93560000Y-66409000D01*
G75*
G02*
X93611000Y-66460000I0J-51000D01*
G01*
X93611000Y-68160000D01*
G75*
G02*
X93560000Y-68211000I-51000J0D01*
G01*
X91860000Y-68211000D01*
G75*
G02*
X91809000Y-68160000I0J51000D01*
G01*
G37*
G36*
G01*
X91809000Y-70700000D02*
X91809000Y-69000000D01*
G75*
G02*
X91860000Y-68949000I51000J0D01*
G01*
X93560000Y-68949000D01*
G75*
G02*
X93611000Y-69000000I0J-51000D01*
G01*
X93611000Y-70700000D01*
G75*
G02*
X93560000Y-70751000I-51000J0D01*
G01*
X91860000Y-70751000D01*
G75*
G02*
X91809000Y-70700000I0J51000D01*
G01*
G37*
G36*
G01*
X91809000Y-73240000D02*
X91809000Y-71540000D01*
G75*
G02*
X91860000Y-71489000I51000J0D01*
G01*
X93560000Y-71489000D01*
G75*
G02*
X93611000Y-71540000I0J-51000D01*
G01*
X93611000Y-73240000D01*
G75*
G02*
X93560000Y-73291000I-51000J0D01*
G01*
X91860000Y-73291000D01*
G75*
G02*
X91809000Y-73240000I0J51000D01*
G01*
G37*
G36*
G01*
X91809000Y-75780000D02*
X91809000Y-74080000D01*
G75*
G02*
X91860000Y-74029000I51000J0D01*
G01*
X93560000Y-74029000D01*
G75*
G02*
X93611000Y-74080000I0J-51000D01*
G01*
X93611000Y-75780000D01*
G75*
G02*
X93560000Y-75831000I-51000J0D01*
G01*
X91860000Y-75831000D01*
G75*
G02*
X91809000Y-75780000I0J51000D01*
G01*
G37*
G36*
G01*
X91809000Y-78320000D02*
X91809000Y-76620000D01*
G75*
G02*
X91860000Y-76569000I51000J0D01*
G01*
X93560000Y-76569000D01*
G75*
G02*
X93611000Y-76620000I0J-51000D01*
G01*
X93611000Y-78320000D01*
G75*
G02*
X93560000Y-78371000I-51000J0D01*
G01*
X91860000Y-78371000D01*
G75*
G02*
X91809000Y-78320000I0J51000D01*
G01*
G37*
G36*
G01*
X91809000Y-80860000D02*
X91809000Y-79160000D01*
G75*
G02*
X91860000Y-79109000I51000J0D01*
G01*
X93560000Y-79109000D01*
G75*
G02*
X93611000Y-79160000I0J-51000D01*
G01*
X93611000Y-80860000D01*
G75*
G02*
X93560000Y-80911000I-51000J0D01*
G01*
X91860000Y-80911000D01*
G75*
G02*
X91809000Y-80860000I0J51000D01*
G01*
G37*
G36*
G01*
X91809000Y-60540000D02*
X91809000Y-58840000D01*
G75*
G02*
X91860000Y-58789000I51000J0D01*
G01*
X93560000Y-58789000D01*
G75*
G02*
X93611000Y-58840000I0J-51000D01*
G01*
X93611000Y-60540000D01*
G75*
G02*
X93560000Y-60591000I-51000J0D01*
G01*
X91860000Y-60591000D01*
G75*
G02*
X91809000Y-60540000I0J51000D01*
G01*
G37*
G36*
G01*
X91809000Y-83400000D02*
X91809000Y-81700000D01*
G75*
G02*
X91860000Y-81649000I51000J0D01*
G01*
X93560000Y-81649000D01*
G75*
G02*
X93611000Y-81700000I0J-51000D01*
G01*
X93611000Y-83400000D01*
G75*
G02*
X93560000Y-83451000I-51000J0D01*
G01*
X91860000Y-83451000D01*
G75*
G02*
X91809000Y-83400000I0J51000D01*
G01*
G37*
G36*
G01*
X119650000Y-83721500D02*
X121650000Y-83721500D01*
G75*
G02*
X121701000Y-83772500I0J-51000D01*
G01*
X121701000Y-85772500D01*
G75*
G02*
X121650000Y-85823500I-51000J0D01*
G01*
X119650000Y-85823500D01*
G75*
G02*
X119599000Y-85772500I0J51000D01*
G01*
X119599000Y-83772500D01*
G75*
G02*
X119650000Y-83721500I51000J0D01*
G01*
G37*
D11*
X118110000Y-84772500D03*
X115570000Y-84772500D03*
G36*
G01*
X98806000Y-61116172D02*
X98806000Y-62073828D01*
G75*
G02*
X98533828Y-62346000I-272172J0D01*
G01*
X97826172Y-62346000D01*
G75*
G02*
X97554000Y-62073828I0J272172D01*
G01*
X97554000Y-61116172D01*
G75*
G02*
X97826172Y-60844000I272172J0D01*
G01*
X98533828Y-60844000D01*
G75*
G02*
X98806000Y-61116172I0J-272172D01*
G01*
G37*
G36*
G01*
X96756000Y-61116172D02*
X96756000Y-62073828D01*
G75*
G02*
X96483828Y-62346000I-272172J0D01*
G01*
X95776172Y-62346000D01*
G75*
G02*
X95504000Y-62073828I0J272172D01*
G01*
X95504000Y-61116172D01*
G75*
G02*
X95776172Y-60844000I272172J0D01*
G01*
X96483828Y-60844000D01*
G75*
G02*
X96756000Y-61116172I0J-272172D01*
G01*
G37*
D12*
X102870000Y-80160000D03*
X98370000Y-80160000D03*
X102870000Y-73660000D03*
X98370000Y-73660000D03*
X116150000Y-73660000D03*
X120650000Y-73660000D03*
X116150000Y-80160000D03*
X120650000Y-80160000D03*
X111760000Y-80160000D03*
X107260000Y-80160000D03*
X111760000Y-73660000D03*
X107260000Y-73660000D03*
X107260000Y-83185000D03*
X111760000Y-83185000D03*
X107260000Y-89685000D03*
X111760000Y-89685000D03*
X102870000Y-58887500D03*
X98370000Y-58887500D03*
X102870000Y-52387500D03*
X98370000Y-52387500D03*
X116150000Y-52387500D03*
X120650000Y-52387500D03*
X116150000Y-58887500D03*
X120650000Y-58887500D03*
X107260000Y-52387500D03*
X111760000Y-52387500D03*
X107260000Y-58887500D03*
X111760000Y-58887500D03*
X111760000Y-70635000D03*
X107260000Y-70635000D03*
X111760000Y-64135000D03*
X107260000Y-64135000D03*
M02*
