G04 #@! TF.GenerationSoftware,KiCad,Pcbnew,(5.1.8)-1*
G04 #@! TF.CreationDate,2020-11-07T15:34:37+03:00*
G04 #@! TF.ProjectId,ArrowKbd,4172726f-774b-4626-942e-6b696361645f,rev?*
G04 #@! TF.SameCoordinates,Original*
G04 #@! TF.FileFunction,Legend,Bot*
G04 #@! TF.FilePolarity,Positive*
%FSLAX46Y46*%
G04 Gerber Fmt 4.6, Leading zero omitted, Abs format (unit mm)*
G04 Created by KiCad (PCBNEW (5.1.8)-1) date 2020-11-07 15:34:37*
%MOMM*%
%LPD*%
G01*
G04 APERTURE LIST*
%ADD10C,0.120000*%
%ADD11C,0.150000*%
G04 APERTURE END LIST*
D10*
X105485000Y-69793752D02*
X105485000Y-69271248D01*
X104065000Y-69793752D02*
X104065000Y-69271248D01*
X114607500Y-70120000D02*
X118907500Y-70120000D01*
X114607500Y-72120000D02*
X114607500Y-70120000D01*
X118907500Y-72120000D02*
X114607500Y-72120000D01*
X118907500Y-69580000D02*
X114607500Y-69580000D01*
X114607500Y-69580000D02*
X114607500Y-67580000D01*
X114607500Y-67580000D02*
X118907500Y-67580000D01*
X118907500Y-65770000D02*
X114607500Y-65770000D01*
X114607500Y-65770000D02*
X114607500Y-63770000D01*
X114607500Y-63770000D02*
X118907500Y-63770000D01*
X114607500Y-61230000D02*
X118907500Y-61230000D01*
X114607500Y-63230000D02*
X114607500Y-61230000D01*
X118907500Y-63230000D02*
X114607500Y-63230000D01*
X105802500Y-74986248D02*
X105802500Y-75508752D01*
X104382500Y-74986248D02*
X104382500Y-75508752D01*
X100703748Y-72465000D02*
X101226252Y-72465000D01*
X100703748Y-71045000D02*
X101226252Y-71045000D01*
X99695000Y-60662500D02*
X101645000Y-60662500D01*
X99695000Y-60662500D02*
X97745000Y-60662500D01*
X99695000Y-70782500D02*
X101645000Y-70782500D01*
X99695000Y-70782500D02*
X96245000Y-70782500D01*
D11*
X106782142Y-68413333D02*
X106829761Y-68365714D01*
X106877380Y-68222857D01*
X106877380Y-68127619D01*
X106829761Y-67984761D01*
X106734523Y-67889523D01*
X106639285Y-67841904D01*
X106448809Y-67794285D01*
X106305952Y-67794285D01*
X106115476Y-67841904D01*
X106020238Y-67889523D01*
X105925000Y-67984761D01*
X105877380Y-68127619D01*
X105877380Y-68222857D01*
X105925000Y-68365714D01*
X105972619Y-68413333D01*
X106877380Y-69365714D02*
X106877380Y-68794285D01*
X106877380Y-69080000D02*
X105877380Y-69080000D01*
X106020238Y-68984761D01*
X106115476Y-68889523D01*
X106163095Y-68794285D01*
X121705595Y-71572380D02*
X121705595Y-70572380D01*
X121467500Y-70572380D01*
X121324642Y-70620000D01*
X121229404Y-70715238D01*
X121181785Y-70810476D01*
X121134166Y-71000952D01*
X121134166Y-71143809D01*
X121181785Y-71334285D01*
X121229404Y-71429523D01*
X121324642Y-71524761D01*
X121467500Y-71572380D01*
X121705595Y-71572380D01*
X120181785Y-71572380D02*
X120753214Y-71572380D01*
X120467500Y-71572380D02*
X120467500Y-70572380D01*
X120562738Y-70715238D01*
X120657976Y-70810476D01*
X120753214Y-70858095D01*
X121705595Y-69032380D02*
X121705595Y-68032380D01*
X121467500Y-68032380D01*
X121324642Y-68080000D01*
X121229404Y-68175238D01*
X121181785Y-68270476D01*
X121134166Y-68460952D01*
X121134166Y-68603809D01*
X121181785Y-68794285D01*
X121229404Y-68889523D01*
X121324642Y-68984761D01*
X121467500Y-69032380D01*
X121705595Y-69032380D01*
X120753214Y-68127619D02*
X120705595Y-68080000D01*
X120610357Y-68032380D01*
X120372261Y-68032380D01*
X120277023Y-68080000D01*
X120229404Y-68127619D01*
X120181785Y-68222857D01*
X120181785Y-68318095D01*
X120229404Y-68460952D01*
X120800833Y-69032380D01*
X120181785Y-69032380D01*
X121705595Y-65222380D02*
X121705595Y-64222380D01*
X121467500Y-64222380D01*
X121324642Y-64270000D01*
X121229404Y-64365238D01*
X121181785Y-64460476D01*
X121134166Y-64650952D01*
X121134166Y-64793809D01*
X121181785Y-64984285D01*
X121229404Y-65079523D01*
X121324642Y-65174761D01*
X121467500Y-65222380D01*
X121705595Y-65222380D01*
X120800833Y-64222380D02*
X120181785Y-64222380D01*
X120515119Y-64603333D01*
X120372261Y-64603333D01*
X120277023Y-64650952D01*
X120229404Y-64698571D01*
X120181785Y-64793809D01*
X120181785Y-65031904D01*
X120229404Y-65127142D01*
X120277023Y-65174761D01*
X120372261Y-65222380D01*
X120657976Y-65222380D01*
X120753214Y-65174761D01*
X120800833Y-65127142D01*
X121705595Y-62682380D02*
X121705595Y-61682380D01*
X121467500Y-61682380D01*
X121324642Y-61730000D01*
X121229404Y-61825238D01*
X121181785Y-61920476D01*
X121134166Y-62110952D01*
X121134166Y-62253809D01*
X121181785Y-62444285D01*
X121229404Y-62539523D01*
X121324642Y-62634761D01*
X121467500Y-62682380D01*
X121705595Y-62682380D01*
X120277023Y-62015714D02*
X120277023Y-62682380D01*
X120515119Y-61634761D02*
X120753214Y-62349047D01*
X120134166Y-62349047D01*
X103894880Y-75715833D02*
X103418690Y-75382500D01*
X103894880Y-75144404D02*
X102894880Y-75144404D01*
X102894880Y-75525357D01*
X102942500Y-75620595D01*
X102990119Y-75668214D01*
X103085357Y-75715833D01*
X103228214Y-75715833D01*
X103323452Y-75668214D01*
X103371071Y-75620595D01*
X103418690Y-75525357D01*
X103418690Y-75144404D01*
X103894880Y-76668214D02*
X103894880Y-76096785D01*
X103894880Y-76382500D02*
X102894880Y-76382500D01*
X103037738Y-76287261D01*
X103132976Y-76192023D01*
X103180595Y-76096785D01*
X101131666Y-73857380D02*
X101465000Y-73381190D01*
X101703095Y-73857380D02*
X101703095Y-72857380D01*
X101322142Y-72857380D01*
X101226904Y-72905000D01*
X101179285Y-72952619D01*
X101131666Y-73047857D01*
X101131666Y-73190714D01*
X101179285Y-73285952D01*
X101226904Y-73333571D01*
X101322142Y-73381190D01*
X101703095Y-73381190D01*
X100798333Y-72857380D02*
X100179285Y-72857380D01*
X100512619Y-73238333D01*
X100369761Y-73238333D01*
X100274523Y-73285952D01*
X100226904Y-73333571D01*
X100179285Y-73428809D01*
X100179285Y-73666904D01*
X100226904Y-73762142D01*
X100274523Y-73809761D01*
X100369761Y-73857380D01*
X100655476Y-73857380D01*
X100750714Y-73809761D01*
X100798333Y-73762142D01*
X98551904Y-71074880D02*
X98551904Y-71884404D01*
X98504285Y-71979642D01*
X98456666Y-72027261D01*
X98361428Y-72074880D01*
X98170952Y-72074880D01*
X98075714Y-72027261D01*
X98028095Y-71979642D01*
X97980476Y-71884404D01*
X97980476Y-71074880D01*
X96980476Y-72074880D02*
X97551904Y-72074880D01*
X97266190Y-72074880D02*
X97266190Y-71074880D01*
X97361428Y-71217738D01*
X97456666Y-71312976D01*
X97551904Y-71360595D01*
M02*
