G04 #@! TF.GenerationSoftware,KiCad,Pcbnew,(5.1.4)-1*
G04 #@! TF.CreationDate,2020-03-08T22:11:45+03:00*
G04 #@! TF.ProjectId,ArrowKbd,4172726f-774b-4626-942e-6b696361645f,rev?*
G04 #@! TF.SameCoordinates,Original*
G04 #@! TF.FileFunction,Paste,Top*
G04 #@! TF.FilePolarity,Positive*
%FSLAX46Y46*%
G04 Gerber Fmt 4.6, Leading zero omitted, Abs format (unit mm)*
G04 Created by KiCad (PCBNEW (5.1.4)-1) date 2020-03-08 22:11:45*
%MOMM*%
%LPD*%
G04 APERTURE LIST*
%ADD10C,0.100000*%
%ADD11C,1.150000*%
G04 APERTURE END LIST*
D10*
G36*
X104614505Y-84271204D02*
G01*
X104638773Y-84274804D01*
X104662572Y-84280765D01*
X104685671Y-84289030D01*
X104707850Y-84299520D01*
X104728893Y-84312132D01*
X104748599Y-84326747D01*
X104766777Y-84343223D01*
X104783253Y-84361401D01*
X104797868Y-84381107D01*
X104810480Y-84402150D01*
X104820970Y-84424329D01*
X104829235Y-84447428D01*
X104835196Y-84471227D01*
X104838796Y-84495495D01*
X104840000Y-84519999D01*
X104840000Y-85170001D01*
X104838796Y-85194505D01*
X104835196Y-85218773D01*
X104829235Y-85242572D01*
X104820970Y-85265671D01*
X104810480Y-85287850D01*
X104797868Y-85308893D01*
X104783253Y-85328599D01*
X104766777Y-85346777D01*
X104748599Y-85363253D01*
X104728893Y-85377868D01*
X104707850Y-85390480D01*
X104685671Y-85400970D01*
X104662572Y-85409235D01*
X104638773Y-85415196D01*
X104614505Y-85418796D01*
X104590001Y-85420000D01*
X103689999Y-85420000D01*
X103665495Y-85418796D01*
X103641227Y-85415196D01*
X103617428Y-85409235D01*
X103594329Y-85400970D01*
X103572150Y-85390480D01*
X103551107Y-85377868D01*
X103531401Y-85363253D01*
X103513223Y-85346777D01*
X103496747Y-85328599D01*
X103482132Y-85308893D01*
X103469520Y-85287850D01*
X103459030Y-85265671D01*
X103450765Y-85242572D01*
X103444804Y-85218773D01*
X103441204Y-85194505D01*
X103440000Y-85170001D01*
X103440000Y-84519999D01*
X103441204Y-84495495D01*
X103444804Y-84471227D01*
X103450765Y-84447428D01*
X103459030Y-84424329D01*
X103469520Y-84402150D01*
X103482132Y-84381107D01*
X103496747Y-84361401D01*
X103513223Y-84343223D01*
X103531401Y-84326747D01*
X103551107Y-84312132D01*
X103572150Y-84299520D01*
X103594329Y-84289030D01*
X103617428Y-84280765D01*
X103641227Y-84274804D01*
X103665495Y-84271204D01*
X103689999Y-84270000D01*
X104590001Y-84270000D01*
X104614505Y-84271204D01*
X104614505Y-84271204D01*
G37*
D11*
X104140000Y-84845000D03*
D10*
G36*
X104614505Y-82221204D02*
G01*
X104638773Y-82224804D01*
X104662572Y-82230765D01*
X104685671Y-82239030D01*
X104707850Y-82249520D01*
X104728893Y-82262132D01*
X104748599Y-82276747D01*
X104766777Y-82293223D01*
X104783253Y-82311401D01*
X104797868Y-82331107D01*
X104810480Y-82352150D01*
X104820970Y-82374329D01*
X104829235Y-82397428D01*
X104835196Y-82421227D01*
X104838796Y-82445495D01*
X104840000Y-82469999D01*
X104840000Y-83120001D01*
X104838796Y-83144505D01*
X104835196Y-83168773D01*
X104829235Y-83192572D01*
X104820970Y-83215671D01*
X104810480Y-83237850D01*
X104797868Y-83258893D01*
X104783253Y-83278599D01*
X104766777Y-83296777D01*
X104748599Y-83313253D01*
X104728893Y-83327868D01*
X104707850Y-83340480D01*
X104685671Y-83350970D01*
X104662572Y-83359235D01*
X104638773Y-83365196D01*
X104614505Y-83368796D01*
X104590001Y-83370000D01*
X103689999Y-83370000D01*
X103665495Y-83368796D01*
X103641227Y-83365196D01*
X103617428Y-83359235D01*
X103594329Y-83350970D01*
X103572150Y-83340480D01*
X103551107Y-83327868D01*
X103531401Y-83313253D01*
X103513223Y-83296777D01*
X103496747Y-83278599D01*
X103482132Y-83258893D01*
X103469520Y-83237850D01*
X103459030Y-83215671D01*
X103450765Y-83192572D01*
X103444804Y-83168773D01*
X103441204Y-83144505D01*
X103440000Y-83120001D01*
X103440000Y-82469999D01*
X103441204Y-82445495D01*
X103444804Y-82421227D01*
X103450765Y-82397428D01*
X103459030Y-82374329D01*
X103469520Y-82352150D01*
X103482132Y-82331107D01*
X103496747Y-82311401D01*
X103513223Y-82293223D01*
X103531401Y-82276747D01*
X103551107Y-82262132D01*
X103572150Y-82249520D01*
X103594329Y-82239030D01*
X103617428Y-82230765D01*
X103641227Y-82224804D01*
X103665495Y-82221204D01*
X103689999Y-82220000D01*
X104590001Y-82220000D01*
X104614505Y-82221204D01*
X104614505Y-82221204D01*
G37*
D11*
X104140000Y-82795000D03*
D10*
G36*
X98529505Y-60896204D02*
G01*
X98553773Y-60899804D01*
X98577572Y-60905765D01*
X98600671Y-60914030D01*
X98622850Y-60924520D01*
X98643893Y-60937132D01*
X98663599Y-60951747D01*
X98681777Y-60968223D01*
X98698253Y-60986401D01*
X98712868Y-61006107D01*
X98725480Y-61027150D01*
X98735970Y-61049329D01*
X98744235Y-61072428D01*
X98750196Y-61096227D01*
X98753796Y-61120495D01*
X98755000Y-61144999D01*
X98755000Y-62045001D01*
X98753796Y-62069505D01*
X98750196Y-62093773D01*
X98744235Y-62117572D01*
X98735970Y-62140671D01*
X98725480Y-62162850D01*
X98712868Y-62183893D01*
X98698253Y-62203599D01*
X98681777Y-62221777D01*
X98663599Y-62238253D01*
X98643893Y-62252868D01*
X98622850Y-62265480D01*
X98600671Y-62275970D01*
X98577572Y-62284235D01*
X98553773Y-62290196D01*
X98529505Y-62293796D01*
X98505001Y-62295000D01*
X97854999Y-62295000D01*
X97830495Y-62293796D01*
X97806227Y-62290196D01*
X97782428Y-62284235D01*
X97759329Y-62275970D01*
X97737150Y-62265480D01*
X97716107Y-62252868D01*
X97696401Y-62238253D01*
X97678223Y-62221777D01*
X97661747Y-62203599D01*
X97647132Y-62183893D01*
X97634520Y-62162850D01*
X97624030Y-62140671D01*
X97615765Y-62117572D01*
X97609804Y-62093773D01*
X97606204Y-62069505D01*
X97605000Y-62045001D01*
X97605000Y-61144999D01*
X97606204Y-61120495D01*
X97609804Y-61096227D01*
X97615765Y-61072428D01*
X97624030Y-61049329D01*
X97634520Y-61027150D01*
X97647132Y-61006107D01*
X97661747Y-60986401D01*
X97678223Y-60968223D01*
X97696401Y-60951747D01*
X97716107Y-60937132D01*
X97737150Y-60924520D01*
X97759329Y-60914030D01*
X97782428Y-60905765D01*
X97806227Y-60899804D01*
X97830495Y-60896204D01*
X97854999Y-60895000D01*
X98505001Y-60895000D01*
X98529505Y-60896204D01*
X98529505Y-60896204D01*
G37*
D11*
X98180000Y-61595000D03*
D10*
G36*
X96479505Y-60896204D02*
G01*
X96503773Y-60899804D01*
X96527572Y-60905765D01*
X96550671Y-60914030D01*
X96572850Y-60924520D01*
X96593893Y-60937132D01*
X96613599Y-60951747D01*
X96631777Y-60968223D01*
X96648253Y-60986401D01*
X96662868Y-61006107D01*
X96675480Y-61027150D01*
X96685970Y-61049329D01*
X96694235Y-61072428D01*
X96700196Y-61096227D01*
X96703796Y-61120495D01*
X96705000Y-61144999D01*
X96705000Y-62045001D01*
X96703796Y-62069505D01*
X96700196Y-62093773D01*
X96694235Y-62117572D01*
X96685970Y-62140671D01*
X96675480Y-62162850D01*
X96662868Y-62183893D01*
X96648253Y-62203599D01*
X96631777Y-62221777D01*
X96613599Y-62238253D01*
X96593893Y-62252868D01*
X96572850Y-62265480D01*
X96550671Y-62275970D01*
X96527572Y-62284235D01*
X96503773Y-62290196D01*
X96479505Y-62293796D01*
X96455001Y-62295000D01*
X95804999Y-62295000D01*
X95780495Y-62293796D01*
X95756227Y-62290196D01*
X95732428Y-62284235D01*
X95709329Y-62275970D01*
X95687150Y-62265480D01*
X95666107Y-62252868D01*
X95646401Y-62238253D01*
X95628223Y-62221777D01*
X95611747Y-62203599D01*
X95597132Y-62183893D01*
X95584520Y-62162850D01*
X95574030Y-62140671D01*
X95565765Y-62117572D01*
X95559804Y-62093773D01*
X95556204Y-62069505D01*
X95555000Y-62045001D01*
X95555000Y-61144999D01*
X95556204Y-61120495D01*
X95559804Y-61096227D01*
X95565765Y-61072428D01*
X95574030Y-61049329D01*
X95584520Y-61027150D01*
X95597132Y-61006107D01*
X95611747Y-60986401D01*
X95628223Y-60968223D01*
X95646401Y-60951747D01*
X95666107Y-60937132D01*
X95687150Y-60924520D01*
X95709329Y-60914030D01*
X95732428Y-60905765D01*
X95756227Y-60899804D01*
X95780495Y-60896204D01*
X95804999Y-60895000D01*
X96455001Y-60895000D01*
X96479505Y-60896204D01*
X96479505Y-60896204D01*
G37*
D11*
X96130000Y-61595000D03*
M02*
