G04 #@! TF.GenerationSoftware,KiCad,Pcbnew,(5.1.8)-1*
G04 #@! TF.CreationDate,2020-11-07T15:34:37+03:00*
G04 #@! TF.ProjectId,ArrowKbd,4172726f-774b-4626-942e-6b696361645f,rev?*
G04 #@! TF.SameCoordinates,Original*
G04 #@! TF.FileFunction,Soldermask,Bot*
G04 #@! TF.FilePolarity,Negative*
%FSLAX46Y46*%
G04 Gerber Fmt 4.6, Leading zero omitted, Abs format (unit mm)*
G04 Created by KiCad (PCBNEW (5.1.8)-1) date 2020-11-07 15:34:37*
%MOMM*%
%LPD*%
G01*
G04 APERTURE LIST*
%ADD10C,3.302000*%
%ADD11O,2.102000X2.102000*%
%ADD12C,2.102000*%
%ADD13C,0.100000*%
G04 APERTURE END LIST*
D10*
X92710000Y-54610000D03*
X92710000Y-87630000D03*
X125730000Y-54610000D03*
X125730000Y-87630000D03*
G36*
G01*
X124829000Y-83400000D02*
X124829000Y-81700000D01*
G75*
G02*
X124880000Y-81649000I51000J0D01*
G01*
X126580000Y-81649000D01*
G75*
G02*
X126631000Y-81700000I0J-51000D01*
G01*
X126631000Y-83400000D01*
G75*
G02*
X126580000Y-83451000I-51000J0D01*
G01*
X124880000Y-83451000D01*
G75*
G02*
X124829000Y-83400000I0J51000D01*
G01*
G37*
G36*
G01*
X124829000Y-80860000D02*
X124829000Y-79160000D01*
G75*
G02*
X124880000Y-79109000I51000J0D01*
G01*
X126580000Y-79109000D01*
G75*
G02*
X126631000Y-79160000I0J-51000D01*
G01*
X126631000Y-80860000D01*
G75*
G02*
X126580000Y-80911000I-51000J0D01*
G01*
X124880000Y-80911000D01*
G75*
G02*
X124829000Y-80860000I0J51000D01*
G01*
G37*
G36*
G01*
X124829000Y-78320000D02*
X124829000Y-76620000D01*
G75*
G02*
X124880000Y-76569000I51000J0D01*
G01*
X126580000Y-76569000D01*
G75*
G02*
X126631000Y-76620000I0J-51000D01*
G01*
X126631000Y-78320000D01*
G75*
G02*
X126580000Y-78371000I-51000J0D01*
G01*
X124880000Y-78371000D01*
G75*
G02*
X124829000Y-78320000I0J51000D01*
G01*
G37*
G36*
G01*
X124829000Y-75780000D02*
X124829000Y-74080000D01*
G75*
G02*
X124880000Y-74029000I51000J0D01*
G01*
X126580000Y-74029000D01*
G75*
G02*
X126631000Y-74080000I0J-51000D01*
G01*
X126631000Y-75780000D01*
G75*
G02*
X126580000Y-75831000I-51000J0D01*
G01*
X124880000Y-75831000D01*
G75*
G02*
X124829000Y-75780000I0J51000D01*
G01*
G37*
G36*
G01*
X124829000Y-73240000D02*
X124829000Y-71540000D01*
G75*
G02*
X124880000Y-71489000I51000J0D01*
G01*
X126580000Y-71489000D01*
G75*
G02*
X126631000Y-71540000I0J-51000D01*
G01*
X126631000Y-73240000D01*
G75*
G02*
X126580000Y-73291000I-51000J0D01*
G01*
X124880000Y-73291000D01*
G75*
G02*
X124829000Y-73240000I0J51000D01*
G01*
G37*
G36*
G01*
X124829000Y-70700000D02*
X124829000Y-69000000D01*
G75*
G02*
X124880000Y-68949000I51000J0D01*
G01*
X126580000Y-68949000D01*
G75*
G02*
X126631000Y-69000000I0J-51000D01*
G01*
X126631000Y-70700000D01*
G75*
G02*
X126580000Y-70751000I-51000J0D01*
G01*
X124880000Y-70751000D01*
G75*
G02*
X124829000Y-70700000I0J51000D01*
G01*
G37*
G36*
G01*
X124829000Y-68160000D02*
X124829000Y-66460000D01*
G75*
G02*
X124880000Y-66409000I51000J0D01*
G01*
X126580000Y-66409000D01*
G75*
G02*
X126631000Y-66460000I0J-51000D01*
G01*
X126631000Y-68160000D01*
G75*
G02*
X126580000Y-68211000I-51000J0D01*
G01*
X124880000Y-68211000D01*
G75*
G02*
X124829000Y-68160000I0J51000D01*
G01*
G37*
G36*
G01*
X124829000Y-65620000D02*
X124829000Y-63920000D01*
G75*
G02*
X124880000Y-63869000I51000J0D01*
G01*
X126580000Y-63869000D01*
G75*
G02*
X126631000Y-63920000I0J-51000D01*
G01*
X126631000Y-65620000D01*
G75*
G02*
X126580000Y-65671000I-51000J0D01*
G01*
X124880000Y-65671000D01*
G75*
G02*
X124829000Y-65620000I0J51000D01*
G01*
G37*
G36*
G01*
X124829000Y-63080000D02*
X124829000Y-61380000D01*
G75*
G02*
X124880000Y-61329000I51000J0D01*
G01*
X126580000Y-61329000D01*
G75*
G02*
X126631000Y-61380000I0J-51000D01*
G01*
X126631000Y-63080000D01*
G75*
G02*
X126580000Y-63131000I-51000J0D01*
G01*
X124880000Y-63131000D01*
G75*
G02*
X124829000Y-63080000I0J51000D01*
G01*
G37*
G36*
G01*
X124829000Y-60540000D02*
X124829000Y-58840000D01*
G75*
G02*
X124880000Y-58789000I51000J0D01*
G01*
X126580000Y-58789000D01*
G75*
G02*
X126631000Y-58840000I0J-51000D01*
G01*
X126631000Y-60540000D01*
G75*
G02*
X126580000Y-60591000I-51000J0D01*
G01*
X124880000Y-60591000D01*
G75*
G02*
X124829000Y-60540000I0J51000D01*
G01*
G37*
G36*
G01*
X91809000Y-63080000D02*
X91809000Y-61380000D01*
G75*
G02*
X91860000Y-61329000I51000J0D01*
G01*
X93560000Y-61329000D01*
G75*
G02*
X93611000Y-61380000I0J-51000D01*
G01*
X93611000Y-63080000D01*
G75*
G02*
X93560000Y-63131000I-51000J0D01*
G01*
X91860000Y-63131000D01*
G75*
G02*
X91809000Y-63080000I0J51000D01*
G01*
G37*
G36*
G01*
X91809000Y-65620000D02*
X91809000Y-63920000D01*
G75*
G02*
X91860000Y-63869000I51000J0D01*
G01*
X93560000Y-63869000D01*
G75*
G02*
X93611000Y-63920000I0J-51000D01*
G01*
X93611000Y-65620000D01*
G75*
G02*
X93560000Y-65671000I-51000J0D01*
G01*
X91860000Y-65671000D01*
G75*
G02*
X91809000Y-65620000I0J51000D01*
G01*
G37*
G36*
G01*
X91809000Y-68160000D02*
X91809000Y-66460000D01*
G75*
G02*
X91860000Y-66409000I51000J0D01*
G01*
X93560000Y-66409000D01*
G75*
G02*
X93611000Y-66460000I0J-51000D01*
G01*
X93611000Y-68160000D01*
G75*
G02*
X93560000Y-68211000I-51000J0D01*
G01*
X91860000Y-68211000D01*
G75*
G02*
X91809000Y-68160000I0J51000D01*
G01*
G37*
G36*
G01*
X91809000Y-70700000D02*
X91809000Y-69000000D01*
G75*
G02*
X91860000Y-68949000I51000J0D01*
G01*
X93560000Y-68949000D01*
G75*
G02*
X93611000Y-69000000I0J-51000D01*
G01*
X93611000Y-70700000D01*
G75*
G02*
X93560000Y-70751000I-51000J0D01*
G01*
X91860000Y-70751000D01*
G75*
G02*
X91809000Y-70700000I0J51000D01*
G01*
G37*
G36*
G01*
X91809000Y-73240000D02*
X91809000Y-71540000D01*
G75*
G02*
X91860000Y-71489000I51000J0D01*
G01*
X93560000Y-71489000D01*
G75*
G02*
X93611000Y-71540000I0J-51000D01*
G01*
X93611000Y-73240000D01*
G75*
G02*
X93560000Y-73291000I-51000J0D01*
G01*
X91860000Y-73291000D01*
G75*
G02*
X91809000Y-73240000I0J51000D01*
G01*
G37*
G36*
G01*
X91809000Y-75780000D02*
X91809000Y-74080000D01*
G75*
G02*
X91860000Y-74029000I51000J0D01*
G01*
X93560000Y-74029000D01*
G75*
G02*
X93611000Y-74080000I0J-51000D01*
G01*
X93611000Y-75780000D01*
G75*
G02*
X93560000Y-75831000I-51000J0D01*
G01*
X91860000Y-75831000D01*
G75*
G02*
X91809000Y-75780000I0J51000D01*
G01*
G37*
G36*
G01*
X91809000Y-78320000D02*
X91809000Y-76620000D01*
G75*
G02*
X91860000Y-76569000I51000J0D01*
G01*
X93560000Y-76569000D01*
G75*
G02*
X93611000Y-76620000I0J-51000D01*
G01*
X93611000Y-78320000D01*
G75*
G02*
X93560000Y-78371000I-51000J0D01*
G01*
X91860000Y-78371000D01*
G75*
G02*
X91809000Y-78320000I0J51000D01*
G01*
G37*
G36*
G01*
X91809000Y-80860000D02*
X91809000Y-79160000D01*
G75*
G02*
X91860000Y-79109000I51000J0D01*
G01*
X93560000Y-79109000D01*
G75*
G02*
X93611000Y-79160000I0J-51000D01*
G01*
X93611000Y-80860000D01*
G75*
G02*
X93560000Y-80911000I-51000J0D01*
G01*
X91860000Y-80911000D01*
G75*
G02*
X91809000Y-80860000I0J51000D01*
G01*
G37*
G36*
G01*
X91809000Y-60540000D02*
X91809000Y-58840000D01*
G75*
G02*
X91860000Y-58789000I51000J0D01*
G01*
X93560000Y-58789000D01*
G75*
G02*
X93611000Y-58840000I0J-51000D01*
G01*
X93611000Y-60540000D01*
G75*
G02*
X93560000Y-60591000I-51000J0D01*
G01*
X91860000Y-60591000D01*
G75*
G02*
X91809000Y-60540000I0J51000D01*
G01*
G37*
G36*
G01*
X91809000Y-83400000D02*
X91809000Y-81700000D01*
G75*
G02*
X91860000Y-81649000I51000J0D01*
G01*
X93560000Y-81649000D01*
G75*
G02*
X93611000Y-81700000I0J-51000D01*
G01*
X93611000Y-83400000D01*
G75*
G02*
X93560000Y-83451000I-51000J0D01*
G01*
X91860000Y-83451000D01*
G75*
G02*
X91809000Y-83400000I0J51000D01*
G01*
G37*
G36*
G01*
X105253828Y-71183500D02*
X104296172Y-71183500D01*
G75*
G02*
X104024000Y-70911328I0J272172D01*
G01*
X104024000Y-70203672D01*
G75*
G02*
X104296172Y-69931500I272172J0D01*
G01*
X105253828Y-69931500D01*
G75*
G02*
X105526000Y-70203672I0J-272172D01*
G01*
X105526000Y-70911328D01*
G75*
G02*
X105253828Y-71183500I-272172J0D01*
G01*
G37*
G36*
G01*
X105253828Y-69133500D02*
X104296172Y-69133500D01*
G75*
G02*
X104024000Y-68861328I0J272172D01*
G01*
X104024000Y-68153672D01*
G75*
G02*
X104296172Y-67881500I272172J0D01*
G01*
X105253828Y-67881500D01*
G75*
G02*
X105526000Y-68153672I0J-272172D01*
G01*
X105526000Y-68861328D01*
G75*
G02*
X105253828Y-69133500I-272172J0D01*
G01*
G37*
G36*
G01*
X118206500Y-71970000D02*
X118206500Y-70270000D01*
G75*
G02*
X118257500Y-70219000I51000J0D01*
G01*
X119557500Y-70219000D01*
G75*
G02*
X119608500Y-70270000I0J-51000D01*
G01*
X119608500Y-71970000D01*
G75*
G02*
X119557500Y-72021000I-51000J0D01*
G01*
X118257500Y-72021000D01*
G75*
G02*
X118206500Y-71970000I0J51000D01*
G01*
G37*
G36*
G01*
X114706500Y-71970000D02*
X114706500Y-70270000D01*
G75*
G02*
X114757500Y-70219000I51000J0D01*
G01*
X116057500Y-70219000D01*
G75*
G02*
X116108500Y-70270000I0J-51000D01*
G01*
X116108500Y-71970000D01*
G75*
G02*
X116057500Y-72021000I-51000J0D01*
G01*
X114757500Y-72021000D01*
G75*
G02*
X114706500Y-71970000I0J51000D01*
G01*
G37*
G36*
G01*
X114706500Y-69430000D02*
X114706500Y-67730000D01*
G75*
G02*
X114757500Y-67679000I51000J0D01*
G01*
X116057500Y-67679000D01*
G75*
G02*
X116108500Y-67730000I0J-51000D01*
G01*
X116108500Y-69430000D01*
G75*
G02*
X116057500Y-69481000I-51000J0D01*
G01*
X114757500Y-69481000D01*
G75*
G02*
X114706500Y-69430000I0J51000D01*
G01*
G37*
G36*
G01*
X118206500Y-69430000D02*
X118206500Y-67730000D01*
G75*
G02*
X118257500Y-67679000I51000J0D01*
G01*
X119557500Y-67679000D01*
G75*
G02*
X119608500Y-67730000I0J-51000D01*
G01*
X119608500Y-69430000D01*
G75*
G02*
X119557500Y-69481000I-51000J0D01*
G01*
X118257500Y-69481000D01*
G75*
G02*
X118206500Y-69430000I0J51000D01*
G01*
G37*
G36*
G01*
X114706500Y-65620000D02*
X114706500Y-63920000D01*
G75*
G02*
X114757500Y-63869000I51000J0D01*
G01*
X116057500Y-63869000D01*
G75*
G02*
X116108500Y-63920000I0J-51000D01*
G01*
X116108500Y-65620000D01*
G75*
G02*
X116057500Y-65671000I-51000J0D01*
G01*
X114757500Y-65671000D01*
G75*
G02*
X114706500Y-65620000I0J51000D01*
G01*
G37*
G36*
G01*
X118206500Y-65620000D02*
X118206500Y-63920000D01*
G75*
G02*
X118257500Y-63869000I51000J0D01*
G01*
X119557500Y-63869000D01*
G75*
G02*
X119608500Y-63920000I0J-51000D01*
G01*
X119608500Y-65620000D01*
G75*
G02*
X119557500Y-65671000I-51000J0D01*
G01*
X118257500Y-65671000D01*
G75*
G02*
X118206500Y-65620000I0J51000D01*
G01*
G37*
G36*
G01*
X118206500Y-63080000D02*
X118206500Y-61380000D01*
G75*
G02*
X118257500Y-61329000I51000J0D01*
G01*
X119557500Y-61329000D01*
G75*
G02*
X119608500Y-61380000I0J-51000D01*
G01*
X119608500Y-63080000D01*
G75*
G02*
X119557500Y-63131000I-51000J0D01*
G01*
X118257500Y-63131000D01*
G75*
G02*
X118206500Y-63080000I0J51000D01*
G01*
G37*
G36*
G01*
X114706500Y-63080000D02*
X114706500Y-61380000D01*
G75*
G02*
X114757500Y-61329000I51000J0D01*
G01*
X116057500Y-61329000D01*
G75*
G02*
X116108500Y-61380000I0J-51000D01*
G01*
X116108500Y-63080000D01*
G75*
G02*
X116057500Y-63131000I-51000J0D01*
G01*
X114757500Y-63131000D01*
G75*
G02*
X114706500Y-63080000I0J51000D01*
G01*
G37*
G36*
G01*
X119650000Y-83721500D02*
X121650000Y-83721500D01*
G75*
G02*
X121701000Y-83772500I0J-51000D01*
G01*
X121701000Y-85772500D01*
G75*
G02*
X121650000Y-85823500I-51000J0D01*
G01*
X119650000Y-85823500D01*
G75*
G02*
X119599000Y-85772500I0J51000D01*
G01*
X119599000Y-83772500D01*
G75*
G02*
X119650000Y-83721500I51000J0D01*
G01*
G37*
D11*
X118110000Y-84772500D03*
X115570000Y-84772500D03*
G36*
G01*
X104613672Y-75646500D02*
X105571328Y-75646500D01*
G75*
G02*
X105843500Y-75918672I0J-272172D01*
G01*
X105843500Y-76626328D01*
G75*
G02*
X105571328Y-76898500I-272172J0D01*
G01*
X104613672Y-76898500D01*
G75*
G02*
X104341500Y-76626328I0J272172D01*
G01*
X104341500Y-75918672D01*
G75*
G02*
X104613672Y-75646500I272172J0D01*
G01*
G37*
G36*
G01*
X104613672Y-73596500D02*
X105571328Y-73596500D01*
G75*
G02*
X105843500Y-73868672I0J-272172D01*
G01*
X105843500Y-74576328D01*
G75*
G02*
X105571328Y-74848500I-272172J0D01*
G01*
X104613672Y-74848500D01*
G75*
G02*
X104341500Y-74576328I0J272172D01*
G01*
X104341500Y-73868672D01*
G75*
G02*
X104613672Y-73596500I272172J0D01*
G01*
G37*
G36*
G01*
X99314000Y-72233828D02*
X99314000Y-71276172D01*
G75*
G02*
X99586172Y-71004000I272172J0D01*
G01*
X100293828Y-71004000D01*
G75*
G02*
X100566000Y-71276172I0J-272172D01*
G01*
X100566000Y-72233828D01*
G75*
G02*
X100293828Y-72506000I-272172J0D01*
G01*
X99586172Y-72506000D01*
G75*
G02*
X99314000Y-72233828I0J272172D01*
G01*
G37*
G36*
G01*
X101364000Y-72233828D02*
X101364000Y-71276172D01*
G75*
G02*
X101636172Y-71004000I272172J0D01*
G01*
X102343828Y-71004000D01*
G75*
G02*
X102616000Y-71276172I0J-272172D01*
G01*
X102616000Y-72233828D01*
G75*
G02*
X102343828Y-72506000I-272172J0D01*
G01*
X101636172Y-72506000D01*
G75*
G02*
X101364000Y-72233828I0J272172D01*
G01*
G37*
D12*
X102870000Y-80160000D03*
X98370000Y-80160000D03*
X102870000Y-73660000D03*
X98370000Y-73660000D03*
X116150000Y-73660000D03*
X120650000Y-73660000D03*
X116150000Y-80160000D03*
X120650000Y-80160000D03*
X111760000Y-80160000D03*
X107260000Y-80160000D03*
X111760000Y-73660000D03*
X107260000Y-73660000D03*
X107260000Y-83185000D03*
X111760000Y-83185000D03*
X107260000Y-89685000D03*
X111760000Y-89685000D03*
X102870000Y-58887500D03*
X98370000Y-58887500D03*
X102870000Y-52387500D03*
X98370000Y-52387500D03*
X116150000Y-52387500D03*
X120650000Y-52387500D03*
X116150000Y-58887500D03*
X120650000Y-58887500D03*
X107260000Y-52387500D03*
X111760000Y-52387500D03*
X107260000Y-58887500D03*
X111760000Y-58887500D03*
X111760000Y-70635000D03*
X107260000Y-70635000D03*
X111760000Y-64135000D03*
X107260000Y-64135000D03*
G36*
G01*
X96194000Y-70343000D02*
X96194000Y-69992000D01*
G75*
G02*
X96369500Y-69816500I175500J0D01*
G01*
X98070500Y-69816500D01*
G75*
G02*
X98246000Y-69992000I0J-175500D01*
G01*
X98246000Y-70343000D01*
G75*
G02*
X98070500Y-70518500I-175500J0D01*
G01*
X96369500Y-70518500D01*
G75*
G02*
X96194000Y-70343000I0J175500D01*
G01*
G37*
G36*
G01*
X96194000Y-69073000D02*
X96194000Y-68722000D01*
G75*
G02*
X96369500Y-68546500I175500J0D01*
G01*
X98070500Y-68546500D01*
G75*
G02*
X98246000Y-68722000I0J-175500D01*
G01*
X98246000Y-69073000D01*
G75*
G02*
X98070500Y-69248500I-175500J0D01*
G01*
X96369500Y-69248500D01*
G75*
G02*
X96194000Y-69073000I0J175500D01*
G01*
G37*
G36*
G01*
X96194000Y-67803000D02*
X96194000Y-67452000D01*
G75*
G02*
X96369500Y-67276500I175500J0D01*
G01*
X98070500Y-67276500D01*
G75*
G02*
X98246000Y-67452000I0J-175500D01*
G01*
X98246000Y-67803000D01*
G75*
G02*
X98070500Y-67978500I-175500J0D01*
G01*
X96369500Y-67978500D01*
G75*
G02*
X96194000Y-67803000I0J175500D01*
G01*
G37*
G36*
G01*
X96194000Y-66533000D02*
X96194000Y-66182000D01*
G75*
G02*
X96369500Y-66006500I175500J0D01*
G01*
X98070500Y-66006500D01*
G75*
G02*
X98246000Y-66182000I0J-175500D01*
G01*
X98246000Y-66533000D01*
G75*
G02*
X98070500Y-66708500I-175500J0D01*
G01*
X96369500Y-66708500D01*
G75*
G02*
X96194000Y-66533000I0J175500D01*
G01*
G37*
G36*
G01*
X96194000Y-65263000D02*
X96194000Y-64912000D01*
G75*
G02*
X96369500Y-64736500I175500J0D01*
G01*
X98070500Y-64736500D01*
G75*
G02*
X98246000Y-64912000I0J-175500D01*
G01*
X98246000Y-65263000D01*
G75*
G02*
X98070500Y-65438500I-175500J0D01*
G01*
X96369500Y-65438500D01*
G75*
G02*
X96194000Y-65263000I0J175500D01*
G01*
G37*
G36*
G01*
X96194000Y-63993000D02*
X96194000Y-63642000D01*
G75*
G02*
X96369500Y-63466500I175500J0D01*
G01*
X98070500Y-63466500D01*
G75*
G02*
X98246000Y-63642000I0J-175500D01*
G01*
X98246000Y-63993000D01*
G75*
G02*
X98070500Y-64168500I-175500J0D01*
G01*
X96369500Y-64168500D01*
G75*
G02*
X96194000Y-63993000I0J175500D01*
G01*
G37*
G36*
G01*
X96194000Y-62723000D02*
X96194000Y-62372000D01*
G75*
G02*
X96369500Y-62196500I175500J0D01*
G01*
X98070500Y-62196500D01*
G75*
G02*
X98246000Y-62372000I0J-175500D01*
G01*
X98246000Y-62723000D01*
G75*
G02*
X98070500Y-62898500I-175500J0D01*
G01*
X96369500Y-62898500D01*
G75*
G02*
X96194000Y-62723000I0J175500D01*
G01*
G37*
G36*
G01*
X96194000Y-61453000D02*
X96194000Y-61102000D01*
G75*
G02*
X96369500Y-60926500I175500J0D01*
G01*
X98070500Y-60926500D01*
G75*
G02*
X98246000Y-61102000I0J-175500D01*
G01*
X98246000Y-61453000D01*
G75*
G02*
X98070500Y-61628500I-175500J0D01*
G01*
X96369500Y-61628500D01*
G75*
G02*
X96194000Y-61453000I0J175500D01*
G01*
G37*
G36*
G01*
X101144000Y-61453000D02*
X101144000Y-61102000D01*
G75*
G02*
X101319500Y-60926500I175500J0D01*
G01*
X103020500Y-60926500D01*
G75*
G02*
X103196000Y-61102000I0J-175500D01*
G01*
X103196000Y-61453000D01*
G75*
G02*
X103020500Y-61628500I-175500J0D01*
G01*
X101319500Y-61628500D01*
G75*
G02*
X101144000Y-61453000I0J175500D01*
G01*
G37*
G36*
G01*
X101144000Y-62723000D02*
X101144000Y-62372000D01*
G75*
G02*
X101319500Y-62196500I175500J0D01*
G01*
X103020500Y-62196500D01*
G75*
G02*
X103196000Y-62372000I0J-175500D01*
G01*
X103196000Y-62723000D01*
G75*
G02*
X103020500Y-62898500I-175500J0D01*
G01*
X101319500Y-62898500D01*
G75*
G02*
X101144000Y-62723000I0J175500D01*
G01*
G37*
G36*
G01*
X101144000Y-63993000D02*
X101144000Y-63642000D01*
G75*
G02*
X101319500Y-63466500I175500J0D01*
G01*
X103020500Y-63466500D01*
G75*
G02*
X103196000Y-63642000I0J-175500D01*
G01*
X103196000Y-63993000D01*
G75*
G02*
X103020500Y-64168500I-175500J0D01*
G01*
X101319500Y-64168500D01*
G75*
G02*
X101144000Y-63993000I0J175500D01*
G01*
G37*
G36*
G01*
X101144000Y-65263000D02*
X101144000Y-64912000D01*
G75*
G02*
X101319500Y-64736500I175500J0D01*
G01*
X103020500Y-64736500D01*
G75*
G02*
X103196000Y-64912000I0J-175500D01*
G01*
X103196000Y-65263000D01*
G75*
G02*
X103020500Y-65438500I-175500J0D01*
G01*
X101319500Y-65438500D01*
G75*
G02*
X101144000Y-65263000I0J175500D01*
G01*
G37*
G36*
G01*
X101144000Y-66533000D02*
X101144000Y-66182000D01*
G75*
G02*
X101319500Y-66006500I175500J0D01*
G01*
X103020500Y-66006500D01*
G75*
G02*
X103196000Y-66182000I0J-175500D01*
G01*
X103196000Y-66533000D01*
G75*
G02*
X103020500Y-66708500I-175500J0D01*
G01*
X101319500Y-66708500D01*
G75*
G02*
X101144000Y-66533000I0J175500D01*
G01*
G37*
G36*
G01*
X101144000Y-67803000D02*
X101144000Y-67452000D01*
G75*
G02*
X101319500Y-67276500I175500J0D01*
G01*
X103020500Y-67276500D01*
G75*
G02*
X103196000Y-67452000I0J-175500D01*
G01*
X103196000Y-67803000D01*
G75*
G02*
X103020500Y-67978500I-175500J0D01*
G01*
X101319500Y-67978500D01*
G75*
G02*
X101144000Y-67803000I0J175500D01*
G01*
G37*
G36*
G01*
X101144000Y-69073000D02*
X101144000Y-68722000D01*
G75*
G02*
X101319500Y-68546500I175500J0D01*
G01*
X103020500Y-68546500D01*
G75*
G02*
X103196000Y-68722000I0J-175500D01*
G01*
X103196000Y-69073000D01*
G75*
G02*
X103020500Y-69248500I-175500J0D01*
G01*
X101319500Y-69248500D01*
G75*
G02*
X101144000Y-69073000I0J175500D01*
G01*
G37*
G36*
G01*
X101144000Y-70343000D02*
X101144000Y-69992000D01*
G75*
G02*
X101319500Y-69816500I175500J0D01*
G01*
X103020500Y-69816500D01*
G75*
G02*
X103196000Y-69992000I0J-175500D01*
G01*
X103196000Y-70343000D01*
G75*
G02*
X103020500Y-70518500I-175500J0D01*
G01*
X101319500Y-70518500D01*
G75*
G02*
X101144000Y-70343000I0J175500D01*
G01*
G37*
D13*
G36*
X102617165Y-72232202D02*
G01*
X102618000Y-72233828D01*
X102618000Y-72298340D01*
X102617990Y-72298536D01*
X102613525Y-72343874D01*
X102613449Y-72344259D01*
X102602016Y-72381946D01*
X102601866Y-72382308D01*
X102583298Y-72417046D01*
X102583080Y-72417372D01*
X102573832Y-72428642D01*
X102560383Y-72448769D01*
X102551157Y-72471043D01*
X102546452Y-72494693D01*
X102546452Y-72518799D01*
X102551156Y-72542450D01*
X102560382Y-72564724D01*
X102573777Y-72584771D01*
X102590824Y-72601818D01*
X102610871Y-72615213D01*
X102633145Y-72624439D01*
X102656795Y-72629144D01*
X102681100Y-72629144D01*
X102681100Y-72629248D01*
X102682720Y-72629958D01*
X102682941Y-72631946D01*
X102681499Y-72633105D01*
X102565493Y-72656180D01*
X102376486Y-72734469D01*
X102374503Y-72734208D01*
X102373738Y-72732360D01*
X102374452Y-72731075D01*
X102390426Y-72717966D01*
X102405721Y-72699329D01*
X102417086Y-72678065D01*
X102424086Y-72654990D01*
X102426449Y-72630999D01*
X102424086Y-72607008D01*
X102417086Y-72583933D01*
X102405721Y-72562669D01*
X102390426Y-72544032D01*
X102371789Y-72528737D01*
X102350525Y-72517372D01*
X102327450Y-72510372D01*
X102303263Y-72507990D01*
X102301637Y-72506825D01*
X102301833Y-72504835D01*
X102303459Y-72504000D01*
X102343734Y-72504000D01*
X102396531Y-72498800D01*
X102447215Y-72483425D01*
X102493923Y-72458460D01*
X102534862Y-72424862D01*
X102568460Y-72383923D01*
X102593425Y-72337215D01*
X102608800Y-72286531D01*
X102614010Y-72233632D01*
X102615175Y-72232006D01*
X102617165Y-72232202D01*
G37*
M02*
