G04 #@! TF.GenerationSoftware,KiCad,Pcbnew,(5.1.4)-1*
G04 #@! TF.CreationDate,2020-03-08T22:11:45+03:00*
G04 #@! TF.ProjectId,ArrowKbd,4172726f-774b-4626-942e-6b696361645f,rev?*
G04 #@! TF.SameCoordinates,Original*
G04 #@! TF.FileFunction,Paste,Bot*
G04 #@! TF.FilePolarity,Positive*
%FSLAX46Y46*%
G04 Gerber Fmt 4.6, Leading zero omitted, Abs format (unit mm)*
G04 Created by KiCad (PCBNEW (5.1.4)-1) date 2020-03-08 22:11:45*
%MOMM*%
%LPD*%
G04 APERTURE LIST*
%ADD10C,0.100000*%
%ADD11C,1.150000*%
%ADD12R,1.300000X1.700000*%
%ADD13C,0.600000*%
G04 APERTURE END LIST*
D10*
G36*
X105249505Y-69983704D02*
G01*
X105273773Y-69987304D01*
X105297572Y-69993265D01*
X105320671Y-70001530D01*
X105342850Y-70012020D01*
X105363893Y-70024632D01*
X105383599Y-70039247D01*
X105401777Y-70055723D01*
X105418253Y-70073901D01*
X105432868Y-70093607D01*
X105445480Y-70114650D01*
X105455970Y-70136829D01*
X105464235Y-70159928D01*
X105470196Y-70183727D01*
X105473796Y-70207995D01*
X105475000Y-70232499D01*
X105475000Y-70882501D01*
X105473796Y-70907005D01*
X105470196Y-70931273D01*
X105464235Y-70955072D01*
X105455970Y-70978171D01*
X105445480Y-71000350D01*
X105432868Y-71021393D01*
X105418253Y-71041099D01*
X105401777Y-71059277D01*
X105383599Y-71075753D01*
X105363893Y-71090368D01*
X105342850Y-71102980D01*
X105320671Y-71113470D01*
X105297572Y-71121735D01*
X105273773Y-71127696D01*
X105249505Y-71131296D01*
X105225001Y-71132500D01*
X104324999Y-71132500D01*
X104300495Y-71131296D01*
X104276227Y-71127696D01*
X104252428Y-71121735D01*
X104229329Y-71113470D01*
X104207150Y-71102980D01*
X104186107Y-71090368D01*
X104166401Y-71075753D01*
X104148223Y-71059277D01*
X104131747Y-71041099D01*
X104117132Y-71021393D01*
X104104520Y-71000350D01*
X104094030Y-70978171D01*
X104085765Y-70955072D01*
X104079804Y-70931273D01*
X104076204Y-70907005D01*
X104075000Y-70882501D01*
X104075000Y-70232499D01*
X104076204Y-70207995D01*
X104079804Y-70183727D01*
X104085765Y-70159928D01*
X104094030Y-70136829D01*
X104104520Y-70114650D01*
X104117132Y-70093607D01*
X104131747Y-70073901D01*
X104148223Y-70055723D01*
X104166401Y-70039247D01*
X104186107Y-70024632D01*
X104207150Y-70012020D01*
X104229329Y-70001530D01*
X104252428Y-69993265D01*
X104276227Y-69987304D01*
X104300495Y-69983704D01*
X104324999Y-69982500D01*
X105225001Y-69982500D01*
X105249505Y-69983704D01*
X105249505Y-69983704D01*
G37*
D11*
X104775000Y-70557500D03*
D10*
G36*
X105249505Y-67933704D02*
G01*
X105273773Y-67937304D01*
X105297572Y-67943265D01*
X105320671Y-67951530D01*
X105342850Y-67962020D01*
X105363893Y-67974632D01*
X105383599Y-67989247D01*
X105401777Y-68005723D01*
X105418253Y-68023901D01*
X105432868Y-68043607D01*
X105445480Y-68064650D01*
X105455970Y-68086829D01*
X105464235Y-68109928D01*
X105470196Y-68133727D01*
X105473796Y-68157995D01*
X105475000Y-68182499D01*
X105475000Y-68832501D01*
X105473796Y-68857005D01*
X105470196Y-68881273D01*
X105464235Y-68905072D01*
X105455970Y-68928171D01*
X105445480Y-68950350D01*
X105432868Y-68971393D01*
X105418253Y-68991099D01*
X105401777Y-69009277D01*
X105383599Y-69025753D01*
X105363893Y-69040368D01*
X105342850Y-69052980D01*
X105320671Y-69063470D01*
X105297572Y-69071735D01*
X105273773Y-69077696D01*
X105249505Y-69081296D01*
X105225001Y-69082500D01*
X104324999Y-69082500D01*
X104300495Y-69081296D01*
X104276227Y-69077696D01*
X104252428Y-69071735D01*
X104229329Y-69063470D01*
X104207150Y-69052980D01*
X104186107Y-69040368D01*
X104166401Y-69025753D01*
X104148223Y-69009277D01*
X104131747Y-68991099D01*
X104117132Y-68971393D01*
X104104520Y-68950350D01*
X104094030Y-68928171D01*
X104085765Y-68905072D01*
X104079804Y-68881273D01*
X104076204Y-68857005D01*
X104075000Y-68832501D01*
X104075000Y-68182499D01*
X104076204Y-68157995D01*
X104079804Y-68133727D01*
X104085765Y-68109928D01*
X104094030Y-68086829D01*
X104104520Y-68064650D01*
X104117132Y-68043607D01*
X104131747Y-68023901D01*
X104148223Y-68005723D01*
X104166401Y-67989247D01*
X104186107Y-67974632D01*
X104207150Y-67962020D01*
X104229329Y-67951530D01*
X104252428Y-67943265D01*
X104276227Y-67937304D01*
X104300495Y-67933704D01*
X104324999Y-67932500D01*
X105225001Y-67932500D01*
X105249505Y-67933704D01*
X105249505Y-67933704D01*
G37*
D11*
X104775000Y-68507500D03*
D12*
X118907500Y-71120000D03*
X115407500Y-71120000D03*
X115407500Y-68580000D03*
X118907500Y-68580000D03*
X115407500Y-64770000D03*
X118907500Y-64770000D03*
X118907500Y-62230000D03*
X115407500Y-62230000D03*
D10*
G36*
X100289505Y-71056204D02*
G01*
X100313773Y-71059804D01*
X100337572Y-71065765D01*
X100360671Y-71074030D01*
X100382850Y-71084520D01*
X100403893Y-71097132D01*
X100423599Y-71111747D01*
X100441777Y-71128223D01*
X100458253Y-71146401D01*
X100472868Y-71166107D01*
X100485480Y-71187150D01*
X100495970Y-71209329D01*
X100504235Y-71232428D01*
X100510196Y-71256227D01*
X100513796Y-71280495D01*
X100515000Y-71304999D01*
X100515000Y-72205001D01*
X100513796Y-72229505D01*
X100510196Y-72253773D01*
X100504235Y-72277572D01*
X100495970Y-72300671D01*
X100485480Y-72322850D01*
X100472868Y-72343893D01*
X100458253Y-72363599D01*
X100441777Y-72381777D01*
X100423599Y-72398253D01*
X100403893Y-72412868D01*
X100382850Y-72425480D01*
X100360671Y-72435970D01*
X100337572Y-72444235D01*
X100313773Y-72450196D01*
X100289505Y-72453796D01*
X100265001Y-72455000D01*
X99614999Y-72455000D01*
X99590495Y-72453796D01*
X99566227Y-72450196D01*
X99542428Y-72444235D01*
X99519329Y-72435970D01*
X99497150Y-72425480D01*
X99476107Y-72412868D01*
X99456401Y-72398253D01*
X99438223Y-72381777D01*
X99421747Y-72363599D01*
X99407132Y-72343893D01*
X99394520Y-72322850D01*
X99384030Y-72300671D01*
X99375765Y-72277572D01*
X99369804Y-72253773D01*
X99366204Y-72229505D01*
X99365000Y-72205001D01*
X99365000Y-71304999D01*
X99366204Y-71280495D01*
X99369804Y-71256227D01*
X99375765Y-71232428D01*
X99384030Y-71209329D01*
X99394520Y-71187150D01*
X99407132Y-71166107D01*
X99421747Y-71146401D01*
X99438223Y-71128223D01*
X99456401Y-71111747D01*
X99476107Y-71097132D01*
X99497150Y-71084520D01*
X99519329Y-71074030D01*
X99542428Y-71065765D01*
X99566227Y-71059804D01*
X99590495Y-71056204D01*
X99614999Y-71055000D01*
X100265001Y-71055000D01*
X100289505Y-71056204D01*
X100289505Y-71056204D01*
G37*
D11*
X99940000Y-71755000D03*
D10*
G36*
X102339505Y-71056204D02*
G01*
X102363773Y-71059804D01*
X102387572Y-71065765D01*
X102410671Y-71074030D01*
X102432850Y-71084520D01*
X102453893Y-71097132D01*
X102473599Y-71111747D01*
X102491777Y-71128223D01*
X102508253Y-71146401D01*
X102522868Y-71166107D01*
X102535480Y-71187150D01*
X102545970Y-71209329D01*
X102554235Y-71232428D01*
X102560196Y-71256227D01*
X102563796Y-71280495D01*
X102565000Y-71304999D01*
X102565000Y-72205001D01*
X102563796Y-72229505D01*
X102560196Y-72253773D01*
X102554235Y-72277572D01*
X102545970Y-72300671D01*
X102535480Y-72322850D01*
X102522868Y-72343893D01*
X102508253Y-72363599D01*
X102491777Y-72381777D01*
X102473599Y-72398253D01*
X102453893Y-72412868D01*
X102432850Y-72425480D01*
X102410671Y-72435970D01*
X102387572Y-72444235D01*
X102363773Y-72450196D01*
X102339505Y-72453796D01*
X102315001Y-72455000D01*
X101664999Y-72455000D01*
X101640495Y-72453796D01*
X101616227Y-72450196D01*
X101592428Y-72444235D01*
X101569329Y-72435970D01*
X101547150Y-72425480D01*
X101526107Y-72412868D01*
X101506401Y-72398253D01*
X101488223Y-72381777D01*
X101471747Y-72363599D01*
X101457132Y-72343893D01*
X101444520Y-72322850D01*
X101434030Y-72300671D01*
X101425765Y-72277572D01*
X101419804Y-72253773D01*
X101416204Y-72229505D01*
X101415000Y-72205001D01*
X101415000Y-71304999D01*
X101416204Y-71280495D01*
X101419804Y-71256227D01*
X101425765Y-71232428D01*
X101434030Y-71209329D01*
X101444520Y-71187150D01*
X101457132Y-71166107D01*
X101471747Y-71146401D01*
X101488223Y-71128223D01*
X101506401Y-71111747D01*
X101526107Y-71097132D01*
X101547150Y-71084520D01*
X101569329Y-71074030D01*
X101592428Y-71065765D01*
X101616227Y-71059804D01*
X101640495Y-71056204D01*
X101664999Y-71055000D01*
X102315001Y-71055000D01*
X102339505Y-71056204D01*
X102339505Y-71056204D01*
G37*
D11*
X101990000Y-71755000D03*
D10*
G36*
X98059703Y-69868222D02*
G01*
X98074264Y-69870382D01*
X98088543Y-69873959D01*
X98102403Y-69878918D01*
X98115710Y-69885212D01*
X98128336Y-69892780D01*
X98140159Y-69901548D01*
X98151066Y-69911434D01*
X98160952Y-69922341D01*
X98169720Y-69934164D01*
X98177288Y-69946790D01*
X98183582Y-69960097D01*
X98188541Y-69973957D01*
X98192118Y-69988236D01*
X98194278Y-70002797D01*
X98195000Y-70017500D01*
X98195000Y-70317500D01*
X98194278Y-70332203D01*
X98192118Y-70346764D01*
X98188541Y-70361043D01*
X98183582Y-70374903D01*
X98177288Y-70388210D01*
X98169720Y-70400836D01*
X98160952Y-70412659D01*
X98151066Y-70423566D01*
X98140159Y-70433452D01*
X98128336Y-70442220D01*
X98115710Y-70449788D01*
X98102403Y-70456082D01*
X98088543Y-70461041D01*
X98074264Y-70464618D01*
X98059703Y-70466778D01*
X98045000Y-70467500D01*
X96395000Y-70467500D01*
X96380297Y-70466778D01*
X96365736Y-70464618D01*
X96351457Y-70461041D01*
X96337597Y-70456082D01*
X96324290Y-70449788D01*
X96311664Y-70442220D01*
X96299841Y-70433452D01*
X96288934Y-70423566D01*
X96279048Y-70412659D01*
X96270280Y-70400836D01*
X96262712Y-70388210D01*
X96256418Y-70374903D01*
X96251459Y-70361043D01*
X96247882Y-70346764D01*
X96245722Y-70332203D01*
X96245000Y-70317500D01*
X96245000Y-70017500D01*
X96245722Y-70002797D01*
X96247882Y-69988236D01*
X96251459Y-69973957D01*
X96256418Y-69960097D01*
X96262712Y-69946790D01*
X96270280Y-69934164D01*
X96279048Y-69922341D01*
X96288934Y-69911434D01*
X96299841Y-69901548D01*
X96311664Y-69892780D01*
X96324290Y-69885212D01*
X96337597Y-69878918D01*
X96351457Y-69873959D01*
X96365736Y-69870382D01*
X96380297Y-69868222D01*
X96395000Y-69867500D01*
X98045000Y-69867500D01*
X98059703Y-69868222D01*
X98059703Y-69868222D01*
G37*
D13*
X97220000Y-70167500D03*
D10*
G36*
X98059703Y-68598222D02*
G01*
X98074264Y-68600382D01*
X98088543Y-68603959D01*
X98102403Y-68608918D01*
X98115710Y-68615212D01*
X98128336Y-68622780D01*
X98140159Y-68631548D01*
X98151066Y-68641434D01*
X98160952Y-68652341D01*
X98169720Y-68664164D01*
X98177288Y-68676790D01*
X98183582Y-68690097D01*
X98188541Y-68703957D01*
X98192118Y-68718236D01*
X98194278Y-68732797D01*
X98195000Y-68747500D01*
X98195000Y-69047500D01*
X98194278Y-69062203D01*
X98192118Y-69076764D01*
X98188541Y-69091043D01*
X98183582Y-69104903D01*
X98177288Y-69118210D01*
X98169720Y-69130836D01*
X98160952Y-69142659D01*
X98151066Y-69153566D01*
X98140159Y-69163452D01*
X98128336Y-69172220D01*
X98115710Y-69179788D01*
X98102403Y-69186082D01*
X98088543Y-69191041D01*
X98074264Y-69194618D01*
X98059703Y-69196778D01*
X98045000Y-69197500D01*
X96395000Y-69197500D01*
X96380297Y-69196778D01*
X96365736Y-69194618D01*
X96351457Y-69191041D01*
X96337597Y-69186082D01*
X96324290Y-69179788D01*
X96311664Y-69172220D01*
X96299841Y-69163452D01*
X96288934Y-69153566D01*
X96279048Y-69142659D01*
X96270280Y-69130836D01*
X96262712Y-69118210D01*
X96256418Y-69104903D01*
X96251459Y-69091043D01*
X96247882Y-69076764D01*
X96245722Y-69062203D01*
X96245000Y-69047500D01*
X96245000Y-68747500D01*
X96245722Y-68732797D01*
X96247882Y-68718236D01*
X96251459Y-68703957D01*
X96256418Y-68690097D01*
X96262712Y-68676790D01*
X96270280Y-68664164D01*
X96279048Y-68652341D01*
X96288934Y-68641434D01*
X96299841Y-68631548D01*
X96311664Y-68622780D01*
X96324290Y-68615212D01*
X96337597Y-68608918D01*
X96351457Y-68603959D01*
X96365736Y-68600382D01*
X96380297Y-68598222D01*
X96395000Y-68597500D01*
X98045000Y-68597500D01*
X98059703Y-68598222D01*
X98059703Y-68598222D01*
G37*
D13*
X97220000Y-68897500D03*
D10*
G36*
X98059703Y-67328222D02*
G01*
X98074264Y-67330382D01*
X98088543Y-67333959D01*
X98102403Y-67338918D01*
X98115710Y-67345212D01*
X98128336Y-67352780D01*
X98140159Y-67361548D01*
X98151066Y-67371434D01*
X98160952Y-67382341D01*
X98169720Y-67394164D01*
X98177288Y-67406790D01*
X98183582Y-67420097D01*
X98188541Y-67433957D01*
X98192118Y-67448236D01*
X98194278Y-67462797D01*
X98195000Y-67477500D01*
X98195000Y-67777500D01*
X98194278Y-67792203D01*
X98192118Y-67806764D01*
X98188541Y-67821043D01*
X98183582Y-67834903D01*
X98177288Y-67848210D01*
X98169720Y-67860836D01*
X98160952Y-67872659D01*
X98151066Y-67883566D01*
X98140159Y-67893452D01*
X98128336Y-67902220D01*
X98115710Y-67909788D01*
X98102403Y-67916082D01*
X98088543Y-67921041D01*
X98074264Y-67924618D01*
X98059703Y-67926778D01*
X98045000Y-67927500D01*
X96395000Y-67927500D01*
X96380297Y-67926778D01*
X96365736Y-67924618D01*
X96351457Y-67921041D01*
X96337597Y-67916082D01*
X96324290Y-67909788D01*
X96311664Y-67902220D01*
X96299841Y-67893452D01*
X96288934Y-67883566D01*
X96279048Y-67872659D01*
X96270280Y-67860836D01*
X96262712Y-67848210D01*
X96256418Y-67834903D01*
X96251459Y-67821043D01*
X96247882Y-67806764D01*
X96245722Y-67792203D01*
X96245000Y-67777500D01*
X96245000Y-67477500D01*
X96245722Y-67462797D01*
X96247882Y-67448236D01*
X96251459Y-67433957D01*
X96256418Y-67420097D01*
X96262712Y-67406790D01*
X96270280Y-67394164D01*
X96279048Y-67382341D01*
X96288934Y-67371434D01*
X96299841Y-67361548D01*
X96311664Y-67352780D01*
X96324290Y-67345212D01*
X96337597Y-67338918D01*
X96351457Y-67333959D01*
X96365736Y-67330382D01*
X96380297Y-67328222D01*
X96395000Y-67327500D01*
X98045000Y-67327500D01*
X98059703Y-67328222D01*
X98059703Y-67328222D01*
G37*
D13*
X97220000Y-67627500D03*
D10*
G36*
X98059703Y-66058222D02*
G01*
X98074264Y-66060382D01*
X98088543Y-66063959D01*
X98102403Y-66068918D01*
X98115710Y-66075212D01*
X98128336Y-66082780D01*
X98140159Y-66091548D01*
X98151066Y-66101434D01*
X98160952Y-66112341D01*
X98169720Y-66124164D01*
X98177288Y-66136790D01*
X98183582Y-66150097D01*
X98188541Y-66163957D01*
X98192118Y-66178236D01*
X98194278Y-66192797D01*
X98195000Y-66207500D01*
X98195000Y-66507500D01*
X98194278Y-66522203D01*
X98192118Y-66536764D01*
X98188541Y-66551043D01*
X98183582Y-66564903D01*
X98177288Y-66578210D01*
X98169720Y-66590836D01*
X98160952Y-66602659D01*
X98151066Y-66613566D01*
X98140159Y-66623452D01*
X98128336Y-66632220D01*
X98115710Y-66639788D01*
X98102403Y-66646082D01*
X98088543Y-66651041D01*
X98074264Y-66654618D01*
X98059703Y-66656778D01*
X98045000Y-66657500D01*
X96395000Y-66657500D01*
X96380297Y-66656778D01*
X96365736Y-66654618D01*
X96351457Y-66651041D01*
X96337597Y-66646082D01*
X96324290Y-66639788D01*
X96311664Y-66632220D01*
X96299841Y-66623452D01*
X96288934Y-66613566D01*
X96279048Y-66602659D01*
X96270280Y-66590836D01*
X96262712Y-66578210D01*
X96256418Y-66564903D01*
X96251459Y-66551043D01*
X96247882Y-66536764D01*
X96245722Y-66522203D01*
X96245000Y-66507500D01*
X96245000Y-66207500D01*
X96245722Y-66192797D01*
X96247882Y-66178236D01*
X96251459Y-66163957D01*
X96256418Y-66150097D01*
X96262712Y-66136790D01*
X96270280Y-66124164D01*
X96279048Y-66112341D01*
X96288934Y-66101434D01*
X96299841Y-66091548D01*
X96311664Y-66082780D01*
X96324290Y-66075212D01*
X96337597Y-66068918D01*
X96351457Y-66063959D01*
X96365736Y-66060382D01*
X96380297Y-66058222D01*
X96395000Y-66057500D01*
X98045000Y-66057500D01*
X98059703Y-66058222D01*
X98059703Y-66058222D01*
G37*
D13*
X97220000Y-66357500D03*
D10*
G36*
X98059703Y-64788222D02*
G01*
X98074264Y-64790382D01*
X98088543Y-64793959D01*
X98102403Y-64798918D01*
X98115710Y-64805212D01*
X98128336Y-64812780D01*
X98140159Y-64821548D01*
X98151066Y-64831434D01*
X98160952Y-64842341D01*
X98169720Y-64854164D01*
X98177288Y-64866790D01*
X98183582Y-64880097D01*
X98188541Y-64893957D01*
X98192118Y-64908236D01*
X98194278Y-64922797D01*
X98195000Y-64937500D01*
X98195000Y-65237500D01*
X98194278Y-65252203D01*
X98192118Y-65266764D01*
X98188541Y-65281043D01*
X98183582Y-65294903D01*
X98177288Y-65308210D01*
X98169720Y-65320836D01*
X98160952Y-65332659D01*
X98151066Y-65343566D01*
X98140159Y-65353452D01*
X98128336Y-65362220D01*
X98115710Y-65369788D01*
X98102403Y-65376082D01*
X98088543Y-65381041D01*
X98074264Y-65384618D01*
X98059703Y-65386778D01*
X98045000Y-65387500D01*
X96395000Y-65387500D01*
X96380297Y-65386778D01*
X96365736Y-65384618D01*
X96351457Y-65381041D01*
X96337597Y-65376082D01*
X96324290Y-65369788D01*
X96311664Y-65362220D01*
X96299841Y-65353452D01*
X96288934Y-65343566D01*
X96279048Y-65332659D01*
X96270280Y-65320836D01*
X96262712Y-65308210D01*
X96256418Y-65294903D01*
X96251459Y-65281043D01*
X96247882Y-65266764D01*
X96245722Y-65252203D01*
X96245000Y-65237500D01*
X96245000Y-64937500D01*
X96245722Y-64922797D01*
X96247882Y-64908236D01*
X96251459Y-64893957D01*
X96256418Y-64880097D01*
X96262712Y-64866790D01*
X96270280Y-64854164D01*
X96279048Y-64842341D01*
X96288934Y-64831434D01*
X96299841Y-64821548D01*
X96311664Y-64812780D01*
X96324290Y-64805212D01*
X96337597Y-64798918D01*
X96351457Y-64793959D01*
X96365736Y-64790382D01*
X96380297Y-64788222D01*
X96395000Y-64787500D01*
X98045000Y-64787500D01*
X98059703Y-64788222D01*
X98059703Y-64788222D01*
G37*
D13*
X97220000Y-65087500D03*
D10*
G36*
X98059703Y-63518222D02*
G01*
X98074264Y-63520382D01*
X98088543Y-63523959D01*
X98102403Y-63528918D01*
X98115710Y-63535212D01*
X98128336Y-63542780D01*
X98140159Y-63551548D01*
X98151066Y-63561434D01*
X98160952Y-63572341D01*
X98169720Y-63584164D01*
X98177288Y-63596790D01*
X98183582Y-63610097D01*
X98188541Y-63623957D01*
X98192118Y-63638236D01*
X98194278Y-63652797D01*
X98195000Y-63667500D01*
X98195000Y-63967500D01*
X98194278Y-63982203D01*
X98192118Y-63996764D01*
X98188541Y-64011043D01*
X98183582Y-64024903D01*
X98177288Y-64038210D01*
X98169720Y-64050836D01*
X98160952Y-64062659D01*
X98151066Y-64073566D01*
X98140159Y-64083452D01*
X98128336Y-64092220D01*
X98115710Y-64099788D01*
X98102403Y-64106082D01*
X98088543Y-64111041D01*
X98074264Y-64114618D01*
X98059703Y-64116778D01*
X98045000Y-64117500D01*
X96395000Y-64117500D01*
X96380297Y-64116778D01*
X96365736Y-64114618D01*
X96351457Y-64111041D01*
X96337597Y-64106082D01*
X96324290Y-64099788D01*
X96311664Y-64092220D01*
X96299841Y-64083452D01*
X96288934Y-64073566D01*
X96279048Y-64062659D01*
X96270280Y-64050836D01*
X96262712Y-64038210D01*
X96256418Y-64024903D01*
X96251459Y-64011043D01*
X96247882Y-63996764D01*
X96245722Y-63982203D01*
X96245000Y-63967500D01*
X96245000Y-63667500D01*
X96245722Y-63652797D01*
X96247882Y-63638236D01*
X96251459Y-63623957D01*
X96256418Y-63610097D01*
X96262712Y-63596790D01*
X96270280Y-63584164D01*
X96279048Y-63572341D01*
X96288934Y-63561434D01*
X96299841Y-63551548D01*
X96311664Y-63542780D01*
X96324290Y-63535212D01*
X96337597Y-63528918D01*
X96351457Y-63523959D01*
X96365736Y-63520382D01*
X96380297Y-63518222D01*
X96395000Y-63517500D01*
X98045000Y-63517500D01*
X98059703Y-63518222D01*
X98059703Y-63518222D01*
G37*
D13*
X97220000Y-63817500D03*
D10*
G36*
X98059703Y-62248222D02*
G01*
X98074264Y-62250382D01*
X98088543Y-62253959D01*
X98102403Y-62258918D01*
X98115710Y-62265212D01*
X98128336Y-62272780D01*
X98140159Y-62281548D01*
X98151066Y-62291434D01*
X98160952Y-62302341D01*
X98169720Y-62314164D01*
X98177288Y-62326790D01*
X98183582Y-62340097D01*
X98188541Y-62353957D01*
X98192118Y-62368236D01*
X98194278Y-62382797D01*
X98195000Y-62397500D01*
X98195000Y-62697500D01*
X98194278Y-62712203D01*
X98192118Y-62726764D01*
X98188541Y-62741043D01*
X98183582Y-62754903D01*
X98177288Y-62768210D01*
X98169720Y-62780836D01*
X98160952Y-62792659D01*
X98151066Y-62803566D01*
X98140159Y-62813452D01*
X98128336Y-62822220D01*
X98115710Y-62829788D01*
X98102403Y-62836082D01*
X98088543Y-62841041D01*
X98074264Y-62844618D01*
X98059703Y-62846778D01*
X98045000Y-62847500D01*
X96395000Y-62847500D01*
X96380297Y-62846778D01*
X96365736Y-62844618D01*
X96351457Y-62841041D01*
X96337597Y-62836082D01*
X96324290Y-62829788D01*
X96311664Y-62822220D01*
X96299841Y-62813452D01*
X96288934Y-62803566D01*
X96279048Y-62792659D01*
X96270280Y-62780836D01*
X96262712Y-62768210D01*
X96256418Y-62754903D01*
X96251459Y-62741043D01*
X96247882Y-62726764D01*
X96245722Y-62712203D01*
X96245000Y-62697500D01*
X96245000Y-62397500D01*
X96245722Y-62382797D01*
X96247882Y-62368236D01*
X96251459Y-62353957D01*
X96256418Y-62340097D01*
X96262712Y-62326790D01*
X96270280Y-62314164D01*
X96279048Y-62302341D01*
X96288934Y-62291434D01*
X96299841Y-62281548D01*
X96311664Y-62272780D01*
X96324290Y-62265212D01*
X96337597Y-62258918D01*
X96351457Y-62253959D01*
X96365736Y-62250382D01*
X96380297Y-62248222D01*
X96395000Y-62247500D01*
X98045000Y-62247500D01*
X98059703Y-62248222D01*
X98059703Y-62248222D01*
G37*
D13*
X97220000Y-62547500D03*
D10*
G36*
X98059703Y-60978222D02*
G01*
X98074264Y-60980382D01*
X98088543Y-60983959D01*
X98102403Y-60988918D01*
X98115710Y-60995212D01*
X98128336Y-61002780D01*
X98140159Y-61011548D01*
X98151066Y-61021434D01*
X98160952Y-61032341D01*
X98169720Y-61044164D01*
X98177288Y-61056790D01*
X98183582Y-61070097D01*
X98188541Y-61083957D01*
X98192118Y-61098236D01*
X98194278Y-61112797D01*
X98195000Y-61127500D01*
X98195000Y-61427500D01*
X98194278Y-61442203D01*
X98192118Y-61456764D01*
X98188541Y-61471043D01*
X98183582Y-61484903D01*
X98177288Y-61498210D01*
X98169720Y-61510836D01*
X98160952Y-61522659D01*
X98151066Y-61533566D01*
X98140159Y-61543452D01*
X98128336Y-61552220D01*
X98115710Y-61559788D01*
X98102403Y-61566082D01*
X98088543Y-61571041D01*
X98074264Y-61574618D01*
X98059703Y-61576778D01*
X98045000Y-61577500D01*
X96395000Y-61577500D01*
X96380297Y-61576778D01*
X96365736Y-61574618D01*
X96351457Y-61571041D01*
X96337597Y-61566082D01*
X96324290Y-61559788D01*
X96311664Y-61552220D01*
X96299841Y-61543452D01*
X96288934Y-61533566D01*
X96279048Y-61522659D01*
X96270280Y-61510836D01*
X96262712Y-61498210D01*
X96256418Y-61484903D01*
X96251459Y-61471043D01*
X96247882Y-61456764D01*
X96245722Y-61442203D01*
X96245000Y-61427500D01*
X96245000Y-61127500D01*
X96245722Y-61112797D01*
X96247882Y-61098236D01*
X96251459Y-61083957D01*
X96256418Y-61070097D01*
X96262712Y-61056790D01*
X96270280Y-61044164D01*
X96279048Y-61032341D01*
X96288934Y-61021434D01*
X96299841Y-61011548D01*
X96311664Y-61002780D01*
X96324290Y-60995212D01*
X96337597Y-60988918D01*
X96351457Y-60983959D01*
X96365736Y-60980382D01*
X96380297Y-60978222D01*
X96395000Y-60977500D01*
X98045000Y-60977500D01*
X98059703Y-60978222D01*
X98059703Y-60978222D01*
G37*
D13*
X97220000Y-61277500D03*
D10*
G36*
X103009703Y-60978222D02*
G01*
X103024264Y-60980382D01*
X103038543Y-60983959D01*
X103052403Y-60988918D01*
X103065710Y-60995212D01*
X103078336Y-61002780D01*
X103090159Y-61011548D01*
X103101066Y-61021434D01*
X103110952Y-61032341D01*
X103119720Y-61044164D01*
X103127288Y-61056790D01*
X103133582Y-61070097D01*
X103138541Y-61083957D01*
X103142118Y-61098236D01*
X103144278Y-61112797D01*
X103145000Y-61127500D01*
X103145000Y-61427500D01*
X103144278Y-61442203D01*
X103142118Y-61456764D01*
X103138541Y-61471043D01*
X103133582Y-61484903D01*
X103127288Y-61498210D01*
X103119720Y-61510836D01*
X103110952Y-61522659D01*
X103101066Y-61533566D01*
X103090159Y-61543452D01*
X103078336Y-61552220D01*
X103065710Y-61559788D01*
X103052403Y-61566082D01*
X103038543Y-61571041D01*
X103024264Y-61574618D01*
X103009703Y-61576778D01*
X102995000Y-61577500D01*
X101345000Y-61577500D01*
X101330297Y-61576778D01*
X101315736Y-61574618D01*
X101301457Y-61571041D01*
X101287597Y-61566082D01*
X101274290Y-61559788D01*
X101261664Y-61552220D01*
X101249841Y-61543452D01*
X101238934Y-61533566D01*
X101229048Y-61522659D01*
X101220280Y-61510836D01*
X101212712Y-61498210D01*
X101206418Y-61484903D01*
X101201459Y-61471043D01*
X101197882Y-61456764D01*
X101195722Y-61442203D01*
X101195000Y-61427500D01*
X101195000Y-61127500D01*
X101195722Y-61112797D01*
X101197882Y-61098236D01*
X101201459Y-61083957D01*
X101206418Y-61070097D01*
X101212712Y-61056790D01*
X101220280Y-61044164D01*
X101229048Y-61032341D01*
X101238934Y-61021434D01*
X101249841Y-61011548D01*
X101261664Y-61002780D01*
X101274290Y-60995212D01*
X101287597Y-60988918D01*
X101301457Y-60983959D01*
X101315736Y-60980382D01*
X101330297Y-60978222D01*
X101345000Y-60977500D01*
X102995000Y-60977500D01*
X103009703Y-60978222D01*
X103009703Y-60978222D01*
G37*
D13*
X102170000Y-61277500D03*
D10*
G36*
X103009703Y-62248222D02*
G01*
X103024264Y-62250382D01*
X103038543Y-62253959D01*
X103052403Y-62258918D01*
X103065710Y-62265212D01*
X103078336Y-62272780D01*
X103090159Y-62281548D01*
X103101066Y-62291434D01*
X103110952Y-62302341D01*
X103119720Y-62314164D01*
X103127288Y-62326790D01*
X103133582Y-62340097D01*
X103138541Y-62353957D01*
X103142118Y-62368236D01*
X103144278Y-62382797D01*
X103145000Y-62397500D01*
X103145000Y-62697500D01*
X103144278Y-62712203D01*
X103142118Y-62726764D01*
X103138541Y-62741043D01*
X103133582Y-62754903D01*
X103127288Y-62768210D01*
X103119720Y-62780836D01*
X103110952Y-62792659D01*
X103101066Y-62803566D01*
X103090159Y-62813452D01*
X103078336Y-62822220D01*
X103065710Y-62829788D01*
X103052403Y-62836082D01*
X103038543Y-62841041D01*
X103024264Y-62844618D01*
X103009703Y-62846778D01*
X102995000Y-62847500D01*
X101345000Y-62847500D01*
X101330297Y-62846778D01*
X101315736Y-62844618D01*
X101301457Y-62841041D01*
X101287597Y-62836082D01*
X101274290Y-62829788D01*
X101261664Y-62822220D01*
X101249841Y-62813452D01*
X101238934Y-62803566D01*
X101229048Y-62792659D01*
X101220280Y-62780836D01*
X101212712Y-62768210D01*
X101206418Y-62754903D01*
X101201459Y-62741043D01*
X101197882Y-62726764D01*
X101195722Y-62712203D01*
X101195000Y-62697500D01*
X101195000Y-62397500D01*
X101195722Y-62382797D01*
X101197882Y-62368236D01*
X101201459Y-62353957D01*
X101206418Y-62340097D01*
X101212712Y-62326790D01*
X101220280Y-62314164D01*
X101229048Y-62302341D01*
X101238934Y-62291434D01*
X101249841Y-62281548D01*
X101261664Y-62272780D01*
X101274290Y-62265212D01*
X101287597Y-62258918D01*
X101301457Y-62253959D01*
X101315736Y-62250382D01*
X101330297Y-62248222D01*
X101345000Y-62247500D01*
X102995000Y-62247500D01*
X103009703Y-62248222D01*
X103009703Y-62248222D01*
G37*
D13*
X102170000Y-62547500D03*
D10*
G36*
X103009703Y-63518222D02*
G01*
X103024264Y-63520382D01*
X103038543Y-63523959D01*
X103052403Y-63528918D01*
X103065710Y-63535212D01*
X103078336Y-63542780D01*
X103090159Y-63551548D01*
X103101066Y-63561434D01*
X103110952Y-63572341D01*
X103119720Y-63584164D01*
X103127288Y-63596790D01*
X103133582Y-63610097D01*
X103138541Y-63623957D01*
X103142118Y-63638236D01*
X103144278Y-63652797D01*
X103145000Y-63667500D01*
X103145000Y-63967500D01*
X103144278Y-63982203D01*
X103142118Y-63996764D01*
X103138541Y-64011043D01*
X103133582Y-64024903D01*
X103127288Y-64038210D01*
X103119720Y-64050836D01*
X103110952Y-64062659D01*
X103101066Y-64073566D01*
X103090159Y-64083452D01*
X103078336Y-64092220D01*
X103065710Y-64099788D01*
X103052403Y-64106082D01*
X103038543Y-64111041D01*
X103024264Y-64114618D01*
X103009703Y-64116778D01*
X102995000Y-64117500D01*
X101345000Y-64117500D01*
X101330297Y-64116778D01*
X101315736Y-64114618D01*
X101301457Y-64111041D01*
X101287597Y-64106082D01*
X101274290Y-64099788D01*
X101261664Y-64092220D01*
X101249841Y-64083452D01*
X101238934Y-64073566D01*
X101229048Y-64062659D01*
X101220280Y-64050836D01*
X101212712Y-64038210D01*
X101206418Y-64024903D01*
X101201459Y-64011043D01*
X101197882Y-63996764D01*
X101195722Y-63982203D01*
X101195000Y-63967500D01*
X101195000Y-63667500D01*
X101195722Y-63652797D01*
X101197882Y-63638236D01*
X101201459Y-63623957D01*
X101206418Y-63610097D01*
X101212712Y-63596790D01*
X101220280Y-63584164D01*
X101229048Y-63572341D01*
X101238934Y-63561434D01*
X101249841Y-63551548D01*
X101261664Y-63542780D01*
X101274290Y-63535212D01*
X101287597Y-63528918D01*
X101301457Y-63523959D01*
X101315736Y-63520382D01*
X101330297Y-63518222D01*
X101345000Y-63517500D01*
X102995000Y-63517500D01*
X103009703Y-63518222D01*
X103009703Y-63518222D01*
G37*
D13*
X102170000Y-63817500D03*
D10*
G36*
X103009703Y-64788222D02*
G01*
X103024264Y-64790382D01*
X103038543Y-64793959D01*
X103052403Y-64798918D01*
X103065710Y-64805212D01*
X103078336Y-64812780D01*
X103090159Y-64821548D01*
X103101066Y-64831434D01*
X103110952Y-64842341D01*
X103119720Y-64854164D01*
X103127288Y-64866790D01*
X103133582Y-64880097D01*
X103138541Y-64893957D01*
X103142118Y-64908236D01*
X103144278Y-64922797D01*
X103145000Y-64937500D01*
X103145000Y-65237500D01*
X103144278Y-65252203D01*
X103142118Y-65266764D01*
X103138541Y-65281043D01*
X103133582Y-65294903D01*
X103127288Y-65308210D01*
X103119720Y-65320836D01*
X103110952Y-65332659D01*
X103101066Y-65343566D01*
X103090159Y-65353452D01*
X103078336Y-65362220D01*
X103065710Y-65369788D01*
X103052403Y-65376082D01*
X103038543Y-65381041D01*
X103024264Y-65384618D01*
X103009703Y-65386778D01*
X102995000Y-65387500D01*
X101345000Y-65387500D01*
X101330297Y-65386778D01*
X101315736Y-65384618D01*
X101301457Y-65381041D01*
X101287597Y-65376082D01*
X101274290Y-65369788D01*
X101261664Y-65362220D01*
X101249841Y-65353452D01*
X101238934Y-65343566D01*
X101229048Y-65332659D01*
X101220280Y-65320836D01*
X101212712Y-65308210D01*
X101206418Y-65294903D01*
X101201459Y-65281043D01*
X101197882Y-65266764D01*
X101195722Y-65252203D01*
X101195000Y-65237500D01*
X101195000Y-64937500D01*
X101195722Y-64922797D01*
X101197882Y-64908236D01*
X101201459Y-64893957D01*
X101206418Y-64880097D01*
X101212712Y-64866790D01*
X101220280Y-64854164D01*
X101229048Y-64842341D01*
X101238934Y-64831434D01*
X101249841Y-64821548D01*
X101261664Y-64812780D01*
X101274290Y-64805212D01*
X101287597Y-64798918D01*
X101301457Y-64793959D01*
X101315736Y-64790382D01*
X101330297Y-64788222D01*
X101345000Y-64787500D01*
X102995000Y-64787500D01*
X103009703Y-64788222D01*
X103009703Y-64788222D01*
G37*
D13*
X102170000Y-65087500D03*
D10*
G36*
X103009703Y-66058222D02*
G01*
X103024264Y-66060382D01*
X103038543Y-66063959D01*
X103052403Y-66068918D01*
X103065710Y-66075212D01*
X103078336Y-66082780D01*
X103090159Y-66091548D01*
X103101066Y-66101434D01*
X103110952Y-66112341D01*
X103119720Y-66124164D01*
X103127288Y-66136790D01*
X103133582Y-66150097D01*
X103138541Y-66163957D01*
X103142118Y-66178236D01*
X103144278Y-66192797D01*
X103145000Y-66207500D01*
X103145000Y-66507500D01*
X103144278Y-66522203D01*
X103142118Y-66536764D01*
X103138541Y-66551043D01*
X103133582Y-66564903D01*
X103127288Y-66578210D01*
X103119720Y-66590836D01*
X103110952Y-66602659D01*
X103101066Y-66613566D01*
X103090159Y-66623452D01*
X103078336Y-66632220D01*
X103065710Y-66639788D01*
X103052403Y-66646082D01*
X103038543Y-66651041D01*
X103024264Y-66654618D01*
X103009703Y-66656778D01*
X102995000Y-66657500D01*
X101345000Y-66657500D01*
X101330297Y-66656778D01*
X101315736Y-66654618D01*
X101301457Y-66651041D01*
X101287597Y-66646082D01*
X101274290Y-66639788D01*
X101261664Y-66632220D01*
X101249841Y-66623452D01*
X101238934Y-66613566D01*
X101229048Y-66602659D01*
X101220280Y-66590836D01*
X101212712Y-66578210D01*
X101206418Y-66564903D01*
X101201459Y-66551043D01*
X101197882Y-66536764D01*
X101195722Y-66522203D01*
X101195000Y-66507500D01*
X101195000Y-66207500D01*
X101195722Y-66192797D01*
X101197882Y-66178236D01*
X101201459Y-66163957D01*
X101206418Y-66150097D01*
X101212712Y-66136790D01*
X101220280Y-66124164D01*
X101229048Y-66112341D01*
X101238934Y-66101434D01*
X101249841Y-66091548D01*
X101261664Y-66082780D01*
X101274290Y-66075212D01*
X101287597Y-66068918D01*
X101301457Y-66063959D01*
X101315736Y-66060382D01*
X101330297Y-66058222D01*
X101345000Y-66057500D01*
X102995000Y-66057500D01*
X103009703Y-66058222D01*
X103009703Y-66058222D01*
G37*
D13*
X102170000Y-66357500D03*
D10*
G36*
X103009703Y-67328222D02*
G01*
X103024264Y-67330382D01*
X103038543Y-67333959D01*
X103052403Y-67338918D01*
X103065710Y-67345212D01*
X103078336Y-67352780D01*
X103090159Y-67361548D01*
X103101066Y-67371434D01*
X103110952Y-67382341D01*
X103119720Y-67394164D01*
X103127288Y-67406790D01*
X103133582Y-67420097D01*
X103138541Y-67433957D01*
X103142118Y-67448236D01*
X103144278Y-67462797D01*
X103145000Y-67477500D01*
X103145000Y-67777500D01*
X103144278Y-67792203D01*
X103142118Y-67806764D01*
X103138541Y-67821043D01*
X103133582Y-67834903D01*
X103127288Y-67848210D01*
X103119720Y-67860836D01*
X103110952Y-67872659D01*
X103101066Y-67883566D01*
X103090159Y-67893452D01*
X103078336Y-67902220D01*
X103065710Y-67909788D01*
X103052403Y-67916082D01*
X103038543Y-67921041D01*
X103024264Y-67924618D01*
X103009703Y-67926778D01*
X102995000Y-67927500D01*
X101345000Y-67927500D01*
X101330297Y-67926778D01*
X101315736Y-67924618D01*
X101301457Y-67921041D01*
X101287597Y-67916082D01*
X101274290Y-67909788D01*
X101261664Y-67902220D01*
X101249841Y-67893452D01*
X101238934Y-67883566D01*
X101229048Y-67872659D01*
X101220280Y-67860836D01*
X101212712Y-67848210D01*
X101206418Y-67834903D01*
X101201459Y-67821043D01*
X101197882Y-67806764D01*
X101195722Y-67792203D01*
X101195000Y-67777500D01*
X101195000Y-67477500D01*
X101195722Y-67462797D01*
X101197882Y-67448236D01*
X101201459Y-67433957D01*
X101206418Y-67420097D01*
X101212712Y-67406790D01*
X101220280Y-67394164D01*
X101229048Y-67382341D01*
X101238934Y-67371434D01*
X101249841Y-67361548D01*
X101261664Y-67352780D01*
X101274290Y-67345212D01*
X101287597Y-67338918D01*
X101301457Y-67333959D01*
X101315736Y-67330382D01*
X101330297Y-67328222D01*
X101345000Y-67327500D01*
X102995000Y-67327500D01*
X103009703Y-67328222D01*
X103009703Y-67328222D01*
G37*
D13*
X102170000Y-67627500D03*
D10*
G36*
X103009703Y-68598222D02*
G01*
X103024264Y-68600382D01*
X103038543Y-68603959D01*
X103052403Y-68608918D01*
X103065710Y-68615212D01*
X103078336Y-68622780D01*
X103090159Y-68631548D01*
X103101066Y-68641434D01*
X103110952Y-68652341D01*
X103119720Y-68664164D01*
X103127288Y-68676790D01*
X103133582Y-68690097D01*
X103138541Y-68703957D01*
X103142118Y-68718236D01*
X103144278Y-68732797D01*
X103145000Y-68747500D01*
X103145000Y-69047500D01*
X103144278Y-69062203D01*
X103142118Y-69076764D01*
X103138541Y-69091043D01*
X103133582Y-69104903D01*
X103127288Y-69118210D01*
X103119720Y-69130836D01*
X103110952Y-69142659D01*
X103101066Y-69153566D01*
X103090159Y-69163452D01*
X103078336Y-69172220D01*
X103065710Y-69179788D01*
X103052403Y-69186082D01*
X103038543Y-69191041D01*
X103024264Y-69194618D01*
X103009703Y-69196778D01*
X102995000Y-69197500D01*
X101345000Y-69197500D01*
X101330297Y-69196778D01*
X101315736Y-69194618D01*
X101301457Y-69191041D01*
X101287597Y-69186082D01*
X101274290Y-69179788D01*
X101261664Y-69172220D01*
X101249841Y-69163452D01*
X101238934Y-69153566D01*
X101229048Y-69142659D01*
X101220280Y-69130836D01*
X101212712Y-69118210D01*
X101206418Y-69104903D01*
X101201459Y-69091043D01*
X101197882Y-69076764D01*
X101195722Y-69062203D01*
X101195000Y-69047500D01*
X101195000Y-68747500D01*
X101195722Y-68732797D01*
X101197882Y-68718236D01*
X101201459Y-68703957D01*
X101206418Y-68690097D01*
X101212712Y-68676790D01*
X101220280Y-68664164D01*
X101229048Y-68652341D01*
X101238934Y-68641434D01*
X101249841Y-68631548D01*
X101261664Y-68622780D01*
X101274290Y-68615212D01*
X101287597Y-68608918D01*
X101301457Y-68603959D01*
X101315736Y-68600382D01*
X101330297Y-68598222D01*
X101345000Y-68597500D01*
X102995000Y-68597500D01*
X103009703Y-68598222D01*
X103009703Y-68598222D01*
G37*
D13*
X102170000Y-68897500D03*
D10*
G36*
X103009703Y-69868222D02*
G01*
X103024264Y-69870382D01*
X103038543Y-69873959D01*
X103052403Y-69878918D01*
X103065710Y-69885212D01*
X103078336Y-69892780D01*
X103090159Y-69901548D01*
X103101066Y-69911434D01*
X103110952Y-69922341D01*
X103119720Y-69934164D01*
X103127288Y-69946790D01*
X103133582Y-69960097D01*
X103138541Y-69973957D01*
X103142118Y-69988236D01*
X103144278Y-70002797D01*
X103145000Y-70017500D01*
X103145000Y-70317500D01*
X103144278Y-70332203D01*
X103142118Y-70346764D01*
X103138541Y-70361043D01*
X103133582Y-70374903D01*
X103127288Y-70388210D01*
X103119720Y-70400836D01*
X103110952Y-70412659D01*
X103101066Y-70423566D01*
X103090159Y-70433452D01*
X103078336Y-70442220D01*
X103065710Y-70449788D01*
X103052403Y-70456082D01*
X103038543Y-70461041D01*
X103024264Y-70464618D01*
X103009703Y-70466778D01*
X102995000Y-70467500D01*
X101345000Y-70467500D01*
X101330297Y-70466778D01*
X101315736Y-70464618D01*
X101301457Y-70461041D01*
X101287597Y-70456082D01*
X101274290Y-70449788D01*
X101261664Y-70442220D01*
X101249841Y-70433452D01*
X101238934Y-70423566D01*
X101229048Y-70412659D01*
X101220280Y-70400836D01*
X101212712Y-70388210D01*
X101206418Y-70374903D01*
X101201459Y-70361043D01*
X101197882Y-70346764D01*
X101195722Y-70332203D01*
X101195000Y-70317500D01*
X101195000Y-70017500D01*
X101195722Y-70002797D01*
X101197882Y-69988236D01*
X101201459Y-69973957D01*
X101206418Y-69960097D01*
X101212712Y-69946790D01*
X101220280Y-69934164D01*
X101229048Y-69922341D01*
X101238934Y-69911434D01*
X101249841Y-69901548D01*
X101261664Y-69892780D01*
X101274290Y-69885212D01*
X101287597Y-69878918D01*
X101301457Y-69873959D01*
X101315736Y-69870382D01*
X101330297Y-69868222D01*
X101345000Y-69867500D01*
X102995000Y-69867500D01*
X103009703Y-69868222D01*
X103009703Y-69868222D01*
G37*
D13*
X102170000Y-70167500D03*
M02*
