G04 #@! TF.GenerationSoftware,KiCad,Pcbnew,(5.1.8)-1*
G04 #@! TF.CreationDate,2020-11-07T15:34:37+03:00*
G04 #@! TF.ProjectId,ArrowKbd,4172726f-774b-4626-942e-6b696361645f,rev?*
G04 #@! TF.SameCoordinates,Original*
G04 #@! TF.FileFunction,Legend,Top*
G04 #@! TF.FilePolarity,Positive*
%FSLAX46Y46*%
G04 Gerber Fmt 4.6, Leading zero omitted, Abs format (unit mm)*
G04 Created by KiCad (PCBNEW (5.1.8)-1) date 2020-11-07 15:34:37*
%MOMM*%
%LPD*%
G01*
G04 APERTURE LIST*
%ADD10C,0.100000*%
%ADD11C,0.150000*%
%ADD12C,0.120000*%
G04 APERTURE END LIST*
D10*
G36*
X114720000Y-63140000D02*
G01*
X114940000Y-63460000D01*
X115130000Y-63640000D01*
X115190000Y-63680000D01*
X115620000Y-63810000D01*
X115660000Y-63790000D01*
X115660000Y-63700000D01*
X115470000Y-63270000D01*
X115170000Y-62620000D01*
X115980000Y-63610000D01*
X116180000Y-63830000D01*
X116300000Y-63930000D01*
X116380000Y-63960000D01*
X116560000Y-63970000D01*
X116780000Y-64030000D01*
X116740000Y-63910000D01*
X116230000Y-63020000D01*
X117000000Y-63860000D01*
X117160000Y-64050000D01*
X117250000Y-64130000D01*
X117360000Y-64180000D01*
X117800000Y-64230000D01*
X118260000Y-64250000D01*
X118740000Y-63650000D01*
X118890000Y-63500000D01*
X118880000Y-63580000D01*
X118740000Y-63910000D01*
X118660000Y-64080000D01*
X118650000Y-64160000D01*
X118730000Y-64170000D01*
X119130000Y-64150000D01*
X119480000Y-64040000D01*
X120150000Y-63470000D01*
X120030000Y-63760000D01*
X119600000Y-64410000D01*
X119270000Y-64470000D01*
X118660000Y-64520000D01*
X118470000Y-64590000D01*
X118690000Y-64650000D01*
X120020000Y-64870000D01*
X120340000Y-64940000D01*
X120470000Y-65040000D01*
X120490000Y-65210000D01*
X120470000Y-65370000D01*
X120410000Y-65450000D01*
X120360000Y-65470000D01*
X120320000Y-65550000D01*
X120320000Y-65650000D01*
X120260000Y-65700000D01*
X120070000Y-65750000D01*
X119450000Y-65860000D01*
X119160000Y-65940000D01*
X119030000Y-66060000D01*
X119000000Y-66120000D01*
X118970000Y-66270000D01*
X118980000Y-66440000D01*
X118650000Y-70210000D01*
X118700000Y-66820000D01*
X118690000Y-66540000D01*
X118680000Y-66350000D01*
X118670000Y-66310000D01*
X118630000Y-66270000D01*
X118580000Y-66390000D01*
X118550000Y-66720000D01*
X118520000Y-67210000D01*
X118490000Y-68590000D01*
X118470000Y-69120000D01*
X118430000Y-69450000D01*
X118400000Y-69270000D01*
X118370000Y-68590000D01*
X118370000Y-67710000D01*
X118350000Y-66490000D01*
X118190000Y-66530000D01*
X118080000Y-66530000D01*
X118010000Y-66480000D01*
X117940000Y-66350000D01*
X117700000Y-65720000D01*
X118010000Y-65320000D01*
X117970000Y-65550000D01*
X117960000Y-65710000D01*
X117960000Y-65780000D01*
X118030000Y-65910000D01*
X118180000Y-66120000D01*
X119090000Y-65730000D01*
X119220000Y-65660000D01*
X119270000Y-65600000D01*
X119160000Y-65560000D01*
X119370000Y-65520000D01*
X119890000Y-65510000D01*
X120010000Y-65490000D01*
X120100000Y-65440000D01*
X120130000Y-65380000D01*
X120100000Y-65260000D01*
X119940000Y-65160000D01*
X119670000Y-65050000D01*
X119270000Y-64970000D01*
X119030000Y-64960000D01*
X118890000Y-64980000D01*
X118840000Y-65020000D01*
X118770000Y-65120000D01*
X118720000Y-65130000D01*
X118660000Y-65130000D01*
X118540000Y-65080000D01*
X118390000Y-64980000D01*
X118350000Y-64920000D01*
X118340000Y-64880000D01*
X118280000Y-64850000D01*
X118200000Y-64820000D01*
X117710000Y-64800000D01*
X117260000Y-64810000D01*
X117120000Y-64830000D01*
X117000000Y-64860000D01*
X117020000Y-64900000D01*
X117230000Y-64940000D01*
X117530000Y-64960000D01*
X118040000Y-64970000D01*
X117620000Y-65120000D01*
X117620000Y-65150000D01*
X117820000Y-65170000D01*
X117830000Y-65200000D01*
X117590000Y-65320000D01*
X117530000Y-65390000D01*
X117400000Y-65580000D01*
X117200000Y-66010000D01*
X116770000Y-67060000D01*
X116550000Y-67710000D01*
X116500000Y-67880000D01*
X116470000Y-68020000D01*
X116520000Y-68100000D01*
X116570000Y-68070000D01*
X116610000Y-68000000D01*
X116700000Y-67780000D01*
X116880000Y-67270000D01*
X117190000Y-66440000D01*
X117150000Y-66700000D01*
X116900000Y-67700000D01*
X116840000Y-67910000D01*
X116780000Y-68250000D01*
X116760000Y-68370000D01*
X116760000Y-68480000D01*
X116810000Y-68540000D01*
X116870000Y-68460000D01*
X116910000Y-68310000D01*
X117010000Y-67940000D01*
X117170000Y-67220000D01*
X117200000Y-67220000D01*
X117050000Y-68380000D01*
X116980000Y-68830000D01*
X117370000Y-69400000D01*
X117530000Y-69700000D01*
X116920000Y-68990000D01*
X116220000Y-68100000D01*
X114580000Y-68170000D01*
X115980000Y-67870000D01*
X116190000Y-67800000D01*
X116270000Y-67580000D01*
X116560000Y-66700000D01*
X116810000Y-65850000D01*
X116970000Y-65180000D01*
X116240000Y-64610000D01*
X116600000Y-64570000D01*
X117050000Y-64590000D01*
X117530000Y-64600000D01*
X115610000Y-64180000D01*
X114810000Y-63990000D01*
X114380000Y-63020000D01*
X114010000Y-62120000D01*
X114720000Y-63140000D01*
G37*
X114720000Y-63140000D02*
X114940000Y-63460000D01*
X115130000Y-63640000D01*
X115190000Y-63680000D01*
X115620000Y-63810000D01*
X115660000Y-63790000D01*
X115660000Y-63700000D01*
X115470000Y-63270000D01*
X115170000Y-62620000D01*
X115980000Y-63610000D01*
X116180000Y-63830000D01*
X116300000Y-63930000D01*
X116380000Y-63960000D01*
X116560000Y-63970000D01*
X116780000Y-64030000D01*
X116740000Y-63910000D01*
X116230000Y-63020000D01*
X117000000Y-63860000D01*
X117160000Y-64050000D01*
X117250000Y-64130000D01*
X117360000Y-64180000D01*
X117800000Y-64230000D01*
X118260000Y-64250000D01*
X118740000Y-63650000D01*
X118890000Y-63500000D01*
X118880000Y-63580000D01*
X118740000Y-63910000D01*
X118660000Y-64080000D01*
X118650000Y-64160000D01*
X118730000Y-64170000D01*
X119130000Y-64150000D01*
X119480000Y-64040000D01*
X120150000Y-63470000D01*
X120030000Y-63760000D01*
X119600000Y-64410000D01*
X119270000Y-64470000D01*
X118660000Y-64520000D01*
X118470000Y-64590000D01*
X118690000Y-64650000D01*
X120020000Y-64870000D01*
X120340000Y-64940000D01*
X120470000Y-65040000D01*
X120490000Y-65210000D01*
X120470000Y-65370000D01*
X120410000Y-65450000D01*
X120360000Y-65470000D01*
X120320000Y-65550000D01*
X120320000Y-65650000D01*
X120260000Y-65700000D01*
X120070000Y-65750000D01*
X119450000Y-65860000D01*
X119160000Y-65940000D01*
X119030000Y-66060000D01*
X119000000Y-66120000D01*
X118970000Y-66270000D01*
X118980000Y-66440000D01*
X118650000Y-70210000D01*
X118700000Y-66820000D01*
X118690000Y-66540000D01*
X118680000Y-66350000D01*
X118670000Y-66310000D01*
X118630000Y-66270000D01*
X118580000Y-66390000D01*
X118550000Y-66720000D01*
X118520000Y-67210000D01*
X118490000Y-68590000D01*
X118470000Y-69120000D01*
X118430000Y-69450000D01*
X118400000Y-69270000D01*
X118370000Y-68590000D01*
X118370000Y-67710000D01*
X118350000Y-66490000D01*
X118190000Y-66530000D01*
X118080000Y-66530000D01*
X118010000Y-66480000D01*
X117940000Y-66350000D01*
X117700000Y-65720000D01*
X118010000Y-65320000D01*
X117970000Y-65550000D01*
X117960000Y-65710000D01*
X117960000Y-65780000D01*
X118030000Y-65910000D01*
X118180000Y-66120000D01*
X119090000Y-65730000D01*
X119220000Y-65660000D01*
X119270000Y-65600000D01*
X119160000Y-65560000D01*
X119370000Y-65520000D01*
X119890000Y-65510000D01*
X120010000Y-65490000D01*
X120100000Y-65440000D01*
X120130000Y-65380000D01*
X120100000Y-65260000D01*
X119940000Y-65160000D01*
X119670000Y-65050000D01*
X119270000Y-64970000D01*
X119030000Y-64960000D01*
X118890000Y-64980000D01*
X118840000Y-65020000D01*
X118770000Y-65120000D01*
X118720000Y-65130000D01*
X118660000Y-65130000D01*
X118540000Y-65080000D01*
X118390000Y-64980000D01*
X118350000Y-64920000D01*
X118340000Y-64880000D01*
X118280000Y-64850000D01*
X118200000Y-64820000D01*
X117710000Y-64800000D01*
X117260000Y-64810000D01*
X117120000Y-64830000D01*
X117000000Y-64860000D01*
X117020000Y-64900000D01*
X117230000Y-64940000D01*
X117530000Y-64960000D01*
X118040000Y-64970000D01*
X117620000Y-65120000D01*
X117620000Y-65150000D01*
X117820000Y-65170000D01*
X117830000Y-65200000D01*
X117590000Y-65320000D01*
X117530000Y-65390000D01*
X117400000Y-65580000D01*
X117200000Y-66010000D01*
X116770000Y-67060000D01*
X116550000Y-67710000D01*
X116500000Y-67880000D01*
X116470000Y-68020000D01*
X116520000Y-68100000D01*
X116570000Y-68070000D01*
X116610000Y-68000000D01*
X116700000Y-67780000D01*
X116880000Y-67270000D01*
X117190000Y-66440000D01*
X117150000Y-66700000D01*
X116900000Y-67700000D01*
X116840000Y-67910000D01*
X116780000Y-68250000D01*
X116760000Y-68370000D01*
X116760000Y-68480000D01*
X116810000Y-68540000D01*
X116870000Y-68460000D01*
X116910000Y-68310000D01*
X117010000Y-67940000D01*
X117170000Y-67220000D01*
X117200000Y-67220000D01*
X117050000Y-68380000D01*
X116980000Y-68830000D01*
X117370000Y-69400000D01*
X117530000Y-69700000D01*
X116920000Y-68990000D01*
X116220000Y-68100000D01*
X114580000Y-68170000D01*
X115980000Y-67870000D01*
X116190000Y-67800000D01*
X116270000Y-67580000D01*
X116560000Y-66700000D01*
X116810000Y-65850000D01*
X116970000Y-65180000D01*
X116240000Y-64610000D01*
X116600000Y-64570000D01*
X117050000Y-64590000D01*
X117530000Y-64600000D01*
X115610000Y-64180000D01*
X114810000Y-63990000D01*
X114380000Y-63020000D01*
X114010000Y-62120000D01*
X114720000Y-63140000D01*
D11*
X113104761Y-61452380D02*
X113104761Y-60452380D01*
X113104761Y-60928571D02*
X113676190Y-60928571D01*
X113676190Y-61452380D02*
X113676190Y-60452380D01*
X114580952Y-61452380D02*
X114580952Y-60928571D01*
X114533333Y-60833333D01*
X114438095Y-60785714D01*
X114247619Y-60785714D01*
X114152380Y-60833333D01*
X114580952Y-61404761D02*
X114485714Y-61452380D01*
X114247619Y-61452380D01*
X114152380Y-61404761D01*
X114104761Y-61309523D01*
X114104761Y-61214285D01*
X114152380Y-61119047D01*
X114247619Y-61071428D01*
X114485714Y-61071428D01*
X114580952Y-61023809D01*
X115057142Y-61452380D02*
X115057142Y-60785714D01*
X115057142Y-60976190D02*
X115104761Y-60880952D01*
X115152380Y-60833333D01*
X115247619Y-60785714D01*
X115342857Y-60785714D01*
X116104761Y-61452380D02*
X116104761Y-60452380D01*
X116104761Y-61404761D02*
X116009523Y-61452380D01*
X115819047Y-61452380D01*
X115723809Y-61404761D01*
X115676190Y-61357142D01*
X115628571Y-61261904D01*
X115628571Y-60976190D01*
X115676190Y-60880952D01*
X115723809Y-60833333D01*
X115819047Y-60785714D01*
X116009523Y-60785714D01*
X116104761Y-60833333D01*
X116580952Y-61452380D02*
X116580952Y-60452380D01*
X116819047Y-60452380D01*
X116961904Y-60500000D01*
X117057142Y-60595238D01*
X117104761Y-60690476D01*
X117152380Y-60880952D01*
X117152380Y-61023809D01*
X117104761Y-61214285D01*
X117057142Y-61309523D01*
X116961904Y-61404761D01*
X116819047Y-61452380D01*
X116580952Y-61452380D01*
X118009523Y-60785714D02*
X118009523Y-61452380D01*
X117580952Y-60785714D02*
X117580952Y-61309523D01*
X117628571Y-61404761D01*
X117723809Y-61452380D01*
X117866666Y-61452380D01*
X117961904Y-61404761D01*
X118009523Y-61357142D01*
X118485714Y-61452380D02*
X118485714Y-60785714D01*
X118485714Y-60452380D02*
X118438095Y-60500000D01*
X118485714Y-60547619D01*
X118533333Y-60500000D01*
X118485714Y-60452380D01*
X118485714Y-60547619D01*
X118961904Y-60785714D02*
X118961904Y-61452380D01*
X118961904Y-60880952D02*
X119009523Y-60833333D01*
X119104761Y-60785714D01*
X119247619Y-60785714D01*
X119342857Y-60833333D01*
X119390476Y-60928571D01*
X119390476Y-61452380D01*
X120009523Y-61452380D02*
X119914285Y-61404761D01*
X119866666Y-61357142D01*
X119819047Y-61261904D01*
X119819047Y-60976190D01*
X119866666Y-60880952D01*
X119914285Y-60833333D01*
X120009523Y-60785714D01*
X120152380Y-60785714D01*
X120247619Y-60833333D01*
X120295238Y-60880952D01*
X120342857Y-60976190D01*
X120342857Y-61261904D01*
X120295238Y-61357142D01*
X120247619Y-61404761D01*
X120152380Y-61452380D01*
X120009523Y-61452380D01*
X89527142Y-82050000D02*
X89431904Y-82002380D01*
X89289047Y-82002380D01*
X89146190Y-82050000D01*
X89050952Y-82145238D01*
X89003333Y-82240476D01*
X88955714Y-82430952D01*
X88955714Y-82573809D01*
X89003333Y-82764285D01*
X89050952Y-82859523D01*
X89146190Y-82954761D01*
X89289047Y-83002380D01*
X89384285Y-83002380D01*
X89527142Y-82954761D01*
X89574761Y-82907142D01*
X89574761Y-82573809D01*
X89384285Y-82573809D01*
X90003333Y-82335714D02*
X90003333Y-83002380D01*
X90003333Y-82430952D02*
X90050952Y-82383333D01*
X90146190Y-82335714D01*
X90289047Y-82335714D01*
X90384285Y-82383333D01*
X90431904Y-82478571D01*
X90431904Y-83002380D01*
X91336666Y-83002380D02*
X91336666Y-82002380D01*
X91336666Y-82954761D02*
X91241428Y-83002380D01*
X91050952Y-83002380D01*
X90955714Y-82954761D01*
X90908095Y-82907142D01*
X90860476Y-82811904D01*
X90860476Y-82526190D01*
X90908095Y-82430952D01*
X90955714Y-82383333D01*
X91050952Y-82335714D01*
X91241428Y-82335714D01*
X91336666Y-82383333D01*
X89455714Y-80176666D02*
X89931904Y-80176666D01*
X89360476Y-80462380D02*
X89693809Y-79462380D01*
X90027142Y-80462380D01*
X90836666Y-79462380D02*
X90360476Y-79462380D01*
X90312857Y-79938571D01*
X90360476Y-79890952D01*
X90455714Y-79843333D01*
X90693809Y-79843333D01*
X90789047Y-79890952D01*
X90836666Y-79938571D01*
X90884285Y-80033809D01*
X90884285Y-80271904D01*
X90836666Y-80367142D01*
X90789047Y-80414761D01*
X90693809Y-80462380D01*
X90455714Y-80462380D01*
X90360476Y-80414761D01*
X90312857Y-80367142D01*
X89455714Y-77636666D02*
X89931904Y-77636666D01*
X89360476Y-77922380D02*
X89693809Y-76922380D01*
X90027142Y-77922380D01*
X90789047Y-77255714D02*
X90789047Y-77922380D01*
X90550952Y-76874761D02*
X90312857Y-77589047D01*
X90931904Y-77589047D01*
X89455714Y-75096666D02*
X89931904Y-75096666D01*
X89360476Y-75382380D02*
X89693809Y-74382380D01*
X90027142Y-75382380D01*
X90265238Y-74382380D02*
X90884285Y-74382380D01*
X90550952Y-74763333D01*
X90693809Y-74763333D01*
X90789047Y-74810952D01*
X90836666Y-74858571D01*
X90884285Y-74953809D01*
X90884285Y-75191904D01*
X90836666Y-75287142D01*
X90789047Y-75334761D01*
X90693809Y-75382380D01*
X90408095Y-75382380D01*
X90312857Y-75334761D01*
X90265238Y-75287142D01*
X89455714Y-72556666D02*
X89931904Y-72556666D01*
X89360476Y-72842380D02*
X89693809Y-71842380D01*
X90027142Y-72842380D01*
X90312857Y-71937619D02*
X90360476Y-71890000D01*
X90455714Y-71842380D01*
X90693809Y-71842380D01*
X90789047Y-71890000D01*
X90836666Y-71937619D01*
X90884285Y-72032857D01*
X90884285Y-72128095D01*
X90836666Y-72270952D01*
X90265238Y-72842380D01*
X90884285Y-72842380D01*
X89455714Y-70016666D02*
X89931904Y-70016666D01*
X89360476Y-70302380D02*
X89693809Y-69302380D01*
X90027142Y-70302380D01*
X90884285Y-70302380D02*
X90312857Y-70302380D01*
X90598571Y-70302380D02*
X90598571Y-69302380D01*
X90503333Y-69445238D01*
X90408095Y-69540476D01*
X90312857Y-69588095D01*
X89455714Y-67476666D02*
X89931904Y-67476666D01*
X89360476Y-67762380D02*
X89693809Y-66762380D01*
X90027142Y-67762380D01*
X90550952Y-66762380D02*
X90646190Y-66762380D01*
X90741428Y-66810000D01*
X90789047Y-66857619D01*
X90836666Y-66952857D01*
X90884285Y-67143333D01*
X90884285Y-67381428D01*
X90836666Y-67571904D01*
X90789047Y-67667142D01*
X90741428Y-67714761D01*
X90646190Y-67762380D01*
X90550952Y-67762380D01*
X90455714Y-67714761D01*
X90408095Y-67667142D01*
X90360476Y-67571904D01*
X90312857Y-67381428D01*
X90312857Y-67143333D01*
X90360476Y-66952857D01*
X90408095Y-66857619D01*
X90455714Y-66810000D01*
X90550952Y-66762380D01*
X88979523Y-59142380D02*
X89312857Y-60142380D01*
X89646190Y-59142380D01*
X90408095Y-60094761D02*
X90312857Y-60142380D01*
X90122380Y-60142380D01*
X90027142Y-60094761D01*
X89979523Y-60047142D01*
X89931904Y-59951904D01*
X89931904Y-59666190D01*
X89979523Y-59570952D01*
X90027142Y-59523333D01*
X90122380Y-59475714D01*
X90312857Y-59475714D01*
X90408095Y-59523333D01*
X91265238Y-60094761D02*
X91170000Y-60142380D01*
X90979523Y-60142380D01*
X90884285Y-60094761D01*
X90836666Y-60047142D01*
X90789047Y-59951904D01*
X90789047Y-59666190D01*
X90836666Y-59570952D01*
X90884285Y-59523333D01*
X90979523Y-59475714D01*
X91170000Y-59475714D01*
X91265238Y-59523333D01*
X89979523Y-65222380D02*
X89408095Y-65222380D01*
X89693809Y-65222380D02*
X89693809Y-64222380D01*
X89598571Y-64365238D01*
X89503333Y-64460476D01*
X89408095Y-64508095D01*
X90312857Y-64222380D02*
X90931904Y-64222380D01*
X90598571Y-64603333D01*
X90741428Y-64603333D01*
X90836666Y-64650952D01*
X90884285Y-64698571D01*
X90931904Y-64793809D01*
X90931904Y-65031904D01*
X90884285Y-65127142D01*
X90836666Y-65174761D01*
X90741428Y-65222380D01*
X90455714Y-65222380D01*
X90360476Y-65174761D01*
X90312857Y-65127142D01*
X89979523Y-62682380D02*
X89408095Y-62682380D01*
X89693809Y-62682380D02*
X89693809Y-61682380D01*
X89598571Y-61825238D01*
X89503333Y-61920476D01*
X89408095Y-61968095D01*
X90360476Y-61777619D02*
X90408095Y-61730000D01*
X90503333Y-61682380D01*
X90741428Y-61682380D01*
X90836666Y-61730000D01*
X90884285Y-61777619D01*
X90931904Y-61872857D01*
X90931904Y-61968095D01*
X90884285Y-62110952D01*
X90312857Y-62682380D01*
X90931904Y-62682380D01*
X128079523Y-60142380D02*
X127508095Y-60142380D01*
X127793809Y-60142380D02*
X127793809Y-59142380D01*
X127698571Y-59285238D01*
X127603333Y-59380476D01*
X127508095Y-59428095D01*
X129031904Y-60142380D02*
X128460476Y-60142380D01*
X128746190Y-60142380D02*
X128746190Y-59142380D01*
X128650952Y-59285238D01*
X128555714Y-59380476D01*
X128460476Y-59428095D01*
X128079523Y-62682380D02*
X127508095Y-62682380D01*
X127793809Y-62682380D02*
X127793809Y-61682380D01*
X127698571Y-61825238D01*
X127603333Y-61920476D01*
X127508095Y-61968095D01*
X128698571Y-61682380D02*
X128793809Y-61682380D01*
X128889047Y-61730000D01*
X128936666Y-61777619D01*
X128984285Y-61872857D01*
X129031904Y-62063333D01*
X129031904Y-62301428D01*
X128984285Y-62491904D01*
X128936666Y-62587142D01*
X128889047Y-62634761D01*
X128793809Y-62682380D01*
X128698571Y-62682380D01*
X128603333Y-62634761D01*
X128555714Y-62587142D01*
X128508095Y-62491904D01*
X128460476Y-62301428D01*
X128460476Y-62063333D01*
X128508095Y-61872857D01*
X128555714Y-61777619D01*
X128603333Y-61730000D01*
X128698571Y-61682380D01*
X128079523Y-65222380D02*
X128270000Y-65222380D01*
X128365238Y-65174761D01*
X128412857Y-65127142D01*
X128508095Y-64984285D01*
X128555714Y-64793809D01*
X128555714Y-64412857D01*
X128508095Y-64317619D01*
X128460476Y-64270000D01*
X128365238Y-64222380D01*
X128174761Y-64222380D01*
X128079523Y-64270000D01*
X128031904Y-64317619D01*
X127984285Y-64412857D01*
X127984285Y-64650952D01*
X128031904Y-64746190D01*
X128079523Y-64793809D01*
X128174761Y-64841428D01*
X128365238Y-64841428D01*
X128460476Y-64793809D01*
X128508095Y-64746190D01*
X128555714Y-64650952D01*
X128174761Y-67190952D02*
X128079523Y-67143333D01*
X128031904Y-67095714D01*
X127984285Y-67000476D01*
X127984285Y-66952857D01*
X128031904Y-66857619D01*
X128079523Y-66810000D01*
X128174761Y-66762380D01*
X128365238Y-66762380D01*
X128460476Y-66810000D01*
X128508095Y-66857619D01*
X128555714Y-66952857D01*
X128555714Y-67000476D01*
X128508095Y-67095714D01*
X128460476Y-67143333D01*
X128365238Y-67190952D01*
X128174761Y-67190952D01*
X128079523Y-67238571D01*
X128031904Y-67286190D01*
X127984285Y-67381428D01*
X127984285Y-67571904D01*
X128031904Y-67667142D01*
X128079523Y-67714761D01*
X128174761Y-67762380D01*
X128365238Y-67762380D01*
X128460476Y-67714761D01*
X128508095Y-67667142D01*
X128555714Y-67571904D01*
X128555714Y-67381428D01*
X128508095Y-67286190D01*
X128460476Y-67238571D01*
X128365238Y-67190952D01*
X127936666Y-69302380D02*
X128603333Y-69302380D01*
X128174761Y-70302380D01*
X128460476Y-71842380D02*
X128270000Y-71842380D01*
X128174761Y-71890000D01*
X128127142Y-71937619D01*
X128031904Y-72080476D01*
X127984285Y-72270952D01*
X127984285Y-72651904D01*
X128031904Y-72747142D01*
X128079523Y-72794761D01*
X128174761Y-72842380D01*
X128365238Y-72842380D01*
X128460476Y-72794761D01*
X128508095Y-72747142D01*
X128555714Y-72651904D01*
X128555714Y-72413809D01*
X128508095Y-72318571D01*
X128460476Y-72270952D01*
X128365238Y-72223333D01*
X128174761Y-72223333D01*
X128079523Y-72270952D01*
X128031904Y-72318571D01*
X127984285Y-72413809D01*
X128508095Y-74382380D02*
X128031904Y-74382380D01*
X127984285Y-74858571D01*
X128031904Y-74810952D01*
X128127142Y-74763333D01*
X128365238Y-74763333D01*
X128460476Y-74810952D01*
X128508095Y-74858571D01*
X128555714Y-74953809D01*
X128555714Y-75191904D01*
X128508095Y-75287142D01*
X128460476Y-75334761D01*
X128365238Y-75382380D01*
X128127142Y-75382380D01*
X128031904Y-75334761D01*
X127984285Y-75287142D01*
X128460476Y-77255714D02*
X128460476Y-77922380D01*
X128222380Y-76874761D02*
X127984285Y-77589047D01*
X128603333Y-77589047D01*
X127936666Y-79462380D02*
X128555714Y-79462380D01*
X128222380Y-79843333D01*
X128365238Y-79843333D01*
X128460476Y-79890952D01*
X128508095Y-79938571D01*
X128555714Y-80033809D01*
X128555714Y-80271904D01*
X128508095Y-80367142D01*
X128460476Y-80414761D01*
X128365238Y-80462380D01*
X128079523Y-80462380D01*
X127984285Y-80414761D01*
X127936666Y-80367142D01*
X127984285Y-82097619D02*
X128031904Y-82050000D01*
X128127142Y-82002380D01*
X128365238Y-82002380D01*
X128460476Y-82050000D01*
X128508095Y-82097619D01*
X128555714Y-82192857D01*
X128555714Y-82288095D01*
X128508095Y-82430952D01*
X127936666Y-83002380D01*
X128555714Y-83002380D01*
D12*
X124400000Y-81220000D02*
X125730000Y-81220000D01*
X124400000Y-82550000D02*
X124400000Y-81220000D01*
X124400000Y-83820000D02*
X127060000Y-83820000D01*
X127060000Y-83820000D02*
X127060000Y-83880000D01*
X124400000Y-83820000D02*
X124400000Y-83880000D01*
X124400000Y-83880000D02*
X127060000Y-83880000D01*
X124400000Y-81340000D02*
X127060000Y-81340000D01*
X124400000Y-81280000D02*
X124400000Y-81340000D01*
X127060000Y-81280000D02*
X127060000Y-81340000D01*
X124400000Y-81280000D02*
X127060000Y-81280000D01*
X124400000Y-80010000D02*
X124400000Y-78680000D01*
X124400000Y-78680000D02*
X125730000Y-78680000D01*
X124400000Y-76140000D02*
X125730000Y-76140000D01*
X124400000Y-77470000D02*
X124400000Y-76140000D01*
X124400000Y-78740000D02*
X127060000Y-78740000D01*
X127060000Y-78740000D02*
X127060000Y-78800000D01*
X124400000Y-78740000D02*
X124400000Y-78800000D01*
X124400000Y-78800000D02*
X127060000Y-78800000D01*
X124400000Y-76260000D02*
X127060000Y-76260000D01*
X124400000Y-76200000D02*
X124400000Y-76260000D01*
X127060000Y-76200000D02*
X127060000Y-76260000D01*
X124400000Y-76200000D02*
X127060000Y-76200000D01*
X124400000Y-74930000D02*
X124400000Y-73600000D01*
X124400000Y-73600000D02*
X125730000Y-73600000D01*
X124400000Y-71060000D02*
X125730000Y-71060000D01*
X124400000Y-72390000D02*
X124400000Y-71060000D01*
X124400000Y-73660000D02*
X127060000Y-73660000D01*
X127060000Y-73660000D02*
X127060000Y-73720000D01*
X124400000Y-73660000D02*
X124400000Y-73720000D01*
X124400000Y-73720000D02*
X127060000Y-73720000D01*
X124400000Y-71180000D02*
X127060000Y-71180000D01*
X124400000Y-71120000D02*
X124400000Y-71180000D01*
X127060000Y-71120000D02*
X127060000Y-71180000D01*
X124400000Y-71120000D02*
X127060000Y-71120000D01*
X124400000Y-69850000D02*
X124400000Y-68520000D01*
X124400000Y-68520000D02*
X125730000Y-68520000D01*
X124400000Y-65980000D02*
X125730000Y-65980000D01*
X124400000Y-67310000D02*
X124400000Y-65980000D01*
X124400000Y-68580000D02*
X127060000Y-68580000D01*
X127060000Y-68580000D02*
X127060000Y-68640000D01*
X124400000Y-68580000D02*
X124400000Y-68640000D01*
X124400000Y-68640000D02*
X127060000Y-68640000D01*
X124400000Y-66100000D02*
X127060000Y-66100000D01*
X124400000Y-66040000D02*
X124400000Y-66100000D01*
X127060000Y-66040000D02*
X127060000Y-66100000D01*
X124400000Y-66040000D02*
X127060000Y-66040000D01*
X124400000Y-64770000D02*
X124400000Y-63440000D01*
X124400000Y-63440000D02*
X125730000Y-63440000D01*
X124400000Y-60900000D02*
X125730000Y-60900000D01*
X124400000Y-62230000D02*
X124400000Y-60900000D01*
X124400000Y-63500000D02*
X127060000Y-63500000D01*
X127060000Y-63500000D02*
X127060000Y-63560000D01*
X124400000Y-63500000D02*
X124400000Y-63560000D01*
X124400000Y-63560000D02*
X127060000Y-63560000D01*
X124400000Y-61020000D02*
X127060000Y-61020000D01*
X124400000Y-60960000D02*
X124400000Y-61020000D01*
X127060000Y-60960000D02*
X127060000Y-61020000D01*
X124400000Y-60960000D02*
X127060000Y-60960000D01*
X124400000Y-59690000D02*
X124400000Y-58360000D01*
X124400000Y-58360000D02*
X125730000Y-58360000D01*
X91380000Y-60900000D02*
X92710000Y-60900000D01*
X91380000Y-62230000D02*
X91380000Y-60900000D01*
X91380000Y-63500000D02*
X94040000Y-63500000D01*
X94040000Y-63500000D02*
X94040000Y-63560000D01*
X91380000Y-63500000D02*
X91380000Y-63560000D01*
X91380000Y-63560000D02*
X94040000Y-63560000D01*
X91380000Y-66100000D02*
X94040000Y-66100000D01*
X91380000Y-66040000D02*
X91380000Y-66100000D01*
X94040000Y-66040000D02*
X94040000Y-66100000D01*
X91380000Y-66040000D02*
X94040000Y-66040000D01*
X91380000Y-64770000D02*
X91380000Y-63440000D01*
X91380000Y-63440000D02*
X92710000Y-63440000D01*
X91380000Y-68640000D02*
X94040000Y-68640000D01*
X91380000Y-68580000D02*
X91380000Y-68640000D01*
X94040000Y-68580000D02*
X94040000Y-68640000D01*
X91380000Y-68580000D02*
X94040000Y-68580000D01*
X91380000Y-67310000D02*
X91380000Y-65980000D01*
X91380000Y-65980000D02*
X92710000Y-65980000D01*
X91380000Y-68520000D02*
X92710000Y-68520000D01*
X91380000Y-69850000D02*
X91380000Y-68520000D01*
X91380000Y-71120000D02*
X94040000Y-71120000D01*
X94040000Y-71120000D02*
X94040000Y-71180000D01*
X91380000Y-71120000D02*
X91380000Y-71180000D01*
X91380000Y-71180000D02*
X94040000Y-71180000D01*
X91380000Y-73720000D02*
X94040000Y-73720000D01*
X91380000Y-73660000D02*
X91380000Y-73720000D01*
X94040000Y-73660000D02*
X94040000Y-73720000D01*
X91380000Y-73660000D02*
X94040000Y-73660000D01*
X91380000Y-72390000D02*
X91380000Y-71060000D01*
X91380000Y-71060000D02*
X92710000Y-71060000D01*
X91380000Y-73600000D02*
X92710000Y-73600000D01*
X91380000Y-74930000D02*
X91380000Y-73600000D01*
X91380000Y-76200000D02*
X94040000Y-76200000D01*
X94040000Y-76200000D02*
X94040000Y-76260000D01*
X91380000Y-76200000D02*
X91380000Y-76260000D01*
X91380000Y-76260000D02*
X94040000Y-76260000D01*
X91380000Y-78800000D02*
X94040000Y-78800000D01*
X91380000Y-78740000D02*
X91380000Y-78800000D01*
X94040000Y-78740000D02*
X94040000Y-78800000D01*
X91380000Y-78740000D02*
X94040000Y-78740000D01*
X91380000Y-77470000D02*
X91380000Y-76140000D01*
X91380000Y-76140000D02*
X92710000Y-76140000D01*
X91380000Y-78680000D02*
X92710000Y-78680000D01*
X91380000Y-80010000D02*
X91380000Y-78680000D01*
X91380000Y-81280000D02*
X94040000Y-81280000D01*
X94040000Y-81280000D02*
X94040000Y-81340000D01*
X91380000Y-81280000D02*
X91380000Y-81340000D01*
X91380000Y-81340000D02*
X94040000Y-81340000D01*
X91380000Y-61020000D02*
X94040000Y-61020000D01*
X91380000Y-60960000D02*
X91380000Y-61020000D01*
X94040000Y-60960000D02*
X94040000Y-61020000D01*
X91380000Y-60960000D02*
X94040000Y-60960000D01*
X91380000Y-59690000D02*
X91380000Y-58360000D01*
X91380000Y-58360000D02*
X92710000Y-58360000D01*
X91380000Y-81220000D02*
X92710000Y-81220000D01*
X91380000Y-82550000D02*
X91380000Y-81220000D01*
X91380000Y-83820000D02*
X94040000Y-83820000D01*
X94040000Y-83820000D02*
X94040000Y-83880000D01*
X91380000Y-83820000D02*
X91380000Y-83880000D01*
X91380000Y-83880000D02*
X94040000Y-83880000D01*
X114240000Y-83442500D02*
X114240000Y-86102500D01*
X119380000Y-83442500D02*
X114240000Y-83442500D01*
X119380000Y-86102500D02*
X114240000Y-86102500D01*
X119380000Y-83442500D02*
X119380000Y-86102500D01*
X120650000Y-83442500D02*
X121980000Y-83442500D01*
X121980000Y-83442500D02*
X121980000Y-84772500D01*
X97416252Y-62305000D02*
X96893748Y-62305000D01*
X97416252Y-60885000D02*
X96893748Y-60885000D01*
X99870000Y-80410000D02*
X101370000Y-80410000D01*
X103870000Y-79160000D02*
X103870000Y-74660000D01*
X101370000Y-73410000D02*
X99870000Y-73410000D01*
X97370000Y-74660000D02*
X97370000Y-79160000D01*
X115150000Y-74660000D02*
X115150000Y-79160000D01*
X119150000Y-73410000D02*
X117650000Y-73410000D01*
X121650000Y-79160000D02*
X121650000Y-74660000D01*
X117650000Y-80410000D02*
X119150000Y-80410000D01*
X108760000Y-80410000D02*
X110260000Y-80410000D01*
X112760000Y-79160000D02*
X112760000Y-74660000D01*
X110260000Y-73410000D02*
X108760000Y-73410000D01*
X106260000Y-74660000D02*
X106260000Y-79160000D01*
X106260000Y-84185000D02*
X106260000Y-88685000D01*
X110260000Y-82935000D02*
X108760000Y-82935000D01*
X112760000Y-88685000D02*
X112760000Y-84185000D01*
X108760000Y-89935000D02*
X110260000Y-89935000D01*
X99870000Y-59137500D02*
X101370000Y-59137500D01*
X103870000Y-57887500D02*
X103870000Y-53387500D01*
X101370000Y-52137500D02*
X99870000Y-52137500D01*
X97370000Y-53387500D02*
X97370000Y-57887500D01*
X115150000Y-53387500D02*
X115150000Y-57887500D01*
X119150000Y-52137500D02*
X117650000Y-52137500D01*
X121650000Y-57887500D02*
X121650000Y-53387500D01*
X117650000Y-59137500D02*
X119150000Y-59137500D01*
X106260000Y-53387500D02*
X106260000Y-57887500D01*
X110260000Y-52137500D02*
X108760000Y-52137500D01*
X112760000Y-57887500D02*
X112760000Y-53387500D01*
X108760000Y-59137500D02*
X110260000Y-59137500D01*
X108760000Y-70885000D02*
X110260000Y-70885000D01*
X112760000Y-69635000D02*
X112760000Y-65135000D01*
X110260000Y-63885000D02*
X108760000Y-63885000D01*
X106260000Y-65135000D02*
X106260000Y-69635000D01*
D11*
X122432380Y-85605833D02*
X123146666Y-85605833D01*
X123289523Y-85653452D01*
X123384761Y-85748690D01*
X123432380Y-85891547D01*
X123432380Y-85986785D01*
X123432380Y-85129642D02*
X122432380Y-85129642D01*
X122432380Y-84748690D01*
X122480000Y-84653452D01*
X122527619Y-84605833D01*
X122622857Y-84558214D01*
X122765714Y-84558214D01*
X122860952Y-84605833D01*
X122908571Y-84653452D01*
X122956190Y-84748690D01*
X122956190Y-85129642D01*
X123432380Y-83605833D02*
X123432380Y-84177261D01*
X123432380Y-83891547D02*
X122432380Y-83891547D01*
X122575238Y-83986785D01*
X122670476Y-84082023D01*
X122718095Y-84177261D01*
X96988333Y-63697380D02*
X96655000Y-63221190D01*
X96416904Y-63697380D02*
X96416904Y-62697380D01*
X96797857Y-62697380D01*
X96893095Y-62745000D01*
X96940714Y-62792619D01*
X96988333Y-62887857D01*
X96988333Y-63030714D01*
X96940714Y-63125952D01*
X96893095Y-63173571D01*
X96797857Y-63221190D01*
X96416904Y-63221190D01*
X97369285Y-62792619D02*
X97416904Y-62745000D01*
X97512142Y-62697380D01*
X97750238Y-62697380D01*
X97845476Y-62745000D01*
X97893095Y-62792619D01*
X97940714Y-62887857D01*
X97940714Y-62983095D01*
X97893095Y-63125952D01*
X97321666Y-63697380D01*
X97940714Y-63697380D01*
X101052261Y-76009404D02*
X101099880Y-75866547D01*
X101099880Y-75628452D01*
X101052261Y-75533214D01*
X101004642Y-75485595D01*
X100909404Y-75437976D01*
X100814166Y-75437976D01*
X100718928Y-75485595D01*
X100671309Y-75533214D01*
X100623690Y-75628452D01*
X100576071Y-75818928D01*
X100528452Y-75914166D01*
X100480833Y-75961785D01*
X100385595Y-76009404D01*
X100290357Y-76009404D01*
X100195119Y-75961785D01*
X100147500Y-75914166D01*
X100099880Y-75818928D01*
X100099880Y-75580833D01*
X100147500Y-75437976D01*
X101099880Y-74485595D02*
X101099880Y-75057023D01*
X101099880Y-74771309D02*
X100099880Y-74771309D01*
X100242738Y-74866547D01*
X100337976Y-74961785D01*
X100385595Y-75057023D01*
X118832261Y-76009404D02*
X118879880Y-75866547D01*
X118879880Y-75628452D01*
X118832261Y-75533214D01*
X118784642Y-75485595D01*
X118689404Y-75437976D01*
X118594166Y-75437976D01*
X118498928Y-75485595D01*
X118451309Y-75533214D01*
X118403690Y-75628452D01*
X118356071Y-75818928D01*
X118308452Y-75914166D01*
X118260833Y-75961785D01*
X118165595Y-76009404D01*
X118070357Y-76009404D01*
X117975119Y-75961785D01*
X117927500Y-75914166D01*
X117879880Y-75818928D01*
X117879880Y-75580833D01*
X117927500Y-75437976D01*
X117975119Y-75057023D02*
X117927500Y-75009404D01*
X117879880Y-74914166D01*
X117879880Y-74676071D01*
X117927500Y-74580833D01*
X117975119Y-74533214D01*
X118070357Y-74485595D01*
X118165595Y-74485595D01*
X118308452Y-74533214D01*
X118879880Y-75104642D01*
X118879880Y-74485595D01*
X109942261Y-77914404D02*
X109989880Y-77771547D01*
X109989880Y-77533452D01*
X109942261Y-77438214D01*
X109894642Y-77390595D01*
X109799404Y-77342976D01*
X109704166Y-77342976D01*
X109608928Y-77390595D01*
X109561309Y-77438214D01*
X109513690Y-77533452D01*
X109466071Y-77723928D01*
X109418452Y-77819166D01*
X109370833Y-77866785D01*
X109275595Y-77914404D01*
X109180357Y-77914404D01*
X109085119Y-77866785D01*
X109037500Y-77819166D01*
X108989880Y-77723928D01*
X108989880Y-77485833D01*
X109037500Y-77342976D01*
X108989880Y-77009642D02*
X108989880Y-76390595D01*
X109370833Y-76723928D01*
X109370833Y-76581071D01*
X109418452Y-76485833D01*
X109466071Y-76438214D01*
X109561309Y-76390595D01*
X109799404Y-76390595D01*
X109894642Y-76438214D01*
X109942261Y-76485833D01*
X109989880Y-76581071D01*
X109989880Y-76866785D01*
X109942261Y-76962023D01*
X109894642Y-77009642D01*
X109942261Y-88391904D02*
X109989880Y-88249047D01*
X109989880Y-88010952D01*
X109942261Y-87915714D01*
X109894642Y-87868095D01*
X109799404Y-87820476D01*
X109704166Y-87820476D01*
X109608928Y-87868095D01*
X109561309Y-87915714D01*
X109513690Y-88010952D01*
X109466071Y-88201428D01*
X109418452Y-88296666D01*
X109370833Y-88344285D01*
X109275595Y-88391904D01*
X109180357Y-88391904D01*
X109085119Y-88344285D01*
X109037500Y-88296666D01*
X108989880Y-88201428D01*
X108989880Y-87963333D01*
X109037500Y-87820476D01*
X109323214Y-86963333D02*
X109989880Y-86963333D01*
X108942261Y-87201428D02*
X109656547Y-87439523D01*
X109656547Y-86820476D01*
X101052261Y-55054404D02*
X101099880Y-54911547D01*
X101099880Y-54673452D01*
X101052261Y-54578214D01*
X101004642Y-54530595D01*
X100909404Y-54482976D01*
X100814166Y-54482976D01*
X100718928Y-54530595D01*
X100671309Y-54578214D01*
X100623690Y-54673452D01*
X100576071Y-54863928D01*
X100528452Y-54959166D01*
X100480833Y-55006785D01*
X100385595Y-55054404D01*
X100290357Y-55054404D01*
X100195119Y-55006785D01*
X100147500Y-54959166D01*
X100099880Y-54863928D01*
X100099880Y-54625833D01*
X100147500Y-54482976D01*
X100099880Y-53578214D02*
X100099880Y-54054404D01*
X100576071Y-54102023D01*
X100528452Y-54054404D01*
X100480833Y-53959166D01*
X100480833Y-53721071D01*
X100528452Y-53625833D01*
X100576071Y-53578214D01*
X100671309Y-53530595D01*
X100909404Y-53530595D01*
X101004642Y-53578214D01*
X101052261Y-53625833D01*
X101099880Y-53721071D01*
X101099880Y-53959166D01*
X101052261Y-54054404D01*
X101004642Y-54102023D01*
X118832261Y-55371904D02*
X118879880Y-55229047D01*
X118879880Y-54990952D01*
X118832261Y-54895714D01*
X118784642Y-54848095D01*
X118689404Y-54800476D01*
X118594166Y-54800476D01*
X118498928Y-54848095D01*
X118451309Y-54895714D01*
X118403690Y-54990952D01*
X118356071Y-55181428D01*
X118308452Y-55276666D01*
X118260833Y-55324285D01*
X118165595Y-55371904D01*
X118070357Y-55371904D01*
X117975119Y-55324285D01*
X117927500Y-55276666D01*
X117879880Y-55181428D01*
X117879880Y-54943333D01*
X117927500Y-54800476D01*
X117879880Y-53943333D02*
X117879880Y-54133809D01*
X117927500Y-54229047D01*
X117975119Y-54276666D01*
X118117976Y-54371904D01*
X118308452Y-54419523D01*
X118689404Y-54419523D01*
X118784642Y-54371904D01*
X118832261Y-54324285D01*
X118879880Y-54229047D01*
X118879880Y-54038571D01*
X118832261Y-53943333D01*
X118784642Y-53895714D01*
X118689404Y-53848095D01*
X118451309Y-53848095D01*
X118356071Y-53895714D01*
X118308452Y-53943333D01*
X118260833Y-54038571D01*
X118260833Y-54229047D01*
X118308452Y-54324285D01*
X118356071Y-54371904D01*
X118451309Y-54419523D01*
X109942261Y-55054404D02*
X109989880Y-54911547D01*
X109989880Y-54673452D01*
X109942261Y-54578214D01*
X109894642Y-54530595D01*
X109799404Y-54482976D01*
X109704166Y-54482976D01*
X109608928Y-54530595D01*
X109561309Y-54578214D01*
X109513690Y-54673452D01*
X109466071Y-54863928D01*
X109418452Y-54959166D01*
X109370833Y-55006785D01*
X109275595Y-55054404D01*
X109180357Y-55054404D01*
X109085119Y-55006785D01*
X109037500Y-54959166D01*
X108989880Y-54863928D01*
X108989880Y-54625833D01*
X109037500Y-54482976D01*
X108989880Y-54149642D02*
X108989880Y-53482976D01*
X109989880Y-53911547D01*
X110259761Y-67119404D02*
X110307380Y-66976547D01*
X110307380Y-66738452D01*
X110259761Y-66643214D01*
X110212142Y-66595595D01*
X110116904Y-66547976D01*
X110021666Y-66547976D01*
X109926428Y-66595595D01*
X109878809Y-66643214D01*
X109831190Y-66738452D01*
X109783571Y-66928928D01*
X109735952Y-67024166D01*
X109688333Y-67071785D01*
X109593095Y-67119404D01*
X109497857Y-67119404D01*
X109402619Y-67071785D01*
X109355000Y-67024166D01*
X109307380Y-66928928D01*
X109307380Y-66690833D01*
X109355000Y-66547976D01*
X109735952Y-65976547D02*
X109688333Y-66071785D01*
X109640714Y-66119404D01*
X109545476Y-66167023D01*
X109497857Y-66167023D01*
X109402619Y-66119404D01*
X109355000Y-66071785D01*
X109307380Y-65976547D01*
X109307380Y-65786071D01*
X109355000Y-65690833D01*
X109402619Y-65643214D01*
X109497857Y-65595595D01*
X109545476Y-65595595D01*
X109640714Y-65643214D01*
X109688333Y-65690833D01*
X109735952Y-65786071D01*
X109735952Y-65976547D01*
X109783571Y-66071785D01*
X109831190Y-66119404D01*
X109926428Y-66167023D01*
X110116904Y-66167023D01*
X110212142Y-66119404D01*
X110259761Y-66071785D01*
X110307380Y-65976547D01*
X110307380Y-65786071D01*
X110259761Y-65690833D01*
X110212142Y-65643214D01*
X110116904Y-65595595D01*
X109926428Y-65595595D01*
X109831190Y-65643214D01*
X109783571Y-65690833D01*
X109735952Y-65786071D01*
M02*
